<svg width="400" height="376" viewBox="0 0 400 376" fill="none" xmlns="http://www.w3.org/2000/svg">
<path d="M152.438 336.753H8.05879C3.60832 336.753 0 333.145 0 328.694V55.2181C0 50.7676 3.60832 47.1592 8.05879 47.1592H152.437C156.887 47.1592 160.496 50.7676 160.496 55.2181V328.695C160.497 333.146 156.888 336.753 152.438 336.753Z" fill="url(#paint0_linear_8771_73826)"/>
<path d="M36.599 49.1739H9.06613C4.61567 49.1739 1.00735 52.7823 1.00735 57.2328V330.71C1.00735 331.608 1.16046 332.468 1.43144 333.275C0.53087 331.974 0 330.398 0 328.695V55.2181C0 50.7676 3.60832 47.1592 8.05879 47.1592H36.7511C36.6856 47.8261 36.6352 48.498 36.599 49.1739ZM152.438 47.1592H124.205C124.272 47.8271 124.329 48.498 124.365 49.1739H153.445C156.194 49.1739 158.618 50.553 160.073 52.6534C159.001 49.461 155.991 47.1592 152.438 47.1592Z" fill="#A87BFD"/>
<g opacity="0.5">
<path d="M153.368 63.9448H9.125V321.981H153.368V63.9448Z" fill="black"/>
</g>
<path d="M152.368 62.9391H8.125V320.975H152.368V62.9391Z" fill="url(#paint1_linear_8771_73826)"/>
<path d="M89.1969 56.188H71.2741C70.6435 56.188 70.1328 55.6772 70.1328 55.0466C70.1328 54.416 70.6435 53.9053 71.2741 53.9053H89.1969C89.8275 53.9053 90.3382 54.416 90.3382 55.0466C90.3382 55.6772 89.8265 56.188 89.1969 56.188Z" fill="#342A67"/>
<path d="M91.4667 112.927H69.031C64.9583 112.927 61.6562 109.625 61.6562 105.552V83.116C61.6562 79.0432 64.9583 75.7411 69.031 75.7411H91.4667C95.5394 75.7411 98.8415 79.0432 98.8415 83.116V105.552C98.8415 109.625 95.5394 112.927 91.4667 112.927Z" fill="#FFD9D8"/>
<path d="M48.3105 112.927H25.8748C21.8021 112.927 18.5 109.625 18.5 105.552V83.116C18.5 79.0433 21.8021 75.7411 25.8748 75.7411H48.3105C52.3832 75.7411 55.6852 79.0433 55.6852 83.116V105.552C55.6852 109.625 52.3832 112.927 48.3105 112.927Z" fill="#6BD3A1"/>
<path d="M134.631 112.927H112.195C108.122 112.927 104.82 109.625 104.82 105.552V83.116C104.82 79.0432 108.121 75.7411 112.195 75.7411H134.631C138.703 75.7411 142.006 79.0432 142.006 83.116V105.552C142.006 109.625 138.703 112.927 134.631 112.927Z" fill="#A87BFD"/>
<path d="M91.4667 156.085H69.031C64.9583 156.085 61.6562 152.783 61.6562 148.71V126.274C61.6562 122.202 64.9583 118.899 69.031 118.899H91.4667C95.5394 118.899 98.8415 122.202 98.8415 126.274V148.71C98.8415 152.783 95.5394 156.085 91.4667 156.085Z" fill="#FFD25E"/>
<path d="M48.3105 156.085H25.8748C21.8021 156.085 18.5 152.783 18.5 148.71V126.274C18.5 122.202 21.8021 118.899 25.8748 118.899H48.3105C52.3832 118.899 55.6852 122.202 55.6852 126.274V148.71C55.6852 152.783 52.3832 156.085 48.3105 156.085Z" fill="#543BCF"/>
<path d="M134.623 156.085H112.187C108.115 156.085 104.812 152.783 104.812 148.71V126.274C104.812 122.202 108.114 118.899 112.187 118.899H134.623C138.696 118.899 141.998 122.202 141.998 126.274V148.71C141.998 152.783 138.696 156.085 134.623 156.085Z" fill="#FF7D57"/>
<path d="M91.4667 199.247H69.031C64.9583 199.247 61.6562 195.944 61.6562 191.872V169.436C61.6562 165.363 64.9583 162.061 69.031 162.061H91.4667C95.5394 162.061 98.8415 165.363 98.8415 169.436V191.872C98.8415 195.944 95.5394 199.247 91.4667 199.247Z" fill="#CCEEEE"/>
<path d="M48.3105 199.247H25.8748C21.8021 199.247 18.5 195.944 18.5 191.872V169.436C18.5 165.363 21.8021 162.061 25.8748 162.061H48.3105C52.3832 162.061 55.6852 165.363 55.6852 169.436V191.872C55.6852 195.944 52.3832 199.247 48.3105 199.247Z" fill="#F9E4CE"/>
<path d="M134.631 199.247H112.195C108.122 199.247 104.82 195.944 104.82 191.872V169.436C104.82 165.363 108.121 162.061 112.195 162.061H134.631C138.703 162.061 142.006 165.363 142.006 169.436V191.872C142.006 195.944 138.703 199.247 134.631 199.247Z" fill="#55C4FC"/>
<path d="M81.2509 128.677L82.9473 133.899C83.0904 134.34 83.5003 134.637 83.9627 134.637H89.4538C90.4883 134.637 90.9185 135.961 90.0813 136.569L85.6389 139.797C85.2652 140.069 85.1081 140.55 85.2511 140.99L86.9475 146.212C87.2668 147.197 86.1416 148.015 85.3045 147.406L80.8621 144.179C80.4874 143.907 79.9807 143.907 79.6069 144.179L75.1645 147.406C74.3274 148.015 73.2022 147.197 73.5216 146.212L75.2179 140.99C75.361 140.55 75.2038 140.069 74.8301 139.797L70.3877 136.569C69.5506 135.961 69.9807 134.637 71.0153 134.637H76.5063C76.9687 134.637 77.3787 134.339 77.5217 133.899L79.2181 128.677C79.5395 127.694 80.9316 127.694 81.2509 128.677Z" stroke="#FFB63D" stroke-width="2" stroke-miterlimit="10" stroke-linecap="round" stroke-linejoin="round"/>
<path d="M81.2509 128.677L82.9473 133.899C83.0904 134.34 83.5003 134.637 83.9627 134.637H89.4538C90.4883 134.637 90.9185 135.961 90.0813 136.569L85.6389 139.797C85.2652 140.069 85.1081 140.55 85.2511 140.99L86.9475 146.212C87.2668 147.197 86.1416 148.015 85.3045 147.406L80.8621 144.179C80.4874 143.907 79.9807 143.907 79.6069 144.179L75.1645 147.406C74.3274 148.015 73.2022 147.197 73.5216 146.212L75.2179 140.99C75.361 140.55 75.2038 140.069 74.8301 139.797L70.3877 136.569C69.5506 135.961 69.9807 134.637 71.0153 134.637H76.5063C76.9687 134.637 77.3787 134.339 77.5217 133.899L79.2181 128.677C79.5395 127.694 80.9316 127.694 81.2509 128.677Z" fill="white"/>
<path opacity="0.4" d="M160.494 328.693V246.217L144.004 239.09L143.565 217.492C143.47 212.845 139.64 209.205 134.992 209.329L116.912 209.814C112.481 209.933 108.738 213.371 108.289 217.774L107.683 255.784L108.58 161.069C108.67 151.625 100.631 144.084 90.5535 144.084C80.3934 144.084 71.7725 151.737 71.3675 161.325L65.0222 311.546L67.6293 249.835L47.1418 278.029C37.5257 291.261 34.3142 308.167 38.8413 323.147L42.9523 336.752H152.435C156.885 336.752 160.494 333.145 160.494 328.693Z" fill="url(#paint2_linear_8771_73826)"/>
<path d="M180.144 267.544L173.288 263.394C170.094 261.461 167.808 258.331 166.936 254.702C165.942 250.561 163.114 247.1 159.254 245.3L140.423 236.519V216.157C140.423 211.678 136.792 208.047 132.314 208.047H115.055C110.864 208.047 107.364 211.241 106.98 215.414L106.75 250.272V159.054C106.75 149.118 98.6954 141.063 88.7589 141.063C78.8224 141.063 70.7677 149.118 70.7677 159.054V295.393V243.435L54.2089 266.94C46.7666 277.505 45.0148 291.062 49.5298 303.172L68.3279 353.594C69.9417 357.922 70.7677 362.504 70.7677 367.123V375.299H162.429V355.248C177.754 344.521 186.881 326.991 186.881 308.285V279.499C186.881 274.608 184.325 270.076 180.144 267.544Z" fill="#F4EAD0"/>
<path d="M70.7764 243.434V295.392L67.5055 290.11C65.4264 286.753 64.6195 282.762 65.2299 278.862L70.7764 243.434ZM140.431 236.519V252.142L143.207 237.814L140.431 236.519ZM111.875 208.707C109.216 209.847 107.27 212.366 106.99 215.414V252.143L111.875 208.707Z" fill="url(#paint3_linear_8771_73826)"/>
<path opacity="0.4" d="M39.4796 47.1579C39.3738 48.0565 39.2872 48.9611 39.2408 49.8758C38.2204 70.2417 51.9596 87.5744 70.6993 92.1307C71.4296 92.308 72.0371 92.8097 72.3211 93.5057L78.34 108.252C79.1258 110.177 81.8527 110.177 82.6394 108.252L88.6573 93.5088C88.9424 92.8117 89.5508 92.308 90.2822 92.1307C108.364 87.7326 121.791 71.4384 121.791 52.0024C121.791 50.3624 121.686 48.7486 121.501 47.159L39.4796 47.1579Z" fill="url(#paint4_linear_8771_73826)"/>
<path d="M120.017 49.2177C120.017 26.4452 100.76 8.17162 77.642 9.79348C57.8758 11.1796 42.0121 27.3931 41.0198 47.1838C40.0427 66.6733 53.1916 83.2595 71.1244 87.6194C71.8225 87.7896 72.4038 88.2691 72.6758 88.935L78.4358 103.046C79.1883 104.889 81.7973 104.889 82.5498 103.046L88.3088 88.938C88.5808 88.2711 89.164 87.7886 89.8641 87.6184C107.168 83.4096 120.017 67.8166 120.017 49.2177Z" fill="#FFD25E"/>
<path d="M100.458 44.4523C100.458 49.3189 99.0096 53.0784 96.1145 55.7298C93.2184 58.3812 89.1053 59.7078 83.7745 59.7078H80.4371V74.1585H68.5625V30.5981H83.7734C89.3239 30.5981 93.4934 31.7998 96.2797 34.2024C99.065 36.606 100.458 40.023 100.458 44.4523ZM80.4371 50.1127H82.6019C84.3849 50.1127 85.8033 49.6171 86.8559 48.6238C87.9076 47.6306 88.4344 46.2605 88.4344 44.5118C88.4344 41.5723 86.7915 40.1015 83.5045 40.1015H80.4381V50.1127H80.4371Z" fill="white"/>
<path d="M100.458 44.4523C100.458 49.3189 99.0096 53.0784 96.1145 55.7298C93.2184 58.3812 89.1053 59.7078 83.7745 59.7078H80.4371V74.1585H68.5625V30.5981H83.7734C89.3239 30.5981 93.4934 31.7998 96.2797 34.2024C99.065 36.606 100.458 40.023 100.458 44.4523ZM80.4371 50.1127H82.6019C84.3849 50.1127 85.8033 49.6171 86.8559 48.6238C87.9076 47.6306 88.4344 46.2605 88.4344 44.5118C88.4344 41.5723 86.7915 40.1015 83.5045 40.1015H80.4381V50.1127H80.4371Z" fill="white"/>
<path d="M48.7188 66.9408C45.7189 61.3621 44.1404 54.9049 44.4839 48.0508C45.3885 30.0028 59.855 15.2167 77.8815 13.9525C93.5095 12.8565 107.194 21.7344 113.234 34.8583C106.768 22.8536 93.7019 14.9286 78.8889 15.9672C60.8624 17.2315 46.3959 32.0176 45.4913 50.0655C45.1891 56.1087 46.3787 61.8436 48.7188 66.9408ZM75.3682 88.1408C75.2654 87.889 74.1795 87.626 73.9106 87.4901L78.6068 98.9952C78.7166 99.2631 79.8872 99.4737 80.0685 99.656L75.3682 88.1408Z" fill="white"/>
<path d="M311.184 331.468C345.868 331.468 373.985 303.35 373.985 268.665C373.985 233.981 345.868 205.863 311.184 205.863C276.5 205.863 248.383 233.981 248.383 268.665C248.383 303.35 276.5 331.468 311.184 331.468Z" fill="#CCEEEE"/>
<path d="M299.904 240.219L326.888 227.606L317.677 216.596L301.085 233.245L318.94 207.543L304.157 198.557C304.157 198.557 295.543 221.743 288.75 240.218H299.904V240.219Z" fill="url(#paint5_linear_8771_73826)"/>
<path opacity="0.4" d="M288.75 240.217H299.903L307.571 235.523H294.685L294.977 223.332L288.75 240.217Z" fill="url(#paint6_linear_8771_73826)"/>
<path d="M292.115 240.218L294.776 199.751L259.414 210.732L281.843 240.218H292.115Z" fill="url(#paint7_linear_8771_73826)"/>
<path d="M271.898 223.333L264.469 212.438L289.656 204.086L270.96 212.315L271.898 223.333Z" fill="white"/>
<path opacity="0.4" d="M281.851 240.217L280.906 238.976L292.21 238.911L292.123 240.217H281.851Z" fill="url(#paint8_linear_8771_73826)"/>
<path d="M323.471 239.993H240.25V336.751H323.471V239.993Z" fill="url(#paint9_linear_8771_73826)"/>
<path d="M323.471 336.75H240.25V333.167H323.471V336.75ZM323.471 325.999H240.25V329.583H323.471V325.999ZM323.471 318.832H240.25V322.415H323.471V318.832ZM323.471 311.665H240.25V315.248H323.471V311.665ZM323.471 304.498H240.25V308.081H323.471V304.498ZM323.471 297.331H240.25V300.914H323.471V297.331ZM323.471 290.163H240.25V293.747H323.471V290.163ZM323.471 282.996H240.25V286.579H323.471V282.996ZM323.471 275.829H240.25V279.412H323.471V275.829ZM323.471 268.661H240.25V272.244H323.471V268.661ZM323.471 261.494H240.25V265.077H323.471V261.494ZM323.471 254.328H240.25V257.911H323.471V254.328ZM323.471 247.16H240.25V250.743H323.471V247.16ZM323.471 239.993H240.25V243.577H323.471V239.993Z" fill="#A87BFD"/>
<path d="M346.046 239.993H323.469V336.751H346.046V239.993Z" fill="url(#paint10_linear_8771_73826)"/>
<path d="M346.046 336.75H323.469V333.167H346.046V336.75ZM346.046 325.999H323.469V329.583H346.046V325.999ZM346.046 318.832H323.469V322.415H346.046V318.832ZM346.046 311.665H323.469V315.248H346.046V311.665ZM346.046 304.498H323.469V308.081H346.046V304.498ZM346.046 297.331H323.469V300.914H346.046V297.331ZM346.046 290.163H323.469V293.747H346.046V290.163ZM346.046 282.996H323.469V286.579H346.046V282.996ZM346.046 275.829H323.469V279.412H346.046V275.829ZM346.046 268.661H323.469V272.244H346.046V268.661ZM346.046 261.494H323.469V265.077H346.046V261.494ZM346.046 254.328H323.469V257.911H346.046V254.328ZM346.046 247.16H323.469V250.743H346.046V247.16ZM346.046 239.993H323.469V243.577H346.046V239.993Z" fill="#543BCF"/>
<path opacity="0.4" d="M288.847 239.992H276.852V336.751H288.847V239.992Z" fill="url(#paint11_linear_8771_73826)"/>
<path opacity="0.4" d="M340.804 239.992H334.75V336.751H340.804V239.992Z" fill="url(#paint12_linear_8771_73826)"/>
<path d="M287.847 239.992H275.852V336.751H287.847V239.992Z" fill="url(#paint13_linear_8771_73826)"/>
<path d="M339.804 239.992H333.75V336.751H339.804V239.992Z" fill="url(#paint14_linear_8771_73826)"/>
<path opacity="0.4" d="M240.25 295.379V283.383H323.47V295.379H240.25Z" fill="url(#paint15_linear_8771_73826)"/>
<path d="M240.25 294.371V282.375H323.47V294.371H240.25Z" fill="url(#paint16_linear_8771_73826)"/>
<path d="M241.852 283.789H286.545L241.852 285.364V283.789Z" fill="white"/>
<path opacity="0.4" d="M323.469 295.379V283.383H346.046V295.379H323.469Z" fill="url(#paint17_linear_8771_73826)"/>
<path d="M323.469 294.371V282.375H346.046V294.371H323.469Z" fill="url(#paint18_linear_8771_73826)"/>
<path d="M355.595 133.222C380.12 108.697 380.12 68.9329 355.595 44.4074C331.07 19.8819 291.307 19.8819 266.782 44.4074C242.257 68.9329 242.257 108.697 266.782 133.222C291.307 157.748 331.07 157.748 355.595 133.222Z" fill="#CCEEEE"/>
<path d="M340.289 44.2456L234.656 50.1669L237.977 109.416L343.61 103.495L340.289 44.2456Z" fill="url(#paint19_linear_8771_73826)"/>
<path d="M243.305 96.5931L241.383 62.3125C244.945 62.113 247.671 59.0627 247.471 55.5007L328.136 50.9786C328.335 54.5407 331.384 57.2666 334.946 57.0671L336.868 91.3477C333.306 91.5472 330.58 94.5965 330.78 98.1595L250.116 102.682C249.916 99.1195 246.867 96.3936 243.305 96.5931Z" fill="#4D0CE7"/>
<path d="M307.133 75.8214C307.69 85.7661 300.082 94.2783 290.137 94.8364C280.194 95.3935 271.681 87.7848 271.122 77.8401C270.565 67.8965 278.174 59.3832 288.118 58.8251C298.063 58.2671 306.576 65.8777 307.133 75.8214Z" fill="url(#paint20_linear_8771_73826)"/>
<path d="M298.099 67.2286L292.886 77.6387L296.034 77.4624L296.221 80.4825L292.306 80.7021L292.404 82.3824L296.323 82.1628L296.509 85.1758L292.58 85.3964L292.76 88.485L286.837 88.8164L286.672 85.7269L282.683 85.9505L282.531 82.9365L286.51 82.7128L286.419 81.0315L282.445 81.2542L282.293 78.2321L285.356 78.0608L279.156 68.2904L285.559 67.9308L289.027 74.8836L291.718 67.5862L298.099 67.2286Z" fill="#4D0CE7"/>
<path opacity="0.2" d="M236.789 88.4677L341.557 67.1166L343.596 103.496L237.964 109.417L236.789 88.4677Z" fill="url(#paint21_linear_8771_73826)"/>
<path d="M343.797 70.2516L238.883 83.9044L246.541 142.751L351.455 129.098L343.797 70.2516Z" fill="url(#paint22_linear_8771_73826)"/>
<path d="M343.785 70.2648L238.875 83.913L238.979 84.7112L343.889 71.0629L343.785 70.2648Z" fill="white"/>
<path d="M250.93 129.571L246.5 95.5245C250.038 95.0641 252.533 91.8224 252.073 88.2846L332.188 77.8584C332.648 81.3962 335.89 83.8915 339.428 83.4301L343.858 117.477C340.32 117.937 337.825 121.179 338.286 124.717L258.17 135.143C257.709 131.606 254.468 129.111 250.93 129.571Z" fill="#4D0CE7"/>
<path d="M295.19 124.538C305.149 124.538 313.223 116.464 313.223 106.504C313.223 96.5443 305.149 88.4703 295.19 88.4703C285.23 88.4703 277.156 96.5443 277.156 106.504C277.156 116.464 285.23 124.538 295.19 124.538Z" fill="url(#paint23_linear_8771_73826)"/>
<path d="M303.407 96.2671L298.972 107.032L302.098 106.625L302.505 109.624L298.618 110.129L298.839 111.799L302.732 111.292L303.138 114.283L299.236 114.791L299.642 117.858L293.76 118.624L293.368 115.554L289.406 116.07L289.032 113.075L292.985 112.56L292.771 110.89L288.825 111.404L288.45 108.401L291.493 108.005L284.594 98.716L290.953 97.8879L294.921 104.568L297.069 97.0921L303.407 96.2671Z" fill="#4D0CE7"/>
<path opacity="0.2" d="M246.551 142.75L351.465 129.097L346.715 92.5965L241.719 105.621L246.551 142.75Z" fill="url(#paint24_linear_8771_73826)"/>
<path d="M346.057 104.495H240.258V163.838H346.057V104.495Z" fill="url(#paint25_linear_8771_73826)"/>
<path d="M346.057 104.495H240.258V105.3H346.057V104.495Z" fill="white"/>
<path d="M246.312 151.336V117.002C249.881 117.002 252.773 114.11 252.773 110.542H333.564C333.564 114.11 336.456 117.002 340.024 117.002V151.336C336.456 151.336 333.564 154.228 333.564 157.796H252.773C252.773 154.228 249.881 151.336 246.312 151.336Z" fill="#4D0CE7"/>
<path d="M293.159 152.202C303.118 152.202 311.192 144.128 311.192 134.168C311.192 124.208 303.118 116.134 293.159 116.134C283.199 116.134 275.125 124.208 275.125 134.168C275.125 144.128 283.199 152.202 293.159 152.202Z" fill="url(#paint26_linear_8771_73826)"/>
<path d="M302.636 125.081L296.848 135.183H300.002L300.018 138.209H296.098L296.102 139.892H300.027L300.045 142.911H296.109L296.116 146.005H290.185L290.192 142.911H286.197L286.213 139.892H290.199L290.203 138.209H286.223L286.239 135.183H289.307L283.664 125.081H290.077L293.15 132.216L296.245 125.081H302.636Z" fill="#4D0CE7"/>
<path d="M231.816 235.214V239.244L207.962 229.226V225.197L231.816 235.214ZM213.573 223.709L217.209 222.745L209.215 216.005C208.144 215.207 207.051 214.454 205.921 213.768C201.397 211.027 195.506 209.712 191.317 209.052C188.444 208.6 182.387 208.485 179.909 208.485H157.695V212.514H179.909C182.388 212.514 188.444 212.629 191.317 213.081C195.506 213.742 201.397 215.058 205.921 217.798C207.051 218.484 208.145 219.237 209.215 220.034L213.573 223.709Z" fill="#342A67"/>
<path d="M231.817 235.214L207.963 225.197L217.209 222.745L209.215 216.005C208.144 215.207 207.051 214.455 205.921 213.769C201.397 211.028 195.506 209.712 191.317 209.052C188.444 208.6 182.387 208.485 179.909 208.485H157.695V206.7C157.695 202.483 161.114 199.064 165.331 199.064H181.73C186.322 199.064 190.041 199.934 193.021 200.81C198.983 202.56 204.477 205.541 209.075 209.438C210.224 210.413 211.312 211.45 212.355 212.522L219.35 220.608L221.803 211.359L231.817 235.214Z" fill="url(#paint27_linear_8771_73826)"/>
<path d="M209.215 216.006C208.144 215.208 207.051 214.455 205.921 213.769C201.397 211.028 195.506 209.713 191.317 209.053C188.444 208.6 182.387 208.486 179.909 208.486H157.695V207.478H179.909C182.388 207.478 188.444 207.593 191.317 208.045C195.506 208.705 201.397 210.022 205.921 212.762C207.051 213.448 208.145 214.2 209.215 214.998L218.119 222.505L217.21 222.746L209.215 216.006ZM209.434 224.808L207.963 225.198L231.817 235.215L231.303 233.992L209.434 224.808Z" fill="#CCEEEE"/>
<path d="M231.817 148.697L207.963 158.715L217.209 161.167L209.215 167.907C208.144 168.705 207.051 169.457 205.921 170.143C201.397 172.883 195.506 174.2 191.317 174.86C188.444 175.313 182.387 175.427 179.909 175.427H157.695V177.212C157.695 181.429 161.114 184.848 165.331 184.848H181.73C186.322 184.848 190.041 183.977 193.021 183.101C198.983 181.351 204.477 178.37 209.075 174.473C210.224 173.498 211.312 172.461 212.355 171.389L219.35 163.303L221.803 172.552L231.817 148.697Z" fill="url(#paint28_linear_8771_73826)"/>
<path d="M231.818 144.67V148.7L207.964 158.717V154.687L231.818 144.67ZM191.318 174.862C195.507 174.201 201.398 172.885 205.922 170.145C207.052 169.459 208.146 168.707 209.216 167.909L217.21 161.169L213.574 160.205L209.215 163.88C208.144 164.677 207.051 165.43 205.921 166.116C201.397 168.856 195.506 170.173 191.317 170.832C188.444 171.286 182.387 171.399 179.909 171.399H157.695V175.43H179.909C182.389 175.43 188.445 175.315 191.318 174.862Z" fill="#342A67"/>
<path d="M209.433 159.105L207.962 158.715L231.816 148.697L231.302 149.92L209.433 159.105ZM191.316 175.867C195.505 175.207 201.396 173.891 205.92 171.151C207.05 170.465 208.144 169.712 209.214 168.914L218.118 161.407L217.209 161.167L209.215 167.907C208.144 168.705 207.051 169.457 205.921 170.143C201.397 172.883 195.506 174.2 191.317 174.86C188.444 175.313 182.387 175.427 179.909 175.427H157.695V176.434H179.909C182.387 176.435 188.443 176.32 191.316 175.867Z" fill="#CCEEEE"/>
<path d="M196.063 134.717L194.966 132.92L196.38 134.471C196.344 134.538 196.293 134.595 196.229 134.641C196.177 134.679 196.121 134.702 196.063 134.717ZM198.338 134.641C198.39 134.678 198.446 134.702 198.504 134.717L199.601 132.92L198.187 134.471C198.223 134.538 198.274 134.596 198.338 134.641ZM198.98 136.645C198.964 136.7 198.959 136.755 198.961 136.809L201.035 137.329L199.103 136.441C199.046 136.498 199.004 136.567 198.98 136.645ZM195.587 136.645C195.563 136.566 195.521 136.498 195.464 136.441L193.532 137.329L195.606 136.809C195.608 136.755 195.603 136.7 195.587 136.645ZM197.283 137.871C197.214 137.871 197.148 137.885 197.087 137.91L197.283 140.054L197.48 137.91C197.418 137.885 197.352 137.871 197.283 137.871ZM196.944 134.32C196.888 134.939 196.292 135.362 195.689 135.211L192.164 134.327L195.525 135.873C196.076 136.127 196.282 136.804 195.966 137.322L194.119 140.345L196.534 137.696C196.936 137.255 197.629 137.255 198.031 137.696L200.445 140.345L198.599 137.322C198.283 136.804 198.489 136.127 199.04 135.873L202.401 134.327L198.876 135.211C198.274 135.362 197.677 134.94 197.621 134.32L197.281 130.608L196.944 134.32Z" fill="url(#paint29_linear_8771_73826)"/>
<path d="M194.397 248.197L193.3 246.4L194.715 247.951C194.679 248.018 194.628 248.076 194.564 248.121C194.512 248.158 194.456 248.182 194.397 248.197ZM196.672 248.121C196.723 248.158 196.78 248.182 196.838 248.197L197.935 246.4L196.521 247.951C196.557 248.018 196.608 248.076 196.672 248.121ZM197.314 250.125C197.298 250.18 197.293 250.235 197.295 250.289L199.369 250.809L197.437 249.921C197.381 249.977 197.339 250.046 197.314 250.125ZM193.922 250.125C193.898 250.046 193.855 249.978 193.8 249.921L191.868 250.809L193.942 250.289C193.943 250.235 193.938 250.18 193.922 250.125ZM195.618 251.35C195.549 251.35 195.483 251.364 195.422 251.389L195.618 253.533L195.815 251.389C195.752 251.365 195.687 251.35 195.618 251.35ZM195.279 247.8C195.222 248.42 194.627 248.842 194.024 248.691L190.5 247.807L193.861 249.353C194.412 249.607 194.618 250.284 194.302 250.802L192.455 253.825L194.87 251.176C195.272 250.736 195.965 250.736 196.367 251.176L198.781 253.825L196.935 250.802C196.619 250.284 196.825 249.607 197.376 249.353L200.737 247.807L197.213 248.691C196.61 248.842 196.014 248.42 195.958 247.8L195.618 244.088L195.279 247.8Z" fill="url(#paint30_linear_8771_73826)"/>
<path d="M232.963 194.932L231.073 191.838L233.509 194.509C233.447 194.623 233.36 194.724 233.249 194.802C233.16 194.866 233.063 194.906 232.963 194.932ZM236.881 194.802C236.969 194.866 237.066 194.906 237.167 194.932L239.056 191.838L236.621 194.509C236.683 194.624 236.77 194.724 236.881 194.802ZM237.986 198.252C237.957 198.346 237.949 198.441 237.952 198.536L241.523 199.431L238.197 197.901C238.101 197.999 238.027 198.116 237.986 198.252ZM232.144 198.252C232.103 198.116 232.028 197.999 231.933 197.9L228.607 199.43L232.178 198.534C232.18 198.441 232.172 198.346 232.144 198.252ZM235.065 200.363C234.946 200.363 234.833 200.387 234.728 200.431L235.065 204.123L235.403 200.431C235.297 200.387 235.183 200.363 235.065 200.363ZM234.48 194.249C234.382 195.315 233.357 196.042 232.318 195.782L226.25 194.261L232.036 196.923C232.985 197.359 233.34 198.525 232.796 199.417L229.617 204.623L233.775 200.062C234.467 199.303 235.661 199.303 236.353 200.062L240.511 204.623L237.332 199.417C236.788 198.525 237.142 197.36 238.091 196.923L243.878 194.261L237.809 195.782C236.771 196.042 235.745 195.315 235.648 194.249L235.063 187.856L234.48 194.249Z" fill="url(#paint31_linear_8771_73826)"/>
<path d="M208.706 306.187L206.018 301.785L209.484 305.586C209.395 305.748 209.271 305.89 209.114 306.003C208.986 306.093 208.848 306.15 208.706 306.187ZM214.279 306.003C214.404 306.093 214.542 306.15 214.686 306.187L217.373 301.785L213.908 305.586C213.998 305.749 214.121 305.891 214.279 306.003ZM215.851 310.911C215.811 311.044 215.8 311.179 215.803 311.313L220.883 312.586L216.15 310.409C216.015 310.549 215.91 310.716 215.851 310.911ZM207.54 310.911C207.481 310.716 207.376 310.549 207.24 310.41L202.508 312.587L207.588 311.314C207.592 311.179 207.581 311.044 207.54 310.911ZM211.696 313.913C211.526 313.913 211.364 313.948 211.215 314.01L211.696 319.262L212.176 314.01C212.026 313.948 211.865 313.913 211.696 313.913ZM210.864 305.215C210.725 306.731 209.266 307.767 207.789 307.396L199.156 305.231L207.387 309.018C208.737 309.638 209.242 311.298 208.468 312.566L203.945 319.972L209.86 313.484C210.845 312.404 212.544 312.404 213.528 313.484L219.443 319.972L214.92 312.566C214.147 311.299 214.651 309.638 216.001 309.018L224.232 305.231L215.599 307.396C214.122 307.767 212.663 306.731 212.525 305.215L211.694 296.122L210.864 305.215Z" fill="url(#paint32_linear_8771_73826)"/>
<path d="M341.41 186.686L339.658 183.817L341.917 186.294C341.859 186.4 341.779 186.493 341.676 186.565C341.593 186.625 341.504 186.662 341.41 186.686ZM345.042 186.566C345.124 186.625 345.215 186.662 345.307 186.686L347.059 183.817L344.801 186.294C344.859 186.4 344.94 186.493 345.042 186.566ZM346.067 189.764C346.041 189.851 346.034 189.94 346.036 190.026L349.347 190.856L346.262 189.438C346.174 189.529 346.105 189.638 346.067 189.764ZM340.65 189.764C340.612 189.638 340.544 189.529 340.455 189.438L337.37 190.856L340.682 190.026C340.685 189.939 340.678 189.851 340.65 189.764ZM343.359 191.721C343.249 191.721 343.144 191.743 343.046 191.784L343.359 195.207L343.672 191.784C343.575 191.744 343.469 191.721 343.359 191.721ZM342.817 186.052C342.726 187.041 341.776 187.715 340.814 187.474L335.188 186.062L340.553 188.53C341.432 188.935 341.761 190.016 341.257 190.842L338.309 195.669L342.164 191.44C342.806 190.737 343.913 190.737 344.555 191.44L348.41 195.669L345.462 190.842C344.958 190.016 345.287 188.934 346.167 188.53L351.532 186.062L345.906 187.474C344.943 187.715 343.992 187.041 343.902 186.052L343.36 180.126L342.817 186.052Z" fill="url(#paint33_linear_8771_73826)"/>
<path d="M176.531 118.543L176.012 117.694L176.681 118.428C176.664 118.459 176.64 118.486 176.61 118.508C176.585 118.524 176.558 118.535 176.531 118.543ZM177.606 118.507C177.63 118.524 177.657 118.535 177.684 118.542L178.203 117.693L177.534 118.427C177.552 118.459 177.576 118.486 177.606 118.507ZM177.91 119.454C177.902 119.48 177.9 119.505 177.901 119.532L178.881 119.777L177.967 119.357C177.941 119.385 177.921 119.417 177.91 119.454ZM176.306 119.454C176.295 119.417 176.274 119.385 176.249 119.357L175.335 119.777L176.315 119.532C176.315 119.506 176.313 119.48 176.306 119.454ZM177.108 120.033C177.076 120.033 177.045 120.04 177.015 120.052L177.108 121.066L177.201 120.052C177.172 120.04 177.14 120.033 177.108 120.033ZM176.947 118.355C176.92 118.648 176.639 118.848 176.354 118.776L174.688 118.358L176.276 119.088C176.537 119.208 176.634 119.529 176.485 119.773L175.611 121.203L176.753 119.951C176.943 119.742 177.27 119.742 177.461 119.951L178.602 121.203L177.73 119.773C177.581 119.529 177.678 119.208 177.938 119.088L179.527 118.358L177.861 118.776C177.576 118.848 177.295 118.648 177.267 118.355L177.107 116.6L176.947 118.355Z" fill="url(#paint34_linear_8771_73826)"/>
<path d="M362.851 166.416L362.332 165.567L363.001 166.3C362.984 166.331 362.96 166.359 362.93 166.381C362.905 166.398 362.878 166.409 362.851 166.416ZM363.926 166.381C363.95 166.398 363.977 166.409 364.005 166.416L364.523 165.567L363.855 166.3C363.872 166.331 363.896 166.359 363.926 166.381ZM364.23 167.328C364.222 167.354 364.22 167.379 364.221 167.405L365.201 167.651L364.288 167.231C364.262 167.258 364.241 167.29 364.23 167.328ZM362.626 167.328C362.615 167.29 362.594 167.258 362.568 167.231L361.655 167.651L362.635 167.405C362.636 167.379 362.634 167.353 362.626 167.328ZM363.428 167.907C363.396 167.907 363.365 167.914 363.336 167.926L363.428 168.939L363.521 167.926C363.492 167.914 363.461 167.907 363.428 167.907ZM363.267 166.229C363.24 166.521 362.959 166.721 362.674 166.65L361.008 166.232L362.596 166.962C362.857 167.082 362.954 167.402 362.805 167.647L361.932 169.076L363.073 167.824C363.263 167.616 363.591 167.616 363.781 167.824L364.922 169.076L364.05 167.647C363.901 167.402 363.998 167.082 364.259 166.962L365.847 166.232L364.181 166.65C363.896 166.721 363.615 166.522 363.588 166.229L363.427 164.474L363.267 166.229Z" fill="url(#paint35_linear_8771_73826)"/>
<path d="M220.312 275.474L219.793 274.625L220.462 275.358C220.445 275.389 220.421 275.417 220.391 275.439C220.366 275.456 220.339 275.467 220.312 275.474ZM221.387 275.438C221.411 275.455 221.438 275.466 221.466 275.473L221.984 274.624L221.316 275.357C221.333 275.389 221.357 275.417 221.387 275.438ZM221.691 276.386C221.683 276.411 221.681 276.437 221.682 276.463L222.662 276.709L221.749 276.289C221.722 276.315 221.702 276.348 221.691 276.386ZM220.087 276.386C220.075 276.348 220.055 276.316 220.029 276.289L219.115 276.709L220.096 276.463C220.097 276.437 220.095 276.411 220.087 276.386ZM220.889 276.965C220.857 276.965 220.826 276.972 220.797 276.984L220.889 277.998L220.982 276.984C220.953 276.971 220.922 276.965 220.889 276.965ZM220.728 275.287C220.701 275.579 220.42 275.779 220.135 275.708L218.469 275.29L220.057 276.02C220.317 276.14 220.415 276.46 220.266 276.705L219.392 278.135L220.534 276.882C220.724 276.674 221.052 276.674 221.242 276.882L222.383 278.135L221.511 276.705C221.362 276.46 221.459 276.14 221.719 276.02L223.308 275.29L221.642 275.708C221.357 275.779 221.075 275.58 221.049 275.287L220.888 273.532L220.728 275.287Z" fill="url(#paint36_linear_8771_73826)"/>
<path d="M195.115 82.7845L190.616 75.4166L196.416 81.7781C196.268 82.0491 196.061 82.2879 195.796 82.4752C195.586 82.6253 195.354 82.722 195.115 82.7845ZM204.444 82.4752C204.655 82.6253 204.887 82.722 205.125 82.7845L209.625 75.4166L203.825 81.7781C203.973 82.0501 204.18 82.2879 204.444 82.4752ZM207.076 90.6903C207.007 90.9139 206.989 91.1396 206.996 91.3632L215.499 93.4958L207.578 89.8522C207.351 90.0849 207.174 90.3649 207.076 90.6903ZM193.165 90.6903C193.066 90.3659 192.89 90.0849 192.664 89.8512L184.743 93.4948L193.246 91.3622C193.252 91.1396 193.233 90.9129 193.165 90.6903ZM200.121 95.715C199.838 95.715 199.567 95.7735 199.317 95.8782L200.121 104.668L200.925 95.8782C200.674 95.7735 200.403 95.715 200.121 95.715ZM198.729 81.1576C198.497 83.6962 196.054 85.4278 193.582 84.8083L179.133 81.1848L192.91 87.5231C195.169 88.5627 196.015 91.34 194.72 93.4615L187.149 105.858L197.051 94.9978C198.698 93.1906 201.542 93.1906 203.189 94.9978L213.091 105.858L205.52 93.4615C204.225 91.34 205.07 88.5627 207.33 87.5231L221.107 81.1848L206.658 84.8083C204.186 85.4278 201.743 83.6962 201.511 81.1576L200.119 65.9363L198.729 81.1576Z" fill="url(#paint37_linear_8771_73826)"/>
<path d="M257.434 182.487L256.414 180.818L257.729 182.259C257.696 182.321 257.648 182.375 257.589 182.417C257.541 182.451 257.487 182.473 257.434 182.487ZM259.547 182.417C259.595 182.452 259.648 182.473 259.701 182.488L260.721 180.819L259.406 182.26C259.441 182.321 259.488 182.375 259.547 182.417ZM260.144 184.279C260.129 184.329 260.124 184.381 260.126 184.431L262.053 184.915L260.257 184.089C260.206 184.141 260.167 184.204 260.144 184.279ZM256.992 184.279C256.97 184.205 256.929 184.142 256.878 184.089L255.083 184.915L257.01 184.431C257.012 184.381 257.007 184.329 256.992 184.279ZM258.568 185.417C258.504 185.417 258.442 185.43 258.386 185.455L258.568 187.446L258.75 185.455C258.693 185.43 258.632 185.417 258.568 185.417ZM258.253 182.118C258.2 182.693 257.646 183.086 257.086 182.945L253.812 182.124L256.934 183.561C257.446 183.796 257.637 184.425 257.344 184.907L255.629 187.715L257.872 185.254C258.246 184.845 258.89 184.845 259.263 185.254L261.507 187.715L259.791 184.907C259.497 184.426 259.689 183.796 260.201 183.561L263.323 182.124L260.049 182.945C259.489 183.085 258.936 182.693 258.882 182.118L258.567 178.669L258.253 182.118Z" fill="url(#paint38_linear_8771_73826)"/>
<defs>
<linearGradient id="paint0_linear_8771_73826" x1="2.03292" y1="8.64557" x2="227.59" y2="537.26" gradientUnits="userSpaceOnUse">
<stop stop-color="#543BCF"/>
<stop offset="1" stop-color="#342A67"/>
</linearGradient>
<linearGradient id="paint1_linear_8771_73826" x1="31.2173" y1="27.292" x2="227.996" y2="688.161" gradientUnits="userSpaceOnUse">
<stop stop-color="white"/>
<stop offset="1" stop-color="#CCEEEE"/>
</linearGradient>
<linearGradient id="paint2_linear_8771_73826" x1="37.0066" y1="139.812" x2="178.714" y2="471.916" gradientUnits="userSpaceOnUse">
<stop stop-color="#543BCF"/>
<stop offset="1" stop-color="#342A67"/>
</linearGradient>
<linearGradient id="paint3_linear_8771_73826" x1="162.886" y1="384.724" x2="62.6087" y2="174.437" gradientUnits="userSpaceOnUse">
<stop stop-color="#AC692A"/>
<stop offset="1" stop-color="#FFD9D8"/>
</linearGradient>
<linearGradient id="paint4_linear_8771_73826" x1="39.1881" y1="78.4257" x2="121.792" y2="78.4257" gradientUnits="userSpaceOnUse">
<stop stop-color="#543BCF"/>
<stop offset="1" stop-color="#342A67"/>
</linearGradient>
<linearGradient id="paint5_linear_8771_73826" x1="287.165" y1="195.572" x2="325.248" y2="260.201" gradientUnits="userSpaceOnUse">
<stop stop-color="#FFB63D"/>
<stop offset="0.9933" stop-color="#AC692A"/>
</linearGradient>
<linearGradient id="paint6_linear_8771_73826" x1="288.331" y1="221.188" x2="306.087" y2="251.32" gradientUnits="userSpaceOnUse">
<stop stop-color="#543BCF"/>
<stop offset="1" stop-color="#342A67"/>
</linearGradient>
<linearGradient id="paint7_linear_8771_73826" x1="268.408" y1="190.499" x2="312.156" y2="264.742" gradientUnits="userSpaceOnUse">
<stop offset="0.0067" stop-color="#FFD25E"/>
<stop offset="1" stop-color="#FFB63D"/>
</linearGradient>
<linearGradient id="paint8_linear_8771_73826" x1="284.064" y1="234.711" x2="291.108" y2="246.666" gradientUnits="userSpaceOnUse">
<stop stop-color="#543BCF"/>
<stop offset="1" stop-color="#342A67"/>
</linearGradient>
<linearGradient id="paint9_linear_8771_73826" x1="429.924" y1="559.362" x2="223.528" y2="181.624" gradientUnits="userSpaceOnUse">
<stop stop-color="#543BCF"/>
<stop offset="1" stop-color="#A87BFD"/>
</linearGradient>
<linearGradient id="paint10_linear_8771_73826" x1="237.886" y1="72.3053" x2="436.494" y2="515.272" gradientUnits="userSpaceOnUse">
<stop stop-color="#543BCF"/>
<stop offset="1" stop-color="#342A67"/>
</linearGradient>
<linearGradient id="paint11_linear_8771_73826" x1="246.236" y1="226.233" x2="339.399" y2="384.336" gradientUnits="userSpaceOnUse">
<stop stop-color="#543BCF"/>
<stop offset="1" stop-color="#342A67"/>
</linearGradient>
<linearGradient id="paint12_linear_8771_73826" x1="293.048" y1="197.768" x2="386.212" y2="386.472" gradientUnits="userSpaceOnUse">
<stop stop-color="#543BCF"/>
<stop offset="1" stop-color="#342A67"/>
</linearGradient>
<linearGradient id="paint13_linear_8771_73826" x1="245.236" y1="226.233" x2="338.399" y2="384.336" gradientUnits="userSpaceOnUse">
<stop offset="0.0067" stop-color="#FFD25E"/>
<stop offset="1" stop-color="#FFB63D"/>
</linearGradient>
<linearGradient id="paint14_linear_8771_73826" x1="292.048" y1="197.768" x2="385.212" y2="386.472" gradientUnits="userSpaceOnUse">
<stop stop-color="#FFB63D"/>
<stop offset="0.9933" stop-color="#AC692A"/>
</linearGradient>
<linearGradient id="paint15_linear_8771_73826" x1="245.246" y1="227.243" x2="338.409" y2="385.345" gradientUnits="userSpaceOnUse">
<stop stop-color="#543BCF"/>
<stop offset="1" stop-color="#342A67"/>
</linearGradient>
<linearGradient id="paint16_linear_8771_73826" x1="245.246" y1="226.235" x2="338.409" y2="384.337" gradientUnits="userSpaceOnUse">
<stop offset="0.0067" stop-color="#FFD25E"/>
<stop offset="1" stop-color="#FFB63D"/>
</linearGradient>
<linearGradient id="paint17_linear_8771_73826" x1="360.608" y1="278.676" x2="310.641" y2="299.367" gradientUnits="userSpaceOnUse">
<stop stop-color="#543BCF"/>
<stop offset="1" stop-color="#342A67"/>
</linearGradient>
<linearGradient id="paint18_linear_8771_73826" x1="360.608" y1="277.668" x2="310.641" y2="298.359" gradientUnits="userSpaceOnUse">
<stop stop-color="#FFB63D"/>
<stop offset="0.9933" stop-color="#AC692A"/>
</linearGradient>
<linearGradient id="paint19_linear_8771_73826" x1="293.688" y1="106.81" x2="274.53" y2="-19.2918" gradientUnits="userSpaceOnUse">
<stop offset="0.0067" stop-color="#F9E4CE"/>
<stop offset="1" stop-color="white"/>
</linearGradient>
<linearGradient id="paint20_linear_8771_73826" x1="316.682" y1="141.296" x2="265.767" y2="22.1756" gradientUnits="userSpaceOnUse">
<stop offset="0.0067" stop-color="#F9E4CE"/>
<stop offset="1" stop-color="white"/>
</linearGradient>
<linearGradient id="paint21_linear_8771_73826" x1="284.374" y1="57.8305" x2="293.094" y2="107.1" gradientUnits="userSpaceOnUse">
<stop stop-color="#543BCF" stop-opacity="0"/>
<stop offset="1" stop-color="#342A67"/>
</linearGradient>
<linearGradient id="paint22_linear_8771_73826" x1="331.656" y1="158.696" x2="224.218" y2="5.01089" gradientUnits="userSpaceOnUse">
<stop offset="0.0067" stop-color="#F9E4CE"/>
<stop offset="1" stop-color="white"/>
</linearGradient>
<linearGradient id="paint23_linear_8771_73826" x1="327.393" y1="168.777" x2="267.886" y2="53.7082" gradientUnits="userSpaceOnUse">
<stop offset="0.0067" stop-color="#F9E4CE"/>
<stop offset="1" stop-color="white"/>
</linearGradient>
<linearGradient id="paint24_linear_8771_73826" x1="286.114" y1="62.6306" x2="303.857" y2="155.472" gradientUnits="userSpaceOnUse">
<stop stop-color="#543BCF" stop-opacity="0"/>
<stop offset="1" stop-color="#342A67"/>
</linearGradient>
<linearGradient id="paint25_linear_8771_73826" x1="354.008" y1="301.973" x2="241.561" y2="-8.10405" gradientUnits="userSpaceOnUse">
<stop offset="0.0067" stop-color="#F9E4CE"/>
<stop offset="1" stop-color="white"/>
</linearGradient>
<linearGradient id="paint26_linear_8771_73826" x1="317.059" y1="200.075" x2="272.894" y2="78.2904" gradientUnits="userSpaceOnUse">
<stop offset="0.0067" stop-color="#F9E4CE"/>
<stop offset="1" stop-color="white"/>
</linearGradient>
<linearGradient id="paint27_linear_8771_73826" x1="420.927" y1="217.139" x2="-87.1446" y2="217.139" gradientUnits="userSpaceOnUse">
<stop offset="0.0092" stop-color="#CCEEEE"/>
<stop offset="1" stop-color="#A87BFD"/>
</linearGradient>
<linearGradient id="paint28_linear_8771_73826" x1="420.927" y1="166.773" x2="-87.1446" y2="166.773" gradientUnits="userSpaceOnUse">
<stop offset="0.0092" stop-color="#CCEEEE"/>
<stop offset="1" stop-color="#A87BFD"/>
</linearGradient>
<linearGradient id="paint29_linear_8771_73826" x1="184.23" y1="107.294" x2="223.28" y2="190.905" gradientUnits="userSpaceOnUse">
<stop offset="0.0092" stop-color="#CCEEEE"/>
<stop offset="1" stop-color="#A87BFD"/>
</linearGradient>
<linearGradient id="paint30_linear_8771_73826" x1="182.565" y1="220.774" x2="221.615" y2="304.384" gradientUnits="userSpaceOnUse">
<stop offset="0.0092" stop-color="#CCEEEE"/>
<stop offset="1" stop-color="#A87BFD"/>
</linearGradient>
<linearGradient id="paint31_linear_8771_73826" x1="212.589" y1="147.711" x2="279.83" y2="291.684" gradientUnits="userSpaceOnUse">
<stop offset="0.0092" stop-color="#CCEEEE"/>
<stop offset="1" stop-color="#A87BFD"/>
</linearGradient>
<linearGradient id="paint32_linear_8771_73826" x1="179.722" y1="239.011" x2="275.377" y2="443.825" gradientUnits="userSpaceOnUse">
<stop offset="0.0092" stop-color="#CCEEEE"/>
<stop offset="1" stop-color="#A87BFD"/>
</linearGradient>
<linearGradient id="paint33_linear_8771_73826" x1="322.52" y1="142.905" x2="384.863" y2="276.389" gradientUnits="userSpaceOnUse">
<stop offset="0.0092" stop-color="#CCEEEE"/>
<stop offset="1" stop-color="#A87BFD"/>
</linearGradient>
<linearGradient id="paint34_linear_8771_73826" x1="170.937" y1="105.579" x2="189.397" y2="145.104" gradientUnits="userSpaceOnUse">
<stop offset="0.0092" stop-color="#CCEEEE"/>
<stop offset="1" stop-color="#A87BFD"/>
</linearGradient>
<linearGradient id="paint35_linear_8771_73826" x1="357.258" y1="153.452" x2="375.717" y2="192.977" gradientUnits="userSpaceOnUse">
<stop offset="0.0092" stop-color="#CCEEEE"/>
<stop offset="1" stop-color="#A87BFD"/>
</linearGradient>
<linearGradient id="paint36_linear_8771_73826" x1="214.719" y1="262.51" x2="233.178" y2="302.035" gradientUnits="userSpaceOnUse">
<stop offset="0.0092" stop-color="#CCEEEE"/>
<stop offset="1" stop-color="#A87BFD"/>
</linearGradient>
<linearGradient id="paint37_linear_8771_73826" x1="146.602" y1="-29.6548" x2="306.711" y2="313.161" gradientUnits="userSpaceOnUse">
<stop offset="0.0092" stop-color="#CCEEEE"/>
<stop offset="1" stop-color="#A87BFD"/>
</linearGradient>
<linearGradient id="paint38_linear_8771_73826" x1="246.44" y1="157.007" x2="282.723" y2="234.693" gradientUnits="userSpaceOnUse">
<stop offset="0.0092" stop-color="#CCEEEE"/>
<stop offset="1" stop-color="#A87BFD"/>
</linearGradient>
</defs>
</svg>
