<svg width="566" height="358" viewBox="0 0 566 358" fill="none" xmlns="http://www.w3.org/2000/svg">
<path d="M528.322 335.315C528.322 339.968 524.511 343.776 519.853 343.776H61.8587C57.2005 343.776 53.3893 339.968 53.3893 335.315L49.5781 72.118C49.5781 67.4642 55.0611 58.379 65.1095 59.0619L512.712 47.4803C518.556 47.329 524.207 49.5785 528.346 53.704C532.485 57.8295 534.75 63.4699 534.612 69.309L528.322 335.315Z" fill="#F8FAFC"/>
<path d="M519.959 327.197C519.959 331.604 516.353 335.209 511.947 335.209H72.9019C68.495 335.209 64.8893 331.604 64.8893 327.197L61.293 88.2647C61.7165 73.8865 74.3223 68.7188 81.9638 69.024L510.95 57.5148C515.056 57.4047 519.026 58.9867 521.934 61.8875C524.842 64.7884 526.442 68.7582 526.339 72.8646L519.959 327.197Z" fill="#9AA4B2"/>
<path d="M69.6358 213.095C69.3185 213.095 69.0592 212.839 69.0542 212.521L68.7696 193.145C68.7652 192.823 69.0215 192.559 69.3429 192.554C69.6546 192.561 69.9283 192.806 69.9333 193.128L70.2179 212.504C70.2224 212.825 69.966 213.09 69.6446 213.095C69.6417 213.095 69.6387 213.095 69.6358 213.095Z" fill="#F9F5E8"/>
<path d="M68.9407 165.611C68.6234 165.611 68.3641 165.356 68.3591 165.037L67.2695 90.8234C67.2919 85.8868 68.8121 81.9437 71.7877 79.0923C77.2053 73.9005 85.6865 74.1666 86.0473 74.1751L223.046 70.4987C223.051 70.4987 223.057 70.4987 223.062 70.4987C223.376 70.4987 223.635 70.7492 223.643 71.0653C223.652 71.3864 223.399 71.6533 223.077 71.6625L86.0455 75.3388C85.6656 75.3218 77.6591 75.0781 72.5926 79.9323C69.8534 82.5571 68.4536 86.2199 68.433 90.8181L69.5226 165.021C69.527 165.342 69.2706 165.606 68.9492 165.611C68.9469 165.611 68.9439 165.611 68.9407 165.611Z" fill="#F9F5E8"/>
<g opacity="0.24">
<path d="M84.4113 313.48C84.871 293.732 84.6997 118.858 83.5666 103.756C82.4334 88.6527 105.955 85.8198 142.068 84.1201C178.181 82.4204 482.881 75.6913 490.726 75.0553C508.361 73.6252 512.011 99.9838 510.246 157.206C508.921 200.196 506.724 271.015 505.714 303.583C505.412 313.28 497.487 320.975 487.785 321.001C414.461 321.203 133.435 322.008 114.727 322.565C93.1983 323.206 84.2291 321.31 84.4113 313.48Z" fill="white"/>
</g>
<path d="M563.267 357.209H27.7284C26.5135 357.209 25.5195 356.215 25.5195 355V336.293C25.5195 335.078 26.5135 334.084 27.7284 334.084H563.267C564.482 334.084 565.476 335.078 565.476 336.293V355C565.476 356.215 564.482 357.209 563.267 357.209Z" fill="#EEF2F6"/>
<path d="M135.835 246.47H117.332V326.539H135.835V246.47Z" fill="#C69815"/>
<path d="M166.757 273.989H148.254V326.539H166.757V273.989Z" fill="#C69815"/>
<path d="M197.671 205.979H179.168V326.539H197.671V205.979Z" fill="#C69815"/>
<path d="M228.589 297.576H210.086V326.539H228.589V297.576Z" fill="#C69815"/>
<path d="M259.507 222.097H241.004V326.539H259.507V222.097Z" fill="#C69815"/>
<path d="M290.421 240.181H271.918V326.539H290.421V240.181Z" fill="#C69815"/>
<path d="M321.343 259.836H302.84V326.539H321.343V259.836Z" fill="#C69815"/>
<path d="M352.257 181.606H333.754V326.539H352.257V181.606Z" fill="#C69815"/>
<path d="M383.171 196.937H364.668V326.538H383.171V196.937Z" fill="#C69815"/>
<path d="M414.093 220.132H395.59V326.539H414.093V220.132Z" fill="#C69815"/>
<path d="M445.007 300.263H426.504V326.538H445.007V300.263Z" fill="#C69815"/>
<path d="M475.925 249.222H457.422V326.538H475.925V249.222Z" fill="#C69815"/>
<path d="M404.441 356.286C405.114 356.286 405.66 355.74 405.66 355.067V209.427C405.66 208.754 405.114 208.208 404.441 208.208C403.768 208.208 403.223 208.754 403.223 209.427V355.067C403.223 355.74 403.768 356.286 404.441 356.286Z" fill="#1F055C"/>
<path d="M437.453 356.286C438.126 356.286 438.671 355.74 438.671 355.067V209.427C438.671 208.754 438.126 208.208 437.453 208.208C436.78 208.208 436.234 208.754 436.234 209.427V355.067C436.234 355.74 436.78 356.286 437.453 356.286Z" fill="#1F055C"/>
<path d="M518.582 357.209C518.741 357.209 518.902 357.178 519.058 357.112C519.677 356.849 519.966 356.133 519.703 355.514L457.395 208.95C457.132 208.331 456.415 208.043 455.797 208.306C455.177 208.569 454.889 209.284 455.152 209.904L517.46 356.467C517.657 356.931 518.108 357.209 518.582 357.209Z" fill="#1F055C"/>
<path d="M480.094 357.209C480.253 357.209 480.414 357.178 480.57 357.112C481.189 356.849 481.478 356.133 481.214 355.514L418.907 208.95C418.643 208.331 417.927 208.043 417.308 208.306C416.689 208.569 416.4 209.284 416.664 209.904L478.972 356.467C479.169 356.931 479.62 357.209 480.094 357.209Z" fill="#1F055C"/>
<path d="M401.655 210.767H460.511C460.968 210.767 461.338 210.397 461.338 209.94V208.16C461.338 207.703 460.967 207.333 460.511 207.333H401.655C401.198 207.333 400.828 207.703 400.828 208.16V209.94C400.828 210.397 401.198 210.767 401.655 210.767Z" fill="#1F055C"/>
<path d="M427.199 233.056H465.8C466.473 233.056 467.018 232.511 467.018 231.838C467.018 231.164 466.473 230.619 465.8 230.619H427.199C426.526 230.619 425.98 231.164 425.98 231.838C425.98 232.511 426.526 233.056 427.199 233.056Z" fill="#1F055C"/>
<path d="M477.644 258.338H439.043V260.775H477.644V258.338Z" fill="#1F055C"/>
<path d="M489.109 286.057H450.508V288.494H489.109V286.057Z" fill="#1F055C"/>
<path d="M462.531 316.213H501.132C501.805 316.213 502.35 315.667 502.35 314.994C502.35 314.321 501.805 313.776 501.132 313.776H462.531C461.858 313.776 461.312 314.321 461.312 314.994C461.312 315.667 461.858 316.213 462.531 316.213Z" fill="#1F055C"/>
<path d="M474.16 343.932H512.761C513.434 343.932 513.979 343.387 513.979 342.714C513.979 342.041 513.434 341.495 512.761 341.495H474.16C473.487 341.495 472.941 342.04 472.941 342.714C472.942 343.387 473.487 343.932 474.16 343.932Z" fill="#1F055C"/>
<g opacity="0.64">
<path d="M172.742 171.125C172.112 171.125 171.532 170.714 171.347 170.079C171.125 169.324 170.913 168.564 170.712 167.8C170.508 167.023 170.971 166.228 171.748 166.023C172.526 165.821 173.321 166.282 173.525 167.059C173.719 167.797 173.924 168.531 174.138 169.261C174.364 170.032 173.922 170.84 173.152 171.066C173.015 171.106 172.877 171.125 172.742 171.125Z" fill="white"/>
<path d="M170.546 161.585C169.849 161.585 169.233 161.083 169.113 160.373C168.855 158.843 168.637 157.284 168.464 155.742C168.375 154.943 168.949 154.224 169.748 154.134C170.548 154.044 171.266 154.62 171.355 155.418C171.522 156.908 171.733 158.412 171.982 159.89C172.116 160.682 171.582 161.432 170.789 161.565C170.707 161.579 170.626 161.585 170.546 161.585ZM169.411 149.583C168.623 149.583 167.975 148.953 167.958 148.161C167.944 147.54 167.938 146.917 167.938 146.294C167.938 145.362 167.953 144.416 167.984 143.485C168.01 142.682 168.68 142.054 169.485 142.078C170.288 142.105 170.918 142.777 170.891 143.58C170.862 144.481 170.847 145.393 170.847 146.293C170.847 146.896 170.853 147.497 170.867 148.097C170.884 148.9 170.247 149.565 169.444 149.582C169.433 149.583 169.422 149.583 169.411 149.583ZM170.012 137.544C169.953 137.544 169.894 137.541 169.834 137.533C169.037 137.437 168.469 136.712 168.566 135.914C168.753 134.373 168.985 132.818 169.256 131.292C169.396 130.5 170.151 129.975 170.943 130.113C171.733 130.254 172.261 131.009 172.12 131.799C171.859 133.274 171.635 134.776 171.454 136.265C171.364 137.003 170.737 137.544 170.012 137.544ZM172.322 125.716C172.195 125.716 172.067 125.699 171.94 125.665C171.164 125.454 170.707 124.655 170.918 123.88C171.324 122.383 171.779 120.877 172.269 119.404C172.522 118.642 173.347 118.231 174.108 118.483C174.871 118.736 175.283 119.559 175.029 120.322C174.556 121.745 174.117 123.198 173.725 124.643C173.549 125.291 172.962 125.716 172.322 125.716ZM176.321 114.347C176.127 114.347 175.93 114.308 175.741 114.226C175.004 113.904 174.667 113.047 174.989 112.311C175.61 110.887 176.28 109.461 176.98 108.072C177.341 107.354 178.216 107.067 178.934 107.428C179.651 107.79 179.939 108.664 179.578 109.381C178.902 110.722 178.255 112.099 177.655 113.473C177.416 114.021 176.882 114.347 176.321 114.347ZM181.936 103.672C181.673 103.672 181.408 103.601 181.168 103.452C180.487 103.027 180.278 102.13 180.703 101.449C181.523 100.132 182.391 98.8186 183.286 97.5453C183.748 96.8884 184.655 96.7306 185.312 97.1913C185.969 97.653 186.128 98.5604 185.666 99.218C184.803 100.447 183.964 101.715 183.172 102.986C182.896 103.429 182.422 103.672 181.936 103.672ZM189.036 93.9252C188.705 93.9252 188.371 93.8121 188.098 93.5814C187.485 93.0628 187.408 92.1445 187.927 91.5314C188.931 90.3441 189.979 89.1707 191.043 88.044C191.594 87.4604 192.515 87.4339 193.099 87.9854C193.683 88.537 193.71 89.4576 193.158 90.0416C192.131 91.1297 191.118 92.2625 190.148 93.4095C189.86 93.75 189.45 93.9252 189.036 93.9252ZM197.464 85.303C197.062 85.303 196.662 85.1376 196.375 84.8126C195.842 84.2116 195.898 83.2922 196.499 82.76C197.66 81.7323 198.865 80.7221 200.083 79.7574C200.712 79.2573 201.627 79.3635 202.126 79.9937C202.625 80.6232 202.519 81.538 201.889 82.0369C200.713 82.9693 199.549 83.9447 198.428 84.9371C198.151 85.1826 197.807 85.303 197.464 85.303ZM207.04 77.9805C206.566 77.9805 206.102 77.7498 205.823 77.3236C205.382 76.652 205.569 75.7505 206.241 75.3101C207.541 74.4572 208.878 73.6313 210.216 72.8546C210.912 72.4511 211.801 72.6886 212.204 73.3823C212.607 74.0772 212.371 74.967 211.676 75.3702C210.384 76.1201 209.092 76.9183 207.837 77.7415C207.591 77.9034 207.314 77.9805 207.04 77.9805ZM291.813 74.0855C291.581 74.0855 291.348 74.0304 291.13 73.9139C289.811 73.2116 288.451 72.5356 287.087 71.9037C286.358 71.5661 286.041 70.7014 286.378 69.9726C286.716 69.2442 287.581 68.9266 288.309 69.2642C289.722 69.9182 291.131 70.6192 292.498 71.3471C293.207 71.7244 293.475 72.6056 293.098 73.3141C292.836 73.8053 292.333 74.0855 291.813 74.0855ZM217.565 72.1132C217.017 72.1132 216.493 71.8018 216.246 71.2729C215.907 70.5445 216.222 69.6792 216.95 69.3401C218.358 68.6832 219.8 68.0589 221.235 67.4838C221.981 67.1866 222.827 67.548 223.126 68.2935C223.424 69.0396 223.062 69.8861 222.316 70.1848C220.931 70.7393 219.539 71.3421 218.179 71.9761C217.98 72.0691 217.771 72.1132 217.565 72.1132ZM280.787 69.2106C280.624 69.2106 280.459 69.1827 280.297 69.1247C278.891 68.622 277.446 68.1508 276.005 67.7243C275.234 67.4965 274.794 66.6874 275.022 65.9168C275.25 65.1463 276.06 64.7057 276.83 64.9344C278.323 65.3765 279.82 65.8645 281.277 66.386C282.033 66.6565 282.427 67.4888 282.156 68.2449C281.944 68.8398 281.384 69.2106 280.787 69.2106ZM228.822 67.8291C228.196 67.8291 227.618 67.4217 227.429 66.791C227.199 66.0216 227.636 65.2111 228.406 64.9809C229.895 64.535 231.414 64.1259 232.921 63.7645C233.701 63.5758 234.487 64.0588 234.674 64.8405C234.861 65.621 234.38 66.4063 233.598 66.5938C232.144 66.942 230.678 67.3369 229.24 67.767C229.101 67.809 228.96 67.8291 228.822 67.8291ZM269.17 65.9904C269.075 65.9904 268.979 65.9807 268.883 65.9616C267.418 65.6684 265.92 65.4109 264.431 65.1969C263.636 65.0827 263.084 64.3452 263.198 63.5505C263.312 62.7555 264.047 62.2016 264.845 62.3176C266.387 62.5392 267.937 62.8056 269.454 63.1096C270.242 63.2671 270.752 64.0335 270.594 64.8214C270.456 65.5119 269.849 65.9904 269.17 65.9904ZM240.589 65.224C239.878 65.224 239.257 64.7036 239.151 63.9799C239.035 63.1849 239.585 62.4465 240.38 62.3305C241.918 62.1057 243.481 61.922 245.024 61.784C245.824 61.7136 246.531 62.3026 246.603 63.1031C246.674 63.9031 246.083 64.6098 245.283 64.6813C243.794 64.8143 242.285 64.9915 240.801 65.2084C240.729 65.219 240.658 65.224 240.589 65.224ZM257.206 64.4779C257.18 64.4779 257.153 64.4773 257.126 64.4755C255.677 64.3973 254.211 64.3558 252.768 64.3528L252.611 64.3534C251.807 64.3534 251.156 63.7024 251.156 62.8989C251.156 62.2107 251.634 61.6342 252.276 61.4832L252.414 61.444H252.617C254.162 61.444 255.732 61.4867 257.284 61.5712C258.086 61.6144 258.701 62.3002 258.657 63.1022C258.615 63.8775 257.974 64.4779 257.206 64.4779Z" fill="white"/>
<path d="M300.213 79.2165C299.926 79.2165 299.637 79.1318 299.384 78.9558C298.759 78.521 298.127 78.0955 297.49 77.6781C296.818 77.2378 296.63 76.3366 297.07 75.6646C297.51 74.9924 298.413 74.8049 299.083 75.2444C299.744 75.6767 300.398 76.1182 301.045 76.5688C301.704 77.0274 301.867 77.9342 301.408 78.5932C301.125 78.9987 300.673 79.2165 300.213 79.2165Z" fill="white"/>
</g>
<g opacity="0.64">
<path d="M334.79 133.327C334.096 133.327 333.482 132.829 333.359 132.122C333.228 131.371 333.087 130.621 332.936 129.876C332.776 129.089 333.284 128.321 334.072 128.161C334.86 128 335.627 128.51 335.787 129.297C335.943 130.069 336.089 130.844 336.225 131.623C336.362 132.415 335.833 133.168 335.041 133.306C334.957 133.321 334.873 133.327 334.79 133.327Z" fill="#713DEC"/>
<path d="M255.521 230.929C254.74 230.929 254.094 230.308 254.068 229.522C254.042 228.718 254.672 228.047 255.474 228.02C256.949 227.973 258.441 227.883 259.909 227.756C260.709 227.684 261.415 228.278 261.485 229.078C261.554 229.879 260.962 230.584 260.162 230.653C258.641 230.786 257.096 230.878 255.569 230.928C255.553 230.929 255.537 230.929 255.521 230.929ZM248.175 230.847C248.148 230.847 248.122 230.846 248.095 230.845C247.681 230.823 247.266 230.797 246.851 230.768C245.735 230.69 244.61 230.591 243.508 230.471C242.709 230.384 242.132 229.667 242.219 228.868C242.305 228.07 243.02 227.488 243.822 227.579C244.886 227.695 245.973 227.791 247.052 227.866C247.454 227.893 247.854 227.918 248.253 227.94C249.056 227.984 249.67 228.669 249.627 229.471C249.584 230.247 248.942 230.847 248.175 230.847ZM267.317 229.697C266.625 229.697 266.011 229.202 265.886 228.497C265.746 227.706 266.274 226.95 267.065 226.81C268.519 226.553 269.983 226.251 271.416 225.916C272.198 225.731 272.98 226.217 273.164 226.999C273.347 227.781 272.862 228.564 272.08 228.747C270.596 229.096 269.08 229.407 267.573 229.675C267.487 229.69 267.401 229.697 267.317 229.697ZM236.401 229.369C236.307 229.369 236.212 229.36 236.116 229.341C234.613 229.043 233.102 228.701 231.627 228.323C230.848 228.124 230.378 227.333 230.577 226.554C230.776 225.776 231.569 225.304 232.347 225.505C233.771 225.869 235.23 226.2 236.682 226.488C237.47 226.644 237.982 227.409 237.826 228.197C237.689 228.89 237.08 229.369 236.401 229.369ZM278.816 226.794C278.206 226.794 277.638 226.407 277.436 225.796C277.183 225.033 277.597 224.21 278.36 223.958C279.758 223.497 281.161 222.99 282.532 222.453C283.279 222.158 284.123 222.528 284.417 223.275C284.71 224.023 284.342 224.867 283.594 225.16C282.174 225.717 280.72 226.242 279.273 226.721C279.121 226.77 278.968 226.794 278.816 226.794ZM224.954 226.236C224.793 226.236 224.63 226.209 224.47 226.152C223.027 225.644 221.58 225.089 220.171 224.503C219.43 224.195 219.078 223.344 219.386 222.602C219.695 221.86 220.547 221.511 221.288 221.817C222.647 222.383 224.043 222.918 225.437 223.409C226.194 223.676 226.592 224.506 226.325 225.264C226.115 225.862 225.553 226.236 224.954 226.236ZM289.777 222.28C289.243 222.28 288.729 221.984 288.474 221.474C288.116 220.754 288.409 219.881 289.128 219.523C290.448 218.865 291.767 218.163 293.047 217.437C293.746 217.041 294.633 217.286 295.03 217.984C295.426 218.682 295.181 219.571 294.482 219.967C293.157 220.719 291.793 221.445 290.425 222.127C290.217 222.23 289.996 222.28 289.777 222.28ZM214.074 221.499C213.846 221.499 213.616 221.445 213.4 221.332C212.05 220.625 210.699 219.869 209.383 219.086C208.692 218.675 208.466 217.783 208.877 217.092C209.288 216.402 210.181 216.176 210.871 216.586C212.141 217.342 213.446 218.073 214.75 218.755C215.461 219.127 215.736 220.007 215.364 220.718C215.104 221.214 214.597 221.499 214.074 221.499ZM299.99 216.251C299.528 216.251 299.074 216.032 298.792 215.623C298.335 214.962 298.501 214.057 299.162 213.6C300.375 212.762 301.582 211.88 302.749 210.978C303.384 210.485 304.297 210.604 304.789 211.239C305.28 211.874 305.163 212.788 304.528 213.279C303.321 214.213 302.072 215.126 300.815 215.994C300.563 216.168 300.275 216.251 299.99 216.251ZM309.248 208.838C308.857 208.838 308.466 208.682 308.18 208.371C307.635 207.781 307.67 206.861 308.261 206.316C309.343 205.316 310.413 204.272 311.442 203.212C312.002 202.635 312.923 202.623 313.499 203.182C314.075 203.742 314.089 204.663 313.529 205.239C312.463 206.336 311.355 207.417 310.235 208.452C309.955 208.711 309.601 208.838 309.248 208.838ZM317.369 200.191C317.046 200.191 316.721 200.084 316.452 199.865C315.829 199.358 315.734 198.441 316.241 197.819C317.173 196.673 318.086 195.487 318.953 194.294C319.426 193.645 320.335 193.501 320.985 193.973C321.634 194.446 321.778 195.355 321.306 196.005C320.408 197.24 319.463 198.467 318.498 199.654C318.21 200.007 317.791 200.191 317.369 200.191ZM324.183 190.477C323.928 190.477 323.671 190.41 323.436 190.269C322.747 189.856 322.524 188.962 322.938 188.274C323.698 187.007 324.433 185.703 325.121 184.399C325.497 183.688 326.376 183.417 327.087 183.791C327.797 184.166 328.069 185.046 327.694 185.756C326.98 187.107 326.219 188.458 325.432 189.77C325.159 190.225 324.677 190.477 324.183 190.477ZM329.546 179.888C329.359 179.888 329.168 179.851 328.984 179.774C328.244 179.464 327.895 178.612 328.205 177.87C328.775 176.512 329.315 175.118 329.81 173.729C330.08 172.972 330.913 172.575 331.669 172.847C332.425 173.116 332.82 173.949 332.55 174.705C332.037 176.145 331.478 177.588 330.888 178.995C330.655 179.552 330.115 179.888 329.546 179.888ZM333.337 168.648C333.217 168.648 333.094 168.633 332.971 168.601C332.194 168.399 331.727 167.606 331.929 166.828C332.298 165.402 332.633 163.945 332.925 162.5C333.083 161.712 333.849 161.2 334.638 161.362C335.426 161.52 335.935 162.287 335.777 163.075C335.475 164.572 335.128 166.081 334.745 167.558C334.575 168.213 333.984 168.648 333.337 168.648ZM335.487 156.984C335.434 156.984 335.379 156.981 335.324 156.975C334.526 156.886 333.951 156.166 334.04 155.368C334.17 154.206 334.277 153.025 334.358 151.856C334.378 151.552 334.398 151.246 334.416 150.939C334.463 150.137 335.153 149.522 335.953 149.572C336.755 149.619 337.367 150.307 337.32 151.109C337.302 151.424 337.282 151.739 337.26 152.055C337.176 153.266 337.066 154.489 336.931 155.691C336.848 156.435 336.218 156.984 335.487 156.984ZM335.974 145.131C335.19 145.131 334.544 144.507 334.521 143.718C334.478 142.245 334.394 140.753 334.271 139.282C334.204 138.481 334.799 137.778 335.6 137.711C336.393 137.642 337.103 138.238 337.17 139.04C337.297 140.562 337.385 142.108 337.429 143.634C337.452 144.437 336.82 145.107 336.017 145.13C336.003 145.131 335.988 145.131 335.974 145.131Z" fill="white"/>
<path d="M203.936 215.221C203.64 215.221 203.342 215.131 203.084 214.945C202.445 214.483 201.813 214.012 201.187 213.533C200.55 213.045 200.429 212.132 200.917 211.493C201.405 210.856 202.318 210.735 202.956 211.224C203.561 211.686 204.172 212.141 204.789 212.588C205.44 213.059 205.586 213.968 205.115 214.619C204.831 215.012 204.386 215.221 203.936 215.221Z" fill="white"/>
</g>
<path d="M207.714 191.728C207.984 192.058 208.434 192.181 208.834 192.034L220.255 187.834C224.758 191.302 229.846 194.076 235.377 195.977L238.162 207.815C238.26 208.231 238.611 208.538 239.035 208.581L253.558 210.053C253.982 210.096 254.387 209.864 254.566 209.477L259.669 198.438C265.469 197.685 271.01 195.987 276.117 193.493L286.464 199.898C286.827 200.123 287.292 200.092 287.622 199.823L298.932 190.594C299.262 190.324 299.385 189.874 299.238 189.474L295.038 178.053C298.506 173.55 301.28 168.462 303.181 162.931L315.02 160.145C315.435 160.047 315.742 159.697 315.785 159.273L317.256 144.75C317.299 144.325 317.068 143.92 316.681 143.741L305.642 138.638C304.889 132.839 303.191 127.298 300.697 122.191L307.102 111.844C307.326 111.481 307.296 111.016 307.026 110.685L297.797 99.3761C297.528 99.0453 297.078 98.9226 296.678 99.0697L285.256 103.27C280.754 99.802 275.666 97.0274 270.134 95.1267L267.349 83.2882C267.251 82.8729 266.901 82.5656 266.476 82.5223L251.953 81.0513C251.529 81.0083 251.124 81.2394 250.945 81.6267L245.842 92.6659C240.042 93.4188 234.501 95.117 229.395 97.6114L219.047 91.206C218.685 90.9812 218.219 91.0118 217.889 91.2814L206.58 100.51C206.249 100.78 206.126 101.23 206.273 101.63L210.474 113.052C207.006 117.554 204.231 122.642 202.33 128.173L190.492 130.959C190.077 131.056 189.769 131.407 189.726 131.831L188.255 146.354C188.212 146.779 188.443 147.184 188.83 147.362L199.869 152.466C200.623 158.265 202.32 163.806 204.815 168.913L198.41 179.261C198.185 179.623 198.215 180.088 198.485 180.419L207.714 191.728Z" fill="#697586"/>
<path d="M252.75 159.678C245.864 159.678 239.818 154.622 238.785 147.611C237.649 139.906 242.994 132.713 250.7 131.578C258.407 130.445 265.598 135.787 266.733 143.492C267.869 151.198 262.524 158.39 254.818 159.526C254.124 159.628 253.432 159.678 252.75 159.678ZM252.767 133.753C252.196 133.753 251.62 133.795 251.039 133.88C244.603 134.829 240.139 140.836 241.087 147.272C242.036 153.708 248.043 158.168 254.479 157.223C257.597 156.764 260.349 155.118 262.228 152.588C264.108 150.059 264.89 146.949 264.431 143.831C263.568 137.976 258.517 133.753 252.767 133.753Z" fill="white"/>
<path d="M253.007 181.142C251.805 181.142 250.594 181.082 249.373 180.958C246.833 180.701 244.323 180.175 241.912 179.394C241.666 179.315 241.509 179.087 241.509 178.842C241.509 178.782 241.519 178.722 241.538 178.662C241.637 178.356 241.965 178.189 242.27 178.288C244.603 179.043 247.032 179.552 249.489 179.801C268.491 181.733 285.52 167.831 287.445 148.828C287.565 147.636 287.625 146.448 287.625 145.267C287.624 137.319 284.913 129.676 279.819 123.435C273.969 116.266 265.678 111.805 256.472 110.872C237.468 108.943 220.442 122.842 218.517 141.845C218.398 143.016 218.339 144.19 218.34 145.36C218.341 150.43 219.451 155.444 221.609 160.037C221.646 160.117 221.664 160.201 221.664 160.284C221.664 160.502 221.54 160.712 221.329 160.81C221.038 160.946 220.692 160.822 220.555 160.531C218.325 155.784 217.177 150.601 217.176 145.36C217.175 144.151 217.236 142.938 217.359 141.728C219.349 122.086 236.951 107.72 256.589 109.714C266.105 110.678 274.674 115.29 280.721 122.699C285.985 129.15 288.788 137.049 288.789 145.264C288.789 146.485 288.728 147.713 288.603 148.944C286.737 167.365 271.14 181.142 253.007 181.142Z" fill="white"/>
<path d="M338.938 73.2196L345.13 70.3664C347.799 72.1032 350.764 73.4271 353.938 74.2432L356.019 80.7316C356.092 80.9591 356.302 81.1154 356.541 81.1207L364.717 81.2976C364.956 81.3026 365.172 81.1557 365.255 80.9314L367.615 74.539C370.821 73.8606 373.84 72.6662 376.581 71.0463L382.645 74.1643C382.857 74.2735 383.116 74.2359 383.289 74.0708L389.195 68.4139C389.368 68.2485 389.417 67.9918 389.317 67.7749L386.463 61.5824C388.2 58.9134 389.524 55.9484 390.34 52.7751L396.829 50.6933C397.056 50.6203 397.212 50.4111 397.217 50.1721L397.394 41.9952C397.399 41.7562 397.252 41.5402 397.028 41.4578L390.635 39.0979C389.957 35.8918 388.763 32.8727 387.143 30.1314L390.261 24.0674C390.37 23.8549 390.333 23.5965 390.167 23.424L384.51 17.5173C384.345 17.3445 384.088 17.296 383.871 17.396L377.679 20.2492C375.01 18.5121 372.045 17.1885 368.871 16.3724L366.79 9.88403C366.717 9.65652 366.507 9.50024 366.268 9.49494L358.092 9.31835C357.853 9.31305 357.637 9.46021 357.554 9.68448L355.194 16.0769C351.988 16.755 348.969 17.9493 346.227 19.5696L340.164 16.4515C339.951 16.3421 339.692 16.3797 339.52 16.5451L333.613 22.202C333.441 22.3674 333.392 22.6238 333.492 22.841L336.345 29.0335C334.608 31.7022 333.284 34.6675 332.468 37.8411L325.98 39.9226C325.752 39.9956 325.596 40.2048 325.591 40.4438L325.414 48.6204C325.409 48.8594 325.556 49.0754 325.78 49.1581L332.173 51.518C332.851 54.7238 334.046 57.7432 335.665 60.4845L332.547 66.5482C332.438 66.7607 332.476 67.0191 332.641 67.1918L338.298 73.0986C338.464 73.2708 338.721 73.3196 338.938 73.2196Z" fill="#697586"/>
<path d="M361.392 53.154C359.936 53.154 358.507 52.7467 357.243 51.9547C355.467 50.8421 354.231 49.1047 353.762 47.0624C352.795 42.8474 355.437 38.6304 359.652 37.6624C363.866 36.6961 368.085 39.3368 369.052 43.5524C370.02 47.7673 367.378 51.9841 363.163 52.9524C362.575 53.0875 361.981 53.154 361.392 53.154ZM361.408 38.6266C360.914 38.6266 360.413 38.6816 359.912 38.7964C356.322 39.6208 354.072 43.2121 354.896 46.8023C355.296 48.5414 356.349 50.0213 357.861 50.9684C359.373 51.9155 361.163 52.2172 362.902 51.8184C366.493 50.994 368.743 47.4027 367.918 43.8125C367.209 40.7236 364.451 38.6266 361.408 38.6266Z" fill="white"/>
<g opacity="0.64">
<path d="M324.725 70.8006C324.252 70.8006 323.787 70.5693 323.508 70.1434C323.072 69.4797 322.647 68.7919 322.244 68.0996C321.841 67.4053 322.076 66.515 322.77 66.1112C323.464 65.7062 324.354 65.9414 324.758 66.6363C325.136 67.2841 325.533 67.9278 325.94 68.5494C326.381 69.221 326.193 70.1225 325.521 70.5628C325.276 70.7241 324.999 70.8006 324.725 70.8006Z" fill="white"/>
<path d="M320.335 62.1199C319.744 62.1199 319.189 61.7579 318.971 61.1722C318.426 59.707 317.95 58.1933 317.557 56.674C317.356 55.8961 317.823 55.1032 318.601 54.9019C319.377 54.6991 320.172 55.1671 320.373 55.9456C320.741 57.3683 321.186 58.7852 321.697 60.1573C321.978 60.9102 321.595 61.7476 320.842 62.0277C320.675 62.0904 320.503 62.1199 320.335 62.1199ZM317.711 50.4582C316.964 50.4582 316.328 49.8861 316.263 49.1282C316.153 47.8482 316.098 46.5499 316.098 45.2681C316.098 44.9824 316.1 44.6972 316.106 44.4131C316.122 43.6096 316.791 42.9751 317.588 42.9871C318.392 43.003 319.03 43.6673 319.014 44.4699C319.009 44.7357 319.006 45.0018 319.006 45.2681C319.006 46.4669 319.059 47.6816 319.161 48.8792C319.23 49.6797 318.637 50.3841 317.837 50.4529C317.795 50.4565 317.753 50.4582 317.711 50.4582ZM318.333 38.5252C318.242 38.5252 318.15 38.5167 318.058 38.499C317.269 38.348 316.752 37.586 316.904 36.797C317.198 35.2582 317.578 33.7169 318.033 32.2164C318.266 31.4476 319.079 31.0141 319.847 31.246C320.616 31.4791 321.05 32.2909 320.817 33.0597C320.392 34.4636 320.037 35.9055 319.76 37.3447C319.626 38.0414 319.017 38.5252 318.333 38.5252ZM322.163 27.2056C321.945 27.2056 321.723 27.1561 321.514 27.0522C320.796 26.6932 320.504 25.8199 320.862 25.1012C321.561 23.7008 322.342 22.3201 323.183 20.9968C323.615 20.3196 324.513 20.1186 325.191 20.5504C325.869 20.9815 326.069 21.8804 325.638 22.5582C324.85 23.7967 324.119 25.0894 323.465 26.4C323.211 26.9101 322.697 27.2056 322.163 27.2056ZM328.899 17.3343C328.552 17.3343 328.203 17.2104 327.925 16.9587C327.329 16.4201 327.283 15.501 327.821 14.905C328.872 13.7421 329.995 12.6222 331.16 11.5762C331.758 11.0399 332.677 11.0905 333.213 11.6862C333.75 12.284 333.701 13.2038 333.103 13.7406C332.013 14.7189 330.962 15.7667 329.979 16.8545C329.692 17.173 329.297 17.3343 328.899 17.3343ZM338.046 9.64629C337.563 9.64629 337.09 9.40524 336.814 8.96611C336.386 8.28593 336.59 7.38825 337.27 6.9606C338.599 6.12473 339.985 5.35095 341.389 4.66135C342.109 4.30669 342.981 4.60396 343.335 5.32564C343.689 6.04673 343.392 6.91822 342.671 7.27258C341.358 7.91744 340.062 8.64059 338.819 9.4229C338.579 9.57418 338.311 9.64629 338.046 9.64629ZM348.933 4.72846C348.305 4.72846 347.726 4.31876 347.539 3.68597C347.311 2.91543 347.751 2.10664 348.521 1.87854C349.423 1.61217 350.347 1.36935 351.27 1.15744C351.882 1.01705 352.494 0.889904 353.105 0.775707C353.891 0.626191 354.654 1.14714 354.802 1.93769C354.95 2.72736 354.429 3.48701 353.64 3.63476C353.067 3.74219 352.494 3.86139 351.921 3.99266C351.057 4.19162 350.19 4.41883 349.346 4.66812C349.209 4.70903 349.07 4.72846 348.933 4.72846ZM365.311 3.08026C365.268 3.08026 365.224 3.07849 365.181 3.07466C363.719 2.94457 362.24 2.88835 360.772 2.91455C359.961 2.90042 359.307 2.28853 359.293 1.48502C359.279 0.681819 359.919 0.0198943 360.722 0.00547247C362.294 -0.0189563 363.875 0.0384299 365.438 0.177056C366.238 0.247987 366.829 0.954359 366.758 1.75492C366.691 2.51074 366.056 3.08026 365.311 3.08026Z" fill="white"/>
<path d="M374.866 5.0298C374.717 5.0298 374.567 5.00714 374.418 4.95887C373.707 4.7293 372.981 4.51503 372.26 4.32314C371.484 4.11564 371.022 3.3192 371.229 2.54307C371.436 1.76636 372.232 1.30515 373.009 1.51177C373.779 1.7175 374.554 1.94589 375.313 2.19077C376.077 2.438 376.496 3.25769 376.249 4.02205C376.05 4.63777 375.479 5.0298 374.866 5.0298Z" fill="white"/>
</g>
<g opacity="0.64">
<path d="M401.033 27.9852C400.488 27.9852 399.966 27.6774 399.717 27.1517C399.399 26.4783 399.058 25.8034 398.702 25.145C398.321 24.4384 398.584 23.556 399.291 23.1742C399.999 22.7937 400.881 23.0562 401.262 23.7635C401.642 24.4675 402.007 25.1889 402.347 25.9088C402.69 26.6355 402.38 27.5026 401.654 27.8457C401.453 27.9405 401.241 27.9852 401.033 27.9852Z" fill="white"/>
<path d="M359.832 90.5886C359.815 90.5886 359.798 90.588 359.78 90.5874C358.236 90.5336 356.68 90.3982 355.156 90.1845C354.36 90.0738 353.805 89.3386 353.917 88.5431C354.027 87.7475 354.761 87.191 355.559 87.304C356.984 87.5029 358.439 87.6295 359.882 87.6807C360.685 87.7087 361.313 88.3824 361.285 89.1853C361.257 89.9705 360.612 90.5886 359.832 90.5886ZM367.114 90.2351C366.396 90.2351 365.771 89.7039 365.674 88.9728C365.568 88.1763 366.127 87.4449 366.924 87.3387C368.248 87.1627 369.581 86.9216 370.886 86.6223L371.194 86.5502C371.975 86.3621 372.76 86.8451 372.947 87.6262C373.134 88.4074 372.652 89.1926 371.871 89.3795L371.534 89.4578C370.143 89.7772 368.721 90.0344 367.307 90.2225C367.242 90.2313 367.177 90.2351 367.114 90.2351ZM378.464 87.1586C377.896 87.1586 377.357 86.8239 377.123 86.2683C376.811 85.528 377.158 84.6751 377.898 84.3631C379.228 83.803 380.543 83.1679 381.807 82.4744C382.513 82.0892 383.396 82.3473 383.782 83.0504C384.168 83.755 383.91 84.6389 383.205 85.0253C381.854 85.7661 380.449 86.4451 379.028 87.0435C378.843 87.1218 378.652 87.1586 378.464 87.1586ZM388.584 81.1768C388.154 81.1768 387.729 80.9875 387.442 80.6246C386.944 79.9951 387.05 79.0803 387.68 78.5814C388.809 77.6888 389.906 76.7251 390.941 75.718C391.516 75.1585 392.438 75.1702 392.998 75.7462C393.558 76.3216 393.545 77.2426 392.97 77.8029C391.864 78.879 390.691 79.9085 389.485 80.863C389.218 81.0743 388.9 81.1768 388.584 81.1768ZM396.74 72.7129C396.441 72.7129 396.14 72.6214 395.881 72.431C395.233 71.9559 395.093 71.0459 395.568 70.3981C396.421 69.2355 397.224 68.0152 397.955 66.7706C398.362 66.0786 399.253 65.8449 399.946 66.2534C400.638 66.6602 400.87 67.5517 400.463 68.2442C399.682 69.5737 398.824 70.8769 397.913 72.1184C397.629 72.5072 397.187 72.7129 396.74 72.7129ZM402.37 62.3913C402.197 62.3913 402.022 62.3601 401.851 62.2948C401.1 62.0078 400.725 61.167 401.012 60.417C401.527 59.0681 401.979 57.6786 402.353 56.2865C402.562 55.5104 403.361 55.0518 404.136 55.2599C404.911 55.4683 405.371 56.2668 405.162 57.0423C404.762 58.5298 404.28 60.015 403.729 61.4557C403.507 62.0352 402.955 62.3913 402.37 62.3913ZM405.059 50.9437C405.013 50.9437 404.966 50.9413 404.919 50.9369C404.119 50.8607 403.533 50.1505 403.609 49.3511C403.736 48.0246 403.8 46.6775 403.8 45.3468L403.799 45.0128C403.793 44.2096 404.439 43.5538 405.242 43.5476C405.246 43.5476 405.25 43.5476 405.253 43.5476C406.052 43.5476 406.702 44.1919 406.708 44.9913L406.709 45.3468C406.709 46.7696 406.641 48.2097 406.505 49.6272C406.433 50.38 405.8 50.9437 405.059 50.9437ZM404.586 39.1943C403.893 39.1943 403.279 38.6978 403.155 37.992C403.028 37.2697 402.88 36.5404 402.716 35.8229C402.557 35.1321 402.379 34.4372 402.187 33.7564C401.969 32.9832 402.419 32.1791 403.192 31.961C403.965 31.7453 404.768 32.1924 404.986 32.9656C405.192 33.6928 405.382 34.4348 405.551 35.1718C405.726 35.9382 405.884 36.7173 406.02 37.4875C406.159 38.279 405.631 39.0327 404.84 39.1722C404.755 39.1875 404.67 39.1943 404.586 39.1943Z" fill="white"/>
<path d="M348.224 88.5847C348.079 88.5847 347.931 88.5626 347.785 88.5164C347.03 88.2771 346.266 88.0137 345.515 87.7323C344.763 87.4507 344.381 86.6125 344.663 85.8605C344.945 85.1082 345.783 84.727 346.535 85.0087C347.239 85.2718 347.954 85.5187 348.662 85.7427C349.428 85.9847 349.852 86.8023 349.61 87.5681C349.414 88.188 348.841 88.5847 348.224 88.5847Z" fill="white"/>
</g>
<path d="M361.418 65.6238C361.268 65.6238 361.118 65.6226 360.967 65.6194C360.625 65.612 360.283 65.5961 359.943 65.5717C358.99 65.5031 358.045 65.3689 357.117 65.1699C357.104 65.167 357.09 65.1638 357.076 65.1608C356.943 65.1317 356.81 65.1017 356.677 65.0699C356.41 65.0063 356.23 64.7676 356.23 64.5039C356.23 64.4594 356.235 64.4141 356.246 64.3691C356.32 64.0559 356.634 63.8634 356.947 63.9379C358.264 64.2517 359.624 64.4259 360.992 64.4556C366.116 64.5845 370.959 62.6785 374.653 59.1402C378.348 55.6018 380.444 50.8361 380.554 45.7217C380.558 45.5825 380.559 45.4433 380.559 45.3052C380.561 34.933 372.239 26.3847 361.82 26.1593C351.258 25.9173 342.486 34.3355 342.258 44.8935C342.255 45.0327 342.253 45.1713 342.253 45.3105C342.254 48.6381 343.116 51.9057 344.759 54.7851C344.811 54.876 344.836 54.9749 344.836 55.0726C344.836 55.2748 344.73 55.4714 344.542 55.5783C344.263 55.7384 343.907 55.6407 343.748 55.3614C342.006 52.3069 341.09 48.8406 341.09 45.3108C341.09 45.1637 341.091 45.0159 341.095 44.8688C341.334 33.8181 350.401 24.9914 361.401 24.9914C361.549 24.9914 361.697 24.9932 361.846 24.9961C372.898 25.2354 381.725 34.3035 381.723 45.3052C381.723 45.4524 381.722 45.5996 381.719 45.7473C381.601 51.1726 379.378 56.2278 375.459 59.981C371.648 63.6295 366.677 65.6238 361.418 65.6238Z" fill="white"/>
<g opacity="0.64">
<path d="M115.69 207.247C115.438 207.247 115.206 207.082 115.132 206.829C114.993 206.358 114.864 205.882 114.744 205.404C114.666 205.092 114.855 204.776 115.167 204.698C115.479 204.622 115.795 204.81 115.873 205.121C115.989 205.584 116.114 206.044 116.248 206.5C116.338 206.809 116.162 207.132 115.854 207.222C115.799 207.239 115.744 207.247 115.69 207.247Z" fill="white"/>
<path d="M114.706 202.941C114.426 202.941 114.179 202.739 114.132 202.453C113.971 201.466 113.848 200.46 113.769 199.463C113.743 199.143 113.982 198.862 114.303 198.836C114.623 198.812 114.903 199.05 114.929 199.37C115.006 200.336 115.124 201.31 115.281 202.266C115.333 202.583 115.118 202.882 114.801 202.934C114.769 202.939 114.737 202.941 114.706 202.941ZM114.234 197.036H114.233C113.912 197.035 113.652 196.774 113.652 196.453C113.654 195.628 113.684 194.792 113.742 193.966C113.754 193.792 113.767 193.618 113.781 193.445C113.807 193.125 114.088 192.891 114.408 192.912C114.728 192.938 114.967 193.219 114.941 193.539C114.927 193.708 114.914 193.877 114.902 194.047C114.847 194.847 114.818 195.657 114.816 196.455C114.816 196.776 114.555 197.036 114.234 197.036ZM114.727 191.133C114.695 191.133 114.663 191.131 114.631 191.125C114.314 191.073 114.1 190.773 114.153 190.457C114.316 189.47 114.523 188.478 114.766 187.508C114.844 187.196 115.162 187.007 115.472 187.086C115.784 187.165 115.973 187.481 115.895 187.792C115.659 188.73 115.459 189.691 115.3 190.646C115.253 190.932 115.007 191.133 114.727 191.133ZM116.171 185.39C116.109 185.39 116.045 185.38 115.983 185.359C115.679 185.255 115.517 184.924 115.621 184.62C115.944 183.673 116.311 182.729 116.711 181.813C116.84 181.518 117.182 181.383 117.477 181.513C117.771 181.641 117.906 181.984 117.777 182.279C117.389 183.165 117.035 184.079 116.722 184.996C116.639 185.238 116.413 185.39 116.171 185.39ZM118.542 179.962C118.448 179.962 118.354 179.94 118.266 179.892C117.984 179.74 117.878 179.387 118.03 179.104C118.506 178.222 119.023 177.35 119.568 176.514C119.744 176.245 120.104 176.169 120.373 176.344C120.643 176.519 120.718 176.879 120.543 177.149C120.015 177.959 119.514 178.803 119.054 179.657C118.949 179.851 118.749 179.962 118.542 179.962ZM121.774 174.995C121.649 174.995 121.524 174.955 121.418 174.873C121.164 174.676 121.117 174.311 121.314 174.057C121.926 173.267 122.579 172.492 123.255 171.753C123.471 171.515 123.839 171.499 124.076 171.716C124.314 171.933 124.33 172.301 124.113 172.538C123.459 173.254 122.827 174.004 122.234 174.769C122.119 174.918 121.947 174.995 121.774 174.995ZM125.772 170.624C125.616 170.624 125.46 170.561 125.346 170.437C125.127 170.202 125.141 169.834 125.376 169.615C126.109 168.936 126.879 168.277 127.665 167.659C127.918 167.461 128.283 167.503 128.482 167.756C128.681 168.009 128.637 168.374 128.385 168.573C127.623 169.172 126.878 169.81 126.168 170.469C126.056 170.573 125.914 170.624 125.772 170.624ZM130.428 166.962C130.239 166.962 130.054 166.87 129.942 166.701C129.765 166.434 129.838 166.072 130.106 165.895C130.942 165.342 131.809 164.817 132.683 164.337C132.965 164.183 133.319 164.286 133.473 164.567C133.628 164.848 133.525 165.202 133.244 165.356C132.397 165.822 131.558 166.33 130.749 166.865C130.65 166.931 130.538 166.962 130.428 166.962ZM167.118 165.105C167.027 165.105 166.934 165.083 166.848 165.038C165.991 164.588 165.105 164.167 164.212 163.789C163.916 163.663 163.778 163.322 163.904 163.026C164.03 162.73 164.372 162.592 164.667 162.718C165.588 163.109 166.505 163.543 167.389 164.008C167.673 164.158 167.783 164.51 167.633 164.794C167.53 164.991 167.327 165.105 167.118 165.105ZM135.616 164.108C135.394 164.108 135.182 163.98 135.085 163.763C134.954 163.47 135.085 163.126 135.379 162.994C136.292 162.586 137.233 162.211 138.175 161.879C138.478 161.771 138.81 161.932 138.917 162.235C139.023 162.538 138.864 162.87 138.561 162.977C137.649 163.298 136.738 163.661 135.854 164.057C135.777 164.091 135.696 164.108 135.616 164.108ZM161.665 162.792C161.605 162.792 161.543 162.783 161.482 162.762C160.564 162.459 159.62 162.191 158.677 161.965C158.365 161.89 158.172 161.576 158.247 161.263C158.323 160.95 158.64 160.76 158.949 160.833C159.923 161.067 160.898 161.344 161.847 161.658C162.153 161.759 162.318 162.087 162.218 162.393C162.137 162.637 161.909 162.792 161.665 162.792ZM141.201 162.142C140.943 162.142 140.706 161.969 140.638 161.708C140.557 161.397 140.743 161.079 141.054 160.997C142.024 160.744 143.014 160.529 143.997 160.357C144.315 160.303 144.615 160.515 144.67 160.831C144.725 161.147 144.513 161.449 144.197 161.504C143.246 161.669 142.287 161.878 141.348 162.124C141.299 162.136 141.249 162.142 141.201 162.142ZM155.905 161.408C155.875 161.408 155.845 161.405 155.815 161.401C154.862 161.253 153.887 161.142 152.916 161.071C152.595 161.048 152.355 160.77 152.378 160.449C152.401 160.129 152.683 159.89 153 159.911C154.002 159.984 155.01 160.098 155.994 160.251C156.311 160.3 156.528 160.597 156.479 160.915C156.434 161.203 156.187 161.408 155.905 161.408ZM147.034 161.124C146.736 161.124 146.483 160.897 146.455 160.595C146.426 160.274 146.662 159.992 146.982 159.963C147.979 159.872 148.991 159.822 149.99 159.814C149.991 159.814 149.993 159.814 149.995 159.814C150.314 159.814 150.574 160.072 150.577 160.391C150.579 160.713 150.321 160.975 149.999 160.978C149.033 160.986 148.053 161.034 147.087 161.121C147.069 161.123 147.051 161.124 147.034 161.124Z" fill="white"/>
<path d="M170.928 167.417C170.813 167.417 170.698 167.383 170.596 167.313C170.205 167.041 169.808 166.777 169.405 166.52C169.135 166.347 169.055 165.987 169.228 165.716C169.402 165.446 169.761 165.366 170.032 165.539C170.447 165.805 170.857 166.077 171.261 166.357C171.524 166.541 171.59 166.903 171.406 167.167C171.293 167.33 171.112 167.417 170.928 167.417Z" fill="white"/>
</g>
<g opacity="0.64">
<path d="M185.982 191.307C185.702 191.307 185.455 191.104 185.408 190.818C185.332 190.345 185.247 189.876 185.152 189.41C185.088 189.096 185.292 188.789 185.607 188.724C185.921 188.66 186.229 188.864 186.293 189.179C186.39 189.661 186.479 190.145 186.557 190.633C186.608 190.95 186.392 191.249 186.075 191.3C186.044 191.305 186.013 191.307 185.982 191.307Z" fill="white"/>
<path d="M150.376 233.183C149.8 233.183 149.219 233.169 148.646 233.143C148.325 233.127 148.077 232.855 148.092 232.534C148.107 232.213 148.382 231.973 148.701 231.98C149.653 232.025 150.622 232.031 151.571 232C151.892 231.964 152.161 232.24 152.172 232.561C152.183 232.882 151.931 233.151 151.61 233.162C151.201 233.176 150.789 233.183 150.376 233.183ZM154.498 232.947C154.206 232.947 153.954 232.729 153.92 232.431C153.884 232.112 154.113 231.824 154.432 231.788C155.376 231.68 156.33 231.531 157.267 231.346C157.58 231.278 157.888 231.487 157.951 231.803C158.013 232.118 157.808 232.424 157.493 232.486C156.525 232.678 155.54 232.832 154.564 232.943C154.542 232.946 154.52 232.947 154.498 232.947ZM145.768 232.892C145.743 232.892 145.718 232.89 145.693 232.887C144.714 232.762 143.73 232.598 142.77 232.396C142.455 232.33 142.253 232.022 142.32 231.707C142.385 231.393 142.694 231.192 143.008 231.257C143.938 231.452 144.891 231.612 145.84 231.732C146.159 231.773 146.384 232.064 146.344 232.383C146.307 232.677 146.056 232.892 145.768 232.892ZM160.214 231.816C159.961 231.816 159.728 231.649 159.655 231.393C159.567 231.084 159.746 230.762 160.055 230.674C160.972 230.413 161.889 230.112 162.779 229.778C163.08 229.666 163.416 229.819 163.528 230.119C163.641 230.42 163.488 230.755 163.187 230.868C162.268 231.212 161.321 231.524 160.374 231.793C160.321 231.809 160.267 231.816 160.214 231.816ZM140.061 231.696C140.006 231.696 139.951 231.688 139.895 231.672C138.949 231.391 138.005 231.07 137.089 230.715C136.79 230.599 136.641 230.262 136.757 229.962C136.873 229.663 137.21 229.514 137.509 229.63C138.396 229.973 139.31 230.285 140.226 230.556C140.534 230.647 140.71 230.971 140.619 231.279C140.543 231.532 140.312 231.696 140.061 231.696ZM165.67 229.771C165.452 229.771 165.242 229.648 165.143 229.437C165.007 229.146 165.132 228.8 165.423 228.663C166.282 228.26 167.138 227.814 167.967 227.339C168.246 227.18 168.602 227.276 168.762 227.555C168.921 227.834 168.825 228.189 168.546 228.349C167.689 228.839 166.805 229.299 165.918 229.716C165.837 229.754 165.753 229.771 165.67 229.771ZM134.623 229.592C134.537 229.592 134.452 229.573 134.37 229.534C133.488 229.107 132.608 228.637 131.756 228.136C131.479 227.973 131.386 227.616 131.549 227.339C131.712 227.062 132.068 226.969 132.345 227.132C133.171 227.618 134.022 228.073 134.876 228.486C135.166 228.626 135.286 228.974 135.147 229.263C135.046 229.471 134.839 229.592 134.623 229.592ZM170.727 226.876C170.542 226.876 170.36 226.787 170.247 226.623C170.065 226.358 170.133 225.996 170.398 225.814C171.184 225.276 171.958 224.699 172.698 224.098C172.947 223.897 173.314 223.934 173.516 224.184C173.719 224.434 173.68 224.801 173.431 225.003C172.666 225.622 171.868 226.218 171.056 226.774C170.955 226.843 170.841 226.876 170.727 226.876ZM175.255 223.206C175.101 223.206 174.948 223.145 174.834 223.025C174.612 222.792 174.621 222.424 174.854 222.202C175.542 221.548 176.213 220.854 176.85 220.141C177.064 219.901 177.431 219.881 177.671 220.095C177.911 220.309 177.932 220.677 177.718 220.916C177.06 221.653 176.367 222.369 175.656 223.046C175.544 223.152 175.399 223.206 175.255 223.206ZM179.137 218.858C179.015 218.858 178.892 218.82 178.786 218.74C178.53 218.546 178.48 218.181 178.674 217.925C179.25 217.166 179.802 216.373 180.314 215.57C180.487 215.298 180.847 215.22 181.117 215.392C181.388 215.565 181.467 215.925 181.295 216.195C180.765 217.025 180.196 217.844 179.601 218.628C179.487 218.779 179.313 218.858 179.137 218.858ZM182.271 213.942C182.179 213.942 182.086 213.921 181.999 213.875C181.715 213.724 181.607 213.372 181.757 213.088C182.202 212.248 182.619 211.376 182.995 210.498C183.122 210.203 183.464 210.066 183.759 210.193C184.054 210.319 184.191 210.662 184.064 210.957C183.675 211.864 183.245 212.764 182.786 213.632C182.682 213.83 182.48 213.942 182.271 213.942ZM184.568 208.584C184.507 208.584 184.445 208.574 184.383 208.554C184.079 208.452 183.915 208.122 184.017 207.817C184.319 206.916 184.589 205.99 184.818 205.063C184.895 204.751 185.21 204.561 185.522 204.638C185.834 204.715 186.025 205.03 185.948 205.342C185.711 206.3 185.433 207.257 185.12 208.188C185.038 208.43 184.812 208.584 184.568 208.584ZM185.968 202.928C185.937 202.928 185.906 202.925 185.874 202.92C185.557 202.868 185.342 202.57 185.393 202.253C185.546 201.312 185.663 200.353 185.741 199.403C185.767 199.083 186.047 198.849 186.368 198.871C186.689 198.898 186.927 199.178 186.901 199.499C186.82 200.479 186.7 201.469 186.542 202.439C186.495 202.725 186.248 202.928 185.968 202.928ZM186.443 197.119C186.122 197.119 185.861 196.859 185.861 196.537V196.461C185.861 195.531 185.824 194.59 185.752 193.667C185.727 193.347 185.966 193.067 186.286 193.042C186.607 193.017 186.886 193.255 186.912 193.576C186.987 194.53 187.025 195.501 187.025 196.461V196.537C187.025 196.859 186.764 197.119 186.443 197.119Z" fill="white"/>
<path d="M129.573 226.616C129.457 226.616 129.34 226.581 129.238 226.51C128.835 226.226 128.438 225.934 128.048 225.634C127.793 225.439 127.745 225.073 127.94 224.819C128.136 224.564 128.501 224.515 128.756 224.711C129.135 225.001 129.518 225.283 129.909 225.558C130.171 225.744 130.234 226.107 130.049 226.369C129.936 226.53 129.756 226.616 129.573 226.616Z" fill="white"/>
</g>
<path d="M130.845 216.224C130.962 216.368 131.157 216.421 131.33 216.357L136.28 214.537C138.231 216.039 140.436 217.242 142.833 218.066L144.04 223.196C144.083 223.376 144.235 223.509 144.419 223.528L150.712 224.165C150.896 224.184 151.071 224.084 151.149 223.916L153.361 219.132C155.874 218.806 158.275 218.07 160.488 216.989L164.973 219.765C165.13 219.862 165.331 219.849 165.475 219.732L170.376 215.732C170.519 215.616 170.572 215.421 170.508 215.247L168.688 210.297C170.191 208.346 171.393 206.141 172.217 203.744L177.348 202.537C177.527 202.495 177.661 202.343 177.679 202.159L178.317 195.865C178.335 195.681 178.235 195.506 178.068 195.428L173.284 193.217C172.957 190.703 172.221 188.302 171.14 186.089L173.916 181.605C174.013 181.448 174 181.246 173.883 181.103L169.884 176.202C169.767 176.058 169.572 176.005 169.399 176.069L164.449 177.889C162.498 176.386 160.293 175.184 157.896 174.36L156.689 169.23C156.646 169.05 156.494 168.917 156.31 168.898L150.017 168.26C149.833 168.241 149.657 168.342 149.58 168.51L147.368 173.294C144.855 173.62 142.454 174.356 140.241 175.437L135.757 172.661C135.599 172.564 135.398 172.577 135.255 172.694L130.353 176.694C130.21 176.811 130.157 177.006 130.221 177.179L132.041 182.129C130.538 184.08 129.336 186.285 128.512 188.682L123.382 189.889C123.202 189.932 123.068 190.084 123.05 190.268L122.412 196.561C122.394 196.745 122.494 196.921 122.662 196.998L127.446 199.21C127.772 201.723 128.508 204.124 129.589 206.337L126.813 210.821C126.716 210.979 126.729 211.18 126.846 211.324L130.845 216.224Z" fill="#4B5565"/>
<path d="M150.364 202.413C147.342 202.413 144.689 200.194 144.235 197.117C143.736 193.736 146.082 190.579 149.463 190.08C152.844 189.586 156.001 191.928 156.5 195.31C156.998 198.691 154.653 201.847 151.271 202.346C150.966 202.391 150.663 202.413 150.364 202.413ZM150.37 191.178C150.127 191.178 149.881 191.195 149.633 191.232C146.887 191.637 144.981 194.201 145.386 196.948C145.791 199.694 148.355 201.6 151.101 201.195C153.848 200.79 155.754 198.226 155.349 195.479C154.98 192.98 152.825 191.178 150.37 191.178Z" fill="white"/>
<path d="M150.49 211.967C149.95 211.967 149.407 211.94 148.863 211.885C147.796 211.777 146.741 211.562 145.724 211.245C145.67 211.228 145.615 211.21 145.561 211.193C145.315 211.113 145.159 210.886 145.159 210.64C145.159 210.58 145.168 210.52 145.187 210.46C145.286 210.155 145.614 209.988 145.92 210.086C146.908 210.406 147.938 210.622 148.98 210.727C148.998 210.729 149.016 210.731 149.034 210.732C151.482 210.971 153.9 210.603 156.109 209.679C157.402 209.138 158.625 208.406 159.742 207.495C162.781 205.016 164.672 201.501 165.067 197.6C165.118 197.095 165.144 196.591 165.143 196.091C165.143 192.722 163.994 189.482 161.835 186.837C159.355 183.799 155.841 181.907 151.939 181.513C148.038 181.119 144.216 182.266 141.177 184.744C138.138 187.224 136.247 190.738 135.852 194.64C135.802 195.136 135.777 195.634 135.777 196.13C135.778 198.279 136.248 200.404 137.162 202.35C137.2 202.43 137.218 202.514 137.217 202.597C137.217 202.815 137.094 203.025 136.883 203.124C136.592 203.26 136.246 203.136 136.109 202.844C135.122 200.744 134.614 198.45 134.613 196.131C134.613 195.595 134.64 195.058 134.694 194.523C135.121 190.312 137.162 186.519 140.441 183.843C143.721 181.167 147.849 179.929 152.056 180.355C156.267 180.782 160.06 182.822 162.736 186.102C165.066 188.957 166.306 192.453 166.307 196.088C166.307 196.629 166.28 197.172 166.225 197.717C165.798 201.928 163.757 205.721 160.478 208.397C157.623 210.727 154.126 211.967 150.49 211.967Z" fill="white"/>
<g opacity="0.64">
<path d="M417.715 81.6958C417.086 81.6958 416.506 81.2846 416.32 80.6503C416.096 79.8872 415.886 79.1122 415.696 78.3464C415.502 77.567 415.977 76.7777 416.757 76.584C417.537 76.393 418.326 76.8656 418.519 77.6453C418.699 78.372 418.898 79.1072 419.111 79.8309C419.337 80.6021 418.895 81.41 418.125 81.636C417.988 81.6763 417.85 81.6958 417.715 81.6958Z" fill="white"/>
<path d="M415.774 71.8372C415.039 71.8372 414.407 71.281 414.33 70.5334C414.162 68.9199 414.061 67.2796 414.031 65.6591C414.017 64.8562 414.656 64.1934 415.459 64.1781C416.286 64.1651 416.925 64.8023 416.94 65.6058C416.968 67.1437 417.064 68.7006 417.223 70.2323C417.306 71.0311 416.726 71.7463 415.927 71.8293C415.876 71.8352 415.825 71.8372 415.774 71.8372ZM415.873 59.3686C415.816 59.3686 415.758 59.365 415.7 59.3583C414.902 59.2635 414.332 58.54 414.427 57.7424C414.619 56.1284 414.881 54.5072 415.208 52.9252C415.37 52.1382 416.141 51.6332 416.926 51.7948C417.712 51.9566 418.219 52.726 418.056 53.5127C417.746 55.0144 417.497 56.5528 417.315 58.0859C417.228 58.8249 416.6 59.3686 415.873 59.3686ZM418.713 47.2319C418.551 47.2319 418.386 47.2045 418.224 47.1465C417.468 46.8766 417.073 46.0449 417.343 45.2882C417.887 43.7627 418.505 42.2408 419.179 40.7641C419.512 40.0336 420.376 39.7125 421.106 40.0448C421.837 40.3783 422.159 41.2412 421.825 41.972C421.185 43.373 420.599 44.8178 420.083 46.2656C419.871 46.8604 419.311 47.2319 418.713 47.2319ZM424.195 36.032C423.928 36.032 423.657 35.9581 423.415 35.8036C422.737 35.3719 422.539 34.4724 422.97 33.7952C423.841 32.4304 424.783 31.0839 425.771 29.7942C426.259 29.1572 427.172 29.0357 427.81 29.5231C428.447 30.0111 428.569 30.9241 428.081 31.5621C427.144 32.7865 426.249 34.0642 425.423 35.3595C425.146 35.7945 424.675 36.032 424.195 36.032ZM432.037 26.3347C431.661 26.3347 431.286 26.1905 431.002 25.9023C430.437 25.3308 430.443 24.4098 431.014 23.8456C432.169 22.7054 433.385 21.6014 434.63 20.5651C435.247 20.0503 436.165 20.1351 436.678 20.752C437.192 21.3689 437.108 22.2866 436.491 22.8002C435.31 23.7847 434.154 24.8325 433.059 25.9147C432.776 26.1952 432.406 26.3347 432.037 26.3347ZM441.825 18.6137C441.34 18.6137 440.865 18.3706 440.589 17.928C440.165 17.2457 440.373 16.3492 441.056 15.9248C442.433 15.0674 443.863 14.2601 445.307 13.5243C446.023 13.1602 446.899 13.4442 447.263 14.16C447.628 14.8758 447.343 15.7514 446.627 16.1161C445.257 16.8142 443.9 17.581 442.593 18.3945C442.353 18.5425 442.087 18.6137 441.825 18.6137ZM494.272 15.189C494.071 15.189 493.867 15.1469 493.672 15.0589C492.269 14.4226 490.823 13.8401 489.374 13.3283C488.616 13.0607 488.219 12.2296 488.487 11.4723C488.754 10.715 489.586 10.32 490.343 10.5855C491.87 11.1253 493.395 11.7389 494.874 12.4094C495.606 12.7411 495.93 13.6032 495.598 14.3349C495.354 14.8711 494.825 15.189 494.272 15.189ZM453.075 13.255C452.471 13.255 451.908 12.8765 451.7 12.2743C451.438 11.5153 451.841 10.687 452.6 10.4251C454.135 9.8956 455.709 9.42674 457.278 9.03265C458.059 8.83839 458.848 9.3099 459.044 10.089C459.239 10.8677 458.766 11.6583 457.987 11.8543C456.499 12.2281 455.006 12.6725 453.549 13.1752C453.392 13.2288 453.232 13.255 453.075 13.255ZM482.411 11.3504C482.315 11.3504 482.218 11.3407 482.12 11.321C480.61 11.0149 479.07 10.7694 477.542 10.5926C476.744 10.4998 476.172 9.77846 476.264 8.98085C476.356 8.18265 477.074 7.60636 477.876 7.70319C479.486 7.8895 481.108 8.14732 482.698 8.47019C483.485 8.62972 483.994 9.39731 483.834 10.1849C483.695 10.8742 483.088 11.3504 482.411 11.3504ZM465.238 10.5419C464.504 10.5419 463.873 9.98861 463.793 9.24191C463.708 8.44371 464.286 7.72674 465.085 7.64139C466.698 7.46862 468.336 7.36354 469.957 7.32999C469.967 7.3294 469.978 7.32941 469.988 7.32941C470.777 7.32941 471.425 7.96072 471.441 8.75304C471.458 9.55654 470.821 10.2211 470.018 10.2376C468.48 10.27 466.925 10.3695 465.395 10.5331C465.342 10.539 465.29 10.5419 465.238 10.5419Z" fill="white"/>
<path d="M503.038 20.174C502.751 20.174 502.462 20.0893 502.209 19.9133C501.601 19.49 500.966 19.068 500.323 18.6589C499.645 18.2283 499.445 17.3294 499.876 16.6516C500.307 15.9726 501.205 15.7733 501.883 16.2045C502.561 16.6351 503.229 17.0795 503.87 17.526C504.53 17.9852 504.692 18.8914 504.233 19.551C503.951 19.9565 503.498 20.174 503.038 20.174Z" fill="white"/>
</g>
<g opacity="0.64">
<path d="M526.309 57.1539C525.607 57.1539 524.989 56.6442 524.875 55.929C524.756 55.1846 524.62 54.4341 524.471 53.6989C524.311 52.9113 524.82 52.144 525.607 51.9841C526.396 51.8246 527.162 52.3335 527.322 53.1205C527.479 53.8955 527.622 54.6857 527.747 55.4698C527.874 56.263 527.334 57.0088 526.541 57.1357C526.462 57.1483 526.385 57.1539 526.309 57.1539Z" fill="white"/>
<path d="M471.332 121.756C470.648 121.765 470 121.745 469.331 121.722C468.528 121.694 467.899 121.021 467.927 120.218C467.955 119.415 468.625 118.772 469.431 118.815C470.066 118.837 470.701 118.854 471.331 118.847C472.216 118.847 473.11 118.825 473.991 118.781C474.812 118.746 475.476 119.359 475.515 120.162C475.555 120.964 474.937 121.647 474.135 121.686C473.206 121.733 472.263 121.756 471.332 121.756ZM461.815 120.955C461.734 120.955 461.652 120.949 461.569 120.935C459.994 120.666 458.413 120.328 456.871 119.93C456.093 119.729 455.625 118.936 455.826 118.158C456.026 117.38 456.819 116.914 457.598 117.113C459.062 117.491 460.563 117.812 462.058 118.067C462.85 118.202 463.382 118.953 463.247 119.745C463.127 120.454 462.511 120.955 461.815 120.955ZM481.611 120.795C480.925 120.795 480.315 120.308 480.183 119.61C480.034 118.82 480.554 118.06 481.343 117.911C482.832 117.63 484.325 117.282 485.782 116.877C486.557 116.664 487.358 117.115 487.573 117.89C487.788 118.664 487.335 119.465 486.561 119.681C485.025 120.107 483.451 120.474 481.882 120.77C481.791 120.787 481.7 120.795 481.611 120.795ZM450.018 117.574C449.833 117.574 449.646 117.539 449.465 117.464C447.988 116.856 446.52 116.179 445.102 115.45C444.388 115.083 444.106 114.206 444.474 113.492C444.841 112.777 445.717 112.496 446.432 112.863C447.778 113.554 449.17 114.197 450.572 114.774C451.315 115.08 451.669 115.93 451.364 116.672C451.132 117.235 450.59 117.574 450.018 117.574ZM493.336 117.204C492.774 117.204 492.238 116.875 492 116.327C491.681 115.59 492.02 114.733 492.757 114.414C494.15 113.811 495.531 113.144 496.862 112.43C497.57 112.05 498.452 112.317 498.831 113.025C499.211 113.732 498.944 114.614 498.237 114.994C496.835 115.746 495.38 116.449 493.913 117.084C493.725 117.165 493.529 117.204 493.336 117.204ZM503.99 111.128C503.54 111.128 503.096 110.92 502.812 110.528C502.34 109.879 502.484 108.969 503.133 108.497C504.36 107.605 505.563 106.653 506.708 105.664C507.316 105.139 508.235 105.208 508.759 105.816C509.284 106.424 509.216 107.343 508.608 107.868C507.402 108.908 506.135 109.911 504.843 110.85C504.585 111.037 504.286 111.128 503.99 111.128ZM513.067 102.876C512.725 102.876 512.381 102.757 512.104 102.512C511.502 101.98 511.445 101.061 511.977 100.459C512.98 99.3239 513.947 98.1325 514.85 96.9178C515.329 96.2729 516.24 96.1399 516.886 96.619C517.53 97.0985 517.664 98.01 517.184 98.6543C516.232 99.9337 515.214 101.189 514.158 102.385C513.87 102.71 513.469 102.876 513.067 102.876ZM520.129 92.8405C519.892 92.8405 519.651 92.7826 519.429 92.6604C518.725 92.2728 518.468 91.3889 518.856 90.6849C519.585 89.3599 520.267 87.9857 520.883 86.6006C521.209 85.866 522.069 85.5363 522.803 85.8624C523.537 86.1885 523.867 87.0483 523.541 87.7823C522.892 89.2424 522.173 90.6905 521.404 92.0871C521.139 92.5683 520.642 92.8405 520.129 92.8405ZM524.818 81.4985C524.684 81.4985 524.549 81.4797 524.414 81.4411C523.642 81.2183 523.197 80.4122 523.42 79.6402C523.838 78.1898 524.2 76.6993 524.497 75.2115C524.653 74.4242 525.42 73.915 526.207 74.069C526.995 74.2258 527.506 74.9916 527.35 75.7795C527.037 77.3471 526.656 78.9173 526.214 80.4469C526.031 81.0838 525.449 81.4985 524.818 81.4985ZM526.901 69.4095C526.871 69.4095 526.841 69.4084 526.81 69.4066C526.008 69.3571 525.398 68.667 525.448 67.8652C525.517 66.7409 525.553 65.6022 525.553 64.4814C525.553 64.0882 525.548 63.6961 525.54 63.3047C525.523 62.5018 526.16 61.8372 526.963 61.8201C527.772 61.7895 528.432 62.44 528.448 63.2435C528.457 63.6552 528.462 64.0679 528.462 64.4814C528.462 65.6619 528.425 66.8607 528.351 68.0448C528.304 68.8159 527.663 69.4095 526.901 69.4095Z" fill="white"/>
<path d="M439.227 111.659C438.938 111.659 438.646 111.573 438.392 111.394C437.737 110.934 437.09 110.459 436.468 109.982C435.83 109.493 435.71 108.58 436.199 107.943C436.688 107.306 437.601 107.184 438.238 107.674C438.828 108.126 439.442 108.577 440.064 109.014C440.721 109.476 440.88 110.383 440.418 111.041C440.135 111.443 439.684 111.659 439.227 111.659Z" fill="white"/>
</g>
<path d="M441.126 95.0056C441.307 95.2266 441.608 95.3091 441.876 95.2107L449.521 92.3994C452.535 94.7204 455.941 96.5779 459.643 97.8505L461.508 105.775C461.573 106.053 461.808 106.258 462.092 106.287L471.813 107.272C472.097 107.301 472.368 107.146 472.488 106.887L475.904 99.4978C479.786 98.9937 483.495 97.857 486.913 96.1873L493.839 100.475C494.082 100.625 494.394 100.605 494.615 100.424L502.185 94.2468C502.407 94.0661 502.489 93.7653 502.39 93.4972L499.579 85.8519C501.9 82.838 503.758 79.4321 505.03 75.7298L512.954 73.865C513.232 73.7997 513.438 73.5651 513.467 73.2811L514.451 63.5599C514.48 63.2759 514.326 63.0048 514.066 62.885L506.677 59.4691C506.173 55.5867 505.037 51.8777 503.367 48.4597L507.654 41.5334C507.804 41.2909 507.784 40.9792 507.604 40.7581L501.426 33.1879C501.246 32.9666 500.945 32.8844 500.677 32.9827L493.031 35.7944C490.017 33.4731 486.612 31.6159 482.909 30.3433L481.045 22.4189C480.979 22.1411 480.745 21.935 480.461 21.9062L470.739 20.9214C470.455 20.8926 470.184 21.0474 470.064 21.3064L466.648 28.6956C462.766 29.1998 459.057 30.3362 455.639 32.0062L448.713 27.7188C448.47 27.5684 448.159 27.5887 447.938 27.7694L440.367 33.9469C440.146 34.1274 440.064 34.4285 440.162 34.6963L442.974 42.3416C440.652 45.3555 438.795 48.7614 437.523 52.4636L429.598 54.3282C429.32 54.3935 429.114 54.6281 429.086 54.9121L428.101 64.6333C428.072 64.9173 428.227 65.1884 428.486 65.3085L435.875 68.7244C436.379 72.6065 437.516 76.3155 439.186 79.7338L434.898 86.6601C434.748 86.9029 434.768 87.2143 434.949 87.4356L441.126 95.0056Z" fill="#697586"/>
<path d="M471.256 74.5198C469.034 74.5198 466.879 73.8108 465.063 72.4607C462.829 70.8005 461.375 68.3697 460.969 65.6157C460.563 62.8617 461.254 60.1142 462.914 57.8803C464.574 55.6464 467.006 54.1919 469.76 53.7863C472.514 53.3795 475.261 54.0709 477.495 55.7318C479.729 57.392 481.183 59.8231 481.589 62.5768C482.427 68.2617 478.484 73.5683 472.798 74.4062C472.283 74.4825 471.768 74.5198 471.256 74.5198ZM471.294 57.1642C470.954 57.1642 470.611 57.1892 470.268 57.2399C468.437 57.5098 466.82 58.4766 465.716 59.9629C464.612 61.4487 464.152 63.2752 464.422 65.1071C464.692 66.939 465.659 68.5557 467.145 69.6597C468.631 70.7643 470.458 71.2225 472.29 70.9532C476.07 70.3958 478.693 66.8666 478.136 63.086C477.865 61.2541 476.899 59.6374 475.413 58.5334C474.205 57.6357 472.771 57.1642 471.294 57.1642Z" fill="white"/>
<path d="M471.47 88.1134C470.647 88.1134 469.82 88.0719 468.99 87.9877C467.276 87.8137 465.582 87.4588 463.956 86.9325C463.71 86.8531 463.554 86.6253 463.553 86.3798C463.553 86.32 463.563 86.26 463.582 86.2003C463.681 85.8942 464.009 85.7276 464.315 85.8259C465.862 86.3265 467.475 86.6644 469.108 86.8298C475.215 87.4497 481.205 85.6516 485.963 81.7681C490.722 77.8848 493.684 72.3806 494.303 66.2696C494.383 65.4788 494.423 64.6903 494.423 63.9062C494.422 58.6299 492.622 53.557 489.241 49.4132C485.357 44.6543 479.854 41.6925 473.743 41.0739C461.123 39.7897 449.824 49.0188 448.547 61.634C448.468 62.4119 448.429 63.1907 448.429 63.9674C448.43 67.3327 449.167 70.6615 450.599 73.7101C450.636 73.7901 450.654 73.8743 450.654 73.9573C450.654 74.1754 450.53 74.3853 450.32 74.4839C450.028 74.6201 449.682 74.4959 449.545 74.2043C448.041 71.0012 447.266 67.5034 447.266 63.968C447.265 63.1522 447.306 62.3339 447.389 61.5172C448.732 48.2639 460.61 38.5765 473.86 39.9163C486.288 41.1754 495.583 51.6963 495.585 63.9304C495.585 64.7421 495.544 65.5621 495.461 66.3871C494.81 72.8071 491.699 78.5897 486.699 82.6696C482.346 86.222 477.014 88.1134 471.47 88.1134Z" fill="white"/>
<g opacity="0.64">
<path d="M266.913 74.0563C266.662 74.0563 266.43 73.8921 266.355 73.6381C266.217 73.1684 266.09 72.6848 265.976 72.2018C265.903 71.8886 266.097 71.5758 266.41 71.5025C266.722 71.4304 267.036 71.6229 267.109 71.936C267.218 72.3984 267.339 72.8611 267.472 73.3108C267.562 73.6187 267.386 73.9421 267.077 74.0331C267.023 74.049 266.968 74.0563 266.913 74.0563Z" fill="white"/>
<path d="M266.034 69.7509C265.743 69.7509 265.492 69.5334 265.457 69.2373C265.341 68.2443 265.279 67.2342 265.273 66.2335C265.272 65.9124 265.531 65.6504 265.852 65.6489C265.853 65.6489 265.854 65.6489 265.855 65.6489C266.175 65.6489 266.435 65.9074 266.437 66.2279C266.442 67.1847 266.501 68.1516 266.613 69.1011C266.651 69.4204 266.422 69.7094 266.103 69.7471C266.08 69.7497 266.057 69.7509 266.034 69.7509ZM266.004 63.8727C265.984 63.8727 265.963 63.8715 265.942 63.8692C265.623 63.8356 265.391 63.5492 265.425 63.2293C265.53 62.2327 265.692 61.2341 265.906 60.2614C265.975 59.9476 266.287 59.7528 266.599 59.8181C266.913 59.887 267.111 60.1978 267.042 60.5112C266.838 61.4419 266.683 62.3976 266.582 63.3521C266.55 63.6505 266.298 63.8727 266.004 63.8727ZM267.267 58.1346C267.204 58.1346 267.141 58.1249 267.079 58.1034C266.774 57.9995 266.612 57.6687 266.716 57.3649C267.039 56.419 267.42 55.4804 267.848 54.5759C267.985 54.2851 268.332 54.1618 268.623 54.2987C268.913 54.4361 269.037 54.7834 268.899 55.0736C268.49 55.9384 268.126 56.836 267.817 57.7411C267.735 57.9821 267.509 58.1346 267.267 58.1346ZM269.78 52.8194C269.676 52.8194 269.57 52.7915 269.474 52.7326C269.201 52.5634 269.117 52.2043 269.286 51.9315C269.813 51.0815 270.393 50.2526 271.012 49.4668C271.211 49.214 271.577 49.1719 271.828 49.3691C272.081 49.568 272.125 49.9339 271.926 50.1861C271.334 50.9378 270.779 51.7316 270.275 52.5439C270.165 52.7217 269.975 52.8194 269.78 52.8194ZM273.415 48.1997C273.267 48.1997 273.12 48.1441 273.006 48.0323C272.777 47.8068 272.775 47.4386 273 47.2096C273.702 46.4977 274.451 45.8178 275.228 45.1882C275.477 44.9866 275.843 45.0252 276.046 45.2742C276.248 45.5241 276.21 45.8899 275.96 46.093C275.217 46.6946 274.5 47.3456 273.829 48.027C273.715 48.1418 273.565 48.1997 273.415 48.1997ZM277.979 44.4983C277.788 44.4983 277.6 44.4042 277.489 44.2308C277.315 43.9597 277.395 43.6001 277.665 43.4267C278.507 42.8869 279.388 42.3892 280.283 41.9477C280.571 41.8053 280.92 41.9239 281.062 42.212C281.204 42.5002 281.086 42.849 280.797 42.9908C279.941 43.4135 279.098 43.8897 278.292 44.4062C278.196 44.4689 278.087 44.4983 277.979 44.4983ZM303.318 42.8319C303.235 42.8319 303.15 42.8142 303.071 42.7768C302.205 42.3707 301.307 42.0098 300.4 41.7035C300.096 41.6007 299.932 41.2711 300.035 40.9665C300.138 40.6613 300.467 40.4961 300.773 40.6012C301.721 40.9211 302.66 41.2985 303.565 41.7235C303.856 41.8597 303.981 42.2065 303.845 42.4972C303.746 42.708 303.536 42.8319 303.318 42.8319ZM283.247 41.9001C283.009 41.9001 282.785 41.7529 282.7 41.5154C282.591 41.2131 282.747 40.8802 283.05 40.771C283.99 40.432 284.96 40.1427 285.933 39.9113C286.243 39.8363 286.559 40.0293 286.633 40.3425C286.708 40.6551 286.515 40.9685 286.202 41.043C285.271 41.2646 284.344 41.5413 283.445 41.865C283.379 41.8895 283.312 41.9001 283.247 41.9001ZM297.75 40.9515C297.709 40.9515 297.667 40.9476 297.626 40.9385C296.696 40.7369 295.74 40.585 294.783 40.4873C294.463 40.4544 294.23 40.1686 294.263 39.8492C294.296 39.5299 294.576 39.305 294.901 39.3295C295.901 39.4322 296.901 39.5908 297.873 39.801C298.186 39.8692 298.386 40.1789 298.318 40.4929C298.258 40.7649 298.017 40.9515 297.75 40.9515ZM288.963 40.5418C288.674 40.5418 288.422 40.3254 288.387 40.0299C288.348 39.7112 288.576 39.4216 288.894 39.3821C289.886 39.2623 290.897 39.197 291.896 39.1891C291.898 39.1891 291.9 39.1891 291.901 39.1891C292.22 39.1891 292.48 39.4466 292.483 39.7662C292.486 40.0873 292.227 40.3499 291.906 40.3525C290.95 40.3599 289.984 40.4226 289.035 40.5376C289.011 40.5406 288.987 40.5418 288.963 40.5418Z" fill="white"/>
<path d="M307.152 45.0432C307.038 45.0432 306.922 45.0097 306.821 44.9393C306.43 44.6677 306.03 44.4057 305.632 44.1606C305.359 43.9919 305.273 43.634 305.442 43.36C305.61 43.0869 305.968 43.0015 306.242 43.1696C306.659 43.4262 307.077 43.7002 307.485 43.9837C307.749 44.1673 307.814 44.5296 307.631 44.7939C307.518 44.9564 307.336 45.0432 307.152 45.0432Z" fill="white"/>
</g>
<g opacity="0.64">
<path d="M318.041 63.1636C317.757 63.1636 317.508 62.9552 317.466 62.6653C317.4 62.2035 317.317 61.7323 317.223 61.2655C317.159 60.9503 317.362 60.6433 317.677 60.5791C317.991 60.5194 318.299 60.7189 318.363 61.0336C318.462 61.5227 318.548 62.0154 318.618 62.4984C318.664 62.8166 318.444 63.1115 318.126 63.1574C318.097 63.1621 318.069 63.1636 318.041 63.1636Z" fill="white"/>
<path d="M292.179 92.9485C291.76 92.9485 291.339 92.9388 290.917 92.9194C290.596 92.9047 290.348 92.633 290.362 92.3119C290.377 91.9905 290.65 91.7335 290.97 91.7568C291.919 91.8001 292.864 91.7933 293.802 91.7335C294.129 91.7274 294.399 91.9575 294.419 92.2778C294.439 92.5983 294.196 92.8743 293.875 92.8947C293.314 92.9303 292.743 92.9485 292.179 92.9485ZM288.063 92.6292C288.033 92.6292 288.003 92.6268 287.972 92.6224C286.998 92.4702 286.024 92.2622 285.077 92.0049C284.767 91.9207 284.584 91.6011 284.668 91.2909C284.753 90.9813 285.073 90.7973 285.382 90.8824C286.288 91.1284 287.22 91.3274 288.152 91.4728C288.47 91.5228 288.687 91.8198 288.637 92.1374C288.592 92.424 288.345 92.6292 288.063 92.6292ZM296.714 92.5541C296.436 92.5541 296.191 92.3552 296.141 92.0729C296.086 91.7565 296.297 91.4548 296.614 91.3992C297.54 91.2373 298.467 91.0213 299.37 90.7573C299.68 90.6687 300.002 90.8441 300.092 91.1528C300.182 91.4613 300.005 91.7842 299.697 91.8745C298.753 92.1506 297.783 92.3761 296.814 92.5462C296.781 92.5512 296.747 92.5541 296.714 92.5541ZM282.481 91.1119C282.41 91.1119 282.338 91.099 282.268 91.071C281.353 90.7096 280.448 90.2931 279.579 89.8325C279.295 89.6818 279.187 89.3298 279.337 89.0461C279.487 88.7621 279.839 88.6529 280.124 88.8042C280.955 89.2451 281.821 89.6433 282.696 89.9894C282.994 90.1071 283.141 90.445 283.023 90.7437C282.932 90.973 282.713 91.1119 282.481 91.1119ZM302.264 90.9321C302.036 90.9321 301.819 90.7979 301.726 90.5748C301.602 90.2781 301.743 89.9373 302.039 89.8134C302.907 89.4508 303.764 89.0361 304.587 88.5811C304.869 88.426 305.223 88.5275 305.378 88.8083C305.533 89.0896 305.431 89.4434 305.151 89.5991C304.29 90.0753 303.394 90.5083 302.488 90.8871C302.414 90.9177 302.338 90.9321 302.264 90.9321ZM307.32 88.1334C307.138 88.1334 306.958 88.0475 306.845 87.8873C306.659 87.6254 306.721 87.2625 306.984 87.0765C307.751 86.5335 308.498 85.9419 309.203 85.3173C309.444 85.1048 309.812 85.1275 310.024 85.3674C310.237 85.6081 310.215 85.9757 309.974 86.1888C309.238 86.8404 308.458 87.4591 307.656 88.0263C307.553 88.0987 307.436 88.1334 307.32 88.1334ZM311.648 84.2996C311.509 84.2996 311.369 84.2495 311.257 84.1489C311.019 83.9331 311.001 83.5649 311.217 83.3268C311.85 82.6293 312.451 81.8888 313.001 81.1282C313.19 80.868 313.554 80.8101 313.814 80.9976C314.074 81.1862 314.132 81.5497 313.944 81.8099C313.368 82.6057 312.741 83.3792 312.079 84.1085C311.964 84.2351 311.807 84.2996 311.648 84.2996ZM315.038 79.6157C314.941 79.6157 314.842 79.5913 314.752 79.5401C314.472 79.3808 314.374 79.0259 314.533 78.7469C314.997 77.9281 315.421 77.0748 315.792 76.2101C315.919 75.9152 316.262 75.7777 316.556 75.9049C316.851 76.0314 316.988 76.3737 316.861 76.6689C316.473 77.5728 316.031 78.4649 315.545 79.3205C315.438 79.51 315.241 79.6157 315.038 79.6157ZM317.319 74.2999C317.263 74.2999 317.207 74.292 317.15 74.2749C316.843 74.1816 316.669 73.8567 316.762 73.5494C317.035 72.6511 317.26 71.7258 317.432 70.799C317.491 70.4832 317.795 70.2739 318.11 70.3331C318.426 70.3922 318.635 70.6957 318.576 71.0115C318.396 71.9801 318.161 72.9478 317.876 73.887C317.8 74.1381 317.569 74.2999 317.319 74.2999ZM318.377 68.6163C318.363 68.6163 318.349 68.6157 318.334 68.6145C318.014 68.5913 317.773 68.3122 317.796 67.9917L317.807 67.8434C317.849 67.2445 317.869 66.639 317.869 66.043C317.869 65.7469 317.864 65.452 317.854 65.1589C317.843 64.8378 318.095 64.5685 318.416 64.5579C318.754 64.5376 319.006 64.7983 319.017 65.1191C319.028 65.4258 319.033 65.7334 319.033 66.043C319.033 66.6658 319.011 67.298 318.968 67.9232L318.957 68.0771C318.935 68.3826 318.679 68.6163 318.377 68.6163Z" fill="white"/>
<path d="M277.212 88.718C277.099 88.718 276.985 88.6851 276.885 88.6168C276.483 88.3431 276.078 88.0496 275.681 87.7459C275.426 87.5505 275.378 87.1852 275.573 86.93C275.769 86.6754 276.134 86.6271 276.389 86.822C276.769 87.1128 277.156 87.3936 277.54 87.6555C277.806 87.8368 277.874 88.1988 277.693 88.464C277.581 88.6294 277.398 88.718 277.212 88.718Z" fill="white"/>
</g>
<path d="M277.82 80.7656C277.905 80.8698 278.047 80.9086 278.173 80.8624L281.779 79.5365C283.2 80.6311 284.806 81.507 286.552 82.1071L287.432 85.8441C287.462 85.9751 287.573 86.0722 287.707 86.0858L292.291 86.5502C292.425 86.5637 292.553 86.4907 292.61 86.3686L294.22 82.8838C296.051 82.646 297.8 82.11 299.413 81.3227L302.679 83.3447C302.793 83.4157 302.94 83.4059 303.045 83.3209L306.615 80.4077C306.719 80.3223 306.758 80.1805 306.711 80.0542L305.386 76.4488C306.48 75.0275 307.356 73.4214 307.956 71.6754L311.693 70.796C311.824 70.7651 311.921 70.6544 311.935 70.5205L312.399 65.9361C312.413 65.8022 312.34 65.6742 312.218 65.618L308.733 64.0071C308.495 62.1762 307.959 60.427 307.172 58.8153L309.194 55.5489C309.265 55.4344 309.255 55.2876 309.17 55.1834L306.257 51.6132C306.172 51.5087 306.03 51.4702 305.903 51.5167L302.298 52.8426C300.877 51.748 299.27 50.8721 297.524 50.272L296.645 46.535C296.614 46.404 296.503 46.3069 296.37 46.2933L291.785 45.8289C291.651 45.8154 291.523 45.8884 291.467 46.0105L289.856 49.4953C288.025 49.7331 286.276 50.2691 284.664 51.0564L281.398 49.0344C281.283 48.9634 281.136 48.9732 281.032 49.0582L277.462 51.9714C277.358 52.0565 277.319 52.1983 277.365 52.3249L278.691 55.9304C277.597 57.3516 276.721 58.9578 276.121 60.704L272.383 61.5834C272.253 61.614 272.155 61.7247 272.142 61.8589L271.677 66.4432C271.664 66.5772 271.737 66.7052 271.859 66.7617L275.344 68.3725C275.582 70.2032 276.118 71.9524 276.905 73.5644L274.883 76.8308C274.812 76.9453 274.822 77.0921 274.907 77.1966L277.82 80.7656Z" fill="#697586"/>
<path d="M292.028 70.8643C291.031 70.8643 290.065 70.5461 289.25 69.941C288.248 69.1961 287.596 68.1059 287.414 66.8706C287.232 65.6359 287.542 64.4036 288.287 63.402C289.031 62.3998 290.121 61.7482 291.356 61.5663C292.59 61.3844 293.823 61.6941 294.825 62.4384C295.827 63.1827 296.479 64.2729 296.661 65.5082C296.843 66.7429 296.533 67.9752 295.789 68.9768C295.044 69.979 293.954 70.6312 292.719 70.813C292.488 70.8472 292.257 70.8643 292.028 70.8643ZM292.045 62.6795C291.873 62.6795 291.7 62.6918 291.526 62.7174C290.599 62.8537 289.78 63.3434 289.221 64.0957C288.662 64.8486 288.429 65.7734 288.566 66.7014C288.702 67.6285 289.192 68.4473 289.945 69.0068C290.697 69.5657 291.622 69.7994 292.55 69.6619C294.464 69.3797 295.792 67.5923 295.51 65.6774C295.374 64.7503 294.884 63.9315 294.132 63.3726C293.52 62.9179 292.794 62.6795 292.045 62.6795Z" fill="white"/>
<path d="M292.116 77.8226C291.723 77.8226 291.327 77.8029 290.928 77.7623H290.928C290.151 77.6834 289.385 77.5283 288.648 77.3011C288.642 77.2987 288.635 77.2973 288.628 77.2949C288.582 77.2808 288.536 77.2661 288.49 77.2511C288.244 77.1716 288.087 76.9438 288.087 76.6983C288.087 76.6386 288.097 76.5779 288.116 76.5182C288.215 76.2124 288.542 76.0455 288.849 76.1444C289.556 76.3734 290.295 76.5285 291.045 76.6044C291.069 76.6068 291.093 76.6094 291.117 76.6118C295.217 76.9923 299.009 74.9654 301.058 71.6792C301.849 70.409 302.381 68.9515 302.569 67.3745C302.577 67.3109 302.584 67.2473 302.59 67.1835C302.627 66.8232 302.644 66.4659 302.644 66.1118C302.643 60.7758 298.589 56.1873 293.169 55.6381C287.391 55.0536 282.209 59.2783 281.624 65.0591C281.588 65.4158 281.57 65.7728 281.57 66.1283C281.57 67.6709 281.908 69.1958 282.564 70.5917C282.602 70.6718 282.62 70.7565 282.619 70.8395C282.619 71.0576 282.496 71.2669 282.285 71.3661C281.995 71.5018 281.647 71.3781 281.511 71.0871C280.781 69.5336 280.406 67.8383 280.406 66.123C280.406 65.7298 280.426 65.3357 280.466 64.9419C281.116 58.523 286.874 53.8301 293.286 54.4799C299.306 55.0901 303.807 60.1854 303.808 66.1104C303.808 66.5036 303.788 66.9006 303.748 67.3C303.138 73.3198 298.041 77.8226 292.116 77.8226Z" fill="white"/>
<path d="M69.5064 307.627H65.1445V356.796H69.5064V307.627Z" fill="#DBCEFA"/>
<path d="M48.2188 357.744H86.4221V355.625C86.4221 355.161 86.046 354.784 85.5818 354.784H49.1244C48.624 354.784 48.2188 355.19 48.2188 355.69V357.744Z" fill="#DBCEFA"/>
<path d="M41 305.887C41 308.629 43.2433 310.873 45.9852 310.873H87.0629C89.8049 310.873 92.0482 308.629 92.0482 305.887V301.38C92.0482 298.638 89.8049 296.395 87.0629 296.395H45.9852C43.2433 296.395 41 298.638 41 301.38V305.887Z" fill="#DBCEFA"/>
<path d="M105.993 340.473C105.993 340.473 120.095 346.546 119.287 352.903C119.287 352.903 104.71 350.107 102.102 345.941C99.4929 341.775 100.93 339.361 100.93 339.361L105.993 340.473Z" fill="#2E078B"/>
<path d="M102.539 333.531L101.823 339.719C101.715 340.653 102.234 341.575 103.118 341.893C103.561 342.053 104.142 342.162 104.905 342.166C105.98 342.171 106.933 341.464 107.22 340.428L108.607 335.422L102.539 333.531Z" fill="url(#paint0_linear_8133_46843)"/>
<path d="M71.7315 286.072C71.7315 286.072 97.6681 284.872 110.574 292.398C123.48 299.925 109.92 336.047 109.92 336.047C109.92 336.047 106.548 336.772 101.694 334.177C101.694 334.177 108.622 307.734 96.5882 303.134C83.0594 297.962 69.0664 299.22 69.0664 299.22L71.6588 286.889L71.7315 286.072Z" fill="#09005D"/>
<path d="M116.45 350.114C113.502 349.467 104.756 345.843 103.428 345.892C102.099 345.941 100.217 347.931 100.217 347.931C100.217 347.931 99.8933 349.019 100.843 350.581C103.096 352.338 107.95 355.564 113.594 355.917C117.745 356.177 120.243 354.525 121.672 352.923C120.421 351.706 118.414 350.544 116.45 350.114Z" fill="#2E078B"/>
<path d="M113.595 355.917C107.951 355.564 103.097 352.338 100.844 350.581C101.486 351.636 102.709 352.908 105.008 354.207C110.712 357.429 120.137 356.96 122.006 356.234C123.503 355.653 123.041 354.254 121.672 352.923C120.244 354.525 117.746 356.177 113.595 355.917Z" fill="#1F055C"/>
<path d="M97.1211 344.692C97.3142 345.422 99.38 347.616 100.574 348.839C101.142 349.42 101.966 349.67 102.759 349.496C103.262 349.386 103.831 349.215 104.323 348.947C105.061 348.547 105.318 347.609 104.913 346.873L101.893 341.38L97.1211 344.692Z" fill="url(#paint1_linear_8133_46843)"/>
<path d="M46.0269 283.897C46.0269 283.897 43.763 299.958 50.309 303.24C56.8547 306.523 71.2124 308.672 76.1576 317.003C81.1028 325.333 89.9846 341.683 98.067 346.381C98.067 346.381 102.683 344.88 104.032 342.609C104.032 342.609 94.4383 317.389 90.4361 311.259C86.9701 305.95 81.9016 298.302 74.7013 294.994C72.6401 294.048 72.4786 291.861 72.8415 289.622L73.5022 285.544L46.0269 283.897Z" fill="#09005D"/>
<path d="M106.697 265.69C97.5201 268.31 93.4125 242.482 93.4493 241.854L79.3789 258.305C79.3789 258.305 87.7627 273.058 100.422 274.628C103.625 275.025 106.35 274.471 108.635 273.424C106.951 270.667 106.566 267.943 106.697 265.69Z" fill="#F4EAD0"/>
<path d="M123.69 257.237C119.69 255.593 116.297 258.873 116.297 258.873C112.334 262.93 109.191 264.978 106.695 265.69C106.565 267.943 106.949 270.666 108.633 273.424C113.577 271.159 116.46 266.579 117.647 264.294C118.075 263.471 119.077 263.123 119.912 263.526C120.76 263.936 121.633 264.562 121.688 265.411C121.796 267.086 123.789 267.185 123.801 266.566C123.813 265.948 122.257 262.639 122.257 262.639C122.257 262.639 126.853 265.587 128.642 266.714C130.431 267.842 131.954 265.981 131.954 265.981C131.954 265.981 127.69 258.88 123.69 257.237Z" fill="url(#paint2_linear_8133_46843)"/>
<path d="M49.5626 231.226C49.5626 231.226 61.895 222.813 91.6802 238.029C91.6802 238.029 94.7473 241.917 93.3107 246.301C91.8738 250.684 74.1892 274.407 73.5022 285.544C73.5022 285.544 61.4132 292.66 45.7202 285.605C45.7202 285.605 40.4572 256.198 49.5626 231.226Z" fill="#F4EAD0"/>
<path d="M75.2379 220.47L70.3642 230.02C69.8803 230.968 69.9816 232.115 70.6456 232.948C71.9877 234.629 74.7893 236.889 79.5706 235.433C80.9931 234.999 82.0815 233.842 82.4244 232.395L84.9505 221.736L75.2379 220.47Z" fill="url(#paint3_linear_8133_46843)"/>
<path d="M40.428 264.574C39.5933 258.768 54.9334 247.517 54.9334 247.517L49.5606 231.226C49.5606 231.226 20.2884 252.116 26.4445 269.175C27.3269 271.621 28.6434 273.402 30.2483 274.665C33.3481 268.308 37.5519 265.666 40.428 264.574Z" fill="#F4EAD0"/>
<path d="M61.8311 266.185C61.8311 266.185 44.4784 271.031 40.8783 265.749C40.634 265.391 40.4907 264.996 40.43 264.574C37.5536 265.666 33.3498 268.308 30.25 274.665C38.489 281.147 54.3747 273.881 58.691 271.703C59.4009 271.345 60.2176 271.275 60.9767 271.512C62.5119 271.991 65.1719 272.735 66.6542 272.653C68.8224 272.534 71.1499 280.37 74.8401 278.387C74.8401 278.387 73.1628 264.999 61.8311 266.185Z" fill="url(#paint4_linear_8133_46843)"/>
<path d="M92.2917 214.217C92.2917 214.476 86.5163 230.567 86.5163 230.567L77.3984 227.074L80.6066 211.009C80.6066 211.009 92.2917 209.888 92.2917 214.217Z" fill="url(#paint5_linear_8133_46843)"/>
<path d="M82.2074 214.923L79.8564 223.247C79.8261 223.354 79.8108 223.461 79.8108 223.572C79.8099 224.251 79.9779 226.587 82.3575 226.27C84.517 225.982 86.4919 225.751 87.7475 226.342C88.3114 226.607 88.581 227.256 88.3702 227.843C87.8452 229.305 86.6008 232.577 85.0859 235.255C84.7786 235.799 84.1043 236.01 83.536 235.751C81.8236 234.972 78.2579 233.228 75.7182 231.153C75.3741 230.872 75.2087 230.43 75.2906 229.993C75.6899 227.863 76.8805 221.387 76.9329 219.53C76.9823 217.788 75.0271 216.458 74.1665 215.958C73.8843 215.794 73.6836 215.524 73.6073 215.207C73.3371 214.086 73.1079 211.548 76.3451 210.989C77.0226 210.872 77.4644 210.223 77.3267 209.549C77.0527 208.208 77.1404 206.235 79.6871 205.508C82.2757 204.769 83.9045 206.327 84.733 207.522C85.0679 208.005 85.6949 208.162 86.2314 207.922C86.5369 207.785 86.906 207.779 87.3027 208.114C87.8372 208.564 88.651 208.427 89.0439 207.849C89.7986 206.738 91.1698 205.629 93.4915 206.38C97.6108 207.713 97.4139 212.462 95.9037 215.044C94.3935 217.626 90.0099 215.927 87.9346 214.216C86.3568 212.915 83.9542 213.693 82.8932 214.141C82.5571 214.284 82.3063 214.572 82.2074 214.923Z" fill="#1F055C"/>
<path d="M76.5726 222.629C76.5726 222.629 78.5504 217.958 76.9381 216.51C75.3261 215.062 73.0769 215.559 73.1502 219.165C73.2417 223.651 76.5726 222.629 76.5726 222.629Z" fill="url(#paint6_linear_8133_46843)"/>
<path d="M83.9931 277.233C84.024 277.235 84.0552 277.236 84.0861 277.235L124.626 277.191C125.628 277.19 126.439 276.377 126.438 275.375C126.438 274.372 125.621 273.544 124.622 273.562L84.0823 273.606C83.0801 273.607 82.2686 274.42 82.2695 275.423C82.2707 276.394 83.0342 277.186 83.9931 277.233Z" fill="#1F055C"/>
<path d="M161.068 240.426H127.307C124.816 240.426 122.549 241.863 121.487 244.116L105.879 277.212H147.836C149.441 277.212 150.883 276.231 151.473 274.738L163.576 244.113C164.275 242.343 162.971 240.426 161.068 240.426Z" fill="#1F055C"/>
<path d="M137.279 257.395C136.548 259.668 137.088 261.875 138.487 262.326C139.885 262.776 141.612 261.298 142.343 259.025C143.075 256.752 142.534 254.544 141.136 254.094C139.738 253.644 138.011 255.122 137.279 257.395Z" fill="white"/>
<path d="M155.59 357.743C155.814 357.743 156.042 357.703 156.262 357.619C157.126 357.288 157.525 356.393 157.154 355.622L121.425 281.492C121.054 280.721 120.052 280.365 119.187 280.697C118.323 281.029 117.924 281.923 118.295 282.694L154.024 356.823C154.301 357.399 154.929 357.743 155.59 357.743Z" fill="#DBCEFA"/>
<path d="M115.344 357.744C116.004 357.744 116.633 357.399 116.91 356.824L152.638 282.694C153.01 281.923 152.611 281.029 151.746 280.697C150.883 280.365 149.88 280.721 149.508 281.493L113.78 355.622C113.408 356.393 113.807 357.287 114.672 357.619C114.891 357.704 115.119 357.744 115.344 357.744Z" fill="#DBCEFA"/>
<path d="M44.9996 357.743C45.2242 357.743 45.4523 357.703 45.6719 357.619C46.536 357.288 46.9354 356.393 46.5637 355.622L10.8353 281.492C10.4635 280.721 9.46254 280.365 8.59723 280.697C7.7331 281.029 7.33371 281.923 7.70544 282.694L43.4338 356.823C43.7111 357.399 44.3395 357.743 44.9996 357.743Z" fill="#DBCEFA"/>
<path d="M4.74969 357.744C5.40985 357.744 6.03823 357.399 6.31548 356.824L42.0439 282.694C42.4156 281.923 42.0165 281.029 41.1524 280.697C40.2885 280.365 39.2864 280.721 38.914 281.493L3.18595 355.622C2.81422 356.393 3.21332 357.287 4.07745 357.619C4.29672 357.704 4.52512 357.744 4.74969 357.744Z" fill="#DBCEFA"/>
<path d="M0.556656 279.048C0.465416 278.506 0.589619 277.946 0.895126 277.52C1.20034 277.094 1.65507 276.848 2.13511 276.848H164.673C165.304 276.848 165.891 277.218 166.231 277.829C166.571 278.44 166.617 279.209 166.352 279.868L164.591 284.252C164.188 285.255 163.314 285.898 162.352 285.898H3.25C2.35556 285.898 1.58649 285.169 1.41667 284.159L0.556656 279.048Z" fill="white"/>
<path d="M381.668 129.134L384.804 132.226C389.256 131.798 392.687 130.413 395.322 128.656C393.736 124.713 392.125 122.374 390.86 121.003C386.715 126.832 381.668 129.134 381.668 129.134Z" fill="url(#paint7_linear_8133_46843)"/>
<path d="M403.5 117.562L396.099 105.991C395.613 112.518 393.408 117.424 390.863 121.003C392.129 122.374 393.739 124.713 395.325 128.657C401.901 124.272 403.5 117.562 403.5 117.562Z" fill="#F4EAD0"/>
<path d="M411.373 209.018C407.683 209.188 404.111 209.081 401.727 208.959C403.898 207.413 408.9 204.051 413.086 202.712L415.959 202.54C415.959 202.54 416.933 204.021 417.281 207.41C416.804 208.004 415.412 208.833 411.373 209.018Z" fill="#7D97F4"/>
<path d="M401.697 208.98C401.706 208.973 401.717 208.966 401.727 208.959C404.111 209.082 407.683 209.188 411.373 209.018C415.412 208.832 416.804 208.004 417.28 207.41C417.296 207.566 417.313 207.721 417.326 207.885C417.386 208.629 416.834 209.282 416.09 209.338C413.068 209.566 405.575 210.084 401.962 209.894C401.485 209.869 401.308 209.257 401.697 208.98Z" fill="#91B3FA"/>
<path d="M437.76 208.031C438.03 206.298 438.463 203.794 438.798 203.154C439.324 202.149 441.122 203.154 441.122 203.154C441.122 203.154 442.384 203.743 442.965 204.724C443.335 205.349 444.359 207.128 445.053 208.336C445.133 208.475 445.166 208.623 445.162 208.766L437.962 209.018C437.786 208.736 437.703 208.391 437.76 208.031Z" fill="#7D97F4"/>
<path d="M445.165 208.766C445.153 209.177 444.827 209.551 444.367 209.563L439.237 209.704C438.696 209.719 438.226 209.438 437.965 209.018L445.165 208.766Z" fill="#91B3FA"/>
<path d="M437.215 197.397C437.277 197.605 438.207 202.115 438.615 204.094C438.727 204.641 439.22 205.025 439.778 204.997C440.082 204.982 440.437 204.955 440.809 204.907C441.468 204.821 441.971 204.271 441.996 203.606C442.062 201.872 442.094 198.543 441.458 197.253C440.579 195.474 437.215 197.397 437.215 197.397Z" fill="url(#paint8_linear_8133_46843)"/>
<path d="M416.52 198.688C416.121 198.675 416.679 200.748 416.076 202.786C415.94 203.245 415.596 203.606 415.117 203.612C414.806 203.616 414.438 203.61 414.064 203.58C413.502 203.535 413.051 203.099 412.999 202.537L412.508 197.253L416.52 198.688Z" fill="url(#paint9_linear_8133_46843)"/>
<path d="M405.363 142.515C405.541 143.382 411.827 180.047 412.209 199.019C412.215 199.337 412.449 199.604 412.765 199.648C413.563 199.759 415.117 199.902 416.623 199.623C416.83 199.584 416.986 199.414 416.998 199.205C417.218 195.67 418.985 165.777 416.821 151.705C416.821 151.705 434.694 189.321 437.403 199.694C437.469 199.946 437.701 200.116 437.961 200.102C438.727 200.061 440.319 199.924 441.583 199.458C442.036 199.291 442.294 198.816 442.179 198.346C440.666 192.139 430.058 149.372 422.855 139.949L405.363 142.515Z" fill="url(#paint10_linear_8133_46843)"/>
<path d="M416.82 151.939C416.879 151.939 416.938 151.917 416.984 151.872C417.076 151.782 417.078 151.633 416.987 151.541L414.594 149.093C414.503 149.001 414.355 148.999 414.262 149.09C414.169 149.18 414.168 149.329 414.258 149.422L416.652 151.869C416.698 151.916 416.759 151.939 416.82 151.939Z" fill="url(#paint11_linear_8133_46843)"/>
<path d="M395.146 96.6108C399.737 95.4082 408.206 93.5249 414.947 93.9269C416.495 94.019 417.736 95.2434 417.824 96.7918C418.842 114.746 420.234 130.679 422.855 139.949C416.964 142.28 411.124 143.361 405.363 142.515C401.046 133.27 397.273 122.597 394.049 110.476C394.049 110.476 392.157 100.809 393.994 97.5868C394.281 97.0844 394.658 96.7389 395.146 96.6108Z" fill="#F4EAD0"/>
<path d="M406.188 84.0338C406.188 84.0338 407.348 90.95 407.693 94.1484C407.75 94.6682 407.478 95.1597 407.013 95.399C405.746 96.0512 403.041 97.102 400.094 96.1378C399.608 95.9788 399.29 95.5094 399.301 94.9987L399.503 85.7655L406.188 84.0338Z" fill="url(#paint12_linear_8133_46843)"/>
<path d="M398.626 76.3708C398.626 76.3708 396.389 81.5091 396.239 84.2059C396.089 86.9028 395.507 88.6529 398.626 89.1959C401.744 89.7389 404.371 88.1855 405.794 85.4992C405.794 85.4992 408.024 81.3598 407.524 79.6645C407.024 77.9692 398.626 76.3708 398.626 76.3708Z" fill="url(#paint13_linear_8133_46843)"/>
<path d="M404.731 83.5677H404.337C404.337 83.5677 405.961 80.236 404.534 79.6509C403.107 79.0655 397.454 77.9126 396.234 75.9068C395.058 73.9728 396.107 71.4749 397.676 70.7759C397.775 70.7317 397.892 70.7782 397.943 70.8745L398.073 71.1205C398.162 71.2889 398.411 71.2633 398.464 71.0805C398.514 70.9068 398.748 70.8692 398.843 71.0225C399.217 71.6223 400.228 72.598 402.939 73.0984C406.787 73.8086 409.331 75.3658 409.393 78.0247C409.397 78.1931 409.577 78.2861 409.721 78.1984C410.005 78.0253 410.46 77.9441 411.067 78.4547C412.124 79.343 411.692 81.6475 409.376 83.543C409.266 83.633 409.266 83.8049 409.386 83.8826C409.806 84.1561 410.431 84.8062 408.809 85.6733C407.151 86.5601 406.169 86.4635 405.798 86.3685C405.698 86.3429 405.632 86.2522 405.638 86.1495L405.783 83.7929C405.791 83.671 405.694 83.568 405.572 83.568H404.731V83.5677Z" fill="#1F055C"/>
<path d="M404.633 84.0608C404.633 84.0608 405.486 80.7785 406.958 81.6989C408.429 82.6192 406.194 85.3764 405.011 85.4995L404.633 84.0608Z" fill="url(#paint14_linear_8133_46843)"/>
<path d="M451.781 137.324L361.245 118.553L358.957 127.606L447.538 154.11C447.736 154.169 447.935 154.224 448.135 154.275L451.156 155.038C456.339 156.349 461.258 154.577 462.141 151.082L463.192 146.927C464.075 143.432 460.589 139.536 455.405 138.226L452.384 137.463C452.185 137.412 451.983 137.365 451.781 137.324ZM457.089 147.595C456.503 149.914 452.864 150.994 448.961 150.007C445.058 149.021 442.369 146.341 442.955 144.022C443.542 141.703 447.181 140.623 451.083 141.61C454.986 142.596 457.675 145.276 457.089 147.595Z" fill="#7D97F4"/>
<path d="M331.795 106.252L349.324 110.683C350.572 110.998 351.603 111.875 352.115 113.057L354.737 119.112C355.486 120.84 354.976 122.856 353.496 124.021L348.312 128.103C347.3 128.899 345.977 129.18 344.728 128.865L327.2 124.434C324.556 123.766 322.309 126.526 323.558 128.95C326.544 134.75 332.023 139.338 338.998 141.101C351.603 144.288 362.759 136.65 365.824 124.525C368.889 112.4 362.702 100.379 350.096 97.1931C343.122 95.4301 336.121 96.8635 330.737 100.548C328.486 102.089 329.152 105.584 331.795 106.252Z" fill="#7D97F4"/>
<path d="M331.374 107.904L348.902 112.335C350.15 112.65 351.181 113.527 351.693 114.708L354.315 120.763C355.064 122.492 354.554 124.508 353.075 125.673L347.89 129.754C346.878 130.551 345.555 130.832 344.306 130.517L326.778 126.086C324.134 125.418 321.888 128.177 323.136 130.602C326.122 136.402 331.601 140.99 338.576 142.753C351.181 145.94 362.337 138.302 365.402 126.177C368.467 114.052 362.28 102.031 349.674 98.845C342.7 97.082 335.699 98.5153 330.315 102.2C328.065 103.74 328.73 107.236 331.374 107.904Z" fill="#BDD0FB"/>
<path d="M451.449 138.641L360.913 119.871L358.625 128.923L447.206 155.428C447.404 155.487 447.603 155.542 447.803 155.592L450.824 156.356C456.007 157.666 460.926 155.895 461.809 152.399L462.86 148.244C463.743 144.749 460.257 140.853 455.073 139.543L452.052 138.78C451.853 138.729 451.651 138.683 451.449 138.641ZM456.757 148.912C456.171 151.231 452.532 152.311 448.629 151.325C444.726 150.339 442.037 147.659 442.623 145.34C443.21 143.021 446.849 141.94 450.751 142.927C454.654 143.914 457.343 146.593 456.757 148.912Z" fill="#BDD0FB"/>
<path d="M429.703 120.524C431.974 126.894 430.695 133.723 430.695 133.723L433.688 134.521C433.688 134.521 437.554 129.922 436.669 119.718C433.907 119.297 431.32 119.944 429.703 120.524Z" fill="#F4EAD0"/>
<path d="M436.669 119.718C436.57 118.571 436.414 117.356 436.182 116.066C434.16 104.812 419.732 96.155 416.337 94.2592C416.022 94.0829 415.637 94.3207 415.649 94.6822L416.131 109.98C424.166 111.06 427.969 115.658 429.703 120.523C431.32 119.944 433.907 119.297 436.669 119.718Z" fill="#F4EAD0"/>
<path d="M375.363 134.747C374.803 134.592 374.347 134.193 374.109 133.661C373.65 132.632 373.133 130.983 374.238 130.48C375.884 129.732 378.876 132.8 378.876 132.8L380.338 135.17L381.676 135.82C380.451 136.157 378.088 135.595 375.363 134.747Z" fill="url(#paint15_linear_8133_46843)"/>
<path d="M430.895 132.226H427.195C427.195 132.226 430.197 134.027 430.297 135.92C430.396 137.813 429.105 141.734 428.501 142.801C427.84 143.969 436.879 141.063 433.688 132.226H430.895Z" fill="url(#paint16_linear_8133_46843)"/>
<defs>
<linearGradient id="paint0_linear_8133_46843" x1="101.408" y1="338.391" x2="108.898" y2="336.734" gradientUnits="userSpaceOnUse">
<stop stop-color="#FF928E"/>
<stop offset="1" stop-color="#FEB3B1"/>
</linearGradient>
<linearGradient id="paint1_linear_8133_46843" x1="97.5215" y1="346.501" x2="104.551" y2="344.946" gradientUnits="userSpaceOnUse">
<stop stop-color="#FF928E"/>
<stop offset="1" stop-color="#FEB3B1"/>
</linearGradient>
<linearGradient id="paint2_linear_8133_46843" x1="106.442" y1="266.92" x2="130.961" y2="261.493" gradientUnits="userSpaceOnUse">
<stop stop-color="#FF928E"/>
<stop offset="1" stop-color="#FEB3B1"/>
</linearGradient>
<linearGradient id="paint3_linear_8133_46843" x1="69.6456" y1="229.687" x2="85.9135" y2="226.086" gradientUnits="userSpaceOnUse">
<stop stop-color="#FF928E"/>
<stop offset="1" stop-color="#FEB3B1"/>
</linearGradient>
<linearGradient id="paint4_linear_8133_46843" x1="60.3765" y1="221.053" x2="56.8447" y2="246.071" gradientUnits="userSpaceOnUse">
<stop stop-color="#FF928E"/>
<stop offset="1" stop-color="#FEB3B1"/>
</linearGradient>
<linearGradient id="paint5_linear_8133_46843" x1="88.4431" y1="214.33" x2="68.8298" y2="240.277" gradientUnits="userSpaceOnUse">
<stop stop-color="#FF928E"/>
<stop offset="1" stop-color="#FEB3B1"/>
</linearGradient>
<linearGradient id="paint6_linear_8133_46843" x1="60.5153" y1="234.59" x2="75.7727" y2="218.937" gradientUnits="userSpaceOnUse">
<stop stop-color="#FF928E"/>
<stop offset="1" stop-color="#FEB3B1"/>
</linearGradient>
<linearGradient id="paint7_linear_8133_46843" x1="385.82" y1="121.809" x2="401.781" y2="164.105" gradientUnits="userSpaceOnUse">
<stop stop-color="#FF928E"/>
<stop offset="1" stop-color="#FEB3B1"/>
</linearGradient>
<linearGradient id="paint8_linear_8133_46843" x1="442.029" y1="200.748" x2="437.215" y2="200.748" gradientUnits="userSpaceOnUse">
<stop stop-color="#FF928E"/>
<stop offset="1" stop-color="#FEB3B1"/>
</linearGradient>
<linearGradient id="paint9_linear_8133_46843" x1="416.52" y1="200.433" x2="412.508" y2="200.433" gradientUnits="userSpaceOnUse">
<stop stop-color="#FF928E"/>
<stop offset="1" stop-color="#FEB3B1"/>
</linearGradient>
<linearGradient id="paint10_linear_8133_46843" x1="423.492" y1="188.622" x2="424.689" y2="114.803" gradientUnits="userSpaceOnUse">
<stop stop-color="#09005D"/>
<stop offset="1" stop-color="#1A0F91"/>
</linearGradient>
<linearGradient id="paint11_linear_8133_46843" x1="406.545" y1="138.744" x2="422.968" y2="159.976" gradientUnits="userSpaceOnUse">
<stop stop-color="#09005D"/>
<stop offset="1" stop-color="#1A0F91"/>
</linearGradient>
<linearGradient id="paint12_linear_8133_46843" x1="401.26" y1="82.6501" x2="405.772" y2="103.743" gradientUnits="userSpaceOnUse">
<stop stop-color="#FF928E"/>
<stop offset="1" stop-color="#FEB3B1"/>
</linearGradient>
<linearGradient id="paint13_linear_8133_46843" x1="686.844" y1="877.9" x2="682.233" y2="865.048" gradientUnits="userSpaceOnUse">
<stop stop-color="#FF928E"/>
<stop offset="1" stop-color="#FEB3B1"/>
</linearGradient>
<linearGradient id="paint14_linear_8133_46843" x1="690.597" y1="876.553" x2="685.986" y2="863.701" gradientUnits="userSpaceOnUse">
<stop stop-color="#FF928E"/>
<stop offset="1" stop-color="#FEB3B1"/>
</linearGradient>
<linearGradient id="paint15_linear_8133_46843" x1="386.331" y1="110.845" x2="382.799" y2="120.068" gradientUnits="userSpaceOnUse">
<stop stop-color="#FF928E"/>
<stop offset="1" stop-color="#FEB3B1"/>
</linearGradient>
<linearGradient id="paint16_linear_8133_46843" x1="445.073" y1="83.1255" x2="442.13" y2="93.7211" gradientUnits="userSpaceOnUse">
<stop stop-color="#FF928E"/>
<stop offset="1" stop-color="#FEB3B1"/>
</linearGradient>
</defs>
</svg>
