<svg width="94" height="161" viewBox="0 0 94 161" fill="none" xmlns="http://www.w3.org/2000/svg">
<g opacity="0.42" clip-path="url(#clip0_8202_49503)">
<path d="M18.5576 57.4165H18.9766V160.744H18.5576V57.4165Z" fill="url(#paint0_linear_8202_49503)"/>
<path d="M18.5576 0.744141H18.9766V34.4997H18.5576V0.744141Z" fill="url(#paint1_linear_8202_49503)"/>
<path d="M-0.00177383 45.3551L0.0202713 42.4329L3.95646 41.6218C4.12185 40.5273 4.40852 39.4773 4.79993 38.4773L1.80093 35.7218L3.26735 33.1996L7.13739 34.494C7.80997 33.6773 8.57074 32.9385 9.40318 32.2829L8.14073 28.2773L10.6601 26.8329L13.4772 30.0329C14.4089 29.6996 15.3791 29.4662 16.388 29.3273L17.3252 25.0273L20.225 25.0496L21.1236 29.4718C22.0442 29.6551 22.9373 29.9218 23.7863 30.2662L26.89 26.8385L29.3929 28.3162L27.9044 32.8218C28.5549 33.394 29.1503 34.0218 29.6906 34.6996L34.2773 33.2329L35.7106 35.7718L32.0721 39.0273C32.3367 39.794 32.5407 40.594 32.6785 41.4162L37.5078 42.4829L37.4858 45.4051L32.6565 46.4051C32.5132 47.2162 32.3092 47.9996 32.0446 48.7551L35.7106 52.1218L34.2442 54.644L29.6244 53.094C29.1007 53.744 28.5218 54.344 27.8989 54.894L29.3708 59.5607L26.8514 61.0051L23.7311 57.4662C22.9152 57.794 22.0663 58.0551 21.1897 58.2273L20.1919 62.8107L17.2921 62.7885L16.3935 58.3662C15.4343 58.2385 14.5026 58.0107 13.6095 57.7051L10.627 60.9996L8.1242 59.5218L9.46383 55.4551C8.65343 54.8273 7.91471 54.1107 7.25316 53.3218L3.23979 54.6051L1.80645 52.0662L4.85506 49.3385C4.45814 48.3496 4.16595 47.3107 3.98954 46.2329L-0.00177383 45.3551ZM27.083 43.9051C27.116 39.0273 23.2184 35.0496 18.3837 35.0162C13.5434 34.9829 9.59613 38.9107 9.56306 43.7885C9.52998 48.6662 13.4276 52.644 18.2679 52.6773C23.1027 52.7051 27.0499 48.7773 27.083 43.9051Z" fill="url(#paint2_linear_8202_49503)"/>
<path d="M39.1371 134.227H39.5781V160.744H39.1371V134.227Z" fill="url(#paint3_linear_8202_49503)"/>
<path d="M39.1371 0.744141H39.5781V114.255H39.1371V0.744141Z" fill="url(#paint4_linear_8202_49503)"/>
<path d="M25.0655 127.899V125.688L28.0369 125.055C28.1582 124.227 28.3677 123.427 28.6599 122.672L26.3775 120.605L27.4746 118.694L30.4075 119.655C30.9146 119.033 31.4825 118.472 32.1109 117.972L31.1352 114.949L33.0316 113.844L35.1761 116.249C35.8762 115.994 36.615 115.811 37.3702 115.699L38.0538 112.444H40.2479L40.9481 115.783C41.6482 115.916 42.3208 116.111 42.9658 116.372L45.2922 113.766L47.1886 114.872L46.0861 118.283C46.5767 118.711 47.0343 119.183 47.4422 119.694L50.9043 118.561L52.0014 120.472L49.267 122.949C49.471 123.527 49.6308 124.133 49.7356 124.755L53.3906 125.538V127.749L49.7466 128.527C49.6419 129.138 49.493 129.733 49.2946 130.311L52.0786 132.838L50.9815 134.749L47.4808 133.605C47.0894 134.099 46.6539 134.555 46.1853 134.977L47.321 138.499L45.4245 139.605L43.0485 136.944C42.4365 137.194 41.7915 137.394 41.13 137.533L40.3968 141.005H38.2027L37.5025 137.666C36.7748 137.572 36.0692 137.411 35.3966 137.177L33.1584 139.683L31.262 138.577L32.2543 135.499C31.6368 135.027 31.0745 134.488 30.5728 133.899L27.5463 134.894L26.4492 132.983L28.7426 130.905C28.4394 130.161 28.2133 129.377 28.0755 128.561L25.0655 127.899ZM45.5348 126.666C45.5348 122.983 42.5689 119.994 38.9138 119.994C35.2588 119.994 32.2929 122.983 32.2929 126.666C32.2929 130.349 35.2588 133.338 38.9138 133.338C42.5689 133.344 45.5348 130.355 45.5348 126.666Z" fill="url(#paint5_linear_8202_49503)"/>
<path d="M60.2658 0.744141H60.7344V58.833H60.2658V0.744141Z" fill="url(#paint6_linear_8202_49503)"/>
<path d="M60.2658 102.655H60.7344V160.744H60.2658V102.655Z" fill="url(#paint7_linear_8202_49503)"/>
<path d="M31.1518 84.0444L31.1683 79.4888L36.2291 78.4277C36.4993 76.3722 37.0285 74.3999 37.7727 72.5444L33.9082 69.011L36.185 65.0722L41.1135 66.711C42.3484 65.111 43.7763 63.6777 45.364 62.4333L43.7542 57.3777L47.6794 55.1166L51.1745 59.061C52.9938 58.3222 54.9178 57.7999 56.9245 57.5277L58.0546 52.2666L62.5752 52.2833L63.6667 57.5555C65.6403 57.8388 67.5367 58.3666 69.3284 59.0999L72.9779 55.0444L76.8811 57.3388L75.1831 62.5388C76.7047 63.7444 78.0718 65.1333 79.2681 66.6722L84.5219 64.9722L86.7656 68.9277L82.6696 72.6166C83.3752 74.3888 83.8824 76.2555 84.1581 78.1999L89.5938 79.3833L89.5772 83.9388L84.1691 85.0722C83.899 87.0166 83.4083 88.8833 82.7137 90.6499L86.8373 94.4166L84.5605 98.3555L79.3343 96.6222C78.1545 98.1555 76.7984 99.5388 75.2989 100.75L76.9913 106.05L73.0662 108.311L69.4497 104.228C67.6746 104.967 65.7947 105.5 63.8376 105.8L62.6909 111.161L58.1704 111.144L57.0788 105.867C55.0887 105.605 53.1757 105.105 51.3675 104.389L47.7731 108.383L43.8645 106.089L45.5073 101.055C43.9196 99.8277 42.4918 98.4111 41.2458 96.8333L36.2236 98.461L33.9799 94.5055L37.8499 91.0222C37.0891 89.1722 36.5489 87.2055 36.2567 85.1555L31.1518 84.0444ZM39.9779 81.611C39.9393 92.8499 48.9749 102.028 60.1274 102.067C71.28 102.105 80.3873 92.9999 80.4258 81.761C80.4699 70.5222 71.4288 61.3444 60.2763 61.2999C49.1237 61.261 40.0165 70.3722 39.9779 81.611Z" fill="url(#paint8_linear_8202_49503)"/>
<path d="M60.2095 66.3664C51.8575 66.3664 45.0381 73.2108 45.0105 81.6275C44.9775 90.0775 51.7748 96.9719 60.1544 97.0053H60.2095C68.5615 97.0053 75.381 90.1608 75.4085 81.7442C75.4251 77.6608 73.8539 73.8108 70.9927 70.8997C68.126 67.9941 64.3166 66.383 60.2647 66.3664H60.2095ZM60.2095 64.6997C60.2316 64.6997 60.2536 64.6997 60.2702 64.6997C69.5649 64.733 77.0955 72.383 77.0624 81.7497C77.0293 91.0942 69.4712 98.6719 60.2095 98.6719C60.1875 98.6719 60.1654 98.6719 60.1489 98.6719C50.8542 98.6386 43.3181 90.9886 43.3567 81.6219C43.3842 72.2775 50.9424 64.6997 60.2095 64.6997Z" fill="url(#paint9_linear_8202_49503)"/>
</g>
<defs>
<linearGradient id="paint0_linear_8202_49503" x1="18.9784" y1="109.079" x2="18.5617" y2="109.079" gradientUnits="userSpaceOnUse">
<stop stop-color="white"/>
<stop offset="0.2336" stop-color="#E7E7E7"/>
<stop offset="0.522" stop-color="#C4C4C4"/>
<stop offset="0.5238" stop-color="#D7D7D7"/>
<stop offset="0.5262" stop-color="#E9E9E9"/>
<stop offset="0.5279" stop-color="#EFEFEF"/>
<stop offset="0.734" stop-color="#F8F8F8"/>
<stop offset="1" stop-color="white"/>
</linearGradient>
<linearGradient id="paint1_linear_8202_49503" x1="18.9784" y1="17.6226" x2="18.5617" y2="17.6226" gradientUnits="userSpaceOnUse">
<stop stop-color="white"/>
<stop offset="0.2336" stop-color="#E7E7E7"/>
<stop offset="0.522" stop-color="#C4C4C4"/>
<stop offset="0.5238" stop-color="#D7D7D7"/>
<stop offset="0.5262" stop-color="#E9E9E9"/>
<stop offset="0.5279" stop-color="#EFEFEF"/>
<stop offset="0.734" stop-color="#F8F8F8"/>
<stop offset="1" stop-color="white"/>
</linearGradient>
<linearGradient id="paint2_linear_8202_49503" x1="38.0534" y1="43.9135" x2="1.3781" y2="43.9135" gradientUnits="userSpaceOnUse">
<stop stop-color="white"/>
<stop offset="0.2336" stop-color="#E7E7E7"/>
<stop offset="0.522" stop-color="#C4C4C4"/>
<stop offset="0.5238" stop-color="#D7D7D7"/>
<stop offset="0.5262" stop-color="#E9E9E9"/>
<stop offset="0.5279" stop-color="#EFEFEF"/>
<stop offset="0.734" stop-color="#F8F8F8"/>
<stop offset="1" stop-color="white"/>
</linearGradient>
<linearGradient id="paint3_linear_8202_49503" x1="39.5801" y1="147.484" x2="39.1373" y2="147.484" gradientUnits="userSpaceOnUse">
<stop stop-color="white"/>
<stop offset="0.2336" stop-color="#E7E7E7"/>
<stop offset="0.522" stop-color="#C4C4C4"/>
<stop offset="0.5238" stop-color="#D7D7D7"/>
<stop offset="0.5262" stop-color="#E9E9E9"/>
<stop offset="0.5279" stop-color="#EFEFEF"/>
<stop offset="0.734" stop-color="#F8F8F8"/>
<stop offset="1" stop-color="white"/>
</linearGradient>
<linearGradient id="paint4_linear_8202_49503" x1="39.5801" y1="57.5009" x2="39.1373" y2="57.5009" gradientUnits="userSpaceOnUse">
<stop stop-color="white"/>
<stop offset="0.2336" stop-color="#E7E7E7"/>
<stop offset="0.522" stop-color="#C4C4C4"/>
<stop offset="0.5238" stop-color="#D7D7D7"/>
<stop offset="0.5262" stop-color="#E9E9E9"/>
<stop offset="0.5279" stop-color="#EFEFEF"/>
<stop offset="0.734" stop-color="#F8F8F8"/>
<stop offset="1" stop-color="white"/>
</linearGradient>
<linearGradient id="paint5_linear_8202_49503" x1="53.8369" y1="126.716" x2="25.8018" y2="126.716" gradientUnits="userSpaceOnUse">
<stop stop-color="white"/>
<stop offset="0.2336" stop-color="#E7E7E7"/>
<stop offset="0.522" stop-color="#C4C4C4"/>
<stop offset="0.5238" stop-color="#D7D7D7"/>
<stop offset="0.5262" stop-color="#E9E9E9"/>
<stop offset="0.5279" stop-color="#EFEFEF"/>
<stop offset="0.734" stop-color="#F8F8F8"/>
<stop offset="1" stop-color="white"/>
</linearGradient>
<linearGradient id="paint6_linear_8202_49503" x1="60.732" y1="29.7879" x2="60.2632" y2="29.7879" gradientUnits="userSpaceOnUse">
<stop stop-color="white"/>
<stop offset="0.2336" stop-color="#E7E7E7"/>
<stop offset="0.522" stop-color="#C4C4C4"/>
<stop offset="0.5238" stop-color="#D7D7D7"/>
<stop offset="0.5262" stop-color="#E9E9E9"/>
<stop offset="0.5279" stop-color="#EFEFEF"/>
<stop offset="0.734" stop-color="#F8F8F8"/>
<stop offset="1" stop-color="white"/>
</linearGradient>
<linearGradient id="paint7_linear_8202_49503" x1="60.732" y1="131.7" x2="60.2632" y2="131.7" gradientUnits="userSpaceOnUse">
<stop stop-color="white"/>
<stop offset="0.2336" stop-color="#E7E7E7"/>
<stop offset="0.522" stop-color="#C4C4C4"/>
<stop offset="0.5238" stop-color="#D7D7D7"/>
<stop offset="0.5262" stop-color="#E9E9E9"/>
<stop offset="0.5279" stop-color="#EFEFEF"/>
<stop offset="0.734" stop-color="#F8F8F8"/>
<stop offset="1" stop-color="white"/>
</linearGradient>
<linearGradient id="paint8_linear_8202_49503" x1="86.1905" y1="81.7104" x2="37.214" y2="81.7104" gradientUnits="userSpaceOnUse">
<stop stop-color="white"/>
<stop offset="0.2336" stop-color="#E7E7E7"/>
<stop offset="0.522" stop-color="#C4C4C4"/>
<stop offset="0.5238" stop-color="#D7D7D7"/>
<stop offset="0.5262" stop-color="#E9E9E9"/>
<stop offset="0.5279" stop-color="#EFEFEF"/>
<stop offset="0.734" stop-color="#F8F8F8"/>
<stop offset="1" stop-color="white"/>
</linearGradient>
<linearGradient id="paint9_linear_8202_49503" x1="86.1955" y1="81.6837" x2="37.219" y2="81.6837" gradientUnits="userSpaceOnUse">
<stop stop-color="white"/>
<stop offset="0.2336" stop-color="#E7E7E7"/>
<stop offset="0.522" stop-color="#C4C4C4"/>
<stop offset="0.5238" stop-color="#D7D7D7"/>
<stop offset="0.5262" stop-color="#E9E9E9"/>
<stop offset="0.5279" stop-color="#EFEFEF"/>
<stop offset="0.734" stop-color="#F8F8F8"/>
<stop offset="1" stop-color="white"/>
</linearGradient>
<clipPath id="clip0_8202_49503">
<rect width="94" height="160" fill="white" transform="matrix(-1 0 0 1 94 0.744141)"/>
</clipPath>
</defs>
</svg>
