<svg width="128" height="128" viewBox="0 0 128 128" fill="none" xmlns="http://www.w3.org/2000/svg">
<path d="M64 128C99.3462 128 128 99.3462 128 64C128 28.6538 99.3462 0 64 0C28.6538 0 0 28.6538 0 64C0 99.3462 28.6538 128 64 128Z" fill="#FFEFE3"/>
<path d="M64.4836 87.3825C64.5407 87.4301 64.5787 87.4872 64.5978 87.5443C64.6168 87.4872 64.6549 87.4301 64.712 87.3825C72.3253 81.5488 75.3231 77.6374 76.6555 76.6096C75.7419 74.6492 75.3707 72.7173 75.2184 71.1184C75.0566 71.2612 74.9044 71.4135 74.7426 71.5562C73.829 72.3556 72.8583 73.0884 71.8019 73.707C70.9074 74.2304 69.9652 74.6682 68.9755 74.9822C68.0809 75.2677 67.1483 75.4581 66.2156 75.5532C65.0546 75.6674 63.8555 75.6389 62.6944 75.4486C61.7427 75.2963 60.8101 75.0489 59.9155 74.6967C58.9068 74.3066 57.9551 73.7832 57.0605 73.1931C55.9947 72.4794 55.0049 71.6514 54.0818 70.7663C54.0818 70.7663 54.0818 70.7664 54.0723 70.7568C53.9485 72.4318 53.5774 74.535 52.5781 76.6477C53.9295 77.7326 56.9368 81.6154 64.474 87.3921L64.4836 87.3825Z" fill="#EDB888"/>
<path d="M62.0858 98.2229C61.058 95.9198 59.9065 94.597 59.7828 92.6936C58.7359 93.8642 57.9556 95.1014 58.0698 96.2624C58.3743 99.5267 48.8671 88.5539 47.6775 82.9961C47.5538 83.9763 47.4776 86.2128 50.4659 90.619C51.941 92.7983 55.8714 104.028 59.7447 116.114C60.9628 107.977 62.1334 100.593 62.4951 98.6226C62.3238 98.5179 62.162 98.3846 62.0858 98.2229Z" fill="#9BAEC9"/>
<path d="M67.1123 98.2227C67.0362 98.394 66.8839 98.5272 66.7031 98.6224C67.0743 100.64 68.2924 108.368 69.5486 116.752C72.8224 105.522 76.867 93.3026 78.6942 90.6188C81.5587 86.4029 81.6063 84.176 81.5016 83.1387C80.1788 88.7345 70.8238 99.4979 71.1379 96.2622C71.2426 95.1012 70.4717 93.8735 69.4249 92.6935C69.3012 94.6063 68.1496 95.9196 67.1218 98.2227H67.1123Z" fill="#9BAEC9"/>
<path d="M79.9062 93.8445L79.9824 93.9016C79.9824 93.9016 80.0014 93.854 80.0109 93.835C79.9443 93.835 79.9062 93.835 79.9062 93.835V93.8445Z" fill="#9BAEC9"/>
<path d="M69.5522 116.761C68.296 108.376 67.0779 100.649 66.7068 98.6313C66.8781 98.5266 67.0398 98.3934 67.116 98.2316C68.1438 95.9286 69.2953 94.6057 69.419 92.7024C67.5728 90.6373 64.8795 88.7625 64.6035 87.8203C64.3276 88.7625 61.6343 90.6373 59.7881 92.7024C59.9118 94.6153 61.0633 95.9286 62.0911 98.2316C62.1673 98.4029 62.3195 98.5361 62.5003 98.6313C62.1387 100.601 60.9777 107.986 59.75 116.123C61.0157 120.082 62.2815 124.127 63.4425 127.981C63.6899 127.981 63.9374 128 64.1943 128C64.9557 128 65.7075 127.971 66.4593 127.943C67.2968 124.66 68.3722 120.777 69.5427 116.761H69.5522Z" fill="#9D2B3B"/>
<path d="M48.7646 80.179C48.5362 80.4074 48.3268 80.6072 48.1555 80.7785C47.8986 81.1497 47.6892 81.7016 47.7273 82.5105C47.7273 82.6152 47.6987 82.7675 47.6797 82.9959C48.8693 88.5442 58.386 99.5265 58.072 96.2622C57.9673 95.1012 58.7381 93.8735 59.785 92.6935C61.6312 90.6283 64.3244 88.7535 64.6004 87.8114C64.8764 88.7535 67.5696 90.6283 69.4159 92.6935C70.4627 93.864 71.2431 95.1012 71.1289 96.2622C70.8244 99.4979 80.1793 88.7345 81.4926 83.1386C81.4641 82.8436 81.4165 82.6343 81.426 82.5105C81.4736 81.5969 81.1976 81.0069 80.9026 80.6357C80.7884 80.5311 80.6742 80.4073 80.541 80.2836C80.3696 80.1599 80.2364 80.0933 80.2364 80.0933C80.2364 80.0933 80.2745 80.0933 80.3411 80.0838C79.5607 79.3129 78.5329 78.2185 77.5337 76.5436C77.3528 76.2295 77.0864 76.2581 76.6486 76.6007C75.3163 77.638 72.328 81.5398 64.7051 87.3736C64.648 87.4212 64.61 87.4783 64.5909 87.5354C64.5719 87.4783 64.5338 87.4212 64.4767 87.3736C56.9395 81.597 53.9322 77.7141 52.5808 76.6292C52.1145 76.2581 51.848 76.2105 51.6577 76.534C50.6679 78.2185 49.6306 79.3129 48.8503 80.0838C48.8883 80.0838 48.9074 80.0838 48.9074 80.0838C48.9074 80.0838 48.8407 80.1123 48.7551 80.1694L48.7646 80.179Z" fill="#C1D4F2"/>
<path d="M57.0674 73.1845C57.9619 73.7841 58.9231 74.2979 59.9224 74.6881C60.817 75.0403 61.7496 75.2972 62.7013 75.44C63.8623 75.6208 65.0519 75.6589 66.2225 75.5447C67.1646 75.4495 68.0877 75.2592 68.9823 74.9737C69.972 74.6596 70.9142 74.2218 71.8088 73.6984C72.8556 73.0798 73.8358 72.347 74.7494 71.5476C74.9112 71.4049 75.0635 71.2526 75.2253 71.1099C75.3585 70.9861 75.4822 70.8719 75.6155 70.7482C79.5364 66.9606 79.5078 57.3867 80.4499 58.0624C82.6102 59.5185 83.9997 55.1884 84.2757 52.6189C84.5041 50.411 83.6761 49.3165 82.753 49.7258C82.5056 50.2777 82.201 50.687 81.8204 50.9058C81.8204 50.9058 80.469 56.5017 79.8885 56.3304C79.3079 56.1591 79.5649 51.1057 80.469 45.1958C81.4397 38.9052 73.7026 41.6461 68.2876 41.4652C62.8725 41.2939 50.3485 40.2376 49.3778 43.2068C48.4071 46.176 50.301 55.1598 49.5301 55.5024C48.7592 55.8545 47.7886 51.4293 47.0177 50.5537C46.894 50.411 46.7607 50.0779 46.637 49.6306C45.8566 49.5925 45.2381 50.6774 45.4474 52.6189C45.7139 55.1884 47.1033 59.5185 49.2732 58.0624C50.2153 57.3867 50.1868 66.932 54.0982 70.7292C54.0982 70.7292 54.0981 70.7292 54.1076 70.7387C55.0308 71.6333 56.0205 72.4517 57.0864 73.1655L57.0674 73.1845Z" fill="#EDB888"/>
<path d="M49.5294 55.521C50.3002 55.1689 48.4159 46.1946 49.3771 43.2254C50.3478 40.2562 62.8718 41.3125 68.2868 41.4838C73.7018 41.6551 81.4389 38.9143 80.4682 45.2144C79.5642 51.1243 79.3072 56.1776 79.8877 56.3489C80.4682 56.5202 81.8196 50.9244 81.8196 50.9244C82.2003 50.7055 82.5048 50.2868 82.7523 49.7443C84.2749 46.3659 83.5612 37.7437 83.5612 36.2401C83.5612 34.489 80.8584 31.5198 79.6974 31.5198C78.5364 31.5198 79.5071 26.6282 71.5796 24.525C63.6522 22.4313 56.6859 23.4782 52.8221 25.4005C48.9583 27.3229 46.0558 30.6443 44.3142 31.1677C42.5726 31.6911 44.8947 32.9188 43.5433 34.1369C42.1919 35.3646 44.514 36.9348 44.8947 39.3806C45.2183 41.4362 45.9511 47.289 46.6363 49.6397C46.7695 50.0869 46.8932 50.4295 47.017 50.5628C47.7878 51.4383 48.7585 55.8636 49.5294 55.5115V55.521Z" fill="#534D46"/>
<path d="M87.0321 85.5752C88.9354 88.9822 89.0401 91.0664 90.3819 92.0656C91.6572 93.0078 81.1412 93.7596 80.0087 93.8357C80.0087 93.8548 79.9897 93.8833 79.9802 93.9023L87.3461 99.4696C87.3461 99.4696 80.9413 108.196 77.5058 113.307C76.2972 115.106 73.2804 120.283 71.5959 123.242C71.1201 124.08 70.1875 125.831 69.1406 127.791C79.1522 127.021 88.5167 123.966 96.7011 119.122C97.7384 106.541 100.66 89.5627 106.342 90.5429C104.086 89.5817 97.786 88.3255 93.5225 86.5935C89.8395 85.0994 86.9084 83.2151 85.0811 83.1865C85.7759 83.8337 86.4801 84.614 87.0225 85.5847L87.0321 85.5752Z" fill="#191819"/>
<path d="M80.5535 80.2832C80.6677 80.3688 80.7914 80.483 80.9151 80.6353C81.2102 81.0064 81.4861 81.587 81.4385 82.5101C81.4385 82.6338 81.4766 82.8337 81.5052 83.1382C81.6099 84.1755 81.5623 86.412 78.6977 90.6184C76.8705 93.3021 72.8354 105.522 69.5522 116.751C68.3816 120.767 67.3062 124.65 66.4688 127.933C67.3633 127.905 68.2579 127.848 69.1429 127.781C70.1898 125.821 71.1224 124.06 71.5983 123.232C73.2827 120.272 76.309 115.095 77.5081 113.297C80.9437 108.186 87.3484 99.4594 87.3484 99.4594L79.9825 93.8921L79.9064 93.835C79.9064 93.835 79.9444 93.835 80.011 93.835C81.153 93.7589 91.6595 93.007 90.3843 92.0649C89.0424 91.0656 88.9377 88.9815 87.0344 85.5745C86.4919 84.6038 85.7877 83.8234 85.093 83.1763C84.1413 82.3007 83.2087 81.6821 82.7233 81.2729C81.391 80.1404 80.6011 80.0643 80.3441 80.0833C80.287 80.0833 80.2395 80.0929 80.2395 80.0929C80.2395 80.0929 80.3727 80.1499 80.544 80.2832H80.5535Z" fill="black"/>
<path d="M33.3896 120.101C41.2885 124.45 50.2056 127.163 59.6938 127.829C58.666 125.516 57.8856 123.784 57.5716 123.242C55.8871 120.282 52.8608 115.105 51.6617 113.306C48.2261 108.196 41.8214 99.4689 41.8214 99.4689L49.273 93.8445C49.273 93.8445 37.4437 93.0641 38.7855 92.0649C40.1274 91.0656 40.2321 88.9814 42.1355 85.5744C42.6969 84.5752 43.4297 83.7758 44.1435 83.1191C42.3353 83.6521 39.8514 85.1176 36.8727 86.3263C32.1714 88.2391 24.9958 89.5715 23.4922 90.5612C29.4401 89.1432 32.4189 107.311 33.3896 120.101Z" fill="#222123"/>
<path d="M42.12 85.5752C40.2167 88.9822 40.112 91.0663 38.7702 92.0656C37.4283 93.0648 49.2576 93.8452 49.2576 93.8452L41.806 99.4696C41.806 99.4696 48.2108 108.196 51.6463 113.307C52.8549 115.106 55.8717 120.283 57.5562 123.242C57.8607 123.785 58.6506 125.517 59.6784 127.829C60.9251 127.915 62.1718 127.972 63.4375 127.982C62.2669 124.127 61.0107 120.073 59.745 116.124C55.8717 104.038 51.9413 92.8079 50.4662 90.6285C47.4684 86.2223 47.5541 83.9764 47.6778 83.0057C47.7064 82.7868 47.7349 82.625 47.7254 82.5203C47.6873 81.7114 47.8967 81.1594 48.1536 80.7883C48.3725 80.4647 48.6105 80.2839 48.7627 80.1887C48.8484 80.1316 48.915 80.103 48.915 80.103C48.915 80.103 48.8865 80.103 48.8579 80.103C48.6485 80.084 47.8491 80.103 46.4406 81.2926C45.9743 81.6923 45.0702 82.2919 44.1376 83.1294C43.4143 83.786 42.6815 84.5854 42.1296 85.5847L42.12 85.5752Z" fill="black"/>
<path d="M33.386 120.102C32.4153 107.311 29.4366 89.1531 23.4886 90.5616C23.2412 90.6187 22.9937 90.7139 22.7463 90.8376C21.3759 91.5133 19.996 98.6318 18.2734 108.548C22.6987 113.107 27.7902 117.018 33.3955 120.111L33.386 120.102Z" fill="black"/>
<path d="M96.7031 119.121C102.213 115.857 107.21 111.803 111.502 107.102C109.893 97.9466 108.58 91.4752 107.276 90.8376C106.962 90.6853 106.648 90.5996 106.353 90.5425C100.672 89.5623 97.75 106.54 96.7127 119.121H96.7031Z" fill="black"/>
</svg>
