<svg width="70" height="65" viewBox="0 0 70 65" fill="none" xmlns="http://www.w3.org/2000/svg">
<path d="M8.68123 35.8076C6.43785 35.8076 4.60156 37.7778 4.60156 40.2068C4.60156 42.6357 6.42868 44.6059 8.68123 44.6059C10.9338 44.6059 12.7609 42.6357 12.7609 40.2068C12.7609 37.7778 10.9338 35.8076 8.68123 35.8076ZM8.68123 43.2793C7.10507 43.2793 5.82578 41.8966 5.82578 40.2003C5.82578 38.5007 7.10813 37.1212 8.68123 37.1212C10.2574 37.1212 11.5367 38.504 11.5367 40.2003C11.5367 41.8998 10.2543 43.2793 8.68123 43.2793Z" fill="#C69815"/>
<path d="M6.38725 49.3452C5.23645 49.3452 4.29688 50.3584 4.29688 51.5993C4.29688 52.8402 5.23645 53.8534 6.38725 53.8534C7.53805 53.8534 8.47762 52.8402 8.47762 51.5993C8.47762 50.3584 7.53805 49.3452 6.38725 49.3452ZM6.38725 52.5299C5.91286 52.5299 5.52109 52.1075 5.52109 51.5959C5.52109 51.0843 5.91284 50.6619 6.38725 50.6619C6.86166 50.6619 7.2534 51.0843 7.2534 51.5959C7.2534 52.1075 6.86166 52.5299 6.38725 52.5299Z" fill="#C69815"/>
<path d="M17.9446 46.2096H50.108C50.7538 46.2096 51.3077 45.8136 51.5526 45.1701C51.7975 44.5265 51.675 43.8235 51.219 43.3318L48.0024 39.8303C47.43 39.2066 46.6404 38.8535 45.8325 38.8535H22.2202C21.4123 38.8535 20.6195 39.2132 20.0411 39.8303L16.8245 43.3318C16.3685 43.8236 16.246 44.5298 16.4909 45.1701C16.7357 45.8136 17.2897 46.2096 17.9355 46.2096H17.9446ZM17.6998 44.2559L20.9164 40.7544C21.2592 40.3848 21.7336 40.1637 22.2233 40.1637H45.8356C46.3253 40.1637 46.7997 40.3749 47.1425 40.7544L50.3591 44.2559C50.506 44.4143 50.457 44.5892 50.4326 44.6618C50.4081 44.7312 50.3193 44.8896 50.1143 44.8896H17.9446C17.7396 44.8896 17.6508 44.7312 17.6263 44.6618C17.6019 44.5925 17.5529 44.4143 17.6998 44.2559Z" fill="#C69815"/>
<path d="M53.5027 47.53C47.3082 48.6026 36.2815 48.7181 34.0226 48.7346C31.7609 48.7247 20.7369 48.6026 14.5425 47.53C13.9304 47.4244 13.3091 47.6093 12.8439 48.0416C12.3787 48.4739 12.1094 49.0976 12.1094 49.7676C12.1094 50.497 12.443 51.1933 12.9908 51.6157L15.4882 53.5265C16.6543 54.4242 18.0254 54.9621 19.4301 55.0843C24.9483 55.5595 31.3205 55.6552 33.5817 55.675H33.6062H34.0224H34.4386H34.4631C36.7248 55.6585 43.0973 55.5595 48.6146 55.0843C50.0256 54.9622 51.3906 54.4242 52.5566 53.5265L55.054 51.6157C55.6079 51.1933 55.9354 50.497 55.9354 49.7676C55.9354 49.0977 55.6661 48.474 55.2009 48.0416C54.7357 47.6092 54.1149 47.4244 53.5027 47.53ZM54.3444 50.5398L51.847 52.4506C50.8584 53.2064 49.7015 53.6651 48.5079 53.7707C42.6225 54.2822 35.7518 54.3515 34.0226 54.3614C32.2842 54.3515 25.4136 54.2822 19.5373 53.7707C18.3468 53.6651 17.196 53.2163 16.1983 52.4506L13.7009 50.5398C13.4714 50.3649 13.3336 50.0745 13.3336 49.7643C13.3336 49.4838 13.4407 49.2263 13.6427 49.0415C13.8386 48.8567 14.0926 48.7775 14.3528 48.8303C20.3025 49.86 30.5861 50.0184 33.5884 50.0448H33.6129H34.0292H34.4454H34.4699C37.4722 50.0184 47.7556 49.86 53.7055 48.8303C53.9657 48.7874 54.2197 48.8666 54.4156 49.0415C54.6114 49.2263 54.7247 49.4805 54.7247 49.7643C54.7247 50.0712 54.587 50.3616 54.3574 50.5398H54.3444Z" fill="#C69815"/>
<path d="M63.4562 40.2107C63.4562 37.7916 61.6291 35.8115 59.3765 35.8115C57.124 35.8115 55.2969 37.7817 55.2969 40.2107C55.2969 42.6396 57.124 44.6098 59.3765 44.6098C61.6291 44.6098 63.4562 42.6396 63.4562 40.2107ZM59.3765 43.2897C57.8004 43.2897 56.5211 41.907 56.5211 40.2107C56.5211 38.5111 57.8034 37.1316 59.3765 37.1316C60.9527 37.1316 62.232 38.5144 62.232 40.2107C62.232 41.9103 60.9496 43.2897 59.3765 43.2897Z" fill="#C69815"/>
<path d="M61.6685 49.3452C60.5177 49.3452 59.5781 50.3584 59.5781 51.5993C59.5781 52.8402 60.5177 53.8534 61.6685 53.8534C62.8193 53.8534 63.7589 52.8402 63.7589 51.5993C63.7589 50.3584 62.8193 49.3452 61.6685 49.3452ZM61.6685 52.5299C61.1941 52.5299 60.8023 52.1075 60.8023 51.5959C60.8023 51.0843 61.1941 50.6619 61.6685 50.6619C62.1429 50.6619 62.5347 51.0843 62.5347 51.5959C62.5347 52.1075 62.1429 52.5299 61.6685 52.5299Z" fill="#C69815"/>
<path d="M44.2168 26.0126L45.9797 24.1117L47.4243 24.2701L47.5712 25.8278L45.8083 27.7287C45.6522 27.8971 45.5972 28.1413 45.6523 28.3723C45.7104 28.6 45.8726 28.7782 46.0838 28.8376C46.4266 28.9333 46.7785 28.9861 47.1274 28.9861C48.1955 28.9861 49.2422 28.5373 50.0166 27.7024C50.3012 27.3954 50.5399 27.0522 50.7174 26.6727C51.2408 25.6331 51.3448 24.4384 51.0265 23.3097L53.4841 20.6597L60.5264 28.2535C60.8845 28.6396 61.3681 28.8607 61.8823 28.8607C62.3965 28.8607 62.8769 28.6495 63.2381 28.2535C63.5962 27.8574 63.8013 27.3393 63.8013 26.8013C63.8013 26.2633 63.6054 25.7288 63.2381 25.3393L56.1958 17.7455L58.3596 15.4123C59.4032 15.7555 60.5142 15.64 61.4691 15.079C61.8211 14.8843 62.1394 14.6203 62.4241 14.3133C63.4432 13.2144 63.8533 11.584 63.4769 10.0792C63.4188 9.85148 63.2566 9.67327 63.0454 9.61387C62.8342 9.55116 62.6047 9.61387 62.4486 9.78218L60.6857 11.6831L59.2411 11.5247L59.0942 9.96695L60.8571 8.06603C61.0132 7.89772 61.0683 7.65351 61.0132 7.42249C60.955 7.19478 60.7928 7.01656 60.5816 6.95716C59.1861 6.55124 57.6772 6.99346 56.655 8.09247C56.3703 8.39939 56.1316 8.74261 55.9541 9.11221C55.4308 10.1518 55.3267 11.3563 55.645 12.4751L53.4812 14.8084L52.3212 13.5576L54.026 11.7193C54.1392 11.5972 54.2066 11.4289 54.2066 11.254C54.2066 11.0791 54.1423 10.9108 54.026 10.7887L53.7475 10.4884C54.6687 9.35305 54.6381 7.62051 53.6342 6.5446C52.6304 5.46217 51.0236 5.41925 49.9769 6.42249L49.6983 6.12217C49.4627 5.86805 49.0709 5.86805 48.8322 6.12217L43.5038 11.8678C43.0967 12.3068 42.8672 12.8975 42.8672 13.5212C42.8672 14.1449 43.0967 14.7357 43.5038 15.1746L45.6186 17.455C46.0257 17.8939 46.5735 18.1415 47.1519 18.1415C47.7303 18.1415 48.2782 17.8939 48.6852 17.455L49.6064 16.4682L50.7664 17.719L48.3088 20.3691C47.2652 20.0259 46.1542 20.1414 45.1993 20.7024C44.8473 20.9037 44.529 21.1611 44.2443 21.468C43.2252 22.567 42.8151 24.1973 43.1915 25.7022C43.2496 25.9299 43.4118 26.1081 43.623 26.1675C43.8342 26.2302 44.0637 26.1675 44.2198 25.9992L44.2168 26.0126ZM62.3689 26.2601C62.5005 26.402 62.574 26.5868 62.574 26.7881C62.574 26.9895 62.5005 27.1743 62.3689 27.3063C62.0996 27.5967 61.6589 27.5967 61.3895 27.3063L54.3472 19.7125L55.3174 18.6663L62.3597 26.2601L62.3689 26.2601ZM49.1873 15.0827L47.8315 16.5349C47.4734 16.921 46.8429 16.921 46.4848 16.5349L44.37 14.2544C44.1894 14.0597 44.0915 13.8056 44.0915 13.5317C44.0915 13.2578 44.1894 13.0036 44.37 12.8089L49.2669 7.52861L49.5362 7.81903C49.7718 8.07314 50.1636 8.07314 50.4023 7.81903L50.7115 7.48571C51.2746 6.87847 52.1958 6.87847 52.7681 7.48571C53.3313 8.09295 53.3313 9.08628 52.7681 9.70345L52.459 10.0368C52.2234 10.2909 52.2234 10.7133 52.459 10.9707L52.7283 11.2612L49.1873 15.0795V15.0827ZM50.485 15.548L51.4552 14.5019L52.6151 15.7527L51.6449 16.7989L50.485 15.548ZM45.1137 22.4026C45.3096 22.1914 45.5391 22.0165 45.7839 21.8746C46.543 21.4356 47.4397 21.3894 48.2415 21.7524C48.4711 21.8581 48.7312 21.7953 48.9118 21.6105L56.7867 13.1189C56.9673 12.9242 57.0163 12.6437 56.9183 12.3962C56.5847 11.525 56.6245 10.5645 57.0408 9.73955C57.1632 9.48543 57.3346 9.23792 57.5305 9.0267C57.9467 8.57787 58.47 8.29736 59.024 8.18185L58.0354 9.25439C57.9038 9.3963 57.8395 9.58771 57.8548 9.78242L58.0752 12.185C58.1089 12.4919 58.3292 12.7394 58.623 12.7758L60.8603 13.0233C61.047 13.0398 61.2276 12.9705 61.35 12.8286L62.3447 11.756C62.2375 12.3533 61.9682 12.9276 61.5612 13.3665C61.3653 13.5777 61.1357 13.7526 60.8909 13.8945C60.1319 14.3334 59.2412 14.3796 58.4333 14.0166C58.2038 13.911 57.9436 13.9737 57.763 14.1585L54.9076 17.2376H54.8984C54.8892 17.2376 54.8984 17.2376 54.8984 17.2475L53.0774 19.2111H53.0682C53.059 19.2111 53.0682 19.2111 53.0682 19.221L49.9098 22.6268C49.7384 22.8116 49.6802 23.102 49.7782 23.3495C50.1118 24.2207 50.072 25.1877 49.6649 25.9995C49.5333 26.2636 49.3711 26.5111 49.1752 26.7223C48.759 27.1711 48.2357 27.4516 47.6817 27.5671L48.6703 26.5012C48.8019 26.3593 48.8662 26.1679 48.8509 25.9732L48.6213 23.5607C48.5877 23.2538 48.3612 23.0063 48.0735 22.97L45.8454 22.7323H45.7872C45.625 22.7323 45.4689 22.8016 45.3557 22.927L44.3671 23.993C44.4743 23.3957 44.7436 22.8214 45.1506 22.3825L45.1137 22.4026Z" fill="#C69815"/>
<path d="M65.2807 34.1637L62.4986 31.9988C66.9946 28.9197 70 23.5139 70 17.3558C70 7.78869 62.7771 0 53.9046 0C45.0321 0 38.3569 7.23405 37.8586 16.3259L18.8987 16.3226C17.2001 16.3226 15.6423 17.3094 14.819 18.8935L10.4456 27.2628C10.4456 27.2628 10.4303 27.2892 10.4211 27.2991C9.75081 25.0121 7.76149 23.3487 5.4171 23.3487H5.09881C3.48284 23.3487 2.16986 24.7645 2.16986 26.507C2.16986 28.2495 3.48284 29.6653 5.09881 29.6653H8.51133C8.43788 29.728 8.36443 29.7973 8.29097 29.8667L2.78204 34.1702C1.03445 35.5266 0 37.7245 0 40.0478V49.8261V49.836V59.6042C0 62.5777 2.24339 65 5.00397 65C6.35064 65 7.60847 64.4357 8.54498 63.4159C9.48455 62.4028 10.0049 61.0497 10.0049 59.6042V58.9805H58.0584V59.6042C58.0584 61.0464 58.5817 62.4028 59.5274 63.4159C60.467 64.4356 61.7218 65 63.0623 65C65.8198 65 68.0663 62.5809 68.0663 59.6042V49.8884V49.8356V40.0505C68.0663 37.7272 67.0288 35.5358 65.2842 34.1729L65.2807 34.1637ZM53.9043 1.30994C62.1067 1.30994 68.7751 8.50107 68.7751 17.3452C68.7751 26.1894 62.1062 33.3805 53.9043 33.3805C45.7024 33.3805 39.0335 26.1894 39.0335 17.3452C39.0335 8.50107 45.7024 1.30994 53.9043 1.30994ZM10.4687 29.4807L10.5024 29.4444C10.5024 29.4444 10.5116 29.4345 10.5177 29.4279C10.9003 28.9428 11.2369 28.4345 11.5124 27.9131L15.8858 19.5438C16.498 18.3722 17.6487 17.6429 18.9066 17.6429H37.8328C37.9062 22.3787 39.7426 26.6456 42.6654 29.7344H10.2388C10.3122 29.6453 10.3949 29.5661 10.4591 29.4803L10.4687 29.4807ZM5.10664 28.3355C4.16707 28.3355 3.40191 27.5071 3.40191 26.4973C3.40191 25.4841 4.1701 24.659 5.10664 24.659H5.42494C7.43265 24.659 9.09758 26.253 9.40056 28.3289H5.11577L5.10664 28.3355ZM8.77929 59.5849C8.77929 60.6773 8.38754 61.697 7.67753 62.4626C6.96749 63.2382 6.02177 63.6606 4.99954 63.6606C2.91841 63.6606 1.21979 61.829 1.21979 59.5849V54.5158C2.70412 57.1724 5.3974 58.9611 8.47631 58.9611H8.7793L8.77929 59.5849ZM66.8404 59.5849C66.8404 61.829 65.1418 63.6606 63.0606 63.6606C62.0476 63.6606 61.1019 63.2382 60.3919 62.4626C59.6727 61.697 59.2809 60.6772 59.2809 59.5849V58.9611H59.5839C62.6597 58.9611 65.353 57.1823 66.8404 54.5257L66.8404 59.5849ZM66.8404 49.8066V49.8165V49.8693C66.8159 54.1628 63.5748 57.6412 59.5839 57.6412H8.47631C4.47616 57.6412 1.21979 54.1299 1.21979 49.8165V40.0314C1.21979 38.1305 2.06753 36.3352 3.49679 35.2263L8.84353 31.0449H44.061C46.7879 33.3254 50.1912 34.6884 53.8947 34.6884C56.5788 34.6884 59.1006 33.9656 61.3287 32.7082L64.5515 35.2164C65.9807 36.3253 66.8285 38.1206 66.8285 40.0215V49.7998L66.8404 49.8066Z" fill="#C69815"/>
</svg>
