<svg width="100" height="100" viewBox="0 0 100 100" fill="none" xmlns="http://www.w3.org/2000/svg">
<rect width="100" height="100" rx="50" fill="#EEF2F6"/>
<path fill-rule="evenodd" clip-rule="evenodd" d="M49.9971 27.6055C62.3659 27.6055 72.3926 37.6321 72.3926 50.001C72.3926 62.3699 62.3659 72.3965 49.9971 72.3965C37.6282 72.3965 27.6016 62.3699 27.6016 50.001C27.6016 37.6321 37.6282 27.6055 49.9971 27.6055ZM49.9971 30.7305C39.3541 30.7305 30.7266 39.358 30.7266 50.001C30.7266 60.644 39.3541 69.2715 49.9971 69.2715C60.6401 69.2715 69.2676 60.644 69.2676 50.001C69.2676 39.358 60.6401 30.7305 49.9971 30.7305ZM49.9971 40.1055C50.86 40.1055 51.5596 40.805 51.5596 41.668V49.3535L55.2686 53.0625C55.8787 53.6727 55.8787 54.6623 55.2686 55.2725C54.6584 55.8827 53.6688 55.8827 53.0586 55.2725L48.8926 51.1055C48.5996 50.8124 48.4346 50.4154 48.4346 50.001V41.668C48.4346 40.805 49.1341 40.1055 49.9971 40.1055Z" fill="#4B5565"/>
</svg>
