<svg width="121" height="146" viewBox="0 0 121 146" fill="none" xmlns="http://www.w3.org/2000/svg">
<path d="M111.246 111.957H9.75V141.808H111.246V111.957Z" fill="#E9E5D9"/>
<path d="M60.5058 7.46283H18.2109V108.218H60.5058V7.46283Z" fill="#E9E5D9"/>
<path d="M18.2109 18.6569L60.5058 55.9781V59.7095L18.2109 22.3883V18.6569Z" fill="#D8D0BC"/>
<path d="M18.2109 33.5834L60.5058 70.9047V85.8303L18.2109 48.5162V33.5834Z" fill="#D8D0BC"/>
<path d="M60.5058 108.225L18.2109 70.9036V108.225H60.5058Z" fill="#D8D0BC"/>
<path d="M60.5058 7.46283V44.7841L18.2109 7.46283H60.5058Z" fill="#D8D0BC"/>
<path d="M102.795 22.388H60.5V108.218H102.795V22.388Z" fill="#D8D0BC"/>
<path d="M115.477 108.225H5.52344V111.956H115.477V108.225Z" fill="#E9E5D9"/>
<path d="M111.246 111.957H9.75V115.688H111.246V111.957Z" fill="#F1F2F2"/>
<path d="M64.7308 119.419H56.2734V141.807H64.7308V119.419Z" fill="#4F3D08"/>
<path d="M58.3838 121.281H64.7308V119.419H56.2734V141.807H58.3838V121.281Z" fill="#E6E7E8"/>
<path d="M52.0355 119.419H43.5781V141.808H52.0355V119.419Z" fill="#4F3D08"/>
<path d="M45.6965 121.282H52.0355V119.419H43.5781V141.808H45.6965V121.282Z" fill="#E6E7E8"/>
<path d="M39.348 119.419H30.8906V141.808H39.348V119.419Z" fill="#4F3D08"/>
<path d="M33.009 121.282H39.348V119.419H30.8906V141.808H33.009V121.282Z" fill="#E6E7E8"/>
<path d="M26.6683 119.419H18.2109V141.807H26.6683V119.419Z" fill="#4F3D08"/>
<path d="M20.3293 121.281H26.6683V119.419H18.2109V141.807H20.3293V121.281Z" fill="#E6E7E8"/>
<path d="M77.4183 119.419H68.9609V141.807H77.4183V119.419Z" fill="#4F3D08"/>
<path d="M71.0713 121.281H77.4183V119.419H68.9609V141.807H71.0713V121.281Z" fill="#E6E7E8"/>
<path d="M90.1058 119.419H81.6484V141.807H90.1058V119.419Z" fill="#4F3D08"/>
<path d="M83.7588 121.281H90.1058V119.419H81.6484V141.807H83.7588V121.281Z" fill="#E6E7E8"/>
<path d="M102.785 119.419H94.3281V141.808H102.785V119.419Z" fill="#4F3D08"/>
<path d="M96.4465 121.282H102.785V119.419H94.3281V141.808H96.4465V121.282Z" fill="#E6E7E8"/>
<path d="M26.6662 7.46283H22.4375V108.218H26.6662V7.46283Z" fill="#F1F2F2"/>
<path d="M35.1193 7.46283H30.8906V108.218H35.1193V7.46283Z" fill="#F1F2F2"/>
<path d="M43.5802 7.46283H39.3516V108.218H43.5802V7.46283Z" fill="#F1F2F2"/>
<path d="M52.0412 7.46283H47.8125V108.218H52.0412V7.46283Z" fill="#F1F2F2"/>
<path d="M60.5021 7.46283H56.2734V108.218H60.5021V7.46283Z" fill="#F1F2F2"/>
<path d="M64.7287 22.388H60.5V108.218H64.7287V22.388Z" fill="#E6E7E8"/>
<path d="M73.1896 26.1194H68.9609V29.8508H73.1896V26.1194Z" fill="#4F3D08"/>
<path d="M81.6506 26.1193H77.4219V29.8507H81.6506V26.1193Z" fill="#4F3D08"/>
<path d="M90.1037 26.1193H85.875V29.8507H90.1037V26.1193Z" fill="#4F3D08"/>
<path d="M98.5568 26.1194H94.3281V29.8508H98.5568V26.1194Z" fill="#4F3D08"/>
<path d="M73.1896 33.5824H68.9609V37.3138H73.1896V33.5824Z" fill="#4F3D08"/>
<path d="M81.6506 33.5824H77.4219V37.3138H81.6506V33.5824Z" fill="#4F3D08"/>
<path d="M90.1037 33.5824H85.875V37.3138H90.1037V33.5824Z" fill="#4F3D08"/>
<path d="M98.5568 33.5824H94.3281V37.3138H98.5568V33.5824Z" fill="#4F3D08"/>
<path d="M73.1896 41.0529H68.9609V44.7843H73.1896V41.0529Z" fill="#4F3D08"/>
<path d="M81.6506 41.0529H77.4219V44.7843H81.6506V41.0529Z" fill="#4F3D08"/>
<path d="M90.1037 41.0529H85.875V44.7843H90.1037V41.0529Z" fill="#4F3D08"/>
<path d="M98.5568 41.0529H94.3281V44.7843H98.5568V41.0529Z" fill="#4F3D08"/>
<path d="M73.1896 48.5155H68.9609V52.2469H73.1896V48.5155Z" fill="#4F3D08"/>
<path d="M81.6506 48.5156H77.4219V52.247H81.6506V48.5156Z" fill="#4F3D08"/>
<path d="M90.1037 48.5156H85.875V52.247H90.1037V48.5156Z" fill="#4F3D08"/>
<path d="M98.5568 48.5155H94.3281V52.2469H98.5568V48.5155Z" fill="#4F3D08"/>
<path d="M73.1896 55.978H68.9609V59.7094H73.1896V55.978Z" fill="#4F3D08"/>
<path d="M81.6506 55.978H77.4219V59.7094H81.6506V55.978Z" fill="#4F3D08"/>
<path d="M90.1037 55.978H85.875V59.7094H90.1037V55.978Z" fill="#4F3D08"/>
<path d="M98.5568 55.978H94.3281V59.7094H98.5568V55.978Z" fill="#4F3D08"/>
<path d="M73.1896 63.4408H68.9609V67.1722H73.1896V63.4408Z" fill="#4F3D08"/>
<path d="M81.6506 63.4409H77.4219V67.1723H81.6506V63.4409Z" fill="#4F3D08"/>
<path d="M90.1037 63.4409H85.875V67.1723H90.1037V63.4409Z" fill="#4F3D08"/>
<path d="M98.5568 63.4408H94.3281V67.1722H98.5568V63.4408Z" fill="#4F3D08"/>
<path d="M73.1896 70.9037H68.9609V74.6351H73.1896V70.9037Z" fill="#4F3D08"/>
<path d="M81.6506 70.9036H77.4219V74.635H81.6506V70.9036Z" fill="#4F3D08"/>
<path d="M90.1037 70.9036H85.875V74.635H90.1037V70.9036Z" fill="#4F3D08"/>
<path d="M98.5568 70.9037H94.3281V74.6351H98.5568V70.9037Z" fill="#4F3D08"/>
<path d="M73.1896 78.3665H68.9609V82.0979H73.1896V78.3665Z" fill="#4F3D08"/>
<path d="M81.6506 78.3665H77.4219V82.0979H81.6506V78.3665Z" fill="#4F3D08"/>
<path d="M90.1037 78.3665H85.875V82.0979H90.1037V78.3665Z" fill="#4F3D08"/>
<path d="M98.5568 78.3665H94.3281V82.0979H98.5568V78.3665Z" fill="#4F3D08"/>
<path d="M71.0793 85.8303H68.9609V104.487H71.0793V85.8303Z" fill="#E6E7E8"/>
<path d="M79.5402 85.8303H77.4219V104.487H79.5402V85.8303Z" fill="#E6E7E8"/>
<path d="M87.9934 85.8289H85.875V104.486H87.9934V85.8289Z" fill="#E6E7E8"/>
<path d="M96.4465 85.8289H94.3281V104.486H96.4465V85.8289Z" fill="#E6E7E8"/>
<path d="M98.5639 18.6569H64.7344V22.3883H98.5639V18.6569Z" fill="#E9E5D9"/>
<path d="M94.3331 14.9255H68.9609V18.657H94.3331V14.9255Z" fill="#D8D0BC"/>
<path d="M56.267 3.73138H22.4375V7.4628H56.267V3.73138Z" fill="#E9E5D9"/>
<path d="M52.044 0H26.6719V3.73141H52.044V0Z" fill="#D8D0BC"/>
<path d="M118.224 141.808H2.78125V143.904H118.224V141.808Z" fill="#E9E5D9"/>
<path d="M120.5 143.904H0.5V146H120.5V143.904Z" fill="#4F3D08"/>
</svg>
