<svg width="500" height="464" viewBox="0 0 500 464" fill="none" xmlns="http://www.w3.org/2000/svg">
<path d="M230.71 404.17C311.764 404.17 377.475 338.459 377.475 257.116C377.475 175.773 311.474 110.062 230.71 110.062C149.657 110.062 83.9453 175.773 83.9453 257.116C83.9453 338.459 149.657 404.17 230.71 404.17Z" fill="#F1F3FA" stroke="#D5DAE5" stroke-width="2.48981" stroke-miterlimit="10"/>
<path d="M249.123 310.431H216.507C208.95 310.431 202.586 317.402 202.586 325.681V343.546C202.586 361.846 216.11 376.661 232.815 376.661C249.521 376.661 263.045 361.846 263.045 343.546V325.681C263.045 316.967 256.681 310.431 249.123 310.431Z" fill="white" stroke="#D5DAE5" stroke-width="2.48981" stroke-miterlimit="10"/>
<path fill-rule="evenodd" clip-rule="evenodd" d="M213.614 139.251V136.206C213.614 127.06 220.773 119.903 229.921 119.903C239.07 119.903 246.229 127.06 246.229 136.206V139.253C278.141 146.637 301.91 175.217 301.91 209.371V218.516C301.91 295.657 359.983 346.156 359.983 346.156H99.4532C99.4532 346.156 157.923 295.657 157.923 218.516V209.371C157.923 175.213 181.697 146.631 213.614 139.251Z" fill="white"/>
<path d="M213.614 139.251L213.894 140.464L214.858 140.24V139.251H213.614ZM246.229 139.253H244.985V140.243L245.949 140.466L246.229 139.253ZM359.983 346.156V347.401H363.311L360.799 345.217L359.983 346.156ZM99.4532 346.156L98.6395 345.214L96.1073 347.401H99.4532V346.156ZM213.614 139.251H214.858V136.206H213.614H212.369V139.251H213.614ZM213.614 136.206H214.858C214.858 127.748 221.46 121.148 229.921 121.148V119.903V118.658C220.086 118.658 212.369 126.372 212.369 136.206H213.614ZM229.921 119.903V121.148C238.383 121.148 244.985 127.748 244.985 136.206H246.229H247.474C247.474 126.372 239.757 118.658 229.921 118.658V119.903ZM246.229 136.206H244.985V139.253H246.229H247.474V136.206H246.229ZM301.91 209.371H303.155C303.155 174.624 278.973 145.551 246.51 138.04L246.229 139.253L245.949 140.466C277.308 147.722 300.665 175.809 300.665 209.371H301.91ZM301.91 218.516H303.155V209.371H301.91H300.665V218.516H301.91ZM359.983 346.156C360.799 345.217 360.8 345.217 360.799 345.217C360.799 345.217 360.799 345.216 360.798 345.216C360.797 345.215 360.795 345.213 360.792 345.21C360.786 345.205 360.776 345.196 360.763 345.185C360.737 345.162 360.697 345.127 360.644 345.08C360.538 344.985 360.379 344.842 360.17 344.651C359.753 344.27 359.137 343.697 358.351 342.94C356.78 341.424 354.53 339.169 351.826 336.219C346.419 330.32 339.204 321.65 331.989 310.584C317.555 288.445 303.155 256.77 303.155 218.516H301.91H300.665C300.665 257.403 315.302 289.548 329.904 311.944C337.207 323.145 344.51 331.922 349.991 337.902C352.732 340.892 355.018 343.184 356.623 344.732C357.425 345.506 358.057 346.093 358.491 346.489C358.707 346.687 358.874 346.837 358.988 346.939C359.045 346.989 359.088 347.028 359.118 347.054C359.133 347.067 359.144 347.077 359.152 347.084C359.156 347.087 359.159 347.09 359.162 347.092C359.163 347.093 359.164 347.094 359.164 347.094C359.165 347.095 359.166 347.096 359.983 346.156ZM99.4532 346.156V347.401H359.983V346.156V344.911H99.4532V346.156ZM157.923 218.516H156.678C156.678 256.768 142.181 288.442 127.648 310.581C120.383 321.647 113.119 330.316 107.674 336.216C104.952 339.165 102.687 341.421 101.104 342.937C100.313 343.694 99.6936 344.267 99.2732 344.648C99.063 344.839 98.9028 344.982 98.796 345.077C98.7426 345.124 98.7025 345.159 98.6763 345.182C98.6632 345.194 98.6535 345.202 98.6474 345.207C98.6443 345.21 98.6421 345.212 98.6408 345.213C98.6401 345.214 98.6398 345.214 98.6395 345.214C98.6394 345.214 98.6395 345.214 99.4532 346.156C100.267 347.098 100.268 347.098 100.268 347.097C100.269 347.097 100.27 347.096 100.271 347.095C100.273 347.093 100.276 347.09 100.28 347.087C100.288 347.08 100.3 347.07 100.315 347.057C100.345 347.03 100.389 346.992 100.446 346.941C100.56 346.84 100.729 346.69 100.947 346.492C101.383 346.096 102.019 345.508 102.827 344.735C104.442 343.187 106.744 340.895 109.504 337.905C115.022 331.925 122.376 323.148 129.729 311.947C144.431 289.552 159.168 257.406 159.168 218.516H157.923ZM157.923 209.371H156.678V218.516H157.923H159.168V209.371H157.923ZM213.614 139.251L213.333 138.038C180.865 145.546 156.678 174.621 156.678 209.371H157.923H159.168C159.168 175.806 182.53 147.716 213.894 140.464L213.614 139.251Z" fill="#D5DAE5"/>
<path d="M199.697 249.928C189.753 249.928 181.4 243.566 178.218 234.421C177.422 232.432 178.616 230.444 180.604 229.649C182.593 228.854 184.582 230.047 185.378 232.035C187.366 237.999 193.333 242.373 199.697 242.373C206.061 242.373 212.027 238.397 214.016 232.035C214.811 230.047 216.8 228.854 218.789 229.649C220.778 230.444 221.971 232.432 221.175 234.421C217.993 243.964 209.641 249.928 199.697 249.928Z" fill="#AAB2C5"/>
<path d="M259.759 249.928C249.815 249.928 241.462 243.566 238.28 234.421C237.485 232.432 238.678 230.444 240.667 229.649C242.656 228.854 244.644 230.047 245.44 232.035C247.429 237.999 253.395 242.373 259.759 242.373C266.123 242.373 272.09 238.397 274.078 232.035C274.874 230.047 276.863 228.854 278.851 229.649C280.84 230.444 282.033 232.432 281.238 234.421C278.056 243.964 269.703 249.928 259.759 249.928Z" fill="#AAB2C5"/>
<path d="M229.922 298.616C234.974 298.616 239.07 294.522 239.07 289.471C239.07 284.42 234.974 280.325 229.922 280.325C224.869 280.325 220.773 284.42 220.773 289.471C220.773 294.522 224.869 298.616 229.922 298.616Z" fill="#AAB2C5"/>
<path d="M278.938 74.2493V60.7896H330.957V74.2493L295.461 117.076H331.569V130.535H277.102V117.076L312.597 74.2493H278.938Z" fill="#AAB2C5"/>
<path d="M321.779 175.197V166.631H355.438V175.197L332.795 202.728H356.05V211.293H320.555V202.728L343.198 175.197H321.779Z" fill="#AAB2C5"/>
<path d="M442.549 386.992C474.277 355.264 474.277 303.822 442.549 272.094C410.821 240.366 359.38 240.366 327.652 272.094C295.924 303.822 295.924 355.264 327.652 386.992C359.38 418.719 410.821 418.719 442.549 386.992Z" fill="white"/>
<path d="M385.099 408.087C428.477 408.087 463.642 372.921 463.642 329.543C463.642 286.164 428.477 250.999 385.099 250.999C341.72 250.999 306.555 286.164 306.555 329.543C306.555 372.921 341.72 408.087 385.099 408.087Z" fill="#E3E8EF"/>
<path d="M430.394 378.259C456.355 352.299 456.355 310.208 430.394 284.247C404.433 258.286 362.342 258.286 336.381 284.247C310.421 310.208 310.42 352.299 336.381 378.26C362.342 404.22 404.433 404.22 430.394 378.259Z" fill="white"/>
<path d="M405.549 298.529C405.549 310.868 395.546 324.188 383.208 324.188C370.869 324.188 360.867 310.868 360.867 298.529C360.867 286.191 370.869 277.437 383.208 277.437C395.546 277.437 405.549 286.191 405.549 298.529Z" fill="#3E0AB9"/>
<path d="M355.489 371.692H410.026C415.767 371.692 420.85 367.982 422.599 362.514L425.534 353.341C427.683 346.625 424.189 339.354 417.567 336.933C395.372 328.818 372.422 329.859 348.912 337.682C342.326 339.873 338.671 346.918 340.488 353.617L342.748 361.947C344.308 367.699 349.529 371.692 355.489 371.692Z" fill="#3E0AB9"/>
<path d="M336.317 383.324L328.406 374.578L435.142 275.228L443.301 282.719L336.317 383.324Z" fill="#E3E8EF"/>
<path d="M449.873 297.745C449.998 297.745 450.126 297.717 450.246 297.656C450.655 297.449 450.819 296.95 450.612 296.542C438.055 271.663 412.954 256.208 385.105 256.208C380.664 256.208 376.213 256.608 371.877 257.399C371.426 257.481 371.127 257.913 371.209 258.364C371.291 258.816 371.721 259.117 372.174 259.031C376.413 258.259 380.763 257.868 385.105 257.868C412.324 257.868 436.857 272.973 449.131 297.289C449.277 297.578 449.569 297.745 449.873 297.745Z" fill="white"/>
</svg>
