<svg width="70" height="65" viewBox="0 0 70 65" fill="none" xmlns="http://www.w3.org/2000/svg">
<path d="M66.5323 47.635C67.0503 47.635 67.4636 47.2098 67.4574 46.6915C67.4389 45.3693 67.1737 44.0844 66.668 42.874C66.4706 42.3991 65.9279 42.1756 65.4592 42.3743C64.9873 42.5729 64.7653 43.1191 64.9627 43.5909C65.3759 44.584 65.5918 45.6331 65.6072 46.7193C65.6134 47.2283 66.0266 47.638 66.5323 47.638L66.5323 47.635Z" fill="#C69815"/>
<path d="M57.5648 36.5363C57.5032 36.53 54.1542 36.5083 53.9938 36.5083C53.4819 36.5052 53.0656 36.918 53.0625 37.4332C53.0594 37.9484 53.4696 38.3675 53.9815 38.3706C54.1234 38.3768 57.5032 38.3892 57.534 38.3985C58.7305 38.3706 58.7644 36.6046 57.5648 36.5363Z" fill="#C69815"/>
<path d="M49.7969 56.229C49.7969 56.7442 50.2101 57.1601 50.722 57.1601H54.2684C54.7803 57.1601 55.1936 56.7442 55.1936 56.229C55.1936 55.7138 54.7803 55.2979 54.2684 55.2979H50.722C50.2101 55.2979 49.7969 55.7137 49.7969 56.229Z" fill="#C69815"/>
<path d="M50.681 17.6787H47.1347C45.9134 17.7097 45.9134 19.5099 47.1347 19.5409H50.681C51.9022 19.5099 51.9022 17.7098 50.681 17.6787Z" fill="#C69815"/>
<path d="M50.4388 38.3431C51.6539 38.3121 51.66 36.5181 50.445 36.4809L46.8986 36.4561C45.6774 36.4809 45.6651 38.2779 46.8863 38.3183C46.8925 38.3183 50.4327 38.3431 50.4388 38.3431Z" fill="#C69815"/>
<path d="M44.5119 18.6406C44.3978 18.1379 43.9013 17.8275 43.4017 17.9423C42.1281 18.2372 40.9347 18.7679 39.8584 19.5252C39.4391 19.8169 39.3342 20.4005 39.6272 20.8225C39.9201 21.2477 40.4999 21.347 40.9162 21.0553C41.7982 20.4377 42.7726 20.0001 43.815 19.7611C44.3145 19.6462 44.6229 19.1465 44.5088 18.6438L44.5119 18.6406Z" fill="#C69815"/>
<path d="M43.601 36.1825C42.5648 35.9156 41.6027 35.45 40.7331 34.8107C40.3198 34.5065 39.7401 34.5934 39.4379 35.0093C39.1357 35.4252 39.222 36.0056 39.6353 36.3128C40.7547 37.1166 42.0098 37.7715 43.3667 38.0167C44.4337 38.0167 44.6434 36.4587 43.5949 36.1855L43.601 36.1825Z" fill="#C69815"/>
<path d="M64.4631 39.5592C63.5565 38.6467 62.5079 37.9204 61.3423 37.4053C60.2136 36.9397 59.492 38.5847 60.596 39.1091C61.5519 39.5344 62.4155 40.1271 63.1556 40.8783C63.3406 41.0893 63.6058 41.2135 63.8679 41.2072C64.7129 41.2259 65.1199 40.1086 64.4662 39.5623L64.4631 39.5592Z" fill="#C69815"/>
<path d="M38.4294 22.0484C38.0039 21.7628 37.4303 21.8808 37.1466 22.3122C36.4219 23.4109 35.9254 24.6275 35.6602 25.9156C35.5554 26.4184 35.8822 26.9118 36.3818 27.0143C36.8691 27.1198 37.3748 26.797 37.4735 26.288C37.6893 25.2328 38.0964 24.2396 38.6885 23.3365C38.9722 22.9082 38.855 22.3309 38.4264 22.0453L38.4294 22.0484Z" fill="#C69815"/>
<path d="M56.888 56.2691C56.9188 56.7843 57.366 57.1753 57.8686 57.1381C59.1761 57.0543 60.4405 56.7223 61.6185 56.1574C62.0811 55.9339 62.2723 55.3815 62.0533 54.9159C61.8313 54.4504 61.2824 54.2579 60.8198 54.4783C59.8546 54.9438 58.8216 55.2139 57.7484 55.2852C57.2365 55.3163 56.851 55.7601 56.8849 56.2722L56.888 56.2691Z" fill="#C69815"/>
<path d="M37.4424 29.4846C37.1988 28.2804 35.4379 28.597 35.623 29.8105C35.8512 31.1078 36.3199 32.3307 37.0137 33.4511C37.2851 33.8918 37.8618 34.016 38.2904 33.749C38.7222 33.4759 38.8579 32.9017 38.5865 32.4641C38.0191 31.5486 37.6367 30.546 37.4455 29.4846L37.4424 29.4846Z" fill="#C69815"/>
<path d="M63.4335 53.8924C63.8097 54.24 64.3957 54.2182 64.741 53.8396C65.6291 52.8712 66.3199 51.7539 66.7824 50.528C66.9644 50.05 66.7269 49.51 66.2489 49.3238C65.774 49.1406 65.2375 49.3796 65.0524 49.8607C64.67 50.8663 64.1088 51.7788 63.3779 52.5733C63.0325 52.952 63.0541 53.5417 63.4303 53.8892L63.4335 53.8924Z" fill="#C69815"/>
<path d="M61.4097 0.0377468C55.0632 -0.548844 49.9532 5.80434 51.7697 11.9216C52.1552 13.5262 53.9623 16.2109 54.7209 17.682H54.2214C53.0002 17.7131 53.0002 19.5132 54.2214 19.5443H55.7725L58.0175 23.5231C55.3316 25.5219 57.3853 28.8832 60.7065 28.7931C64.0247 28.8832 66.0816 25.5219 63.3956 23.5231C63.4079 23.5045 68.6596 14.1873 68.6688 14.1691C69.6495 12.5365 70.0997 10.6557 69.9763 8.73769C69.6803 4.11634 66.0013 0.376775 61.4155 0.0351243L61.4097 0.0377468ZM60.7066 26.9312C59.2325 26.9064 57.9775 25.9691 59.029 25.0877C59.9048 25.9629 61.5084 25.9629 62.3811 25.0877C63.4357 25.9691 62.1776 26.9064 60.7035 26.9312H60.7066ZM67.0592 13.2469C67.0253 13.3121 61.2741 23.5107 61.234 23.5823C61.0767 23.8616 60.8115 23.8926 60.7035 23.8926C60.5956 23.8926 60.3335 23.8616 60.1731 23.5823C60.1639 23.5636 57.1263 18.1726 57.1171 18.1571C56.4325 16.8008 53.9007 12.8374 53.5522 11.4159C52.7813 8.75914 53.6139 5.74864 55.6461 3.87401C62.0542 -1.90188 71.3886 5.77939 67.0592 13.2469Z" fill="#C69815"/>
<path d="M60.7127 4.20264C53.9469 4.41989 53.953 14.2893 60.7127 14.507C67.4785 14.2897 67.4785 4.42034 60.7127 4.20264ZM60.7127 12.6446C56.3953 12.508 56.3953 6.20447 60.7127 6.06487C65.0331 6.20144 65.03 12.505 60.7127 12.6446Z" fill="#C69815"/>
<path d="M10.8451 64.9998C13.2536 64.9998 15.2642 63.2555 15.699 60.9588H31.5251C32.5983 66.3065 40.1625 66.3065 41.2393 60.9588H42.2816C43.5367 60.9588 44.5574 59.9315 44.5574 58.6684V57.16H47.1786C47.6905 57.16 48.1038 56.7441 48.1038 56.2289C48.1038 55.7137 47.6906 55.2978 47.1786 55.2978H44.5574C44.505 53.7335 44.7424 51.0116 44.2089 49.5343C43.8697 47.9017 39.904 42.4952 39.0405 41.0025C38.6149 40.357 37.9057 39.9721 37.1409 39.9721H30.4861C30.3412 39.9721 30.1993 39.9876 30.0605 40.0156V36.8995C30.0605 35.5214 28.9442 34.3979 27.575 34.3979H2.48551C1.11628 34.3979 0 35.5215 0 36.8995V58.4576C0 59.8357 1.11636 60.9592 2.48551 60.9592H5.98869C6.42659 63.2558 8.43675 64.9998 10.8451 64.9998ZM10.8451 63.1376C9.13976 63.1376 7.75206 61.7409 7.74898 60.0277V60.0245C7.74898 58.3051 9.13668 56.9085 10.8451 56.9085C14.9342 57.0388 14.9342 63.0072 10.8451 63.1376ZM36.3823 63.1376C34.6769 63.1376 33.2892 61.7409 33.2861 60.0277V60.0245C33.246 57.8954 35.4941 56.3312 37.4554 57.104C40.6563 58.3455 39.8176 63.0941 36.3791 63.1375L36.3823 63.1376ZM41.9362 48.8732H34.3655V44.7795H39.2934C39.423 44.9906 41.9331 48.7864 41.9362 48.8732ZM30.486 41.8372H37.1408C37.2827 41.8372 37.4184 41.9117 37.4986 42.0296L38.0783 42.9173H34.1927C33.2676 42.9173 32.5151 43.6746 32.5151 44.6057V49.0502C32.5151 49.9813 33.2676 50.7386 34.1927 50.7386H42.5933C42.8091 51.3655 42.6673 57.8646 42.7043 58.6715C42.7043 58.9074 42.5131 59.0998 42.2787 59.0998H41.2364C40.1294 53.7181 32.614 53.7522 31.5254 59.0998H30.0605V42.2684C30.0605 42.0325 30.2517 41.8401 30.4861 41.8401L30.486 41.8372ZM1.85266 58.4573V36.8992C1.85266 36.5453 2.13636 36.2598 2.48792 36.2598H27.5774C27.929 36.2598 28.2127 36.5453 28.2127 36.8992V59.0969H15.7047C14.6346 53.74 7.0578 53.7462 5.99047 59.0969H2.48728C2.13573 59.0969 1.85266 58.8111 1.85266 58.4573Z" fill="#C69815"/>
</svg>
