<svg width="18" height="19" viewBox="0 0 18 19" fill="none" xmlns="http://www.w3.org/2000/svg">
<path d="M11.667 0.994812C12.6541 0.407731 13.872 0.389602 14.876 0.94696C15.2924 1.17818 15.6723 1.5667 16.2373 2.14423C16.2627 2.17017 16.2883 2.19662 16.3145 2.22333C16.3401 2.24955 16.3657 2.27599 16.3906 2.30145C16.9573 2.87999 17.3372 3.26682 17.5625 3.69012C18.103 4.70604 18.0853 5.93565 17.5156 6.93524C17.2782 7.35178 16.8877 7.72756 16.3047 8.28876C16.2791 8.31336 16.2529 8.33862 16.2266 8.36395L8.38965 15.9118C8.35565 15.9445 8.32231 15.9774 8.28906 16.0095C7.13834 17.1182 6.4287 17.8015 5.53125 18.152C4.63254 18.503 3.65515 18.4769 2.07422 18.4352C2.02851 18.434 1.98228 18.4335 1.93555 18.4323L1.66895 18.4255C1.43742 18.4195 1.20307 18.4128 1.00977 18.3806C0.787658 18.3435 0.523159 18.258 0.314453 18.0212C0.107863 17.7865 0.054406 17.5154 0.0419922 17.2927C0.0310613 17.0957 0.0498357 16.8598 0.0683594 16.6227L0.09375 16.3015C0.0967938 16.2624 0.0995655 16.2235 0.102539 16.1852C0.210254 14.8 0.276081 13.9529 0.610352 13.1833C0.945218 12.4125 1.51782 11.7929 2.45117 10.7819C2.47697 10.754 2.50294 10.7255 2.5293 10.697L10.2656 2.31415C10.291 2.28662 10.3162 2.25885 10.3408 2.23212C10.889 1.63784 11.2575 1.23834 11.667 0.994812ZM17.3311 17.2087C17.6761 17.2089 17.9561 17.4886 17.9561 17.8337C17.9559 18.1786 17.676 18.4585 17.3311 18.4587H10.6641C10.319 18.4587 10.0392 18.1787 10.0391 17.8337C10.0391 17.4885 10.3189 17.2087 10.6641 17.2087H17.3311ZM3.44727 11.5446C2.41078 12.6676 1.99721 13.1281 1.75684 13.6813C1.51611 14.2356 1.45969 14.8598 1.33984 16.3981L1.31738 16.6872C1.29963 16.9151 1.28939 17.0567 1.28906 17.1569C1.32095 17.16 1.3595 17.1633 1.40625 17.1657C1.49654 17.1704 1.60169 17.173 1.73438 17.1765L1.96777 17.1823C3.73375 17.2285 4.44119 17.2358 5.07617 16.988C5.71267 16.7394 6.23701 16.2495 7.52246 15.0114L14.4512 8.33759L10.2676 4.15399L3.44727 11.5446ZM14.2695 2.03973C13.6548 1.69844 12.9117 1.71022 12.3066 2.07001C12.0747 2.20796 11.8363 2.45567 11.1846 3.1618L11.1162 3.23505L15.3516 7.4704L15.3594 7.46356C16.0495 6.79885 16.2935 6.55513 16.4297 6.3161C16.7869 5.6893 16.7981 4.91565 16.459 4.27802C16.3296 4.03482 16.0926 3.78345 15.4219 3.09833C14.7501 2.41212 14.5052 2.17058 14.2695 2.03973Z" fill="white"/>
</svg>
