<svg width="121" height="147" viewBox="0 0 121 147" fill="none" xmlns="http://www.w3.org/2000/svg">
<path d="M71.8168 58.0266C75.6399 58.0266 78.7496 54.9041 78.7496 51.0666C78.7496 47.229 75.6399 44.1066 71.8168 44.1066C67.9936 44.1066 64.8828 47.229 64.8828 51.0666C64.8817 54.9041 67.9924 58.0266 71.8168 58.0266ZM70.4703 46.1428C71.6364 46.1428 72.5818 47.0907 72.5818 48.2623C72.5818 49.4339 71.6364 50.3829 70.4703 50.3829C69.3031 50.3829 68.3576 49.4339 68.3576 48.2623C68.3576 47.0907 69.3031 46.1428 70.4703 46.1428Z" fill="#FFB5B3"/>
<path d="M54.4371 51.0666C54.4371 47.229 51.3274 44.1066 47.5043 44.1066C43.6799 44.1066 40.5703 47.229 40.5703 51.0666C40.5703 54.9041 43.6811 58.0266 47.5043 58.0266C51.3274 58.0266 54.4371 54.9041 54.4371 51.0666ZM46.5275 48.2612C46.5275 47.0896 47.4729 46.1417 48.639 46.1417C49.8051 46.1417 50.7517 47.0896 50.7517 48.2612C50.7517 49.4328 49.8051 50.3818 48.639 50.3818C47.4729 50.3818 46.5275 49.4328 46.5275 48.2612Z" fill="#FFB5B3"/>
<path d="M35.1275 48.9618C33.9939 43.4478 34.0017 38.5713 35.1488 34.0715C35.16 34.0288 36.279 29.8336 37.0968 29.8336C37.192 29.8336 37.2861 29.8584 37.3701 29.9045C38.1419 30.3374 39.1803 30.5668 40.3722 30.5668C44.0206 30.5668 49.094 28.2404 49.1287 23.8732C49.1309 23.627 49.2922 23.4111 49.5252 23.3391C49.7571 23.2672 50.0125 23.3571 50.1503 23.5607C51.2671 25.2034 53.5176 26.1839 56.1724 26.1839C59.151 26.1839 61.7912 24.9538 62.7412 23.1221C62.8319 22.9479 63.0055 22.8332 63.2016 22.8208C63.3942 22.8118 63.5847 22.8984 63.6967 23.0603C64.5245 24.2499 66.002 24.9324 67.7495 24.9324C68.5538 24.9324 69.3682 24.7907 70.1691 24.5119C70.2285 24.4916 70.2901 24.4815 70.3528 24.4815C70.4727 24.4815 70.5925 24.5209 70.6911 24.5962C70.8401 24.7098 70.923 24.8908 70.9118 25.0775C70.7348 28.0537 73.0345 30.2092 75.5449 32.0948C75.9705 32.4153 76.4018 32.7267 76.832 33.0382C78.3879 34.1648 79.9965 35.3297 81.3149 36.8499C84.3439 40.3456 85.4406 43.9021 84.9802 48.7426C84.9634 48.9146 84.9443 49.0821 84.9242 49.2452C85.6131 48.5233 86.4868 48.0286 87.3931 47.5159C88.9725 46.622 90.6046 45.6977 91.6195 43.3713C92.3857 41.6162 91.9757 39.6946 90.6237 38.6984C90.4993 38.6062 90.4176 38.4667 90.3996 38.3138C90.3806 38.1598 90.4254 38.0046 90.5251 37.8854C93.1194 34.754 93.8453 29.927 92.3331 25.8735C90.9732 22.2294 88.0876 19.8749 84.2073 19.2441C84.0583 19.2205 83.925 19.1362 83.8376 19.0114C83.7502 18.8865 83.7177 18.7314 83.7469 18.583C85.1381 11.3351 82.3522 5.53325 76.1061 2.66492C74.4516 1.90596 72.5372 1.50342 70.5701 1.50342C66.2843 1.50342 62.4779 3.37779 60.6375 6.39678C60.5512 6.53846 60.4078 6.63403 60.2443 6.65877C60.0796 6.68238 59.9149 6.63515 59.7906 6.52608C54.9985 2.32197 50.0764 1.11438 45.2629 2.99212C40.8438 4.71357 37.5964 9.38991 37.1819 14.6273C37.1685 14.7949 37.0811 14.9478 36.9444 15.0445C36.8066 15.1412 36.6341 15.1682 36.4728 15.1243C35.7716 14.9264 35.0536 14.8264 34.3411 14.8264C30.3208 14.8264 26.5715 18.0084 25.2251 22.5633C24.078 26.4425 24.8128 33.1652 30.0374 35.2746C30.2244 35.3499 30.3566 35.5208 30.3835 35.721C30.4104 35.9211 30.3275 36.1213 30.1673 36.2438C28.0177 37.8866 26.9916 40.0105 27.0308 42.7361C27.0812 46.1846 28.9844 46.7108 31.395 47.3764C32.6855 47.7351 34.0163 48.1028 35.1275 48.9618Z" fill="#282833" stroke="#282833" stroke-width="0.5" stroke-miterlimit="10"/>
<path d="M36.2792 57.9843C36.1918 57.204 36.1111 56.4742 36.035 55.7861C36.0226 55.7625 36.0014 55.7479 35.9958 55.722C35.8333 54.9102 35.6082 54.2063 35.3349 53.6048C34.5048 53.9859 33.9481 54.8484 34.0108 55.8153C34.0209 55.9705 33.9033 56.1043 33.7498 56.1144C33.7442 56.1155 33.7375 56.1156 33.7319 56.1156C33.5851 56.1156 33.4619 56.0009 33.4529 55.8524C33.3757 54.6561 34.0567 53.5868 35.0794 53.1055C34.5843 52.2319 33.9604 51.6506 33.23 51.4347C32.3809 51.1817 31.5307 51.4718 31.1286 51.8867C31.0199 51.9991 30.8429 52.0014 30.732 51.8923C30.6211 51.7832 30.6189 51.6056 30.7264 51.4943C31.2305 50.9748 32.279 50.5689 33.388 50.895C34.0892 51.103 34.9338 51.6472 35.6239 52.9155C35.6552 52.9088 35.6888 52.9054 35.7202 52.8998C35.7135 52.8312 35.7056 52.7592 35.6989 52.6929L35.5712 52.7334C34.5933 49.6132 32.7674 48.7811 31.3918 49.0431C30.0061 49.3062 28.616 50.7927 28.7695 53.0291C29.101 57.8921 31.3604 60.5828 33.3656 61.4778C34.609 62.0344 35.8322 61.9523 36.744 61.2743C36.7205 61.1124 36.6959 60.9448 36.6724 60.7852C36.5335 59.8002 36.4024 58.8636 36.2792 57.9843Z" fill="#FFB5B3"/>
<path d="M84.5781 52.5996C84.6095 52.5504 84.6409 52.5068 84.6722 52.4609L84.5961 52.4374C84.5905 52.4911 84.5848 52.5437 84.5781 52.5996Z" fill="#FF9184"/>
<path d="M85.0943 51.9315C85.6164 51.3479 86.1664 51.0365 86.6492 50.8937C87.757 50.5654 88.8055 50.9735 89.3085 51.493C89.416 51.6043 89.4138 51.7819 89.3029 51.891C89.1942 52.0001 89.015 51.9978 88.9063 51.8854C88.5042 51.4705 87.654 51.1838 86.806 51.4334C86.0756 51.6493 85.4517 52.2295 84.9566 53.1042C85.9782 53.5855 86.6604 54.6536 86.5819 55.8511C86.5719 55.9995 86.4486 56.1142 86.303 56.1142C86.2974 56.1142 86.2907 56.1142 86.2851 56.1131C86.1305 56.103 86.014 55.9692 86.0241 55.814C86.0868 54.8471 85.5312 53.9846 84.7011 53.6035C84.5891 53.8497 84.4872 54.1162 84.3931 54.3984C84.2329 55.6263 84.0425 57.0925 83.824 58.7723C83.6896 59.5774 83.5619 60.4432 83.4141 61.3416C84.3136 61.9442 85.4786 62.0106 86.6704 61.4787C88.6745 60.5837 90.935 57.893 91.2677 53.0289C91.4267 50.6958 90.0814 49.1655 88.7338 48.9103C87.263 48.6325 85.9278 49.7592 85.0943 51.9315Z" fill="#FFB5B3"/>
<path d="M118.708 140.548C118.478 138.709 118.185 136.877 117.731 135.083C117.505 134.185 117.282 133.287 116.979 132.412C116.717 131.524 116.391 130.659 116.05 129.8C115.381 128.075 114.561 126.412 113.659 124.799C112.748 123.239 111.777 121.711 110.672 120.278L109.417 118.745C109.052 118.312 108.702 117.867 108.331 117.44C108.171 117.261 108.008 117.085 107.846 116.909L106.524 115.592L105.003 114.078C104.824 113.898 104.644 113.72 104.462 113.541C104.129 113.24 103.79 112.941 103.449 112.645C103.441 112.639 103.434 112.632 103.426 112.626L100.66 110.366C99.9458 109.817 99.2199 109.28 98.4795 108.764C92.3857 104.47 85.6746 101.097 78.8617 97.9899L78.2344 97.7065L78.3195 106.674C78.3565 108.477 78.4002 110.448 78.4102 112.524C78.427 115.402 78.4461 118.472 78.464 121.543C78.4629 121.658 78.4618 121.773 78.4618 121.89L78.5827 145.297L83.9283 145.307C95.6152 145.284 107.302 145.243 118.989 145.283L118.937 143.321C118.861 142.397 118.804 141.469 118.708 140.548Z" fill="#C69815"/>
<path d="M51.9601 80.9873C54.3326 82.3579 57.0009 83.3249 59.7073 83.4171L59.9604 83.4373C59.9783 83.4396 60.1004 83.4452 60.031 83.4463L60.1665 83.4362L60.7065 83.4013L61.7863 83.3282C62.4405 83.1866 63.0768 83.0989 63.7298 82.9111C65.0393 82.5187 66.3242 82.0161 67.5239 81.3471C69.9413 80.045 72.1021 78.3303 73.9818 76.4683C75.8536 74.5973 77.4801 72.5903 78.7728 70.5382C80.0655 68.4739 81.0266 66.4196 81.468 64.3395C82.0281 62.2267 82.3372 60.3007 82.6879 58.586C82.9757 56.8499 83.2267 55.3353 83.4339 54.0895C83.6243 52.7818 83.7711 51.7755 83.8685 51.1042C83.6691 50.4105 83.7364 49.755 83.8136 49.1197C83.8327 48.9634 83.8517 48.8026 83.8674 48.6362C84.2953 44.133 83.2804 40.8295 80.4721 37.5879C79.2388 36.1655 77.7534 35.0895 76.1796 33.9516C75.7438 33.6357 75.307 33.3197 74.8768 32.9959C72.3273 31.0799 69.976 28.8851 69.7957 25.7986C69.1179 25.9707 68.4335 26.0572 67.7535 26.0572C65.9534 26.0572 64.374 25.4377 63.3019 24.3347C61.9364 26.1629 59.2435 27.3087 56.1764 27.3087C53.721 27.3087 51.5478 26.5418 50.1073 25.2094C49.2414 29.2471 44.6441 31.6905 40.3751 31.6905C39.2516 31.6905 38.2311 31.5072 37.3842 31.1552C37.0269 32.0739 36.3324 33.973 36.236 34.3485C35.0946 38.8281 35.1304 43.7158 36.3458 49.2895C36.3873 49.4795 36.3503 49.6628 36.2808 49.8359C36.3458 50.3172 36.4601 51.156 36.6169 52.3163C36.6259 52.3433 36.6359 52.3669 36.6438 52.3928L36.6281 52.3973C36.6673 52.6829 36.7076 52.9853 36.7513 53.308C36.9361 54.5584 37.1602 56.0774 37.4167 57.8202C37.569 58.6849 37.7304 59.6047 37.9017 60.575C37.9846 61.0596 38.0709 61.5577 38.1594 62.066C38.2748 62.5641 38.3924 63.0734 38.5122 63.5929C38.6332 64.1124 38.7576 64.6419 38.8853 65.1816C38.9883 65.6595 39.2392 66.2419 39.4151 66.7828C39.6347 67.3045 39.8733 67.806 40.1096 68.33C40.3919 68.8449 40.6787 69.3666 40.9699 69.8974C42.2111 71.9786 43.7906 74.0228 45.6209 75.9365C47.4569 77.8435 49.5786 79.611 51.9601 80.9873ZM62.8135 69.8243C62.0081 69.8872 61.1814 69.9187 60.3514 69.9187C59.2648 69.9187 58.1737 69.8648 57.114 69.7579C56.9594 69.7422 56.8474 69.605 56.8631 69.451C56.8788 69.2958 57.0289 69.1811 57.1689 69.1991C59.0049 69.3846 60.9417 69.4071 62.7687 69.2643C62.9222 69.2486 63.0577 69.3678 63.0701 69.5229C63.0824 69.677 62.9681 69.8119 62.8135 69.8243ZM67.0725 39.0631C67.1251 38.827 67.3178 38.6583 67.543 38.6223C67.543 38.6223 68.1781 38.5245 69.1291 38.4615C70.0802 38.4008 71.3449 38.3896 72.6073 38.4436C73.8698 38.4885 75.1311 38.601 76.0754 38.7179C77.0197 38.8427 77.6481 38.9653 77.6481 38.9653C77.9551 39.026 78.1567 39.324 78.0962 39.6332C78.048 39.8817 77.8464 40.0593 77.6101 40.0897C77.6101 40.0897 76.9749 40.1695 76.025 40.2291C75.0751 40.2831 73.8093 40.3089 72.5457 40.2684C71.2821 40.237 70.0208 40.1403 69.0765 40.0143C68.1322 39.8884 67.5049 39.7467 67.5049 39.7467C67.1968 39.6781 67.003 39.3712 67.0725 39.0631ZM71.8097 42.9827C76.2502 42.9827 79.8628 46.61 79.8628 51.0671C79.8628 55.5242 76.2502 59.1515 71.8097 59.1515C67.3682 59.1515 63.7556 55.5242 63.7556 51.0671C63.7545 46.61 67.3682 42.9827 71.8097 42.9827ZM57.011 42.0214C57.011 41.711 57.2619 41.4592 57.5711 41.4592C57.8802 41.4592 58.1312 41.711 58.1312 42.0214V59.3685C58.1312 59.8003 58.2611 60.8055 59.4631 60.8055H63.4946C63.8038 60.8055 64.0547 61.0574 64.0547 61.3677C64.0547 61.678 63.8038 61.9299 63.4946 61.9299H59.4631C57.9967 61.9299 57.011 60.9011 57.011 59.3685V42.0214ZM68.8267 65.1209C69.0787 64.941 69.4282 64.9995 69.6075 65.2525C69.7867 65.5055 69.7284 65.8563 69.4764 66.0362C67.7345 67.282 64.0782 67.9072 60.3301 67.9072C56.6245 67.9072 52.8327 67.2955 50.7122 66.0733L50.3884 66.6152C50.3358 66.7029 50.2439 66.7524 50.1487 66.7524C50.0994 66.7524 50.0502 66.74 50.0053 66.7119C49.872 66.6321 49.8295 66.459 49.909 66.3263L50.4545 65.4133C50.4669 65.3739 50.4725 65.3346 50.4937 65.2975C50.5184 65.2536 50.5554 65.2233 50.5878 65.1895L51.1748 64.2068C51.2544 64.073 51.4269 64.0291 51.559 64.1101C51.6923 64.1899 51.7349 64.3631 51.6554 64.4958L51.2902 65.1074C55.2198 67.3574 65.6812 67.3708 68.8267 65.1209ZM42.4329 38.9653C42.4329 38.9653 43.0613 38.8427 44.0056 38.7179C44.9499 38.601 46.2113 38.4874 47.4737 38.4436C48.7362 38.3896 50.0009 38.4008 50.9519 38.4615C51.9018 38.5245 52.537 38.6223 52.537 38.6223C52.8484 38.6696 53.0612 38.9619 53.0142 39.2745C52.9772 39.514 52.7968 39.6961 52.575 39.7456C52.575 39.7456 51.9466 39.8873 51.0034 40.0132C50.0591 40.1391 48.7978 40.2358 47.5342 40.2673C46.2718 40.3089 45.006 40.2819 44.056 40.228C43.1061 40.1684 42.471 40.0885 42.471 40.0885C42.1596 40.0492 41.9389 39.7647 41.9781 39.4533C42.0106 39.2036 42.1999 39.0114 42.4329 38.9653ZM39.451 51.0671C39.451 46.61 43.0647 42.9827 47.5051 42.9827C51.9455 42.9827 55.5581 46.61 55.5581 51.0671C55.5581 55.5242 51.9455 59.1515 47.5051 59.1515C43.0636 59.1515 39.451 55.5242 39.451 51.0671Z" fill="#FFB5B3"/>
<path d="M24.5415 107.152L23.8179 107.642C23.437 107.912 23.0461 108.17 22.6551 108.428C22.4905 108.543 22.3213 108.649 22.1578 108.765C21.6571 109.114 21.1709 109.484 20.6825 109.848C20.5727 109.939 20.4573 110.022 20.3521 110.118L17.0609 112.819C16.7887 113.047 16.5065 113.264 16.2443 113.499L15.4949 114.253L13.9961 115.759L12.4973 117.263C11.9932 117.761 11.5933 118.351 11.1363 118.888L9.80551 120.539C9.73829 120.621 9.67221 120.705 9.605 120.788C8.65508 122.076 7.78581 123.419 6.98152 124.798C6.07977 126.412 5.2598 128.073 4.59105 129.798C4.24939 130.658 3.92453 131.523 3.66129 132.411C3.35884 133.285 3.13481 134.183 2.90965 135.082C2.4571 136.876 2.16361 138.709 1.93285 140.546C1.83651 141.467 1.77938 142.394 1.69985 143.318L1.67969 144.096C1.70657 144.502 1.75922 144.89 1.80963 145.28C13.3542 145.239 24.8989 145.281 36.4435 145.303L41.6748 145.293L41.7285 134.843C41.7028 133.5 41.6781 132.081 41.6692 130.609C41.6512 127.739 41.6322 124.68 41.6132 121.619C41.6322 118.559 41.6501 115.499 41.6669 112.63C41.6792 109.761 41.761 107.083 41.7946 104.788C41.8663 101.534 41.9559 99.056 42.0019 97.8844L41.7745 97.9878C35.8397 100.699 29.9823 103.608 24.5415 107.152Z" fill="#C69815"/>
<path d="M58.6771 111.218C58.8048 111.339 58.8866 111.495 58.9157 111.657L60.0997 118.005L61.4327 111.42C61.4652 111.253 61.5504 111.107 61.6657 110.998C64.2668 108.537 66.9239 106.138 69.553 103.708C71.9726 101.479 74.4191 99.282 76.8745 97.0905L76.3032 96.8319L75.9817 96.688L75.9022 96.652L75.8618 96.634L75.8417 96.6239C75.8529 96.6317 75.6703 96.5294 75.7386 96.5665C75.686 96.5261 75.6535 96.5114 75.5852 96.4507C75.5012 96.3698 75.4216 96.2775 75.3522 96.1809C75.2962 96.0965 75.276 96.0425 75.2357 95.9717C75.1584 95.8323 75.1259 95.7109 75.0744 95.5827C74.9041 95.0801 74.8178 94.6011 74.7361 94.1199C74.4471 92.2061 74.3709 90.3171 74.3048 88.4259C74.2051 85.0617 74.2365 81.7043 74.2757 78.3525C72.5103 80.0155 70.5309 81.557 68.2905 82.7826C67.009 83.5056 65.6166 84.0678 64.175 84.5051C63.4502 84.721 62.6526 84.8447 61.8976 84.9965L60.8189 85.0752L60.279 85.1146L60.1434 85.1247C59.9844 85.1315 60.0168 85.1213 59.944 85.1202L59.6573 85.1011C56.5734 84.9853 53.6676 83.8755 51.1427 82.3992C49.3952 81.3726 47.8124 80.1571 46.3663 78.8483C46.4021 82.036 46.4279 85.2281 46.3327 88.4259C46.2666 90.3183 46.1915 92.2061 45.9014 94.1199C45.8196 94.6011 45.7334 95.079 45.5631 95.5827C45.4634 95.8379 45.3872 96.0932 45.1195 96.3945C45.0478 96.4687 44.9302 96.5497 44.8271 96.6093L44.6569 96.6891L44.3354 96.833L43.2734 97.3142C45.7793 99.5203 48.2784 101.734 50.7473 103.982C53.3932 106.391 56.0615 108.776 58.6771 111.218Z" fill="#FFB5B3"/>
<path d="M76.9688 104.656C77.0349 101.653 77.1155 99.3098 77.1637 98.0381C74.9424 100.263 72.7155 102.484 70.4605 104.675C67.9502 107.106 65.4656 109.564 62.9295 111.967L60.8874 122.568C60.7989 123.024 60.3587 123.323 59.905 123.235C59.5544 123.167 59.2979 122.887 59.2385 122.557L57.4059 112.193C54.8597 109.808 52.3606 107.373 49.8413 104.959C47.5102 102.723 45.2093 100.456 42.9141 98.182C42.9622 99.4458 43.0429 101.788 43.109 104.791C43.1426 107.086 43.2244 109.764 43.2367 112.633C43.2535 115.502 43.2725 118.562 43.2904 121.622C43.2714 124.683 43.2524 127.742 43.2344 130.612C43.2255 132.084 43.2008 133.501 43.1751 134.846L43.2288 145.293L60.3172 145.263L77.0293 145.294L77.0483 141.499C77.0226 140.582 76.9957 139.552 76.971 138.427C76.9363 136.125 76.8601 133.437 76.8422 130.56C76.8243 127.682 76.8052 124.612 76.7862 121.541C76.8052 118.472 76.8232 115.401 76.84 112.523C76.8534 109.646 76.9341 106.959 76.9688 104.656Z" fill="#282833" stroke="#282833" stroke-width="0.5" stroke-miterlimit="10"/>
<path opacity="0.5" d="M45.9442 84.1706C45.9442 84.1706 52.5208 94.433 59.6542 94.433C66.7875 94.433 74.2423 83.3184 74.2423 83.3184V77.223C74.2423 77.223 68.843 84.1706 60.3229 84.1706C51.8028 84.1706 45.9375 77.2612 45.9375 77.2612L45.9442 84.1706Z" fill="#A0A0A0"/>
<path opacity="0.3" d="M10.0449 120.06C5.64483 130.415 29.125 140.96 61.9128 140.96C94.7006 140.96 115.67 130.452 112.373 121.345C112.373 121.345 119.956 130.457 119.743 145.991H0.901962C0.901962 145.991 0.441569 132.756 10.0449 120.06Z" fill="#A0A0A0"/>
<path opacity="0.5" d="M43.2812 97.3145L60.0706 110.471L77.634 96.9828L62.2101 111.573L60.0706 121.668L58.2492 111.736L43.2812 97.3145Z" fill="#A0A0A0"/>
<path opacity="0.5" d="M50.1082 25.2104C49.8449 29.0918 46.1763 32.9114 40.5743 33.8705C40.5743 33.8705 36.6481 40.0085 37.9083 51.0557C39.1685 62.1029 40.5743 72.381 50.7557 81.2165C50.7557 81.2165 41.6844 74.9131 39.2166 68.0925C36.7477 61.2731 36.1462 51.1591 35.8012 49.4107C35.455 47.6634 33.0388 35.3535 37.1017 30.395C37.1017 30.395 44.5241 34.2921 50.1082 25.2104Z" fill="#A0A0A0"/>
<path opacity="0.5" d="M63.2969 24.3357C63.2969 24.3357 64.193 27.6066 67.1335 27.466C67.1335 27.466 66.7168 28.9513 70.7394 32.0434C74.762 35.1355 80.6429 37.662 81.9043 42.588C84.493 52.721 79.814 72.3192 71.8047 79.4838C71.8069 79.4816 77.5647 74.3319 79.2987 71.0824C81.0339 67.8317 82.1866 65.0084 83.3023 57.6065C84.4191 50.2046 84.7058 44.1475 83.3023 40.8553C81.8987 37.5619 76.9698 33.8357 73.3965 31.0955C70.3473 28.7568 70.2812 25.1576 70.2812 25.1576C70.2812 25.1576 66.9532 26.7475 63.2969 24.3357Z" fill="#A0A0A0"/>
<path d="M90.96 38.3038C95.9919 32.2287 94.1716 20.3528 84.3016 18.7472C85.657 11.6826 83.1512 5.33769 76.3438 2.21187C70.9445 -0.267418 63.2757 1.06161 60.165 6.16073C55.8948 2.41538 50.7431 0.31276 45.066 2.52557C40.1764 4.43141 37.0354 9.50918 36.6299 14.6398C31.3426 13.1511 26.2895 17.064 24.6943 22.4599C23.4767 26.5764 24.3392 33.6342 29.8349 35.8526C27.6225 37.5426 26.434 39.8262 26.4777 42.8002C26.5662 48.9136 32.2321 46.9504 35.205 49.8165C35.4716 50.0728 35.8794 49.8153 35.8032 49.4668C34.7088 44.4452 34.4209 39.2786 35.6979 34.265C35.8368 33.7196 37.0612 30.4263 37.1037 30.4499C40.8956 32.5784 49.6464 29.9776 49.6957 23.9329C52.5634 28.1505 61.144 27.4894 63.2455 23.4382C64.6872 25.5104 67.6456 26.0445 70.3598 25.1C70.166 28.3461 72.6091 30.6433 75.2169 32.6009C77.1873 34.0806 79.2697 35.3939 80.8996 37.2738C83.5365 40.3176 84.9166 43.6199 84.4293 48.7449C84.3464 49.6107 84.1705 50.3415 84.4372 51.1219C85.6929 47.7701 90.103 48.3176 92.1373 43.6536C92.9987 41.6792 92.5271 39.4574 90.96 38.3038Z" stroke="#282833" stroke-miterlimit="10" stroke-linecap="round" stroke-linejoin="round"/>
<path d="M79.3073 51.1232C79.3073 55.2778 75.9523 58.6454 71.8144 58.6454C67.6753 58.6454 64.3203 55.2778 64.3203 51.1232C64.3203 46.9686 67.6753 43.601 71.8144 43.601C75.9523 43.601 79.3073 46.9686 79.3073 51.1232Z" stroke="#282833" stroke-miterlimit="10"/>
<path d="M55.0026 51.1232C55.0026 55.2778 51.6476 58.6454 47.5097 58.6454C43.3706 58.6454 40.0156 55.2778 40.0156 51.1232C40.0156 46.9686 43.3706 43.601 47.5097 43.601C51.6476 43.601 55.0026 46.9686 55.0026 51.1232Z" stroke="#282833" stroke-miterlimit="10"/>
<path d="M78.2444 97.5256L78.4718 121.513L78.5995 146.16L77.8176 145.376C91.877 145.363 105.938 145.286 119.997 145.339L119.193 146.011C119.38 144.711 119.407 143.255 119.337 141.863C119.339 141.158 119.218 140.457 119.151 139.754L119.033 138.701L118.826 137.66C118.679 136.968 118.577 136.265 118.393 135.582L117.794 133.541C117.691 133.201 117.603 132.859 117.488 132.523L117.09 131.535L116.297 129.56C115.734 128.258 115.003 127.03 114.366 125.76C113.666 124.523 112.82 123.372 112.057 122.17C111.857 121.877 111.679 121.566 111.459 121.286L110.781 120.459L109.426 118.802C108.965 118.258 108.542 117.68 108.051 117.162L106.532 115.65L105.012 114.135C104.509 113.628 104.01 113.115 103.435 112.684L100.108 109.965C99.035 109.009 97.7916 108.28 96.6143 107.463L93.0499 105.047L89.2894 102.94C88.027 102.253 86.797 101.503 85.5076 100.865L78.2444 97.5256ZM77.9744 96.4754L85.9557 99.9486C87.2697 100.565 88.5277 101.297 89.8181 101.966L93.6671 104.021L97.329 106.405C98.5343 107.223 99.8046 107.949 100.911 108.91L104.336 111.645C104.925 112.079 105.442 112.597 105.966 113.111L107.539 114.642L109.113 116.175C109.622 116.701 110.067 117.289 110.546 117.843L111.96 119.532L112.667 120.378C112.896 120.666 113.085 120.983 113.296 121.284C114.1 122.516 114.989 123.696 115.716 124.978C116.384 126.292 117.143 127.563 117.735 128.914L118.569 130.97L118.985 131.997C119.106 132.346 119.201 132.705 119.31 133.058L119.942 135.186C120.137 135.901 120.249 136.637 120.406 137.362L120.624 138.452L120.755 139.56C120.829 140.299 120.956 141.033 120.958 141.781C121.032 143.282 121.029 144.739 120.805 146.31C120.75 146.699 120.417 146.98 120.037 146.981H120C105.941 147.034 91.8804 146.956 77.8209 146.944C77.3919 146.946 77.0413 146.599 77.0391 146.168V146.16L77.1668 121.513L77.4009 96.8667V96.851C77.4031 96.6227 77.5902 96.4394 77.8176 96.4417C77.8702 96.4417 77.9251 96.454 77.9744 96.4754Z" fill="#282833"/>
<path d="M42.8744 97.1985L43.1085 121.679L43.2362 146.159C43.2384 146.591 42.8912 146.942 42.4621 146.944H42.4543C28.6637 146.956 14.872 147.033 1.08139 146.98H1.04331C0.660203 146.979 0.343191 146.699 0.28046 146.332C0.0160967 144.778 -0.025352 143.333 0.0116141 141.844C-0.00518866 141.102 0.105708 140.371 0.161718 139.637L0.268137 138.536L0.461929 137.448C0.603072 136.727 0.696048 135.993 0.880879 135.283L1.4701 133.159C1.57427 132.806 1.65493 132.447 1.77703 132.102L2.17469 131.076L2.97002 129.026C3.55028 127.682 4.28064 126.408 4.93034 125.098C5.65398 123.83 6.51316 122.644 7.30289 121.416C7.6804 120.788 8.15872 120.237 8.62359 119.676L10.0149 117.992C10.4909 117.443 10.9133 116.844 11.4353 116.337L12.9901 114.811L14.5449 113.286L15.3223 112.524C15.5945 112.284 15.8835 112.067 16.1636 111.838L19.5521 109.119C20.6443 108.161 21.9191 107.462 23.1065 106.641L26.7381 104.28L30.5534 102.244C31.8327 101.581 33.0772 100.848 34.3834 100.248L42.2952 96.8061C42.5047 96.715 42.7478 96.8117 42.8385 97.0209C42.8609 97.0726 42.871 97.1265 42.8721 97.1794V97.1985H42.8744ZM42.0275 97.8563L34.8314 101.164C33.5488 101.786 32.3334 102.538 31.0822 103.217L27.3542 105.304L23.82 107.697C22.6617 108.518 21.4127 109.219 20.3542 110.173L17.0631 112.874C16.7909 113.102 16.5086 113.319 16.2465 113.554L15.497 114.308L13.9982 115.814L12.4994 117.318C11.9953 117.816 11.5954 118.406 11.1384 118.943L9.80763 120.594C9.36292 121.141 8.90364 121.681 8.54742 122.293C7.80026 123.489 6.98364 124.644 6.28689 125.866C5.66967 127.13 4.96843 128.358 4.41618 129.65L3.66118 131.618L3.28255 132.603C3.16605 132.934 3.091 133.278 2.99354 133.614L2.43682 135.646C2.26207 136.325 2.18029 137.025 2.04699 137.712L1.8644 138.747L1.76918 139.793C1.7199 140.489 1.61348 141.185 1.63476 141.882C1.5978 143.263 1.66277 144.704 1.88344 145.984L1.08363 145.336C14.8742 145.283 28.6659 145.36 42.4565 145.372L41.6746 146.157L41.8023 121.677L42.0275 97.8563Z" fill="#282833"/>
<path d="M42.734 96.8875C45.4213 99.2521 48.0997 101.626 50.7444 104.034C53.3881 106.446 56.0564 108.831 58.672 111.273C58.7997 111.393 58.8815 111.55 58.9106 111.711L60.8866 122.309L59.2366 122.297L61.4276 111.473C61.4601 111.307 61.5453 111.16 61.6606 111.051C64.2617 108.59 66.9188 106.192 69.5479 103.761C72.1814 101.336 74.843 98.9406 77.5169 96.5591C77.6905 96.4039 77.956 96.4197 78.1106 96.594C78.2584 96.7604 78.2483 97.0156 78.0938 97.1719C75.5666 99.7108 73.0272 102.236 70.4586 104.732C67.8866 107.223 65.3427 109.743 62.7416 112.204L62.9746 111.782L60.8855 122.626C60.797 123.082 60.3567 123.382 59.9031 123.293C59.5525 123.225 59.2959 122.945 59.2366 122.615L57.3591 111.999L57.5977 112.437C54.9843 109.993 52.4236 107.494 49.8393 105.018C47.2562 102.541 44.7055 100.03 42.1638 97.5081C41.9992 97.344 41.9969 97.0775 42.1605 96.9122C42.3151 96.7492 42.5682 96.7424 42.734 96.8875Z" fill="#282833"/>
<path d="M36.2106 49.4184C36.2106 49.4184 36.4055 50.8543 36.7461 53.3673C36.9309 54.6176 37.1549 56.1367 37.4115 57.8795C37.5638 58.7441 37.7251 59.6639 37.8965 60.6342C37.9794 61.1188 38.0656 61.617 38.1541 62.1252C38.2695 62.6233 38.3871 63.1326 38.507 63.6521C38.628 64.1716 38.7523 64.7012 38.88 65.2409C38.9831 65.7187 39.234 66.3012 39.4099 66.842C39.6294 67.3637 39.868 67.8652 40.1044 68.3892C40.3867 68.9041 40.6734 69.4259 40.9647 69.9566C42.2058 72.0378 43.7853 74.082 45.6157 75.9957C47.4539 77.9004 49.5767 79.668 51.9582 81.0442C54.3307 82.4149 56.999 83.3818 59.7054 83.474L59.9585 83.4943C59.9764 83.4965 60.0986 83.5022 60.0291 83.5033L60.1646 83.4932L60.7046 83.4583L61.7844 83.3852C62.4386 83.2435 63.0749 83.1558 63.728 82.9681C65.0374 82.5756 66.3223 82.073 67.522 81.404C69.9394 80.102 72.1002 78.3873 73.9799 76.5253C75.8517 74.6543 77.4782 72.6472 78.7709 70.5952C80.0636 68.5308 81.0247 66.4766 81.4661 64.3965C82.0262 62.2837 82.3353 60.3576 82.686 58.6429C82.9738 56.9069 83.2248 55.3923 83.432 54.1465C83.7961 51.6413 84.0055 50.21 84.0055 50.21V50.2032C84.0391 49.9727 84.252 49.8131 84.4816 49.8468C84.7056 49.8794 84.8625 50.0863 84.8378 50.3112C84.8378 50.3112 84.6788 51.7538 84.4021 54.2792C84.2374 55.5407 84.0391 57.071 83.8106 58.8284C83.5183 60.5859 83.264 62.6087 82.7386 64.7079C82.3197 66.8971 81.3092 69.192 80.0042 71.3587C78.6858 73.5389 77.0447 75.6775 75.0855 77.6418C73.1297 79.6028 70.8736 81.4243 68.2905 82.8388C67.009 83.5617 65.6166 84.124 64.1749 84.5613C63.4501 84.7772 62.6526 84.9009 61.8976 85.0527L60.8188 85.1314L60.2789 85.1708L60.1434 85.1809C59.9843 85.1876 60.0168 85.1775 59.944 85.1764L59.6572 85.1573C56.5733 85.0415 53.6676 83.9317 51.1427 82.4553C48.6066 80.9655 46.3965 79.0934 44.4843 77.0875C42.5699 75.0804 40.9692 72.9092 39.7067 70.6908C39.411 70.1241 39.1186 69.5653 38.8307 69.0143C38.5798 68.433 38.3211 67.8506 38.1015 67.2873C37.9279 66.7116 37.7184 66.2292 37.5828 65.6029C37.4619 65.0396 37.3431 64.4875 37.2277 63.9467C37.1146 63.4059 37.0037 62.8763 36.8951 62.3579C36.8189 61.8407 36.7438 61.3347 36.671 60.8411C36.5332 59.855 36.4033 58.9195 36.2801 58.0391C36.084 56.2806 35.9138 54.7458 35.7726 53.4831C35.5217 50.9599 35.3772 49.5185 35.3772 49.5185C35.3537 49.2868 35.5217 49.08 35.7525 49.0563C35.9776 49.0339 36.1804 49.1958 36.2106 49.4184Z" fill="#282833"/>
<path d="M84.3413 52.4081C86.4338 45.7348 92.1546 48.2816 91.8241 53.1221C91.2864 60.9794 85.7561 63.9938 82.8828 61.7349" stroke="#282833" stroke-miterlimit="10"/>
<path d="M89.1022 51.7452C88.1209 50.7332 84.8511 50.2644 83.7578 55.7222" stroke="#282833" stroke-width="0.5" stroke-miterlimit="10" stroke-linecap="round"/>
<path d="M83.9141 53.174C85.3165 53.2662 86.3785 54.4817 86.2866 55.8883" stroke="#282833" stroke-width="0.5" stroke-miterlimit="10" stroke-linecap="round" stroke-linejoin="round"/>
<path d="M36.1122 52.6197C34.0197 45.9464 27.8845 48.2818 28.2161 53.1223C28.7526 60.9796 34.283 63.9941 37.1585 61.7352" stroke="#282833" stroke-miterlimit="10"/>
<path d="M30.9297 51.7452C31.9121 50.7332 35.1819 50.2644 36.2741 55.7222" stroke="#282833" stroke-width="0.5" stroke-miterlimit="10" stroke-linecap="round"/>
<path d="M36.1213 53.174C34.7188 53.2662 33.6569 54.4817 33.7476 55.8883" stroke="#282833" stroke-width="0.5" stroke-miterlimit="10" stroke-linecap="round" stroke-linejoin="round"/>
<path d="M46.3582 77.1639C46.4019 80.9283 46.4523 84.7007 46.3403 88.4798C46.2742 90.3721 46.1992 92.26 45.909 94.1737C45.8273 94.655 45.741 95.1328 45.5707 95.6365C45.471 95.8918 45.3949 96.147 45.1271 96.4484C45.0554 96.5226 44.9378 96.6035 44.8348 96.6631L44.6645 96.743L44.343 96.8869L41.78 98.0461C34.9693 101.155 28.2572 104.526 22.1633 108.82C20.6354 109.885 19.1657 111.028 17.7397 112.217C16.3227 113.419 14.9516 114.675 13.6667 116.012C12.3785 117.346 11.1587 118.746 10.0474 120.227C8.90932 121.69 7.91796 123.256 6.98596 124.853C6.08421 126.467 5.26424 128.128 4.59549 129.853C4.25383 130.713 3.92898 131.578 3.66573 132.466C3.36328 133.34 3.13925 134.238 2.91409 135.137C2.46154 136.931 2.16805 138.764 1.93729 140.601C1.84095 141.522 1.78382 142.448 1.70429 143.373L1.6326 146.157L0.903358 145.425L60.3236 145.316L119.744 145.428L119.018 146.157L118.945 143.373C118.866 142.45 118.81 141.523 118.713 140.601C118.484 138.762 118.19 136.93 117.736 135.135C117.51 134.238 117.287 133.34 116.985 132.465C116.723 131.577 116.397 130.712 116.055 129.853C115.386 128.128 114.566 126.465 113.665 124.852C112.733 123.255 111.74 121.688 110.603 120.226C109.491 118.745 108.272 117.344 106.983 116.012C105.698 114.674 104.327 113.418 102.91 112.217C101.483 111.026 100.014 109.884 98.486 108.819C92.3922 104.525 85.6812 101.152 78.8682 98.045L76.3052 96.8857L75.9837 96.7418L75.9042 96.7059L75.8639 96.6878L75.8437 96.6777C75.8549 96.6856 75.6723 96.5833 75.7407 96.6204C75.688 96.5799 75.6555 96.5653 75.5872 96.5046C75.5032 96.4236 75.4236 96.3314 75.3542 96.2347C75.2982 96.1504 75.278 96.0964 75.2377 96.0256C75.1604 95.8862 75.1279 95.7647 75.0764 95.6365C74.9061 95.1339 74.8199 94.655 74.7381 94.1737C74.4491 92.26 74.3729 90.371 74.3068 88.4798C74.1948 84.7007 74.2441 80.9272 74.2889 77.1639C74.2911 76.9311 74.4805 76.7445 74.7123 76.7467C74.9431 76.749 75.1279 76.9379 75.129 77.1684C75.1246 80.9351 75.1167 84.6962 75.2691 88.4449C75.3531 90.3137 75.4539 92.197 75.7485 94.0039C75.828 94.4492 75.9188 94.9001 76.0554 95.288C76.0924 95.3757 76.1238 95.4836 76.1663 95.5477L76.2179 95.6467C76.2212 95.6444 76.2134 95.6444 76.2022 95.6568C76.2156 95.677 76.2884 95.7209 76.3288 95.7512C76.4094 95.7973 76.238 95.7029 76.2638 95.7164L76.284 95.7254L76.3243 95.7434L76.4049 95.7782L76.7287 95.9188L79.3096 97.0522C86.1718 100.107 93.0117 103.396 99.2197 107.764C100.779 108.841 102.281 110.002 103.744 111.213C105.197 112.436 106.606 113.716 107.931 115.084C109.259 116.448 110.519 117.884 111.671 119.406C112.848 120.91 113.881 122.523 114.85 124.17C115.788 125.836 116.644 127.554 117.343 129.337C117.699 130.225 118.04 131.12 118.316 132.037C118.631 132.942 118.867 133.869 119.104 134.797C119.579 136.651 119.89 138.542 120.134 140.44C120.237 141.39 120.299 142.343 120.384 143.295L120.469 146.159C120.481 146.55 120.174 146.876 119.784 146.888H119.767H119.742L60.3213 147L0.901119 146.891L0.878715 146.89C0.487771 146.89 0.170758 146.572 0.171878 146.178V146.158L0.257012 143.294C0.341026 142.342 0.403756 141.388 0.506813 140.438C0.749893 138.542 1.06243 136.651 1.53627 134.795C1.77374 133.868 2.00898 132.941 2.32487 132.035C2.60044 131.118 2.93986 130.223 3.29719 129.335C3.99619 127.551 4.85201 125.834 5.79072 124.168C6.75968 122.521 7.7925 120.907 8.96981 119.404C10.1225 117.882 11.3816 116.446 12.7101 115.081C14.0353 113.712 15.4445 112.434 16.8974 111.211C18.3603 110 19.8636 108.84 21.4218 107.762C27.6298 103.394 34.4686 100.1 41.332 97.0499L43.9129 95.9165L44.2355 95.776C44.2836 95.7535 44.3564 95.7254 44.3833 95.7074C44.3744 95.6973 44.3609 95.7197 44.3721 95.713C44.4237 95.6624 44.5211 95.469 44.585 95.2858C44.7228 94.8978 44.8135 94.4492 44.893 94.0028C45.1876 92.1948 45.2884 90.3125 45.3725 88.4438C45.5248 84.6951 45.517 80.9328 45.5147 77.1673C45.5147 76.9345 45.7018 76.7456 45.9348 76.7456C46.1678 76.7467 46.3549 76.9334 46.3582 77.1639Z" fill="#282833"/>
<path d="M57.5703 42.0775C57.5703 42.0775 57.5703 58.3272 57.5703 59.4246C57.5703 60.5209 58.1976 61.4238 59.4623 61.4238C60.7281 61.4238 63.4939 61.4238 63.4939 61.4238" stroke="#282833" stroke-miterlimit="10" stroke-linecap="round" stroke-linejoin="round"/>
<path d="M72.5836 48.3181C72.5836 49.4898 71.6381 50.4388 70.472 50.4388C69.3048 50.4388 68.3594 49.4898 68.3594 48.3181C68.3594 47.1465 69.3048 46.1987 70.472 46.1987C71.6381 46.1998 72.5836 47.1477 72.5836 48.3181Z" fill="#282833"/>
<path d="M46.5312 48.3181C46.5312 49.4898 47.4767 50.4388 48.6428 50.4388C49.8089 50.4388 50.7555 49.4898 50.7555 48.3181C50.7555 47.1465 49.8089 46.1987 48.6428 46.1987C47.4767 46.1998 46.5312 47.1477 46.5312 48.3181Z" fill="#282833"/>
<path d="M50.9766 65.634C55.0764 68.0121 65.8268 68.0121 69.1516 65.634" stroke="#282833" stroke-miterlimit="10" stroke-linecap="round" stroke-linejoin="round"/>
<path d="M57.1406 69.535C58.9889 69.7207 60.9593 69.7431 62.7897 69.601" stroke="#282833" stroke-width="0.5" stroke-miterlimit="10" stroke-linecap="round" stroke-linejoin="round"/>
<path d="M67.5538 38.6802C67.5538 38.6802 68.1889 38.5824 69.14 38.5194C70.091 38.4587 71.3557 38.4475 72.6181 38.5014C73.8806 38.5464 75.1419 38.6589 76.0862 38.7758C77.0305 38.9006 77.659 39.0232 77.659 39.0232C77.9659 39.0839 78.1675 39.3819 78.107 39.6911C78.0589 39.9396 77.8572 40.1172 77.6209 40.1476C77.6209 40.1476 76.9857 40.2274 76.0358 40.287C75.0859 40.341 73.8201 40.3668 72.5565 40.3263C71.2929 40.2948 70.0316 40.1982 69.0873 40.0722C68.143 39.9463 67.5157 39.8046 67.5157 39.8046C67.2088 39.736 67.015 39.4302 67.0844 39.1221C67.1371 38.8837 67.3297 38.7151 67.5538 38.6802Z" fill="#282833"/>
<path d="M52.578 39.8033C52.578 39.8033 51.9496 39.945 51.0064 40.0709C50.0621 40.1969 48.8008 40.2936 47.5372 40.3251C46.2747 40.3667 45.0089 40.3397 44.059 40.2857C43.1091 40.2261 42.4739 40.1463 42.4739 40.1463C42.1625 40.1069 41.9419 39.8225 41.9811 39.511C42.0124 39.2603 42.2017 39.068 42.4359 39.0219C42.4359 39.0219 43.0643 38.8993 44.0086 38.7745C44.9529 38.6576 46.2142 38.544 47.4767 38.5002C48.7391 38.4462 50.0038 38.4574 50.9549 38.5181C51.9048 38.5811 52.5399 38.6789 52.5399 38.6789C52.8513 38.7262 53.0642 39.0185 53.0171 39.3311C52.9802 39.5717 52.7998 39.7527 52.578 39.8033Z" fill="#282833"/>
<path d="M51.4142 64.407L50.1484 66.5265" stroke="#282833" stroke-width="0.5" stroke-miterlimit="10" stroke-linecap="round" stroke-linejoin="round"/>
<path d="M78.0493 97.0373C78.0493 97.0373 78.1859 100.107 78.2867 104.712C78.3204 107.015 78.4021 109.703 78.4144 112.58C78.4312 115.458 78.4503 118.528 78.4682 121.599C78.4492 124.668 78.4301 127.739 78.4122 130.617C78.3943 133.496 78.3192 136.182 78.2834 138.485C78.1826 143.09 78.0493 146.16 78.0493 146.16C78.0392 146.393 77.8432 146.573 77.6102 146.562C77.3917 146.552 77.2181 146.375 77.2091 146.16C77.2091 146.16 77.0758 143.09 76.9739 138.485C76.9392 136.182 76.863 133.495 76.8451 130.617C76.8272 127.739 76.8081 124.669 76.7891 121.599C76.8081 118.529 76.826 115.458 76.8428 112.58C76.8551 109.703 76.9358 107.015 76.9705 104.712C77.0714 100.107 77.208 97.0373 77.208 97.0373C77.2181 96.8046 77.4152 96.6247 77.6471 96.6348C77.8667 96.6438 78.0381 96.8226 78.0493 97.0373Z" fill="#282833"/>
<path d="M42.8696 97.1979C42.8696 97.1979 43.0062 100.259 43.1071 104.848C43.1407 107.143 43.2224 109.821 43.2348 112.69C43.2516 115.559 43.2706 118.619 43.2885 121.679C43.2695 124.74 43.2504 127.799 43.2325 130.669C43.2146 133.537 43.1395 136.216 43.1037 138.51C43.0029 143.1 42.8696 146.161 42.8696 146.161C42.8595 146.394 42.6635 146.573 42.4305 146.563C42.212 146.553 42.0384 146.376 42.0294 146.161C42.0294 146.161 41.8961 143.1 41.7942 138.51C41.7595 136.216 41.6833 133.537 41.6654 130.669C41.6475 127.799 41.6284 124.74 41.6094 121.679C41.6284 118.619 41.6463 115.559 41.6631 112.69C41.6755 109.821 41.7572 107.143 41.7908 104.848C41.8917 100.259 42.0283 97.1979 42.0283 97.1979C42.0384 96.9652 42.2356 96.7853 42.4674 96.7954C42.687 96.8044 42.8595 96.982 42.8696 97.1979Z" fill="#282833"/>
</svg>
