<svg width="450" height="427" viewBox="0 0 450 427" fill="none" xmlns="http://www.w3.org/2000/svg">
<path d="M225 426.6C349.264 426.6 450 331.102 450 213.3C450 95.4977 349.264 0 225 0C100.736 0 0 95.4977 0 213.3C0 331.102 100.736 426.6 225 426.6Z" fill="url(#paint0_linear_9895_177694)"/>
<path opacity="0.2" d="M80.1075 317.162C106.849 317.162 128.528 314.462 128.528 311.132C128.528 307.801 106.849 305.102 80.1075 305.102C53.3659 305.102 31.6875 307.801 31.6875 311.132C31.6875 314.462 53.3659 317.162 80.1075 317.162Z" fill="#1B1B1B"/>
<path d="M107.644 239.13H51.4844C52.4744 236.97 54.1844 234.99 56.2544 233.55C59.0444 231.57 62.5544 230.4 66.4244 230.4H92.7044C96.5744 230.4 100.084 231.57 102.874 233.55C104.944 234.99 106.564 236.97 107.644 239.13Z" fill="#C69815"/>
<path opacity="0.1" d="M107.644 239.131H51.4844C52.4744 236.971 54.1844 234.991 56.2544 233.551H102.874C104.944 234.991 106.564 236.971 107.644 239.131Z" fill="black"/>
<path d="M46.4422 224.281L32.4922 163.801C34.9222 164.431 37.1722 165.781 39.0622 167.671C41.6722 170.191 43.6522 173.791 44.6422 177.931L51.2122 206.281C52.2022 210.421 51.9322 214.561 50.6722 217.891C49.7722 220.501 48.3322 222.661 46.4422 224.281Z" fill="#C69815"/>
<path opacity="0.1" d="M46.4422 224.281L32.4922 163.801C34.9222 164.431 37.1722 165.781 39.0622 167.671L50.6722 217.891C49.7722 220.501 48.3322 222.661 46.4422 224.281Z" fill="black"/>
<path d="M110.251 282.33H48.7812V286.83H110.251V282.33Z" fill="#4B4B4B"/>
<path d="M110.251 284.58H48.7812V286.83H110.251V284.58Z" fill="#272727"/>
<path d="M40.9509 221.49L26.4609 159.21C30.6009 158.22 34.7409 160.83 35.6409 164.97L50.1309 227.25C46.0809 228.15 41.9409 225.63 40.9509 221.49Z" fill="#4B4B4B"/>
<path d="M108.358 244.621H50.6675C48.3275 244.621 46.4375 242.911 46.4375 240.751C46.4375 238.591 48.3275 236.881 50.6675 236.881H108.358C110.698 236.881 112.588 238.591 112.588 240.751C112.588 242.911 110.698 244.621 108.358 244.621Z" fill="#4B4B4B"/>
<path d="M60.575 241.471L60.035 244.621L58.595 252.631L48.785 306.541C48.065 310.681 44.015 313.471 39.875 312.751L50.765 252.631L52.205 244.621L53.015 240.121L60.575 241.471Z" fill="#4B4B4B"/>
<path d="M119.247 312.659C118.797 312.749 118.347 312.749 117.897 312.749C114.297 312.749 111.057 310.139 110.337 306.449L100.527 252.539L99.0869 244.529L98.5469 241.379L106.107 240.029L106.917 244.529L108.357 252.539L119.247 312.659Z" fill="#4B4B4B"/>
<path d="M44.375 221.49L49.325 240.12L51.215 239.49L46.625 220.77L44.375 221.49Z" fill="#4B4B4B"/>
<path d="M60.0356 244.621L58.5056 252.631H50.7656L52.2056 244.621H60.0356Z" fill="#272727"/>
<path d="M108.356 252.631H100.526L99.0859 244.621H106.916L108.356 252.631Z" fill="#272727"/>
<path opacity="0.2" d="M375.209 317.162C401.951 317.162 423.629 314.462 423.629 311.132C423.629 307.801 401.951 305.102 375.209 305.102C348.467 305.102 326.789 307.801 326.789 311.132C326.789 314.462 348.467 317.162 375.209 317.162Z" fill="#1B1B1B"/>
<path d="M347.758 239.13H403.828C402.838 236.97 401.128 234.99 399.058 233.55C396.268 231.57 392.758 230.4 388.888 230.4H362.608C358.738 230.4 355.228 231.57 352.438 233.55C350.368 234.99 348.748 236.97 347.758 239.13Z" fill="#C69815"/>
<path opacity="0.1" d="M347.758 239.131H403.828C402.838 236.971 401.128 234.991 399.058 233.551H352.438C350.368 234.991 348.748 236.971 347.758 239.131Z" fill="black"/>
<path d="M408.965 224.281L422.915 163.801C420.485 164.431 418.235 165.781 416.345 167.671C413.735 170.191 411.755 173.791 410.765 177.931L404.195 206.281C403.205 210.421 403.475 214.561 404.735 217.891C405.545 220.501 407.075 222.661 408.965 224.281Z" fill="#C69815"/>
<path opacity="0.1" d="M408.964 224.281L422.914 163.801C420.484 164.431 418.234 165.781 416.344 167.671L404.734 217.891C405.544 220.501 407.074 222.661 408.964 224.281Z" fill="black"/>
<path d="M406.533 282.33H345.062V286.83H406.533V282.33Z" fill="#4B4B4B"/>
<path d="M406.533 284.58H345.062V286.83H406.533V284.58Z" fill="#272727"/>
<path d="M414.36 221.49L428.85 159.21C424.71 158.22 420.57 160.83 419.67 164.97L405.18 227.25C409.23 228.15 413.37 225.63 414.36 221.49Z" fill="#4B4B4B"/>
<path d="M346.949 244.621H404.639C406.979 244.621 408.869 242.911 408.869 240.751C408.869 238.591 406.979 236.881 404.639 236.881H346.949C344.609 236.881 342.719 238.591 342.719 240.751C342.719 242.911 344.609 244.621 346.949 244.621Z" fill="#4B4B4B"/>
<path d="M394.742 241.471L395.282 244.621L396.722 252.631L406.532 306.541C407.252 310.681 411.302 313.471 415.442 312.751L404.552 252.631L403.112 244.621L402.302 240.121L394.742 241.471Z" fill="#4B4B4B"/>
<path d="M336.062 312.659C336.512 312.749 336.962 312.749 337.412 312.749C341.012 312.749 344.252 310.139 344.972 306.449L354.783 252.539L356.222 244.529L356.762 241.379L349.203 240.029L348.393 244.529L346.953 252.539L336.062 312.659Z" fill="#4B4B4B"/>
<path d="M410.942 221.49L405.992 240.12L404.102 239.49L408.692 220.77L410.942 221.49Z" fill="#4B4B4B"/>
<path d="M395.375 244.621L396.815 252.631H404.555L403.115 244.621H395.375Z" fill="#272727"/>
<path d="M346.953 252.631H354.783L356.223 244.621H348.393L346.953 252.631Z" fill="#272727"/>
<path d="M226.8 171.451H198V175.591H226.8V171.451Z" fill="white"/>
<path d="M227.254 187.652C224.374 191.162 216.004 191.252 213.304 191.162C212.764 191.162 212.494 191.162 212.494 191.162C212.494 191.162 201.154 191.882 197.734 187.742C195.754 185.402 196.834 181.802 198.184 179.192C198.544 178.562 198.814 178.022 199.174 177.482C199.804 176.402 200.344 175.682 200.344 175.682H224.734C224.734 175.682 225.904 177.122 226.894 179.192C228.154 181.712 229.234 185.312 227.254 187.652Z" fill="white"/>
<path d="M203.134 184.502C201.874 188.372 206.464 191.252 212.494 191.162C212.494 191.162 201.154 191.882 197.734 187.742C195.754 185.402 196.834 181.802 198.184 179.192C198.184 179.102 198.274 179.102 198.274 179.012C198.274 178.922 198.364 178.922 198.364 178.832C198.634 178.382 198.904 177.932 199.084 177.482C199.714 176.402 200.254 175.682 200.254 175.682H224.644C224.644 175.682 225.814 177.122 226.804 179.192H215.914C213.214 179.192 210.424 179.642 207.904 180.722C205.744 181.442 203.674 182.702 203.134 184.502Z" fill="#EDEDED"/>
<path d="M222.572 167.761C222.212 168.301 221.942 168.751 221.582 169.111C220.592 170.461 219.782 171.361 219.692 171.451H205.022C204.932 171.361 204.122 170.461 203.132 169.111C202.862 168.661 202.502 168.211 202.142 167.761C200.342 165.061 198.452 161.461 198.992 158.671C199.172 157.861 199.442 157.231 199.712 156.871C199.892 156.691 200.072 156.511 200.252 156.421C201.872 155.521 204.302 157.681 205.022 157.591C206.012 157.501 204.392 152.371 201.962 148.681C199.712 145.261 198.272 140.671 200.972 139.051C201.062 138.961 201.152 138.961 201.242 138.871C201.332 138.781 201.422 138.781 201.512 138.781C205.112 137.431 206.282 142.291 207.812 141.571C209.252 140.941 204.752 125.641 211.862 125.641C211.952 125.641 212.132 125.641 212.222 125.641C212.312 125.641 212.492 125.641 212.582 125.641C219.692 125.641 215.192 140.941 216.632 141.571C218.162 142.201 219.332 137.431 222.932 138.781C223.022 138.781 223.112 138.871 223.292 138.871C223.382 138.961 223.472 138.961 223.562 139.051C226.352 140.671 224.822 145.261 222.572 148.681C220.142 152.371 218.522 157.501 219.512 157.591C220.322 157.681 222.662 155.521 224.282 156.421C224.462 156.511 224.642 156.691 224.822 156.871C225.092 157.231 225.362 157.861 225.542 158.671C226.352 161.461 224.372 165.061 222.572 167.761Z" fill="#C69815"/>
<path d="M212.759 125.551V171.451H212.039V125.551C212.129 125.551 212.309 125.551 212.399 125.551C212.579 125.551 212.669 125.551 212.759 125.551Z" fill="#4D0CE7"/>
<path d="M212.771 151.829L212.501 152.099L212.231 152.369L212.141 152.279L200.891 139.229L201.161 139.049C201.251 138.959 201.341 138.959 201.431 138.869L212.141 151.199L212.501 151.559L212.771 151.829Z" fill="#4D0CE7"/>
<path d="M212.765 170.642L212.495 170.912L212.225 171.182L212.135 171.092L199.805 156.872C199.985 156.692 200.165 156.512 200.345 156.422L212.135 170.012L212.495 170.372L212.765 170.642Z" fill="#4D0CE7"/>
<path d="M224.107 139.139L212.857 152.189L212.767 152.279L212.497 152.009L212.227 151.739L212.497 151.469L212.857 151.109L223.567 138.779C223.657 138.869 223.747 138.869 223.837 138.959L224.107 139.139Z" fill="#4D0CE7"/>
<path d="M225.093 156.87L212.763 171L212.673 171.09L212.403 170.82L212.133 170.55L212.403 170.28L212.763 169.92L224.553 156.33C224.733 156.51 224.913 156.69 225.093 156.87Z" fill="#4D0CE7"/>
<path opacity="0.1" d="M221.677 169.111C220.687 170.461 219.877 171.361 219.787 171.451H205.117C205.027 171.361 204.217 170.461 203.227 169.111H221.677Z" fill="black"/>
<path opacity="0.2" d="M227.782 319.41C280.271 319.41 322.822 315.703 322.822 311.13C322.822 306.557 280.271 302.85 227.782 302.85C175.293 302.85 132.742 306.557 132.742 311.13C132.742 315.703 175.293 319.41 227.782 319.41Z" fill="#1B1B1B"/>
<path d="M327.685 202.95H127.885C122.305 202.95 117.805 198.45 117.805 192.87V191.07H337.675V192.87C337.675 198.45 333.175 202.95 327.685 202.95Z" fill="#4B4B4B"/>
<path d="M158.39 202.682L157.76 219.512L154.25 312.842H145.25V202.682H158.39Z" fill="#4B4B4B"/>
<path d="M158.39 202.682L157.76 219.512H145.25V202.682H158.39Z" fill="#272727"/>
<path d="M297.078 202.682L297.708 219.512L301.218 312.842H310.308V202.682H297.078Z" fill="#4B4B4B"/>
<path d="M297.078 202.682L297.708 219.512H310.308V202.682H297.078Z" fill="#272727"/>
<path d="M334.253 191.07L324.083 197.01L227.783 253.17L131.213 197.01L120.953 191.07H334.253Z" fill="#4D0CE7"/>
<path d="M136.25 191.07H317.33L227.78 244.35L136.25 191.07Z" fill="#C69815"/>
<path opacity="0.1" d="M334.253 191.07L324.083 197.01H131.213L120.953 191.07H334.253Z" fill="white"/>
<path d="M186.214 188.371C186.214 189.181 185.854 189.811 185.404 190.351C184.864 190.891 184.234 191.161 183.424 191.161H153.274C151.924 191.161 150.844 190.261 150.574 189.001C150.484 188.821 150.484 188.551 150.484 188.371H186.214Z" fill="#E3E8EF"/>
<path d="M195.211 176.67L186.211 188.37H150.391L141.391 176.67H195.211Z" fill="#F9F5E8"/>
<path d="M165.334 188.37H150.484L141.484 176.67H171.544C171.544 176.67 157.414 177.3 156.514 183.42C155.794 188.19 165.334 188.37 165.334 188.37Z" fill="#E3E8EF"/>
<path d="M156.418 174.509C156.418 174.509 148.048 169.739 153.448 159.209C158.848 148.589 155.068 137.609 155.068 137.609H186.208C186.208 137.609 187.468 151.919 183.868 156.329C180.268 160.739 183.328 171.359 186.478 174.509H156.418Z" fill="#E3E8EF"/>
<path d="M308.066 188.371C308.066 189.181 307.706 189.811 307.256 190.351C306.716 190.891 306.086 191.161 305.276 191.161H275.126C273.776 191.161 272.696 190.261 272.426 189.001C272.336 188.821 272.336 188.551 272.336 188.371H308.066Z" fill="#E3E8EF"/>
<path d="M317.066 176.67L308.066 188.37H272.336L263.336 176.67H317.066Z" fill="#F9F5E8"/>
<path d="M287.186 188.37H279.761H272.336L263.336 176.67H293.396C293.396 176.67 279.266 177.3 278.366 183.42C277.646 188.19 287.186 188.37 287.186 188.37Z" fill="#E3E8EF"/>
<path d="M277.652 174.509C277.652 174.509 269.282 169.739 274.682 159.209C280.082 148.589 276.302 137.609 276.302 137.609H307.442C307.442 137.609 308.702 151.919 305.102 156.329C301.502 160.739 304.562 171.359 307.712 174.509H277.652Z" fill="#E3E8EF"/>
<path d="M262.797 191.16H243.267L235.438 164.25H254.967L262.797 191.16Z" fill="white"/>
<path d="M259.646 188.818H245.066L238.586 166.678H253.166L259.646 188.818ZM245.606 188.008H258.566L252.536 167.398H239.576L245.606 188.008Z" fill="#CDD5DF"/>
<path d="M235.439 164.25L239.399 177.75L243.269 191.16H235.439H232.109L233.819 177.75L235.439 164.25Z" fill="#EDEDED"/>
<path d="M237.149 170.01L234.719 191.16H243.269L237.149 170.01Z" fill="#CCCCCC"/>
<path d="M251.638 169.02H242.008V169.83H251.638V169.02Z" fill="#CDD5DF"/>
<path d="M252.357 171.449H242.727V172.259H252.357V171.449Z" fill="#CDD5DF"/>
<path d="M252.989 173.789H243.359V174.599H252.989V173.789Z" fill="#CDD5DF"/>
<path d="M253.708 176.129H244.078V176.939H253.708V176.129Z" fill="#CDD5DF"/>
<path d="M254.427 178.469H244.797V179.279H254.427V178.469Z" fill="#CDD5DF"/>
<path d="M255.052 180.809H245.422V181.619H255.052V180.809Z" fill="#CDD5DF"/>
<path d="M255.778 183.148H246.148V183.958H255.778V183.148Z" fill="#CDD5DF"/>
<path d="M256.497 185.49H246.867V186.3H256.497V185.49Z" fill="#CDD5DF"/>
<defs>
<linearGradient id="paint0_linear_9895_177694" x1="208.876" y1="426.547" x2="208.876" y2="-0.000189345" gradientUnits="userSpaceOnUse">
<stop offset="0.134964" stop-color="#FFF3C4"/>
<stop offset="0.707975" stop-color="#FFFDF5"/>
</linearGradient>
</defs>
</svg>
