<svg width="70" height="65" viewBox="0 0 70 65" fill="none" xmlns="http://www.w3.org/2000/svg">
<path d="M57.1719 27.2876C55.2323 27.2876 53.6719 28.7287 53.6719 30.5201C53.6719 32.3114 55.2323 33.7526 57.1719 33.7526C59.1115 33.7526 60.6719 32.3114 60.6719 30.5201C60.6719 28.7422 59.0969 27.2876 57.1719 27.2876ZM57.1719 31.5976C56.5302 31.5976 56.0052 31.1127 56.0052 30.5201C56.0052 29.9275 56.5302 29.4426 57.1719 29.4426C57.8135 29.4426 58.3385 29.9275 58.3385 30.5201C58.3385 31.1127 57.8135 31.5976 57.1719 31.5976Z" fill="#C69815"/>
<path d="M46.6615 24.0552H44.3281V34.8301H46.6615V24.0552Z" fill="#C69815"/>
<path d="M57.1667 7.89258C59.7479 7.89258 61.8333 9.8186 61.8333 12.2026C61.8333 12.7952 62.3583 13.2801 63 13.2801C63.6417 13.2801 64.1667 12.7952 64.1667 12.2026C64.1667 9.8186 66.2521 7.89258 68.8333 7.89258C69.475 7.89258 70 7.4077 70 6.81508C70 6.22246 69.475 5.73758 68.8333 5.73758C66.2521 5.73758 64.1667 3.81156 64.1667 1.42759C64.1667 0.834971 63.6417 0.350098 63 0.350098C62.3583 0.350098 61.8333 0.834971 61.8333 1.42759C61.8333 3.81156 59.7479 5.73758 57.1667 5.73758C56.525 5.73758 56 6.22246 56 6.81508C56 7.4077 56.525 7.89258 57.1667 7.89258ZM63 4.9968C63.525 5.71064 64.1812 6.33021 64.9688 6.81508C64.1958 7.29995 63.525 7.90604 63 8.63336C62.475 7.91951 61.8187 7.29995 61.0312 6.81508C61.8187 6.33021 62.475 5.72411 63 4.9968Z" fill="#C69815"/>
<path d="M65.7562 43.3693C66.2083 43.2076 66.5 42.8036 66.5 42.3726V38.0626C66.5 37.47 65.975 36.9851 65.3333 36.9851V28.3651C65.3333 26.668 64.4583 25.0787 63 24.0551L60.6667 22.4389V17.5901H62.0375L63.0146 22.1156L65.3042 21.6981L64.1375 16.3106C64.0354 15.8123 63.5542 15.4486 63 15.4486H50.1667V17.6036H53.6667V20.5128L52.1646 22.5736C51.7125 21.3883 50.8229 20.3782 49.6562 19.7317L46.6667 18.0615V13.2801C46.6667 12.6875 46.1417 12.2027 45.5 12.2027H39.6667C39.3604 12.2027 39.0542 12.3239 38.8354 12.5259L43.1083 0.686904L40.8917 0L32.8125 22.385L29.925 21.0516L37.275 0.700373L35.0583 0.0134688L20.1396 41.3355C20.0375 41.3085 19.9354 41.2951 19.8333 41.2951C17.2521 41.2951 15.1667 39.369 15.1667 36.9851C15.1667 36.3925 14.6417 35.9076 14 35.9076C13.3583 35.9076 12.8333 36.3925 12.8333 36.9851C12.8333 39.369 10.7479 41.2951 8.16667 41.2951C7.525 41.2951 7 41.7799 7 42.3726C7 42.9652 7.525 43.4501 8.16667 43.4501C10.7479 43.4501 12.8333 45.3761 12.8333 47.7601C12.8333 48.3527 13.3583 48.8375 14 48.8375C14.6417 48.8375 15.1667 48.3527 15.1667 47.7601C15.1667 45.5512 16.9896 43.6925 19.3667 43.477L15.4875 54.225H3.5C1.575 54.225 0 55.6797 0 57.4575V59.6125C0 60.2051 0.525 60.69 1.16667 60.69H2.33333V65H4.66667V60.69H7V65H9.33333V60.69H11.6667V65H14V60.69H16.3333V65H18.6667V60.69H21V65H23.3333V60.69H25.6667V65H28V60.69H30.3333V65H32.6667V60.69H35V65H37.3333V60.69H38.5C39.1417 60.69 39.6667 60.2051 39.6667 59.6125V57.4575C39.6667 55.6797 38.0917 54.225 36.1667 54.225H35V43.4501H37.6542L42.0583 55.6392C42.2187 56.0837 42.6562 56.38 43.1667 56.38H63V61.7675C63 62.3601 62.475 62.845 61.8333 62.845H39.6667V65H61.8333C63.7583 65 65.3333 63.5454 65.3333 61.7675V56.38H68.8333C69.475 56.38 70 55.8952 70 55.3025C70 55.1813 69.9854 55.0736 69.9417 54.9658L65.7562 43.3693ZM14 44.1908C13.475 43.477 12.8188 42.8574 12.0312 42.3726C12.8042 41.8877 13.475 41.2816 14 40.5543C14.525 41.2681 15.1812 41.8877 15.9687 42.3726C15.1812 42.8574 14.525 43.4635 14 44.1908ZM51.3333 28.5941C51.3333 27.961 51.5375 27.328 51.9167 26.8027L55.7958 21.4287C55.9271 21.2536 55.9854 21.0381 55.9854 20.8361V17.6036H58.3187V22.9911C58.3187 23.3278 58.4937 23.6511 58.7854 23.8531L61.5854 25.7926C62.4604 26.3987 62.9854 27.3684 62.9854 28.3786V36.9986H51.3187V28.5941H51.3333ZM40.8333 14.3576H44.3333V17.5901H40.8333V14.3576ZM38.5 13.4552V18.0615L36.4292 19.2064L38.5 13.4552ZM35 24.338C35 23.2066 35.6417 22.156 36.7062 21.5634L40.0021 19.7451H45.1937L48.4896 21.5634C49.5396 22.156 50.1813 23.2066 50.1958 24.338V25.3481L50.0062 25.604C49.3646 26.493 49.0292 27.53 49.0292 28.5941V36.9851H35.0292V24.338H35ZM32.6667 43.4501V54.225H23.7854L32.6667 29.6177V36.9851C32.025 36.9851 31.5 37.47 31.5 38.0626V42.3726C31.5 42.9652 32.025 43.4501 32.6667 43.4501ZM29.1812 23.1123L32.0687 24.4457L29.9833 30.2373L27.0958 28.9039L29.1812 23.1123ZM26.3521 30.9646L29.2396 32.298L21.3208 54.225H17.9521L26.3521 30.9646ZM36.1667 56.38C36.8083 56.38 37.3333 56.8649 37.3333 57.4575V58.535H2.33333V57.4575C2.33333 56.8649 2.85833 56.38 3.5 56.38H36.1667ZM63 54.225H44.0125L40.1187 43.4501H63V54.225ZM64.1667 41.2951H33.8333V39.1401H64.1667V41.2951ZM65.3333 54.225V49.0126L67.2146 54.225H65.3333Z" fill="#C69815"/>
<path d="M4.53021 27.9073C4.96771 29.6852 6.06146 31.2745 7.63646 32.3924L0.140625 45.0934L2.18229 46.1304L9.66354 33.4699C13.9656 35.0726 18.851 33.2005 20.6885 29.2676L30.5323 8.06787C31.8302 5.26638 30.4302 2.00695 27.3823 0.808237C26.6385 0.511925 25.8365 0.36377 25.0198 0.36377H24.7135C22.7302 0.36377 20.8781 1.26617 19.7552 2.78814L5.79896 21.7386C4.47188 23.5434 4.01979 25.7792 4.53021 27.9073ZM7.72396 22.9508L21.6948 3.98685C22.3802 3.05751 23.5031 2.50529 24.7135 2.50529H25.0198C27.0323 2.50529 28.6802 4.01379 28.6802 5.88594C28.6802 6.34388 28.5781 6.80181 28.3885 7.21934L18.5448 28.4191C17.2615 31.1936 13.8781 32.554 10.801 31.5573L23.1969 10.5596L21.1552 9.52249L8.77396 30.4663C6.41146 28.5673 5.95938 25.3348 7.72396 22.9508Z" fill="#C69815"/>
<path d="M1.16667 7.89258C3.74792 7.89258 5.83333 9.8186 5.83333 12.2026C5.83333 12.7952 6.35833 13.2801 7 13.2801C7.64167 13.2801 8.16667 12.7952 8.16667 12.2026C8.16667 9.8186 10.2521 7.89258 12.8333 7.89258C13.475 7.89258 14 7.4077 14 6.81508C14 6.22246 13.475 5.73758 12.8333 5.73758C10.2521 5.73758 8.16667 3.81156 8.16667 1.42759C8.16667 0.834971 7.64167 0.350098 7 0.350098C6.35833 0.350098 5.83333 0.834971 5.83333 1.42759C5.83333 3.81156 3.74792 5.73758 1.16667 5.73758C0.525 5.73758 0 6.22246 0 6.81508C0 7.4077 0.525 7.89258 1.16667 7.89258ZM7 4.9968C7.525 5.71064 8.18125 6.33021 8.96875 6.81508C8.19583 7.29995 7.525 7.90604 7 8.63336C6.475 7.91951 5.81875 7.29995 5.03125 6.81508C5.81875 6.33021 6.475 5.72411 7 4.9968Z" fill="#C69815"/>
</svg>
