<svg width="48" height="48" viewBox="0 0 48 48" fill="none" xmlns="http://www.w3.org/2000/svg">
<path d="M25.7578 20H24H22.2422C17.0157 24.8281 12.2812 29.4766 12.2812 34.1406C12.2812 35.843 12.9827 37.4671 14.2107 38.8281H24H33.7893C35.0173 37.4671 35.7188 35.843 35.7188 34.1406C35.7188 29.4766 30.9843 24.8281 25.7578 20Z" fill="#F7F0EB"/>
<path d="M35.7188 34.1406C35.7188 29.4766 30.9843 24.8281 25.7578 20H24V38.8281H33.7893C35.0173 37.4671 35.7188 35.843 35.7188 34.1406Z" fill="#E1D3CE"/>
<path d="M24 28.2031C23.3523 28.2031 22.8281 28.7273 22.8281 29.375V31.7188C22.8281 32.3665 23.3523 32.8906 24 32.8906C24.6477 32.8906 25.1719 32.3665 25.1719 31.7188V29.375C25.1719 28.7273 24.6477 28.2031 24 28.2031Z" fill="#3E0AB9"/>
<path d="M25.1719 31.7188V29.375C25.1719 28.7273 24.6477 28.2031 24 28.2031V32.8906C24.6477 32.8906 25.1719 32.3665 25.1719 31.7188Z" fill="#3E0AB9"/>
<path d="M23.9999 30.5469C21.2155 30.5469 15.3802 34.0216 14.7188 38.6691H23.9999H33.2811C32.6196 34.0216 26.7843 30.5469 23.9999 30.5469Z" fill="#3E0AB9"/>
<path d="M24 30.5469V38.6691H33.2812C32.6197 34.0216 26.7844 30.5469 24 30.5469Z" fill="#3E0AB9"/>
<path d="M33.7969 1.17188H24H14.2031C12.9844 2.53117 12.2812 4.14836 12.2812 5.85938C12.2812 6.5625 12.3984 7.28906 12.6094 7.99211L16.4466 10.4345L24 10.5262L32.0515 10.6241L35.3203 8.27328C35.5781 7.47656 35.7188 6.65617 35.7188 5.85938C35.7188 4.14836 35.0156 2.53117 33.7969 1.17188Z" fill="#F7F0EB"/>
<path d="M35.3204 8.27336C35.5781 7.47656 35.7188 6.65617 35.7188 5.85938C35.7188 4.14836 35.0156 2.53117 33.7969 1.17188H24V10.5262L32.0515 10.6241L35.3204 8.27336Z" fill="#E1D3CE"/>
<path d="M36.8906 0H24H11.1094C10.4616 0 9.9375 0.524141 9.9375 1.17188C9.9375 1.81961 10.4616 2.34375 11.1094 2.34375H24H36.8906C37.5384 2.34375 38.0625 1.81961 38.0625 1.17188C38.0625 0.524141 37.5384 0 36.8906 0Z" fill="#8C4A37"/>
<path d="M38.0625 1.17188C38.0625 0.524141 37.5384 0 36.8906 0H24V2.34375H36.8906C37.5384 2.34375 38.0625 1.81961 38.0625 1.17188Z" fill="#663325"/>
<path d="M24 18.8281C23.3523 18.8281 22.8281 19.3523 22.8281 20V24.6875C22.8281 25.3352 23.3523 25.8594 24 25.8594C24.6477 25.8594 25.1719 25.3352 25.1719 24.6875V20C25.1719 19.3523 24.6477 18.8281 24 18.8281Z" fill="#3E0AB9"/>
<path d="M25.1719 24.6875V20C25.1719 19.3523 24.6477 18.8281 24 18.8281V25.8594C24.6477 25.8594 25.1719 25.3352 25.1719 24.6875Z" fill="#3E0AB9"/>
<path d="M29.8594 9.375C26.9297 9.375 24.4923 8.32031 24.4688 8.2968C24.4427 8.28633 24.267 8.21211 24 8.1118C23.0677 7.7618 20.8185 7.03125 18.1406 7.03125C15.7499 7.03125 13.6874 7.61719 12.6094 7.99211C12.7968 8.71867 13.1015 9.44523 13.5 10.1718C15.2344 13.3827 18.6094 16.6718 22.2421 20C22.3593 20.0937 22.8046 20.4921 23.203 20.8672C23.4257 21.078 23.7127 21.1836 23.9999 21.1836C24.287 21.1836 24.5743 21.078 24.7969 20.8672C25.1952 20.4921 25.6406 20.0937 25.7577 20C28.9921 17.0234 32.0155 14.0625 33.8672 11.203C34.5234 10.2188 35.0156 9.25781 35.3203 8.27336C35.0859 8.27336 33.098 9.375 29.8594 9.375Z" fill="#3E0AB9"/>
<path d="M25.7578 19.9995C28.9922 17.0229 32.0155 14.062 33.8673 11.2026C34.5234 10.2183 35.0157 9.25734 35.3204 8.27289C35.0859 8.27289 33.098 9.37453 29.8594 9.37453C26.9297 9.37453 24.4923 8.31984 24.4688 8.29633C24.4427 8.28586 24.267 8.21164 24 8.11133V21.1831C24.2871 21.1831 24.5744 21.0776 24.797 20.8667C25.1953 20.4916 25.6406 20.0932 25.7578 19.9995Z" fill="#3E0AB9"/>
<path d="M36.8906 37.6562H24H11.1094C10.4616 37.6562 9.9375 38.1804 9.9375 38.8281C9.9375 39.4759 10.4616 40 11.1094 40H24H36.8906C37.5384 40 38.0625 39.4759 38.0625 38.8281C38.0625 38.1804 37.5384 37.6562 36.8906 37.6562Z" fill="#8C4A37"/>
<path d="M38.0625 38.8281C38.0625 38.1804 37.5384 37.6562 36.8906 37.6562H24V40H36.8906C37.5384 40 38.0625 39.4759 38.0625 38.8281Z" fill="#663325"/>
</svg>
