<svg width="119" height="185" viewBox="0 0 119 185" fill="none" xmlns="http://www.w3.org/2000/svg">
<path d="M102.373 45.5769V64.0145H89.3334V45.5769C89.3334 27.9212 75.9908 13.7714 59.5962 13.7714C43.2016 13.7714 29.859 28.0221 29.859 45.5769V91.734H16.6172V45.5769C16.6172 20.3545 35.8115 0 59.4953 0C83.1792 0 102.373 20.4554 102.373 45.5769Z" fill="#C7C7C7"/>
<path d="M16.7266 64.0654L29.7666 64.5951V91.7344H16.7266V64.0654Z" fill="#A6A6A6"/>
<path d="M118.999 76.2729H0V184.225H118.999V76.2729Z" fill="#C69815"/>
<path opacity="0.1" d="M119 76.2729H59.5V184.225H119V76.2729Z" fill="black"/>
<path d="M64.5451 134.209L69.5895 157.817H48.4531L53.4976 134.209C51.5409 132.994 50.0333 131.175 49.2031 129.027C48.373 126.878 48.2655 124.518 48.897 122.303C49.5285 120.089 50.8645 118.14 52.7028 116.753C54.541 115.365 56.7814 114.615 59.0844 114.615C61.3875 114.615 63.6277 115.365 65.466 116.753C67.3042 118.14 68.6403 120.089 69.2718 122.303C69.9033 124.518 69.7958 126.878 68.9657 129.027C68.1355 131.175 66.6279 132.994 64.6712 134.209H64.5451Z" fill="#281E04"/>
</svg>
