<svg width="115" height="20" viewBox="0 0 115 20" fill="none" xmlns="http://www.w3.org/2000/svg">
<path d="M18.3678 1.33342C18.5036 1.65341 18.5452 1.98654 18.4926 2.33283C18.4357 2.67912 18.2911 2.97499 18.0588 3.22046L6.41826 16.2062H18.3415V19.7304H2.44824C2.10207 19.7304 1.78219 19.634 1.4886 19.4411C1.19501 19.2439 0.975917 18.9874 0.831314 18.6718C0.677947 18.3562 0.631937 18.0253 0.693284 17.679C0.750249 17.3371 0.892661 17.039 1.12052 16.7848L12.7808 3.80564H0.831314V0.274837H16.7574C17.0992 0.274837 17.4169 0.373463 17.7105 0.570715C18.0041 0.763583 18.2232 1.01782 18.3678 1.33342ZM37.5277 8.22408V11.7812H26.3932V8.22408H37.5277ZM39.1183 16.2062V19.7304H26.3932C25.9068 19.7304 25.3744 19.6449 24.796 19.474C24.2176 19.303 23.6808 19.0203 23.1857 18.6258C22.6949 18.2313 22.2852 17.7206 21.9565 17.0938C21.6235 16.4626 21.457 15.6911 21.457 14.7794V2.05668C21.457 1.81121 21.503 1.57889 21.595 1.35972C21.6871 1.14494 21.8119 0.956452 21.9697 0.794267C22.1274 0.632082 22.3137 0.504965 22.5284 0.412914C22.7475 0.320863 22.9841 0.274837 23.2383 0.274837H39.1183V3.80564H24.9866V14.7794C24.9866 15.2397 25.1093 15.5925 25.3547 15.838C25.5957 16.0835 25.9529 16.2062 26.4261 16.2062H39.1183ZM60.0924 0.274837V3.80564H52.3232V19.7304H48.8002V3.80564H41.0179V0.274837H60.0924ZM66.238 0.274837V19.7304H62.715V0.274837H66.238ZM92.9962 1.78053V19.7304H89.4403V8.14518L83.1895 19.1452C83.0361 19.4258 82.8214 19.6384 82.5453 19.783C82.2693 19.9277 81.9735 20 81.658 20C81.3513 20 81.0643 19.9277 80.797 19.783C80.5297 19.6384 80.3193 19.4258 80.166 19.1452L73.8889 8.14518V19.7304H70.3592V1.78053C70.3592 1.37726 70.4797 1.01563 70.7207 0.69564C70.9617 0.380038 71.275 0.167445 71.6607 0.0578603C71.8535 0.0140266 72.0441 -0.00131495 72.2325 0.0118352C72.4209 0.0249853 72.6028 0.0666276 72.778 0.136762C72.9577 0.202512 73.1198 0.296753 73.2644 0.419488C73.409 0.542222 73.5295 0.689065 73.6259 0.860017L81.658 14.8189L89.6835 0.860017C89.8938 0.518114 90.1808 0.274838 90.5445 0.130186C90.9126 -0.0144649 91.296 -0.0385738 91.6948 0.0578603C92.0716 0.167445 92.3828 0.380038 92.6281 0.69564C92.8735 1.01563 92.9962 1.37726 92.9962 1.78053ZM113.076 8.22408V11.7812H101.942V8.22408H113.076ZM114.667 16.2062V19.7304H101.942C101.456 19.7304 100.923 19.6449 100.345 19.474C99.7663 19.303 99.2295 19.0203 98.7343 18.6258C98.2436 18.2313 97.8339 17.7206 97.5052 17.0938C97.1722 16.4626 97.0057 15.6911 97.0057 14.7794V2.05668C97.0057 1.81121 97.0517 1.57889 97.1437 1.35972C97.2357 1.14494 97.3606 0.956452 97.5184 0.794267C97.6761 0.632082 97.8623 0.504965 98.077 0.412914C98.2961 0.320863 98.5328 0.274837 98.7869 0.274837H114.667V3.80564H100.535V14.7794C100.535 15.2397 100.656 15.5925 100.897 15.838C101.142 16.0835 101.499 16.2062 101.968 16.2062H114.667Z" fill="#C69815"/>
</svg>
