<svg width="26" height="26" viewBox="0 0 26 26" fill="none" xmlns="http://www.w3.org/2000/svg">
<g clip-path="url(#clip0_8362_83371)">
<path d="M25.3212 8.74353C24.8947 8.38338 24.4272 8.07458 23.9284 7.82352C22.5129 7.1424 21.0166 7.0165 19.483 7.19082C17.0565 7.4652 14.7918 8.28998 12.527 9.1083C10.8916 9.69743 9.26905 10.3237 7.58829 10.7546C6.48665 11.0419 5.37208 11.2388 4.22353 11.1694C2.69322 11.0758 1.51717 10.3979 0.72613 9.07118C0.688116 9.01454 0.664559 8.94949 0.65751 8.8817C0.650461 8.8139 0.660135 8.74541 0.685688 8.68219C1.4724 6.42743 2.86596 4.43222 4.71369 2.91521C4.89325 2.76672 4.97737 2.75381 5.11163 2.97493C5.82017 4.12897 6.89107 4.73586 8.19977 5.01186C9.75111 5.33467 11.3008 5.21523 12.8554 5.04091C15.1687 4.78105 17.4545 4.29199 19.7871 4.2129C20.816 4.1774 21.84 4.25003 22.817 4.62933C23.0306 4.70569 23.2173 4.84255 23.3541 5.02316C24.1486 6.06832 24.7867 7.22313 25.2484 8.45139C25.2727 8.51756 25.2824 8.58535 25.3212 8.74353Z" fill="#C69815"/>
<path d="M0.781488 17.3223C1.15845 17.6259 1.56363 17.8929 1.99151 18.1196C3.26299 18.7652 4.6186 18.9412 6.02112 18.8443C8.47513 18.6732 10.7657 17.863 13.0548 17.0463C14.9782 16.3619 16.8773 15.5936 18.8784 15.1304C20.0657 14.8512 21.2628 14.6656 22.4858 14.9044C23.7087 15.1433 24.6373 15.8357 25.2843 16.9059C25.3236 16.9667 25.347 17.0363 25.3527 17.1084C25.3583 17.1805 25.346 17.2529 25.3167 17.3191C24.5289 19.5647 23.135 21.5497 21.2887 23.0554C21.1933 23.1345 21.1108 23.2587 20.9927 23.0554C20.2049 21.7351 18.9722 21.1185 17.505 20.8667C16.2772 20.6617 15.0429 20.715 13.8134 20.8312C11.8383 21.0201 9.88735 21.401 7.91541 21.6108C6.54848 21.7561 5.17993 21.8432 3.82271 21.5107C3.27432 21.3768 2.80358 21.1653 2.46548 20.6585C1.78712 19.6888 1.22569 18.6427 0.792811 17.5418C0.776355 17.4959 0.762847 17.449 0.75237 17.4014C0.749134 17.3852 0.765311 17.3659 0.781488 17.3223Z" fill="#C69815"/>
<path d="M0.170018 10.7223C1.17136 12.3009 2.63535 12.7689 4.30317 12.8206C5.07342 12.8383 5.84352 12.7788 6.60188 12.643C9.00088 12.2395 11.2753 11.4228 13.532 10.5545C14.446 10.2042 15.3535 9.83298 16.2642 9.47144C16.3548 9.43593 16.447 9.40687 16.5975 9.35522C15.8129 10.0686 15.0332 10.6852 14.2357 11.2921C12.3511 12.7221 10.3759 14.0214 8.21793 15.0254C7.02137 15.614 5.74503 16.0251 4.42934 16.2456C3.77587 16.3567 3.10751 16.3474 2.4574 16.2181C1.27489 15.9583 0.527523 15.2352 0.202371 14.0811C-0.104986 12.9965 -0.017632 11.9022 0.170018 10.7223Z" fill="#C69815"/>
<path d="M25.8493 15.1852C25.6729 14.9592 25.5371 14.7688 25.3834 14.5945C24.5875 13.6922 23.5457 13.3032 22.381 13.1773C20.5821 12.9853 18.8496 13.3581 17.1316 13.823C14.8669 14.4347 12.683 15.3095 10.4992 16.1714C10.2734 16.2821 10.0325 16.3588 9.78418 16.399C10.2115 15.954 10.6752 15.5453 11.1705 15.1771C12.9761 13.7229 14.9201 12.4488 16.9747 11.3728C18.4306 10.6255 19.9448 9.99444 21.5867 9.74911C22.1907 9.64743 22.8075 9.64743 23.4114 9.74911C24.6862 9.98476 25.4966 10.7175 25.8234 11.9716C26.0984 13.0175 26.0094 14.078 25.8493 15.1852Z" fill="#C69815"/>
<path d="M21.1914 2.9072C19.6335 2.6312 18.1178 2.73288 16.6069 2.8959C14.4894 3.1251 12.3912 3.55443 10.2511 3.50763C9.04751 3.48341 7.87308 3.28973 6.83778 2.60376C6.65207 2.47399 6.47385 2.33389 6.30394 2.18411C6.12115 2.0227 6.14218 1.93877 6.34277 1.82256C7.31536 1.25476 8.35484 0.809643 9.43737 0.497432C11.4053 -0.0622435 13.4778 -0.151061 15.4866 0.238188C17.4954 0.627438 19.3839 1.48379 20.9989 2.73773C21.0603 2.77646 21.1137 2.83295 21.1914 2.9072Z" fill="#C69815"/>
<path d="M4.79688 23.0876C5.0007 23.0198 5.17703 23.1054 5.35659 23.1247C6.75749 23.2861 8.15354 23.1974 9.54797 23.0392C11.3274 22.8358 13.1068 22.5178 14.8976 22.4484C15.9879 22.4081 17.0669 22.4678 18.1119 22.8229C18.7301 23.0335 19.2972 23.3711 19.7765 23.8139C19.9496 23.9753 19.9156 24.0383 19.7328 24.1464C17.9235 25.2318 15.8763 25.8612 13.7685 25.98C10.4458 26.1543 7.48544 25.1891 4.86158 23.1619C4.83841 23.1385 4.8168 23.1137 4.79688 23.0876Z" fill="#C69815"/>
</g>
<defs>
<clipPath id="clip0_8362_83371">
<rect width="26" height="26" fill="white"/>
</clipPath>
</defs>
</svg>
