<svg width="418" height="420" viewBox="0 0 418 420" fill="none" xmlns="http://www.w3.org/2000/svg">
<path d="M368.851 359.1C360.284 368.092 352.178 373.89 345.773 378.472C270.49 432.323 181.409 416.626 162.477 412.792C134.521 407.131 80.4808 396.189 41.411 350.385C-17.6983 281.086 -8.4941 171.908 37.3551 99.8377C45.7417 86.6549 90.0418 13.4871 180.081 1.75334C234.572 -5.34776 298.092 8.97443 344.09 47.3943C440.646 128.041 433.772 290.962 368.851 359.1Z" fill="#EEF2F6"/>
<path opacity="0.5" d="M182.412 293.635C182.937 294.063 182.366 294.866 181.788 294.512C160.504 281.47 76.8195 215.509 35.2752 72.794C35.1419 72.3356 35.8122 72.0961 35.9846 72.5412C48.6976 105.346 99.4563 225.958 182.412 293.635Z" fill="white"/>
<path opacity="0.5" d="M197.423 365.268C197.932 365.446 197.729 366.155 197.192 366.094C170.962 363.132 89.0617 339.322 27.3206 239.548C27.1203 239.225 27.5343 238.88 27.784 239.167C46.1972 260.317 116.908 336.993 197.423 365.268Z" fill="white"/>
<path opacity="0.5" d="M384.808 83.5853C384.806 82.9605 385.669 82.8973 385.751 83.516C388.776 106.332 390.709 204.646 317.072 317.909C316.836 318.273 316.299 317.935 316.505 317.551C331.666 289.262 385.17 182.386 384.808 83.5853Z" fill="white"/>
<path d="M325.792 401.043H107.558C105.126 401.043 103.154 399.072 103.154 396.64V13.2546C103.154 10.8228 105.126 8.85156 107.558 8.85156H325.792C328.224 8.85156 330.195 10.8229 330.195 13.2546V396.64C330.195 399.072 328.224 401.043 325.792 401.043Z" fill="url(#paint0_linear_4326_136469)"/>
<path d="M315.401 389.053H117.94C115.508 389.053 113.537 387.081 113.537 384.65V25.4452C113.537 23.0133 115.508 21.042 117.94 21.042H315.401C317.833 21.042 319.804 23.0133 319.804 25.4452V384.65C319.804 387.081 317.833 389.053 315.401 389.053Z" fill="#CDD5DF"/>
<path d="M278.158 32.3974H156.537C155.613 32.3974 154.857 31.6418 154.857 30.7182V20.5078H279.837V30.7182C279.837 31.6417 279.081 32.3974 278.158 32.3974Z" fill="url(#paint1_linear_4326_136469)"/>
<path d="M256.286 26.4533H181.323C180.985 26.4533 180.709 26.177 180.709 25.8395V22.7212C180.709 22.3837 180.985 22.1074 181.323 22.1074H256.286C256.623 22.1074 256.899 22.3837 256.899 22.7212V25.8395C256.899 26.177 256.623 26.4533 256.286 26.4533Z" fill="white"/>
<mask id="mask0_4326_136469" style="mask-type:luminance" maskUnits="userSpaceOnUse" x="115" y="31" width="203" height="350">
<path d="M312.969 380.857H120.1C117.669 380.857 115.697 378.885 115.697 376.453V35.6228C115.697 33.1909 117.669 31.2197 120.1 31.2197H312.969C315.4 31.2197 317.372 33.1911 317.372 35.6228V376.454C317.372 378.885 315.4 380.857 312.969 380.857Z" fill="white"/>
</mask>
<g mask="url(#mask0_4326_136469)">
<path opacity="0.21" d="M371.035 133.493L89.4844 65.5527L95.2264 43.085L376.777 111.025L371.035 133.493Z" fill="white"/>
</g>
<mask id="mask1_4326_136469" style="mask-type:luminance" maskUnits="userSpaceOnUse" x="115" y="31" width="203" height="350">
<path d="M312.969 380.857H120.1C117.669 380.857 115.697 378.885 115.697 376.453V35.6228C115.697 33.1909 117.669 31.2197 120.1 31.2197H312.969C315.4 31.2197 317.372 33.1911 317.372 35.6228V376.454C317.372 378.885 315.4 380.857 312.969 380.857Z" fill="white"/>
</mask>
<g mask="url(#mask1_4326_136469)">
<path opacity="0.21" d="M347.373 344.146L65.8223 276.206L83.6297 206.526L365.18 274.466L347.373 344.146Z" fill="white"/>
</g>
<mask id="mask2_4326_136469" style="mask-type:luminance" maskUnits="userSpaceOnUse" x="115" y="31" width="203" height="350">
<path d="M312.969 380.857H120.1C117.669 380.857 115.697 378.885 115.697 376.453V35.6228C115.697 33.1909 117.669 31.2197 120.1 31.2197H312.969C315.4 31.2197 317.372 33.1911 317.372 35.6228V376.454C317.372 378.885 315.4 380.857 312.969 380.857Z" fill="white"/>
</mask>
<g mask="url(#mask2_4326_136469)">
<path opacity="0.21" d="M362.744 263.126L81.1934 195.186L85.8176 177.092L367.368 245.032L362.744 263.126Z" fill="white"/>
</g>
<mask id="mask3_4326_136469" style="mask-type:luminance" maskUnits="userSpaceOnUse" x="115" y="31" width="203" height="350">
<path d="M312.969 380.857H120.1C117.669 380.857 115.697 378.885 115.697 376.453V35.6228C115.697 33.1909 117.669 31.2197 120.1 31.2197H312.969C315.4 31.2197 317.372 33.1911 317.372 35.6228V376.454C317.372 378.885 315.4 380.857 312.969 380.857Z" fill="white"/>
</mask>
<g mask="url(#mask3_4326_136469)">
<path opacity="0.21" d="M363.808 171.76L82.2578 103.82L84.9497 93.2861L366.5 161.226L363.808 171.76Z" fill="white"/>
</g>
<path d="M106.992 158.356C150.146 158.356 185.13 123.372 185.13 80.2174C185.13 37.0628 150.146 2.0791 106.992 2.0791C63.8373 2.0791 28.8535 37.0628 28.8535 80.2174C28.8535 123.372 63.8373 158.356 106.992 158.356Z" fill="#CDD5DF"/>
<path d="M107.401 150.917C146.246 150.917 177.736 119.427 177.736 80.582C177.736 41.7371 146.246 10.2471 107.401 10.2471C68.5565 10.2471 37.0664 41.7371 37.0664 80.582C37.0664 119.427 68.5565 150.917 107.401 150.917Z" fill="white"/>
<path d="M78.1274 36.891L69.37 32.6025C68.5728 32.212 67.618 32.3455 66.9583 32.9396L66.0065 33.7968L64.4681 35.1824L63.4831 36.0695C62.8234 36.6637 62.5911 37.5992 62.8963 38.4329L66.2478 47.59C66.7562 48.9792 67.9128 50.0367 69.3598 50.3447L75.2781 51.6387L113.712 94.3146L115.926 92.3202L117.464 90.9346L119.555 89.0517L81.1217 46.3758L80.4976 40.3142C80.3418 38.8431 79.456 37.5417 78.1274 36.891Z" fill="#D1AD44"/>
<path d="M77.531 37.4085L69.5942 33.4917C68.876 33.1401 67.9676 33.2063 67.3734 33.7415L66.5161 34.5136L65.1304 35.7616L64.243 36.5607C63.6489 37.0959 63.4881 37.9924 63.763 38.7433L66.806 47.0185C67.264 48.2698 68.3316 49.2236 69.6349 49.501L74.9915 50.6678L109.65 89.1522L111.618 87.3803L113.003 86.1323L115.169 84.1819L80.5104 45.6974L79.8069 40.3646C79.6669 39.0395 78.7278 37.9945 77.531 37.4085Z" fill="#D1AD44"/>
<path d="M145.127 103.477L117.803 79.0898L104.004 91.5599L125.031 120.608C127.015 123.349 129.717 125.49 132.839 126.796L141.222 130.369C142.64 130.962 144.371 130.792 145.514 129.763L151.251 124.596C152.289 123.661 152.663 122.143 152.396 120.772L150.985 113.738C150.215 109.792 148.126 106.154 145.127 103.477Z" fill="#D1AD44"/>
<path d="M119.157 77.5199C119.998 78.4546 119.923 79.8945 118.988 80.7364L105.167 93.1839C104.232 94.0255 102.792 93.9503 101.95 93.0156L101.782 92.8292C100.941 91.8946 101.016 90.4545 101.951 89.6127L115.772 77.1652C116.707 76.3235 118.147 76.3988 118.989 77.3335L119.157 77.5199Z" fill="#D1AD44"/>
<path d="M139.692 121.21C140.411 122.009 140.347 123.24 139.548 123.959L139.519 123.985C138.72 124.704 137.489 124.64 136.77 123.841L110.723 94.9188C110.003 94.1199 110.068 92.889 110.867 92.1697L110.895 92.1437C111.694 91.4242 112.925 91.4887 113.645 92.2874L126.668 106.749L139.692 121.21Z" fill="#F9F5E8"/>
<path d="M146.506 115.07C147.226 115.869 147.161 117.1 146.362 117.819L146.334 117.845C145.535 118.565 144.304 118.5 143.584 117.701L117.537 88.7791C116.818 87.9802 116.882 86.7494 117.681 86.0301L117.71 86.004C118.509 85.2846 119.74 85.349 120.459 86.1478L146.506 115.07Z" fill="#F9F5E8"/>
<path d="M59.5196 102.067L57.6761 103.785C54.5127 106.734 53.5598 110.853 55.5478 112.986L57.9114 115.522C59.8994 117.655 64.0753 116.994 67.2389 114.045L69.0824 112.327C69.2045 112.213 69.3242 112.097 69.4411 111.978L121.895 58.6779L116.745 53.1533L59.893 101.734C59.7664 101.842 59.6417 101.953 59.5196 102.067ZM62.0576 104.499C64.4394 102.28 67.4392 101.627 68.7583 103.042C70.0773 104.458 69.2159 107.404 66.8342 109.624C64.4524 111.844 61.4524 112.496 60.1334 111.081C58.8145 109.666 59.6759 106.719 62.0576 104.499Z" fill="#D1AD44"/>
<path d="M132.831 32.9594L122.134 42.9294C121.373 43.6392 120.984 44.6624 121.081 45.6989L121.582 51.0123C121.725 52.5289 122.872 53.7591 124.374 54.0081L129.639 54.8807C130.667 55.0509 131.715 54.7348 132.476 54.0248L143.173 44.0548C144.786 42.5509 147.454 43.6315 147.514 45.8363C147.657 51.1109 145.561 56.4975 141.305 60.4643C133.613 67.6342 122.73 66.5682 115.834 59.169C108.937 51.7698 108.638 40.8394 116.331 33.6693C120.587 29.7025 126.108 27.9902 131.359 28.5039C133.554 28.7189 134.445 31.4554 132.831 32.9594Z" fill="#D1AD44"/>
<path d="M133.761 33.968L123.064 43.938C122.303 44.6478 121.914 45.6711 122.011 46.7075L122.512 52.0209C122.655 53.5375 123.801 54.7678 125.304 55.0168L130.569 55.8893C131.596 56.0596 132.644 55.7434 133.406 55.0335L144.103 45.0635C145.716 43.5595 148.384 44.6401 148.443 46.845C148.587 52.1196 146.491 57.5061 142.235 61.4729C134.543 68.6428 123.66 67.5768 116.764 60.1777C109.867 52.7785 109.568 41.848 117.261 34.6781C121.517 30.7112 127.037 28.999 132.289 29.5127C134.484 29.7275 135.374 32.4642 133.761 33.968Z" fill="#CDD5DF"/>
<path d="M60.2618 102.871L58.4182 104.59C55.2549 107.538 54.302 111.658 56.29 113.791L58.6535 116.326C60.6416 118.459 64.8175 117.798 67.981 114.85L69.8246 113.131C69.9467 113.017 70.0664 112.901 70.1833 112.782L122.637 59.4825L117.488 53.958L60.6351 102.538C60.5084 102.647 60.3839 102.758 60.2618 102.871ZM62.7997 105.304C65.1814 103.084 68.1814 102.432 69.5003 103.847C70.8194 105.262 69.958 108.209 67.5762 110.429C65.1945 112.649 62.1945 113.301 60.8754 111.886C59.5565 110.471 60.4181 107.524 62.7997 105.304Z" fill="#CDD5DF"/>
<path d="M232.397 93.442C253.094 97.0705 274.487 98.0287 295.168 93.7708C304.534 91.8425 313.668 88.859 322.361 84.8738C335.821 78.7037 351.714 71.6333 353.74 54.9557C354.873 45.6352 348.178 41.0785 339.988 39.4713C337.225 38.9289 334.421 38.5751 331.67 39.3703C329.089 40.1166 329.536 41.1253 329.729 43.5814C329.93 46.1362 330.129 48.691 330.328 51.2462C330.676 55.7152 324.009 57.8363 320.813 59.691C313.255 64.0782 305.263 67.6981 296.917 70.306C276.967 76.5395 255.74 76.767 235.131 74.3906C228.33 73.6065 222.918 79.9988 224.788 86.5851C225.797 90.1413 228.756 92.8035 232.397 93.442Z" fill="#D1AD44"/>
<path d="M249.25 113.93L206.68 84.0044C205.383 83.093 205.528 81.1277 206.945 80.4165L251.684 57.9515C253.349 57.1157 255.296 58.3867 255.201 60.2469C249.818 78.8983 249.211 96.1778 252.538 112.327C252.454 113.969 250.595 114.876 249.25 113.93Z" fill="#D1AD44"/>
<path d="M209.175 357.126C189.787 365.225 169.13 370.873 148.02 371.276C138.459 371.459 128.892 370.561 119.534 368.589C105.046 365.536 87.9855 362.141 82.3352 346.319C79.1774 337.477 84.7036 331.558 92.3377 328.186C95.9155 326.605 99.8457 325.221 103.671 326.037C102.476 329.603 101.22 336.651 104.051 339.613C106.07 341.726 112.69 342.804 115.495 343.684C123.835 346.298 132.428 348.068 141.144 348.773C161.977 350.458 182.732 346.004 202.311 339.145C208.773 336.882 215.46 341.925 215.087 348.761C214.886 352.452 212.587 355.701 209.175 357.126Z" fill="#D1AD44"/>
<path d="M195.92 380.742L230.851 342.173C231.915 340.998 231.341 339.113 229.803 338.731L181.213 326.675C179.405 326.227 177.785 327.896 178.288 329.689C187.648 346.696 192.047 363.417 192.36 379.903C192.803 381.486 194.817 381.961 195.92 380.742Z" fill="#D1AD44"/>
<path d="M288.391 147.861C288.262 147.861 288.133 147.808 288.041 147.704C287.63 147.24 287.214 146.783 286.792 146.333C286.616 146.144 286.626 145.849 286.814 145.672C287.002 145.495 287.298 145.505 287.474 145.694C287.902 146.151 288.324 146.615 288.74 147.084C288.911 147.277 288.894 147.572 288.701 147.744C288.612 147.822 288.501 147.861 288.391 147.861Z" fill="white"/>
<path d="M236.831 262.509C236.295 262.509 235.759 262.503 235.224 262.49C234.966 262.484 234.762 262.27 234.768 262.012C234.774 261.758 234.982 261.556 235.235 261.556C235.238 261.556 235.242 261.556 235.246 261.556C236.499 261.585 237.766 261.58 239.025 261.54C239.265 261.519 239.499 261.733 239.507 261.992C239.515 262.249 239.313 262.465 239.055 262.473C238.316 262.497 237.568 262.509 236.831 262.509ZM245.203 261.995C244.97 261.995 244.769 261.821 244.74 261.584C244.708 261.328 244.89 261.096 245.146 261.064C246.391 260.91 247.648 260.719 248.882 260.497C249.138 260.454 249.379 260.62 249.425 260.874C249.47 261.127 249.302 261.371 249.048 261.416C247.796 261.642 246.522 261.835 245.26 261.991C245.241 261.994 245.222 261.995 245.203 261.995ZM254.992 260.054C254.787 260.054 254.599 259.918 254.542 259.71C254.474 259.462 254.621 259.204 254.869 259.136C256.074 258.805 257.291 258.434 258.485 258.034C258.73 257.953 258.994 258.084 259.076 258.328C259.158 258.573 259.026 258.838 258.782 258.92C257.571 259.325 256.338 259.701 255.117 260.037C255.075 260.048 255.034 260.054 254.992 260.054ZM264.402 256.722C264.222 256.722 264.051 256.618 263.974 256.442C263.87 256.206 263.978 255.93 264.215 255.827C265.368 255.323 266.519 254.782 267.635 254.221C267.866 254.105 268.147 254.198 268.262 254.428C268.378 254.659 268.286 254.939 268.055 255.055C266.923 255.625 265.757 256.172 264.589 256.683C264.528 256.709 264.465 256.722 264.402 256.722ZM273.237 252.083C273.08 252.083 272.928 252.004 272.839 251.862C272.703 251.643 272.77 251.355 272.989 251.219C274.056 250.556 275.117 249.856 276.143 249.137C276.354 248.99 276.646 249.041 276.794 249.252C276.941 249.463 276.89 249.754 276.679 249.902C275.639 250.631 274.564 251.341 273.483 252.012C273.406 252.06 273.321 252.083 273.237 252.083ZM281.307 246.215C281.174 246.215 281.042 246.159 280.95 246.05C280.783 245.853 280.808 245.558 281.005 245.391C281.964 244.58 282.911 243.734 283.819 242.876C284.006 242.698 284.302 242.706 284.479 242.894C284.657 243.082 284.648 243.377 284.461 243.555C283.54 244.425 282.581 245.283 281.608 246.105C281.52 246.179 281.413 246.215 281.307 246.215ZM288.434 239.241C288.324 239.241 288.214 239.203 288.125 239.124C287.931 238.954 287.913 238.658 288.084 238.465C288.914 237.525 289.728 236.549 290.504 235.567C290.663 235.364 290.958 235.329 291.16 235.489C291.362 235.649 291.397 235.943 291.237 236.145C290.451 237.142 289.625 238.13 288.784 239.083C288.692 239.188 288.563 239.241 288.434 239.241ZM294.476 231.306C294.389 231.306 294.3 231.281 294.221 231.229C294.005 231.088 293.945 230.799 294.086 230.583C294.77 229.535 295.436 228.452 296.063 227.364C296.192 227.141 296.478 227.064 296.701 227.192C296.925 227.322 297.001 227.607 296.873 227.831C296.236 228.933 295.562 230.031 294.868 231.094C294.778 231.231 294.629 231.306 294.476 231.306ZM299.314 222.579C299.249 222.579 299.182 222.566 299.118 222.536C298.884 222.428 298.782 222.15 298.89 221.916C299.419 220.774 299.923 219.606 300.385 218.445C300.48 218.206 300.753 218.089 300.992 218.185C301.231 218.28 301.348 218.552 301.253 218.791C300.784 219.968 300.274 221.151 299.738 222.309C299.659 222.479 299.49 222.579 299.314 222.579ZM302.849 213.247C302.805 213.247 302.76 213.241 302.716 213.227C302.469 213.154 302.328 212.893 302.402 212.646C302.761 211.444 303.091 210.216 303.383 208.997C303.443 208.746 303.696 208.592 303.946 208.651C304.197 208.712 304.351 208.964 304.292 209.215C303.995 210.45 303.661 211.694 303.297 212.914C303.236 213.116 303.051 213.247 302.849 213.247ZM305.007 203.502C304.984 203.502 304.962 203.5 304.939 203.497C304.683 203.459 304.507 203.222 304.544 202.967C304.726 201.726 304.876 200.463 304.989 199.213C305.012 198.956 305.236 198.76 305.496 198.79C305.753 198.813 305.942 199.04 305.919 199.297C305.805 200.565 305.653 201.845 305.469 203.102C305.434 203.335 305.235 203.502 305.007 203.502ZM305.732 193.546C305.474 193.546 305.265 193.337 305.265 193.079C305.265 191.819 305.229 190.548 305.16 189.302C305.145 189.044 305.343 188.824 305.6 188.81C305.85 188.8 306.078 188.992 306.092 189.25C306.163 190.513 306.199 191.802 306.2 193.079C306.199 193.337 305.991 193.546 305.732 193.546ZM305.004 183.592C304.776 183.592 304.576 183.425 304.542 183.193C304.359 181.949 304.139 180.697 303.888 179.47C303.837 179.218 304 178.971 304.253 178.919C304.503 178.867 304.752 179.03 304.804 179.284C305.058 180.527 305.281 181.796 305.467 183.056C305.504 183.312 305.327 183.549 305.073 183.587C305.049 183.59 305.026 183.592 305.004 183.592ZM302.837 173.849C302.636 173.849 302.451 173.719 302.39 173.517C302.028 172.311 301.629 171.103 301.205 169.927C301.117 169.685 301.242 169.417 301.485 169.329C301.727 169.24 301.996 169.367 302.083 169.61C302.513 170.802 302.917 172.026 303.285 173.248C303.359 173.495 303.219 173.755 302.972 173.83C302.927 173.843 302.882 173.849 302.837 173.849ZM299.291 164.52C299.115 164.52 298.946 164.42 298.867 164.249C298.339 163.111 297.772 161.973 297.184 160.866C297.062 160.638 297.149 160.355 297.376 160.234C297.602 160.113 297.886 160.199 298.008 160.427C298.605 161.549 299.179 162.702 299.715 163.856C299.823 164.09 299.722 164.368 299.487 164.476C299.424 164.506 299.357 164.52 299.291 164.52ZM294.449 155.793C294.296 155.793 294.147 155.718 294.057 155.581C293.374 154.535 292.649 153.491 291.903 152.477C291.75 152.27 291.795 151.977 292.002 151.824C292.212 151.671 292.503 151.716 292.656 151.923C293.412 152.951 294.147 154.009 294.839 155.071C294.98 155.287 294.92 155.576 294.704 155.717C294.625 155.769 294.536 155.793 294.449 155.793Z" fill="white"/>
<path d="M229.021 262.064C229.003 262.064 228.985 262.063 228.967 262.061C228.344 261.99 227.722 261.91 227.102 261.822C226.847 261.786 226.669 261.549 226.706 261.294C226.742 261.039 226.974 260.861 227.234 260.897C227.845 260.984 228.459 261.062 229.073 261.133C229.33 261.162 229.513 261.394 229.484 261.65C229.457 261.888 229.255 262.064 229.021 262.064Z" fill="white"/>
<path d="M182.661 236.247C182.523 236.247 182.386 236.186 182.294 236.069C181.907 235.578 181.526 235.079 181.151 234.575C180.997 234.368 181.04 234.076 181.247 233.922C181.454 233.767 181.746 233.811 181.9 234.017C182.27 234.514 182.646 235.006 183.028 235.491C183.187 235.693 183.153 235.987 182.95 236.147C182.864 236.214 182.763 236.247 182.661 236.247Z" fill="white"/>
<path d="M178.117 229.728C177.959 229.728 177.806 229.649 177.718 229.505C177.066 228.445 176.432 227.346 175.833 226.24C175.71 226.014 175.794 225.73 176.021 225.607C176.248 225.484 176.531 225.568 176.654 225.795C177.246 226.886 177.871 227.97 178.514 229.016C178.649 229.236 178.58 229.524 178.361 229.659C178.285 229.706 178.2 229.728 178.117 229.728ZM173.582 221.015C173.402 221.015 173.23 220.91 173.154 220.734C173.044 220.482 172.937 220.229 172.83 219.976C172.453 219.079 172.088 218.158 171.746 217.237C171.656 216.994 171.779 216.726 172.02 216.636C172.265 216.545 172.532 216.669 172.621 216.91C172.96 217.82 173.319 218.729 173.691 219.614C173.796 219.864 173.903 220.113 174.01 220.361C174.113 220.598 174.005 220.873 173.768 220.976C173.707 221.002 173.644 221.015 173.582 221.015ZM170.315 211.751C170.11 211.751 169.922 211.614 169.865 211.407C169.533 210.198 169.23 208.966 168.966 207.746C168.911 207.493 169.071 207.245 169.323 207.19C169.575 207.134 169.824 207.295 169.878 207.547C170.139 208.752 170.438 209.967 170.766 211.16C170.834 211.409 170.688 211.666 170.439 211.734C170.398 211.745 170.356 211.751 170.315 211.751ZM168.396 202.117C168.164 202.117 167.963 201.944 167.933 201.708C167.777 200.463 167.654 199.201 167.566 197.956C167.549 197.699 167.743 197.475 168 197.457C168.254 197.447 168.48 197.633 168.499 197.891C168.585 199.119 168.706 200.364 168.86 201.592C168.892 201.848 168.71 202.081 168.454 202.113C168.435 202.116 168.415 202.117 168.396 202.117ZM167.877 192.306C167.874 192.306 167.872 192.306 167.869 192.306C167.611 192.301 167.405 192.088 167.41 191.83C167.434 190.579 167.493 189.311 167.585 188.063C167.604 187.805 167.828 187.613 168.085 187.631C168.343 187.65 168.536 187.874 168.517 188.131C168.426 189.363 168.368 190.613 168.345 191.848C168.34 192.103 168.131 192.306 167.877 192.306ZM168.766 182.522C168.741 182.522 168.716 182.52 168.69 182.516C168.435 182.474 168.263 182.234 168.305 181.98C168.506 180.745 168.744 179.499 169.013 178.276C169.069 178.024 169.318 177.868 169.57 177.92C169.822 177.976 169.981 178.225 169.926 178.477C169.661 179.683 169.425 180.912 169.226 182.13C169.189 182.359 168.991 182.522 168.766 182.522ZM171.035 172.966C170.989 172.966 170.942 172.959 170.895 172.944C170.649 172.867 170.512 172.605 170.589 172.358C170.963 171.166 171.376 169.967 171.816 168.794C171.906 168.552 172.176 168.429 172.417 168.52C172.658 168.611 172.781 168.88 172.69 169.121C172.257 170.279 171.85 171.462 171.48 172.638C171.418 172.838 171.234 172.966 171.035 172.966ZM174.632 163.828C174.565 163.828 174.496 163.813 174.431 163.782C174.199 163.67 174.1 163.392 174.211 163.159C174.753 162.025 175.331 160.896 175.929 159.805C176.052 159.578 176.336 159.495 176.562 159.619C176.789 159.743 176.872 160.027 176.748 160.253C176.159 161.33 175.589 162.443 175.054 163.562C174.974 163.73 174.807 163.828 174.632 163.828ZM179.485 155.291C179.396 155.291 179.306 155.265 179.227 155.212C179.012 155.069 178.954 154.779 179.097 154.565C179.791 153.523 180.523 152.488 181.271 151.488C181.425 151.282 181.718 151.239 181.925 151.394C182.131 151.548 182.174 151.841 182.019 152.048C181.281 153.034 180.559 154.056 179.874 155.082C179.784 155.218 179.636 155.291 179.485 155.291ZM185.499 147.532C185.388 147.532 185.276 147.493 185.187 147.413C184.995 147.241 184.978 146.945 185.151 146.753C185.983 145.824 186.855 144.904 187.741 144.018C187.922 143.836 188.219 143.836 188.401 144.018C188.584 144.201 188.584 144.496 188.401 144.678C187.527 145.552 186.668 146.46 185.846 147.377C185.754 147.479 185.627 147.532 185.499 147.532ZM192.555 140.712C192.422 140.712 192.29 140.655 192.197 140.545C192.032 140.347 192.058 140.052 192.256 139.887C193.216 139.083 194.21 138.297 195.208 137.551C195.415 137.397 195.707 137.439 195.862 137.646C196.016 137.853 195.974 138.145 195.767 138.3C194.782 139.036 193.802 139.811 192.855 140.603C192.767 140.676 192.661 140.712 192.555 140.712ZM200.517 134.971C200.36 134.971 200.207 134.893 200.119 134.749C199.983 134.53 200.051 134.242 200.271 134.107C201.334 133.45 202.431 132.813 203.53 132.215C203.755 132.091 204.04 132.174 204.164 132.401C204.287 132.628 204.204 132.912 203.977 133.035C202.893 133.626 201.811 134.254 200.761 134.902C200.685 134.949 200.6 134.971 200.517 134.971ZM209.216 130.42C209.036 130.42 208.864 130.315 208.787 130.14C208.684 129.903 208.792 129.628 209.029 129.525C209.328 129.394 209.628 129.266 209.931 129.139C210.789 128.778 211.661 128.432 212.524 128.109C212.765 128.02 213.035 128.141 213.125 128.383C213.215 128.625 213.092 128.893 212.851 128.984C212 129.303 211.139 129.644 210.293 130C209.995 130.125 209.698 130.252 209.402 130.381C209.342 130.408 209.278 130.42 209.216 130.42ZM218.472 127.132C218.268 127.132 218.08 126.997 218.023 126.79C217.954 126.541 218.1 126.284 218.348 126.215C219.558 125.88 220.789 125.574 222.007 125.307C222.26 125.252 222.508 125.41 222.564 125.663C222.619 125.915 222.46 126.164 222.208 126.22C221.005 126.483 219.791 126.785 218.598 127.115C218.556 127.127 218.514 127.132 218.472 127.132ZM228.101 125.192C227.87 125.192 227.669 125.02 227.639 124.784C227.606 124.528 227.787 124.294 228.043 124.261C229.281 124.103 230.543 123.977 231.794 123.887C232.052 123.861 232.275 124.061 232.294 124.318C232.312 124.576 232.119 124.799 231.862 124.818C230.628 124.907 229.383 125.032 228.161 125.188C228.141 125.19 228.121 125.192 228.101 125.192ZM241.65 124.815C241.639 124.815 241.627 124.814 241.616 124.813C240.385 124.725 239.135 124.67 237.901 124.65C237.643 124.646 237.438 124.433 237.442 124.175C237.446 123.92 237.654 123.716 237.909 123.716C237.911 123.716 237.914 123.716 237.917 123.716C239.167 123.736 240.435 123.792 241.683 123.882C241.94 123.9 242.134 124.123 242.115 124.381C242.098 124.627 241.893 124.815 241.65 124.815Z" fill="white"/>
<path d="M249.578 125.846C249.549 125.846 249.52 125.844 249.491 125.838C248.884 125.724 248.275 125.616 247.664 125.518C247.409 125.477 247.237 125.237 247.277 124.982C247.319 124.727 247.558 124.557 247.813 124.595C248.432 124.696 249.049 124.804 249.665 124.921C249.918 124.968 250.085 125.212 250.037 125.466C249.994 125.69 249.798 125.846 249.578 125.846Z" fill="white"/>
<path d="M253.085 142.734C252.763 142.591 252.385 142.667 252.144 142.925L245.269 150.279C240.652 149.393 235.861 149.237 231.067 149.891L224.602 142.182C224.376 141.912 224.002 141.815 223.673 141.941L212.396 146.26C212.066 146.387 211.853 146.708 211.865 147.06L212.204 157.115C208.199 159.831 204.738 163.148 201.894 166.891L191.865 166.01C191.513 165.98 191.181 166.175 191.037 166.497L186.117 177.525C185.973 177.847 186.05 178.225 186.308 178.466L193.662 185.341C192.776 189.958 192.62 194.75 193.274 199.544L185.565 206.008C185.295 206.235 185.198 206.608 185.324 206.938L189.643 218.215C189.769 218.544 190.091 218.757 190.443 218.745L200.499 218.407C203.214 222.411 206.53 225.873 210.274 228.717L209.393 238.746C209.363 239.097 209.558 239.429 209.88 239.573L220.908 244.493C221.23 244.637 221.608 244.561 221.849 244.303L228.724 236.948C233.341 237.834 238.133 237.99 242.927 237.336L249.391 245.045C249.618 245.316 249.991 245.412 250.321 245.286L261.598 240.967C261.927 240.841 262.14 240.52 262.128 240.167L261.789 230.112C265.794 227.397 269.256 224.08 272.1 220.336L282.128 221.217C282.48 221.248 282.812 221.052 282.956 220.73L287.876 209.702C288.02 209.38 287.944 209.002 287.686 208.761L280.332 201.886C281.217 197.269 281.373 192.477 280.719 187.684L288.428 181.219C288.699 180.993 288.796 180.619 288.669 180.29L284.35 169.013C284.224 168.684 283.903 168.47 283.55 168.482L273.495 168.821C270.78 164.817 267.463 161.355 263.719 158.511L264.6 148.482C264.631 148.131 264.435 147.798 264.113 147.654L253.085 142.734Z" fill="#DDC173"/>
<path opacity="0.7" d="M237.023 205.04C236.364 205.04 235.701 204.983 235.039 204.867C232.033 204.344 229.411 202.681 227.655 200.186C225.9 197.69 225.221 194.66 225.744 191.654C226.268 188.648 227.93 186.026 230.426 184.27C235.579 180.647 242.717 181.889 246.341 187.041C248.097 189.537 248.775 192.567 248.252 195.573C247.729 198.579 246.066 201.201 243.57 202.957C241.624 204.325 239.354 205.04 237.023 205.04ZM236.985 183.596C234.992 183.596 232.982 184.186 231.232 185.417C229.042 186.956 227.584 189.257 227.125 191.894C226.666 194.532 227.261 197.19 228.802 199.379C230.342 201.569 232.642 203.027 235.28 203.487C237.917 203.946 240.575 203.35 242.764 201.81C244.954 200.27 246.413 197.97 246.872 195.332C247.331 192.695 246.736 190.037 245.195 187.847C243.247 185.078 240.139 183.596 236.985 183.596Z" fill="white"/>
<path opacity="0.7" d="M236.936 223.696C224.926 223.696 213.582 216.395 209.037 204.528C207.697 201.029 207.062 197.429 207.063 193.887C207.064 181.88 214.366 170.536 226.231 165.992C226.642 165.834 227.056 165.686 227.473 165.547C228.889 165.074 230.337 164.708 231.796 164.453C231.987 164.42 232.178 164.388 232.369 164.358L232.583 165.744C230.597 166.05 228.628 166.574 226.732 167.3C212.089 172.909 204.738 189.384 210.346 204.027C215.954 218.67 232.431 226.021 247.073 220.413C254.166 217.696 259.777 212.38 262.872 205.443C264.525 201.738 265.354 197.807 265.354 193.867C265.354 190.432 264.724 186.991 263.458 183.686C261.615 178.872 258.507 174.655 254.473 171.491L255.337 170.389C259.572 173.709 262.832 178.134 264.767 183.185C266.095 186.652 266.756 190.264 266.756 193.868C266.756 198.001 265.886 202.126 264.151 206.014C260.904 213.293 255.017 218.871 247.573 221.721C244.075 223.061 240.476 223.696 236.936 223.696Z" fill="white"/>
<path d="M187.044 239.04C186.914 239.04 186.785 238.986 186.693 238.88C186.289 238.418 185.87 237.96 185.447 237.519C185.268 237.333 185.274 237.038 185.46 236.859C185.646 236.68 185.942 236.686 186.121 236.872C186.554 237.323 186.984 237.792 187.396 238.266C187.566 238.46 187.546 238.755 187.352 238.925C187.263 239.003 187.153 239.04 187.044 239.04Z" fill="white"/>
<path d="M160.539 303.573C160.297 303.573 160.092 303.386 160.074 303.141C160.054 302.883 160.247 302.659 160.504 302.64C161.704 302.551 162.91 302.404 164.088 302.204C164.345 302.159 164.584 302.332 164.627 302.586C164.67 302.84 164.499 303.081 164.245 303.124C163.037 303.33 161.802 303.48 160.574 303.571C160.562 303.573 160.551 303.573 160.539 303.573ZM169.923 301.693C169.727 301.693 169.545 301.569 169.48 301.373C169.398 301.128 169.531 300.863 169.776 300.782C170.874 300.417 171.975 299.996 173.046 299.529L173.145 299.486C173.382 299.381 173.657 299.49 173.761 299.725C173.865 299.961 173.758 300.237 173.522 300.341L173.419 300.386C172.322 300.864 171.195 301.295 170.071 301.669C170.021 301.685 169.972 301.693 169.923 301.693ZM178.572 297.595C178.417 297.595 178.266 297.518 178.177 297.378C178.039 297.16 178.103 296.871 178.322 296.733C179.334 296.091 180.329 295.394 181.276 294.66C181.48 294.503 181.773 294.54 181.932 294.744C182.089 294.948 182.052 295.241 181.848 295.399C180.877 296.15 179.859 296.865 178.822 297.522C178.744 297.571 178.658 297.595 178.572 297.595ZM185.961 291.514C185.846 291.514 185.73 291.472 185.64 291.386C185.453 291.209 185.445 290.913 185.622 290.726C186.447 289.855 187.24 288.936 187.977 287.994C188.136 287.79 188.429 287.755 188.633 287.914C188.836 288.073 188.872 288.367 188.713 288.57C187.957 289.535 187.146 290.476 186.3 291.369C186.208 291.465 186.085 291.514 185.961 291.514ZM191.636 283.814C191.559 283.814 191.48 283.795 191.408 283.754C191.183 283.628 191.103 283.343 191.23 283.118C191.817 282.073 192.362 280.988 192.85 279.892C192.955 279.657 193.23 279.55 193.467 279.656C193.702 279.761 193.808 280.037 193.703 280.272C193.204 281.394 192.646 282.505 192.044 283.576C191.958 283.728 191.8 283.814 191.636 283.814ZM195.274 274.962C195.232 274.962 195.191 274.957 195.149 274.945C194.901 274.877 194.754 274.62 194.822 274.371C195.14 273.216 195.406 272.031 195.613 270.849C195.658 270.595 195.902 270.43 196.155 270.469C196.409 270.514 196.578 270.756 196.534 271.011C196.321 272.221 196.048 273.435 195.723 274.619C195.666 274.826 195.478 274.962 195.274 274.962ZM196.654 265.492C196.651 265.492 196.648 265.492 196.644 265.492C196.386 265.486 196.181 265.273 196.187 265.015C196.193 264.741 196.196 264.466 196.196 264.192C196.196 263.264 196.162 262.326 196.094 261.404C196.075 261.147 196.269 260.923 196.526 260.905C196.773 260.882 197.007 261.08 197.026 261.336C197.095 262.281 197.13 263.241 197.13 264.192C197.13 264.473 197.127 264.754 197.121 265.035C197.116 265.289 196.907 265.492 196.654 265.492ZM195.675 255.97C195.463 255.97 195.271 255.824 195.221 255.608C194.95 254.438 194.622 253.268 194.245 252.132C194.164 251.887 194.297 251.623 194.542 251.541C194.788 251.463 195.052 251.593 195.133 251.838C195.518 253.001 195.854 254.199 196.131 255.398C196.189 255.649 196.032 255.9 195.781 255.958C195.745 255.966 195.71 255.97 195.675 255.97ZM192.404 246.975C192.233 246.975 192.069 246.882 191.987 246.72C191.442 245.649 190.842 244.594 190.202 243.581C190.064 243.363 190.129 243.075 190.347 242.937C190.566 242.8 190.854 242.864 190.992 243.082C191.647 244.119 192.262 245.201 192.819 246.296C192.937 246.526 192.845 246.807 192.615 246.924C192.547 246.959 192.475 246.975 192.404 246.975Z" fill="white"/>
<path d="M154.585 303.554C154.572 303.554 154.56 303.554 154.547 303.553C153.918 303.503 153.285 303.437 152.667 303.357C152.411 303.324 152.231 303.09 152.264 302.834C152.297 302.579 152.523 302.398 152.787 302.431C153.39 302.508 154.007 302.572 154.622 302.622C154.879 302.642 155.07 302.867 155.05 303.125C155.03 303.369 154.826 303.554 154.585 303.554Z" fill="white"/>
<path d="M127.366 289.222C127.23 289.222 127.095 289.162 127.002 289.048C126.603 288.554 126.215 288.05 125.85 287.55C125.698 287.342 125.743 287.05 125.951 286.898C126.16 286.745 126.452 286.791 126.604 286.998C126.961 287.486 127.339 287.978 127.729 288.461C127.892 288.662 127.86 288.956 127.659 289.118C127.573 289.188 127.469 289.222 127.366 289.222Z" fill="white"/>
<path d="M123.138 282.785C122.969 282.785 122.807 282.693 122.723 282.534C122.284 281.694 121.871 280.831 121.495 279.968C121.39 279.725 121.286 279.481 121.186 279.236C121.088 278.997 121.202 278.725 121.44 278.627C121.677 278.53 121.951 278.642 122.05 278.882C122.148 279.12 122.248 279.358 122.352 279.595C122.719 280.438 123.122 281.281 123.551 282.102C123.671 282.33 123.582 282.612 123.353 282.732C123.285 282.768 123.21 282.785 123.138 282.785ZM119.799 273.978C119.589 273.978 119.398 273.836 119.346 273.623C119.057 272.451 118.818 271.25 118.639 270.055C118.6 269.799 118.776 269.561 119.031 269.523C119.288 269.487 119.524 269.661 119.562 269.915C119.738 271.083 119.97 272.255 120.253 273.399C120.315 273.65 120.162 273.903 119.911 273.965C119.873 273.974 119.836 273.978 119.799 273.978ZM118.67 264.629C118.67 264.629 118.67 264.629 118.669 264.629C118.411 264.629 118.203 264.419 118.203 264.161C118.205 262.951 118.264 261.728 118.378 260.526C118.402 260.27 118.626 260.076 118.887 260.105C119.144 260.13 119.333 260.358 119.308 260.615C119.197 261.788 119.14 262.981 119.138 264.163C119.137 264.42 118.928 264.629 118.67 264.629ZM119.828 255.283C119.791 255.283 119.753 255.279 119.715 255.27C119.465 255.207 119.312 254.954 119.374 254.703C119.666 253.533 120.016 252.36 120.415 251.218C120.5 250.974 120.766 250.846 121.01 250.931C121.253 251.016 121.382 251.282 121.297 251.526C120.907 252.641 120.566 253.786 120.281 254.929C120.228 255.141 120.037 255.283 119.828 255.283ZM123.183 246.486C123.11 246.486 123.035 246.468 122.966 246.432C122.738 246.311 122.65 246.029 122.771 245.801C123.336 244.727 123.955 243.672 124.612 242.664C124.752 242.448 125.043 242.387 125.258 242.528C125.474 242.669 125.535 242.958 125.395 243.174C124.754 244.158 124.149 245.188 123.597 246.236C123.513 246.395 123.351 246.486 123.183 246.486ZM128.543 238.746C128.433 238.746 128.321 238.707 128.233 238.628C128.04 238.456 128.022 238.161 128.194 237.968C128.997 237.065 129.851 236.19 130.733 235.366C130.921 235.19 131.216 235.199 131.393 235.389C131.569 235.577 131.559 235.873 131.371 236.049C130.51 236.852 129.676 237.707 128.892 238.589C128.8 238.693 128.672 238.746 128.543 238.746ZM135.607 232.524C135.458 232.524 135.312 232.453 135.221 232.32C135.076 232.108 135.13 231.817 135.343 231.671C136.337 230.991 137.378 230.347 138.436 229.758C138.662 229.633 138.947 229.713 139.071 229.939C139.197 230.164 139.116 230.448 138.89 230.574C137.857 231.149 136.841 231.778 135.871 232.442C135.79 232.497 135.698 232.524 135.607 232.524ZM143.96 228.179C143.772 228.179 143.594 228.063 143.523 227.876C143.432 227.635 143.554 227.365 143.796 227.275C144.927 226.849 146.091 226.47 147.255 226.15C147.503 226.081 147.761 226.227 147.83 226.476C147.898 226.725 147.752 226.982 147.503 227.051C146.366 227.364 145.23 227.733 144.125 228.149C144.071 228.169 144.015 228.179 143.96 228.179ZM153.109 225.948C152.876 225.948 152.674 225.773 152.646 225.536C152.615 225.279 152.798 225.047 153.054 225.017C154.252 224.875 155.474 224.788 156.685 224.758C156.931 224.754 157.157 224.956 157.163 225.214C157.169 225.472 156.965 225.686 156.707 225.692C155.526 225.721 154.334 225.806 153.164 225.944C153.146 225.947 153.127 225.948 153.109 225.948Z" fill="white"/>
<path d="M164.388 226.27C164.361 226.27 164.334 226.268 164.306 226.263C163.711 226.158 163.098 226.065 162.482 225.986C162.226 225.954 162.045 225.72 162.078 225.464C162.11 225.208 162.344 225.029 162.6 225.06C163.23 225.14 163.858 225.235 164.468 225.343C164.722 225.388 164.892 225.63 164.847 225.884C164.808 226.11 164.61 226.27 164.388 226.27Z" fill="white"/>
<path d="M166.513 235.594C166.33 235.515 166.117 235.561 165.982 235.709L162.148 239.92C159.529 239.453 156.817 239.401 154.11 239.807L150.396 235.494C150.266 235.342 150.054 235.29 149.869 235.364L143.521 237.891C143.336 237.965 143.218 238.148 143.227 238.348L143.493 244.033C141.248 245.599 139.315 247.501 137.734 249.64L132.054 249.217C131.855 249.202 131.668 249.315 131.589 249.498L128.888 255.773C128.809 255.957 128.855 256.17 129.003 256.304L133.214 260.139C132.747 262.757 132.695 265.469 133.101 268.176L128.788 271.89C128.636 272.021 128.584 272.233 128.658 272.418L131.185 278.765C131.259 278.951 131.443 279.069 131.642 279.06L137.328 278.793C138.893 281.038 140.796 282.972 142.935 284.553L142.511 290.233C142.496 290.432 142.609 290.619 142.793 290.697L149.068 293.399C149.251 293.478 149.464 293.432 149.599 293.284L153.433 289.072C156.052 289.54 158.763 289.592 161.47 289.186L165.185 293.499C165.315 293.65 165.527 293.702 165.712 293.629L172.06 291.102C172.245 291.028 172.363 290.845 172.354 290.645L172.087 284.959C174.333 283.394 176.266 281.492 177.847 279.353L183.527 279.776C183.726 279.791 183.913 279.678 183.992 279.495L186.693 273.22C186.772 273.036 186.726 272.823 186.578 272.689L182.367 268.854C182.834 266.236 182.886 263.524 182.481 260.817L186.794 257.103C186.945 256.973 186.997 256.761 186.923 256.575L184.396 250.228C184.322 250.042 184.139 249.924 183.939 249.933L178.254 250.2C176.688 247.955 174.786 246.021 172.647 244.44L173.071 238.76C173.086 238.561 172.972 238.375 172.789 238.296L166.513 235.594Z" fill="#DDC173"/>
<path opacity="0.7" d="M157.802 271.26C155.703 271.26 153.632 270.289 152.311 268.462C151.251 266.997 150.826 265.208 151.113 263.423C151.399 261.638 152.364 260.072 153.828 259.013C155.293 257.954 157.08 257.528 158.867 257.815C160.652 258.102 162.218 259.066 163.277 260.53C164.336 261.995 164.762 263.784 164.475 265.569C164.188 267.353 163.224 268.919 161.76 269.979C160.564 270.844 159.177 271.26 157.802 271.26ZM157.782 259.129C156.662 259.129 155.574 259.48 154.649 260.149C153.488 260.989 152.723 262.231 152.496 263.645C152.269 265.061 152.606 266.479 153.446 267.64C154.286 268.802 155.528 269.566 156.943 269.794C158.358 270.02 159.778 269.683 160.939 268.843C162.1 268.003 162.865 266.762 163.092 265.347C163.319 263.932 162.982 262.513 162.142 261.352C161.302 260.191 160.06 259.426 158.644 259.199C158.357 259.152 158.068 259.129 157.782 259.129Z" fill="white"/>
<path opacity="0.7" d="M157.737 281.829C155.431 281.829 153.128 281.359 150.945 280.419C146.729 278.604 143.472 275.256 141.774 270.991C140.946 268.912 140.555 266.766 140.555 264.655C140.555 257.822 144.658 251.345 151.383 248.667H151.384C152.45 248.243 153.558 247.925 154.68 247.72C154.755 247.706 154.831 247.693 154.906 247.681L155.139 249.062C154.037 249.248 152.948 249.553 151.902 249.969H151.902C143.816 253.189 139.857 262.387 143.076 270.472C144.635 274.39 147.626 277.465 151.499 279.132C155.372 280.799 159.662 280.859 163.579 279.299C169.756 276.839 173.525 270.892 173.525 264.615C173.525 262.676 173.165 260.705 172.405 258.796C171.347 256.137 169.592 253.82 167.33 252.093L168.179 250.979C170.643 252.86 172.555 255.383 173.707 258.277C174.535 260.356 174.926 262.502 174.926 264.614C174.926 271.447 170.823 277.923 164.097 280.601C162.04 281.42 159.887 281.829 157.737 281.829Z" fill="white"/>
<path d="M397.652 271.312C400.153 273.982 403.835 276.289 406.427 277.727C402.557 282.511 397.32 287.302 390.388 291.99L388.404 296.442L382.047 288.823C382.047 288.823 393.454 283.147 397.652 271.312Z" fill="url(#paint2_linear_4326_136469)"/>
<path d="M339.311 229.152C341.36 226.582 343.156 223.829 344.658 220.991C346.755 217.028 354.519 213.708 355.092 209.232C369.277 211.699 383.605 212.487 393.913 214.636C396.873 215.253 399.657 216.493 401.634 218.781C409.475 227.854 426.68 252.696 406.429 277.727C403.837 276.289 400.155 273.982 397.654 271.313C399.894 264.997 400.078 256.926 395.382 247.029C395.222 247.813 395.024 248.59 394.783 249.354C388.311 269.856 387.966 286.917 387.98 290.85C387.982 291.383 387.662 291.864 387.166 292.063C378.649 295.476 362.254 293.445 356.75 292.624C355.741 292.474 355.062 291.535 355.201 290.524C357.903 270.955 344.04 238.763 340.379 230.7C340.115 230.12 339.751 229.598 339.311 229.152Z" fill="#C69815"/>
<path d="M379.206 195.809L380.847 212.58C380.847 212.58 371.241 215.903 364.379 211.061L369.374 195.338L379.206 195.809Z" fill="url(#paint3_linear_4326_136469)"/>
<path d="M396.417 245.04C399.262 236.85 398.667 227.356 398.475 225.128C398.453 224.861 398.214 224.669 397.947 224.699C397.691 224.729 397.505 224.953 397.527 225.21C397.713 227.364 398.306 236.703 395.517 244.729C395.432 244.975 395.556 245.241 395.799 245.33L395.8 245.33C396.05 245.422 396.33 245.292 396.417 245.04Z" fill="#C69815"/>
<path d="M301.727 229.944C317.918 238.057 331.073 221.4 339.702 214.599C351.095 205.621 359.961 209.989 359.961 209.989L347.811 233.177C326.218 259.31 309.737 247.992 299.336 240.941C299.156 236.463 300.353 232.714 301.727 229.944Z" fill="#C69815"/>
<path d="M288.766 225.832C297 228.626 296.04 229.091 301.73 229.945C300.356 232.715 299.16 236.463 299.34 240.942C291.874 237.413 287.194 233.177 287.194 233.177C284.969 232.115 285.74 228.624 286.51 226.396C286.838 225.448 288.03 225.15 288.766 225.832Z" fill="url(#paint4_linear_4326_136469)"/>
<path d="M365.781 180.946C365.781 180.946 358.647 194.376 359.561 199.801C360.476 205.226 369.318 204.837 377.039 200.431L382.434 185.929L365.781 180.946Z" fill="url(#paint5_linear_4326_136469)"/>
<path d="M376.699 193.309C376.385 193.17 376.269 192.786 376.457 192.499C377.029 191.626 378.1 189.844 378.442 188.285C378.442 188.285 379.725 187.464 375.178 186.375C370.631 185.287 363.85 183.597 362.425 179.727C361.035 175.954 368.488 171.056 374.313 178.617C374.535 178.905 371.167 174.319 371.388 174.032C372.343 172.789 374.854 170.209 378.339 171.773C381.601 173.236 381.968 175.627 381.923 176.831C381.91 177.186 382.227 177.461 382.575 177.395C384.224 177.08 388.182 176.81 390.029 180.869C391.55 184.213 390.561 186.106 389.661 187.032C389.369 187.332 389.497 187.826 389.897 187.948C390.981 188.28 390.616 187.751 390.476 190.29C390.282 193.8 388.122 194.939 387.004 194.779C386.821 194.753 386.637 194.816 386.513 194.953C385.555 196.013 381.238 200.515 376.566 201.058C376.161 201.105 375.848 200.705 375.98 200.32L378.002 194.443C378.096 194.17 377.966 193.87 377.702 193.753L376.699 193.309Z" fill="url(#paint6_linear_4326_136469)"/>
<path d="M375.886 194.144C375.886 194.144 380.965 190.659 381.336 193.594C381.707 196.529 376.762 197.845 374.312 196.751L375.886 194.144Z" fill="url(#paint7_linear_4326_136469)"/>
<path d="M284.246 392.272L284.351 398.898C284.531 410.269 290.892 419.388 298.559 419.266L307.674 419.122C315.34 419 321.409 409.684 321.229 398.314L321.124 391.687C321.117 391.248 321.101 390.81 321.075 390.372L309.48 194.061L289.622 194.375L284.253 390.955C284.242 391.394 284.239 391.833 284.246 392.272ZM293.466 391.605C293.331 383.044 297.344 376.039 302.431 375.958C307.518 375.878 311.751 382.752 311.887 391.313C312.023 399.874 308.009 406.879 302.922 406.96C297.836 407.04 293.602 400.165 293.466 391.605Z" fill="#91B3FA"/>
<path d="M278.55 127.4L279.159 165.849C279.203 168.586 280.514 171.149 282.71 172.785L293.963 181.171C297.175 183.565 301.597 183.495 304.731 181L315.713 172.261C317.855 170.557 319.085 167.954 319.042 165.216L318.432 126.768C318.34 120.968 325.15 117.666 329.559 121.435C340.107 130.449 346.928 144.033 347.17 159.331C347.608 186.981 326.35 206.344 299.754 206.765C273.158 207.186 251.296 188.507 250.858 160.857C250.616 145.559 257.002 131.766 267.26 122.422C271.547 118.516 278.458 121.6 278.55 127.4Z" fill="#91B3FA"/>
<path d="M282.177 127.343L282.786 165.792C282.83 168.53 284.141 171.092 286.337 172.728L297.59 181.115C300.802 183.508 305.224 183.438 308.358 180.944L319.34 172.205C321.482 170.5 322.712 167.897 322.669 165.16L322.059 126.711C321.967 120.912 328.777 117.61 333.186 121.378C343.734 130.393 350.555 143.976 350.797 159.274C351.235 186.925 329.977 206.287 303.381 206.708C276.785 207.13 254.923 188.451 254.485 160.801C254.243 145.502 260.629 131.71 270.887 122.365C275.174 118.459 282.085 121.544 282.177 127.343Z" fill="#BDD0FB"/>
<path d="M287.139 392.227L287.244 398.853C287.424 410.224 293.785 419.343 301.452 419.221L310.566 419.077C318.233 418.955 324.302 409.639 324.122 398.269L324.017 391.642C324.01 391.203 323.993 390.765 323.967 390.327L312.372 194.016L292.515 194.33L287.146 390.91C287.134 391.349 287.132 391.788 287.139 392.227ZM296.359 391.559C296.223 382.999 300.237 375.993 305.323 375.913C310.41 375.832 314.644 382.707 314.78 391.268C314.915 399.828 310.902 406.834 305.815 406.914C300.728 406.995 296.495 400.12 296.359 391.559Z" fill="#BDD0FB"/>
<path d="M285.786 232.579L286.693 234.489C286.836 234.792 287.126 235.005 287.459 235.041C290.304 235.344 292.929 234.97 295.397 234.107C296.273 233.801 296.679 232.78 296.231 231.968C295.198 230.093 293.961 228.282 292.465 226.553C291.977 225.988 291.336 225.574 290.616 225.376L288.621 224.827C287.787 224.598 286.894 224.976 286.501 225.748C285.59 227.537 285.318 229.571 285.561 231.802C285.591 232.071 285.67 232.334 285.786 232.579Z" fill="url(#paint8_linear_4326_136469)"/>
<path d="M365.153 415.817C365.151 415.681 365.16 415.543 365.194 415.404C367.253 407.241 377.473 402.156 377.473 402.156L381.522 402.474C383.851 409.668 383.551 414.081 383.177 416.047C383.167 416.102 383.15 416.154 383.136 416.207C379.795 416.506 372.92 416.701 365.153 415.817Z" fill="url(#paint9_linear_4326_136469)"/>
<path d="M383.136 416.207C382.955 416.864 382.471 417.375 381.851 417.505C377.099 418.504 369.546 417.7 366.375 417.285C365.675 417.194 365.164 416.547 365.152 415.816C372.919 416.701 379.795 416.506 383.136 416.207Z" fill="#91B3FA"/>
<path d="M346.104 416.124C350.576 415.999 352.889 415.472 354.085 414.983C354.088 415.428 354.085 415.881 354.071 416.35C354.055 416.85 353.685 417.25 353.228 417.247L328.672 417.089C327.888 417.084 327.43 416.175 327.77 415.456C330.99 415.722 339.19 416.317 346.104 416.124Z" fill="#91B3FA"/>
<path d="M327.773 415.456C327.803 415.393 327.829 415.329 327.871 415.271C330.039 412.24 335.563 406.206 346.477 403.589L351.713 403.424C351.713 403.424 354.045 407.476 354.089 414.983C352.893 415.471 350.58 415.998 346.107 416.123C339.194 416.317 330.993 415.722 327.773 415.456Z" fill="url(#paint10_linear_4326_136469)"/>
<path d="M356.875 287.236C356.875 287.236 342.77 339.881 342.999 404.592C343.003 405.772 345.252 405.568 346.329 405.811C347.917 406.169 350.251 406.595 352.183 406.537C353.215 406.506 354.077 405.686 354.251 404.596C356.021 393.47 366.183 330.79 371.973 320.614C371.973 320.614 374.195 376.065 372.977 405.028C372.947 405.748 375.027 406.747 375.695 406.83C376.709 406.955 378.331 407.051 380.395 406.816C381.179 406.727 383.313 407.75 383.425 406.914C384.686 397.497 390.444 339.79 390.135 299.413C390.118 297.136 384.515 287.236 384.515 287.236L356.875 287.236Z" fill="url(#paint11_linear_4326_136469)"/>
<path d="M372.443 317.166C372.655 317.166 372.848 317.024 372.904 316.81C373.951 312.77 381.793 308.332 381.872 308.287C382.101 308.159 382.183 307.868 382.054 307.639C381.926 307.41 381.637 307.328 381.406 307.457C381.069 307.646 373.131 312.139 371.982 316.571C371.916 316.825 372.069 317.085 372.324 317.151C372.363 317.162 372.404 317.166 372.443 317.166Z" fill="url(#paint12_linear_4326_136469)"/>
<path d="M356.337 241.075H376.03C377.205 241.075 380.033 241.885 380.3 243.029L387.594 262.227L389.152 274.775L390.14 299.414L354.341 298.02L351.914 262.227L355.248 241.999C355.336 241.466 355.797 241.075 356.337 241.075Z" fill="url(#paint13_linear_4326_136469)"/>
<path d="M355.901 244.898L355.229 209.216C355.223 208.911 355.495 208.675 355.796 208.723L360.384 209.461C360.914 209.547 361.296 210.015 361.273 210.551L360.531 244.859C360.525 245.137 360.298 245.359 360.02 245.359H356.37C356.114 245.359 355.905 245.154 355.901 244.898Z" fill="url(#paint14_linear_4326_136469)"/>
<path d="M375.678 245.543C375.223 245.442 374.936 244.99 375.038 244.535L381.994 213.521C382.131 213.021 382.608 212.691 383.125 212.74L387.775 213.184C388.449 213.248 388.882 213.929 388.654 214.567L379.163 245.615C379.049 245.987 378.669 246.208 378.289 246.124L375.678 245.543Z" fill="url(#paint15_linear_4326_136469)"/>
<path d="M358.534 244.425C359.205 244.425 359.748 243.881 359.748 243.211C359.748 242.541 359.205 241.997 358.534 241.997C357.864 241.997 357.32 242.541 357.32 243.211C357.32 243.881 357.864 244.425 358.534 244.425Z" fill="#CDD5DF"/>
<path d="M377.159 244.674C377.83 244.674 378.373 244.13 378.373 243.46C378.373 242.79 377.83 242.246 377.159 242.246C376.489 242.246 375.945 242.79 375.945 243.46C375.945 244.13 376.489 244.674 377.159 244.674Z" fill="white"/>
<path opacity="0.34" d="M358.416 252.1V272.334C358.416 272.854 358.83 273.281 359.351 273.297L376.537 273.825C377.081 273.841 377.531 273.405 377.531 272.861V252.1C377.531 251.567 377.099 251.136 376.567 251.136H359.38C358.848 251.136 358.416 251.567 358.416 252.1Z" fill="white"/>
<defs>
<linearGradient id="paint0_linear_4326_136469" x1="108.134" y1="-57.9914" x2="367.081" y2="569.303" gradientUnits="userSpaceOnUse">
<stop stop-color="#09005D"/>
<stop offset="1" stop-color="#1A0F91"/>
</linearGradient>
<linearGradient id="paint1_linear_4326_136469" x1="172.303" y1="-83.3394" x2="432.088" y2="545.984" gradientUnits="userSpaceOnUse">
<stop stop-color="#09005D"/>
<stop offset="1" stop-color="#1A0F91"/>
</linearGradient>
<linearGradient id="paint2_linear_4326_136469" x1="406.427" y1="283.877" x2="382.047" y2="283.877" gradientUnits="userSpaceOnUse">
<stop stop-color="#FEBBBA"/>
<stop offset="1" stop-color="#FF928E"/>
</linearGradient>
<linearGradient id="paint3_linear_4326_136469" x1="379.394" y1="186.448" x2="371.597" y2="215.623" gradientUnits="userSpaceOnUse">
<stop stop-color="#FEBBBA"/>
<stop offset="1" stop-color="#FF928E"/>
</linearGradient>
<linearGradient id="paint4_linear_4326_136469" x1="301.73" y1="233.201" x2="285.729" y2="233.201" gradientUnits="userSpaceOnUse">
<stop stop-color="#FEBBBA"/>
<stop offset="1" stop-color="#FF928E"/>
</linearGradient>
<linearGradient id="paint5_linear_4326_136469" x1="361.994" y1="196.431" x2="383.719" y2="183.181" gradientUnits="userSpaceOnUse">
<stop stop-color="#FEBBBA"/>
<stop offset="1" stop-color="#FF928E"/>
</linearGradient>
<linearGradient id="paint6_linear_4326_136469" x1="395.649" y1="169.755" x2="367.582" y2="191.923" gradientUnits="userSpaceOnUse">
<stop stop-color="#09005D"/>
<stop offset="1" stop-color="#1A0F91"/>
</linearGradient>
<linearGradient id="paint7_linear_4326_136469" x1="367.701" y1="201.374" x2="387.248" y2="189.452" gradientUnits="userSpaceOnUse">
<stop stop-color="#FEBBBA"/>
<stop offset="1" stop-color="#FF928E"/>
</linearGradient>
<linearGradient id="paint8_linear_4326_136469" x1="285.477" y1="229.953" x2="296.415" y2="229.953" gradientUnits="userSpaceOnUse">
<stop stop-color="#FEBBBA"/>
<stop offset="1" stop-color="#FF928E"/>
</linearGradient>
<linearGradient id="paint9_linear_4326_136469" x1="383.433" y1="409.307" x2="365.152" y2="409.307" gradientUnits="userSpaceOnUse">
<stop stop-color="#09005D"/>
<stop offset="1" stop-color="#1A0F91"/>
</linearGradient>
<linearGradient id="paint10_linear_4326_136469" x1="354.089" y1="409.793" x2="327.773" y2="409.793" gradientUnits="userSpaceOnUse">
<stop stop-color="#09005D"/>
<stop offset="1" stop-color="#1A0F91"/>
</linearGradient>
<linearGradient id="paint11_linear_4326_136469" x1="391.392" y1="209.92" x2="357.187" y2="423.199" gradientUnits="userSpaceOnUse">
<stop stop-color="#09005D"/>
<stop offset="1" stop-color="#1A0F91"/>
</linearGradient>
<linearGradient id="paint12_linear_4326_136469" x1="369.539" y1="298.93" x2="378.904" y2="315.596" gradientUnits="userSpaceOnUse">
<stop stop-color="#09005D"/>
<stop offset="1" stop-color="#1A0F91"/>
</linearGradient>
<linearGradient id="paint13_linear_4326_136469" x1="382.627" y1="208.49" x2="348.413" y2="421.824" gradientUnits="userSpaceOnUse">
<stop stop-color="#09005D"/>
<stop offset="1" stop-color="#1A0F91"/>
</linearGradient>
<linearGradient id="paint14_linear_4326_136469" x1="361.412" y1="205.001" x2="326.38" y2="423.438" gradientUnits="userSpaceOnUse">
<stop stop-color="#09005D"/>
<stop offset="1" stop-color="#1A0F91"/>
</linearGradient>
<linearGradient id="paint15_linear_4326_136469" x1="385.223" y1="208.547" x2="347.603" y2="443.119" gradientUnits="userSpaceOnUse">
<stop stop-color="#09005D"/>
<stop offset="1" stop-color="#1A0F91"/>
</linearGradient>
</defs>
</svg>
