<svg width="60" height="60" viewBox="0 0 60 60" fill="none" xmlns="http://www.w3.org/2000/svg">
<path d="M30 0C46.5685 1.0316e-06 60 13.4315 60 30C60 46.5685 46.5685 60 30 60C13.4315 60 1.0399e-06 46.5685 0 30C7.10795e-07 28.4938 1.22131 27.2725 2.72754 27.2725C4.23365 27.2726 5.4541 28.4939 5.4541 30C5.4541 43.5561 16.4439 54.5459 30 54.5459C43.5561 54.5459 54.5459 43.5561 54.5459 30C54.5459 16.4439 43.5561 5.4541 30 5.4541C28.4939 5.4541 27.2726 4.23365 27.2725 2.72754C27.2725 1.22131 28.4938 9.45364e-08 30 0ZM36.3965 19.6543C37.4863 18.5644 39.2539 18.5645 40.3438 19.6543C41.4334 20.744 41.4332 22.5107 40.3438 23.6006L33.9443 30.001L40.3418 36.3984C41.4316 37.4883 41.4317 39.2559 40.3418 40.3457C39.2519 41.4355 37.4843 41.4346 36.3945 40.3447L29.998 33.9473L23.6016 40.3447C22.5118 41.4346 20.7442 41.4354 19.6543 40.3457C18.5644 39.2559 18.5645 37.4883 19.6543 36.3984L26.0518 30.001L19.6523 23.6006C18.5629 22.5107 18.5627 20.744 19.6523 19.6543C20.7422 18.5645 22.5098 18.5644 23.5996 19.6543L29.998 26.0537L36.3965 19.6543ZM5.60938 12.4795C6.51412 11.2756 8.22361 11.033 9.42773 11.9375C10.6318 12.8421 10.875 14.5517 9.9707 15.7559C8.63154 17.5383 7.49352 19.4799 6.59082 21.5459C5.9878 22.9261 4.3802 23.556 3 22.9531C1.61976 22.3501 0.989725 20.7425 1.59277 19.3623C2.66675 16.9042 4.01889 14.5964 5.60938 12.4795ZM19.3633 1.5918C20.7435 0.98875 22.3511 1.61878 22.9541 2.99902C23.557 4.37921 22.927 5.98683 21.5469 6.58984C19.4811 7.49245 17.5401 8.62976 15.7578 9.96875C14.5536 10.8735 12.8432 10.631 11.9385 9.42676C11.0339 8.22255 11.2773 6.5131 12.4814 5.6084C14.5982 4.01802 16.9054 2.66571 19.3633 1.5918Z" fill="#3E0AB9"/>
</svg>
