<svg width="70" height="65" viewBox="0 0 70 65" fill="none" xmlns="http://www.w3.org/2000/svg">
<path d="M35.2771 22.7523H41.7322C42.7342 22.7495 43.5442 21.9344 43.5442 20.9367V17.9686C43.5499 15.7622 41.7603 13.9634 39.5447 13.9522H37.4617C35.246 13.9634 33.4565 15.7622 33.465 17.9686V20.9367C33.4622 21.9344 34.2723 22.7467 35.2771 22.7523ZM35.1275 17.9686H35.1246C35.1162 16.6757 36.1605 15.6217 37.4589 15.6077H39.5419C40.8375 15.6217 41.8818 16.6757 41.8733 17.9686V20.9367C41.8762 21.021 41.8084 21.0912 41.7237 21.0969H35.2771C35.1896 21.0912 35.1247 21.021 35.1247 20.9367L35.1275 17.9686ZM22.6719 34.7934H32.3817C32.839 34.7934 33.2115 34.4252 33.2115 33.9699V26.0018C33.2115 25.5465 32.8389 25.1755 32.3817 25.1755H22.6719C22.2146 25.1755 21.8449 25.5465 21.8449 26.0018V33.967C21.8449 34.1863 21.9296 34.3943 22.0848 34.5517C22.2429 34.7062 22.4517 34.7934 22.6719 34.7934ZM31.5486 33.1379H28.3563V26.828H31.5486V33.1379ZM23.5043 26.828H26.6966V33.1379H23.5043V26.828ZM41.9608 43.7737V44.8248C41.9608 45.2802 41.5882 45.6512 41.131 45.6512C40.6709 45.6512 40.2984 45.2802 40.2984 44.8248V43.7737C40.2984 43.3184 40.6709 42.9474 41.131 42.9474C41.5882 42.9474 41.9608 43.3184 41.9608 43.7737ZM69.5678 60.0164L69.232 59.4318L69.2376 57.9955C69.2404 57.6723 69.0513 57.38 68.7606 57.2451L67.4933 56.652L67.5441 55.064V55.0668C67.5554 54.7351 67.3663 54.4288 67.0671 54.2883L65.7715 53.6812L65.8901 52.2225V52.2253C65.9183 51.888 65.7405 51.5704 65.4385 51.4186L63.5276 50.4574L63.443 49.482V49.4849C63.4317 49.364 63.395 49.2488 63.3357 49.1448L62.0712 46.944V46.9412C64.6143 43.5796 64.27 38.863 61.2696 35.9007V29.0792L62.6555 30.4761C62.8107 30.6335 63.0252 30.7234 63.2482 30.7234C63.4684 30.7234 63.6829 30.6335 63.8381 30.4761L67.9505 26.3331C68.2723 26.0099 68.2723 25.4927 67.9505 25.1695L60.8321 17.9995L60.8349 5.72789C60.8349 5.50866 60.7446 5.29786 60.5894 5.14327C60.4341 4.98869 60.2224 4.90437 60.0023 4.90437H53.8774C53.4201 4.90437 53.0476 5.27257 53.0476 5.72787V10.1575L43.2055 0.247339C43.0475 0.0899415 42.8358 0 42.6128 0H34.3936C34.1706 0 33.9561 0.0899415 33.8009 0.247339L9.05589 25.1698C8.73413 25.493 8.73413 26.0102 9.05589 26.3334L11.599 28.8939L4.36753 25.004C3.91875 24.7623 3.39373 24.7089 2.90831 24.855C2.40872 25.0012 1.99101 25.3441 1.74823 25.7994L0.226865 28.6775C-0.272724 29.6163 0.0800977 30.7828 1.01721 31.2887L15.7395 39.2064V45.3056H7.37073C6.30379 45.3084 5.4401 46.1741 5.44292 47.2365V50.5025C5.44292 50.5953 5.45139 50.688 5.4655 50.778H2.18289C1.11595 50.7836 0.249445 51.6465 0.252263 52.7117V55.975C0.249441 57.0402 1.11595 57.9059 2.18289 57.9087H2.3974C2.38329 58.0015 2.37764 58.0942 2.37764 58.187V61.4473C2.372 62.5098 3.23569 63.3754 4.30545 63.381H21.1896C22.886 64.4407 24.8476 65.0028 26.8516 65C29.214 64.9887 31.5087 64.2074 33.3858 62.7768C35.2599 61.3433 36.6148 59.3394 37.2385 57.0711H60.3519L63.9139 63.2855C64.4954 64.2973 65.5792 64.9241 66.7506 64.9241C67.3207 64.9241 67.8824 64.7723 68.3735 64.4856C69.9287 63.5694 70.4598 61.5791 69.5678 60.0164ZM54.7076 6.55731H59.17V16.3271L54.7076 11.83V6.55731ZM34.738 1.6555H42.2657L66.192 25.7541L63.2481 28.7193L40.9555 6.26777C40.8003 6.11037 40.5886 6.02043 40.3656 6.02043H36.6399C36.417 6.02043 36.2053 6.11037 36.05 6.26777L13.7574 28.7165L10.8136 25.754L34.738 1.6555ZM15.7396 29.0762V31.1167L14.4187 30.4056L15.7396 29.0762ZM1.69724 29.45L3.2186 26.5775C3.25248 26.5128 3.31175 26.465 3.38231 26.4425C3.40771 26.4369 3.43311 26.4341 3.45852 26.4341C3.49803 26.4341 3.53755 26.4425 3.57424 26.4622L19.4114 34.9728C19.5469 35.0487 19.5949 35.2174 19.5243 35.3551L18.003 38.2304C17.9691 38.2951 17.9098 38.3457 17.8421 38.3653C17.7744 38.3878 17.7038 38.3794 17.6445 38.3485L1.80732 29.8321C1.67184 29.7562 1.62385 29.5877 1.69724 29.45ZM17.4015 39.9954C17.52 40.0179 17.6414 40.032 17.7628 40.032C18.4797 40.032 19.1373 39.6357 19.4732 39.0033L20.9974 36.1251H20.9946C21.4885 35.1864 21.1385 34.0283 20.2042 33.5168L17.3987 32.0103L17.4015 27.4036L36.9866 7.67547H40.018L59.6031 27.4036V34.6356C58.2568 33.8571 56.7185 33.472 55.1633 33.5226V26.0013C55.1633 25.546 54.7936 25.175 54.3364 25.175H44.6265C44.1693 25.175 43.7967 25.546 43.7967 26.0013V33.9665C43.7967 34.4219 44.1693 34.79 44.6265 34.79H51.0562C47.2402 37.1988 45.9926 42.1652 48.2196 46.0781C49.3401 48.0399 51.2142 49.4621 53.413 50.013H45.2675V42.3342C45.2873 40.5354 44.5816 38.804 43.3115 37.5251C42.0414 36.2463 40.3084 35.5268 38.502 35.5268C36.6956 35.5268 34.9654 36.2463 33.6924 37.5251C32.4223 38.804 31.7195 40.5354 31.7393 42.3342V44.4647C29.9837 43.5624 28.0136 43.1633 26.0434 43.3122C24.0761 43.4612 22.1879 44.1499 20.5903 45.305H17.4008L17.4015 39.9954ZM45.4573 33.1374V26.8275H48.6496V33.1374H45.4573ZM50.312 26.8275H53.5043V33.1374H50.312V26.8275ZM33.3997 45.5188V42.3343C33.3771 40.9711 33.9049 39.6557 34.8645 38.6832C35.8241 37.7108 37.1338 37.1654 38.5028 37.1654C39.8717 37.1654 41.1842 37.7107 42.141 38.6832C43.1007 39.6557 43.6285 40.9711 43.6059 42.3343V50.0189H36.8319C36.1037 48.2454 34.921 46.6936 33.3997 45.5188ZM7.10478 50.5021V47.2361C7.10478 47.0899 7.22051 46.9663 7.3701 46.9606H18.7671C17.7877 48.0737 17.0482 49.3722 16.591 50.7775H7.36959C7.22 50.7719 7.10196 50.6511 7.10478 50.5021ZM1.91134 55.9745V52.7113C1.91134 52.5623 2.03271 52.4387 2.1823 52.4359H16.1936C15.996 53.7035 16.0214 54.9964 16.2698 56.2556H2.18264C2.03305 56.2499 1.9145 56.1263 1.9145 55.9745L1.91134 55.9745ZM4.03669 61.4469L4.03387 58.1866C4.03387 58.0376 4.15241 57.9139 4.30201 57.9083H16.7294C17.2572 59.3334 18.0786 60.6319 19.1398 61.7224H4.30483C4.15523 61.7168 4.03669 61.5959 4.03669 61.4469ZM26.851 63.3441L26.8482 63.3413C23.0999 63.3863 19.6959 61.1743 18.2308 57.7396C16.7632 54.3022 17.528 50.3248 20.1615 47.6719C22.7949 45.0158 26.7803 44.2064 30.2463 45.6257C33.7152 47.0451 35.9789 50.4066 35.9789 54.1392C36.0043 59.19 31.9204 63.3045 26.851 63.3441ZM37.5652 55.4149L37.5624 55.4121C37.712 54.1613 37.6414 52.8965 37.3535 51.6711H57.258L59.4032 55.4121L37.5652 55.4149ZM67.535 63.0599L67.5322 63.0571C67.1709 63.2679 66.7362 63.3241 66.3326 63.2145C65.9177 63.1049 65.5677 62.835 65.3532 62.464L57.574 48.8886C57.4273 48.63 57.1507 48.4698 56.8543 48.4698C56.8007 48.4698 56.7442 48.4754 56.6934 48.4867C53.8963 49.0291 51.0681 47.7306 49.6625 45.2628C47.8278 42.0418 48.9286 37.9495 52.135 36.0744C53.6508 35.1862 55.46 34.9417 57.1591 35.3998C58.878 35.8551 60.3401 36.9822 61.2123 38.5253C62.6461 41.024 62.3356 44.1495 60.4417 46.3193C60.2075 46.5863 60.1708 46.9686 60.3458 47.2749L61.8022 49.8101L61.9094 51.0609V51.0637C61.9348 51.3476 62.1042 51.6005 62.361 51.7298L64.1815 52.6433L64.0602 54.1189L64.063 54.1161C64.0348 54.4618 64.2239 54.7878 64.5372 54.934L65.8609 55.5523L65.8101 57.1403H65.8073C65.796 57.472 65.9851 57.7783 66.2871 57.916L67.5657 58.5147L67.56 59.6446V59.6474C67.56 59.7936 67.5967 59.9369 67.6701 60.0606L68.1161 60.8391C68.5592 61.612 68.2995 62.5958 67.5346 63.0539L67.535 63.0599ZM56.4509 38.1576C55.4574 37.8906 54.4018 38.0339 53.5155 38.5539C51.6695 39.6276 51.0345 41.9801 52.0901 43.8323C52.5953 44.7205 53.4392 45.3726 54.4299 45.634C55.4207 45.8982 56.4762 45.7548 57.3597 45.2348C59.2057 44.1584 59.8379 41.8058 58.7851 39.9564C58.2799 39.0682 57.4388 38.419 56.4509 38.1576ZM56.5271 43.8043C56.0247 44.1022 55.4263 44.1837 54.8646 44.0348C54.3029 43.8858 53.8259 43.5148 53.5409 43.0117C52.934 41.9492 53.2981 40.6001 54.3566 39.9818C54.6925 39.785 55.0735 39.6838 55.463 39.681C56.242 39.6838 56.9617 40.1026 57.3456 40.7772C57.9496 41.8396 57.5855 43.1888 56.5271 43.8043ZM29.5407 51.0024V51.8822V51.8794C29.5407 52.3347 29.1681 52.7057 28.7081 52.7057C28.2509 52.7057 27.8783 52.3347 27.8783 51.8794V51.0024C27.788 50.5077 27.3561 50.1452 26.8509 50.1452C26.3485 50.1452 25.9166 50.5077 25.8263 51.0024V51.8822C25.8263 52.5933 26.2356 52.8828 27.2432 53.414C28.2142 53.9255 29.5407 54.6282 29.5407 56.4045V57.2871V57.2843C29.5153 58.4001 28.7617 59.367 27.6835 59.6705V60.3057C27.6835 60.7639 27.3109 61.1349 26.8509 61.1349C26.3936 61.1349 26.0211 60.7639 26.0211 60.3057V59.6705C24.9401 59.3698 24.1864 58.4001 24.1611 57.2843V56.4017C24.1611 55.9436 24.5336 55.5726 24.9937 55.5726C25.4509 55.5726 25.8235 55.9436 25.8235 56.4017V57.2843C25.911 57.779 26.3456 58.1387 26.8481 58.1387C27.3533 58.1387 27.7852 57.779 27.8755 57.2843V56.4017C27.8755 55.6906 27.4662 55.4067 26.4614 54.8755C25.4904 54.364 24.1611 53.6613 24.1611 51.8821V51.0023C24.1865 49.8837 24.9401 48.9168 26.0183 48.6133V47.9696C26.0183 47.5143 26.3909 47.1433 26.8509 47.1433C27.311 47.1433 27.6807 47.5143 27.6807 47.9696V48.6133C28.7617 48.9168 29.5153 49.8865 29.5379 51.0023L29.5407 51.0024Z" fill="#C69815"/>
</svg>
