<svg width="70" height="70" viewBox="0 0 70 70" fill="none" xmlns="http://www.w3.org/2000/svg">
<path d="M9.03571 18.3609C7.70902 21.0944 7.0233 24.0977 7.03132 27.1398C7.02916 32.1357 8.87916 36.9528 12.2194 40.6487C15.5597 44.3447 20.15 46.6536 25.0925 47.124C30.0349 47.5944 34.974 46.1923 38.9435 43.192C42.9131 40.1917 45.6276 35.8091 46.5562 30.9013L44.2515 30.4599C43.4317 34.7868 41.0322 38.6482 37.5253 41.2842V22.9274C38.9203 22.2228 40.0902 21.1372 40.9009 19.7949C41.7117 18.4526 42.1307 16.9078 42.1099 15.3371C42.1887 13.233 41.4369 11.183 40.0186 9.63493C38.6002 8.08689 36.6308 7.16663 34.5404 7.0752C32.4498 7.16633 30.48 8.08645 29.0614 9.63453C27.6429 11.1826 26.8908 13.2328 26.9697 15.3371C26.9444 16.9279 27.373 18.4927 28.2045 19.8459C29.0359 21.1992 30.2355 22.2841 31.661 22.9723V41.303C31.661 41.6161 31.7846 41.9163 32.0046 42.1376C32.2245 42.359 32.5228 42.4833 32.8339 42.4833H35.7461C33.0832 44.0298 30.0629 44.8439 26.9884 44.8439C23.914 44.8439 20.8937 44.0298 18.2308 42.4833H21.1054C21.4165 42.4833 21.7148 42.359 21.9348 42.1376C22.1547 41.9163 22.2783 41.6161 22.2783 41.303V21.2384H24.624C24.935 21.2384 25.2334 21.1141 25.4533 20.8927C25.6733 20.6714 25.7968 20.3712 25.7968 20.0582V8.25547H23.4511V18.8779H22.2783V8.25547H19.9326V18.8779H18.7598V8.25547H16.4141V18.8779H15.2412V8.25547H12.8955V20.0582C12.8955 20.3712 13.0191 20.6714 13.2391 20.8927C13.459 21.1141 13.7573 21.2384 14.0684 21.2384H16.4141V41.27C13.1464 38.8082 10.8329 35.2779 9.87127 31.2858C8.9096 27.2937 9.3598 23.0892 11.1445 19.3949L9.03571 18.3609ZM35.1796 22.126V40.1228H34.0067V22.1555C34.0068 21.9024 33.926 21.656 33.7763 21.4526C33.6266 21.2492 33.4158 21.0996 33.1752 21.026C32.0157 20.6118 31.017 19.8376 30.3233 18.8151C29.6295 17.7925 29.2765 16.5746 29.3154 15.3371C29.2374 13.8589 29.7426 12.4096 30.7211 11.3044C31.6997 10.1992 33.0723 9.52763 34.5404 9.43574C36.0084 9.52762 37.3809 10.1993 38.3592 11.3045C39.3375 12.4097 39.8425 13.859 39.7642 15.3371C39.7991 16.5592 39.4542 17.7618 38.7776 18.7773C38.1011 19.7928 37.1266 20.5706 35.99 21.0024C35.7543 21.0795 35.5489 21.2297 35.4032 21.4316C35.2576 21.6335 35.1793 21.8766 35.1796 22.126ZM19.9326 21.2384V40.1228H18.7598V21.2384H19.9326Z" fill="#C69815"/>
<path d="M45.66 20.1431L43.4609 20.9693C44.1905 22.9435 44.5627 25.0334 44.5599 27.1397H46.9056C46.9088 24.7514 46.4869 22.3818 45.66 20.1431Z" fill="#C69815"/>
<path d="M67.7323 23.3261L62.5261 19.2494C61.9983 18.8363 61.3889 18.5415 60.7386 18.3848C60.0884 18.228 59.4124 18.213 58.7559 18.3406C58.0994 18.4682 57.4776 18.7356 56.9322 19.1248C56.3867 19.514 55.9303 20.0161 55.5934 20.5973L50.9396 28.6231C50.379 29.5968 50.1813 30.7396 50.3818 31.8467C50.5823 32.9538 51.1679 33.9528 52.0338 34.6649L55.2462 37.4138C55.4517 37.5895 55.5906 37.8311 55.6398 38.0979C55.6889 38.3647 55.6452 38.6403 55.516 38.8785L54.5848 40.5946C51.2608 46.7184 46.5142 51.9421 40.7499 55.8201C40.5307 55.9662 40.2692 56.0341 40.0071 56.0127C39.7451 55.9912 39.4978 55.8819 39.305 55.7021L34.7309 51.4649C33.9236 50.6783 32.8641 50.2071 31.7426 50.1359C30.6211 50.0647 29.5112 50.3982 28.6121 51.0766L21.2537 56.6959C20.7211 57.1027 20.281 57.6193 19.963 58.2113C19.6449 58.8032 19.4563 59.4567 19.4098 60.128C19.3633 60.7993 19.4599 61.4728 19.6931 62.1035C19.9264 62.7341 20.2909 63.3073 20.7623 63.7846L23.5619 66.6172C24.8648 67.9369 26.4674 68.9176 28.2313 69.4745C29.9952 70.0313 31.8673 70.1476 33.6859 69.8134C38.8405 68.8747 43.7348 66.8333 48.0379 63.8271L52.4514 60.7536C55.5463 58.6 58.2284 55.9005 60.3681 52.7856L60.5944 52.4575C65.4311 45.407 68.6218 37.3476 69.9279 28.8816C70.0867 27.8427 69.967 26.78 69.581 25.8033C69.195 24.8266 68.5568 23.9714 67.7323 23.3261ZM67.6151 28.5193C66.3638 36.6321 63.3067 44.3554 58.6721 51.112L58.4458 51.4401C56.4661 54.3216 53.9847 56.8187 51.1214 58.8109L46.7032 61.8879C42.6749 64.7037 38.0924 66.6156 33.266 67.4942C31.8219 67.7591 30.3355 67.6664 28.935 67.224C27.5345 66.7817 26.262 66.0031 25.2273 64.9554L22.4266 62.1227C22.1915 61.8841 22.0098 61.5977 21.8936 61.2827C21.7773 60.9677 21.7293 60.6314 21.7526 60.2962C21.7759 59.961 21.8701 59.6347 22.0288 59.3391C22.1875 59.0434 22.4071 58.7853 22.6729 58.5819L30.0313 52.9627C30.4361 52.654 30.9307 52.488 31.4387 52.4906C32.0673 52.4914 32.6704 52.7406 33.1182 53.1846L37.724 57.4465C38.3045 57.9849 39.0481 58.3111 39.8352 58.3728C40.6223 58.4344 41.4071 58.2279 42.0635 57.7864C48.1437 53.6991 53.1507 48.1918 56.6572 41.7348L57.5884 40.0175C57.9727 39.3026 58.102 38.4768 57.9548 37.6777C57.8075 36.8786 57.3926 36.1543 56.7792 35.6257L53.5386 32.8532C53.1017 32.498 52.8051 31.9976 52.7023 31.4419C52.5996 30.8862 52.6973 30.3119 52.978 29.8223L57.633 21.7964C57.8014 21.5059 58.0296 21.255 58.3023 21.0604C58.575 20.8659 58.8858 20.7322 59.214 20.6684C59.5421 20.6046 59.8801 20.6121 60.2051 20.6904C60.5302 20.7687 60.8349 20.9161 61.0987 21.1225L66.305 25.198C66.7957 25.5858 67.1751 26.098 67.4043 26.6821C67.6335 27.2661 67.7042 27.901 67.6092 28.5216L67.6151 28.5193Z" fill="#C69815"/>
<path d="M22.4892 51.5172C18.1242 50.7036 14.0589 48.7178 10.7232 45.7701C7.3876 42.8223 4.90566 39.022 3.53994 34.7713C2.17422 30.5206 1.97551 25.9775 2.96483 21.6225C3.95414 17.2675 6.09469 13.2625 9.16007 10.0312C12.2254 6.79989 16.1017 4.46237 20.3788 3.26592C24.6558 2.06946 29.1747 2.05853 33.4575 3.2343C37.7402 4.41007 41.6276 6.72882 44.7083 9.94528C47.7891 13.1617 49.9487 17.1563 50.9588 21.5065L53.2435 20.9707C52.1374 16.206 49.7722 11.8307 46.398 8.30773C43.0238 4.78474 38.7661 2.24499 34.0754 0.957153C29.3846 -0.330687 24.4352 -0.318736 19.7506 0.991741C15.0661 2.30222 10.8206 4.8625 7.46324 8.40174C4.10589 11.941 1.76154 16.3276 0.678156 21.0976C-0.405222 25.8676 -0.187341 30.8435 1.30875 35.4991C2.80485 40.1547 5.52352 44.3168 9.1772 47.5452C12.8309 50.7735 17.2837 52.9481 22.0646 53.8388L22.4892 51.5172Z" fill="#C69815"/>
</svg>
