<svg width="70" height="65" viewBox="0 0 70 65" fill="none" xmlns="http://www.w3.org/2000/svg">
<path d="M52.7115 54.0773C52.7115 54.7932 52.1708 55.3736 51.5038 55.3736C50.8368 55.3736 50.2962 54.7932 50.2962 54.0773C50.2962 53.3614 50.8368 52.781 51.5038 52.781C52.1708 52.781 52.7115 53.3614 52.7115 54.0773ZM23.3066 52.781C22.6396 52.781 22.0988 53.3614 22.0988 54.0773C22.0988 54.7932 22.6395 55.3736 23.3066 55.3736C23.9736 55.3736 24.5142 54.7932 24.5142 54.0773C24.5142 53.3614 23.9735 52.781 23.3066 52.781ZM57.428 47.6875V52.6073C57.428 53.7467 56.5645 54.6736 55.503 54.6736H55.2024C54.9333 56.6054 53.3773 58.092 51.5039 58.092C49.6305 58.092 48.0747 56.6054 47.8055 54.6736H27.0051C26.7359 56.6054 25.18 58.092 23.3066 58.092C21.4331 58.092 19.8772 56.6054 19.6081 54.6736H16.9573C16.2516 54.6736 15.6508 54.19 15.4226 53.5158H13.1276C12.8208 53.5158 12.572 53.2488 12.572 52.9195V50.0181C12.572 49.6888 12.8208 49.4218 13.1276 49.4218H15.3235V46.1255C15.3235 45.1584 16.0564 44.3714 16.9574 44.3714H27.0394V40.2919C26.1486 39.6544 25.5602 38.5666 25.5602 37.3335C25.5602 35.3739 27.0453 33.7797 28.8708 33.7797C30.6963 33.7797 32.1813 35.3739 32.1813 37.3335C32.1813 37.4216 32.1773 37.5087 32.1713 37.5951L39.9905 43.7868V35.8583C39.9905 35.529 40.2392 35.262 40.546 35.262H46.8015C48.13 35.262 49.3061 36.118 49.7974 37.4431L51.9463 43.2364L56.4288 45.8755C57.0451 46.2384 57.428 46.9326 57.428 47.6875ZM31.0942 39.964L36.6602 44.3714H38.8569L31.8688 38.8379C31.6814 39.2667 31.4171 39.6492 31.0942 39.964ZM30.702 41.1356V44.3715H34.7884L30.702 41.1356ZM26.6712 37.3335C26.6712 38.6353 27.6578 39.6944 28.8707 39.6944C30.0836 39.6944 31.0701 38.6353 31.0701 37.3335C31.0701 36.0317 30.0834 34.9724 28.8707 34.9724C27.658 34.9724 26.6712 36.0317 26.6712 37.3335ZM28.1503 44.3715H29.591V40.8015C29.3589 40.857 29.118 40.8872 28.8706 40.8872C28.6231 40.8872 28.3822 40.857 28.1502 40.8015V44.3715H28.1503ZM13.6831 52.3231H15.3235V50.6145H13.6831V52.3231ZM25.9355 54.0773C25.9355 52.5213 24.7562 51.2554 23.3066 51.2554C21.8569 51.2554 20.6776 52.5213 20.6776 54.0773C20.6776 55.6334 21.8569 56.8993 23.3066 56.8993C24.7562 56.8993 25.9355 55.6334 25.9355 54.0773ZM27.0051 53.4809H39.9904V45.564H16.9573C16.669 45.564 16.4344 45.8159 16.4344 46.1255V52.9195C16.4344 53.229 16.6688 53.4809 16.9573 53.4809H19.6081C19.8772 51.5492 21.4331 50.0627 23.3066 50.0627C25.18 50.0627 26.7359 51.5492 27.0051 53.4809ZM54.1327 54.0773C54.1327 52.5213 52.9535 51.2554 51.5038 51.2554C50.0542 51.2554 48.875 52.5213 48.875 54.0773C48.875 55.6334 50.0542 56.8993 51.5038 56.8993C52.9535 56.8993 54.1327 55.6334 54.1327 54.0773ZM56.317 47.6875C56.317 47.3683 56.155 47.0747 55.8943 46.9212L51.2367 44.1789C51.1236 44.1124 51.0356 44.0054 50.9878 43.8767L48.7652 37.8842C48.4432 37.0158 47.6722 36.4546 46.8014 36.4546H41.1014V53.4809H47.8054C48.0746 51.5492 49.6305 50.0627 51.5038 50.0627C53.3773 50.0627 54.9331 51.5491 55.2023 53.4809H55.5028C55.9517 53.4809 56.3168 53.089 56.3168 52.6073L56.317 47.6875ZM49.2733 43.2948C49.6781 43.7273 49.9628 44.3159 49.9628 44.9679C49.9628 46.3004 48.7768 47.3736 47.7949 47.3736C46.9525 47.3736 46.2668 46.6151 46.0756 45.5642H43.0882C42.7814 45.5642 42.5326 45.2972 42.5326 44.9679V38.316C42.5326 37.9866 42.7814 37.7196 43.0882 37.7196H45.9625C46.7177 37.7196 47.386 38.2062 47.6654 38.9591L49.2733 43.2948ZM47.7947 42.5621C47.7983 42.5621 47.8022 42.5628 47.8058 42.5628L46.6331 39.4004C46.5229 39.1039 46.2598 38.9123 45.9624 38.9123H43.6436V44.3715H46.0755C46.2667 43.3206 46.9524 42.5621 47.7947 42.5621ZM48.8518 44.9679C48.8518 44.2792 48.1473 43.7547 47.7949 43.7547C47.4818 43.7547 47.1317 44.2734 47.1317 44.9679C47.1317 45.6623 47.4818 46.181 47.7949 46.181C48.1472 46.1808 48.8518 45.6565 48.8518 44.9679ZM44.7991 47.1882H43.0881C42.7813 47.1882 42.5325 47.4552 42.5325 47.7845C42.5325 48.1139 42.7813 48.3809 43.0881 48.3809H44.7991C45.1059 48.3809 45.3546 48.1139 45.3546 47.7845C45.3546 47.4552 45.1059 47.1882 44.7991 47.1882ZM69.2209 56.1226C70.2402 57.9612 70.2604 60.1696 69.2753 62.0296C68.2899 63.8896 66.5118 65 64.5187 65H5.4814C3.48827 65 1.71012 63.8896 0.724737 62.0296C-0.260511 60.1695 -0.240095 57.9612 0.77918 56.1226L30.2976 2.87019C31.2938 1.07297 33.0517 0 35 0C36.9482 0 38.7062 1.07297 39.7023 2.87019L69.2209 56.1226ZM68.266 56.7323L38.7476 3.4801C37.9538 2.04784 36.5527 1.19268 35 1.19268C33.4472 1.19268 32.0462 2.04784 31.2524 3.4801L1.73401 56.7323C0.921675 58.1978 0.905565 59.9578 1.69068 61.4401C2.4758 62.9223 3.89298 63.8073 5.4814 63.8073H64.5185C66.1069 63.8073 67.5241 62.9223 68.3092 61.44C69.0945 59.9576 69.0782 58.1978 68.266 56.7323ZM66.5748 57.8129C67.0207 58.6169 67.0297 59.5825 66.5989 60.3959C66.1678 61.2094 65.3902 61.6949 64.5185 61.6949H5.4814C4.6099 61.6949 3.83214 61.2094 3.40118 60.3959C2.97023 59.5827 2.97925 58.6168 3.42507 57.8126L32.9435 4.56022C33.3793 3.77424 34.148 3.30492 35.0001 3.30492C35.852 3.30492 36.6209 3.77409 37.0567 4.56007L66.5748 57.8129ZM65.62 58.4228L36.1017 5.17013C35.8683 4.74911 35.4565 4.49761 35 4.49761C34.5434 4.49761 34.1317 4.74911 33.8982 5.17013L4.38004 58.4224C4.14116 58.8535 4.1363 59.3707 4.36713 59.8063C4.59795 60.2421 5.01447 60.5022 5.4814 60.5022H64.5185C64.9855 60.5022 65.402 60.2421 65.6329 59.8063C65.8638 59.3707 65.8589 58.8535 65.62 58.4228Z" fill="#C69815"/>
</svg>
