<svg width="100" height="100" viewBox="0 0 100 100" fill="none" xmlns="http://www.w3.org/2000/svg">
<path d="M53.6621 41.666H50H46.3379C35.4494 51.7246 25.5859 61.4089 25.5859 71.1256C25.5859 74.6724 27.0474 78.0558 29.6056 80.8913H50H70.3944C72.9526 78.0558 74.4141 74.6724 74.4141 71.1256C74.4141 61.4089 64.5506 51.7246 53.6621 41.666Z" fill="#F7F0EB"/>
<path d="M74.4141 71.1256C74.4141 61.4089 64.5506 51.7246 53.6621 41.666H50V80.8913H70.3944C72.9526 78.0558 74.4141 74.6724 74.4141 71.1256Z" fill="#E1D3CE"/>
<path d="M50 58.7559C48.6506 58.7559 47.5586 59.8478 47.5586 61.1973V66.0801C47.5586 67.4295 48.6506 68.5215 50 68.5215C51.3494 68.5215 52.4414 67.4295 52.4414 66.0801V61.1973C52.4414 59.8478 51.3494 58.7559 50 58.7559Z" fill="#3E0AB9"/>
<path d="M52.4414 66.0801V61.1973C52.4414 59.8478 51.3494 58.7559 50 58.7559V68.5215C51.3494 68.5215 52.4414 67.4295 52.4414 66.0801Z" fill="#3E0AB9"/>
<path d="M49.9998 63.6387C44.1991 63.6387 32.0422 70.8778 30.6641 80.5599H49.9998H69.3356C67.9575 70.8778 55.8006 63.6387 49.9998 63.6387Z" fill="#3E0AB9"/>
<path d="M50 63.6387V80.5599H69.3358C67.9577 70.8778 55.8008 63.6387 50 63.6387Z" fill="#3E0AB9"/>
<path d="M70.4102 2.44141H50H29.5898C27.0508 5.27328 25.5859 8.64242 25.5859 12.207C25.5859 13.6719 25.8301 15.1855 26.2695 16.6502L34.2637 21.7384L50 21.9297L66.7739 22.1335L73.584 17.236C74.1211 15.5762 74.4141 13.867 74.4141 12.207C74.4141 8.64242 72.9492 5.27328 70.4102 2.44141Z" fill="#F7F0EB"/>
<path d="M73.5841 17.2362C74.1211 15.5762 74.4141 13.867 74.4141 12.207C74.4141 8.64242 72.9492 5.27328 70.4102 2.44141H50V21.9297L66.7739 22.1335L73.5841 17.2362Z" fill="#E1D3CE"/>
<path d="M76.8555 0H50H23.1445C21.7951 0 20.7031 1.09196 20.7031 2.44141C20.7031 3.79085 21.7951 4.88281 23.1445 4.88281H50H76.8555C78.2049 4.88281 79.2969 3.79085 79.2969 2.44141C79.2969 1.09196 78.2049 0 76.8555 0Z" fill="#8C4A37"/>
<path d="M79.2969 2.44141C79.2969 1.09196 78.2049 0 76.8555 0H50V4.88281H76.8555C78.2049 4.88281 79.2969 3.79085 79.2969 2.44141Z" fill="#663325"/>
<path d="M50 39.2246C48.6506 39.2246 47.5586 40.3166 47.5586 41.666V51.4316C47.5586 52.7811 48.6506 53.873 50 53.873C51.3494 53.873 52.4414 52.7811 52.4414 51.4316V41.666C52.4414 40.3166 51.3494 39.2246 50 39.2246Z" fill="#3E0AB9"/>
<path d="M52.4414 51.4316V41.666C52.4414 40.3166 51.3494 39.2246 50 39.2246V53.873C51.3494 53.873 52.4414 52.7811 52.4414 51.4316Z" fill="#3E0AB9"/>
<path d="M62.207 19.5312C56.1035 19.5312 51.0256 17.334 50.9766 17.285C50.9224 17.2632 50.5563 17.1086 50 16.8996C48.0578 16.1704 43.3719 14.6484 37.793 14.6484C32.8123 14.6484 28.5155 15.8691 26.2695 16.6502C26.66 18.1639 27.2948 19.6776 28.125 21.1912C31.7383 27.8807 38.7695 34.7329 46.3377 41.6667C46.5819 41.8618 47.5096 42.6919 48.3395 43.4733C48.8035 43.9126 49.4014 44.1325 49.9998 44.1325C50.598 44.1325 51.1965 43.9126 51.6602 43.4733C52.4901 42.6919 53.418 41.8618 53.6619 41.6667C60.4002 35.4653 66.6989 29.2969 70.5566 23.3397C71.9237 21.2891 72.9492 19.2871 73.584 17.2362C73.0955 17.2362 68.9543 19.5312 62.207 19.5312Z" fill="#3E0AB9"/>
<path d="M53.6621 41.6655C60.4004 35.4642 66.6991 29.2957 70.5568 23.3385C71.9238 21.2879 72.9494 19.286 73.5841 17.235C73.0955 17.235 68.9543 19.5301 62.207 19.5301C56.1035 19.5301 51.0256 17.3328 50.9766 17.2839C50.9224 17.262 50.5563 17.1074 50 16.8984V44.1313C50.5981 44.1313 51.1966 43.9115 51.6603 43.4722C52.4902 42.6908 53.418 41.8607 53.6621 41.6655Z" fill="#3E0AB9"/>
<path d="M76.8555 78.4512H50H23.1445C21.7951 78.4512 20.7031 79.5431 20.7031 80.8926C20.7031 82.242 21.7951 83.334 23.1445 83.334H50H76.8555C78.2049 83.334 79.2969 82.242 79.2969 80.8926C79.2969 79.5431 78.2049 78.4512 76.8555 78.4512Z" fill="#8C4A37"/>
<path d="M79.2969 80.8926C79.2969 79.5431 78.2049 78.4512 76.8555 78.4512H50V83.334H76.8555C78.2049 83.334 79.2969 82.242 79.2969 80.8926Z" fill="#663325"/>
</svg>
