<svg width="959" height="1540" viewBox="0 0 959 1540" fill="none" xmlns="http://www.w3.org/2000/svg">
<path d="M747.661 1340.95C756.413 1314.24 762.945 1286.14 767.123 1257.23C777.867 1175.62 768.078 1097.48 747.248 1021.54C714.34 901.374 663.384 797 612.659 692.537C576.093 617.076 538.328 542.783 506.96 462.843C486.228 410.514 468.589 356.287 460.106 296.681C448.843 217.246 461.755 147.909 501.434 89.3543C503.087 86.638 505.178 84.5447 507.524 83.257C509.87 81.9692 512.4 81.526 514.893 81.966C602.65 91.2885 686.956 135.155 758.573 208.76C765.57 215.898 766.832 220.017 760.242 229.9C725.924 281.878 714.537 344.874 717.194 415.486C720.5 499.131 739.531 576.642 760.561 653.649C791.872 768.232 831.079 878.274 856.141 996.323C867.217 1048.38 874.397 1101.67 870.215 1156.76C869.535 1168.71 866.443 1180.12 861.32 1189.58C831.697 1244.45 796.679 1292.85 757.365 1333.23C755.241 1335.38 752.921 1336.8 747.661 1340.95Z" fill="#E2CB8A" fill-opacity="0.12"/>
<path d="M208.278 205.108C201.065 228.515 195.427 252.861 191.438 277.815C180.585 351.585 187.252 423.224 204.074 493.526C233.568 616.511 284.253 722.406 335.152 828.13C377.854 916.994 423.312 1003.47 458.884 1099.33C480.147 1156.14 498.17 1214.74 501.331 1280.46C504.492 1346.19 488.702 1403.09 456.785 1450.78C454.994 1453.61 452.741 1455.76 450.228 1457.04C447.715 1458.31 445.021 1458.67 442.387 1458.08C354.945 1448.58 270.998 1404.56 199.799 1330.87C196.074 1327.08 190.863 1324.56 196.976 1315.75C236.455 1257.45 246.645 1186.06 241.614 1107.68C237.2 1042.17 223.533 979.867 207.671 918.67C182.112 820.382 149.948 725.961 123.674 628.125C105.467 560.303 89.3125 491.604 88.2029 417.74C87.7411 387.9 90.7774 360.966 105.592 336.764C133.637 288.85 165.518 245.862 200.573 208.691C202.05 207.222 203.59 205.89 205.185 204.704C205.729 204.318 206.572 204.879 208.278 205.108Z" fill="#E2CB8A" fill-opacity="0.12"/>
<path d="M437.353 83.539C390.718 156.279 388.02 237.45 402.088 323.333C408.805 362.912 418.266 401.427 430.33 438.299C467.572 555.295 518.333 660.275 570.762 763.64C591.945 805.525 613.813 846.792 635.367 888.356C637.495 892.497 639.409 896.808 642.682 903.785C609.807 873.479 580.426 842.096 551.219 809.671C482.346 732.994 417.262 649.902 360.949 553.432C328.585 500.378 301.78 440.821 281.385 376.646C271.197 344.794 265.154 310.533 263.556 275.563C261.527 211.615 280.136 163.552 318.111 131.154C353.785 100.615 393.569 90.1013 437.353 83.539Z" fill="#E2CB8A" fill-opacity="0.12"/>
<path d="M523.403 1456.01C529.765 1443.92 535.248 1434.37 539.986 1424.14C564.51 1371.14 568.419 1312.62 561.792 1251.41C551.473 1156.92 521.679 1073.54 488.749 992.162C445.377 884.873 393.413 785.314 341.907 685.578C335.815 675.563 330.787 664.307 326.988 652.177C346.901 667.912 365.87 686.002 383.698 706.258C452.677 778.569 516.57 860.414 574.46 950.621C614.944 1014.75 651.847 1083.44 676.238 1163.94C685.617 1193.39 691.499 1224.89 693.641 1257.13C697.41 1325.45 679.058 1376.87 637.537 1410.72C602.933 1439.07 564.34 1449.04 523.403 1456.01Z" fill="#E2CB8A" fill-opacity="0.12"/>
</svg>
