<svg width="48" height="49" viewBox="0 0 48 49" fill="none" xmlns="http://www.w3.org/2000/svg">
<path d="M19.5307 15.56L21.6152 19.7836C21.788 20.1336 22.1219 20.3763 22.5082 20.4323L27.1692 21.1096C27.6555 21.1802 27.8497 21.778 27.4978 22.1211L24.125 25.4087C23.8454 25.6811 23.7179 26.0737 23.7839 26.4584L24.5801 31.1006C24.6632 31.585 24.1548 31.9544 23.7197 31.7257L19.5508 29.534C19.2053 29.3524 18.7925 29.3524 18.447 29.534L14.2781 31.7257C13.843 31.9544 13.3346 31.585 13.4177 31.1006L14.2139 26.4584C14.2799 26.0737 14.1524 25.6811 13.8728 25.4087L10.5 22.1212C10.1481 21.7781 10.3423 21.1804 10.8286 21.1097L15.4896 20.4324C15.8759 20.3763 16.2098 20.1336 16.3826 19.7837L18.4671 15.5601C18.6847 15.1193 19.3131 15.1193 19.5307 15.56Z" fill="#3E0AB9"/>
<path d="M16.9067 29.9378L17.7029 25.2957C17.7689 24.9109 17.6414 24.5184 17.3618 24.2459L13.989 20.9582C13.9035 20.8749 13.8508 20.7764 13.8261 20.6741L10.8286 21.1097C10.3423 21.1804 10.1481 21.7781 10.5 22.1212L13.8728 25.4088C14.1524 25.6813 14.2799 26.0738 14.2139 26.4586L13.4177 31.1007C13.3346 31.5852 13.843 31.9546 14.2781 31.7259L16.966 30.3128C16.9086 30.2045 16.8829 30.0762 16.9067 29.9378Z" fill="#3E0AB9"/>
<path d="M9.05268 35.4474L10.0812 37.5315C10.1664 37.7043 10.3312 37.824 10.5219 37.8517L12.8218 38.1859C13.0618 38.2208 13.1576 38.5157 12.984 38.685L11.3198 40.3073C11.1818 40.4418 11.1189 40.6355 11.1515 40.8252L11.5443 43.1159C11.5854 43.355 11.3345 43.5372 11.1198 43.4244L9.06262 42.3429C8.89209 42.2533 8.68846 42.2533 8.51792 42.3429L6.46079 43.4244C6.24617 43.5372 5.99528 43.355 6.03619 43.1159L6.42907 40.8252C6.46164 40.6354 6.39873 40.4417 6.26076 40.3073L4.59651 38.685C4.4228 38.5157 4.51869 38.2208 4.75869 38.1859L7.05868 37.8517C7.2493 37.824 7.41402 37.7043 7.49935 37.5315L8.52786 35.4474C8.63528 35.23 8.94537 35.23 9.05268 35.4474Z" fill="#3E0AB9"/>
<path d="M7.8327 42.5539L8.22558 40.2632C8.25815 40.0734 8.19524 39.8797 8.05727 39.7453L6.39302 38.123C6.3446 38.0759 6.31785 38.0189 6.30854 37.9606L4.75869 38.1858C4.51869 38.2207 4.4228 38.5157 4.59651 38.685L6.26076 40.3072C6.39873 40.4417 6.46164 40.6354 6.42907 40.8252L6.03619 43.1159C5.99517 43.3549 6.24606 43.5372 6.46079 43.4244L7.84402 42.6972C7.82911 42.6535 7.82382 42.6052 7.8327 42.5539Z" fill="#3E0AB9"/>
<path d="M8.17102 28.1452C7.31949 28.4502 6.9578 28.8119 6.65278 29.6634C6.58522 29.852 6.32101 29.852 6.25345 29.6634C5.94843 28.8119 5.58674 28.4502 4.73521 28.1452C4.5466 28.0776 4.5466 27.8134 4.73521 27.7458C5.58674 27.4408 5.94843 27.0791 6.25345 26.2276C6.32101 26.039 6.58522 26.039 6.65278 26.2276C6.9578 27.0791 7.31949 27.4408 8.17102 27.7458C8.35964 27.8134 8.35964 28.0776 8.17102 28.1452Z" fill="#3E0AB9"/>
<path d="M6.95907 28.9579C6.65405 28.1064 6.29236 27.7447 5.44083 27.4397C5.42984 27.4358 5.4218 27.4292 5.41208 27.424C5.22653 27.5463 5.00577 27.6491 4.73521 27.746C4.5466 27.8135 4.5466 28.0778 4.73521 28.1453C5.58674 28.4503 5.94843 28.812 6.25345 29.6635C6.32101 29.8522 6.58522 29.8522 6.65278 29.6635C6.74973 29.393 6.8525 29.1722 6.97472 28.9867C6.96964 28.977 6.96298 28.9688 6.95907 28.9579Z" fill="#3E0AB9"/>
<path d="M37.2669 13.2309C37.1435 13.2299 37.0418 13.1335 37.0344 13.0102C36.71 7.6835 36.4908 7.46073 31.17 7.04998C31.0469 7.04047 30.9522 6.93728 30.9531 6.81389C30.9541 6.69051 31.0505 6.5888 31.1738 6.5814C36.5005 6.25693 36.7233 6.03775 37.134 0.716944C37.1435 0.593878 37.2467 0.499147 37.3701 0.500099C37.4935 0.50105 37.5952 0.597473 37.6026 0.720751C37.9271 6.04748 38.1463 6.27025 43.4671 6.681C43.5901 6.69051 43.6849 6.7937 43.6839 6.91708C43.683 7.04047 43.5865 7.14218 43.4633 7.14958C38.1365 7.47405 37.9138 7.69322 37.503 13.014C37.4935 13.1372 37.3903 13.2319 37.2669 13.2309Z" fill="#3E0AB9"/>
<path d="M34.8597 6.1413C34.0289 6.38679 32.8561 6.47899 31.1737 6.58144C31.0504 6.58894 30.9541 6.69055 30.9531 6.81393C30.9521 6.93731 31.0468 7.0405 31.17 7.05002C36.4908 7.46077 36.71 7.68353 37.0344 13.0103C37.0419 13.1335 37.1435 13.2299 37.2669 13.2309C37.3903 13.232 37.4935 13.1372 37.503 13.0141C37.6293 11.3791 37.7379 10.2264 37.9822 9.40371C37.6947 7.13344 37.0762 6.47508 34.8597 6.1413Z" fill="#3E0AB9"/>
<path d="M37.2513 33.8476C37.1279 33.8467 37.0262 33.7502 37.0188 33.627C36.6943 28.3002 36.4752 28.0775 31.1544 27.6667C31.0313 27.6572 30.9366 27.554 30.9375 27.4306C30.9385 27.3072 31.0349 27.2055 31.1582 27.1981C36.4849 26.8737 36.7077 26.6545 37.1184 21.3337C37.1279 21.2106 37.2311 21.1159 37.3545 21.1168C37.4779 21.1178 37.5796 21.2142 37.587 21.3375C37.9115 26.6642 38.1306 26.887 43.4514 27.2977C43.5745 27.3072 43.6692 27.4104 43.6683 27.5338C43.6673 27.6572 43.5709 27.7589 43.4476 27.7663C38.1209 28.0908 37.8981 28.31 37.4874 33.6308C37.4779 33.7539 37.3747 33.8487 37.2513 33.8476Z" fill="#3E0AB9"/>
<path d="M34.8494 26.7563C34.0183 27.003 32.8441 27.0954 31.1582 27.1981C31.0349 27.2056 30.9386 27.3072 30.9375 27.4306C30.9366 27.554 31.0312 27.6571 31.1544 27.6667C36.4752 28.0774 36.6943 28.3002 37.0188 33.6269C37.0263 33.7502 37.1279 33.8465 37.2513 33.8476C37.3747 33.8486 37.4779 33.7539 37.4874 33.6307C37.6155 31.971 37.7254 30.8078 37.9775 29.9828C37.6875 27.7389 37.0622 27.0879 34.8494 26.7563Z" fill="#3E0AB9"/>
<path d="M33.013 17.9927L32.362 18.6437C32.3066 18.6991 32.2167 18.6991 32.1613 18.6437L31.5103 17.9927C31.4549 17.9373 31.4549 17.8473 31.5103 17.7919L32.1613 17.141C32.2167 17.0856 32.3066 17.0856 32.362 17.141L33.013 17.7919C33.0684 17.8474 33.0684 17.9373 33.013 17.9927Z" fill="white"/>
<path d="M1.71612 34.6975L1.06516 35.3485C1.00976 35.4039 0.919786 35.4039 0.864386 35.3485L0.213426 34.6975C0.158025 34.6421 0.158025 34.5521 0.213426 34.4967L0.864386 33.8458C0.919786 33.7904 1.00976 33.7904 1.06516 33.8458L1.71612 34.4967C1.77152 34.5522 1.77152 34.6421 1.71612 34.6975Z" fill="white"/>
<path d="M13.9817 47.8076L13.3308 48.4586C13.2754 48.514 13.1854 48.514 13.13 48.4586L12.4791 47.8076C12.4236 47.7522 12.4236 47.6623 12.4791 47.6069L13.13 46.9559C13.1854 46.9005 13.2754 46.9005 13.3308 46.9559L13.9817 47.6069C14.0371 47.6624 14.0371 47.7522 13.9817 47.8076Z" fill="white"/>
<path d="M19.263 37.9751L18.612 38.6261C18.5566 38.6815 18.4667 38.6815 18.4113 38.6261L17.7603 37.9751C17.7049 37.9197 17.7049 37.8297 17.7603 37.7743L18.4113 37.1234C18.4667 37.068 18.5566 37.068 18.612 37.1234L19.263 37.7743C19.3184 37.8298 19.3184 37.9197 19.263 37.9751Z" fill="white"/>
<path d="M32.1692 46.0104L31.5183 46.6613C31.4629 46.7167 31.3729 46.7167 31.3175 46.6613L30.6666 46.0104C30.6111 45.955 30.6111 45.865 30.6666 45.8096L31.3175 45.1586C31.3729 45.1032 31.4629 45.1032 31.5183 45.1586L32.1692 45.8096C32.2246 45.8651 32.2246 45.955 32.1692 46.0104Z" fill="white"/>
<path d="M38.6146 40.1953L37.9636 40.8463C37.9082 40.9017 37.8182 40.9017 37.7628 40.8463L37.1119 40.1953C37.0565 40.1399 37.0565 40.0499 37.1119 39.9945L37.7628 39.3436C37.8182 39.2882 37.9082 39.2882 37.9636 39.3436L38.6146 39.9945C38.67 40.05 38.67 40.1399 38.6146 40.1953Z" fill="white"/>
<path d="M30.921 37.6606C30.0695 37.9656 29.7078 38.3273 29.4028 39.1788C29.3352 39.3674 29.071 39.3674 29.0035 39.1788C28.6984 38.3273 28.3367 37.9656 27.4852 37.6606C27.2966 37.593 27.2966 37.3288 27.4852 37.2613C28.3367 36.9562 28.6984 36.5945 29.0035 35.743C29.071 35.5544 29.3352 35.5544 29.4028 35.743C29.7078 36.5945 30.0695 36.9562 30.921 37.2613C31.1096 37.3288 31.1096 37.593 30.921 37.6606Z" fill="#3E0AB9"/>
<path d="M29.7091 38.4731C29.404 37.6216 29.0424 37.2599 28.1908 36.9549C28.1798 36.951 28.1718 36.9444 28.1621 36.9393C27.9765 37.0615 27.7558 37.1643 27.4852 37.2612C27.2966 37.3288 27.2966 37.593 27.4852 37.6605C28.3367 37.9655 28.6984 38.3272 29.0034 39.1788C29.071 39.3674 29.3352 39.3674 29.4028 39.1788C29.4997 38.9082 29.6025 38.6874 29.7247 38.5019C29.7196 38.4922 29.713 38.484 29.7091 38.4731Z" fill="#3E0AB9"/>
<path d="M22.7804 45.8889C21.9289 46.1939 21.5672 46.5556 21.2622 47.4071C21.1946 47.5957 20.9304 47.5957 20.8628 47.4071C20.5578 46.5556 20.1961 46.1939 19.3446 45.8889C19.156 45.8213 19.156 45.5571 19.3446 45.4896C20.1961 45.1845 20.5578 44.8229 20.8628 43.9713C20.9304 43.7827 21.1946 43.7827 21.2622 43.9713C21.5672 44.8229 21.9289 45.1845 22.7804 45.4896C22.969 45.5571 22.969 45.8213 22.7804 45.8889Z" fill="white"/>
<path d="M21.5684 46.7013C21.2634 45.8498 20.9017 45.4881 20.0502 45.1831C20.0392 45.1792 20.0312 45.1726 20.0215 45.1674C19.8359 45.2897 19.6151 45.3925 19.3446 45.4894C19.156 45.5569 19.156 45.8211 19.3446 45.8887C20.1961 46.1937 20.5578 46.5554 20.8628 47.4069C20.9304 47.5956 21.1946 47.5956 21.2622 47.4069C21.3591 47.1364 21.4619 46.9156 21.5841 46.7301C21.579 46.7204 21.5724 46.7123 21.5684 46.7013Z" fill="#F3F0F3"/>
<path d="M11.7882 14.4006C10.9367 14.7056 10.575 15.0673 10.27 15.9188C10.2024 16.1074 9.9382 16.1074 9.87064 15.9188C9.56562 15.0673 9.20392 14.7056 8.3524 14.4006C8.16378 14.333 8.16378 14.0688 8.3524 14.0013C9.20392 13.6962 9.56562 13.3345 9.87064 12.483C9.9382 12.2944 10.2024 12.2944 10.27 12.483C10.575 13.3345 10.9367 13.6962 11.7882 14.0013C11.9768 14.0688 11.9768 14.333 11.7882 14.4006Z" fill="white"/>
<path d="M10.5763 15.2134C10.2712 14.3619 9.90954 14.0002 9.05802 13.6951C9.04702 13.6912 9.03899 13.6847 9.02926 13.6795C8.84371 13.8017 8.62295 13.9046 8.3524 14.0014C8.16378 14.069 8.16378 14.3332 8.3524 14.4008C9.20392 14.7058 9.56562 15.0675 9.87064 15.919C9.9382 16.1076 10.2024 16.1076 10.27 15.919C10.3669 15.6484 10.4697 15.4277 10.5919 15.2421C10.5868 15.2324 10.5802 15.2243 10.5763 15.2134Z" fill="#F3F0F3"/>
<path d="M26.9054 12.1804C26.0539 12.4854 25.6922 12.8471 25.3872 13.6986C25.3196 13.8872 25.0554 13.8872 24.9878 13.6986C24.6828 12.8471 24.3211 12.4854 23.4696 12.1804C23.281 12.1128 23.281 11.8486 23.4696 11.7811C24.3211 11.476 24.6828 11.1143 24.9878 10.2628C25.0554 10.0742 25.3196 10.0742 25.3872 10.2628C25.6922 11.1143 26.0539 11.476 26.9054 11.7811C27.094 11.8486 27.094 12.1128 26.9054 12.1804Z" fill="white"/>
<path d="M25.6934 12.9929C25.3884 12.1414 25.0267 11.7797 24.1752 11.4747C24.1642 11.4708 24.1562 11.4642 24.1464 11.4591C23.9609 11.5813 23.7401 11.6842 23.4696 11.781C23.281 11.8486 23.281 12.1128 23.4696 12.1803C24.3211 12.4854 24.6828 12.847 24.9878 13.6986C25.0554 13.8872 25.3196 13.8872 25.3872 13.6986C25.4841 13.428 25.5869 13.2073 25.7091 13.0217C25.704 13.012 25.6974 13.0038 25.6934 12.9929Z" fill="#F3F0F3"/>
</svg>
