<svg width="496" height="400" viewBox="0 0 496 400" fill="none" xmlns="http://www.w3.org/2000/svg">
<mask id="mask0_10009_265598" style="mask-type:luminance" maskUnits="userSpaceOnUse" x="0" y="0" width="496" height="400">
<path d="M495.996 0H0V399.169H495.996V0Z" fill="white"/>
</mask>
<g mask="url(#mask0_10009_265598)">
<path d="M43.2267 -0.375H30.1406V202.989H43.2267V-0.375Z" fill="white"/>
<path d="M72.0548 -0.375H58.9688V202.989H72.0548V-0.375Z" fill="white"/>
<path d="M100.891 -0.375H87.8047V202.989H100.891V-0.375Z" fill="white"/>
<path d="M129.719 -0.375H116.633V202.989H129.719V-0.375Z" fill="white"/>
<path d="M158.547 -0.375H145.461V202.989H158.547V-0.375Z" fill="white"/>
<path d="M187.383 -0.375H174.297V202.989H187.383V-0.375Z" fill="white"/>
<path d="M216.219 -0.375H203.133V202.989H216.219V-0.375Z" fill="white"/>
<path d="M245.047 -0.375H231.961V202.989H245.047V-0.375Z" fill="white"/>
<path d="M273.875 -0.375H260.789V202.989H273.875V-0.375Z" fill="white"/>
<path d="M302.711 -0.375H289.625V202.989H302.711V-0.375Z" fill="white"/>
<path d="M331.539 -0.375H318.453V202.989H331.539V-0.375Z" fill="white"/>
<path d="M360.375 -0.375H347.289V202.989H360.375V-0.375Z" fill="white"/>
<path d="M389.211 -0.375H376.125V202.989H389.211V-0.375Z" fill="white"/>
<path d="M418.031 -0.375H404.945V202.989H418.031V-0.375Z" fill="white"/>
<path d="M446.867 -0.375H433.781V202.989H446.867V-0.375Z" fill="white"/>
<path d="M495.996 323.326H0V399.168H495.996V323.326Z" fill="#C2C2C2"/>
<path opacity="0.1" d="M136.952 305.827V227.507C133.296 227.507 130.333 224.693 130.333 221.223H47.8383C47.8383 224.694 44.8741 227.507 41.2188 227.507V305.827C44.875 305.827 47.8383 308.641 47.8383 312.111H130.332C130.332 308.64 133.296 305.827 136.952 305.827Z" fill="#7B7E89"/>
<path d="M51.1921 308.12C50.0947 305.658 48.0152 303.683 45.4219 302.642V230.693C48.0144 229.651 50.0947 227.677 51.1921 225.215H126.977C128.075 227.677 130.154 229.652 132.747 230.693V302.642C130.154 303.684 128.075 305.658 126.977 308.12H51.1921Z" fill="#F2F7F5"/>
<path opacity="0.1" d="M53.6552 304.128C52.578 302.623 51.2014 301.317 49.6172 300.293V233.04C51.2014 232.017 52.578 230.709 53.6552 229.205H124.495C125.572 230.709 126.949 232.016 128.533 233.04V300.293C126.949 301.316 125.572 302.623 124.495 304.128H53.6552Z" fill="#7B7E89"/>
<path opacity="0.1" d="M243.59 221.223H161.096C161.096 224.694 158.132 227.507 154.477 227.507V305.827C158.133 305.827 161.096 308.641 161.096 312.111H243.59C243.59 308.64 246.554 305.827 250.209 305.827V227.507C246.554 227.507 243.59 224.694 243.59 221.223Z" fill="#7B7E89"/>
<path d="M164.45 308.12C163.353 305.658 161.273 303.683 158.68 302.642V230.693C161.272 229.651 163.353 227.677 164.45 225.215H240.235C241.332 227.677 243.412 229.652 246.005 230.693V302.642C243.413 303.684 241.332 305.658 240.235 308.12H164.45Z" fill="#F2F7F5"/>
<path opacity="0.1" d="M166.913 304.128C165.836 302.623 164.459 301.317 162.875 300.293V233.04C164.459 232.017 165.836 230.709 166.913 229.205H237.753C238.83 230.709 240.206 232.016 241.791 233.04V300.293C240.206 301.316 238.83 302.623 237.753 304.128H166.913Z" fill="#7B7E89"/>
<path opacity="0.1" d="M385.375 216.443H469.191V209.455H375.873H369.216H262.621H255.964H149.368H142.711H48.7422V216.443H133.209C138.457 216.443 142.711 220.482 142.711 225.464V307.412C142.711 312.394 138.457 316.433 133.209 316.433H48.7422V323.421H142.711H149.368H255.964H262.621H369.216H375.873H469.191V316.433H385.375C380.127 316.433 375.873 312.394 375.873 307.412V225.464C375.873 220.482 380.127 216.443 385.375 216.443ZM149.368 307.412V225.464C149.368 220.482 153.622 216.443 158.87 216.443H246.462C251.71 216.443 255.964 220.482 255.964 225.464V307.412C255.964 312.394 251.71 316.433 246.462 316.433H158.87C153.622 316.432 149.368 312.394 149.368 307.412ZM262.621 307.412V225.464C262.621 220.482 266.875 216.443 272.123 216.443H359.715C364.963 216.443 369.217 220.482 369.217 225.464V307.412C369.217 312.394 364.963 316.433 359.715 316.433H272.123C266.875 316.432 262.621 312.394 262.621 307.412Z" fill="#7B7E89"/>
<path opacity="0.1" d="M356.84 221.223H274.346C274.346 224.694 271.382 227.507 267.727 227.507V305.827C271.383 305.827 274.346 308.641 274.346 312.111H356.84C356.84 308.64 359.804 305.827 363.46 305.827V227.507C359.804 227.507 356.84 224.694 356.84 221.223Z" fill="#7B7E89"/>
<path d="M277.699 308.12C276.602 305.658 274.522 303.683 271.93 302.642V230.693C274.522 229.651 276.603 227.677 277.699 225.215H353.484C354.582 227.677 356.661 229.652 359.254 230.693V302.642C356.661 303.684 354.581 305.658 353.484 308.12H277.699Z" fill="#F2F7F5"/>
<path opacity="0.1" d="M280.171 304.128C279.094 302.623 277.717 301.317 276.133 300.293V233.04C277.717 232.016 279.094 230.709 280.171 229.205H351.011C352.088 230.709 353.464 232.016 355.049 233.04V300.293C353.464 301.317 352.089 302.623 351.011 304.128H280.171Z" fill="#7B7E89"/>
<path opacity="0.1" d="M470.09 221.223H387.596C387.596 224.694 384.632 227.507 380.977 227.507V305.827C384.633 305.827 387.596 308.641 387.596 312.111H470.091C470.091 308.64 473.055 305.827 476.71 305.827V227.507C473.054 227.507 470.09 224.694 470.09 221.223Z" fill="#7B7E89"/>
<path d="M390.949 308.12C389.852 305.658 387.772 303.683 385.18 302.642V230.693C387.772 229.651 389.853 227.677 390.949 225.215H466.734C467.832 227.677 469.911 229.652 472.504 230.693V302.642C469.911 303.684 467.831 305.658 466.734 308.12H390.949Z" fill="#F2F7F5"/>
<path opacity="0.1" d="M393.421 304.128C392.344 302.623 390.967 301.317 389.383 300.293V233.04C390.967 232.016 392.344 230.709 393.421 229.205H464.261C465.338 230.709 466.714 232.016 468.299 233.04V300.293C466.714 301.317 465.339 302.623 464.261 304.128H393.421Z" fill="#7B7E89"/>
<path opacity="0.1" d="M469.191 202.988H48.7422V205.259H469.191V202.988Z" fill="#7B7E89"/>
<g opacity="0.8">
<path opacity="0.1" d="M471.285 328.113H50.8359V329.999H471.285V328.113Z" fill="#7B7E89"/>
<path opacity="0.1" d="M471.285 343.783H50.8359V346.119H471.285V343.783Z" fill="#7B7E89"/>
<path opacity="0.1" d="M471.285 359.449H50.8359V362.235H471.285V359.449Z" fill="#7B7E89"/>
<path opacity="0.1" d="M471.285 375.117H50.8359V378.354H471.285V375.117Z" fill="#7B7E89"/>
<path opacity="0.1" d="M471.285 390.785H50.8359V394.472H471.285V390.785Z" fill="#7B7E89"/>
</g>
<path d="M469.489 8.3125H315.266V105.003H469.489V8.3125Z" fill="white"/>
<path d="M181.708 8.3125H27.4844V105.003H181.708V8.3125Z" fill="white"/>
<path d="M315.266 8.31116V105.002L469.489 105.002V8.31116L315.266 8.31116Z" fill="#F2F7F5"/>
<path d="M315.266 8.30921V105L469.489 105V8.30921L315.266 8.30921Z" fill="#F2F7F5"/>
<g opacity="0.6">
<path d="M363.85 60.0039H350.672L363.85 79.4882V60.0039Z" fill="#B6D5EC"/>
<path opacity="0.8" d="M363.85 79.4882L350.672 60.0039H347.633L363.85 83.9812V79.4882Z" fill="#B6D5EC"/>
<path d="M360.051 99.4546H363.851V83.9812L347.634 60.0039H333.367L360.051 99.4546Z" fill="#B6D5EC"/>
<path opacity="0.8" d="M324.812 60.0039L351.496 99.4546H360.049L333.365 60.0039H324.812Z" fill="#B6D5EC"/>
<path d="M321.258 60.0039V99.4546H351.497L324.814 60.0039H321.258Z" fill="#B6D5EC"/>
<path opacity="0.8" d="M358.675 53.3093L331.992 13.8594H328.953L355.636 53.3093H358.675Z" fill="#B6D5EC"/>
<path d="M363.851 53.3093V13.8594H331.992L358.676 53.3093H363.851Z" fill="#B6D5EC"/>
<path d="M355.636 53.3093L328.953 13.8594H321.258V23.5744L341.37 53.3093H355.636Z" fill="#B6D5EC"/>
<path opacity="0.8" d="M332.817 53.3111H341.37L321.258 23.5762V36.2219L332.817 53.3111Z" fill="#B6D5EC"/>
<path d="M321.258 53.3099H332.817L321.258 36.2207V53.3099Z" fill="#B6D5EC"/>
<path d="M413.679 60.0039H400.5L413.679 79.4882V60.0039Z" fill="#B6D5EC"/>
<path opacity="0.8" d="M413.678 79.4882L400.5 60.0039H397.461L413.678 83.9812V79.4882Z" fill="#B6D5EC"/>
<path d="M409.88 99.4546H413.68V83.9812L397.462 60.0039H383.195L409.88 99.4546Z" fill="#B6D5EC"/>
<path opacity="0.8" d="M374.633 60.0039L401.316 99.4546H409.87L383.186 60.0039H374.633Z" fill="#B6D5EC"/>
<path d="M371.078 60.0039V99.4546H401.318L374.634 60.0039H371.078Z" fill="#B6D5EC"/>
<path opacity="0.8" d="M408.504 53.3093L381.82 13.8594H378.781L405.465 53.3093H408.504Z" fill="#B6D5EC"/>
<path d="M413.679 53.3093V13.8594H381.82L408.504 53.3093H413.679Z" fill="#B6D5EC"/>
<path d="M405.457 53.3093L378.773 13.8594H371.078V23.5744L391.191 53.3093H405.457Z" fill="#B6D5EC"/>
<path opacity="0.8" d="M382.637 53.3111H391.191L371.078 23.5762V36.2219L382.637 53.3111Z" fill="#B6D5EC"/>
<path d="M371.078 53.3099H382.637L371.078 36.2207V53.3099Z" fill="#B6D5EC"/>
<path d="M463.499 60.0039H450.32L463.499 79.4882V60.0039Z" fill="#B6D5EC"/>
<path opacity="0.8" d="M463.499 79.4882L450.32 60.0039H447.281L463.499 83.9812V79.4882Z" fill="#B6D5EC"/>
<path d="M459.699 99.4546H463.499V83.9812L447.281 60.0039H433.016L459.699 99.4546Z" fill="#B6D5EC"/>
<path opacity="0.8" d="M424.461 60.0039L451.144 99.4546H459.698L433.015 60.0039H424.461Z" fill="#B6D5EC"/>
<path d="M420.906 60.0039V99.4546H451.146L424.462 60.0039H420.906Z" fill="#B6D5EC"/>
<path opacity="0.8" d="M458.324 53.3093L431.641 13.8594H428.602L455.285 53.3093H458.324Z" fill="#B6D5EC"/>
<path d="M463.5 53.3093V13.8594H431.641L458.324 53.3093H463.5Z" fill="#B6D5EC"/>
<path d="M455.285 53.3093L428.601 13.8594H420.906V23.5744L441.019 53.3093H455.285Z" fill="#B6D5EC"/>
<path opacity="0.8" d="M432.465 53.3111H441.019L420.906 23.5762V36.2219L432.465 53.3111Z" fill="#B6D5EC"/>
<path d="M420.906 53.3099H432.465L420.906 36.2207V53.3099Z" fill="#B6D5EC"/>
</g>
<path d="M27.4844 8.31116L27.4844 105.002L181.708 105.002V8.31116L27.4844 8.31116Z" fill="#F2F7F5"/>
<path d="M27.4844 8.31116L27.4844 105.002L181.708 105.002V8.31116L27.4844 8.31116Z" fill="#F2F7F5"/>
<g opacity="0.6">
<path d="M76.0614 60.0039H62.8828L76.0614 79.4882V60.0039Z" fill="#B6D5EC"/>
<path opacity="0.8" d="M76.0691 79.4882L62.8906 60.0039H59.8516L76.0691 83.9812V79.4882Z" fill="#B6D5EC"/>
<path d="M72.2693 99.4546H76.0693V83.9812L59.8518 60.0039H45.5859L72.2693 99.4546Z" fill="#B6D5EC"/>
<path opacity="0.8" d="M37.0312 60.0039L63.7146 99.4546H72.2682L45.5849 60.0039H37.0312Z" fill="#B6D5EC"/>
<path d="M33.4766 60.0039V99.4546H63.7161L37.0327 60.0039H33.4766Z" fill="#B6D5EC"/>
<path opacity="0.8" d="M70.8942 53.3093L44.2109 13.8594H41.1719L67.8552 53.3093H70.8942Z" fill="#B6D5EC"/>
<path d="M76.07 53.3093V13.8594H44.2109L70.8943 53.3093H76.07Z" fill="#B6D5EC"/>
<path d="M67.855 53.3093L41.1716 13.8594H33.4766V23.5744L53.5891 53.3093H67.855Z" fill="#B6D5EC"/>
<path opacity="0.8" d="M45.0355 53.3111H53.5891L33.4766 23.5762V36.2219L45.0355 53.3111Z" fill="#B6D5EC"/>
<path d="M33.4766 53.3099H45.0355L33.4766 36.2207V53.3099Z" fill="#B6D5EC"/>
<path d="M125.897 60.0039H112.719L125.897 79.4882V60.0039Z" fill="#B6D5EC"/>
<path opacity="0.8" d="M125.889 79.4882L112.711 60.0039H109.672L125.889 83.9812V79.4882Z" fill="#B6D5EC"/>
<path d="M122.097 99.4546H125.897V83.9812L109.68 60.0039H95.4141L122.097 99.4546Z" fill="#B6D5EC"/>
<path opacity="0.8" d="M86.8594 60.0039L113.543 99.4546H122.096L95.413 60.0039H86.8594Z" fill="#B6D5EC"/>
<path d="M83.3047 60.0039V99.4546H113.544L86.8608 60.0039H83.3047Z" fill="#B6D5EC"/>
<path opacity="0.8" d="M120.715 53.3093L94.0312 13.8594H90.9922L117.676 53.3093H120.715Z" fill="#B6D5EC"/>
<path d="M125.898 53.3093V13.8594H94.0391L120.722 53.3093H125.898Z" fill="#B6D5EC"/>
<path d="M117.683 53.3093L90.9997 13.8594H83.3047V23.5744L103.417 53.3093H117.683Z" fill="#B6D5EC"/>
<path opacity="0.8" d="M94.8637 53.3111H103.417L83.3047 23.5762V36.2219L94.8637 53.3111Z" fill="#B6D5EC"/>
<path d="M83.3047 53.3099H94.8637L83.3047 36.2207V53.3099Z" fill="#B6D5EC"/>
<path d="M175.718 60.0039H162.539L175.718 79.4882V60.0039Z" fill="#B6D5EC"/>
<path opacity="0.8" d="M175.71 79.4882L162.531 60.0039H159.492L175.71 83.9812V79.4882Z" fill="#B6D5EC"/>
<path d="M171.91 99.4546H175.71V83.9812L159.492 60.0039H145.227L171.91 99.4546Z" fill="#B6D5EC"/>
<path opacity="0.8" d="M136.68 60.0039L163.363 99.4546H171.917L145.233 60.0039H136.68Z" fill="#B6D5EC"/>
<path d="M133.117 60.0039V99.4546H163.357L136.673 60.0039H133.117Z" fill="#B6D5EC"/>
<path opacity="0.8" d="M170.535 53.3093L143.852 13.8594H140.812L167.496 53.3093H170.535Z" fill="#B6D5EC"/>
<path d="M175.711 53.3093V13.8594H143.852L170.535 53.3093H175.711Z" fill="#B6D5EC"/>
<path d="M167.496 53.3093L140.812 13.8594H133.117V23.5744L153.23 53.3093H167.496Z" fill="#B6D5EC"/>
<path opacity="0.8" d="M144.676 53.3111H153.23L133.117 23.5762V36.2219L144.676 53.3111Z" fill="#B6D5EC"/>
<path d="M133.117 53.3099H144.676L133.117 36.2207V53.3099Z" fill="#B6D5EC"/>
</g>
<path d="M469.489 99.4531H315.266V196.144H469.489V99.4531Z" fill="white"/>
<path d="M181.708 99.4531H27.4844V196.144H181.708V99.4531Z" fill="white"/>
<path d="M315.266 99.4557V196.146H469.489V99.4557L315.266 99.4557Z" fill="#F2F7F5"/>
<path d="M315.266 99.4557V196.146H469.489V99.4557L315.266 99.4557Z" fill="#F2F7F5"/>
<g opacity="0.6">
<path d="M363.85 151.15H350.672L363.85 170.634V151.15Z" fill="#B6D5EC"/>
<path opacity="0.8" d="M363.85 170.634L350.672 151.15H347.633L363.85 175.127V170.634Z" fill="#B6D5EC"/>
<path d="M360.051 190.6H363.851V175.127L347.634 151.15H333.367L360.051 190.6Z" fill="#B6D5EC"/>
<path opacity="0.8" d="M324.812 151.15L351.496 190.6H360.049L333.365 151.15H324.812Z" fill="#B6D5EC"/>
<path d="M321.258 151.15V190.6H351.497L324.814 151.15H321.258Z" fill="#B6D5EC"/>
<path opacity="0.8" d="M358.675 144.457L331.992 105.006H328.953L355.636 144.457H358.675Z" fill="#B6D5EC"/>
<path d="M363.851 144.457V105.006H331.992L358.676 144.457H363.851Z" fill="#B6D5EC"/>
<path d="M355.636 144.457L328.953 105.006H321.258V114.721L341.37 144.457H355.636Z" fill="#B6D5EC"/>
<path opacity="0.8" d="M332.817 144.456H341.37L321.258 114.721V127.366L332.817 144.456Z" fill="#B6D5EC"/>
<path d="M321.258 144.457H332.817L321.258 127.367V144.457Z" fill="#B6D5EC"/>
<path d="M413.679 151.15H400.5L413.679 170.634V151.15Z" fill="#B6D5EC"/>
<path opacity="0.8" d="M413.678 170.634L400.5 151.15H397.461L413.678 175.127V170.634Z" fill="#B6D5EC"/>
<path d="M409.88 190.6H413.68V175.127L397.462 151.15H383.195L409.88 190.6Z" fill="#B6D5EC"/>
<path opacity="0.8" d="M374.633 151.15L401.316 190.6H409.87L383.186 151.15H374.633Z" fill="#B6D5EC"/>
<path d="M371.078 151.15V190.6H401.318L374.634 151.15H371.078Z" fill="#B6D5EC"/>
<path opacity="0.8" d="M408.504 144.457L381.82 105.006H378.781L405.465 144.457H408.504Z" fill="#B6D5EC"/>
<path d="M413.679 144.457V105.006H381.82L408.504 144.457H413.679Z" fill="#B6D5EC"/>
<path d="M405.457 144.457L378.773 105.006H371.078V114.721L391.191 144.457H405.457Z" fill="#B6D5EC"/>
<path opacity="0.8" d="M382.637 144.456H391.191L371.078 114.721V127.366L382.637 144.456Z" fill="#B6D5EC"/>
<path d="M371.078 144.457H382.637L371.078 127.367V144.457Z" fill="#B6D5EC"/>
<path d="M463.499 151.15H450.32L463.499 170.634V151.15Z" fill="#B6D5EC"/>
<path opacity="0.8" d="M463.499 170.634L450.32 151.15H447.281L463.499 175.127V170.634Z" fill="#B6D5EC"/>
<path d="M459.699 190.6H463.499V175.127L447.281 151.15H433.016L459.699 190.6Z" fill="#B6D5EC"/>
<path opacity="0.8" d="M424.461 151.15L451.144 190.6H459.698L433.015 151.15H424.461Z" fill="#B6D5EC"/>
<path d="M420.906 151.15V190.6H451.146L424.462 151.15H420.906Z" fill="#B6D5EC"/>
<path opacity="0.8" d="M458.324 144.457L431.641 105.006H428.602L455.285 144.457H458.324Z" fill="#B6D5EC"/>
<path d="M463.5 144.457V105.006H431.641L458.324 144.457H463.5Z" fill="#B6D5EC"/>
<path d="M455.285 144.457L428.601 105.006H420.906V114.721L441.019 144.457H455.285Z" fill="#B6D5EC"/>
<path opacity="0.8" d="M432.465 144.456H441.019L420.906 114.721V127.366L432.465 144.456Z" fill="#B6D5EC"/>
<path d="M420.906 144.457H432.465L420.906 127.367V144.457Z" fill="#B6D5EC"/>
</g>
<path d="M27.4844 99.4557L27.4844 196.146H181.708V99.4557L27.4844 99.4557Z" fill="#F2F7F5"/>
<path d="M27.4844 99.4557L27.4844 196.146H181.708V99.4557L27.4844 99.4557Z" fill="#F2F7F5"/>
<g opacity="0.6">
<path d="M76.0614 151.15H62.8828L76.0614 170.634V151.15Z" fill="#B6D5EC"/>
<path opacity="0.8" d="M76.0691 170.634L62.8906 151.15H59.8516L76.0691 175.127V170.634Z" fill="#B6D5EC"/>
<path d="M72.2693 190.6H76.0693V175.127L59.8518 151.15H45.5859L72.2693 190.6Z" fill="#B6D5EC"/>
<path opacity="0.8" d="M37.0312 151.15L63.7146 190.6H72.2682L45.5849 151.15H37.0312Z" fill="#B6D5EC"/>
<path d="M33.4766 151.15V190.6H63.7161L37.0327 151.15H33.4766Z" fill="#B6D5EC"/>
<path opacity="0.8" d="M70.8942 144.457L44.2109 105.006H41.1719L67.8552 144.457H70.8942Z" fill="#B6D5EC"/>
<path d="M76.07 144.457V105.006H44.2109L70.8943 144.457H76.07Z" fill="#B6D5EC"/>
<path d="M67.855 144.457L41.1716 105.006H33.4766V114.721L53.5891 144.457H67.855Z" fill="#B6D5EC"/>
<path opacity="0.8" d="M45.0355 144.456H53.5891L33.4766 114.721V127.366L45.0355 144.456Z" fill="#B6D5EC"/>
<path d="M33.4766 144.457H45.0355L33.4766 127.367V144.457Z" fill="#B6D5EC"/>
<path d="M125.897 151.15H112.719L125.897 170.634V151.15Z" fill="#B6D5EC"/>
<path opacity="0.8" d="M125.889 170.634L112.711 151.15H109.672L125.889 175.127V170.634Z" fill="#B6D5EC"/>
<path d="M122.097 190.6H125.897V175.127L109.68 151.15H95.4141L122.097 190.6Z" fill="#B6D5EC"/>
<path opacity="0.8" d="M86.8594 151.15L113.543 190.6H122.096L95.413 151.15H86.8594Z" fill="#B6D5EC"/>
<path d="M83.3047 151.15V190.6H113.544L86.8608 151.15H83.3047Z" fill="#B6D5EC"/>
<path opacity="0.8" d="M120.715 144.457L94.0312 105.006H90.9922L117.676 144.457H120.715Z" fill="#B6D5EC"/>
<path d="M125.898 144.457V105.006H94.0391L120.722 144.457H125.898Z" fill="#B6D5EC"/>
<path d="M117.683 144.457L90.9997 105.006H83.3047V114.721L103.417 144.457H117.683Z" fill="#B6D5EC"/>
<path opacity="0.8" d="M94.8637 144.456H103.417L83.3047 114.721V127.366L94.8637 144.456Z" fill="#B6D5EC"/>
<path d="M83.3047 144.457H94.8637L83.3047 127.367V144.457Z" fill="#B6D5EC"/>
<path d="M175.718 151.15H162.539L175.718 170.634V151.15Z" fill="#B6D5EC"/>
<path opacity="0.8" d="M175.71 170.634L162.531 151.15H159.492L175.71 175.127V170.634Z" fill="#B6D5EC"/>
<path d="M171.91 190.6H175.71V175.127L159.492 151.15H145.227L171.91 190.6Z" fill="#B6D5EC"/>
<path opacity="0.8" d="M136.68 151.15L163.363 190.6H171.917L145.233 151.15H136.68Z" fill="#B6D5EC"/>
<path d="M133.117 151.15V190.6H163.357L136.673 151.15H133.117Z" fill="#B6D5EC"/>
<path opacity="0.8" d="M170.535 144.457L143.852 105.006H140.812L167.496 144.457H170.535Z" fill="#B6D5EC"/>
<path d="M175.711 144.457V105.006H143.852L170.535 144.457H175.711Z" fill="#B6D5EC"/>
<path d="M167.496 144.457L140.812 105.006H133.117V114.721L153.23 144.457H167.496Z" fill="#B6D5EC"/>
<path opacity="0.8" d="M144.676 144.456H153.23L133.117 114.721V127.366L144.676 144.456Z" fill="#B6D5EC"/>
<path d="M133.117 144.457H144.676L133.117 127.367V144.457Z" fill="#B6D5EC"/>
</g>
<path d="M286.48 11.7207H233.039V190.611H286.48V11.7207Z" fill="white"/>
<path d="M229.453 194.012L235.127 188.626V13.7008L229.453 8.31445V194.012Z" fill="#7B7E89"/>
<path d="M290.064 194.012L284.391 188.626V13.7008L290.064 8.31445V194.012Z" fill="#7B7E89"/>
<path d="M229.453 194.013L235.127 188.627H284.389L290.062 194.013H229.453Z" fill="#626774"/>
<path d="M235.127 13.7008L229.453 8.31445H290.062L284.389 13.7008H235.127Z" fill="#626774"/>
<path d="M235.133 188.63L236.417 187.189H284.395V188.63H235.133Z" fill="#3E4048"/>
<path d="M235.133 188.628L236.417 187.188V13.7031H235.133V188.628Z" fill="#4C4E56"/>
<path d="M248.529 129.746L252.409 118.791C252.656 118.093 253.318 117.641 254.094 117.641C254.871 117.641 255.532 118.093 255.778 118.791L259.659 129.747C259.667 129.771 259.681 129.807 259.749 129.807C259.818 129.807 259.831 129.771 259.839 129.746L263.72 118.79C263.967 118.092 264.629 117.64 265.404 117.64H265.405C266.181 117.641 266.842 118.092 267.089 118.79L270.97 129.747C270.979 129.771 270.992 129.807 271.06 129.807C271.129 129.807 271.143 129.771 271.151 129.746L273.861 122.095V111.983L272.746 115.133C272.498 115.832 271.837 116.282 271.061 116.282H271.06C270.285 116.282 269.624 115.832 269.377 115.133L265.495 104.177C265.487 104.153 265.473 104.115 265.405 104.115C265.336 104.115 265.323 104.153 265.315 104.177L261.434 115.133C261.187 115.832 260.525 116.282 259.749 116.282C258.974 116.282 258.312 115.832 258.064 115.133L254.184 104.177C254.174 104.154 254.162 104.116 254.094 104.116C254.025 104.116 254.011 104.154 254.003 104.177L250.123 115.132C249.876 115.831 249.215 116.282 248.439 116.282C247.662 116.282 247.001 115.831 246.754 115.132L245.648 112.008V122.119L248.349 129.746C248.366 129.795 248.511 129.794 248.529 129.746Z" fill="#626774"/>
<path d="M271.061 70.9206C270.285 70.9206 269.624 70.4703 269.377 69.7718L265.495 58.8154C265.487 58.7914 265.473 58.7539 265.405 58.7539C265.336 58.7539 265.323 58.7914 265.315 58.8162L261.434 69.7718C261.187 70.4703 260.525 70.9206 259.749 70.9206C258.974 70.9206 258.312 70.4703 258.064 69.7718L254.184 58.8162C254.174 58.7922 254.162 58.7547 254.094 58.7547C254.025 58.7547 254.011 58.7922 254.003 58.8162L250.123 69.771C249.876 70.4695 249.215 70.9206 248.439 70.9206C247.662 70.9206 247.001 70.4695 246.754 69.771L245.648 66.6471V76.758L248.349 84.3846C248.366 84.4341 248.512 84.4325 248.529 84.3846L252.409 73.4298C252.656 72.7312 253.318 72.2802 254.094 72.2802C254.871 72.2802 255.532 72.7312 255.778 73.4298L259.659 84.3854C259.667 84.4093 259.681 84.446 259.749 84.446C259.818 84.446 259.831 84.4093 259.839 84.3846L263.72 73.429C263.967 72.7304 264.629 72.2794 265.404 72.2794H265.405C266.181 72.2802 266.842 72.7304 267.089 73.429L270.97 84.3854C270.979 84.4093 270.992 84.446 271.06 84.446C271.129 84.446 271.143 84.4093 271.151 84.3846L273.861 76.7333V66.6207L272.746 69.771C272.498 70.4695 271.837 70.9206 271.061 70.9206Z" fill="#626774"/>
<path d="M248.529 114.627L252.409 103.672C252.656 102.973 253.318 102.522 254.094 102.522C254.871 102.522 255.532 102.973 255.778 103.672L259.659 114.628C259.667 114.652 259.681 114.688 259.749 114.688C259.818 114.688 259.831 114.652 259.839 114.627L263.72 103.671C263.967 102.973 264.629 102.522 265.404 102.522H265.405C266.181 102.522 266.842 102.973 267.089 103.671L270.97 114.628C270.979 114.652 270.992 114.688 271.06 114.688C271.129 114.688 271.143 114.652 271.151 114.627L273.861 106.975V96.8637L272.746 100.014C272.498 100.713 271.837 101.163 271.061 101.163H271.06C270.285 101.163 269.624 100.713 269.377 100.014L265.495 89.0576C265.487 89.0336 265.473 88.9961 265.405 88.9961C265.336 88.9961 265.323 89.0336 265.315 89.0584L261.434 100.014C261.187 100.713 260.525 101.163 259.749 101.163C258.974 101.163 258.312 100.713 258.064 100.014L254.184 89.0584C254.174 89.0344 254.162 88.9969 254.094 88.9969C254.025 88.9969 254.011 89.0344 254.003 89.0584L250.123 100.013C249.876 100.712 249.215 101.163 248.439 101.163C247.662 101.163 247.001 100.712 246.754 100.013L245.648 96.8893V107L248.349 114.627C248.366 114.675 248.511 114.674 248.529 114.627Z" fill="#626774"/>
<path d="M248.529 144.869L252.409 133.914C252.656 133.216 253.318 132.765 254.094 132.765C254.871 132.765 255.532 133.216 255.778 133.914L259.659 144.87C259.667 144.894 259.681 144.93 259.749 144.93C259.818 144.93 259.831 144.894 259.839 144.869L263.72 133.913C263.967 133.215 264.629 132.763 265.404 132.763H265.405C266.181 132.764 266.842 133.215 267.089 133.913L270.97 144.87C270.979 144.894 270.992 144.93 271.06 144.93C271.129 144.93 271.143 144.894 271.151 144.869L273.861 137.218V127.106L272.746 130.256C272.498 130.955 271.837 131.405 271.061 131.405H271.06C270.285 131.405 269.624 130.955 269.377 130.256L265.495 119.3C265.487 119.276 265.473 119.238 265.405 119.238C265.336 119.238 265.323 119.276 265.315 119.301L261.434 130.256C261.187 130.955 260.525 131.405 259.749 131.405C258.974 131.405 258.312 130.955 258.064 130.256L254.184 119.301C254.174 119.277 254.162 119.239 254.094 119.239C254.025 119.239 254.011 119.277 254.003 119.301L250.123 130.255C249.876 130.954 249.215 131.406 248.439 131.406C247.662 131.406 247.001 130.954 246.754 130.255L245.648 127.131V137.242L248.349 144.869C248.366 144.918 248.511 144.916 248.529 144.869Z" fill="#626774"/>
<path d="M271.061 86.0397C270.285 86.0397 269.624 85.5895 269.377 84.8909L265.495 73.9345C265.487 73.9106 265.473 73.873 265.405 73.873C265.336 73.873 265.323 73.9106 265.315 73.9353L261.434 84.8909C261.187 85.5895 260.525 86.0397 259.749 86.0397C258.974 86.0397 258.312 85.5895 258.064 84.8909L254.184 73.9353C254.174 73.9114 254.162 73.8738 254.094 73.8738C254.025 73.8738 254.011 73.9114 254.003 73.9353L250.123 84.8901C249.876 85.5887 249.215 86.0397 248.439 86.0397C247.662 86.0397 247.001 85.5887 246.754 84.8901L245.648 81.7662V91.8772L248.349 99.5037C248.366 99.5532 248.512 99.5516 248.529 99.5037L252.409 88.5489C252.656 87.8504 253.318 87.3993 254.094 87.3993C254.871 87.3993 255.532 87.8504 255.778 88.5489L259.659 99.5045C259.667 99.5285 259.681 99.5652 259.749 99.5652C259.818 99.5652 259.831 99.5285 259.839 99.5037L263.72 88.5481C263.967 87.8496 264.629 87.3977 265.404 87.3977H265.405C266.181 87.3985 266.842 87.8496 267.089 88.5481L270.97 99.5045C270.979 99.5285 270.992 99.5652 271.06 99.5652C271.129 99.5652 271.143 99.5285 271.151 99.5037L273.861 91.8524V81.7407L272.746 84.8909C272.498 85.5895 271.837 86.0397 271.061 86.0397Z" fill="#626774"/>
<path d="M272.746 175.623C272.498 176.322 271.837 176.772 271.061 176.772C270.286 176.772 269.624 176.322 269.377 175.623L265.495 164.667C265.487 164.643 265.473 164.605 265.405 164.605C265.336 164.605 265.323 164.643 265.315 164.668L261.434 175.623C261.187 176.322 260.525 176.772 259.749 176.772C259.749 176.772 259.749 176.772 259.749 176.772C258.973 176.772 258.312 176.322 258.064 175.623L254.184 164.668C254.174 164.644 254.162 164.606 254.094 164.606C254.025 164.606 254.011 164.644 254.003 164.668L250.123 175.623C249.876 176.321 249.215 176.772 248.439 176.772C247.662 176.772 247.001 176.321 246.754 175.623L245.648 172.499V177.855H273.861V172.473L272.746 175.623Z" fill="#626774"/>
<path d="M248.529 175.111L252.409 164.156C252.656 163.458 253.318 163.007 254.094 163.007C254.871 163.007 255.532 163.458 255.778 164.156L259.659 175.112C259.667 175.136 259.681 175.173 259.749 175.173C259.818 175.173 259.831 175.136 259.839 175.111L263.72 164.156C263.967 163.457 264.629 163.006 265.404 163.006H265.405C266.181 163.007 266.842 163.457 267.089 164.156L270.97 175.112C270.979 175.136 270.992 175.173 271.06 175.173C271.129 175.173 271.143 175.136 271.151 175.111L273.861 167.46V157.348L272.746 160.498C272.498 161.197 271.837 161.647 271.061 161.647H271.06C270.285 161.647 269.624 161.197 269.377 160.498L265.495 149.542C265.487 149.518 265.473 149.48 265.405 149.48C265.336 149.48 265.323 149.518 265.315 149.543L261.434 160.498C261.187 161.197 260.525 161.647 259.749 161.647C258.974 161.647 258.312 161.197 258.064 160.498L254.184 149.543C254.174 149.519 254.162 149.481 254.094 149.481C254.025 149.481 254.011 149.519 254.003 149.543L250.123 160.498C249.876 161.196 249.215 161.647 248.439 161.647C247.662 161.647 247.001 161.196 246.754 160.498L245.648 157.374V167.485L248.349 175.111C248.366 175.161 248.511 175.159 248.529 175.111Z" fill="#626774"/>
<path d="M248.349 39.0195C248.367 39.069 248.513 39.0674 248.53 39.0195L252.41 28.0647C252.657 27.3661 253.319 26.915 254.095 26.915C254.871 26.915 255.532 27.3661 255.779 28.0647L259.659 39.0203C259.668 39.0442 259.681 39.0809 259.749 39.0809C259.818 39.0809 259.832 39.0442 259.84 39.0195L263.721 28.0639C263.968 27.3653 264.63 26.9142 265.405 26.9142H265.406C266.181 26.915 266.842 27.3653 267.09 28.0639L270.971 39.0203C270.98 39.0442 270.993 39.0809 271.061 39.0809C271.13 39.0809 271.144 39.0442 271.152 39.0195L273.861 31.3682V24.4785H245.648V31.3929L248.349 39.0195Z" fill="#626774"/>
<path d="M271.061 55.7975C270.285 55.7975 269.624 55.3473 269.377 54.6487L265.495 43.6923C265.487 43.6684 265.473 43.6309 265.405 43.6309C265.336 43.6309 265.323 43.6684 265.315 43.6931L261.434 54.6487C261.187 55.3473 260.525 55.7975 259.749 55.7975C258.974 55.7975 258.312 55.3473 258.064 54.6487L254.184 43.6931C254.174 43.6692 254.162 43.6317 254.094 43.6317C254.025 43.6317 254.011 43.6692 254.003 43.6931L250.123 54.6479C249.876 55.3465 249.215 55.7975 248.439 55.7975C247.662 55.7975 247.001 55.3465 246.754 54.6479L245.648 51.524V61.635L248.349 69.2615C248.366 69.311 248.512 69.3094 248.529 69.2615L252.409 58.3067C252.656 57.6082 253.318 57.1571 254.094 57.1571C254.871 57.1571 255.532 57.6082 255.778 58.3067L259.659 69.2623C259.667 69.2863 259.681 69.323 259.749 69.323C259.818 69.323 259.831 69.2863 259.839 69.2615L263.72 58.3059C263.967 57.6074 264.629 57.1563 265.404 57.1563H265.405C266.181 57.1571 266.842 57.6074 267.089 58.3059L270.97 69.2623C270.979 69.2863 270.992 69.323 271.06 69.323C271.129 69.323 271.143 69.2863 271.151 69.2615L273.861 61.6102V51.4985L272.746 54.6487C272.498 55.3473 271.837 55.7975 271.061 55.7975Z" fill="#626774"/>
<path d="M248.529 159.99L252.409 149.035C252.656 148.337 253.318 147.885 254.094 147.885C254.871 147.885 255.532 148.337 255.778 149.035L259.659 159.991C259.667 160.015 259.681 160.052 259.749 160.052C259.818 160.052 259.831 160.015 259.839 159.99L263.72 149.034C263.967 148.336 264.629 147.885 265.404 147.885H265.405C266.181 147.886 266.842 148.336 267.089 149.034L270.97 159.991C270.979 160.015 270.992 160.052 271.06 160.052C271.129 160.052 271.143 160.015 271.151 159.99L273.861 152.339V142.227L272.746 145.377C272.498 146.076 271.837 146.526 271.061 146.526H271.06C270.285 146.526 269.624 146.076 269.377 145.377L265.495 134.421C265.487 134.397 265.473 134.359 265.405 134.359C265.336 134.359 265.323 134.397 265.315 134.422L261.434 145.377C261.187 146.076 260.525 146.526 259.749 146.526C258.974 146.526 258.312 146.076 258.064 145.377L254.184 134.422C254.174 134.398 254.162 134.36 254.094 134.36C254.025 134.36 254.011 134.398 254.003 134.422L250.123 145.376C249.876 146.075 249.215 146.526 248.439 146.526C247.662 146.526 247.001 146.075 246.754 145.376L245.648 142.253V152.364L248.349 159.99C248.366 160.04 248.511 160.037 248.529 159.99Z" fill="#626774"/>
<path d="M271.061 40.6745C270.285 40.6745 269.624 40.2242 269.377 39.5257L265.495 28.5693C265.487 28.5453 265.473 28.5078 265.405 28.5078C265.336 28.5078 265.323 28.5453 265.315 28.5701L261.434 39.5257C261.187 40.2242 260.525 40.6745 259.749 40.6745C258.974 40.6745 258.312 40.2242 258.064 39.5257L254.184 28.5701C254.174 28.5461 254.162 28.5086 254.094 28.5086C254.025 28.5086 254.011 28.5461 254.003 28.5701L250.123 39.5249C249.876 40.2234 249.215 40.6745 248.439 40.6745C247.662 40.6745 247.001 40.2234 246.754 39.5249L245.648 36.401V46.512L248.349 54.1385C248.366 54.188 248.512 54.1864 248.529 54.1385L252.409 43.1837C252.656 42.4851 253.318 42.0341 254.094 42.0341C254.871 42.0341 255.532 42.4851 255.778 43.1837L259.659 54.1393C259.667 54.1632 259.681 54.2 259.749 54.2C259.818 54.2 259.831 54.1632 259.839 54.1385L263.72 43.1829C263.967 42.4843 264.629 42.0333 265.404 42.0333H265.405C266.181 42.0341 266.842 42.4843 267.089 43.1829L270.97 54.1393C270.979 54.1632 270.992 54.2 271.06 54.2C271.129 54.2 271.143 54.1632 271.151 54.1385L273.861 46.4872V36.3746L272.746 39.5249C272.498 40.2234 271.837 40.6745 271.061 40.6745Z" fill="#626774"/>
<path d="M150.775 164.971H104.422L114.265 136.881H140.932L150.775 164.971Z" fill="url(#paint0_linear_10009_265598)"/>
<path d="M127.594 89.7656C119.582 89.7656 113.086 95.932 113.086 103.539V137.625C113.086 138.71 119.581 139.589 127.594 139.589C135.607 139.589 142.102 138.71 142.102 137.625V103.539C142.102 95.9328 135.607 89.7656 127.594 89.7656Z" fill="#3B3F4D"/>
<path d="M128.385 0H126.805V91.7946H128.385V0Z" fill="#3B3F4D"/>
<path d="M281.993 164.971H235.641L245.482 136.881H272.15L281.993 164.971Z" fill="url(#paint1_linear_10009_265598)"/>
<path d="M258.813 89.7656C250.801 89.7656 244.305 95.932 244.305 103.539V137.625C244.305 138.71 250.8 139.589 258.813 139.589C266.825 139.589 273.321 138.71 273.321 137.625V103.539C273.321 95.9328 266.825 89.7656 258.813 89.7656Z" fill="#3B3F4D"/>
<path d="M259.603 0H258.023V91.7946H259.603V0Z" fill="#3B3F4D"/>
<path d="M413.212 164.971H366.859L376.702 136.881H403.369L413.212 164.971Z" fill="url(#paint2_linear_10009_265598)"/>
<path d="M390.039 89.7656C382.027 89.7656 375.531 95.932 375.531 103.539V137.625C375.531 138.71 382.026 139.589 390.039 139.589C398.051 139.589 404.547 138.71 404.547 137.625V103.539C404.546 95.9328 398.051 89.7656 390.039 89.7656Z" fill="#3B3F4D"/>
<path d="M390.83 0H389.25V91.7946H390.83V0Z" fill="#3B3F4D"/>
<path d="M141.385 355.951C202.823 355.951 252.629 350.554 252.629 343.896C252.629 337.237 202.823 331.84 141.385 331.84C79.9463 331.84 30.1406 337.237 30.1406 343.896C30.1406 350.554 79.9463 355.951 141.385 355.951Z" fill="#6A87BD"/>
<g opacity="0.1">
<path d="M141.387 354.567C116.87 354.567 93.8151 353.532 76.4708 351.651C48.9297 348.667 48.9297 345.075 48.9297 343.895C48.9297 342.715 48.9297 339.122 76.4708 336.138C93.816 334.258 116.87 333.223 141.387 333.223C165.904 333.223 188.958 334.258 206.304 336.138C233.845 339.122 233.845 342.715 233.845 343.895C233.845 345.075 233.845 348.668 206.304 351.651C188.959 353.532 165.904 354.567 141.387 354.567ZM141.387 334.696C116.927 334.696 93.9345 335.728 76.6465 337.602C51.2152 340.357 50.4811 343.541 50.4811 343.895C50.4811 344.248 51.2152 347.433 76.6465 350.188C93.9345 352.062 116.927 353.094 141.387 353.094C165.847 353.094 188.84 352.062 206.128 350.188C231.559 347.433 232.293 344.248 232.293 343.895C232.293 343.541 231.559 340.357 206.128 337.602C188.84 335.728 165.848 334.696 141.387 334.696Z" fill="white"/>
<path d="M141.387 350.7C176.084 350.7 204.211 347.652 204.211 343.892C204.211 340.132 176.084 337.084 141.387 337.084C106.69 337.084 78.5625 340.132 78.5625 343.892C78.5625 347.652 106.69 350.7 141.387 350.7Z" fill="white"/>
</g>
<path d="M384.752 355.951C446.19 355.951 495.996 350.554 495.996 343.896C495.996 337.237 446.19 331.84 384.752 331.84C323.313 331.84 273.508 337.237 273.508 343.896C273.508 350.554 323.313 355.951 384.752 355.951Z" fill="#6A87BD"/>
<g opacity="0.1">
<path d="M384.754 354.567C360.236 354.567 337.181 353.532 319.837 351.651C292.297 348.667 292.297 345.075 292.297 343.895C292.297 342.715 292.297 339.122 319.837 336.138C337.182 334.258 360.236 333.223 384.754 333.223C409.271 333.223 432.326 334.258 449.67 336.138C477.211 339.122 477.211 342.715 477.211 343.895C477.211 345.075 477.211 348.668 449.67 351.651C432.325 353.532 409.271 354.567 384.754 354.567ZM384.754 334.696C360.294 334.696 337.301 335.728 320.013 337.602C294.582 340.357 293.847 343.541 293.847 343.895C293.847 344.248 294.582 347.433 320.013 350.188C337.301 352.062 360.294 353.094 384.754 353.094C409.214 353.094 432.206 352.062 449.494 350.188C474.926 347.433 475.66 344.248 475.66 343.895C475.66 343.541 474.926 340.357 449.494 337.602C432.205 335.728 409.214 334.696 384.754 334.696Z" fill="white"/>
<path d="M384.762 350.7C419.459 350.7 447.586 347.652 447.586 343.892C447.586 340.132 419.459 337.084 384.762 337.084C350.065 337.084 321.938 340.132 321.938 343.892C321.938 347.652 350.065 350.7 384.762 350.7Z" fill="white"/>
</g>
<path d="M172.387 343.843C171.993 343.843 171.607 343.669 171.36 343.343L151.304 316.762C149.689 314.623 148.836 312.1 148.836 309.467V266.205C148.836 263.026 150.093 259.994 152.375 257.667L157.268 252.681C157.742 252.197 158.54 252.168 159.05 252.621C159.56 253.071 159.588 253.83 159.113 254.313L154.221 259.3C152.375 261.181 151.359 263.635 151.359 266.205V309.467C151.359 311.597 152.049 313.637 153.355 315.367L173.411 341.949C173.816 342.486 173.687 343.234 173.12 343.619C172.898 343.771 172.642 343.843 172.387 343.843Z" fill="#4C4E56"/>
<path d="M152.611 343.843C152.058 343.843 151.55 343.495 151.396 342.964L143.229 314.927C142.921 313.872 142.766 312.781 142.766 311.684V263.038C142.766 261.597 143.031 260.183 143.555 258.831L145.786 253.083C146.027 252.463 146.753 252.144 147.406 252.373C148.059 252.602 148.394 253.29 148.153 253.911L145.922 259.659C145.501 260.744 145.287 261.881 145.287 263.038V311.684C145.287 312.566 145.413 313.442 145.66 314.289L153.827 342.327C154.013 342.964 153.618 343.624 152.947 343.8C152.835 343.83 152.722 343.843 152.611 343.843Z" fill="#4C4E56"/>
<path d="M104.112 343.843C103.858 343.843 103.601 343.77 103.378 343.619C102.812 343.234 102.682 342.486 103.087 341.948L123.144 315.368C124.449 313.637 125.14 311.596 125.14 309.467V266.205C125.14 263.633 124.123 261.18 122.277 259.299L117.386 254.313C116.912 253.828 116.939 253.071 117.449 252.621C117.959 252.169 118.757 252.197 119.232 252.68L124.123 257.667C126.405 259.993 127.663 263.026 127.663 266.205V309.467C127.663 312.1 126.809 314.623 125.194 316.762L105.137 343.342C104.892 343.669 104.504 343.843 104.112 343.843Z" fill="#4C4E56"/>
<path d="M123.872 343.842C123.761 343.842 123.648 343.828 123.535 343.798C122.864 343.622 122.47 342.963 122.655 342.326L130.822 314.288C131.069 313.44 131.195 312.564 131.195 311.683V263.036C131.195 261.88 130.981 260.743 130.56 259.658L128.329 253.91C128.088 253.289 128.423 252.6 129.076 252.372C129.728 252.141 130.456 252.461 130.696 253.082L132.927 258.83C133.451 260.18 133.717 261.596 133.717 263.036V311.683C133.717 312.78 133.56 313.87 133.253 314.927L125.086 342.963C124.932 343.495 124.425 343.842 123.872 343.842Z" fill="#4C4E56"/>
<path d="M138.355 343.844C137.658 343.844 137.094 343.307 137.094 342.646V252.36C137.094 251.699 137.658 251.162 138.355 251.162C139.052 251.162 139.616 251.699 139.616 252.36V342.647C139.616 343.308 139.052 343.844 138.355 343.844Z" fill="#4C4E56"/>
<path d="M199.101 254.296H77.3877C74.3689 254.296 71.9219 251.973 71.9219 249.107C71.9219 246.241 74.3689 243.918 77.3877 243.918H199.101C202.12 243.918 204.567 246.241 204.567 249.107C204.567 251.972 202.12 254.296 199.101 254.296Z" fill="#7B7E89"/>
<path d="M152.941 267.405H123.561C122.397 267.405 121.453 266.509 121.453 265.404C121.453 264.299 122.397 263.402 123.561 263.402H152.941C154.105 263.402 155.049 264.298 155.049 265.404C155.049 266.509 154.104 267.405 152.941 267.405Z" fill="#4C4E56"/>
<path d="M152.941 273.872H123.561C122.397 273.872 121.453 272.976 121.453 271.871C121.453 270.766 122.397 269.869 123.561 269.869H152.941C154.105 269.869 155.049 270.765 155.049 271.871C155.049 272.976 154.104 273.872 152.941 273.872Z" fill="#4C4E56"/>
<path d="M107.665 344.647H101.405C100.241 344.647 99.2969 343.752 99.2969 342.646C99.2969 341.541 100.24 340.645 101.405 340.645H107.665C108.829 340.645 109.774 341.54 109.774 342.646C109.774 343.752 108.829 344.647 107.665 344.647Z" fill="#4C4E56"/>
<path d="M127.001 344.647H120.741C119.576 344.647 118.633 343.752 118.633 342.646C118.633 341.541 119.576 340.645 120.741 340.645H127.001C128.166 340.645 129.11 341.54 129.11 342.646C129.11 343.752 128.166 344.647 127.001 344.647Z" fill="#4C4E56"/>
<path d="M141.486 344.647H135.225C134.062 344.647 133.117 343.752 133.117 342.646C133.117 341.541 134.061 340.645 135.225 340.645H141.486C142.65 340.645 143.594 341.54 143.594 342.646C143.594 343.752 142.65 344.647 141.486 344.647Z" fill="#4C4E56"/>
<path d="M155.744 344.647H149.483C148.319 344.647 147.375 343.752 147.375 342.646C147.375 341.541 148.318 340.645 149.483 340.645H155.744C156.907 340.645 157.852 341.54 157.852 342.646C157.852 343.752 156.908 344.647 155.744 344.647Z" fill="#4C4E56"/>
<path d="M175.509 344.647H169.249C168.085 344.647 167.141 343.752 167.141 342.646C167.141 341.541 168.084 340.645 169.249 340.645H175.509C176.673 340.645 177.617 341.54 177.617 342.646C177.617 343.752 176.673 344.647 175.509 344.647Z" fill="#4C4E56"/>
<path d="M223.046 238.963H238.761C240.706 238.963 242.113 240.726 241.588 242.504L236.944 260.837C236.705 261.779 235.818 262.444 234.797 262.444H223.046C216.216 262.444 210.68 257.187 210.68 250.703C210.68 244.219 216.216 238.963 223.046 238.963Z" fill="#4C4E56"/>
<path d="M168.951 346.577C169.531 346.577 170.054 346.195 170.182 345.634L181.419 296.564C181.567 295.917 181.136 295.28 180.455 295.139C179.776 294.997 179.102 295.409 178.954 296.055L167.717 345.125C167.569 345.772 168 346.409 168.681 346.549C168.772 346.569 168.862 346.577 168.951 346.577Z" fill="#373A41"/>
<path d="M189.394 346.576C190.091 346.576 190.656 346.04 190.656 345.379L190.656 296.309C190.656 295.648 190.092 295.111 189.395 295.111C188.698 295.111 188.134 295.648 188.134 296.309L188.133 345.379C188.133 346.04 188.697 346.576 189.394 346.576Z" fill="#373A41"/>
<path d="M232.411 345.812L234.897 345.348L229.262 318.459C227.353 309.351 218.838 302.703 209.016 302.649C203.445 302.634 198.206 304.645 194.257 308.355C190.308 312.066 188.133 317.008 188.133 322.271V343.184H190.667V322.271C190.667 317.65 192.576 313.311 196.044 310.053C199.485 306.82 204.044 305.044 208.892 305.044C208.929 305.044 208.964 305.044 209.001 305.044C217.626 305.091 225.101 310.928 226.777 318.924L232.411 345.812Z" fill="#373A41"/>
<path d="M181.785 289.287H228.386C229.605 289.287 230.486 290.394 230.153 291.508L227.831 301.678C227.611 302.643 226.713 303.331 225.674 303.331H181.786C177.701 303.331 174.391 300.187 174.391 296.309C174.389 292.431 177.7 289.287 181.785 289.287Z" fill="#4C4E56"/>
<path d="M233.602 346.578C233.686 346.578 233.77 346.57 233.855 346.554C234.538 346.423 234.978 345.79 234.839 345.142L225.606 302.013L237.722 250.968C237.875 250.322 237.448 249.681 236.768 249.536C236.092 249.388 235.414 249.795 235.261 250.441L223.085 301.736C223.047 301.902 223.044 302.072 223.08 302.239L232.367 345.62C232.49 346.187 233.016 346.578 233.602 346.578Z" fill="#373A41"/>
<path d="M204.849 346.578C205.429 346.578 205.952 346.195 206.08 345.634L216.073 301.994C216.085 301.94 216.093 301.886 216.098 301.831L220.213 250.794C220.266 250.134 219.746 249.559 219.051 249.509C218.359 249.465 217.75 249.952 217.697 250.612L213.59 301.566L203.615 345.126C203.467 345.772 203.899 346.409 204.579 346.55C204.669 346.57 204.76 346.578 204.849 346.578Z" fill="#373A41"/>
<path d="M206.109 345.812L210.912 324.383C212.104 319.068 210.735 313.594 207.156 309.368C203.577 305.141 198.26 302.717 192.567 302.717C183.722 302.717 176.194 308.473 174.261 316.715L167.711 344.634L170.159 345.157L176.709 317.239C178.384 310.098 184.905 305.112 192.568 305.112C197.5 305.112 202.105 307.212 205.207 310.874C208.307 314.535 209.493 319.277 208.461 323.881L203.658 345.31L206.109 345.812Z" fill="#373A41"/>
<path d="M54.3793 238.963H38.6646C36.7196 238.963 35.312 240.726 35.8375 242.504L40.4809 260.837C40.7198 261.779 41.6069 262.444 42.6278 262.444H54.3793C61.2091 262.444 66.7455 257.187 66.7455 250.703C66.7455 244.219 61.2091 238.963 54.3793 238.963Z" fill="#4C4E56"/>
<path d="M108.481 346.577C107.901 346.577 107.378 346.195 107.25 345.634L96.0135 296.564C95.8655 295.917 96.2968 295.28 96.978 295.139C97.6566 294.997 98.3301 295.409 98.479 296.055L109.716 345.125C109.864 345.772 109.433 346.409 108.751 346.549C108.661 346.569 108.571 346.577 108.481 346.577Z" fill="#373A41"/>
<path d="M88.027 346.576C87.3299 346.576 86.7656 346.04 86.7656 345.379V296.309C86.7656 295.648 87.3299 295.111 88.027 295.111C88.7241 295.111 89.2883 295.648 89.2883 296.309V345.379C89.2883 346.04 88.7241 346.576 88.027 346.576Z" fill="#373A41"/>
<path d="M45.0091 345.812L42.5234 345.348L48.1591 318.459C50.068 309.351 58.5829 302.703 68.4063 302.649C73.9772 302.634 79.216 304.645 83.1649 308.355C87.1146 312.066 89.2891 317.008 89.2891 322.271V343.184H86.7547V322.271C86.7547 317.65 84.8458 313.311 81.378 310.053C77.937 306.82 73.3777 305.044 68.5299 305.044C68.4929 305.044 68.4576 305.044 68.4214 305.044C59.7972 305.091 52.3216 310.928 50.6448 318.924L45.0091 345.812Z" fill="#373A41"/>
<path d="M95.6408 289.287H49.0417C47.8215 289.287 46.9411 290.394 47.2741 291.508L49.5958 301.678C49.8161 302.643 50.7142 303.331 51.7536 303.331H95.6408C99.7251 303.331 103.037 300.187 103.037 296.309C103.037 292.431 99.7259 289.287 95.6408 289.287Z" fill="#4C4E56"/>
<path d="M43.8225 346.578C43.7393 346.578 43.6552 346.57 43.5702 346.554C42.8874 346.423 42.4468 345.79 42.5855 345.142L51.8186 302.013L39.7029 250.968C39.5499 250.322 39.9771 249.681 40.6565 249.536C41.3334 249.388 42.0112 249.795 42.1643 250.441L54.3396 301.736C54.3783 301.902 54.3808 302.072 54.3447 302.239L45.0569 345.619C44.935 346.187 44.4095 346.578 43.8225 346.578Z" fill="#373A41"/>
<path d="M72.5787 346.577C71.9985 346.577 71.4754 346.195 71.3476 345.633L61.3544 301.994C61.3418 301.94 61.3342 301.886 61.3292 301.831L57.2147 250.794C57.1617 250.135 57.6814 249.559 58.3759 249.509C59.068 249.465 59.6768 249.952 59.7298 250.612L63.8376 301.566L73.8123 345.126C73.9603 345.772 73.5281 346.409 72.8478 346.55C72.7578 346.569 72.667 346.577 72.5787 346.577Z" fill="#373A41"/>
<path d="M71.3095 345.812L66.5063 324.383C65.3148 319.068 66.6838 313.594 70.2626 309.368C73.8415 305.141 79.1585 302.717 84.8514 302.717C93.6968 302.717 101.224 308.473 103.158 316.715L109.707 344.634L107.26 345.157L100.71 317.239C99.0348 310.098 92.5136 305.112 84.8505 305.112C79.9186 305.112 75.3131 307.212 72.2118 310.874C69.1114 314.535 67.9249 319.277 68.9576 323.881L73.7608 345.31L71.3095 345.812Z" fill="#373A41"/>
<path d="M414.341 343.843C413.947 343.843 413.561 343.669 413.314 343.343L393.258 316.762C391.643 314.623 390.789 312.1 390.789 309.467V266.205C390.789 263.026 392.046 259.994 394.328 257.667L399.221 252.681C399.695 252.197 400.493 252.168 401.003 252.621C401.513 253.071 401.542 253.83 401.066 254.313L396.174 259.3C394.328 261.181 393.312 263.635 393.312 266.205V309.467C393.312 311.597 394.002 313.637 395.308 315.367L415.364 341.949C415.77 342.486 415.64 343.234 415.073 343.619C414.851 343.771 414.595 343.843 414.341 343.843Z" fill="#4C4E56"/>
<path d="M394.572 343.843C394.018 343.843 393.511 343.495 393.357 342.964L385.19 314.927C384.882 313.872 384.727 312.781 384.727 311.684V263.038C384.727 261.597 384.992 260.183 385.516 258.831L387.747 253.083C387.988 252.463 388.714 252.144 389.367 252.373C390.02 252.602 390.355 253.29 390.114 253.911L387.883 259.659C387.462 260.744 387.248 261.881 387.248 263.038V311.684C387.248 312.566 387.374 313.442 387.621 314.289L395.788 342.327C395.974 342.964 395.579 343.624 394.908 343.8C394.797 343.83 394.684 343.843 394.572 343.843Z" fill="#4C4E56"/>
<path d="M346.065 343.843C345.811 343.843 345.554 343.77 345.331 343.619C344.765 343.234 344.635 342.486 345.04 341.948L365.097 315.368C366.403 313.637 367.093 311.596 367.093 309.467V266.205C367.093 263.633 366.076 261.18 364.231 259.299L359.339 254.313C358.864 253.828 358.893 253.071 359.402 252.621C359.912 252.169 360.71 252.197 361.185 252.68L366.076 257.667C368.359 259.993 369.616 263.026 369.616 266.205V309.467C369.616 312.1 368.762 314.623 367.148 316.762L347.091 343.342C346.845 343.669 346.457 343.843 346.065 343.843Z" fill="#4C4E56"/>
<path d="M365.833 343.842C365.722 343.842 365.609 343.828 365.496 343.798C364.825 343.622 364.43 342.963 364.616 342.326L372.783 314.288C373.03 313.44 373.156 312.564 373.156 311.683V263.036C373.156 261.88 372.942 260.743 372.521 259.658L370.29 253.91C370.049 253.289 370.384 252.6 371.037 252.372C371.689 252.141 372.416 252.461 372.657 253.082L374.888 258.83C375.412 260.18 375.677 261.596 375.677 263.036V311.683C375.677 312.78 375.521 313.87 375.214 314.927L367.047 342.963C366.893 343.495 366.386 343.842 365.833 343.842Z" fill="#4C4E56"/>
<path d="M380.316 343.844C379.619 343.844 379.055 343.307 379.055 342.646V252.36C379.055 251.699 379.619 251.162 380.316 251.162C381.013 251.162 381.577 251.699 381.577 252.36V342.647C381.577 343.308 381.013 343.844 380.316 343.844Z" fill="#4C4E56"/>
<path d="M441.055 254.296H319.341C316.322 254.296 313.875 251.973 313.875 249.107C313.875 246.241 316.322 243.918 319.341 243.918H441.054C444.073 243.918 446.52 246.241 446.52 249.107C446.521 251.972 444.073 254.296 441.055 254.296Z" fill="#7B7E89"/>
<path d="M394.894 267.405H365.514C364.351 267.405 363.406 266.509 363.406 265.404C363.406 264.299 364.35 263.402 365.514 263.402H394.894C396.058 263.402 397.002 264.298 397.002 265.404C397.002 266.509 396.058 267.405 394.894 267.405Z" fill="#4C4E56"/>
<path d="M394.894 273.872H365.514C364.351 273.872 363.406 272.976 363.406 271.871C363.406 270.766 364.35 269.869 365.514 269.869H394.894C396.058 269.869 397.002 270.765 397.002 271.871C397.002 272.976 396.058 273.872 394.894 273.872Z" fill="#4C4E56"/>
<path d="M349.619 344.647H343.358C342.194 344.647 341.25 343.752 341.25 342.646C341.25 341.541 342.193 340.645 343.358 340.645H349.619C350.782 340.645 351.727 341.54 351.727 342.646C351.727 343.752 350.783 344.647 349.619 344.647Z" fill="#4C4E56"/>
<path d="M368.962 344.647H362.702C361.538 344.647 360.594 343.752 360.594 342.646C360.594 341.541 361.537 340.645 362.702 340.645H368.962C370.126 340.645 371.071 341.54 371.071 342.646C371.07 343.752 370.126 344.647 368.962 344.647Z" fill="#4C4E56"/>
<path d="M383.439 344.647H377.178C376.015 344.647 375.07 343.752 375.07 342.646C375.07 341.541 376.014 340.645 377.178 340.645H383.439C384.603 340.645 385.547 341.54 385.547 342.646C385.547 343.752 384.603 344.647 383.439 344.647Z" fill="#4C4E56"/>
<path d="M397.712 344.647H391.452C390.288 344.647 389.344 343.752 389.344 342.646C389.344 341.541 390.287 340.645 391.452 340.645H397.712C398.876 340.645 399.82 341.54 399.82 342.646C399.82 343.752 398.876 344.647 397.712 344.647Z" fill="#4C4E56"/>
<path d="M417.47 344.647H411.21C410.046 344.647 409.102 343.752 409.102 342.646C409.102 341.541 410.045 340.645 411.21 340.645H417.47C418.635 340.645 419.578 341.54 419.578 342.646C419.578 343.752 418.635 344.647 417.47 344.647Z" fill="#4C4E56"/>
<path d="M464.53 239.26H480.245C482.19 239.26 483.598 241.022 483.072 242.8L478.429 261.134C478.19 262.076 477.303 262.74 476.282 262.74H464.53C457.701 262.74 452.164 257.484 452.164 251C452.164 244.516 457.701 239.26 464.53 239.26Z" fill="#4C4E56"/>
<path d="M410.435 346.874C411.016 346.874 411.538 346.491 411.666 345.93L422.903 296.86C423.051 296.214 422.62 295.577 421.939 295.436C421.26 295.294 420.587 295.706 420.438 296.352L409.201 345.422C409.053 346.069 409.484 346.706 410.165 346.846C410.256 346.865 410.347 346.874 410.435 346.874Z" fill="#373A41"/>
<path d="M430.886 346.875C431.583 346.875 432.148 346.339 432.148 345.678V296.608C432.148 295.947 431.583 295.41 430.886 295.41C430.189 295.41 429.625 295.947 429.625 296.608V345.678C429.625 346.339 430.189 346.875 430.886 346.875Z" fill="#373A41"/>
<path d="M473.904 346.109L476.39 345.645L470.755 318.756C468.846 309.648 460.331 303 450.508 302.945C444.937 302.931 439.698 304.942 435.749 308.652C431.8 312.363 429.625 317.305 429.625 322.568V343.481H432.159V322.568C432.159 317.947 434.068 313.608 437.535 310.35C440.976 307.117 445.536 305.34 450.383 305.34C450.42 305.34 450.456 305.34 450.492 305.34C459.116 305.388 466.592 311.225 468.268 319.221L473.904 346.109Z" fill="#373A41"/>
<path d="M423.271 289.584H469.87C471.089 289.584 471.97 290.691 471.637 291.805L469.316 301.975C469.095 302.939 468.197 303.628 467.158 303.628H423.271C419.186 303.628 415.875 300.484 415.875 296.606C415.875 292.728 419.186 289.584 423.271 289.584Z" fill="#4C4E56"/>
<path d="M475.095 346.875C475.178 346.875 475.262 346.867 475.347 346.851C476.029 346.719 476.47 346.087 476.332 345.439L467.099 302.309L479.214 251.264C479.367 250.619 478.94 249.978 478.261 249.833C477.584 249.685 476.906 250.092 476.753 250.738L464.578 302.033C464.539 302.199 464.536 302.369 464.572 302.535L473.859 345.917C473.981 346.484 474.507 346.875 475.095 346.875Z" fill="#373A41"/>
<path d="M446.333 346.875C446.913 346.875 447.436 346.492 447.564 345.931L457.557 302.291C457.57 302.237 457.577 302.183 457.582 302.128L461.697 251.091C461.75 250.431 461.23 249.856 460.536 249.805C459.844 249.762 459.235 250.249 459.182 250.909L455.074 301.863L445.099 345.423C444.951 346.069 445.384 346.706 446.064 346.847C446.154 346.866 446.244 346.875 446.333 346.875Z" fill="#373A41"/>
<path d="M447.601 346.109L452.404 324.68C453.596 319.364 452.227 313.891 448.648 309.665C445.069 305.437 439.752 303.014 434.059 303.014C425.214 303.014 417.686 308.77 415.753 317.012L409.203 344.93L411.651 345.454L418.201 317.535C419.876 310.395 426.397 305.409 434.06 305.409C438.992 305.409 443.598 307.509 446.699 311.171C449.799 314.832 450.986 319.573 449.953 324.178L445.15 345.607L447.601 346.109Z" fill="#373A41"/>
<path d="M295.871 239.26H280.157C278.212 239.26 276.804 241.022 277.33 242.8L281.973 261.134C282.212 262.076 283.099 262.74 284.12 262.74H295.871C302.701 262.74 308.238 257.484 308.238 251C308.238 244.516 302.701 239.26 295.871 239.26Z" fill="#4C4E56"/>
<path d="M349.966 346.874C349.386 346.874 348.863 346.491 348.735 345.93L337.498 296.86C337.35 296.214 337.781 295.577 338.462 295.436C339.141 295.294 339.815 295.706 339.963 296.352L351.2 345.422C351.348 346.069 350.917 346.706 350.236 346.846C350.145 346.865 350.054 346.874 349.966 346.874Z" fill="#373A41"/>
<path d="M329.519 346.875C328.822 346.875 328.258 346.339 328.258 345.678V296.608C328.258 295.947 328.822 295.41 329.519 295.41C330.216 295.41 330.781 295.947 330.781 296.608V345.678C330.781 346.339 330.216 346.875 329.519 346.875Z" fill="#373A41"/>
<path d="M286.494 346.109L284.008 345.645L289.643 318.756C291.551 309.648 300.066 303 309.89 302.945C315.461 302.931 320.7 304.942 324.648 308.652C328.597 312.363 330.773 317.305 330.773 322.568V343.481H328.238V322.568C328.238 317.947 326.329 313.608 322.861 310.35C319.421 307.117 314.861 305.34 310.013 305.34C309.976 305.34 309.941 305.34 309.905 305.34C301.281 305.388 293.805 311.225 292.129 319.221L286.494 346.109Z" fill="#373A41"/>
<path d="M337.134 289.584H290.534C289.315 289.584 288.433 290.691 288.766 291.805L291.088 301.975C291.308 302.939 292.206 303.628 293.246 303.628H337.133C341.218 303.628 344.529 300.484 344.529 296.606C344.53 292.728 341.218 289.584 337.134 289.584Z" fill="#4C4E56"/>
<path d="M285.315 346.875C285.231 346.875 285.147 346.867 285.062 346.851C284.38 346.719 283.939 346.087 284.078 345.439L293.311 302.309L281.195 251.264C281.042 250.619 281.469 249.978 282.149 249.833C282.826 249.685 283.503 250.092 283.656 250.738L295.832 302.033C295.87 302.199 295.873 302.369 295.837 302.535L286.55 345.917C286.428 346.484 285.902 346.875 285.315 346.875Z" fill="#373A41"/>
<path d="M314.071 346.875C313.491 346.875 312.968 346.492 312.84 345.931L302.847 302.291C302.834 302.237 302.826 302.183 302.821 302.128L298.707 251.091C298.654 250.431 299.174 249.856 299.868 249.805C300.56 249.762 301.169 250.249 301.222 250.909L305.33 301.863L315.304 345.423C315.452 346.069 315.02 346.706 314.34 346.847C314.25 346.866 314.16 346.875 314.071 346.875Z" fill="#373A41"/>
<path d="M312.802 346.109L307.999 324.68C306.807 319.364 308.176 313.891 311.755 309.665C315.334 305.437 320.651 303.014 326.344 303.014C335.189 303.014 342.717 308.77 344.651 317.012L351.2 344.93L348.753 345.454L342.203 317.535C340.528 310.395 334.007 305.409 326.344 305.409C321.412 305.409 316.806 307.509 313.705 311.171C310.604 314.832 309.418 319.573 310.451 324.178L315.254 345.607L312.802 346.109Z" fill="#373A41"/>
<path d="M144.812 237.366C144.812 237.366 155.73 218.504 154.712 202.537C154.712 202.537 140.101 225.759 140.452 237.366H144.812Z" fill="#718F2E"/>
<path d="M135.532 237.368C135.532 237.368 126.207 220.617 127.403 204.127C127.403 204.127 142.457 226.825 141.377 237.368H135.532Z" fill="#718F2E"/>
<path d="M143.606 237.366C143.606 237.366 147.918 217.172 142.048 208.391C142.048 208.391 134.917 224.295 137.3 237.366H143.606Z" fill="#7DA137"/>
<path d="M133.671 237.365C133.671 237.365 123.678 229.411 122.719 219.434C122.719 219.434 135.494 227.621 138.857 237.365H133.671Z" fill="#7DA137"/>
<path d="M146.144 234.807H130.345C127.695 234.807 125.547 236.846 125.547 239.362C125.547 241.878 127.695 243.917 130.345 243.917H146.144C148.793 243.917 150.942 241.878 150.942 239.362C150.942 236.846 148.793 234.807 146.144 234.807Z" fill="white"/>
<path d="M372.772 237.366C372.772 237.366 361.854 218.504 362.872 202.537C362.872 202.537 377.483 225.759 377.132 237.366H372.772Z" fill="#718F2E"/>
<path d="M378.453 235.718C378.453 235.718 377.942 223.347 385.08 215.967C385.08 215.967 387.279 230.45 381.938 239.363L378.453 235.718Z" fill="#718F2E"/>
<path d="M384.955 241.63C384.955 241.63 394.28 224.879 393.084 208.389C393.084 208.389 378.03 231.087 379.11 241.63H384.955Z" fill="#7DA137"/>
<path d="M373.979 237.366C373.979 237.366 369.668 217.172 375.538 208.391C375.538 208.391 382.668 224.295 380.286 237.366H373.979Z" fill="#7DA137"/>
<path d="M387.597 234.807H371.798C369.148 234.807 367 236.846 367 239.362C367 241.878 369.148 243.917 371.798 243.917H387.597C390.247 243.917 392.395 241.878 392.395 239.362C392.394 236.846 390.247 234.807 387.597 234.807Z" fill="white"/>
</g>
<path opacity="0.2" d="M90.5848 283.846C120.485 283.846 144.724 280.827 144.724 277.104C144.724 273.38 120.485 270.361 90.5848 270.361C60.6844 270.361 36.4453 273.38 36.4453 277.104C36.4453 280.827 60.6844 283.846 90.5848 283.846Z" fill="#1B1B1B"/>
<defs>
<linearGradient id="paint0_linear_10009_265598" x1="127.598" y1="137.252" x2="127.598" y2="166.835" gradientUnits="userSpaceOnUse">
<stop stop-color="#F5E148"/>
<stop offset="0.2914" stop-color="#F1D258" stop-opacity="0.7086"/>
<stop offset="0.68" stop-color="#EEC567" stop-opacity="0.32"/>
<stop offset="1" stop-color="#EDC06C" stop-opacity="0"/>
</linearGradient>
<linearGradient id="paint1_linear_10009_265598" x1="258.817" y1="137.252" x2="258.817" y2="166.835" gradientUnits="userSpaceOnUse">
<stop stop-color="#F5E148"/>
<stop offset="0.2914" stop-color="#F1D258" stop-opacity="0.7086"/>
<stop offset="0.68" stop-color="#EEC567" stop-opacity="0.32"/>
<stop offset="1" stop-color="#EDC06C" stop-opacity="0"/>
</linearGradient>
<linearGradient id="paint2_linear_10009_265598" x1="390.036" y1="137.252" x2="390.036" y2="166.835" gradientUnits="userSpaceOnUse">
<stop stop-color="#F5E148"/>
<stop offset="0.2914" stop-color="#F1D258" stop-opacity="0.7086"/>
<stop offset="0.68" stop-color="#EEC567" stop-opacity="0.32"/>
<stop offset="1" stop-color="#EDC06C" stop-opacity="0"/>
</linearGradient>
</defs>
</svg>
