<svg width="300" height="263" viewBox="0 0 300 263" fill="none" xmlns="http://www.w3.org/2000/svg">
<path d="M134.224 100.831H13.4102V189.953H134.224V100.831Z" fill="#F5F9FF"/>
<path d="M134.224 100.831H13.4102V111.947H134.224V100.831Z" fill="#D0DBF7"/>
<path d="M23.1066 106.645C23.1066 108.05 21.9675 109.188 20.563 109.188C19.1579 109.188 18.0195 108.049 18.0195 106.645C18.0195 105.241 19.1586 104.101 20.563 104.101C21.9675 104.101 23.1066 105.241 23.1066 106.645Z" fill="#F2F2F2"/>
<path d="M31.673 106.645C31.673 108.05 30.5339 109.188 29.1294 109.188C27.725 109.188 26.5859 108.049 26.5859 106.645C26.5859 105.241 27.725 104.101 29.1294 104.101C30.5339 104.101 31.673 105.241 31.673 106.645Z" fill="#F2F2F2"/>
<path d="M40.2394 106.645C40.2394 108.05 39.1003 109.188 37.6959 109.188C36.2907 109.188 35.1523 108.049 35.1523 106.645C35.1523 105.241 36.2914 104.101 37.6959 104.101C39.101 104.101 40.2394 105.241 40.2394 106.645Z" fill="#F2F2F2"/>
<path d="M94.4437 136.187L88.3695 130.114L73.8179 144.665L59.2656 130.114L53.1914 136.187L67.7437 150.739L53.1914 165.29L59.2656 171.364L73.8179 156.812L88.3695 171.364L94.4437 165.29L79.8914 150.739L94.4437 136.187Z" fill="#E3EBFC"/>
<path d="M282.533 44.6216H161.719V133.743H282.533V44.6216Z" fill="#F5F9FF"/>
<path d="M282.533 44.6216H161.719V55.7377H282.533V44.6216Z" fill="#D0DBF7"/>
<path d="M171.415 50.4355C171.415 51.8406 170.276 52.979 168.872 52.979C167.466 52.979 166.328 51.8399 166.328 50.4355C166.328 49.0311 167.467 47.892 168.872 47.892C170.276 47.892 171.415 49.0303 171.415 50.4355Z" fill="#F2F2F2"/>
<path d="M179.982 50.4355C179.982 51.8406 178.842 52.979 177.438 52.979C176.033 52.979 174.895 51.8399 174.895 50.4355C174.895 49.0311 176.034 47.892 177.438 47.892C178.842 47.892 179.982 49.0303 179.982 50.4355Z" fill="#F2F2F2"/>
<path d="M188.544 50.4355C188.544 51.8406 187.405 52.979 186.001 52.979C184.595 52.979 183.457 51.8399 183.457 50.4355C183.457 49.0311 184.596 47.892 186.001 47.892C187.405 47.892 188.544 49.0303 188.544 50.4355Z" fill="#F2F2F2"/>
<path d="M242.752 79.9778L236.678 73.9036L222.126 88.4552L207.573 73.9036L201.5 79.9778L216.052 94.5286L201.5 109.08L207.573 115.154L222.126 100.603L236.678 115.154L242.752 109.08L228.2 94.5286L242.752 79.9778Z" fill="#E3EBFC"/>
<path d="M149.272 262.04C230.836 262.04 296.957 256.326 296.957 249.279C296.957 242.231 230.836 236.517 149.272 236.517C67.7071 236.517 1.58594 242.231 1.58594 249.279C1.58594 256.326 67.7071 262.04 149.272 262.04Z" fill="#EDF0FC"/>
<path d="M113.256 46.1016C112.132 43.7442 112.191 41.4602 113.434 39.2496L114.038 38.1963C114.629 37.2338 115.007 36.4938 115.171 35.9755C115.334 35.458 115.291 34.9324 115.037 34.401C114.397 33.0606 112.956 32.9254 110.715 33.9947C109.675 34.4904 108.666 35.1425 107.689 35.9486C106.713 36.7548 105.849 37.6496 105.097 38.6317L102.551 33.2939C104.213 31.3094 106.363 29.6884 108.997 28.4315C111.839 27.0751 114.377 26.5953 116.608 26.9922C118.84 27.3891 120.457 28.638 121.46 30.7409C122.023 31.9193 122.212 32.9995 122.028 33.9809C121.843 34.9629 121.33 36.2074 120.49 37.7143C119.933 38.7466 119.537 39.5236 119.304 40.0463C119.072 40.569 118.955 41.0844 118.958 41.5939C118.96 42.1042 119.104 42.6596 119.391 43.2593L119.705 43.9186L113.604 46.8293L113.256 46.1016ZM117.928 54.0643C117.023 53.7445 116.356 53.1331 115.925 52.2325C115.485 51.3086 115.427 50.3999 115.753 49.5065C116.078 48.6138 116.704 47.9465 117.628 47.506C118.529 47.0757 119.444 47.0153 120.371 47.3243C121.299 47.6347 121.978 48.2387 122.407 49.1401C122.838 50.0415 122.881 50.9502 122.538 51.8654C122.194 52.7806 121.571 53.4537 120.67 53.8833C119.747 54.3238 118.832 54.3849 117.928 54.0643Z" fill="#E2E6FF"/>
<path d="M142.874 25.7404C144.393 22.113 147.018 19.8894 150.747 19.068L152.536 18.6892C154.208 18.3876 155.419 18.0684 156.165 17.7333C156.91 17.3982 157.456 16.8218 157.799 16.004C158.663 13.9417 157.369 12.1876 153.921 10.7425C152.321 10.0723 150.577 9.59322 148.692 9.30536C146.808 9.01677 144.935 8.9448 143.079 9.0851L146.52 0.871574C150.416 0.747997 154.392 1.53598 158.445 3.23408C162.819 5.06593 165.902 7.43425 167.695 10.3369C169.488 13.2409 169.707 16.31 168.352 19.5455C167.593 21.3592 166.57 22.6546 165.283 23.4324C163.995 24.2095 162.083 24.8819 159.548 25.4496C157.829 25.8589 156.56 26.1947 155.739 26.4571C154.919 26.7203 154.224 27.107 153.654 27.621C153.082 28.1349 152.604 28.8538 152.217 29.777L151.793 30.7911L142.405 26.8591L142.874 25.7404ZM138.618 38.9726C138.069 37.6358 138.087 36.2735 138.667 34.8866C139.263 33.4647 140.225 32.4884 141.556 31.9585C142.884 31.4279 144.261 31.4613 145.683 32.0567C147.07 32.6375 148.055 33.6043 148.639 34.9556C149.22 36.3077 149.222 37.6772 148.642 39.0635C148.061 40.4497 147.083 41.41 145.711 41.9428C144.339 42.4749 142.959 42.451 141.572 41.8701C140.15 41.2755 139.164 40.3087 138.618 38.9726Z" fill="#E2E6FF"/>
<path d="M295.171 156.557V152.384H292.396V156.557H288.223V159.332H292.396V163.505H295.171V159.332H299.345V156.557H295.171Z" fill="#CAD2F9"/>
<path d="M268.964 22.9702V16.6052H264.732V22.9702H258.367V27.2016H264.732V33.5666H268.964V27.2016H275.329V22.9702H268.964Z" fill="#CAD2F9"/>
<path d="M257.431 146.169V143.129H255.41V146.169H252.371V148.19H255.41V151.229H257.431V148.19H260.47V146.169H257.431Z" fill="#CAD2F9"/>
<path d="M84.1109 40.452V37.4127H82.0901V40.452H79.0508V42.4728H82.0901V45.5121H84.1109V42.4728H87.1502V40.452H84.1109Z" fill="#CAD2F9"/>
<path d="M60.6823 20.3517V16.1777H57.9077V20.3517H53.7344V23.1257H57.9077V27.299H60.6823V23.1257H64.8563V20.3517H60.6823Z" fill="#CAD2F9"/>
<path d="M197.732 28.872C197.732 29.7487 197.022 30.4589 196.145 30.4589C195.269 30.4589 194.559 29.748 194.559 28.872C194.559 27.9954 195.27 27.2852 196.145 27.2852C197.022 27.2852 197.732 27.9954 197.732 28.872Z" fill="#EEF1FF"/>
<path d="M204.228 1.58688C204.228 2.46355 203.517 3.17375 202.642 3.17375C201.765 3.17375 201.055 2.46282 201.055 1.58688C201.055 0.710205 201.765 0 202.642 0C203.517 0 204.228 0.710932 204.228 1.58688Z" fill="#EEF1FF"/>
<path d="M235.236 17.6374C236.895 17.6374 238.241 16.292 238.241 14.6323C238.241 12.9726 236.895 11.6272 235.236 11.6272C233.576 11.6272 232.23 12.9726 232.23 14.6323C232.23 16.292 233.576 17.6374 235.236 17.6374Z" fill="#EEF1FF"/>
<path d="M298.545 127.519C298.545 128.395 297.835 129.106 296.958 129.106C296.081 129.106 295.371 128.395 295.371 127.519C295.371 126.642 296.081 125.932 296.958 125.932C297.835 125.931 298.545 126.642 298.545 127.519Z" fill="#EEF1FF"/>
<path d="M296.959 177.069C296.959 177.945 296.248 178.656 295.372 178.656C294.495 178.656 293.785 177.945 293.785 177.069C293.785 176.192 294.495 175.482 295.372 175.482C296.249 175.482 296.959 176.192 296.959 177.069Z" fill="#EEF1FF"/>
<path d="M55.3222 90.4047C55.3222 91.2814 54.6113 91.9916 53.7353 91.9916C52.8586 91.9916 52.1484 91.2814 52.1484 90.4047C52.1484 89.5281 52.8586 88.8179 53.7353 88.8179C54.612 88.8179 55.3222 89.5281 55.3222 90.4047Z" fill="#EEF1FF"/>
<path d="M27.7004 27.5897C29.3601 27.5897 30.7055 26.2443 30.7055 24.5846C30.7055 22.9249 29.3601 21.5795 27.7004 21.5795C26.0407 21.5795 24.6953 22.9249 24.6953 24.5846C24.6953 26.2443 26.0407 27.5897 27.7004 27.5897Z" fill="#EEF1FF"/>
<path d="M86.9628 7.62985C86.9628 8.50652 86.2526 9.21673 85.3759 9.21673C84.4993 9.21673 83.7891 8.50652 83.7891 7.62985C83.7891 6.75318 84.5 6.04297 85.3759 6.04297C86.2526 6.04297 86.9628 6.75318 86.9628 7.62985Z" fill="#EEF1FF"/>
<path d="M3.17375 102.805C3.17375 103.681 2.46355 104.392 1.58688 104.392C0.710205 104.392 0 103.681 0 102.805C0 101.928 0.710932 101.218 1.58688 101.218C2.46282 101.218 3.17375 101.928 3.17375 102.805Z" fill="#EEF1FF"/>
<path d="M3.17375 187.378C3.17375 188.255 2.46355 188.965 1.58688 188.965C0.710205 188.965 0 188.255 0 187.378C0 186.501 0.710932 185.791 1.58688 185.791C2.46282 185.79 3.17375 186.501 3.17375 187.378Z" fill="#EEF1FF"/>
<path d="M234.569 235.168C234.569 235.168 208.27 182.59 279.602 147.694C279.602 147.694 285.07 222.616 234.569 235.168Z" fill="#6E7FDD"/>
<path d="M237.598 228.47C237.58 220.953 239.151 213.486 241.315 206.282C241.593 205.382 241.84 204.469 242.144 203.577L243.109 200.919L244.078 198.26L245.173 195.652C246.583 192.147 248.353 188.813 250.024 185.43L252.868 180.54C253.784 178.89 254.825 177.319 255.881 175.758C256.949 174.205 257.96 172.614 259.071 171.095C260.205 169.592 261.357 168.102 262.516 166.62L264.252 164.397L266.117 162.28L269.874 158.081C270.489 157.373 271.174 156.727 271.846 156.072L273.868 154.112C275.218 152.811 276.582 151.526 277.954 150.255C276.776 151.718 275.591 153.166 274.392 154.598L272.589 156.739C271.987 157.45 271.372 158.15 270.829 158.91L267.429 163.343L265.717 165.543L264.122 167.83C263.066 169.358 262.003 170.88 260.922 172.387C259.876 173.918 258.932 175.517 257.932 177.078C255.857 180.155 254.152 183.45 252.29 186.651C248.814 193.19 245.749 199.944 243.215 206.912C240.732 213.892 238.645 221.053 237.598 228.47Z" fill="#B3C9F9"/>
<path opacity="0.1" d="M276.931 147.176C275.931 165.254 269.736 213.312 232.328 224.195C233.677 229.651 235.315 232.925 235.315 232.925C285.816 220.373 280.348 145.45 280.348 145.45C279.182 146.02 278.045 146.596 276.931 147.176Z" fill="#0046A0"/>
<path d="M228.133 252.091C228.133 252.091 231.875 236.081 247.528 216.68C264.678 195.424 287.041 187.776 296.326 197.993C305.337 207.909 297.681 221.61 274.469 228.61C251.258 235.611 238.135 238.627 228.133 252.091Z" fill="#FFCF74"/>
<path d="M288.974 203.559C283.663 205.659 278.519 208.096 273.466 210.676C268.429 213.286 263.511 216.114 258.819 219.273C254.112 222.404 249.631 225.871 245.474 229.701C241.333 233.548 237.538 237.778 234.258 242.461C235.581 239.928 237.143 237.515 238.834 235.191C240.579 232.913 242.43 230.698 244.464 228.661C248.492 224.543 253.02 220.938 257.787 217.728C260.189 216.149 262.638 214.642 265.146 213.243C267.669 211.872 270.22 210.554 272.834 209.376C278.046 206.991 283.434 204.978 288.974 203.559Z" fill="#F9AB43"/>
<path opacity="0.1" d="M296.326 197.992C295.823 197.439 295.274 196.947 294.697 196.498C287.167 214.94 265.167 228.297 239.178 228.324C230.475 242.091 228.133 252.091 228.133 252.091C238.135 238.627 251.258 235.611 274.469 228.61C297.681 221.609 305.337 207.908 296.326 197.992Z" fill="#0046A0"/>
<path d="M93.4167 243.099C93.4167 243.099 39.3923 266.281 8.72266 193.032C8.72266 193.032 83.8373 191.951 93.4167 243.099Z" fill="#6E7FDD"/>
<path d="M89.1044 240.561C81.6003 240.14 74.2381 238.136 67.1723 235.555C66.2899 235.225 65.3936 234.925 64.5205 234.569L61.9232 233.45L59.3259 232.327L56.786 231.081C53.3695 229.469 50.1441 227.508 46.865 225.641L42.1494 222.517C40.5567 221.506 39.0484 220.374 37.5516 219.229C36.0636 218.073 34.5341 216.97 33.0832 215.772C31.649 214.552 30.2293 213.315 28.8176 212.072L26.7001 210.209L24.6959 208.223L20.7233 204.228C20.0523 203.572 19.4483 202.851 18.8326 202.142L16.9949 200.009C15.7744 198.584 14.5721 197.148 13.3828 195.704C14.7741 196.965 16.1509 198.234 17.5096 199.514L19.5413 201.438C20.2159 202.081 20.8781 202.735 21.6065 203.322L25.8336 206.974L27.9293 208.813L30.1188 210.538C31.5828 211.683 33.0396 212.832 34.4818 213.999C35.9495 215.133 37.4913 216.169 38.9902 217.258C41.9401 219.509 45.1305 221.404 48.2171 223.449C54.542 227.302 61.1054 230.756 67.9131 233.693C74.7353 236.581 81.7632 239.083 89.1044 240.561Z" fill="#B3C9F9"/>
<path opacity="0.1" d="M10.2456 196.545C28.2348 198.598 75.8484 207.59 84.5271 245.571C90.0517 244.543 93.4167 243.1 93.4167 243.1C83.8365 191.952 8.72266 193.033 8.72266 193.033C9.22351 194.23 9.73163 195.398 10.2456 196.545Z" fill="#0046A0"/>
<path d="M71.202 223.363C71.202 223.363 70.9389 206.924 59.7544 184.645C47.4999 160.236 27.266 148.021 16.027 156.037C5.11801 163.818 9.69619 178.83 30.8962 190.592C52.097 202.355 64.2817 208.085 71.202 223.363Z" fill="#FFCF74"/>
<path d="M22.0273 163.036C26.772 166.215 31.2833 169.687 35.6739 173.279C40.0427 176.898 44.2494 180.704 48.1654 184.785C52.1024 188.843 55.7465 193.182 58.9958 197.806C62.2277 202.443 65.0402 207.381 67.253 212.654C66.497 209.897 65.4822 207.208 64.322 204.579C63.0993 201.983 61.7603 199.426 60.2047 197.004C57.1415 192.126 53.4807 187.643 49.5022 183.495C47.4886 181.443 45.4154 179.452 43.2608 177.553C41.0859 175.678 38.8731 173.849 36.5673 172.144C31.9797 168.708 27.1405 165.598 22.0273 163.036Z" fill="#F9AB43"/>
<path opacity="0.1" d="M16.0267 156.038C16.6358 155.603 17.2762 155.24 17.9356 154.923C21.3841 174.542 40.053 192.259 65.4452 197.795C71.0323 213.094 71.2017 223.363 71.2017 223.363C64.2814 208.085 52.0959 202.355 30.8959 190.593C9.69586 178.831 5.11842 163.819 16.0267 156.038Z" fill="#0046A0"/>
<path d="M220.838 239.279C220.25 243.168 216.342 246.351 212.153 246.351H88.2168C84.0283 246.351 80.0774 243.174 79.437 239.292L58.9167 114.845C58.2762 110.963 61.1803 107.786 65.3688 107.786H233.097C237.285 107.786 240.231 110.969 239.644 114.858L220.838 239.279Z" fill="#F9AB43"/>
<path d="M189.735 66.2025H85.375V213.221H212.995V89.8029L189.735 66.2025Z" fill="#C2CEF2"/>
<path d="M189.734 66.2025L213.165 89.632H189.734V66.2025Z" fill="#7997F2"/>
<path d="M184.608 112.693L174.202 102.287L149.269 127.218L124.336 102.287L113.93 112.693L138.862 137.624L113.93 162.556L124.336 172.962L149.269 148.031L174.202 172.962L184.608 162.556L159.676 137.624L184.608 112.693Z" fill="#AFC2E8"/>
<path d="M161.381 150.487C158.091 150.491 154.605 147.921 153.635 144.777L148.854 129.27C147.885 126.126 144.399 123.553 141.108 123.553H56.0943C52.8035 123.553 50.5821 126.204 51.157 129.444L71.9086 246.38C72.4836 249.619 75.6464 252.271 78.9372 252.271H226.203C229.494 252.271 232.608 249.611 233.123 246.361L247.404 156.271C247.919 153.021 245.648 150.364 242.357 150.369L161.381 150.487Z" fill="#FFCF74"/>
<path d="M140.669 205.288C140.669 200.736 142.476 197.188 146.091 194.644L147.831 193.44C149.482 192.37 150.631 191.489 151.279 190.797C151.925 190.106 152.25 189.247 152.25 188.22C152.25 185.633 150.084 184.338 145.756 184.338C143.748 184.338 141.674 184.606 139.532 185.142C137.391 185.677 135.36 186.437 133.441 187.417V177.11C137.546 175.236 142.143 174.299 147.229 174.299C152.717 174.299 157.069 175.448 160.28 177.746C163.493 180.045 165.099 183.224 165.099 187.283C165.099 189.559 164.586 191.399 163.56 192.805C162.533 194.211 160.793 195.783 158.339 197.524C156.688 198.729 155.482 199.655 154.724 200.302C153.966 200.95 153.397 201.674 153.018 202.477C152.638 203.281 152.449 204.262 152.449 205.421V206.694H140.668V205.288H140.669ZM142.042 221.317C140.859 220.135 140.268 218.673 140.268 216.933C140.268 215.149 140.859 213.677 142.042 212.516C143.223 211.356 144.708 210.775 146.493 210.775C148.233 210.775 149.717 211.366 150.944 212.548C152.17 213.732 152.785 215.192 152.785 216.933C152.785 218.673 152.171 220.135 150.944 221.317C149.717 222.499 148.233 223.09 146.493 223.09C144.708 223.09 143.223 222.499 142.042 221.317Z" fill="white"/>
<path opacity="0.1" d="M242.358 150.368L233.148 150.381C233.351 152.502 233.459 154.642 233.459 156.801C233.459 205.094 181.772 244.243 118.013 244.243C100.934 244.243 84.7225 241.431 70.1367 236.389L71.9097 246.379C72.4847 249.619 75.6475 252.27 78.9383 252.27H226.205C229.495 252.27 232.609 249.611 233.124 246.361L247.405 156.27C247.919 153.02 245.648 150.364 242.358 150.368Z" fill="#0046A0"/>
<g opacity="0.3">
<path d="M65.4451 140.908C65.8827 143.843 66.3203 146.778 66.7586 149.714C67.8003 156.699 68.842 163.683 69.8837 170.668C71.1522 179.175 72.4207 187.68 73.6891 196.186C74.7781 203.489 75.867 210.791 76.9559 218.093C77.318 220.52 77.6792 222.946 78.0413 225.372C78.2114 226.511 78.308 227.693 78.5552 228.819C78.5661 228.867 78.5697 228.917 78.577 228.966C78.726 229.966 79.988 230.517 80.877 230.272C81.9477 229.977 82.3323 228.974 82.1825 227.972C81.7449 225.036 81.3073 222.101 80.869 219.166C79.8273 212.181 78.7856 205.196 77.7439 198.211C76.4755 189.706 75.207 181.199 73.9385 172.693C72.8495 165.391 71.7606 158.089 70.6717 150.786C70.3097 148.36 69.9484 145.934 69.5864 143.507C69.4163 142.368 69.3196 141.186 69.0724 140.06C69.0615 140.012 69.0579 139.962 69.0506 139.913C68.9016 138.914 67.6397 138.363 66.7506 138.608C65.6806 138.902 65.2954 139.905 65.4451 140.908Z" fill="white"/>
</g>
<path d="M270.674 76.1665C259.183 76.1665 249.867 85.482 249.867 96.9733C249.867 102.109 251.732 106.807 254.815 110.436L253.946 121.149L263.887 116.642C266.015 117.377 268.297 117.781 270.674 117.781C282.165 117.781 291.481 108.465 291.481 96.974C291.481 85.4828 282.166 76.1665 270.674 76.1665Z" fill="#EB725F"/>
<path d="M269.237 107.625C268.857 107.244 268.667 106.774 268.667 106.215C268.667 105.655 268.857 105.185 269.237 104.804C269.618 104.424 270.088 104.233 270.647 104.233C271.207 104.233 271.683 104.424 272.075 104.804C272.466 105.185 272.662 105.655 272.662 106.215C272.662 106.774 272.465 107.245 272.075 107.625C271.683 108.005 271.207 108.196 270.647 108.196C270.088 108.196 269.618 108.005 269.237 107.625ZM268.062 84.2223H273.3L272.327 100.977H269.035L268.062 84.2223Z" fill="#F2F2F2"/>
<path opacity="0.1" d="M259.276 107.998C257.018 107.998 254.814 107.8 252.688 107.426C253.309 108.493 254.021 109.5 254.817 110.436L253.947 121.149L263.889 116.642C266.016 117.377 268.298 117.781 270.675 117.781C282.166 117.781 291.482 108.465 291.482 96.974C291.482 94.1891 290.93 91.5336 289.938 89.1057C285.771 100.065 273.622 107.998 259.276 107.998Z" fill="#0046A0"/>
<path d="M57.4984 70.5378V50.8084C57.4984 48.4393 55.5597 46.5006 53.1906 46.5006H17.2296C14.8606 46.5006 12.9219 48.4393 12.9219 50.8084V75.6707C12.9219 78.0397 14.8606 79.9784 17.2296 79.9784H49.4259H53.1899H67.8745L57.4984 70.5378Z" fill="#F9AB43"/>
<path d="M29.197 60.4685C29.197 62.3614 28.0972 63.8952 26.7414 63.8952C25.385 63.8952 24.2852 62.3607 24.2852 60.4685C24.2852 58.5756 25.385 57.0417 26.7414 57.0417C28.0972 57.0417 29.197 58.5763 29.197 60.4685Z" fill="white"/>
<path d="M45.5251 60.4685C45.5251 62.3614 44.4253 63.8952 43.0688 63.8952C41.7124 63.8952 40.6133 62.3607 40.6133 60.4685C40.6133 58.5756 41.7131 57.0417 43.0688 57.0417C44.426 57.0417 45.5251 58.5763 45.5251 60.4685Z" fill="white"/>
<path d="M29.2736 70.0508C30.1154 69.1283 31.2872 68.4036 32.4525 67.9834C35.4023 66.9199 38.2533 68.0307 40.5002 70.0508C41.1 70.5902 41.9919 69.704 41.3886 69.1625C38.8981 66.9236 35.6669 65.6086 32.3543 66.6909C30.9012 67.1656 29.4255 68.0227 28.3853 69.1625C27.8409 69.7586 28.727 70.6498 29.2736 70.0508Z" fill="white"/>
<path opacity="0.1" d="M57.4987 70.5378V50.8084C57.4987 48.4393 55.5599 46.5006 53.1909 46.5006H49.5047C50.1444 48.8442 50.4882 51.2736 50.4882 53.767C50.4882 64.247 44.5339 73.6316 35.1406 79.9791H49.4269H53.1909H67.8755L57.4987 70.5378Z" fill="#0046A0"/>
<path d="M181.762 181.04C170.23 192.572 170.23 211.27 181.762 222.802C193.294 234.334 211.992 234.334 223.524 222.802C235.056 211.27 235.056 192.572 223.524 181.04C211.991 169.508 193.294 169.508 181.762 181.04ZM220.139 219.417C210.476 229.08 194.81 229.08 185.148 219.417C175.485 209.754 175.485 194.088 185.148 184.426C194.811 174.763 210.476 174.763 220.139 184.426C229.801 194.088 229.801 209.754 220.139 219.417Z" fill="#EB725F"/>
<path opacity="0.3" d="M202.645 226.663C216.309 226.663 227.387 215.586 227.387 201.921C227.387 188.256 216.309 177.178 202.645 177.178C188.98 177.178 177.902 188.256 177.902 201.921C177.902 215.586 188.98 226.663 202.645 226.663Z" fill="white"/>
<path d="M222.725 218.307L219.023 222.009L252.506 255.492L256.208 251.79L222.725 218.307Z" fill="#6E7FDD"/>
<path d="M222.725 218.31L219.023 222.012L231.355 234.343L235.056 230.642L222.725 218.31Z" fill="#EB725F"/>
<path d="M188.238 191.747C189.177 189.039 191.235 186.849 193.709 185.328C196.2 183.818 199.157 183.008 202.115 183.008C205.072 183.001 208.032 183.81 210.523 185.321C212.999 186.84 215.056 189.034 215.99 191.747C213.284 190.833 210.997 190.11 208.724 189.668C206.47 189.211 204.294 189.001 202.114 188.99C199.934 188.994 197.756 189.202 195.501 189.66C193.227 190.101 190.939 190.828 188.238 191.747Z" fill="white"/>
</svg>
