<svg width="32" height="32" viewBox="0 0 32 32" fill="none" xmlns="http://www.w3.org/2000/svg">
<g clip-path="url(#clip0_3739_217694)">
<path d="M25.4768 2.37695H10.7969V8.4646H28.6121V5.51099C28.6121 3.78271 27.2056 2.37695 25.4768 2.37695Z" fill="#CED9F9"/>
<path d="M17.1697 9.4021H0V3.75342C0 1.68359 1.68433 0 3.75488 0H9.24463C9.79028 0 10.3159 0.11499 10.7935 0.331055C11.4604 0.631592 12.0334 1.12695 12.4353 1.77417L17.1697 9.4021Z" fill="#1640C1"/>
<path d="M32 10.666V28.8613C32 30.5918 30.5913 31.9993 28.8601 31.9993H3.13989C1.40869 31.9993 0 30.5918 0 28.8613V7.52734H28.8601C30.5913 7.52734 32 8.9353 32 10.666Z" fill="#2354E6"/>
<path d="M32 10.666V28.8613C32 30.5918 30.5913 31.9993 28.8601 31.9993H16V7.52734H28.8601C30.5913 7.52734 32 8.9353 32 10.666Z" fill="#1849D6"/>
<path d="M24.4131 19.7632C24.4131 24.405 20.637 28.1814 15.9956 28.1814C11.3542 28.1814 7.57812 24.405 7.57812 19.7632C7.57812 15.1221 11.3542 11.3457 15.9956 11.3457C20.637 11.3457 24.4131 15.1221 24.4131 19.7632Z" fill="#E7ECFC"/>
<path d="M24.4175 19.7632C24.4175 24.405 20.6414 28.1814 16 28.1814V11.3457C20.6414 11.3457 24.4175 15.1221 24.4175 19.7632Z" fill="#CED9F9"/>
<path d="M18.7126 19.866C18.537 20.0146 18.3219 20.0872 18.1088 20.0872C17.842 20.0872 17.5768 19.9741 17.3913 19.7539L16.9369 19.2153V22.7415C16.9369 23.259 16.517 23.679 15.9994 23.679C15.4818 23.679 15.0619 23.259 15.0619 22.7415V19.2153L14.6076 19.7539C14.2731 20.1497 13.682 20.2002 13.2863 19.866C12.8908 19.5322 12.84 18.9409 13.1737 18.5452L15.0295 16.3452C15.2714 16.0591 15.6244 15.8945 15.9994 15.8945C16.3744 15.8945 16.7275 16.0591 16.9694 16.3452L18.8251 18.5452C19.1588 18.9409 19.1081 19.5322 18.7126 19.866Z" fill="#6C8DEF"/>
<path d="M18.7131 19.866C18.5376 20.0146 18.3225 20.0872 18.1094 20.0872C17.8425 20.0872 17.5774 19.9741 17.3918 19.7539L16.9375 19.2153V22.7415C16.9375 23.259 16.5176 23.679 16 23.679V15.8945C16.375 15.8945 16.728 16.0591 16.97 16.3452L18.8257 18.5452C19.1594 18.9409 19.1086 19.5322 18.7131 19.866Z" fill="#3B67E9"/>
</g>
<defs>
<clipPath id="clip0_3739_217694">
<rect width="32" height="32" fill="white"/>
</clipPath>
</defs>
</svg>
