<svg width="20" height="20" viewBox="0 0 20 20" fill="none" xmlns="http://www.w3.org/2000/svg">
<path d="M6.98438 10.0001L8.99271 12.0167L13.0177 7.9834" stroke="#079455" stroke-width="1.5" stroke-linecap="round" stroke-linejoin="round"/>
<path d="M8.95937 2.04209C9.53437 1.55042 10.476 1.55042 11.0594 2.04209L12.376 3.17542C12.626 3.39209 13.0927 3.56709 13.426 3.56709H14.8427C15.726 3.56709 16.451 4.29209 16.451 5.17542V6.59209C16.451 6.91709 16.626 7.39209 16.8427 7.64209L17.976 8.95876C18.4677 9.53376 18.4677 10.4754 17.976 11.0588L16.8427 12.3754C16.626 12.6254 16.451 13.0921 16.451 13.4254V14.8421C16.451 15.7254 15.726 16.4504 14.8427 16.4504H13.426C13.101 16.4504 12.626 16.6254 12.376 16.8421L11.0594 17.9754C10.4844 18.4671 9.54271 18.4671 8.95937 17.9754L7.64271 16.8421C7.39271 16.6254 6.92604 16.4504 6.59271 16.4504H5.15104C4.26771 16.4504 3.54271 15.7254 3.54271 14.8421V13.4171C3.54271 13.0921 3.36771 12.6254 3.15937 12.3754L2.03437 11.0504C1.55104 10.4754 1.55104 9.54209 2.03437 8.96709L3.15937 7.64209C3.36771 7.39209 3.54271 6.92542 3.54271 6.60042V5.16709C3.54271 4.28376 4.26771 3.55876 5.15104 3.55876H6.59271C6.91771 3.55876 7.39271 3.38376 7.64271 3.16709L8.95937 2.04209Z" stroke="#079455" stroke-width="1.5" stroke-linecap="round" stroke-linejoin="round"/>
</svg>
