<svg width="500" height="395" viewBox="0 0 500 395" fill="none" xmlns="http://www.w3.org/2000/svg">
<path d="M273.905 45.9643C149.037 45.9643 47.8125 151.876 47.8125 282.523C47.8125 322.67 57.3841 360.473 74.2495 393.593H473.56C490.425 360.473 499.997 322.67 499.997 282.523C499.998 151.875 398.772 45.9643 273.905 45.9643Z" fill="#DEDDF9"/>
<path d="M476.092 241.082C478.569 244.101 482.414 245.636 486.103 245.724C489.813 245.809 493.484 244.676 496.401 242.57C493.228 244.234 489.636 245.057 486.181 244.619C482.743 244.276 479.467 242.644 477.474 239.985C477.067 239.429 476.716 238.83 476.403 238.21C479.172 237.585 481.79 236.09 483.627 233.798C484.852 232.238 485.694 230.309 485.717 228.183C485.714 227.133 485.488 225.994 484.82 225.01C484.164 224.014 483.077 223.33 481.987 223.073C480.889 222.803 479.739 222.889 478.698 223.259C477.672 223.63 476.781 224.242 476.053 224.959C474.6 226.389 473.647 228.242 473.253 230.184C472.803 232.406 473.015 234.666 473.716 236.753C473.598 236.763 473.483 236.783 473.364 236.791C469.969 236.988 466.498 236.095 463.247 234.741C459.957 233.433 456.899 231.552 454.062 229.351C456.565 231.936 459.56 234.055 462.786 235.741C466.023 237.375 469.621 238.599 473.431 238.548C473.762 238.549 474.095 238.52 474.428 238.496C474.887 239.419 475.442 240.29 476.092 241.082ZM475.345 230.646C475.698 229.091 476.468 227.619 477.592 226.545C478.699 225.463 480.133 224.92 481.449 225.267C482.772 225.551 483.508 226.683 483.51 228.194C483.525 229.669 482.882 231.225 481.937 232.493C480.974 233.774 479.655 234.821 478.176 235.555C477.377 235.944 476.535 236.232 475.666 236.44C475.047 234.55 474.883 232.533 475.345 230.646Z" fill="#DEDDF9"/>
<path d="M165.877 277.755L61.8203 279.111L95.0728 294.946L83.7626 320.508L104.031 311.068L98.9187 303.542L123.349 339.51L165.877 277.755Z" fill="#DEDDF9"/>
<path d="M72.2112 328.409C69.3296 330.423 66.3407 332.269 63.1957 333.745C60.1763 335.103 57.0155 336.205 53.7812 336.584C53.909 337.156 54.0379 337.728 54.169 338.299C57.5796 337.758 60.7946 336.513 63.7983 334.972C65.3888 334.139 66.9172 333.208 68.4015 332.219C69.8722 331.21 71.2887 330.135 72.6758 329.028C75.4386 326.801 78.0636 324.432 80.6308 322.004C77.8443 324.176 75.0859 326.381 72.2112 328.409Z" fill="#DEDDF9"/>
<path d="M381.093 368.973V182.416L384.666 181.139V139.402L381.093 138.124V130.133L384.666 128.855V106.769L381.093 105.492V101.023L384.666 99.7459V77.6622L381.093 76.3836V74.1927C349.196 56.1911 312.699 45.9683 273.916 45.9683C239.125 45.9683 206.174 54.1993 176.732 68.8874V128.1H147.559C143.92 119.224 135.196 112.95 125.025 112.95C120.845 112.95 116.909 114.01 113.468 115.873C109.623 119.925 105.918 124.122 102.36 128.455C101.283 131.202 100.672 134.179 100.672 137.302C100.672 148.395 108.134 157.759 118.296 160.688V216.139C118.296 227.203 127.265 236.172 138.329 236.172H176.732V368.974C176.732 378.772 181.891 387.908 189.734 393.597H367.613C375.893 388.036 381.093 379.094 381.093 368.973Z" fill="#DEDDF9"/>
<path d="M395.211 198.601L424.612 241.294L437.967 221.632L451.979 228.157L444.16 210.486L467.149 199.539L395.211 198.601Z" fill="#DEDDF9"/>
<path d="M492.788 393.594H55.0234" stroke="#5774BE" stroke-width="2.0719" stroke-miterlimit="10" stroke-linecap="round" stroke-linejoin="round"/>
<path d="M377.863 92.9592V70.8755L374.29 69.5969V61.0551C374.29 45.2364 361.42 32.366 345.601 32.366H198.619C182.8 32.366 169.93 45.2364 169.93 61.0551V362.187C169.93 376.985 181.691 390.281 196.705 392.454C197.001 392.497 197.299 392.518 197.597 392.518H344.58C344.835 392.518 345.087 392.503 345.339 392.473C362.114 390.414 374.291 377.678 374.291 362.187V175.63L377.865 174.353V132.616L374.291 131.339V123.347L377.865 122.07V99.9839L374.291 98.7065V94.2378L377.863 92.9592Z" fill="#5774BE"/>
<path d="M197.597 386.292C186.232 384.647 176.156 374.57 176.156 362.187V61.0544C176.156 48.6678 186.232 38.5908 198.619 38.5908H345.602C357.989 38.5908 368.065 48.6678 368.065 61.0544V362.185C368.065 374.569 357.989 384.646 344.581 386.29H197.597V386.292Z" fill="#94B7F7"/>
<path d="M345.609 47.3831H319.982C319.982 47.3831 311.505 59.339 307.353 59.339H240.693C236.542 59.339 228.063 47.3831 228.063 47.3831H198.625C191.075 47.3831 184.953 53.5046 184.953 61.055V333.522C184.953 343.277 192.861 351.184 202.615 351.184H341.619C351.374 351.184 359.282 343.277 359.282 333.522V61.055C359.28 53.5046 353.16 47.3831 345.609 47.3831Z" fill="white"/>
<path d="M346.852 78.2922H199.344V93.0437H346.852V78.2922Z" fill="#3E0AB9"/>
<path d="M346.852 109.583H199.344V116.958H346.852V109.583Z" fill="#3E0AB9"/>
<path d="M346.852 127.748H199.344V135.123H346.852V127.748Z" fill="#B5B5E2"/>
<path d="M346.852 145.913H199.344V153.288H346.852V145.913Z" fill="#B5B5E2"/>
<path d="M346.852 164.077H199.344V171.452H346.852V164.077Z" fill="#B5B5E2"/>
<path d="M346.852 182.241H199.344V189.616H346.852V182.241Z" fill="#B5B5E2"/>
<path d="M346.852 200.405H199.344V207.78H346.852V200.405Z" fill="#B5B5E2"/>
<path d="M346.852 218.569H199.344V225.944H346.852V218.569Z" fill="#B5B5E2"/>
<path d="M346.852 236.733H199.344V244.108H346.852V236.733Z" fill="#B5B5E2"/>
<path d="M346.852 254.898H199.344V262.273H346.852V254.898Z" fill="#B5B5E2"/>
<path d="M346.852 273.062H199.344V280.437H346.852V273.062Z" fill="#B5B5E2"/>
<path d="M346.852 291.223H199.344V298.598H346.852V291.223Z" fill="#B5B5E2"/>
<path d="M294.14 309.388H199.344V316.763H294.14V309.388Z" fill="#B5B5E2"/>
<path d="M256.558 327.554H199.344V334.929H256.558V327.554Z" fill="#B5B5E2"/>
<path d="M291.941 51.7739H244.852C243.644 51.7739 242.656 50.7858 242.656 49.5785C242.656 48.3711 243.644 47.3831 244.852 47.3831H291.941C293.148 47.3831 294.136 48.3711 294.136 49.5785C294.136 50.7858 293.148 51.7739 291.941 51.7739Z" fill="#5774BE"/>
<path d="M305.407 49.6022C305.407 50.8277 304.413 51.8213 303.188 51.8213C301.962 51.8213 300.969 50.8277 300.969 49.6022C300.969 48.3768 301.962 47.3831 303.188 47.3831C304.414 47.3831 305.407 48.3768 305.407 49.6022Z" fill="#5774BE"/>
<path d="M273.91 380.257C279.927 380.257 284.804 375.379 284.804 369.362C284.804 363.345 279.927 358.468 273.91 358.468C267.893 358.468 263.016 363.345 263.016 369.362C263.016 375.379 267.893 380.257 273.91 380.257Z" fill="#5774BE"/>
<path d="M349.666 47.9932L184.953 323.387V333.52C184.953 343.275 192.861 351.183 202.615 351.183H233.059L359.282 140.142V61.0535C359.28 54.9151 355.236 49.7217 349.666 47.9932Z" fill="white"/>
<path d="M319.982 47.3831C319.982 47.3831 311.505 59.339 307.353 59.339H247.615L184.953 164.107V300.366L336.262 47.3831H319.982Z" fill="white"/>
<path d="M289.469 351.183L359.281 234.46V163.167L246.828 351.183H289.469Z" fill="white"/>
<path d="M372.124 0C372.831 2.46103 373.182 4.92206 373.453 7.38196C373.701 9.84299 373.818 12.304 373.819 14.7639C373.821 17.225 373.706 19.686 373.457 22.1459C373.189 24.6069 372.834 27.068 372.124 29.5279C371.414 27.0668 371.059 24.6058 370.792 22.1459C370.543 19.6849 370.426 17.2238 370.43 14.7639C370.432 12.3029 370.547 9.84186 370.796 7.38196C371.066 4.92206 371.418 2.46103 372.124 0Z" fill="#C69815"/>
<path d="M411.232 39.9323C408.771 40.6389 406.31 40.9905 403.85 41.2606C401.389 41.5093 398.928 41.6246 396.467 41.6269C394.006 41.6292 391.546 41.5139 389.085 41.2652C386.624 40.9961 384.163 40.6423 381.703 39.9312C384.164 39.2213 386.625 38.8663 389.085 38.5984C391.546 38.3497 394.006 38.2332 396.467 38.2366C398.928 38.2389 401.389 38.3542 403.85 38.6029C406.31 38.8742 408.771 39.2258 411.232 39.9323Z" fill="#C69815"/>
<path d="M398.146 13.4411C396.905 15.6806 395.414 17.6691 393.866 19.6011C392.302 21.5172 390.643 23.3384 388.905 25.0805C387.167 26.8225 385.345 28.4798 383.429 30.0443C381.499 31.5942 379.508 33.0842 377.266 34.322C378.503 32.0792 379.992 30.0896 381.543 28.1587C383.108 26.2426 384.765 24.4214 386.507 22.6827C388.248 20.9441 390.07 19.2857 391.986 17.7211C393.917 16.1735 395.907 14.6824 398.146 13.4411Z" fill="#C69815"/>
<path d="M403.187 67.0752C400.947 65.835 398.957 64.3428 397.027 62.7952C395.111 61.2306 393.289 59.5722 391.547 57.8336C389.805 56.096 388.147 54.2737 386.582 52.3576C385.032 50.4279 383.543 48.4371 382.305 46.1943C384.548 47.4321 386.538 48.9209 388.468 50.472C390.384 52.0365 392.205 53.6949 393.944 55.4359C395.683 57.1768 397.341 58.9991 398.904 60.9152C400.454 62.8472 401.945 64.8357 403.187 67.0752Z" fill="#C69815"/>
<path d="M365.404 29.2725C363.165 28.0324 361.176 26.5413 359.244 24.9925C357.328 23.428 355.507 21.7696 353.765 20.032C352.023 18.2934 350.365 16.4722 348.801 14.556C347.251 12.6263 345.761 10.6356 344.523 8.39273C346.766 9.63059 348.756 11.1206 350.687 12.6704C352.603 14.235 354.424 15.8923 356.163 17.6343C357.901 19.3752 359.56 21.1976 361.123 23.1137C362.672 25.0434 364.163 27.033 365.404 29.2725Z" fill="#C69815"/>
<path d="M184.422 208.976C184.422 208.976 200.169 266.329 271.476 259.481C271.476 259.481 235.782 253.46 235.782 208.976H184.422Z" fill="#C69815"/>
<path d="M262.967 229.385H131.533C120.469 229.385 111.5 220.416 111.5 209.352V141.345C111.5 130.281 120.469 121.312 131.533 121.312H262.968C274.032 121.312 283.001 130.281 283.001 141.345V209.352C283.001 220.416 274.032 229.385 262.967 229.385Z" fill="#C69815"/>
<path d="M239.66 154.901H154.82V215.88H239.66V154.901Z" fill="#DCB650"/>
<path d="M228.767 134.816H165.734V212.945H228.767V134.816Z" fill="white"/>
<path d="M221.75 143.288H172.75V147.889H221.75V143.288Z" fill="#D0D0D0"/>
<path d="M221.75 152.718H172.75V157.319H221.75V152.718Z" fill="#D0D0D0"/>
<path d="M221.75 162.152H172.75V166.753H221.75V162.152Z" fill="#D0D0D0"/>
<path d="M221.75 171.583H172.75V176.184H221.75V171.583Z" fill="#D0D0D0"/>
<path d="M221.75 181.015H172.75V185.616H221.75V181.015Z" fill="#D0D0D0"/>
<path d="M221.75 190.449H172.75V195.05H221.75V190.449Z" fill="#D0D0D0"/>
<path d="M221.75 199.88H172.75V204.481H221.75V199.88Z" fill="#D0D0D0"/>
<path d="M173.785 183.457L154.82 154.901V215.88H239.661L239.66 154.901L220.77 183.457H173.785Z" fill="#E9D457"/>
<path d="M239.66 215.881H154.82L173.784 183.458H220.696L239.66 215.881Z" fill="#E9D457"/>
<path d="M154.82 215.88C156.29 213.114 157.795 210.367 159.303 207.623C160.812 204.879 162.299 202.123 163.847 199.402L168.45 191.215L173.073 183.04L173.3 182.637L173.784 182.632C181.602 182.546 189.421 182.526 197.24 182.507C205.058 182.525 212.877 182.542 220.696 182.629L221.177 182.635L221.408 183.039C224.518 188.472 227.556 193.948 230.634 199.4C232.18 202.121 233.67 204.876 235.178 207.621C236.686 210.365 238.191 213.111 239.659 215.879C237.967 213.242 236.312 210.585 234.658 207.925C233.005 205.266 231.334 202.616 229.72 199.933C226.477 194.578 223.193 189.246 219.981 183.872L220.693 184.281C212.875 184.368 205.056 184.385 197.237 184.403C189.419 184.385 181.6 184.366 173.782 184.279L174.493 183.871L169.633 191.907L164.754 199.932C163.141 202.615 161.469 205.264 159.816 207.924C158.166 210.586 156.511 213.244 154.82 215.88Z" fill="#DCB650"/>
<path d="M269.045 157.445C267.805 159.685 266.312 161.673 264.765 163.605C263.2 165.521 261.543 167.342 259.803 169.084C258.065 170.826 256.243 172.485 254.327 174.048C252.398 175.598 250.407 177.088 248.164 178.326C249.402 176.083 250.892 174.094 252.442 172.163C254.006 170.247 255.664 168.424 257.406 166.687C259.146 164.948 260.969 163.29 262.885 161.725C264.816 160.177 266.805 158.686 269.045 157.445Z" fill="#F4EAD0"/>
<path d="M268.467 213.335C266.227 212.095 264.239 210.603 262.307 209.054C260.391 207.49 258.568 205.832 256.827 204.094C255.085 202.355 253.428 200.534 251.864 198.618C250.314 196.688 248.824 194.697 247.586 192.454C249.829 193.692 251.818 195.181 253.749 196.732C255.664 198.297 257.488 199.954 259.225 201.696C260.964 203.437 262.622 205.259 264.186 207.175C265.736 209.107 267.227 211.096 268.467 213.335Z" fill="#F4EAD0"/>
<path d="M277.957 185.349C275.496 186.055 273.035 186.407 270.575 186.677C268.114 186.926 265.653 187.041 263.194 187.043C260.733 187.046 258.271 186.93 255.812 186.682C253.351 186.412 250.89 186.059 248.43 185.348C250.891 184.638 253.352 184.283 255.812 184.014C258.273 183.765 260.734 183.65 263.194 183.652C265.655 183.654 268.116 183.769 270.575 184.018C273.035 184.291 275.496 184.642 277.957 185.349Z" fill="#F4EAD0"/>
<path d="M125.445 157.445C127.685 158.685 129.673 160.177 131.605 161.725C133.521 163.29 135.342 164.948 137.085 166.687C138.827 168.424 140.484 170.247 142.048 172.163C143.598 174.092 145.088 176.083 146.326 178.326C144.083 177.088 142.094 175.598 140.163 174.048C138.247 172.484 136.424 170.826 134.687 169.084C132.948 167.344 131.29 165.521 129.726 163.605C128.177 161.674 126.685 159.685 125.445 157.445Z" fill="#F4EAD0"/>
<path d="M126.031 213.335C127.271 211.096 128.764 209.107 130.311 207.175C131.876 205.259 133.533 203.438 135.273 201.696C137.01 199.954 138.833 198.296 140.749 196.732C142.678 195.182 144.669 193.692 146.912 192.454C145.674 194.697 144.185 196.687 142.634 198.618C141.07 200.534 139.413 202.355 137.67 204.094C135.93 205.832 134.107 207.491 132.191 209.054C130.259 210.604 128.271 212.095 126.031 213.335Z" fill="#F4EAD0"/>
<path d="M116.555 185.35C119.016 184.643 121.477 184.292 123.937 184.021C126.398 183.773 128.859 183.657 131.319 183.655C133.78 183.653 136.241 183.768 138.7 184.017C141.161 184.286 143.622 184.64 146.082 185.351C143.621 186.061 141.16 186.416 138.7 186.685C136.239 186.934 133.778 187.049 131.319 187.047C128.857 187.044 126.396 186.929 123.937 186.68C121.477 186.408 119.016 186.056 116.555 185.35Z" fill="#F4EAD0"/>
<path d="M127.1 151.92C138.92 147.024 144.533 133.473 139.637 121.653C134.741 109.833 121.19 104.22 109.37 109.116C97.5505 114.012 91.9377 127.563 96.8337 139.383C101.73 151.203 115.28 156.816 127.1 151.92Z" fill="white" stroke="#CDD5DF" stroke-width="2.1036" stroke-miterlimit="10"/>
<path d="M120.644 117.345H118.038C117.694 117.345 117.385 117.552 117.254 117.87C116.669 119.279 114.597 120.243 111.712 120.446C111.267 120.478 110.922 120.847 110.922 121.294V123.9C110.922 124.369 111.303 124.75 111.772 124.75H116.063V142.842C116.063 143.311 116.444 143.692 116.913 143.692H120.645C121.114 143.692 121.495 143.311 121.495 142.842V118.196C121.494 117.725 121.113 117.345 120.644 117.345Z" fill="#405071"/>
<path d="M92.1172 296.758L159.076 270.971L116.548 332.726L92.1172 296.758Z" fill="#DDC173"/>
<path d="M76.9688 313.725L92.1249 296.758L97.2368 304.285L76.9688 313.725Z" fill="#DDC173"/>
<path d="M88.279 288.162L76.9688 313.724L92.1249 296.758L159.083 270.971L88.279 288.162Z" fill="#DDC173"/>
<path d="M55.0234 272.328L88.276 288.162L159.08 270.971L55.0234 272.328Z" fill="white"/>
<path d="M73.844 315.223C71.2767 317.651 68.6518 320.019 65.889 322.246C64.5019 323.352 63.0854 324.428 61.6147 325.438C60.1304 326.427 58.602 327.357 57.0114 328.19C53.8247 329.826 50.4028 331.139 46.7581 331.618C43.1395 332.111 39.4113 331.847 35.8775 330.79C32.3583 329.74 28.9794 327.815 26.5285 324.914C24.072 322.063 22.5923 318.232 22.8726 314.364C22.997 312.438 23.6131 310.493 24.7458 308.85C25.9147 307.185 27.4702 306.039 29.1263 305.113C29.9674 304.662 30.8526 304.276 31.8123 304.022C32.7653 303.771 33.811 303.622 34.9177 303.846C36.0233 304.031 37.1334 304.769 37.7359 305.738C38.3385 306.701 38.5793 307.735 38.6776 308.707L38.6787 308.717C38.7025 308.955 38.6414 309.183 38.5205 309.369C37.3957 311.1 35.7203 312.556 33.7737 313.319C31.8349 314.115 29.7481 314.256 27.7754 314.096C23.8053 313.721 20.1448 312.258 16.7772 310.435C13.3994 308.605 10.2849 306.352 7.44974 303.808C4.62359 301.265 2.00657 298.45 0 295.233C2.28466 298.25 5.01925 300.874 7.95393 303.21C10.9067 305.524 14.072 307.564 17.4091 309.21C20.7462 310.814 24.3038 312.102 27.8998 312.314C29.6848 312.407 31.4675 312.194 33.0287 311.525C34.5989 310.869 35.8842 309.707 36.7954 308.259L36.6383 308.922C36.5512 308.144 36.333 307.425 35.9849 306.891C35.6254 306.372 35.1506 306.059 34.5085 305.95C33.2107 305.728 31.5738 306.26 30.1743 307.033C28.7657 307.823 27.4193 308.862 26.5715 310.113C25.7101 311.386 25.2138 312.927 25.1234 314.521C25.0069 316.112 25.2511 317.748 25.7723 319.28C26.3081 320.799 27.1537 322.24 28.2039 323.497C30.3212 326.014 33.2797 327.807 36.4834 328.84C39.6973 329.874 43.1588 330.186 46.549 329.857C49.9393 329.532 53.2493 328.383 56.4066 326.963C59.5516 325.486 62.5405 323.64 65.4221 321.627C68.298 319.6 71.0563 317.394 73.844 315.223Z" fill="#E8D6A1"/>
<path d="M434.721 209.646L388.43 191.819L417.831 234.512L434.721 209.646Z" fill="#DDC173"/>
<path d="M445.207 221.375L434.73 209.647L431.195 214.85L445.207 221.375Z" fill="#DDC173"/>
<path d="M437.379 203.703L445.198 221.375L434.721 209.646L388.43 191.819L437.379 203.703Z" fill="#DDC173"/>
<path d="M460.368 192.757L437.379 203.703L388.43 191.819L460.368 192.757Z" fill="white"/>
<path d="M447.281 222.566C450.119 224.767 453.175 226.648 456.466 227.956C459.716 229.31 463.187 230.203 466.583 230.007C468.278 229.894 469.907 229.495 471.395 228.77C472.874 228.035 474.193 226.989 475.156 225.709C476.101 224.44 476.743 222.885 476.729 221.409C476.726 219.898 475.99 218.766 474.668 218.483C473.352 218.136 471.917 218.678 470.811 219.76C469.687 220.834 468.917 222.306 468.563 223.861C467.795 227.009 468.737 230.53 470.693 233.2C472.686 235.86 475.962 237.491 479.4 237.834C482.856 238.273 486.448 237.45 489.619 235.786C486.703 237.892 483.032 239.024 479.322 238.94C475.633 238.851 471.787 237.315 469.311 234.297C466.876 231.336 465.682 227.299 466.472 223.399C466.865 221.457 467.817 219.604 469.272 218.174C470 217.457 470.89 216.845 471.916 216.474C472.957 216.104 474.109 216.018 475.206 216.288C476.296 216.545 477.383 217.229 478.039 218.225C478.707 219.211 478.933 220.349 478.935 221.398C478.912 223.524 478.07 225.453 476.846 227.013C474.358 230.117 470.441 231.77 466.649 231.763C462.84 231.814 459.242 230.59 456.005 228.956C452.779 227.27 449.784 225.151 447.281 222.566Z" fill="#DDC173"/>
</svg>
