<svg width="170" height="200" viewBox="0 0 170 200" fill="none" xmlns="http://www.w3.org/2000/svg">
<path d="M110.385 77.1143C99.915 77.1143 89.2573 76.689 79.2877 73.912C69.5058 71.1976 60.5243 65.9313 52.5186 59.8395C47.2774 55.8742 42.5115 52.7219 35.7066 53.1973C29.0481 53.5514 22.6802 56.038 17.5437 60.2898C8.8875 67.8702 10.1884 81.9052 13.6534 91.7498C18.8571 106.598 34.6934 116.93 48.153 123.635C63.7016 131.403 80.7888 135.906 97.9135 138.508C112.924 140.785 132.213 142.448 145.222 132.641C157.168 123.635 160.446 103.07 157.519 89.1854C156.809 85.0799 154.625 81.3746 151.377 78.7655C142.983 72.6361 130.462 76.7265 121.03 76.9392C117.528 77.0142 113.962 77.0893 110.385 77.1143Z" fill="#F2F2F2"/>
<path d="M84.7679 162.838C110.129 162.838 130.688 161.555 130.688 159.973C130.688 158.391 110.129 157.109 84.7679 157.109C59.4069 157.109 38.8477 158.391 38.8477 159.973C38.8477 161.555 59.4069 162.838 84.7679 162.838Z" fill="#F2F2F2"/>
<path d="M142.07 38.099C142.747 38.099 143.296 37.5502 143.296 36.8731C143.296 36.1961 142.747 35.6472 142.07 35.6472C141.393 35.6472 140.844 36.1961 140.844 36.8731C140.844 37.5502 141.393 38.099 142.07 38.099Z" fill="#CFCFCF"/>
<path d="M60.5228 27.8292C61.1998 27.8292 61.7486 27.2803 61.7486 26.6033C61.7486 25.9263 61.1998 25.3774 60.5228 25.3774C59.8457 25.3774 59.2969 25.9263 59.2969 26.6033C59.2969 27.2803 59.8457 27.8292 60.5228 27.8292Z" fill="#CFCFCF"/>
<path d="M75.347 144.55C76.024 144.55 76.5728 144.001 76.5728 143.324C76.5728 142.647 76.024 142.098 75.347 142.098C74.6699 142.098 74.1211 142.647 74.1211 143.324C74.1211 144.001 74.6699 144.55 75.347 144.55Z" fill="#CFCFCF"/>
<path d="M108.07 22V27.3788" stroke="#BABABA" stroke-width="1.25089" stroke-linecap="round" stroke-linejoin="round"/>
<path d="M105.383 24.6895H110.762" stroke="#BABABA" stroke-width="1.25089" stroke-linecap="round" stroke-linejoin="round"/>
<path d="M20.4336 44.6412V50.02" stroke="#BABABA" stroke-width="1.25089" stroke-linecap="round" stroke-linejoin="round"/>
<path d="M17.7305 47.3306H23.1218" stroke="#BABABA" stroke-width="1.25089" stroke-linecap="round" stroke-linejoin="round"/>
<path d="M24.4844 119.582V124.973" stroke="#BABABA" stroke-width="1.25089" stroke-linecap="round" stroke-linejoin="round"/>
<path d="M21.7852 122.272H27.1765" stroke="#BABABA" stroke-width="1.25089" stroke-linecap="round" stroke-linejoin="round"/>
<path d="M135.629 64.4303V69.8091" stroke="#BABABA" stroke-width="1.25089" stroke-linecap="round" stroke-linejoin="round"/>
<path d="M132.938 67.1197H138.316" stroke="#BABABA" stroke-width="1.25089" stroke-linecap="round" stroke-linejoin="round"/>
<path d="M98.1388 33.0485L35.3528 41.2932C31.2833 41.8275 28.4176 45.5597 28.9519 49.6291L38.5219 122.508C39.0563 126.577 42.7884 129.443 46.8578 128.909L109.644 120.664C113.713 120.13 116.579 116.398 116.045 112.328L106.475 39.4494C105.94 35.3799 102.208 32.5142 98.1388 33.0485Z" fill="#D2D2D2"/>
<path d="M116.426 43.7405H53.0053C48.8948 43.7405 45.5625 47.0728 45.5625 51.1833V124.798C45.5625 128.909 48.8948 132.241 53.0053 132.241H116.426C120.536 132.241 123.868 128.909 123.868 124.798V51.1833C123.868 47.0728 120.536 43.7405 116.426 43.7405Z" fill="white" stroke="#BABABA" stroke-width="1.25089" stroke-linecap="round" stroke-linejoin="round"/>
<path d="M55.0312 101.982L67.7153 81.3048C67.8401 81.0027 68.0517 80.7445 68.3234 80.5628C68.5951 80.3811 68.9145 80.2841 69.2414 80.2841C69.5682 80.2841 69.8877 80.3811 70.1594 80.5628C70.4311 80.7445 70.6427 81.0027 70.7675 81.3048L77.9601 93.0257C78.0823 93.3287 78.2922 93.5884 78.5631 93.7712C78.8339 93.954 79.1532 94.0517 79.4799 94.0517C79.8067 94.0517 80.126 93.954 80.3968 93.7712C80.6676 93.5884 80.8776 93.3287 80.9998 93.0257L93.3086 73.0114C93.4307 72.7083 93.6407 72.4487 93.9115 72.2659C94.1823 72.0831 94.5016 71.9854 94.8284 71.9854C95.1551 71.9854 95.4744 72.0831 95.7453 72.2659C96.0161 72.4487 96.2261 72.7083 96.3482 73.0114L114.411 102.445L55.0312 101.982Z" fill="white" stroke="#BABABA" stroke-width="1.25089" stroke-linecap="round" stroke-linejoin="round"/>
<path d="M80.3263 78.5278C82.5301 78.5278 84.3166 76.7413 84.3166 74.5375C84.3166 72.3337 82.5301 70.5471 80.3263 70.5471C78.1225 70.5471 76.3359 72.3337 76.3359 74.5375C76.3359 76.7413 78.1225 78.5278 80.3263 78.5278Z" fill="white" stroke="#BABABA" stroke-width="1.25089" stroke-linecap="round" stroke-linejoin="round"/>
</svg>
