<svg width="26" height="26" viewBox="0 0 26 26" fill="none" xmlns="http://www.w3.org/2000/svg">
<path d="M5.4209 19.7705C7.65327 19.7705 9.4842 21.5119 9.48438 23.833C9.48438 24.2817 9.12061 24.6455 8.67188 24.6455H2.17188C1.72314 24.6455 1.35938 24.2817 1.35938 23.833C1.35955 21.5125 3.18814 19.7706 5.4209 19.7705ZM20.5928 19.7705C22.8251 19.7705 24.6561 21.5119 24.6562 23.833C24.6562 24.2817 24.2925 24.6455 23.8438 24.6455H17.3438C16.895 24.6455 16.5312 24.2817 16.5312 23.833C16.5314 21.5125 18.36 19.7706 20.5928 19.7705ZM5.4209 21.3955C4.34319 21.3956 3.4401 22.0492 3.11426 23.0205H7.72949C7.40331 22.0493 6.49905 21.3955 5.4209 21.3955ZM20.5928 21.3955C19.5151 21.3956 18.612 22.0492 18.2861 23.0205H22.9014C22.5752 22.0493 21.6709 21.3955 20.5928 21.3955ZM13.0049 13.2705C13.4536 13.2705 13.8174 13.6343 13.8174 14.083V16.3311L16.1318 17.7197C16.5164 17.9506 16.6408 18.4493 16.4102 18.834C16.1793 19.2187 15.6806 19.3439 15.2959 19.1133L13.0049 17.7393L10.7148 19.1133C10.3301 19.344 9.83141 19.2187 9.60059 18.834C9.36986 18.4493 9.49424 17.9506 9.87891 17.7197L12.1924 16.3311V14.083C12.1924 13.6344 12.5564 13.2708 13.0049 13.2705ZM5.42188 13.8125C6.76807 13.8125 7.85938 14.9038 7.85938 16.25C7.85938 17.5962 6.76807 18.6875 5.42188 18.6875C4.07568 18.6875 2.98438 17.5962 2.98438 16.25C2.98438 14.9038 4.07568 13.8125 5.42188 13.8125ZM20.5938 13.8125C21.9399 13.8125 23.0312 14.9038 23.0312 16.25C23.0312 17.5962 21.9399 18.6875 20.5938 18.6875C19.2476 18.6875 18.1562 17.5962 18.1562 16.25C18.1562 14.9038 19.2476 13.8125 20.5938 13.8125ZM5.42188 15.4375C4.97314 15.4375 4.60938 15.8013 4.60938 16.25C4.60938 16.6987 4.97314 17.0625 5.42188 17.0625C5.87061 17.0625 6.23438 16.6987 6.23438 16.25C6.23438 15.8013 5.87061 15.4375 5.42188 15.4375ZM20.5938 15.4375C20.145 15.4375 19.7812 15.8013 19.7812 16.25C19.7812 16.6987 20.145 17.0625 20.5938 17.0625C21.0425 17.0625 21.4062 16.6987 21.4062 16.25C21.4062 15.8013 21.0425 15.4375 20.5938 15.4375ZM12.999 7.3125C15.2314 7.3125 17.0623 9.05392 17.0625 11.375C17.0625 11.8237 16.6987 12.1875 16.25 12.1875H9.75C9.30127 12.1875 8.9375 11.8237 8.9375 11.375C8.93767 9.05448 10.7663 7.31262 12.999 7.3125ZM12.999 8.9375C11.9213 8.93759 11.0182 9.59114 10.6924 10.5625H15.3076C14.9814 9.59127 14.0772 8.9375 12.999 8.9375ZM13 1.35449C14.3462 1.35449 15.4375 2.4458 15.4375 3.79199C15.4375 5.13819 14.3462 6.22949 13 6.22949C11.6538 6.22949 10.5625 5.13819 10.5625 3.79199C10.5625 2.4458 11.6538 1.35449 13 1.35449ZM13 2.97949C12.5513 2.97949 12.1875 3.34326 12.1875 3.79199C12.1875 4.24072 12.5513 4.60449 13 4.60449C13.4487 4.60449 13.8125 4.24072 13.8125 3.79199C13.8125 3.34326 13.4487 2.97949 13 2.97949Z" fill="#C69815"/>
</svg>
