<svg width="16" height="16" viewBox="0 0 16 16" fill="none" xmlns="http://www.w3.org/2000/svg">
<path d="M8.00293 0.833008C11.961 0.833008 15.1699 4.04196 15.1699 8C15.1699 11.958 11.961 15.167 8.00293 15.167C4.04489 15.167 0.835938 11.958 0.835938 8C0.835938 4.04196 4.04489 0.833008 8.00293 0.833008ZM8.00293 1.83301C4.59717 1.83301 1.83594 4.59424 1.83594 8C1.83594 11.4058 4.59717 14.167 8.00293 14.167C11.4087 14.167 14.1699 11.4058 14.1699 8C14.1699 4.59424 11.4087 1.83301 8.00293 1.83301ZM10.3008 5.66211C10.4874 5.45855 10.8043 5.44524 11.0078 5.63184C11.211 5.81848 11.2246 6.13446 11.0381 6.33789L7.37109 10.3379C7.27895 10.4383 7.14992 10.497 7.01367 10.5C6.87737 10.5029 6.74582 10.4499 6.64941 10.3535L4.98242 8.68652C4.78749 8.49123 4.78727 8.17465 4.98242 7.97949C5.17758 7.78434 5.49416 7.78456 5.68945 7.97949L6.9873 9.27734L10.3008 5.66211Z" fill="#067647"/>
</svg>
