<svg width="24" height="24" viewBox="0 0 24 24" fill="none" xmlns="http://www.w3.org/2000/svg">
<path fill-rule="evenodd" clip-rule="evenodd" d="M14 7.25023C14.3033 7.25023 14.5773 7.43286 14.6934 7.71312C14.8094 7.99336 14.7448 8.31602 14.5303 8.5305L12.5303 10.5305C12.2756 10.7851 12.2756 11.2153 12.5303 11.47C12.7849 11.7246 13.2151 11.7246 13.4697 11.47L15.4697 9.47093C15.6842 9.25655 16.0069 9.19182 16.2871 9.30785C16.5673 9.42395 16.75 9.69789 16.75 10.0012V14.0002C16.75 14.7442 16.3855 15.4252 15.9053 15.9055C15.425 16.3858 14.7439 16.7502 14 16.7502H11.3096L6.12012 21.9143V21.9153C5.00585 23.0286 3.19986 23.0282 2.08594 21.9143C0.971988 20.8003 0.971514 18.9944 2.08496 17.8801H2.08594L7.25 12.6907V10.0002C7.25 9.2563 7.61447 8.57521 8.09473 8.09495C8.57499 7.6147 9.25608 7.25023 10 7.25023H14ZM14.6211 2.62035C14.8287 2.26701 15.2822 2.14552 15.6387 2.34788L19.1025 4.31468C19.277 4.41373 19.404 4.57898 19.4561 4.77269C19.508 4.9666 19.4805 5.17377 19.3789 5.34691C18.2403 7.28623 19.6948 9.78343 22 9.78343C22.4142 9.78343 22.7499 10.1193 22.75 10.5334V14.467C22.75 14.8812 22.4142 15.217 22 15.217C19.6954 15.217 18.2421 17.7137 19.3809 19.6535C19.4825 19.8267 19.51 20.0338 19.458 20.2278C19.406 20.4216 19.2781 20.5867 19.1035 20.6858L15.6396 22.6526C15.2832 22.8548 14.8306 22.7334 14.623 22.3801C13.448 20.3787 10.5539 20.3786 9.37891 22.3801C9.1692 22.7373 8.70974 22.8564 8.35254 22.6467C7.99536 22.437 7.87526 21.9775 8.08496 21.6203C9.71114 18.8505 13.542 18.6478 15.4912 21.0119L17.7568 19.7258C16.7687 17.1184 18.5169 14.2319 21.25 13.7785V11.2219C18.517 10.7685 16.7667 7.88235 17.7549 5.27464L15.4902 3.98851C13.6959 6.16459 10.3061 6.16456 8.51172 3.98851L6.24609 5.27464C7.23424 7.88266 5.48292 10.7685 2.75 11.2219V14.467C2.75 14.8812 2.41421 15.217 2 15.217C1.58579 15.217 1.25 14.8812 1.25 14.467V10.5334C1.25006 10.1193 1.58583 9.78343 2 9.78343C4.3057 9.78343 5.76121 7.28581 4.62305 5.34691C4.52139 5.17375 4.49296 4.96664 4.54492 4.77269C4.59694 4.57887 4.72489 4.41377 4.89941 4.31468L8.36328 2.34788C8.71978 2.14553 9.17331 2.26683 9.38086 2.62035C10.5552 4.62063 13.4469 4.62052 14.6211 2.62035ZM10 8.75023C9.74392 8.75023 9.42501 8.88576 9.15527 9.1555C8.88553 9.42524 8.75 9.74415 8.75 10.0002V13.0002C8.75 13.1985 8.67113 13.389 8.53125 13.5295L3.14746 18.9387L3.14648 18.9407C2.61814 19.4691 2.61809 20.3253 3.14648 20.8537C3.67488 21.3821 4.53115 21.3821 5.05957 20.8537L5.06152 20.8528L10.4707 15.469C10.6113 15.3291 10.8017 15.2502 11 15.2502H14C14.2561 15.2502 14.575 15.1147 14.8447 14.845C15.1145 14.5752 15.25 14.2563 15.25 14.0002V11.8108L14.5303 12.5305L14.3662 12.678C13.5191 13.3673 12.2576 13.3184 11.4697 12.5305C10.6293 11.6901 10.6293 10.3104 11.4697 9.46995L12.1895 8.75023H10Z" fill="#161616"/>
</svg>
