<svg width="15" height="14" viewBox="0 0 15 14" fill="none" xmlns="http://www.w3.org/2000/svg">
<path d="M8.5 3.33301C8.70211 3.33301 8.88445 3.45495 8.96191 3.6416C9.0393 3.82844 8.99651 4.04352 8.85352 4.18652L7.52051 5.52051C7.35098 5.6903 7.35082 5.9768 7.52051 6.14648C7.6902 6.3161 7.97671 6.31599 8.14648 6.14648L9.48047 4.81348C9.62349 4.67066 9.83865 4.6277 10.0254 4.70508C10.212 4.78252 10.3339 4.96493 10.334 5.16699V7.83301C10.334 8.32896 10.0907 8.78334 9.77051 9.10352C9.45034 9.42365 8.99591 9.66699 8.5 9.66699H6.70703L3.24707 13.1094V13.1104C2.50424 13.8525 1.30022 13.8519 0.557617 13.1094C-0.184982 12.3668 -0.185555 11.1628 0.556641 10.4199H0.557617L4 6.95996V5.16699C4 4.67108 4.24334 4.21665 4.56348 3.89648C4.88365 3.57631 5.33804 3.33301 5.83398 3.33301H8.5ZM8.91406 0.24707C9.05244 0.0113642 9.35509 -0.0695196 9.59277 0.0654297L11.9023 1.37598C12.0186 1.44204 12.103 1.5525 12.1377 1.68164C12.1723 1.81094 12.1537 1.94901 12.0859 2.06445C11.3271 3.35731 12.2972 5.02246 13.834 5.02246C14.11 5.02264 14.334 5.24643 14.334 5.52246V8.14453C14.334 8.42056 14.11 8.64435 13.834 8.64453C12.2976 8.64453 11.3277 10.3093 12.0869 11.6025C12.1546 11.7179 12.1732 11.8552 12.1387 11.9844C12.1041 12.1135 12.0196 12.2239 11.9033 12.29L9.59375 13.6016C9.35607 13.7365 9.05342 13.6556 8.91504 13.4199C8.13169 12.0856 6.20327 12.0856 5.41992 13.4199C5.28013 13.658 4.97348 13.7374 4.73535 13.5977C4.49721 13.4579 4.41781 13.1512 4.55762 12.9131C5.64186 11.0669 8.19477 10.9319 9.49414 12.5078L11.0049 11.6504C10.3462 9.91211 11.5119 7.98779 13.334 7.68555V5.98145C11.512 5.67922 10.3452 3.75506 11.0039 2.0166L9.49316 1.15918C8.29696 2.60949 6.03801 2.60946 4.8418 1.15918L3.33105 2.0166C3.9897 3.75525 2.82191 5.67922 1 5.98145V8.14453C1 8.42067 0.776142 8.64453 0.5 8.64453C0.224007 8.64436 0 8.42056 0 8.14453V5.52246C0 5.24643 0.224007 5.02264 0.5 5.02246C2.03709 5.02246 3.00768 3.35704 2.24902 2.06445C2.18125 1.94901 2.16262 1.81094 2.19727 1.68164C2.23193 1.5524 2.31723 1.44204 2.43359 1.37598L4.74219 0.0654297C4.97987 -0.0695177 5.28252 0.0113706 5.4209 0.24707C6.20386 1.58015 8.1312 1.5801 8.91406 0.24707ZM5.83398 4.33301C5.66327 4.33301 5.45033 4.42369 5.27051 4.60352C5.09073 4.78333 5 4.9963 5 5.16699V7.16699C4.99988 7.29902 4.94763 7.42594 4.85449 7.51953L1.26562 11.126L1.26465 11.127C0.91249 11.4792 0.91241 12.0501 1.26465 12.4023C1.61689 12.7545 2.18778 12.7545 2.54004 12.4023L2.54102 12.4014L6.14746 8.8125C6.24108 8.71932 6.36792 8.66708 6.5 8.66699H8.5C8.67069 8.66699 8.88366 8.57626 9.06348 8.39648C9.2433 8.21666 9.33398 8.00373 9.33398 7.83301V6.37402L8.85352 6.85352C8.29323 7.41354 7.37369 7.41365 6.81348 6.85352C6.25319 6.29323 6.25319 5.37279 6.81348 4.8125L7.29297 4.33301H5.83398Z" fill="white"/>
</svg>
