<svg width="24" height="24" viewBox="0 0 24 24" fill="none" xmlns="http://www.w3.org/2000/svg">
<path d="M14 7.25C14.3033 7.25 14.5773 7.43263 14.6934 7.71289C14.8094 7.99313 14.7448 8.31579 14.5303 8.53027L12.5303 10.5303C12.2756 10.7849 12.2756 11.2151 12.5303 11.4697C12.7849 11.7244 13.2151 11.7244 13.4697 11.4697L15.4697 9.4707C15.6842 9.25632 16.0069 9.1916 16.2871 9.30762C16.5673 9.42372 16.75 9.69766 16.75 10.001V14C16.75 14.7439 16.3855 15.425 15.9053 15.9053C15.425 16.3855 14.7439 16.75 14 16.75H11.3096L6.12012 21.9141V21.915C5.00585 23.0284 3.19986 23.028 2.08594 21.9141C0.971988 20.8001 0.971514 18.9941 2.08496 17.8799H2.08594L7.25 12.6904V10C7.25 9.25608 7.61447 8.57499 8.09473 8.09473C8.57499 7.61447 9.25608 7.25 10 7.25H14ZM14.6211 2.62012C14.8287 2.26678 15.2822 2.14529 15.6387 2.34766L19.1025 4.31445C19.277 4.4135 19.404 4.57875 19.4561 4.77246C19.508 4.96638 19.4805 5.17354 19.3789 5.34668C18.2403 7.286 19.6948 9.7832 22 9.7832C22.4142 9.7832 22.7499 10.119 22.75 10.5332V14.4668C22.75 14.881 22.4142 15.2168 22 15.2168C19.6954 15.2168 18.2421 17.7135 19.3809 19.6533C19.4825 19.8265 19.51 20.0336 19.458 20.2275C19.406 20.4214 19.2781 20.5864 19.1035 20.6855L15.6396 22.6523C15.2832 22.8546 14.8306 22.7332 14.623 22.3799C13.448 20.3784 10.5539 20.3784 9.37891 22.3799C9.1692 22.7371 8.70974 22.8562 8.35254 22.6465C7.99536 22.4368 7.87526 21.9773 8.08496 21.6201C9.71114 18.8502 13.542 18.6476 15.4912 21.0117L17.7568 19.7256C16.7687 17.1182 18.5169 14.2317 21.25 13.7783V11.2217C18.517 10.7683 16.7667 7.88212 17.7549 5.27441L15.4902 3.98828C13.6959 6.16437 10.3061 6.16433 8.51172 3.98828L6.24609 5.27441C7.23424 7.88243 5.48292 10.7683 2.75 11.2217V14.4668C2.75 14.881 2.41421 15.2168 2 15.2168C1.58579 15.2168 1.25 14.881 1.25 14.4668V10.5332C1.25006 10.119 1.58583 9.7832 2 9.7832C4.3057 9.7832 5.76121 7.28558 4.62305 5.34668C4.52139 5.17352 4.49296 4.96642 4.54492 4.77246C4.59694 4.57864 4.72489 4.41354 4.89941 4.31445L8.36328 2.34766C8.71978 2.1453 9.17331 2.2666 9.38086 2.62012C10.5552 4.6204 13.4469 4.62029 14.6211 2.62012ZM10 8.75C9.74392 8.75 9.42501 8.88553 9.15527 9.15527C8.88553 9.42501 8.75 9.74392 8.75 10V13C8.75 13.1983 8.67113 13.3887 8.53125 13.5293L3.14746 18.9385L3.14648 18.9404C2.61814 19.4689 2.61809 20.3251 3.14648 20.8535C3.67488 21.3819 4.53115 21.3819 5.05957 20.8535L5.06152 20.8525L10.4707 15.4688C10.6113 15.3289 10.8017 15.25 11 15.25H14C14.2561 15.25 14.575 15.1145 14.8447 14.8447C15.1145 14.575 15.25 14.2561 15.25 14V11.8105L14.5303 12.5303L14.3662 12.6777C13.5191 13.367 12.2576 13.3181 11.4697 12.5303C10.6293 11.6898 10.6293 10.3102 11.4697 9.46973L12.1895 8.75H10Z" fill="#4B5565"/>
</svg>
