<svg width="32" height="32" viewBox="0 0 32 32" fill="none" xmlns="http://www.w3.org/2000/svg">
<path d="M17.3346 7.99999C17.3346 7.64637 17.1942 7.30723 16.9441 7.05718C16.6941 6.80713 16.3549 6.66666 16.0013 6.66666C15.6477 6.66666 15.3085 6.80713 15.0585 7.05718C14.8084 7.30723 14.668 7.64637 14.668 7.99999V14.6667H8.0013C7.64768 14.6667 7.30854 14.8071 7.05849 15.0572C6.80844 15.3072 6.66797 15.6464 6.66797 16C6.66797 16.3536 6.80844 16.6927 7.05849 16.9428C7.30854 17.1928 7.64768 17.3333 8.0013 17.3333H14.668V24C14.668 24.3536 14.8084 24.6928 15.0585 24.9428C15.3085 25.1928 15.6477 25.3333 16.0013 25.3333C16.3549 25.3333 16.6941 25.1928 16.9441 24.9428C17.1942 24.6928 17.3346 24.3536 17.3346 24V17.3333H24.0013C24.3549 17.3333 24.6941 17.1928 24.9441 16.9428C25.1942 16.6927 25.3346 16.3536 25.3346 16C25.3346 15.6464 25.1942 15.3072 24.9441 15.0572C24.6941 14.8071 24.3549 14.6667 24.0013 14.6667H17.3346V7.99999Z" fill="#697586"/>
</svg>
