<svg width="26" height="26" viewBox="0 0 26 26" fill="none" xmlns="http://www.w3.org/2000/svg">
<path d="M17.9844 18.015L13.9844 18.0029" stroke="#C69815" stroke-linecap="round"/>
<path d="M17.9921 13.0155L7.99219 12.9854" stroke="#C69815" stroke-linecap="round"/>
<path d="M18.0151 8.01515L8 7.96387" stroke="#C69815" stroke-linecap="round"/>
<path d="M12.9687 22.5003C8.49039 22.4868 6.25123 22.4801 4.86418 21.0846C3.47713 19.6892 3.48388 17.45 3.49737 12.9717C3.51087 8.49344 3.51761 6.25425 4.91304 4.86715C6.30847 3.48015 8.54763 3.4869 13.026 3.50039C17.5042 3.51388 19.7434 3.52063 21.1305 4.91601C22.5175 6.3115 22.5108 8.55069 22.4973 13.029C22.4838 17.5073 22.477 19.7464 21.0817 21.1335C19.6862 22.5205 17.447 22.5138 12.9687 22.5003Z" stroke="#C69815" stroke-linejoin="round"/>
</svg>
