<svg width="25" height="25" viewBox="0 0 25 25" fill="none" xmlns="http://www.w3.org/2000/svg">
<path d="M15.5884 21.17C15.7784 21.17 15.9684 21.1 16.1184 20.95C16.4084 20.66 16.4084 20.18 16.1184 19.89L9.59844 13.37C9.11844 12.89 9.11844 12.11 9.59844 11.63L16.1184 5.11C16.4084 4.82 16.4084 4.34 16.1184 4.05C15.8284 3.76 15.3484 3.76 15.0584 4.05L8.53844 10.57C8.02844 11.08 7.73844 11.77 7.73844 12.5C7.73844 13.23 8.01844 13.92 8.53844 14.43L15.0584 20.95C15.2084 21.09 15.3984 21.17 15.5884 21.17Z" fill="white" stroke="white" stroke-width="0.416667"/>
</svg>
