<svg width="32" height="32" viewBox="0 0 32 32" fill="none" xmlns="http://www.w3.org/2000/svg">
<path d="M7.31543 17.668C7.93323 17.668 8.54071 17.8243 9.08203 18.1221L11.5908 19.501H12.667C14.3182 19.501 15.6864 20.3458 16.4199 21.4736L21.2979 19.8477C23.1395 19.2338 25.1402 20.1616 25.8613 21.9639C26.2803 23.0113 25.8264 24.2055 24.8174 24.71L14.7041 29.7666C13.8866 30.1753 12.9459 30.2643 12.0664 30.0156L3.72852 27.6562C3.19709 27.5059 2.88775 26.9533 3.03809 26.4219C3.18849 25.8905 3.74109 25.5821 4.27246 25.7324L12.6104 28.0908C13.0101 28.2039 13.438 28.1633 13.8096 27.9775L23.9229 22.9209C24.0015 22.8816 24.0374 22.7886 24.0049 22.707C23.6772 21.8878 22.7677 21.4663 21.9307 21.7451L16.999 23.3887C16.9769 23.7965 16.7074 24.1529 16.3164 24.2832L12.7383 25.4756C12.2594 25.6352 11.7416 25.6351 11.2627 25.4756L7.68359 24.2832C7.15981 24.1085 6.87714 23.5414 7.05176 23.0176C7.22652 22.4938 7.79256 22.2111 8.31641 22.3857L11.8945 23.5781C11.9629 23.6009 12.0371 23.6009 12.1055 23.5781L14.8066 22.6777C14.481 22.0908 13.7514 21.501 12.667 21.501H11.334C11.1655 21.501 10.9992 21.4582 10.8516 21.377L8.11816 19.874C7.87219 19.7388 7.59614 19.668 7.31543 19.668H4C3.44794 19.6678 3.00018 19.22 3 18.668C3 18.1158 3.44783 17.6681 4 17.668H7.31543ZM18.667 5.66797C19.2191 5.66814 19.667 6.11579 19.667 6.66797V7.11328C20.7185 7.35418 21.6461 7.97492 22.0859 8.9082C22.3213 9.40778 22.107 10.0038 21.6074 10.2393C21.108 10.4743 20.5128 10.26 20.2773 9.76074C20.1211 9.42911 19.558 9.00108 18.667 9.00098C18.1261 9.00098 17.6743 9.16663 17.3809 9.38672C17.0878 9.60655 17 9.83404 17 10.001C17 10.1679 17.0878 10.3954 17.3809 10.6152C17.6743 10.8353 18.1261 11.001 18.667 11.001C19.5987 11.001 20.4807 11.2834 21.1523 11.7871C21.8242 12.2911 22.333 13.0635 22.333 14.001C22.333 14.9385 21.8242 15.7108 21.1523 16.2148C20.7278 16.5333 20.2191 16.7636 19.667 16.8896V17.334C19.667 17.8862 19.2191 18.3338 18.667 18.334C18.1147 18.334 17.667 17.8863 17.667 17.334V16.8887C16.6154 16.6478 15.6869 16.0271 15.2471 15.0937C15.0118 14.5942 15.2261 13.9981 15.7256 13.7627C16.2251 13.5275 16.8212 13.7417 17.0566 14.2412C17.213 14.5729 17.7758 15.001 18.667 15.001C19.2077 15.0009 19.6588 14.8352 19.9521 14.6152C20.2453 14.3954 20.333 14.1679 20.333 14.001C20.333 13.834 20.2453 13.6066 19.9521 13.3867C19.6588 13.1667 19.2077 13.001 18.667 13.001C17.7352 13.001 16.8524 12.7186 16.1807 12.2148C15.5089 11.7108 15 10.9384 15 10.001C15 9.06356 15.5089 8.29111 16.1807 7.78711C16.6053 7.46863 17.1148 7.2383 17.667 7.1123V6.66797C17.667 6.11568 18.1147 5.66797 18.667 5.66797ZM18.667 1.66797C24.3738 1.66814 29 6.29414 29 12.001C29 14.195 28.3151 16.2321 27.1475 17.9062C26.8315 18.3592 26.2079 18.4703 25.7549 18.1543C25.3022 17.8384 25.1912 17.2156 25.5068 16.7627C26.4481 15.4133 27 13.7728 27 12.001C27 7.39871 23.2692 3.66814 18.667 3.66797C14.0646 3.66797 10.333 7.3986 10.333 12.001C10.333 13.2809 10.6212 14.4912 11.1348 15.5723C11.3715 16.0711 11.1589 16.6674 10.6602 16.9043C10.1614 17.141 9.56505 16.9284 9.32813 16.4297C8.68996 15.0862 8.33301 13.5838 8.33301 12.001C8.33301 6.29403 12.9601 1.66797 18.667 1.66797Z" fill="#713DEC"/>
</svg>
