<svg width="24" height="24" viewBox="0 0 24 24" fill="none" xmlns="http://www.w3.org/2000/svg">
<path d="M8.05371 2.25195C8.14014 2.25679 8.2262 2.2766 8.30762 2.31152L15.1543 5.25H22C22.4141 5.25 22.7499 5.58588 22.75 6V21C22.75 21.4142 22.4142 21.75 22 21.75H15C14.8983 21.75 14.7976 21.7296 14.7041 21.6895L7.97754 18.8018L2.23633 20.7119C2.00779 20.7878 1.75687 20.7492 1.56152 20.6084C1.36605 20.4674 1.25 20.241 1.25 20V6.08301C1.25006 5.80171 1.40788 5.54435 1.6582 5.41602L7.57324 2.38281C7.69428 2.29905 7.84166 2.25 8 2.25C8.01806 2.25001 8.03597 2.25069 8.05371 2.25195ZM15.75 20.25H21.25V6.75H15.75V20.25ZM8.75 17.5H8.74902L14.25 19.8613V6.49414L8.75 4.13379V17.5ZM2.75 6.54102V18.96L7.25 17.4619V4.2334L2.75 6.54102Z" fill="#8B8B8B"/>
</svg>
