<svg width="32" height="32" viewBox="0 0 32 32" fill="none" xmlns="http://www.w3.org/2000/svg">
<path d="M18.0635 4.33203C20.5153 4.33202 22.4409 4.33245 23.959 4.50391C25.5085 4.67894 26.7651 5.04425 27.8096 5.86914C28.1222 6.11608 28.4122 6.38891 28.6758 6.68457C29.5638 7.68074 29.9605 8.88785 30.1494 10.3691C30.3329 11.8084 30.333 13.63 30.333 15.9287V16.0693C30.333 18.368 30.3329 20.1897 30.1494 21.6289C29.9605 23.1102 29.5638 24.3173 28.6758 25.3135C28.4122 25.6091 28.1222 25.882 27.8096 26.1289C26.7651 26.9538 25.5085 27.3191 23.959 27.4941C22.4409 27.6656 20.5153 27.666 18.0635 27.666H13.9365C11.4847 27.666 9.55908 27.6656 8.04102 27.4941C6.49146 27.3191 5.23493 26.9538 4.19043 26.1289C3.87776 25.882 3.5878 25.6091 3.32422 25.3135C2.43616 24.3173 2.03952 23.1102 1.85059 21.6289C1.66705 20.1897 1.66697 18.368 1.66699 16.0693V15.9287C1.66697 13.63 1.66705 11.8084 1.85059 10.3691C2.03952 8.88786 2.43616 7.68074 3.32422 6.68457C3.5878 6.38892 3.87776 6.11607 4.19043 5.86914C5.23493 5.04425 6.49146 4.67894 8.04102 4.50391C9.55908 4.33245 11.4847 4.33202 13.9365 4.33203H18.0635ZM14 6.33203C11.471 6.33203 9.65835 6.33392 8.26562 6.49121C6.89123 6.64646 6.05809 6.9422 5.42969 7.43848C5.20728 7.61413 5.00181 7.80669 4.81641 8.01465C4.30096 8.5928 3.996 9.3519 3.83398 10.6221C3.66845 11.9201 3.66699 13.6143 3.66699 15.999C3.66699 18.3838 3.66845 20.0779 3.83398 21.376C3.996 22.6461 4.30096 23.4052 4.81641 23.9834C5.00181 24.1914 5.20728 24.3839 5.42969 24.5596C6.05809 25.0558 6.89123 25.3516 8.26562 25.5068C9.65835 25.6641 11.471 25.666 14 25.666H18C20.529 25.666 22.3417 25.6641 23.7344 25.5068C25.1088 25.3516 25.9419 25.0558 26.5703 24.5596C26.7927 24.3839 26.9982 24.1914 27.1836 23.9834C27.699 23.4052 28.004 22.6461 28.166 21.376C28.3315 20.0779 28.333 18.3838 28.333 15.999C28.333 13.6143 28.3315 11.9201 28.166 10.6221C28.004 9.3519 27.699 8.5928 27.1836 8.01465C26.9982 7.80669 26.7927 7.61413 26.5703 7.43848C25.9419 6.9422 25.1088 6.64646 23.7344 6.49121C22.3417 6.33392 20.529 6.33203 18 6.33203H14ZM16.0654 11.666C18.4586 11.666 20.3984 13.6058 20.3984 15.999C20.3984 18.3922 18.4586 20.332 16.0654 20.332C13.6722 20.332 11.7324 18.3923 11.7324 15.999C11.7324 13.6058 13.6722 11.666 16.0654 11.666ZM16.0654 13.666C14.7768 13.666 13.7324 14.7104 13.7324 15.999C13.7324 17.2877 14.7768 18.332 16.0654 18.332C17.3541 18.332 18.3984 17.2877 18.3984 15.999C18.3984 14.7104 17.3541 13.666 16.0654 13.666ZM7.33301 14.666C8.06939 14.666 8.66699 15.2626 8.66699 15.999C8.66699 16.7354 8.06939 17.332 7.33301 17.332H7.32129C6.58492 17.332 5.98828 16.7354 5.98828 15.999C5.98828 15.2627 6.58492 14.666 7.32129 14.666H7.33301ZM24.6797 14.666C25.4161 14.666 26.0127 15.2626 26.0127 15.999C26.0127 16.7354 25.4161 17.332 24.6797 17.332H24.668C23.9316 17.332 23.334 16.7354 23.334 15.999C23.334 15.2626 23.9316 14.666 24.668 14.666H24.6797Z" fill="#F79009"/>
</svg>
