<svg width="20" height="20" viewBox="0 0 20 20" fill="none" xmlns="http://www.w3.org/2000/svg">
<path d="M4.57227 11.043C4.95841 11.043 5.33841 11.1401 5.67676 11.3262L7.24414 12.1885H7.91699C8.94889 12.1885 9.80422 12.7161 10.2627 13.4209L13.3115 12.4053C14.4625 12.0216 15.7133 12.6011 16.1641 13.7275C16.4259 14.3821 16.1423 15.129 15.5117 15.4443L9.19043 18.6045C8.67953 18.8599 8.09164 18.9152 7.54199 18.7598L2.33008 17.2861C1.998 17.1921 1.80546 16.8458 1.89941 16.5137C1.99359 16.1818 2.33893 15.9891 2.6709 16.083L7.88184 17.5566C8.1316 17.6273 8.39867 17.6023 8.63086 17.4863L14.9521 14.3262C15.0013 14.3016 15.0233 14.2434 15.0029 14.1924C14.7981 13.6804 14.2302 13.4166 13.707 13.5908L10.625 14.6182C10.6112 14.873 10.4425 15.0952 10.1982 15.1768L7.96191 15.9229C7.66257 16.0226 7.33841 16.0226 7.03906 15.9229L4.80273 15.1768C4.47547 15.0676 4.29827 14.7141 4.40723 14.3867C4.51638 14.0593 4.87078 13.8821 5.19824 13.9912L7.43457 14.7363C7.47733 14.7506 7.52364 14.7506 7.56641 14.7363L9.25391 14.1738C9.05031 13.8071 8.5946 13.4385 7.91699 13.4385H7.08398C6.97866 13.4385 6.87451 13.4121 6.78223 13.3613L5.07422 12.4219C4.92041 12.3373 4.7478 12.293 4.57227 12.293H2.5C2.15514 12.2927 1.87518 12.0128 1.875 11.668C1.875 11.3229 2.15503 11.0432 2.5 11.043H4.57227ZM11.667 3.54297C12.0122 3.54299 12.292 3.8228 12.292 4.16797V4.44629C12.9492 4.59683 13.5288 4.98502 13.8037 5.56836C13.9507 5.88055 13.817 6.2523 13.5049 6.39941C13.1927 6.54642 12.821 6.41275 12.6738 6.10059C12.5761 5.8933 12.224 5.62599 11.667 5.62598C11.3289 5.62598 11.0467 5.72963 10.8633 5.86719C10.6802 6.00456 10.625 6.14666 10.625 6.25098C10.625 6.3553 10.6802 6.49739 10.8633 6.63477C11.0467 6.77232 11.3289 6.87598 11.667 6.87598C12.2494 6.87598 12.8009 7.05234 13.2207 7.36719C13.6406 7.68219 13.959 8.16506 13.959 8.75098C13.959 9.33689 13.6406 9.81976 13.2207 10.1348C12.9553 10.3338 12.6371 10.4779 12.292 10.5566V10.834C12.292 11.1792 12.0122 11.459 11.667 11.459C11.3218 11.459 11.042 11.1792 11.042 10.834V10.5557C10.3848 10.4051 9.80421 10.0169 9.5293 9.43359C9.38259 9.12147 9.51705 8.7496 9.8291 8.60254C10.1413 8.45557 10.513 8.5892 10.6602 8.90137C10.7578 9.10866 11.11 9.37598 11.667 9.37598C12.0051 9.37597 12.2873 9.27232 12.4707 9.13477C12.6538 8.9974 12.709 8.85529 12.709 8.75098C12.709 8.64667 12.6538 8.50456 12.4707 8.36719C12.2873 8.22963 12.0051 8.12598 11.667 8.12598C11.0846 8.12598 10.5331 7.94962 10.1133 7.63477C9.69336 7.31976 9.375 6.83691 9.375 6.25098C9.375 5.66504 9.69336 5.18219 10.1133 4.86719C10.3787 4.66814 10.6968 4.52406 11.042 4.44531V4.16797C11.042 3.82279 11.3218 3.54297 11.667 3.54297ZM11.667 1.04297C15.2338 1.04299 18.125 3.93415 18.125 7.50098C18.125 8.87208 17.6974 10.1452 16.9678 11.1914C16.7703 11.4745 16.3798 11.5442 16.0967 11.3467C15.8139 11.1491 15.745 10.7595 15.9424 10.4766C16.5305 9.63323 16.875 8.60828 16.875 7.50098C16.875 4.6245 14.5435 2.29299 11.667 2.29297C8.79051 2.29297 6.45898 4.62449 6.45898 7.50098C6.45898 8.30087 6.63902 9.05677 6.95996 9.73242C7.10807 10.0442 6.97487 10.4173 6.66309 10.5654C6.35136 10.7135 5.97824 10.5812 5.83008 10.2695C5.43116 9.42979 5.20898 8.49036 5.20898 7.50098C5.20898 3.93414 8.10015 1.04297 11.667 1.04297Z" fill="#697586"/>
</svg>
