<svg width="22" height="20" viewBox="0 0 22 20" fill="none" xmlns="http://www.w3.org/2000/svg">
<path d="M7.75 0C8.16421 0 8.5 0.335786 8.5 0.75V2.5H13V0.75C13 0.335786 13.3358 0 13.75 0H17.25C17.6642 0 18 0.335786 18 0.75V2.5H18.75C20.2688 2.5 21.5 3.73122 21.5 5.25V16.75C21.5 18.2688 20.2688 19.5 18.75 19.5H2.75C1.23122 19.5 0 18.2688 0 16.75V5.25C0 3.73122 1.23122 2.5 2.75 2.5H3.5V0.75C3.5 0.335786 3.83579 0 4.25 0H7.75ZM2.75 4C2.05964 4 1.5 4.55964 1.5 5.25V16.75C1.5 17.4404 2.05964 18 2.75 18H18.75C19.4404 18 20 17.4404 20 16.75V5.25C20 4.55964 19.4404 4 18.75 4H2.75ZM15.75 5.5C16.1642 5.5 16.5 5.83579 16.5 6.25V7.5H17.75C18.1642 7.5 18.5 7.83579 18.5 8.25C18.5 8.66421 18.1642 9 17.75 9H16.5V10.25C16.5 10.6642 16.1642 11 15.75 11C15.3358 11 15 10.6642 15 10.25V9H13.75C13.3358 9 13 8.66421 13 8.25C13 7.83579 13.3358 7.5 13.75 7.5H15V6.25C15 5.83579 15.3358 5.5 15.75 5.5ZM7.75 7.5C8.16421 7.5 8.5 7.83579 8.5 8.25C8.5 8.66421 8.16421 9 7.75 9H3.75C3.33579 9 3 8.66421 3 8.25C3 7.83579 3.33579 7.5 3.75 7.5H7.75ZM5 2.5H7V1.5H5V2.5ZM14.5 2.5H16.5V1.5H14.5V2.5Z" fill="white"/>
</svg>
