<svg width="24" height="24" viewBox="0 0 24 24" fill="none" xmlns="http://www.w3.org/2000/svg">
<path d="M9 2.25C9.41421 2.25 9.75 2.58579 9.75 3V4.75H14.25V3C14.25 2.58579 14.5858 2.25 15 2.25H18.5C18.9142 2.25 19.25 2.58579 19.25 3V4.75H20C21.5188 4.75 22.75 5.98122 22.75 7.5V19C22.75 20.5188 21.5188 21.75 20 21.75H4C2.48122 21.75 1.25 20.5188 1.25 19V7.5C1.25 5.98122 2.48122 4.75 4 4.75H4.75V3C4.75 2.58579 5.08579 2.25 5.5 2.25H9ZM4 6.25C3.30964 6.25 2.75 6.80964 2.75 7.5V19C2.75 19.6904 3.30964 20.25 4 20.25H20C20.6904 20.25 21.25 19.6904 21.25 19V7.5C21.25 6.80964 20.6904 6.25 20 6.25H4ZM17 7.75C17.4142 7.75 17.75 8.08579 17.75 8.5V9.75H19C19.4142 9.75 19.75 10.0858 19.75 10.5C19.75 10.9142 19.4142 11.25 19 11.25H17.75V12.5C17.75 12.9142 17.4142 13.25 17 13.25C16.5858 13.25 16.25 12.9142 16.25 12.5V11.25H15C14.5858 11.25 14.25 10.9142 14.25 10.5C14.25 10.0858 14.5858 9.75 15 9.75H16.25V8.5C16.25 8.08579 16.5858 7.75 17 7.75ZM9 9.75C9.41421 9.75 9.75 10.0858 9.75 10.5C9.75 10.9142 9.41421 11.25 9 11.25H5C4.58579 11.25 4.25 10.9142 4.25 10.5C4.25 10.0858 4.58579 9.75 5 9.75H9ZM6.25 4.75H8.25V3.75H6.25V4.75ZM15.75 4.75H17.75V3.75H15.75V4.75Z" fill="#4D0CE7"/>
</svg>
