<svg width="24" height="24" viewBox="0 0 24 24" fill="none" xmlns="http://www.w3.org/2000/svg">
<path d="M18.7695 0C19.2739 0.000150919 19.6922 0.379463 19.6924 0.836914V1.6748H20.6152C22.486 1.6748 24 3.04742 24 4.74414V20.9307C23.9997 22.6272 22.4858 24 20.6152 24H3.38477C1.51416 24 0.000257311 22.6272 0 20.9307V4.74414C2.68909e-05 3.04742 1.51401 1.6748 3.38477 1.6748H4.30762V0.836914C4.3078 0.379463 4.7261 0.00015068 5.23047 0C5.73498 0 6.15412 0.379372 6.1543 0.836914V1.6748H17.8457V0.836914C17.8459 0.379372 18.265 0 18.7695 0ZM1.8457 8.93066V20.9307C1.84596 21.7007 2.53569 22.3252 3.38477 22.3252H20.6152C21.4643 22.3252 22.154 21.7007 22.1543 20.9307V8.93066H1.8457ZM16.2705 11.9668C16.6274 11.6431 17.2183 11.6431 17.5752 11.9668C17.9316 12.2904 17.9316 12.8258 17.5752 13.1494L11.4209 18.7314C11.2363 18.8988 11.0023 18.9766 10.7686 18.9766C10.5348 18.9766 10.3008 18.8988 10.1162 18.7314L7.6543 16.499C7.29749 16.1754 7.29768 15.6392 7.6543 15.3154C8.01117 14.9918 8.60205 14.9918 8.95898 15.3154L10.7686 16.9561L16.2705 11.9668ZM3.38477 3.34863C2.53555 3.34863 1.84573 3.97393 1.8457 4.74414V7.25586H22.1543V4.74414C22.1543 3.97393 21.4644 3.34863 20.6152 3.34863H19.6924V4.18652C19.6921 4.64389 19.2738 5.02329 18.7695 5.02344C18.2651 5.02344 17.846 4.64398 17.8457 4.18652V3.34863H6.1543V4.18652C6.15401 4.64398 5.73491 5.02344 5.23047 5.02344C4.72616 5.02329 4.30791 4.64389 4.30762 4.18652V3.34863H3.38477Z" fill="#C69815"/>
</svg>
