<svg width="24" height="24" viewBox="0 0 24 24" fill="none" xmlns="http://www.w3.org/2000/svg">
<path d="M18 1.25C18.4142 1.25 18.75 1.58579 18.75 2V2.75H19.5C21.0188 2.75 22.25 3.98122 22.25 5.5V12.5C22.25 12.9142 21.9142 13.25 21.5 13.25C21.0858 13.25 20.75 12.9142 20.75 12.5V9.25H3.25V20C3.25 20.6904 3.80964 21.25 4.5 21.25H11.5C11.9142 21.25 12.25 21.5858 12.25 22C12.25 22.4142 11.9142 22.75 11.5 22.75H4.5C2.98122 22.75 1.75 21.5188 1.75 20V5.5C1.75 3.98122 2.98122 2.75 4.5 2.75H5.25V2C5.25 1.58579 5.58579 1.25 6 1.25C6.41421 1.25 6.75 1.58579 6.75 2V2.75H17.25V2C17.25 1.58579 17.5858 1.25 18 1.25ZM20.4697 15.4697C20.7626 15.1768 21.2374 15.1768 21.5303 15.4697C21.8232 15.7626 21.8232 16.2374 21.5303 16.5303L19.0605 19L21.5303 21.4697C21.8232 21.7626 21.8232 22.2374 21.5303 22.5303C21.2374 22.8232 20.7626 22.8232 20.4697 22.5303L18 20.0605L15.5303 22.5303C15.2374 22.8232 14.7626 22.8232 14.4697 22.5303C14.1768 22.2374 14.1768 21.7626 14.4697 21.4697L16.9395 19L14.4697 16.5303C14.1768 16.2374 14.1768 15.7626 14.4697 15.4697C14.7626 15.1768 15.2374 15.1768 15.5303 15.4697L18 17.9395L20.4697 15.4697ZM4.5 4.25C3.80964 4.25 3.25 4.80964 3.25 5.5V7.75H20.75V5.5C20.75 4.80964 20.1904 4.25 19.5 4.25H18.75V5C18.75 5.41421 18.4142 5.75 18 5.75C17.5858 5.75 17.25 5.41421 17.25 5V4.25H6.75V5C6.75 5.41421 6.41421 5.75 6 5.75C5.58579 5.75 5.25 5.41421 5.25 5V4.25H4.5Z" fill="#F04438"/>
</svg>
