<svg width="48" height="48" viewBox="0 0 48 48" fill="none" xmlns="http://www.w3.org/2000/svg">
<path d="M10.3242 2.58594C10.7741 2.68401 11.1505 2.9758 11.3584 3.3877L17.8281 16.4072L9.42969 24.3154C10.6697 26.3494 12.2939 28.5358 14.4199 30.7578L14.4883 30.834C16.3943 33.1179 19.8021 36.2916 23.8857 38.6895L31.6797 30.2451L44.6143 36.7471L45.1982 36.9814L45.4277 37.6494C45.5697 38.0734 45.52 38.536 45.29 38.918L45.25 38.9814C44.174 40.5814 41.2199 43.2439 40.0059 44.0059C38.232 45.1197 36.352 45.5478 34.4922 45.5479H34.4902C30.2322 45.5479 26.0717 43.3034 23.4697 41.8994L21.7695 40.9814L21.8076 40.9414C17.6598 38.4035 14.2038 35.1678 12.2158 32.7959C4.75982 24.9859 2.99408 17.4755 2.58008 14.6055C2.03009 10.7856 4.32993 6.62182 9.05371 2.87988L9.6123 2.4375L10.3242 2.58594ZM26.6123 40.1592C30.5963 42.1651 34.9003 43.6678 38.4082 41.4639C39.0662 41.0499 40.5435 39.7612 41.6455 38.6152L32.3496 33.9414L26.6123 40.1592ZM32.0605 7.12207L29.6211 9.5625H31.999C37.2369 9.5626 41.499 13.8246 41.499 19.0625V22.0576H38.499V19.0576C38.4988 15.4739 35.5828 12.5577 31.999 12.5576H29.6211L32.0605 14.998L29.9385 17.1201L23.8789 11.0596L29.9385 5L32.0605 7.12207ZM9.51562 6.42773C6.64582 9.08565 5.21386 11.8518 5.54785 14.1777C5.75188 15.5958 6.32851 18.2779 7.94043 21.5957L14.1484 15.749L9.51562 6.42773Z" fill="#161616"/>
</svg>
