<svg width="20" height="20" viewBox="0 0 20 20" fill="none" xmlns="http://www.w3.org/2000/svg">
<path d="M2.90677 2.04199C3.61064 1.33828 4.79758 1.53161 5.24271 2.42188L6.95657 5.85059C7.23706 6.41183 7.12762 7.08941 6.68411 7.5332L3.81107 10.4062C5.09655 12.878 7.12251 14.903 9.59427 16.1885L12.4663 13.3164C12.9102 12.8726 13.5885 12.7623 14.1499 13.043L17.5786 14.7578C18.4687 15.203 18.6612 16.389 17.9576 17.0928L16.7632 18.2871C16.3376 18.7127 15.7459 18.9718 15.1128 18.9414C7.51655 18.5769 1.42361 12.483 1.05911 4.88672C1.02887 4.25376 1.28691 3.66185 1.71243 3.23633L2.90677 2.04199ZM13.5913 14.1611C13.5111 14.121 13.4135 14.1368 13.3501 14.2002L10.8062 16.7451C12.1666 17.2893 13.636 17.6186 15.1724 17.6924C15.4223 17.7044 15.6799 17.6028 15.8794 17.4033L17.0738 16.209C17.1742 16.1084 17.1462 15.9386 17.0191 15.875L13.5913 14.1611ZM4.12454 2.98047C4.06095 2.85328 3.89111 2.82621 3.79056 2.92676L2.59622 4.12109C2.39702 4.32051 2.29521 4.57743 2.30716 4.82715C2.3809 6.36383 2.71105 7.83369 3.2554 9.19434L5.79935 6.64941C5.86276 6.58601 5.87851 6.48939 5.83841 6.40918L4.12454 2.98047Z" fill="white"/>
</svg>
