<svg width="18" height="18" viewBox="0 0 18 18" fill="none" xmlns="http://www.w3.org/2000/svg">
<path d="M2.61621 1.83838C3.24968 1.20491 4.31811 1.37792 4.71875 2.1792L6.26172 5.26514C6.51419 5.77032 6.41489 6.38037 6.01562 6.77979L3.43066 9.36572C4.5876 11.5901 6.41031 13.413 8.63477 14.5698L11.2197 11.9849C11.6192 11.5854 12.2301 11.4861 12.7354 11.7388L15.8213 13.2817C16.6221 13.6825 16.7952 14.7499 16.1621 15.3833L15.0869 16.4585C14.7039 16.8415 14.1713 17.0747 13.6016 17.0474C6.765 16.7192 1.28117 11.2345 0.953125 4.39795C0.925912 3.82829 1.15902 3.29557 1.54199 2.9126L2.61621 1.83838ZM12.2324 12.7446C12.1603 12.7086 12.0727 12.7229 12.0156 12.7798L9.72559 15.0698C10.95 15.5597 12.2724 15.8569 13.6553 15.9233C13.8802 15.9341 14.1124 15.8421 14.292 15.6626L15.3662 14.5884C15.4567 14.4979 15.4319 14.3448 15.3174 14.2876L12.2324 12.7446ZM3.71191 2.68213C3.6546 2.56802 3.50255 2.54314 3.41211 2.6333L2.33691 3.7085C2.15749 3.88798 2.06641 4.11941 2.07715 4.34424C2.14351 5.72725 2.43977 7.05032 2.92969 8.2749L5.21973 5.98486C5.27679 5.9278 5.29098 5.84025 5.25488 5.76807L3.71191 2.68213Z" fill="#8B8B8B"/>
</svg>
