<svg width="24" height="24" viewBox="0 0 24 24" fill="none" xmlns="http://www.w3.org/2000/svg">
<path d="M3.48828 2.4502C4.33291 1.6056 5.75683 1.83691 6.29102 2.90527L8.34863 7.01953C8.68541 7.69324 8.5531 8.50744 8.02051 9.04004L4.57324 12.4863C6.11579 15.4524 8.54659 17.8832 11.5127 19.4258L14.96 15.9785C15.4925 15.4462 16.3059 15.3147 16.9795 15.6514L21.0938 17.708C22.1621 18.2422 22.3934 19.6661 21.5488 20.5107L20.1162 21.9443C19.6055 22.455 18.8954 22.7649 18.1357 22.7285C9.0203 22.2911 1.70803 14.9797 1.27051 5.86426C1.23405 5.10452 1.54492 4.39453 2.05566 3.88379L3.48828 2.4502ZM16.3086 16.9932C16.2124 16.9452 16.0965 16.964 16.0205 17.04L12.9668 20.0928C14.5995 20.746 16.3631 21.142 18.207 21.2305C18.5069 21.2449 18.8163 21.1232 19.0557 20.8838L20.4883 19.4502C20.6088 19.3296 20.5762 19.1262 20.4238 19.0498L16.3086 16.9932ZM4.94922 3.57617C4.87291 3.42356 4.66949 3.39011 4.54883 3.51074L3.11621 4.94434C2.87685 5.1837 2.75421 5.49213 2.76855 5.79199C2.85703 7.63594 3.25307 9.3995 3.90625 11.0322L6.95996 7.97852C7.03577 7.90246 7.05481 7.78652 7.00684 7.69043L4.94922 3.57617Z" fill="#946DF1"/>
</svg>
