<svg width="32" height="32" viewBox="0 0 32 32" fill="none" xmlns="http://www.w3.org/2000/svg">
<path fill-rule="evenodd" clip-rule="evenodd" d="M15.9971 1.66797C23.9132 1.66797 30.3301 8.0849 30.3301 16.001C30.3301 23.9171 23.9132 30.334 15.9971 30.334C8.08099 30.334 1.66406 23.9171 1.66406 16.001C1.66406 8.0849 8.08099 1.66797 15.9971 1.66797ZM15.9971 3.66797C9.18556 3.66797 3.66406 9.18947 3.66406 16.001C3.66406 22.8125 9.18556 28.334 15.9971 28.334C22.8086 28.334 28.3301 22.8125 28.3301 16.001C28.3301 9.18947 22.8086 3.66797 15.9971 3.66797ZM19.957 10.627C20.3476 10.2368 20.9807 10.2366 21.3711 10.627C21.7615 11.0174 21.7613 11.6505 21.3711 12.041L17.4111 16.002L21.3701 19.9609C21.7603 20.3515 21.7605 20.9846 21.3701 21.375C20.9797 21.7654 20.3466 21.7652 19.9561 21.375L15.9971 17.416L12.0381 21.375C11.6476 21.7652 11.0144 21.7654 10.624 21.375C10.2336 20.9846 10.2338 20.3515 10.624 19.9609L14.583 16.002L10.623 12.041C10.2328 11.6505 10.2326 11.0174 10.623 10.627C11.0135 10.2366 11.6466 10.2368 12.0371 10.627L15.9971 14.5869L19.957 10.627Z" fill="white"/>
</svg>
