<svg width="20" height="20" viewBox="0 0 20 20" fill="none" xmlns="http://www.w3.org/2000/svg">
<path d="M10.001 1.04199C14.9485 1.04199 18.959 5.05245 18.959 10C18.959 14.9476 14.9485 18.958 10.001 18.958C5.05343 18.958 1.04297 14.9476 1.04297 10C1.04297 5.05245 5.05343 1.04199 10.001 1.04199ZM13.0898 6.91113C12.7644 6.58572 12.2375 6.58571 11.9121 6.91113L10.001 8.82129L8.08984 6.91113C7.76442 6.58571 7.23755 6.58572 6.91211 6.91113C6.58669 7.23655 6.5867 7.76342 6.91211 8.08887L8.82227 10L6.91211 11.9111C6.58703 12.2365 6.58703 12.7635 6.91211 13.0889C7.23756 13.4143 7.7654 13.4143 8.09082 13.0889L10.001 11.1787L11.9111 13.0889C12.2366 13.4143 12.7644 13.4143 13.0898 13.0889C13.4149 12.7635 13.4149 12.2365 13.0898 11.9111L11.1797 10L13.0898 8.08887C13.4153 7.76342 13.4153 7.23655 13.0898 6.91113Z" fill="#FF3B30"/>
</svg>
