<svg width="24" height="24" viewBox="0 0 24 24" fill="none" xmlns="http://www.w3.org/2000/svg">
<path d="M8.64187 0C6.51562 0 4.80187 1.71375 4.80187 3.84C4.80187 5.96625 6.51562 7.68 8.64187 7.68C10.065 7.68 11.2931 6.90562 11.9569 5.76H17.7619C17.8894 5.76375 18.015 5.715 18.1069 5.625L19.0669 4.665C19.1569 4.57312 19.2056 4.4475 19.2019 4.32V3.36C19.2056 3.2325 19.1569 3.10687 19.0669 3.015L18.1069 2.055C18.015 1.965 17.8894 1.91625 17.7619 1.92H16.8019C16.6744 1.91625 16.5487 1.965 16.4569 2.055L16.0819 2.43L15.7069 2.055C15.615 1.965 15.4894 1.91625 15.3619 1.92H14.4019C14.3062 1.91813 14.2125 1.94437 14.1319 1.995L13.6819 2.295L13.2319 1.995C13.1512 1.94437 13.0575 1.91813 12.9619 1.92H11.9569C11.2931 0.774375 10.065 0 8.64187 0ZM8.64187 0.96C10.26 0.96 11.5219 2.22187 11.5219 3.84C11.5219 5.45813 10.26 6.72 8.64187 6.72C7.02375 6.72 5.76187 5.45813 5.76187 3.84C5.76187 2.22187 7.02375 0.96 8.64187 0.96ZM7.68187 2.88C7.15125 2.88 6.72187 3.30937 6.72187 3.84C6.72187 4.37063 7.15125 4.8 7.68187 4.8C8.2125 4.8 8.64187 4.37063 8.64187 3.84C8.64187 3.30937 8.2125 2.88 7.68187 2.88ZM12.3619 2.88H12.8119L13.4119 3.285C13.575 3.39563 13.7887 3.39563 13.9519 3.285L14.5519 2.88H15.1519L15.7369 3.465C15.8269 3.55875 15.9525 3.61125 16.0819 3.61125C16.2112 3.61125 16.3369 3.55875 16.4269 3.465L17.0119 2.88H17.5519L18.2419 3.57V4.11L17.5519 4.8H12.3619C12.4406 4.4925 12.4819 4.17188 12.4819 3.84C12.4819 3.50813 12.4406 3.1875 12.3619 2.88ZM7.53187 8.64C6.57188 8.64 5.69437 9.22875 5.32687 10.125C5.325 10.1325 5.31375 10.1325 5.31187 10.14L3.90187 13.44H3.36187C2.5725 13.44 1.92188 14.0906 1.92188 14.88C1.92188 15.6694 2.5725 16.32 3.36187 16.32V22.56C3.36187 23.3494 4.0125 24 4.80187 24H6.24187C7.03125 24 7.68187 23.3494 7.68187 22.56V22.08H16.3219V22.56C16.3219 23.3494 16.9725 24 17.7619 24H19.2019C19.9912 24 20.6419 23.3494 20.6419 22.56V16.32C21.4312 16.32 22.0819 15.6694 22.0819 14.88C22.0819 14.0906 21.4312 13.44 20.6419 13.44H20.1019L18.6919 10.14C18.69 10.1325 18.6787 10.1325 18.6769 10.125C18.3094 9.22875 17.4319 8.64 16.4719 8.64H7.53187ZM7.53187 9.6H16.4719C17.04 9.6 17.5781 9.9675 17.7919 10.5L17.8069 10.515L19.1569 13.68L18.6919 13.995V14.01C18.2944 14.2875 17.8687 14.4 17.3719 14.4H6.63188C6.135 14.4 5.70937 14.2875 5.31187 14.01V13.995L4.84687 13.68L6.19688 10.515L6.21187 10.5C6.42563 9.9675 6.96375 9.6 7.53187 9.6ZM3.36187 14.4H4.17188L4.77187 14.805V14.79H4.78688C5.3475 15.1781 5.98125 15.36 6.63188 15.36H17.3719C18.0225 15.36 18.6562 15.1781 19.2169 14.79C19.2206 14.7881 19.2281 14.7919 19.2319 14.79V14.805L19.8319 14.4H20.6419C20.9081 14.4 21.1219 14.6137 21.1219 14.88C21.1219 15.1462 20.9081 15.36 20.6419 15.36H19.6819V21.12H4.32187V15.36H3.36187C3.09563 15.36 2.88187 15.1462 2.88187 14.88C2.88187 14.6137 3.09563 14.4 3.36187 14.4ZM6.96187 16.8C6.03937 16.8 5.28187 17.5575 5.28187 18.48C5.28187 19.4025 6.03937 20.16 6.96187 20.16C7.88438 20.16 8.64187 19.4025 8.64187 18.48C8.64187 17.5575 7.88438 16.8 6.96187 16.8ZM17.0419 16.8C16.1194 16.8 15.3619 17.5575 15.3619 18.48C15.3619 19.4025 16.1194 20.16 17.0419 20.16C17.9644 20.16 18.7219 19.4025 18.7219 18.48C18.7219 17.5575 17.9644 16.8 17.0419 16.8ZM6.96187 17.76C7.38188 17.76 7.68187 18.06 7.68187 18.48C7.68187 18.9 7.38188 19.2 6.96187 19.2C6.54187 19.2 6.24187 18.9 6.24187 18.48C6.24187 18.06 6.54187 17.76 6.96187 17.76ZM17.0419 17.76C17.4619 17.76 17.7619 18.06 17.7619 18.48C17.7619 18.9 17.4619 19.2 17.0419 19.2C16.6219 19.2 16.3219 18.9 16.3219 18.48C16.3219 18.06 16.6219 17.76 17.0419 17.76ZM4.32187 22.08H6.72187V22.56C6.72187 22.8263 6.50813 23.04 6.24187 23.04H4.80187C4.53563 23.04 4.32187 22.8263 4.32187 22.56V22.08ZM17.2819 22.08H19.6819V22.56C19.6819 22.8263 19.4681 23.04 19.2019 23.04H17.7619C17.4956 23.04 17.2819 22.8263 17.2819 22.56V22.08Z" fill="#4B5565"/>
</svg>
