<svg width="24" height="24" viewBox="0 0 24 24" fill="none" xmlns="http://www.w3.org/2000/svg">
<path d="M7 1.25C7.28408 1.25 7.54385 1.41095 7.6709 1.66504L11.25 8.82324V5C11.25 4.58579 11.5858 4.25 12 4.25H14.8232C15.8219 4.25002 16.7425 4.79113 17.2275 5.66406L18.9814 8.82227C19.0535 8.95186 19.1482 9.06757 19.2607 9.16406L21.4404 11.0322C22.2716 11.7447 22.75 12.7852 22.75 13.8799V18C22.75 18.9665 21.9665 19.75 21 19.75H19.6436C19.3168 20.9039 18.2585 21.75 17 21.75C15.7415 21.75 14.6832 20.9039 14.3564 19.75H9.64355C9.31684 20.9039 8.2585 21.75 7 21.75C5.7415 21.75 4.68316 20.9039 4.35645 19.75H3.80273C3.45726 19.75 3.11949 19.6477 2.83203 19.4561L2.0293 18.9209C1.54246 18.5963 1.25001 18.05 1.25 17.4648V12.5C1.25 12.0858 1.58579 11.75 2 11.75H7.1748L6.31836 2.75H4.25V5.37793C5.12389 5.68681 5.75 6.52034 5.75 7.5C5.75 8.74264 4.74264 9.75 3.5 9.75C2.25736 9.75 1.25 8.74264 1.25 7.5C1.25 7.08579 1.58579 6.75 2 6.75C2.38817 6.75 2.70747 7.04488 2.74609 7.42285L2.75391 7.57715C2.79253 7.95512 3.11183 8.25 3.5 8.25C3.91421 8.25 4.25 7.91421 4.25 7.5C4.25 7.11183 3.95512 6.79253 3.57715 6.75391L3.42285 6.74609C3.04488 6.70747 2.75 6.38817 2.75 6V2C2.75 1.58579 3.08579 1.25 3.5 1.25H7ZM7 17.75C6.30964 17.75 5.75 18.3096 5.75 19C5.75 19.6904 6.30964 20.25 7 20.25C7.69036 20.25 8.25 19.6904 8.25 19C8.25 18.3096 7.69036 17.75 7 17.75ZM17 17.75C16.3096 17.75 15.75 18.3096 15.75 19C15.75 19.6904 16.3096 20.25 17 20.25C17.6904 20.25 18.25 19.6904 18.25 19C18.25 18.3096 17.6904 17.75 17 17.75ZM2.75 17.4648C2.75001 17.5484 2.79179 17.6265 2.86133 17.6729L3.66406 18.208C3.70512 18.2354 3.75339 18.25 3.80273 18.25H4.35645C4.68316 17.0961 5.7415 16.25 7 16.25C8.2585 16.25 9.31684 17.0961 9.64355 18.25H14.3564C14.6832 17.0961 15.7415 16.25 17 16.25C18.2585 16.25 19.3168 17.0961 19.6436 18.25H21C21.1381 18.25 21.25 18.1381 21.25 18V16.25H20.5C20.0858 16.25 19.75 15.9142 19.75 15.5C19.75 15.0858 20.0858 14.75 20.5 14.75H21.25V13.8799C21.25 13.6645 21.2192 13.4526 21.1602 13.25H2.75V17.4648ZM8.68262 11.75H11.0361L8.12793 5.93262L8.68262 11.75ZM12.75 11.75H19.9727L18.2842 10.3027C18.0365 10.0904 17.8284 9.83592 17.6699 9.55078L15.916 6.39258C15.6955 5.99589 15.2771 5.75002 14.8232 5.75H12.75V11.75Z" fill="#4D0CE7"/>
</svg>
