<svg width="21" height="24" viewBox="0 0 21 24" fill="none" xmlns="http://www.w3.org/2000/svg">
<path d="M6.72 0C4.59375 0 2.88 1.71375 2.88 3.84C2.88 5.96625 4.59375 7.68 6.72 7.68C8.14312 7.68 9.37125 6.90562 10.035 5.76H15.84C15.9675 5.76375 16.0931 5.715 16.185 5.625L17.145 4.665C17.235 4.57312 17.2838 4.4475 17.28 4.32V3.36C17.2838 3.2325 17.235 3.10687 17.145 3.015L16.185 2.055C16.0931 1.965 15.9675 1.91625 15.84 1.92H14.88C14.7525 1.91625 14.6269 1.965 14.535 2.055L14.16 2.43L13.785 2.055C13.6931 1.965 13.5675 1.91625 13.44 1.92H12.48C12.3844 1.91813 12.2906 1.94437 12.21 1.995L11.76 2.295L11.31 1.995C11.2294 1.94437 11.1356 1.91813 11.04 1.92H10.035C9.37125 0.774375 8.14312 0 6.72 0ZM6.72 0.96C8.33813 0.96 9.6 2.22187 9.6 3.84C9.6 5.45813 8.33813 6.72 6.72 6.72C5.10187 6.72 3.84 5.45813 3.84 3.84C3.84 2.22187 5.10187 0.96 6.72 0.96ZM5.76 2.88C5.22937 2.88 4.8 3.30937 4.8 3.84C4.8 4.37063 5.22937 4.8 5.76 4.8C6.29063 4.8 6.72 4.37063 6.72 3.84C6.72 3.30937 6.29063 2.88 5.76 2.88ZM10.44 2.88H10.89L11.49 3.285C11.6531 3.39563 11.8669 3.39563 12.03 3.285L12.63 2.88H13.23L13.815 3.465C13.905 3.55875 14.0306 3.61125 14.16 3.61125C14.2894 3.61125 14.415 3.55875 14.505 3.465L15.09 2.88H15.63L16.32 3.57V4.11L15.63 4.8H10.44C10.5188 4.4925 10.56 4.17188 10.56 3.84C10.56 3.50813 10.5188 3.1875 10.44 2.88ZM5.61 8.64C4.65 8.64 3.7725 9.22875 3.405 10.125C3.40313 10.1325 3.39187 10.1325 3.39 10.14L1.98 13.44H1.44C0.650625 13.44 0 14.0906 0 14.88C0 15.6694 0.650625 16.32 1.44 16.32V22.56C1.44 23.3494 2.09063 24 2.88 24H4.32C5.10938 24 5.76 23.3494 5.76 22.56V22.08H14.4V22.56C14.4 23.3494 15.0506 24 15.84 24H17.28C18.0694 24 18.72 23.3494 18.72 22.56V16.32C19.5094 16.32 20.16 15.6694 20.16 14.88C20.16 14.0906 19.5094 13.44 18.72 13.44H18.18L16.77 10.14C16.7681 10.1325 16.7569 10.1325 16.755 10.125C16.3875 9.22875 15.51 8.64 14.55 8.64H5.61ZM5.61 9.6H14.55C15.1181 9.6 15.6562 9.9675 15.87 10.5L15.885 10.515L17.235 13.68L16.77 13.995V14.01C16.3725 14.2875 15.9469 14.4 15.45 14.4H4.71C4.21313 14.4 3.7875 14.2875 3.39 14.01V13.995L2.925 13.68L4.275 10.515L4.29 10.5C4.50375 9.9675 5.04187 9.6 5.61 9.6ZM1.44 14.4H2.25L2.85 14.805V14.79H2.865C3.42563 15.1781 4.05937 15.36 4.71 15.36H15.45C16.1006 15.36 16.7344 15.1781 17.295 14.79C17.2987 14.7881 17.3062 14.7919 17.31 14.79V14.805L17.91 14.4H18.72C18.9862 14.4 19.2 14.6137 19.2 14.88C19.2 15.1462 18.9862 15.36 18.72 15.36H17.76V21.12H2.4V15.36H1.44C1.17375 15.36 0.96 15.1462 0.96 14.88C0.96 14.6137 1.17375 14.4 1.44 14.4ZM5.04 16.8C4.1175 16.8 3.36 17.5575 3.36 18.48C3.36 19.4025 4.1175 20.16 5.04 20.16C5.9625 20.16 6.72 19.4025 6.72 18.48C6.72 17.5575 5.9625 16.8 5.04 16.8ZM15.12 16.8C14.1975 16.8 13.44 17.5575 13.44 18.48C13.44 19.4025 14.1975 20.16 15.12 20.16C16.0425 20.16 16.8 19.4025 16.8 18.48C16.8 17.5575 16.0425 16.8 15.12 16.8ZM5.04 17.76C5.46 17.76 5.76 18.06 5.76 18.48C5.76 18.9 5.46 19.2 5.04 19.2C4.62 19.2 4.32 18.9 4.32 18.48C4.32 18.06 4.62 17.76 5.04 17.76ZM15.12 17.76C15.54 17.76 15.84 18.06 15.84 18.48C15.84 18.9 15.54 19.2 15.12 19.2C14.7 19.2 14.4 18.9 14.4 18.48C14.4 18.06 14.7 17.76 15.12 17.76ZM2.4 22.08H4.8V22.56C4.8 22.8263 4.58625 23.04 4.32 23.04H2.88C2.61375 23.04 2.4 22.8263 2.4 22.56V22.08ZM15.36 22.08H17.76V22.56C17.76 22.8263 17.5462 23.04 17.28 23.04H15.84C15.5737 23.04 15.36 22.8263 15.36 22.56V22.08Z" fill="white"/>
</svg>
