<svg width="22" height="16" viewBox="0 0 22 16" fill="none" xmlns="http://www.w3.org/2000/svg">
<path d="M12.209 0C13.1062 9.61514e-05 13.9474 0.437784 14.4619 1.17285L17.2559 5.16406L19.9795 6.52637C20.9111 6.9922 21.5 7.94471 21.5 8.98633V11.75C21.5 12.7165 20.7165 13.5 19.75 13.5H18.3936C18.0668 14.6539 17.0085 15.5 15.75 15.5C14.4915 15.5 13.4332 14.6539 13.1064 13.5H8.39355C8.06684 14.6539 7.0085 15.5 5.75 15.5C4.4915 15.5 3.43316 14.6539 3.10645 13.5H2.98633C2.71465 13.5 2.44612 13.4369 2.20312 13.3154L0.967773 12.6973C0.374901 12.4008 0 11.7947 0 11.1318V5.25C0 5.14506 0.0218335 5.04121 0.0644531 4.94531L1.5957 1.5H0.75C0.335786 1.5 0 1.16421 0 0.75C0 0.335786 0.335786 0 0.75 0H12.209ZM5.75 11.5C5.05964 11.5 4.5 12.0596 4.5 12.75C4.5 13.4404 5.05964 14 5.75 14C6.44036 14 7 13.4404 7 12.75C7 12.0596 6.44036 11.5 5.75 11.5ZM15.75 11.5C15.0596 11.5 14.5 12.0596 14.5 12.75C14.5 13.4404 15.0596 14 15.75 14C16.4404 14 17 13.4404 17 12.75C17 12.0596 16.4404 11.5 15.75 11.5ZM1.5 11.1318C1.5 11.2265 1.55398 11.3131 1.63867 11.3555L2.87402 11.9736C2.90874 11.991 2.94752 12 2.98633 12H3.10645C3.43316 10.8461 4.4915 10 5.75 10C7.0085 10 8.06684 10.8461 8.39355 12H13.1064C13.4332 10.8461 14.4915 10 15.75 10C17.0085 10 18.0668 10.8461 18.3936 12H19.75C19.8881 12 20 11.8881 20 11.75V8.98633C20 8.51286 19.7321 8.0799 19.3086 7.86816L16.5732 6.5H1.5V11.1318ZM1.68164 5H7V1.5H3.2373L1.68164 5ZM8.5 5H15.3096L13.2324 2.0332C12.9986 1.6992 12.6167 1.5001 12.209 1.5H8.5V5Z" fill="#C69815"/>
</svg>
