<svg width="20" height="22" viewBox="0 0 20 22" fill="none" xmlns="http://www.w3.org/2000/svg">
<path d="M3.23633 12C3.69972 12 4.15549 12.1175 4.56152 12.3408L6.44238 13.375H7.25C8.48839 13.375 9.51431 14.0086 10.0645 14.8545L13.7236 13.6348C15.1049 13.1745 16.6058 13.8708 17.1465 15.2227C17.4605 16.0081 17.1199 16.9029 16.3633 17.2812L8.77832 21.0742C8.16519 21.3808 7.45942 21.4473 6.7998 21.2607L0.545898 19.4912C0.147471 19.3784 -0.0844104 18.9639 0.0283203 18.5654C0.141158 18.1671 0.555728 17.9354 0.954102 18.0479L7.20801 19.8174C7.50784 19.9022 7.82872 19.8718 8.10742 19.7324L15.6924 15.9404C15.7514 15.9109 15.7784 15.8405 15.7539 15.7793C15.5081 15.1648 14.8251 14.8483 14.1973 15.0576L10.499 16.291C10.4823 16.5968 10.2804 16.8632 9.9873 16.9609L7.30371 17.8555C6.94459 17.9752 6.5564 17.9751 6.19727 17.8555L3.5127 16.9609C3.12 16.8298 2.90812 16.4055 3.03906 16.0127C3.17007 15.6198 3.59441 15.4072 3.9873 15.5381L6.6709 16.4326C6.7222 16.4497 6.7778 16.4497 6.8291 16.4326L8.85449 15.7578C8.61027 15.3176 8.06336 14.875 7.25 14.875H6.25C6.12368 14.875 5.99936 14.8431 5.88867 14.7822L3.83887 13.6543C3.65435 13.5528 3.4469 13.5 3.23633 13.5H0.75C0.335875 13.4999 0 13.1641 0 12.75C0 12.3359 0.335875 12.0001 0.75 12H3.23633ZM11.75 3C12.1642 3 12.5 3.33579 12.5 3.75V4.08496C13.2886 4.26562 13.9846 4.73068 14.3145 5.43066C14.4908 5.8053 14.3307 6.25217 13.9561 6.42871C13.5814 6.60529 13.1346 6.44403 12.958 6.06934C12.8406 5.82062 12.4182 5.5 11.75 5.5C11.3445 5.5 11.0062 5.62413 10.7861 5.78906C10.5663 5.95396 10.5 6.12478 10.5 6.25C10.5 6.37522 10.5663 6.54604 10.7861 6.71094C11.0062 6.87587 11.3445 7 11.75 7C12.4488 7 13.1105 7.21114 13.6143 7.58887C14.1183 7.96687 14.5 8.54679 14.5 9.25C14.5 9.95321 14.1183 10.5331 13.6143 10.9111C13.2958 11.1499 12.9141 11.3215 12.5 11.416V11.75C12.5 12.1642 12.1642 12.5 11.75 12.5C11.3358 12.5 11 12.1642 11 11.75V11.415C10.2114 11.2344 9.51542 10.7693 9.18555 10.0693C9.00916 9.6947 9.16934 9.24783 9.54395 9.07129C9.91864 8.89471 10.3654 9.05597 10.542 9.43066C10.6594 9.67938 11.0818 10 11.75 10C12.1555 10 12.4938 9.87587 12.7139 9.71094C12.9337 9.54604 13 9.37522 13 9.25C13 9.12478 12.9337 8.95396 12.7139 8.78906C12.4938 8.62413 12.1555 8.5 11.75 8.5C11.0512 8.5 10.3895 8.28887 9.88574 7.91113C9.38174 7.53313 9 6.95321 9 6.25C9 5.54679 9.38174 4.96687 9.88574 4.58887C10.2042 4.3501 10.5859 4.17847 11 4.08398V3.75C11 3.33579 11.3358 3 11.75 3ZM11.75 0C16.0302 3.57628e-07 19.5 3.46979 19.5 7.75C19.5 9.39551 18.9861 10.9231 18.1104 12.1787C17.8734 12.5184 17.4061 12.6021 17.0664 12.3652C16.7268 12.1284 16.6432 11.661 16.8799 11.3213C17.5858 10.3092 18 9.0789 18 7.75C18 4.29822 15.2018 1.5 11.75 1.5C8.29822 1.5 5.5 4.29822 5.5 7.75C5.5 8.70987 5.71643 9.61696 6.10156 10.4277C6.2793 10.8019 6.11926 11.25 5.74512 11.4277C5.37116 11.6051 4.92387 11.446 4.74609 11.0723C4.26739 10.0646 4 8.93726 4 7.75C4 3.46979 7.4698 1.57777e-07 11.75 0Z" fill="#713DEC"/>
</svg>
