<svg width="16" height="16" viewBox="0 0 16 16" fill="none" xmlns="http://www.w3.org/2000/svg">
<path d="M13.5732 8.95215C14.1571 8.11507 14.5 7.09609 14.5 5.99902C14.4998 3.14575 12.1863 0.833008 9.33301 0.833008C6.47983 0.833184 4.16722 3.14586 4.16699 5.99902C4.16699 6.79048 4.34497 7.54211 4.66406 8.21387L5.56738 7.78516C5.3106 7.24461 5.16699 6.63898 5.16699 5.99902C5.16722 3.69814 7.03211 1.83318 9.33301 1.83301C11.6341 1.83301 13.4998 3.69803 13.5 5.99902C13.5 6.8848 13.2244 7.70525 12.7539 8.37988L13.5732 8.95215ZM9.83301 8.44336C10.1091 8.38036 10.3639 8.26569 10.5762 8.10645C10.9121 7.85445 11.167 7.4678 11.167 6.99902C11.1668 6.53047 10.912 6.1445 10.5762 5.89258C10.2403 5.64069 9.79892 5.49902 9.33301 5.49902C9.06269 5.49896 8.8371 5.41664 8.69043 5.30664C8.54387 5.19672 8.5 5.0825 8.5 4.99902C8.50015 4.9156 8.54417 4.80211 8.69043 4.69238C8.8371 4.58238 9.06269 4.49909 9.33301 4.49902C9.77839 4.49902 10.0604 4.7131 10.1387 4.87891L11.043 4.45313C10.823 3.98645 10.3588 3.67609 9.83301 3.55566V2.99902L8.83301 2.99902V3.55566C8.55708 3.61868 8.30302 3.73345 8.09082 3.89258C7.75492 4.1445 7.50015 4.53041 7.5 4.99902C7.5 5.46783 7.75482 5.85445 8.09082 6.10645C8.42657 6.35821 8.86728 6.49896 9.33301 6.49902C9.60347 6.49902 9.82984 6.58234 9.97656 6.69238C10.1227 6.80206 10.1668 6.91564 10.167 6.99902C10.167 7.08246 10.123 7.19676 9.97656 7.30664C9.82984 7.41669 9.60347 7.49902 9.33301 7.49902C8.88801 7.49892 8.60675 7.28585 8.52832 7.12012L7.62402 7.5459C7.84394 8.01242 8.30739 8.3229 8.83301 8.44336V8.99902H9.83301V8.44336ZM6.5293 15.1475C6.64924 15.1814 6.77816 15.169 6.88965 15.1133L12.8896 12.1133C13.122 11.9969 13.2264 11.7218 13.1299 11.4805L12.9297 10.9814C12.5692 10.0802 11.5693 9.61604 10.6484 9.92285L8.20898 10.7354C7.84223 10.1716 7.15834 9.7501 6.33301 9.75H5.79492L4.24023 8.89453C4.16645 8.85398 4.08322 8.83301 3.99902 8.83301H1.99902L1.99902 9.83301H3.87109L5.4248 10.6875C5.49862 10.7281 5.58177 10.75 5.66602 10.75H6.33301C6.87506 10.7501 7.23955 11.0445 7.40234 11.3379L5.99902 11.8057L4.15723 11.1914L3.84082 12.1406L5.84082 12.8066C5.94341 12.8408 6.05463 12.8408 6.15723 12.8066L8.15723 12.1406C8.35271 12.0755 8.48792 11.8973 8.49902 11.6934L10.9639 10.8711C11.3825 10.7316 11.8381 10.9429 12.002 11.3525L12.0303 11.4248L6.61523 14.1318L2.13574 12.8652L1.86328 13.8271L6.5293 15.1475Z" fill="#C69815"/>
</svg>
