<svg width="80" height="40" viewBox="0 0 80 40" fill="none" xmlns="http://www.w3.org/2000/svg">
<rect x="0.5" y="0.5" width="79" height="39" rx="19.5" fill="#E3E8EF"/>
<rect x="0.5" y="0.5" width="79" height="39" rx="19.5" stroke="#697586"/>
<path d="M26.2637 25C25.8317 25 25.4477 24.96 25.1117 24.88C24.7837 24.8 24.4917 24.7 24.2357 24.58C23.9877 24.452 23.7597 24.32 23.5517 24.184L24.2117 23.368C24.6917 23.64 25.2837 23.776 25.9877 23.776H27.5237C27.4837 23.416 27.4357 23.108 27.3797 22.852C27.3317 22.596 27.2717 22.344 27.1997 22.096C27.1277 21.84 27.0317 21.548 26.9117 21.22L28.2917 20.296C28.3637 20.8 28.4237 21.312 28.4717 21.832C28.5277 22.344 28.5477 22.864 28.5317 23.392C28.5157 23.92 28.4357 24.456 28.2917 25H26.2637ZM21.3797 25V23.776H22.9757C23.0717 23.624 23.1517 23.42 23.2157 23.164C23.2877 22.9 23.3437 22.624 23.3837 22.336C23.4317 22.048 23.4637 21.78 23.4797 21.532L24.9317 21.028C24.8437 21.444 24.7517 21.828 24.6557 22.18C24.5677 22.532 24.4637 22.868 24.3437 23.188C24.2237 23.5 24.0877 23.804 23.9357 24.1C23.7837 24.396 23.6037 24.696 23.3957 25H21.3797ZM29.6957 25C29.3597 25 29.0517 24.976 28.7717 24.928C28.4997 24.872 28.2517 24.804 28.0277 24.724C27.8037 24.636 27.5997 24.544 27.4157 24.448L27.9077 23.5C28.0117 23.548 28.1197 23.588 28.2317 23.62C28.3517 23.652 28.4757 23.68 28.6037 23.704C28.7317 23.728 28.8637 23.748 28.9997 23.764C29.1357 23.772 29.2757 23.776 29.4197 23.776H29.8037V25H29.6957ZM17.7797 27.76C17.1717 27.76 16.6477 27.68 16.2077 27.52C15.7677 27.36 15.4037 27.14 15.1157 26.86C14.8357 26.588 14.6277 26.268 14.4917 25.9C14.3557 25.532 14.2877 25.14 14.2877 24.724C14.2877 24.492 14.3277 24.176 14.4077 23.776C14.4877 23.376 14.6237 22.928 14.8157 22.432L15.8717 22.78C15.7437 23.124 15.6477 23.448 15.5837 23.752C15.5277 24.048 15.4997 24.312 15.4997 24.544C15.4997 24.976 15.5957 25.34 15.7877 25.636C15.9797 25.932 16.2557 26.156 16.6157 26.308C16.9837 26.46 17.4237 26.536 17.9357 26.536C18.2477 26.536 18.5477 26.492 18.8357 26.404C19.1317 26.324 19.3917 26.204 19.6157 26.044C19.8397 25.892 20.0157 25.704 20.1437 25.48C20.2797 25.256 20.3477 25.004 20.3477 24.724C20.3477 24.516 20.3197 24.284 20.2637 24.028C20.2157 23.764 20.1317 23.468 20.0117 23.14C19.8997 22.812 19.7437 22.448 19.5437 22.048L20.5037 20.896C20.7917 21.432 21.0037 21.924 21.1397 22.372C21.2837 22.812 21.3757 23.204 21.4157 23.548C21.4637 23.892 21.4877 24.176 21.4877 24.4C21.4877 25.08 21.3357 25.672 21.0317 26.176C20.7277 26.68 20.2957 27.068 19.7357 27.34C19.1837 27.62 18.5317 27.76 17.7797 27.76ZM29.8066 25V23.776H31.3066V16.12H32.5546V25H29.8066ZM29.8066 23.776H29.9266V25H29.8066C29.5666 25 29.4466 24.788 29.4466 24.364C29.4466 23.972 29.5666 23.776 29.8066 23.776ZM36.5338 25C36.1178 25 35.7738 24.948 35.5018 24.844C35.2378 24.74 35.0298 24.6 34.8778 24.424C34.7258 24.24 34.6178 24.028 34.5538 23.788C34.4978 23.548 34.4698 23.296 34.4698 23.032V16.12H35.7178V22.72C35.7178 22.904 35.7298 23.064 35.7538 23.2C35.7858 23.336 35.8378 23.448 35.9098 23.536C35.9818 23.616 36.0858 23.676 36.2218 23.716C36.3658 23.756 36.5498 23.776 36.7738 23.776H37.2298V25H36.5338ZM37.2246 25V23.776H37.5726C38.3246 23.776 38.9686 23.748 39.5046 23.692C40.0406 23.636 40.5006 23.56 40.8846 23.464C41.2766 23.368 41.6206 23.256 41.9166 23.128C42.2126 22.992 42.4966 22.852 42.7686 22.708C42.8486 22.66 42.9286 22.616 43.0086 22.576C43.0886 22.536 43.1686 22.496 43.2486 22.456C43.3286 22.416 43.4086 22.376 43.4886 22.336C43.1846 22.224 42.8846 22.096 42.5886 21.952C42.2926 21.8 42.0006 21.652 41.7126 21.508C41.4246 21.356 41.1406 21.232 40.8606 21.136C40.5886 21.04 40.3206 20.992 40.0566 20.992C39.8166 20.992 39.5646 21.056 39.3006 21.184C39.0366 21.304 38.7886 21.576 38.5566 22L37.6926 21.556C37.9086 21.116 38.1486 20.764 38.4126 20.5C38.6846 20.236 38.9726 20.044 39.2766 19.924C39.5886 19.804 39.9046 19.744 40.2246 19.744C40.6086 19.744 40.9766 19.816 41.3286 19.96C41.6886 20.096 42.0366 20.264 42.3726 20.464C42.7166 20.664 43.0526 20.868 43.3806 21.076C43.7086 21.276 44.0366 21.448 44.3646 21.592C44.6926 21.728 45.0206 21.796 45.3486 21.796V22.876C45.1246 22.876 44.8406 22.956 44.4966 23.116C44.1606 23.276 43.7726 23.472 43.3326 23.704C43.0606 23.848 42.7606 23.996 42.4326 24.148C42.1046 24.3 41.7206 24.44 41.2806 24.568C40.8406 24.696 40.3126 24.8 39.6966 24.88C39.0806 24.96 38.3486 25 37.5006 25H37.2246ZM37.2246 23.776H37.3446V25H37.2246C36.9846 25 36.8646 24.788 36.8646 24.364C36.8646 23.972 36.9846 23.776 37.2246 23.776ZM41.0646 27.916L40.0926 26.932L41.0166 25.948L41.9886 26.932L41.0646 27.916Z" fill="#4B5565"/>
<path d="M60.29 12.832C61.769 12.8321 62.9245 14.1094 62.7773 15.5811L62.3496 19.8574C62.7561 20.2295 62.9999 20.7606 63 21.332V21.999C63 22.2752 62.7761 22.499 62.5 22.499H62.333V26.666C62.3328 26.942 62.109 27.166 61.833 27.166C61.5571 27.1658 61.3332 26.9419 61.333 26.666V24.499H55.667V26.666C55.6668 26.9419 55.4429 27.1658 55.167 27.166C54.891 27.166 54.6672 26.942 54.667 26.666V22.499H54.5C54.2239 22.499 54 22.2752 54 21.999V21.332C54.0001 20.7606 54.2439 20.2295 54.6504 19.8574L54.2227 15.5811C54.0755 14.1094 55.2309 12.832 56.71 12.832L60.29 12.832ZM55.667 23.499H61.333V22.499H55.667V23.499ZM61.3848 20.4092C59.5386 19.6399 57.4614 19.6399 55.6152 20.4092C55.2427 20.5644 55.0001 20.9285 55 21.332V21.499H62V21.332C61.9999 20.9285 61.7573 20.5644 61.3848 20.4092ZM56.71 13.832C55.8226 13.832 55.1295 14.5985 55.2178 15.4814L55.6035 19.3408C57.4746 18.6626 59.5254 18.6626 61.3965 19.3408L61.7822 15.4814C61.8704 14.5985 61.1774 13.8321 60.29 13.832L56.71 13.832Z" fill="#4B5565"/>
</svg>
