<svg width="21" height="21" viewBox="0 0 21 21" fill="none" xmlns="http://www.w3.org/2000/svg">
<path d="M10.25 0C13.8564 0 17.0269 1.86225 18.8535 4.67578L19.0078 3.63867C19.0692 3.22917 19.4518 2.94654 19.8613 3.00781C20.2708 3.06923 20.5535 3.45177 20.4922 3.86133L20.0166 7.03613C19.9858 7.24188 19.8707 7.42523 19.6992 7.54297C19.5276 7.66074 19.3145 7.70256 19.1113 7.65723L16.0869 6.98242C15.6828 6.89224 15.4276 6.49107 15.5176 6.08691C15.6078 5.68275 16.0089 5.42758 16.4131 5.51758L17.8018 5.82812C16.2817 3.23776 13.4683 1.5 10.25 1.5C5.41755 1.5 1.5 5.41751 1.5 10.25C1.5 15.0824 5.41755 19 10.25 19C15.0825 19 19 15.0824 19 10.25C19 9.83579 19.3358 9.5 19.75 9.5C20.1642 9.5 20.5 9.83579 20.5 10.25C20.5 15.9109 15.9109 20.5 10.25 20.5C4.58913 20.5 0 15.9109 0 10.25C0 4.58908 4.58913 0 10.25 0ZM10.25 5C11.6307 5 12.75 6.11929 12.75 7.5V8.5C13.7165 8.5 14.5 9.2835 14.5 10.25V13.75C14.5 14.7165 13.7165 15.5 12.75 15.5H7.75C6.7835 15.5 6 14.7165 6 13.75V10.25C6 9.2835 6.7835 8.5 7.75 8.5V7.5C7.75 6.11929 8.86929 5 10.25 5ZM7.75 10C7.61193 10 7.5 10.1119 7.5 10.25V13.75C7.5 13.8881 7.61193 14 7.75 14H12.75C12.8881 14 13 13.8881 13 13.75V10.25C13 10.1119 12.8881 10 12.75 10H7.75ZM10.25 6.5C9.69772 6.5 9.25 6.94772 9.25 7.5V8.5H11.25V7.5C11.25 6.94772 10.8023 6.5 10.25 6.5Z" fill="#4D0CE7"/>
</svg>
