<svg width="18" height="18" viewBox="0 0 18 18" fill="none" xmlns="http://www.w3.org/2000/svg">
<path d="M9 0.9375C13.4528 0.9375 17.0625 4.5472 17.0625 9C17.0625 13.4528 13.4528 17.0625 9 17.0625C7.71471 17.0625 6.60244 16.7331 5.57324 16.2021C5.30579 16.0642 5.0199 16.0312 4.77246 16.1055L2.99609 16.6387C1.99491 16.939 1.06097 16.0051 1.36133 15.0039L1.89453 13.2275C1.96876 12.9801 1.93576 12.6942 1.79785 12.4268C1.26695 11.3976 0.9375 10.2853 0.9375 9C0.9375 4.5472 4.5472 0.9375 9 0.9375ZM9 2.0625C5.16852 2.0625 2.0625 5.16852 2.0625 9C2.0625 10.0783 2.33582 11.0143 2.79785 11.9102C3.04929 12.3976 3.14152 12.9846 2.97168 13.5508L2.43945 15.3271C2.39655 15.4702 2.52982 15.6035 2.67285 15.5605L4.44922 15.0283C5.01537 14.8585 5.6024 14.9507 6.08984 15.2021C6.98566 15.6642 7.92166 15.9375 9 15.9375C12.8315 15.9375 15.9375 12.8315 15.9375 9C15.9375 5.16852 12.8315 2.0625 9 2.0625ZM6.00684 8.25C6.421 8.25006 6.75684 8.58582 6.75684 9C6.75684 9.41418 6.421 9.74994 6.00684 9.75H6C5.58579 9.75 5.25 9.41421 5.25 9C5.25 8.58579 5.58579 8.25 6 8.25H6.00684ZM9.00293 8.25C9.41714 8.25 9.75293 8.58579 9.75293 9C9.75293 9.41421 9.41714 9.75 9.00293 9.75H8.99707C8.58286 9.75 8.24707 9.41421 8.24707 9C8.24707 8.58579 8.58286 8.25 8.99707 8.25H9.00293ZM12 8.25C12.4142 8.25 12.75 8.58579 12.75 9C12.75 9.41421 12.4142 9.75 12 9.75H11.9932C11.579 9.74995 11.2432 9.41418 11.2432 9C11.2432 8.58581 11.579 8.25005 11.9932 8.25H12Z" fill="#8B8B8B"/>
</svg>
