<svg width="22" height="22" viewBox="0 0 22 22" fill="none" xmlns="http://www.w3.org/2000/svg">
<path d="M10.75 0C16.6871 0 21.5 4.81294 21.5 10.75C21.5 16.6871 16.6871 21.5 10.75 21.5C4.81294 21.5 0 16.6871 0 10.75C0 4.81294 4.81294 0 10.75 0ZM10.75 1.5C5.64137 1.5 1.5 5.64137 1.5 10.75C1.5 15.8586 5.64137 20 10.75 20C15.8586 20 20 15.8586 20 10.75C20 5.64137 15.8586 1.5 10.75 1.5ZM13.7197 6.71973C14.0126 6.42685 14.4874 6.42686 14.7803 6.71973C15.0732 7.01261 15.0731 7.48737 14.7803 7.78027L11.8105 10.75L14.7793 13.7197C15.0722 14.0126 15.0722 14.4874 14.7793 14.7803C14.4864 15.0731 14.0116 15.0732 13.7188 14.7803L10.75 11.8115L7.78125 14.7803C7.4884 15.0732 7.01362 15.0731 6.7207 14.7803C6.42779 14.4874 6.42783 14.0126 6.7207 13.7197L9.68945 10.75L6.71973 7.78027C6.42686 7.48737 6.42685 7.01261 6.71973 6.71973C7.01263 6.42686 7.48739 6.42685 7.78027 6.71973L10.75 9.68945L13.7197 6.71973Z" fill="#F04438"/>
</svg>
