<svg width="20" height="20" viewBox="0 0 20 20" fill="none" xmlns="http://www.w3.org/2000/svg">
<path d="M10 1.04199C11.6306 1.04199 13.1613 1.47772 14.4795 2.24023C14.7783 2.41307 14.8808 2.79594 14.708 3.09473C14.5352 3.39348 14.1523 3.4951 13.8535 3.32227C12.7204 2.66686 11.405 2.29199 10 2.29199C5.74281 2.29199 2.29199 5.74281 2.29199 10C2.29199 14.2572 5.74281 17.708 10 17.708C14.2572 17.708 17.708 14.2572 17.708 10C17.708 9.4713 17.6547 8.95576 17.5537 8.45801C17.4851 8.11982 17.7039 7.78949 18.042 7.7207C18.3803 7.65204 18.7106 7.87071 18.7793 8.20898C18.8969 8.78819 18.958 9.38724 18.958 10C18.958 14.9476 14.9476 18.958 10 18.958C5.05245 18.958 1.04199 14.9476 1.04199 10C1.04199 5.05245 5.05245 1.04199 10 1.04199ZM18.0752 3.59766C18.3894 3.45505 18.7596 3.59407 18.9023 3.9082C19.0451 4.22242 18.906 4.59253 18.5918 4.73535C16.4439 5.71172 14.3336 7.90066 12.7285 9.91992C11.935 10.9182 11.2821 11.8543 10.8271 12.54C10.5998 12.8826 10.242 13.4564 10.1221 13.6494C10.0103 13.8394 9.8064 13.957 9.58594 13.958C9.36569 13.9589 9.16131 13.844 9.04785 13.6553C8.46698 12.6872 7.78973 12.01 7.26074 11.5771C6.99653 11.361 6.76981 11.207 6.61328 11.1084C6.53509 11.0592 6.42579 10.9974 6.38672 10.9756L6.2793 10.9072C6.0514 10.7276 5.97255 10.4065 6.10742 10.1367C6.26184 9.82817 6.63764 9.70317 6.94629 9.85742C7.02164 9.8951 7.18171 9.98935 7.2793 10.0508C7.4743 10.1736 7.74312 10.3578 8.05176 10.6104C8.50347 10.9799 9.04402 11.4976 9.56348 12.1865C9.63128 12.0819 9.7053 11.969 9.78516 11.8486C10.2546 11.1412 10.9291 10.1754 11.75 9.14258C13.3741 7.09938 15.6398 4.70466 18.0752 3.59766Z" fill="white"/>
</svg>
