<svg width="20" height="20" viewBox="0 0 20 20" fill="none" xmlns="http://www.w3.org/2000/svg">
<path d="M10.001 1.04199C14.9485 1.04199 18.959 5.05245 18.959 10C18.959 14.9476 14.9485 18.958 10.001 18.958C5.05343 18.958 1.04297 14.9476 1.04297 10C1.04297 5.05245 5.05343 1.04199 10.001 1.04199ZM10.001 2.29199C5.74378 2.29199 2.29297 5.74281 2.29297 10C2.29297 14.2572 5.74378 17.708 10.001 17.708C14.2582 17.708 17.709 14.2572 17.709 10C17.709 5.74281 14.2582 2.29199 10.001 2.29199ZM10.001 6.04199C10.3462 6.04199 10.626 6.32181 10.626 6.66699V9.74121L12.1094 11.2246C12.3535 11.4687 12.3535 11.8643 12.1094 12.1084C11.8653 12.3525 11.4697 12.3525 11.2256 12.1084L9.55859 10.4424C9.44138 10.3252 9.37598 10.1658 9.37598 10V6.66699C9.37598 6.32181 9.6558 6.04199 10.001 6.04199Z" fill="#8B8B8B"/>
</svg>
