<svg width="30" height="30" viewBox="0 0 30 30" fill="none" xmlns="http://www.w3.org/2000/svg">
<path d="M15 1.5625C22.4213 1.56254 28.4375 7.5787 28.4375 15C28.4375 22.4213 22.4213 28.4375 15 28.4375C7.5787 28.4375 1.56255 22.4213 1.5625 15C1.5625 7.57867 7.57867 1.5625 15 1.5625ZM15 3.4375C8.61421 3.4375 3.4375 8.61421 3.4375 15C3.43755 21.3858 8.61424 26.5625 15 26.5625C21.3857 26.5625 26.5625 21.3857 26.5625 15C26.5625 8.61423 21.3858 3.43754 15 3.4375ZM14.999 9.0625C15.5167 9.0625 15.9364 9.48235 15.9365 10V14.6123L18.1621 16.8369C18.5282 17.203 18.5282 17.797 18.1621 18.1631C17.796 18.5292 17.2021 18.5292 16.8359 18.1631L14.3359 15.6631C14.1603 15.4873 14.0615 15.2485 14.0615 15V10C14.0617 9.48242 14.4814 9.06261 14.999 9.0625Z" fill="#161616"/>
</svg>
