<svg width="20" height="20" viewBox="0 0 20 20" fill="none" xmlns="http://www.w3.org/2000/svg">
<path fill-rule="evenodd" clip-rule="evenodd" d="M16.6621 1.04297C17.9278 1.04297 18.9541 2.06931 18.9541 3.33496V13.332C18.9541 14.5977 17.9278 15.624 16.6621 15.624H9.7832L6.6875 17.875C5.7237 18.5759 4.3714 17.8879 4.37109 16.6963V15.624H3.33008C2.06458 15.6238 1.03906 14.5976 1.03906 13.332V3.33496C1.03906 2.06942 2.06458 1.04314 3.33008 1.04297H16.6621ZM3.33008 2.29297C2.75493 2.29314 2.28906 2.75977 2.28906 3.33496V13.332C2.28906 13.9072 2.75493 14.3738 3.33008 14.374H4.99609C5.34127 14.374 5.62109 14.6538 5.62109 14.999V16.6963C5.6214 16.8663 5.81456 16.9643 5.95215 16.8643L9.21191 14.4932C9.31871 14.4155 9.44805 14.374 9.58008 14.374H16.6621C17.2374 14.374 17.7041 13.9073 17.7041 13.332V3.33496C17.7041 2.75966 17.2374 2.29297 16.6621 2.29297H3.33008ZM12.9141 9.79102C13.2591 9.79119 13.5391 10.0709 13.5391 10.416C13.5389 10.7609 13.259 11.0408 12.9141 11.041H6.66406C6.31899 11.041 6.03924 10.761 6.03906 10.416C6.03906 10.0708 6.31888 9.79102 6.66406 9.79102H12.9141ZM9.58008 5.62402C9.92502 5.62384 10.2045 5.90315 10.2051 6.24805C10.2053 6.59317 9.92616 6.87367 9.58105 6.87402L6.66797 6.87598C6.32299 6.87607 6.04332 6.59695 6.04297 6.25195C6.0427 5.90688 6.32196 5.62642 6.66699 5.62598L9.58008 5.62402Z" fill="#697586"/>
</svg>
