<svg width="24" height="24" viewBox="0 0 24 24" fill="none" xmlns="http://www.w3.org/2000/svg">
<path d="M20 2.75C21.5188 2.75 22.75 3.98122 22.75 5.5V18.5C22.75 20.0188 21.5188 21.25 20 21.25H4C2.48122 21.25 1.25 20.0188 1.25 18.5V5.5C1.25 3.98122 2.48122 2.75 4 2.75H20ZM4 4.25C3.30964 4.25 2.75 4.80964 2.75 5.5V18.5C2.75 19.1904 3.30964 19.75 4 19.75H20C20.6904 19.75 21.25 19.1904 21.25 18.5V5.5C21.25 4.80964 20.6904 4.25 20 4.25H4ZM8.45898 13.751C10.1032 13.7267 11.8769 14.4671 12.6797 16.1816C12.8553 16.5568 12.6935 17.0041 12.3184 17.1797C11.9434 17.3552 11.4971 17.1932 11.3213 16.8184C10.8362 15.7822 9.7131 15.2318 8.48145 15.25C7.24065 15.2683 6.12819 15.8603 5.67969 16.8184C5.50408 17.1932 5.05758 17.3549 4.68262 17.1797C4.30748 17.0041 4.14567 16.5568 4.32129 16.1816C5.08116 14.559 6.82405 13.7752 8.45898 13.751ZM17 11.75C17.4142 11.75 17.75 12.0858 17.75 12.5C17.75 12.9142 17.4142 13.25 17 13.25H14C13.5858 13.25 13.25 12.9142 13.25 12.5C13.25 12.0858 13.5858 11.75 14 11.75H17ZM8.5 6.75C10.0188 6.75 11.25 7.98122 11.25 9.5C11.25 11.0188 10.0188 12.25 8.5 12.25C6.9813 12.2499 5.75 11.0187 5.75 9.5C5.75 7.98128 6.9813 6.7501 8.5 6.75ZM8.5 8.25C7.80973 8.2501 7.25 8.8097 7.25 9.5C7.25 10.1903 7.80973 10.7499 8.5 10.75C9.19036 10.75 9.75 10.1904 9.75 9.5C9.75 8.80964 9.19036 8.25 8.5 8.25ZM19 8.25C19.4142 8.25 19.75 8.58579 19.75 9C19.75 9.41421 19.4142 9.75 19 9.75H14C13.5858 9.75 13.25 9.41421 13.25 9C13.25 8.58579 13.5858 8.25 14 8.25H19Z" fill="#4B5565"/>
</svg>
