<svg width="24" height="24" viewBox="0 0 24 24" fill="none" xmlns="http://www.w3.org/2000/svg">
<path d="M12.0518 2.25C14.3644 2.24999 16.1696 2.24976 17.5762 2.41992C19.0075 2.59312 20.1405 2.95379 21.0371 3.76074C21.945 4.57781 22.3608 5.62733 22.5586 6.95117C22.7499 8.23191 22.75 9.86923 22.75 11.9375V12.0625C22.75 14.1308 22.7499 15.7681 22.5586 17.0488C22.3608 18.3727 21.945 19.4222 21.0371 20.2393C20.1405 21.0462 19.0075 21.4069 17.5762 21.5801C16.1696 21.7502 14.3644 21.75 12.0518 21.75H11.9482C9.63558 21.75 7.83038 21.7502 6.42383 21.5801C4.9925 21.4069 3.85951 21.0462 2.96289 20.2393C2.05504 19.4222 1.63921 18.3727 1.44141 17.0488C1.25008 15.7681 1.24998 14.1308 1.25 12.0625V11.9375C1.24998 9.86922 1.25008 8.23192 1.44141 6.95117C1.63921 5.62733 2.05504 4.57781 2.96289 3.76074C3.85951 2.95379 4.9925 2.59312 6.42383 2.41992C7.83038 2.24976 9.63557 2.24999 11.9482 2.25H12.0518ZM12 3.75C9.62385 3.75 7.9095 3.75115 6.60352 3.90918C5.31183 4.0655 4.53364 4.36494 3.96582 4.87598C3.4096 5.37678 3.0931 6.04646 2.9248 7.17285C2.75194 8.33006 2.75 9.8552 2.75 12C2.75 14.1448 2.75194 15.6699 2.9248 16.8271C3.0931 17.9535 3.4096 18.6232 3.96582 19.124C4.53364 19.6351 5.31183 19.9345 6.60352 20.0908C7.9095 20.2488 9.62385 20.25 12 20.25C14.3762 20.25 16.0905 20.2488 17.3965 20.0908C18.6882 19.9345 19.4664 19.6351 20.0342 19.124C20.5904 18.6232 20.9069 17.9535 21.0752 16.8271C21.2481 15.6699 21.25 14.1448 21.25 12C21.25 9.8552 21.2481 8.33006 21.0752 7.17285C20.9069 6.04646 20.5904 5.37678 20.0342 4.87598C19.4664 4.36494 18.6882 4.0655 17.3965 3.90918C16.0905 3.75115 14.3762 3.75 12 3.75ZM8.45898 13.751C10.1032 13.7267 11.8769 14.4671 12.6797 16.1816C12.8553 16.5568 12.6935 17.0041 12.3184 17.1797C11.9434 17.3552 11.4971 17.1932 11.3213 16.8184C10.8362 15.7822 9.7131 15.2318 8.48145 15.25C7.24065 15.2683 6.12819 15.8603 5.67969 16.8184C5.50408 17.1932 5.05758 17.3549 4.68262 17.1797C4.30748 17.0041 4.14567 16.5568 4.32129 16.1816C5.08116 14.559 6.82405 13.7752 8.45898 13.751ZM19 13.25C19.4142 13.25 19.75 13.5858 19.75 14C19.75 14.4142 19.4142 14.75 19 14.75H15C14.5858 14.75 14.25 14.4142 14.25 14C14.25 13.5858 14.5858 13.25 15 13.25H19ZM8.5 6.75C10.0188 6.75 11.25 7.98122 11.25 9.5C11.25 11.0188 10.0188 12.25 8.5 12.25C6.9813 12.2499 5.75 11.0187 5.75 9.5C5.75 7.98128 6.9813 6.7501 8.5 6.75ZM8.5 8.25C7.80973 8.2501 7.25 8.8097 7.25 9.5C7.25 10.1903 7.80973 10.7499 8.5 10.75C9.19036 10.75 9.75 10.1904 9.75 9.5C9.75 8.80964 9.19036 8.25 8.5 8.25ZM19 9.25C19.4142 9.25 19.75 9.58579 19.75 10C19.75 10.4142 19.4142 10.75 19 10.75H15C14.5858 10.75 14.25 10.4142 14.25 10C14.25 9.58579 14.5858 9.25 15 9.25H19Z" fill="#C69815"/>
</svg>
