<svg width="24" height="24" viewBox="0 0 24 24" fill="none" xmlns="http://www.w3.org/2000/svg">
<path d="M15.002 1.25781C16.52 1.25889 17.75 2.48979 17.75 4.00781V8.25488L20.002 8.25684C21.5198 8.25791 22.7497 9.48806 22.75 11.0059V19.999C22.7498 21.5176 21.5186 22.749 20 22.749H11C9.48136 22.749 8.25023 21.5176 8.25 19.999V17.749H4C2.48136 17.749 1.25023 16.5176 1.25 14.999V4C1.25 2.48047 2.48242 1.24894 4.00195 1.25L15.002 1.25781ZM11.001 9.75C10.3103 9.74951 9.75 10.3093 9.75 11V19.999C9.75023 20.6892 10.3098 21.249 11 21.249H20C20.6902 21.249 21.2498 20.6892 21.25 19.999V11.0059C21.2497 10.3161 20.6908 9.75737 20.001 9.75684L11.001 9.75ZM4.00098 2.75C3.31028 2.74952 2.75 3.3093 2.75 4V14.999C2.75023 15.6892 3.30978 16.249 4 16.249H8.25V11C8.25 9.48046 9.48241 8.24893 11.002 8.25L16.25 8.25391V4.00781C16.25 3.31783 15.6909 2.75835 15.001 2.75781L4.00098 2.75Z" fill="#4B5565"/>
</svg>
