<svg width="16" height="16" viewBox="0 0 16 16" fill="none" xmlns="http://www.w3.org/2000/svg">
<path fill-rule="evenodd" clip-rule="evenodd" d="M10.0039 0.837891C11.0159 0.838597 11.8359 1.65888 11.8359 2.6709V5.50098L13.3379 5.50293C14.3498 5.50382 15.1699 6.32501 15.1699 7.33691V13.3311C15.1699 14.3436 14.3485 15.165 13.3359 15.165H7.33594C6.32357 15.1649 5.50293 14.3435 5.50293 13.3311V11.8311H2.66992C1.6574 11.8311 0.835937 11.0106 0.835938 9.99805V2.66602C0.835938 1.65299 1.65788 0.831325 2.6709 0.832032L10.0039 0.837891ZM7.33691 6.49902C6.87656 6.4987 6.50311 6.87171 6.50293 7.33203V13.3311C6.50293 13.7912 6.87585 14.1649 7.33594 14.165H13.3359C13.7962 14.165 14.1699 13.7913 14.1699 13.3311V7.33691C14.1699 6.87693 13.7969 6.50329 13.3369 6.50293L7.33691 6.49902ZM2.66992 1.83203C2.20958 1.83185 1.83594 2.20564 1.83594 2.66602V9.99805C1.83594 10.4583 2.20968 10.8311 2.66992 10.8311H5.50293V7.33203C5.50311 6.31915 6.32497 5.49831 7.33789 5.49902L10.8359 5.50098V2.6709C10.8359 2.21102 10.4637 1.83843 10.0039 1.83789L2.66992 1.83203Z" fill="#C69815"/>
</svg>
