<svg width="16" height="16" viewBox="0 0 16 16" fill="none" xmlns="http://www.w3.org/2000/svg">
<path d="M13.333 2.16797C14.3455 2.16797 15.167 2.98845 15.167 4.00098L15.167 12.001C15.167 13.0135 14.3455 13.834 13.333 13.834L2.66699 13.834C1.65447 13.834 0.833008 13.0135 0.833008 12.001L0.833008 4.00098C0.833008 2.98845 1.65447 2.16797 2.66699 2.16797L13.333 2.16797ZM1.83301 6.50098L1.83301 12.001C1.83301 12.4612 2.20675 12.834 2.66699 12.834L13.333 12.834C13.7932 12.834 14.167 12.4612 14.167 12.001V6.50098L1.83301 6.50098ZM7.66699 10.168C7.94298 10.1681 8.16699 10.3919 8.16699 10.668C8.16682 10.9439 7.94288 11.1678 7.66699 11.168H6.66699C6.39096 11.168 6.16717 10.944 6.16699 10.668C6.16699 10.3918 6.39085 10.168 6.66699 10.168H7.66699ZM12 10.168C12.2761 10.168 12.5 10.3918 12.5 10.668C12.4998 10.944 12.276 11.168 12 11.168L9.66699 11.168C9.39096 11.168 9.16717 10.944 9.16699 10.668C9.16699 10.3918 9.39085 10.168 9.66699 10.168L12 10.168ZM2.66699 3.16797C2.20675 3.16797 1.83301 3.54074 1.83301 4.00098L1.83301 5.50098L14.167 5.50098V4.00098C14.167 3.54074 13.7932 3.16797 13.333 3.16797L2.66699 3.16797Z" fill="#697586"/>
</svg>
