<svg width="30" height="30" viewBox="0 0 30 30" fill="none" xmlns="http://www.w3.org/2000/svg">
<path d="M25 4.0625C26.8985 4.0625 28.4375 5.60152 28.4375 7.5V22.5C28.4375 24.3985 26.8985 25.9375 25 25.9375H5C3.10152 25.9375 1.5625 24.3985 1.5625 22.5V7.5C1.5625 5.60152 3.10152 4.0625 5 4.0625H25ZM3.4375 12.1875V22.5C3.4375 23.3629 4.13706 24.0625 5 24.0625H25C25.8629 24.0625 26.5625 23.3629 26.5625 22.5V12.1875H3.4375ZM14.375 19.0625C14.8928 19.0625 15.3125 19.4822 15.3125 20C15.3125 20.5178 14.8928 20.9375 14.375 20.9375H12.5C11.9822 20.9375 11.5625 20.5178 11.5625 20C11.5625 19.4822 11.9822 19.0625 12.5 19.0625H14.375ZM22.5 19.0625C23.0178 19.0625 23.4375 19.4822 23.4375 20C23.4375 20.5178 23.0178 20.9375 22.5 20.9375H18.125C17.6072 20.9375 17.1875 20.5178 17.1875 20C17.1875 19.4822 17.6072 19.0625 18.125 19.0625H22.5ZM5 5.9375C4.13706 5.9375 3.4375 6.63706 3.4375 7.5V10.3125H26.5625V7.5C26.5625 6.63706 25.8629 5.9375 25 5.9375H5Z" fill="#161616"/>
</svg>
