<svg width="20" height="22" viewBox="0 0 20 22" fill="none" xmlns="http://www.w3.org/2000/svg">
<path d="M3.94446 13.5869C7.49846 11.4709 12.0028 11.4707 15.5568 13.5869C15.673 13.6561 15.8162 13.7375 15.9786 13.8291C16.6914 14.2312 17.7698 14.839 18.5079 15.5615C18.9696 16.0134 19.4077 16.6093 19.4874 17.3389C19.5722 18.1147 19.2338 18.8424 18.5548 19.4893C17.3834 20.6053 15.9776 21.5 14.1593 21.5H5.34094C3.52274 21.4999 2.11683 20.6053 0.945435 19.4893C0.266627 18.8424 -0.0719279 18.1146 0.0128174 17.3389C0.0925631 16.6093 0.531618 16.0134 0.993286 15.5615C1.73145 14.8391 2.80889 14.2312 3.52161 13.8291C3.68421 13.7374 3.82818 13.6562 3.94446 13.5869ZM14.7892 14.876C11.7081 13.0414 7.79316 13.0415 4.71204 14.876C4.54419 14.9759 4.35976 15.0802 4.16711 15.1895C3.45451 15.5937 2.62221 16.066 2.04211 16.6338C1.68204 16.9863 1.52859 17.2773 1.50403 17.502C1.48459 17.6803 1.53014 17.9742 1.98059 18.4033C3.01637 19.3901 4.06861 19.9999 5.34094 20H14.1593C15.4317 20 16.4848 19.3902 17.5206 18.4033C17.9708 17.9743 18.0157 17.6803 17.9962 17.502C17.9717 17.2773 17.8183 16.9863 17.4581 16.6338C16.878 16.066 16.0457 15.5937 15.3331 15.1895C15.1406 15.0802 14.9569 14.9759 14.7892 14.876ZM9.75012 0C12.6496 0 15.0001 2.3505 15.0001 5.25C15.0001 8.14949 12.6496 10.5 9.75012 10.5C6.85063 10.5 4.50012 8.14949 4.50012 5.25C4.50012 2.3505 6.85063 0 9.75012 0ZM9.75012 1.5C7.67905 1.5 6.00012 3.17893 6.00012 5.25C6.00012 7.32107 7.67905 9 9.75012 9C11.8212 9 13.5001 7.32107 13.5001 5.25C13.5001 3.17893 11.8212 1.5 9.75012 1.5Z" fill="#697586"/>
</svg>
