<svg width="24" height="24" viewBox="0 0 24 24" fill="none" xmlns="http://www.w3.org/2000/svg">
<path d="M14 3.25C14.9665 3.25 15.75 4.0335 15.75 5V5.75H17.9297C18.8491 5.75002 19.7078 6.20958 20.2178 6.97461L22.2881 10.0801C22.5892 10.5318 22.75 11.0626 22.75 11.6055V17.5C22.75 17.6989 22.6709 17.8896 22.5303 18.0303C22.3896 18.1709 22.1989 18.25 22 18.25H20.1621C19.8235 19.6832 18.5367 20.75 17 20.75C15.4633 20.75 14.1765 19.6832 13.8379 18.25H10.1621C9.82345 19.6832 8.53672 20.75 7 20.75C5.46328 20.75 4.17655 19.6832 3.83789 18.25H3C2.0335 18.25 1.25 17.4665 1.25 16.5V13C1.25 12.5858 1.58579 12.25 2 12.25C2.41421 12.25 2.75 12.5858 2.75 13V16.5C2.75 16.6381 2.86193 16.75 3 16.75H3.83789C4.17655 15.3168 5.46328 14.25 7 14.25C8.53672 14.25 9.82345 15.3168 10.1621 16.75H13.8379C13.9213 16.3968 14.0618 16.0658 14.25 15.7676V5C14.25 4.86193 14.1381 4.75 14 4.75H2C1.58588 4.74989 1.25 4.41415 1.25 4C1.25 3.58585 1.58588 3.25011 2 3.25H14ZM7 15.75C6.0335 15.75 5.25 16.5335 5.25 17.5C5.25 18.4665 6.0335 19.25 7 19.25C7.9665 19.25 8.75 18.4665 8.75 17.5C8.75 16.5335 7.9665 15.75 7 15.75ZM17 15.75C16.0335 15.75 15.25 16.5335 15.25 17.5C15.25 18.4665 16.0335 19.25 17 19.25C17.9665 19.25 18.75 18.4665 18.75 17.5C18.75 16.5335 17.9665 15.75 17 15.75ZM15.75 14.5C16.1349 14.3394 16.5569 14.25 17 14.25C18.5367 14.25 19.8235 15.3168 20.1621 16.75H21.25V11.6055C21.25 11.3587 21.1769 11.1174 21.04 10.9121L18.9697 7.80664C18.7379 7.45891 18.3476 7.25002 17.9297 7.25H15.75V14.5ZM6 9.25C6.41421 9.25 6.75 9.58579 6.75 10C6.75 10.4142 6.41421 10.75 6 10.75H2C1.58579 10.75 1.25 10.4142 1.25 10C1.25 9.58579 1.58579 9.25 2 9.25H6ZM8 6.25C8.41421 6.25 8.75 6.58579 8.75 7C8.75 7.41421 8.41421 7.75 8 7.75H2C1.58579 7.75 1.25 7.41421 1.25 7C1.25 6.58579 1.58579 6.25 2 6.25H8Z" fill="#161616"/>
</svg>
