<svg width="25" height="26" viewBox="0 0 25 26" fill="none" xmlns="http://www.w3.org/2000/svg">
<path d="M17.4844 18.0149L13.4844 18.0029" stroke="#C69815" stroke-linecap="round"/>
<path d="M17.4921 13.0154L7.49219 12.9853" stroke="#C69815" stroke-linecap="round"/>
<path d="M17.5151 8.01509L7.5 7.96381" stroke="#C69815" stroke-linecap="round"/>
<path d="M12.4687 22.5002C7.99039 22.4867 5.75123 22.48 4.36418 21.0846C2.97713 19.6891 2.98388 17.45 2.99737 12.9717C3.01087 8.49338 3.01761 6.25419 4.41304 4.86709C5.80847 3.48009 8.04763 3.48684 12.526 3.50033C17.0042 3.51382 19.2434 3.52057 20.6305 4.91595C22.0175 6.31144 22.0108 8.55063 21.9973 13.0289C21.9838 17.5072 21.977 19.7464 20.5817 21.1334C19.1862 22.5205 16.947 22.5137 12.4687 22.5002Z" stroke="#C69815" stroke-linejoin="round"/>
</svg>
