<svg width="24" height="24" viewBox="0 0 24 24" fill="none" xmlns="http://www.w3.org/2000/svg">
<path d="M9 2.25C9.41421 2.25 9.75 2.58579 9.75 3V7.35254C9.74994 8.72614 9.32359 9.82993 8.61328 10.5977C8.09246 11.1606 7.43908 11.5179 6.75 11.668V21C6.75 21.4142 6.41421 21.75 6 21.75C5.58579 21.75 5.25 21.4142 5.25 21V11.668C4.56093 11.5178 3.90754 11.1606 3.38672 10.5977C2.67644 9.82993 2.2501 8.72608 2.25 7.35254V3C2.25 2.58579 2.58579 2.25 3 2.25C3.41421 2.25 3.75 2.58579 3.75 3V6.75H5.25V3C5.25 2.58579 5.58579 2.25 6 2.25C6.41421 2.25 6.75 2.58579 6.75 3V6.75H8.25V3C8.25 2.58579 8.58579 2.25 9 2.25ZM21 2.25C21.4142 2.25 21.75 2.58579 21.75 3C21.75 3.41421 21.4142 3.75 21 3.75C16.4437 3.75 12.75 7.44365 12.75 12C12.75 16.5563 16.4437 20.25 21 20.25C21.4142 20.25 21.75 20.5858 21.75 21C21.75 21.4142 21.4142 21.75 21 21.75C15.6152 21.75 11.25 17.3848 11.25 12C11.25 6.61522 15.6152 2.25 21 2.25ZM21 6.25C21.4142 6.25 21.75 6.58579 21.75 7C21.75 7.41421 21.4142 7.75 21 7.75C18.6528 7.75 16.75 9.65279 16.75 12C16.75 14.3472 18.6528 16.25 21 16.25C21.4142 16.25 21.75 16.5858 21.75 17C21.75 17.4142 21.4142 17.75 21 17.75C17.8244 17.75 15.25 15.1756 15.25 12C15.25 8.82436 17.8244 6.25 21 6.25ZM3.8418 8.25C3.9654 8.83488 4.2038 9.27162 4.48828 9.5791C4.9058 10.0302 5.45475 10.25 6 10.25C6.54528 10.25 7.0942 10.0302 7.51172 9.5791C7.79621 9.27162 8.03461 8.83495 8.1582 8.25H3.8418Z" fill="white"/>
</svg>
