<svg width="20" height="20" viewBox="0 0 20 20" fill="none" xmlns="http://www.w3.org/2000/svg">
<path d="M6.75 0C7.16421 5.96046e-08 7.5 0.335787 7.5 0.75V5.10254C7.49994 6.47614 7.07359 7.57993 6.36328 8.34766C5.84246 8.91057 5.18908 9.26787 4.5 9.41797V18.75C4.5 19.1642 4.16421 19.5 3.75 19.5C3.33579 19.5 3 19.1642 3 18.75V9.41797C2.31093 9.26784 1.65754 8.91057 1.13672 8.34766C0.426436 7.57993 9.60232e-05 6.47608 0 5.10254V0.75C0 0.335787 0.335787 -5.96046e-08 0.75 0C1.16421 5.96046e-08 1.5 0.335787 1.5 0.75V4.5H3V0.75C3 0.335787 3.33579 2.11383e-07 3.75 0C4.16421 -1.81062e-08 4.5 0.335786 4.5 0.75V4.5H6V0.75C6 0.335786 6.33579 -5.96046e-08 6.75 0ZM18.75 0C19.1642 0 19.5 0.335786 19.5 0.75C19.5 1.16421 19.1642 1.5 18.75 1.5C14.1937 1.5 10.5 5.19365 10.5 9.75C10.5 14.3063 14.1937 18 18.75 18C19.1642 18 19.5 18.3358 19.5 18.75C19.5 19.1642 19.1642 19.5 18.75 19.5C13.3652 19.5 9 15.1348 9 9.75C9 4.36522 13.3652 0 18.75 0ZM18.75 4C19.1642 4 19.5 4.33579 19.5 4.75C19.5 5.16421 19.1642 5.5 18.75 5.5C16.4028 5.5 14.5 7.40279 14.5 9.75C14.5 12.0972 16.4028 14 18.75 14C19.1642 14 19.5 14.3358 19.5 14.75C19.5 15.1642 19.1642 15.5 18.75 15.5C15.5744 15.5 13 12.9256 13 9.75C13 6.57436 15.5744 4 18.75 4ZM1.5918 6C1.7154 6.58488 1.9538 7.02162 2.23828 7.3291C2.6558 7.78018 3.20475 7.99998 3.75 8C4.29528 8.00002 4.8442 7.78018 5.26172 7.3291C5.54621 7.02162 5.78461 6.58495 5.9082 6H1.5918Z" fill="#161616"/>
</svg>
