<svg width="28" height="28" viewBox="0 0 28 28" fill="none" xmlns="http://www.w3.org/2000/svg">
<path fill-rule="evenodd" clip-rule="evenodd" d="M10.5 2.625C10.9832 2.625 11.375 3.01675 11.375 3.5V8.57715C11.375 10.1796 10.8774 11.4675 10.0488 12.3633C9.44117 13.0201 8.67898 13.4382 7.875 13.6133V24.5C7.875 24.9832 7.48325 25.375 7 25.375C6.51675 25.375 6.125 24.9832 6.125 24.5V13.6133C5.32101 13.4381 4.55884 13.0201 3.95117 12.3633C3.12257 11.4675 2.625 10.1797 2.625 8.57715V3.5C2.625 3.01675 3.01675 2.625 3.5 2.625C3.98325 2.625 4.375 3.01675 4.375 3.5V7.875H6.125V3.5C6.125 3.01675 6.51675 2.625 7 2.625C7.48325 2.625 7.875 3.01675 7.875 3.5V7.875H9.625V3.5C9.625 3.01675 10.0168 2.625 10.5 2.625ZM24.5 2.625C24.9832 2.625 25.375 3.01675 25.375 3.5C25.375 3.98325 24.9832 4.375 24.5 4.375C19.1843 4.375 14.875 8.68426 14.875 14C14.875 19.3157 19.1843 23.625 24.5 23.625C24.9832 23.625 25.375 24.0168 25.375 24.5C25.375 24.9832 24.9832 25.375 24.5 25.375C18.2178 25.375 13.125 20.2822 13.125 14C13.125 7.71776 18.2178 2.625 24.5 2.625ZM24.5 7.29199C24.9832 7.29199 25.375 7.68374 25.375 8.16699C25.3748 8.65009 24.9831 9.04199 24.5 9.04199C21.7616 9.04199 19.542 11.2616 19.542 14C19.542 16.7384 21.7616 18.958 24.5 18.958C24.9831 18.958 25.3748 19.3499 25.375 19.833C25.375 20.3163 24.9832 20.708 24.5 20.708C20.7951 20.708 17.792 17.7049 17.792 14C17.792 10.2951 20.7951 7.29199 24.5 7.29199ZM4.47852 9.625C4.62267 10.3077 4.90432 10.8159 5.23633 11.1748C5.72349 11.7014 6.36369 11.958 7 11.958C7.63631 11.958 8.27653 11.7013 8.76367 11.1748C9.09567 10.8159 9.37735 10.3078 9.52148 9.625H4.47852Z" fill="#C69815"/>
</svg>
