<svg width="24" height="24" viewBox="0 0 24 24" fill="none" xmlns="http://www.w3.org/2000/svg">
<path d="M18.5 1.25C20.0188 1.25001 21.25 2.48122 21.25 4V10.5C21.25 10.9142 20.9142 11.25 20.5 11.25C20.0858 11.25 19.75 10.9142 19.75 10.5V4C19.75 3.30965 19.1903 2.75001 18.5 2.75H5.5C4.80971 2.75008 4.25001 3.3097 4.25 4V20C4.25 20.6904 4.80964 21.25 5.5 21.25H11C11.4142 21.25 11.75 21.5858 11.75 22C11.75 22.4142 11.4142 22.75 11 22.75H5.5C3.98122 22.75 2.75 21.5188 2.75 20V4C2.75001 2.48127 3.98129 1.25008 5.5 1.25H18.5ZM17.5 13.25C18.5714 13.25 19.5086 13.7565 20.165 14.4473C20.8164 15.1327 21.25 16.0608 21.25 17V20C21.25 20.4142 20.9142 20.75 20.5 20.75C20.0858 20.75 19.75 20.4142 19.75 20V17C19.75 16.5098 19.5124 15.9376 19.0781 15.4805C18.6488 15.0286 18.0854 14.75 17.5 14.75C16.9146 14.75 16.3512 15.0286 15.9219 15.4805C15.4876 15.9376 15.25 16.5098 15.25 17V20.5C15.25 20.9142 15.5858 21.25 16 21.25C16.4142 21.25 16.75 20.9142 16.75 20.5V17C16.75 16.5858 17.0858 16.25 17.5 16.25C17.9142 16.25 18.25 16.5858 18.25 17V20.5C18.25 21.7426 17.2426 22.75 16 22.75C14.7574 22.75 13.75 21.7426 13.75 20.5V17C13.75 16.0608 14.1836 15.1327 14.835 14.4473C15.4914 13.7565 16.4286 13.25 17.5 13.25ZM13.5 11.25C13.9142 11.25 14.25 11.5858 14.25 12C14.25 12.4142 13.9142 12.75 13.5 12.75H7.5C7.08579 12.75 6.75 12.4142 6.75 12C6.75 11.5858 7.08579 11.25 7.5 11.25H13.5ZM16.5 6.25C16.9142 6.25 17.25 6.58579 17.25 7C17.25 7.41421 16.9142 7.75 16.5 7.75H7.5C7.08579 7.75 6.75 7.41421 6.75 7C6.75 6.58579 7.08579 6.25 7.5 6.25H16.5Z" fill="#4B5565"/>
</svg>
