<svg width="19" height="22" viewBox="0 0 19 22" fill="none" xmlns="http://www.w3.org/2000/svg">
<path d="M15.75 0C17.2688 9.79272e-06 18.5 1.23122 18.5 2.75V9.25C18.5 9.66421 18.1642 9.99999 17.75 10C17.3358 10 17 9.66421 17 9.25V2.75C17 2.05965 16.4403 1.50001 15.75 1.5H2.75C2.05971 1.50008 1.50001 2.0597 1.5 2.75V18.75C1.5 19.4404 2.05964 20 2.75 20H8.25C8.66421 20 9 20.3358 9 20.75C9 21.1642 8.66421 21.5 8.25 21.5H2.75C1.23122 21.5 1.6835e-07 20.2688 0 18.75V2.75C1.32318e-05 1.23127 1.23129 7.57612e-05 2.75 0H15.75ZM14.75 12C15.8214 12 16.7586 12.5065 17.415 13.1973C18.0664 13.8827 18.5 14.8108 18.5 15.75V18.75C18.5 19.1642 18.1642 19.5 17.75 19.5C17.3358 19.5 17 19.1642 17 18.75V15.75C17 15.2598 16.7624 14.6876 16.3281 14.2305C15.8988 13.7786 15.3354 13.5 14.75 13.5C14.1646 13.5 13.6012 13.7786 13.1719 14.2305C12.7376 14.6876 12.5 15.2598 12.5 15.75V19.25C12.5 19.6642 12.8358 20 13.25 20C13.6642 20 14 19.6642 14 19.25V15.75C14 15.3358 14.3358 15 14.75 15C15.1642 15 15.5 15.3358 15.5 15.75V19.25C15.5 20.4926 14.4926 21.5 13.25 21.5C12.0074 21.5 11 20.4926 11 19.25V15.75C11 14.8108 11.4336 13.8827 12.085 13.1973C12.7414 12.5065 13.6786 12 14.75 12ZM10.75 10C11.1642 10 11.5 10.3358 11.5 10.75C11.5 11.1642 11.1642 11.5 10.75 11.5H4.75C4.33579 11.5 4 11.1642 4 10.75C4 10.3358 4.33579 10 4.75 10H10.75ZM13.75 5C14.1642 5 14.5 5.33579 14.5 5.75C14.5 6.16421 14.1642 6.5 13.75 6.5H4.75C4.33579 6.5 4 6.16421 4 5.75C4 5.33579 4.33579 5 4.75 5H13.75Z" fill="#C69815"/>
</svg>
