<svg width="20" height="20" viewBox="0 0 20 20" fill="none" xmlns="http://www.w3.org/2000/svg">
<path d="M15.2305 6.875C17.2199 6.94616 19.0147 8.45693 18.957 10.5869C18.9437 11.0763 18.7639 11.6488 18.4883 12.5273C18.4762 12.5657 18.4645 12.605 18.4521 12.6445C17.6792 15.1106 16.3062 17.4667 13.1465 18.0244C12.5751 18.1252 11.9425 18.125 10.8486 18.125H9.15137C8.0571 18.125 7.4241 18.1253 6.85254 18.0244C3.69295 17.4666 2.32075 15.1105 1.54785 12.6445C1.53545 12.605 1.52278 12.5657 1.51074 12.5273C1.23517 11.6489 1.05627 11.0762 1.04297 10.5869C0.985254 8.45693 2.78008 6.94616 4.76953 6.875C5.11429 6.86289 5.40364 7.13275 5.41602 7.47754C5.42835 7.8225 5.15843 8.11266 4.81348 8.125C3.37369 8.17667 2.25623 9.23823 2.29199 10.5537C2.3 10.8446 2.4156 11.2347 2.74023 12.2705C3.46203 14.5736 4.60266 16.3574 7.07031 16.793C7.52044 16.8724 8.03646 16.875 9.22461 16.875H10.7754C11.9635 16.875 12.4795 16.8724 12.9297 16.793C15.3972 16.3574 16.537 14.5735 17.2588 12.2705C17.5834 11.2346 17.699 10.8446 17.707 10.5537C17.7428 9.23812 16.6255 8.17651 15.1855 8.125C14.8407 8.11254 14.5716 7.82242 14.584 7.47754C14.5964 7.13263 14.8855 6.86267 15.2305 6.875ZM10 1.875C10.3451 1.87512 10.625 2.1549 10.625 2.5V10.3848C10.6266 10.3829 10.6283 10.3808 10.6299 10.3789C10.8054 10.1718 10.977 9.95274 11.1377 9.74805C11.1502 9.73214 11.1634 9.71592 11.1758 9.7002C11.3359 9.49639 11.504 9.28202 11.6348 9.14746C11.8753 8.90008 12.271 8.89448 12.5186 9.13477C12.766 9.37529 12.7717 9.77102 12.5312 10.0186C12.4573 10.0946 12.3359 10.2465 12.1582 10.4727C12.1454 10.489 12.1324 10.5056 12.1191 10.5225C11.9608 10.7242 11.7754 10.9616 11.584 11.1875C11.3788 11.4296 11.1485 11.6805 10.9189 11.876C10.804 11.9739 10.6746 12.0709 10.5352 12.1455C10.4007 12.2175 10.2151 12.2919 10 12.292C9.78486 12.292 9.59936 12.2175 9.46484 12.1455C9.32535 12.0709 9.19512 11.974 9.08008 11.876C8.8507 11.6806 8.62104 11.4294 8.41602 11.1875C8.2246 10.9616 8.03923 10.7242 7.88086 10.5225C7.86759 10.5056 7.85369 10.489 7.84082 10.4727C7.66328 10.2466 7.54265 10.0946 7.46875 10.0186C7.22816 9.77103 7.23295 9.37535 7.48047 9.13477C7.72789 8.89429 8.12365 8.90025 8.36426 9.14746C8.49509 9.28207 8.66409 9.49632 8.82422 9.7002C8.83655 9.7159 8.84886 9.73216 8.86133 9.74805C9.02208 9.95281 9.19456 10.1717 9.37012 10.3789C9.37176 10.3808 9.37336 10.3828 9.375 10.3848V2.5C9.375 2.15482 9.65482 1.875 10 1.875Z" fill="white"/>
</svg>
