<svg width="21" height="21" viewBox="0 0 21 21" fill="none" xmlns="http://www.w3.org/2000/svg">
<path fill-rule="evenodd" clip-rule="evenodd" d="M7.19646 3.96344H11.4546C12.5943 3.96342 13.5129 3.96341 14.2354 4.06054C14.9854 4.16139 15.6169 4.37713 16.1186 4.87873C16.5806 5.34075 16.8001 5.91303 16.9107 6.58663C17.5844 6.69717 18.1567 6.9167 18.6188 7.37877C19.1204 7.88037 19.3361 8.51193 19.4369 9.26202C19.5341 9.98452 19.5341 10.9031 19.5341 12.0428V12.1342C19.5341 13.2739 19.5341 14.1924 19.4369 14.9149C19.3361 15.665 19.1204 16.2966 18.6188 16.7982C18.1172 17.2998 17.4856 17.5155 16.7355 17.6164C16.013 17.7135 15.0944 17.7135 13.9548 17.7135H9.69669C8.55701 17.7135 7.63841 17.7135 6.91594 17.6164C6.16585 17.5155 5.53429 17.2998 5.03269 16.7982C4.57066 16.3362 4.35112 15.7639 4.24058 15.0903C3.56689 14.9797 2.99455 14.7602 2.53248 14.2982C2.03088 13.7965 1.81514 13.165 1.71429 12.4149C1.61715 11.6924 1.61717 10.7739 1.61719 9.63419V9.54269C1.61717 8.40306 1.61715 7.48446 1.71429 6.76198C1.81514 6.01189 2.03088 5.38033 2.53248 4.87873C3.03408 4.37713 3.66564 4.16139 4.41573 4.06054C5.1382 3.96341 6.0568 3.96342 7.19646 3.96344ZM5.53861 15.1981C5.62602 15.5339 5.75051 15.7483 5.91657 15.9143C6.14721 16.1449 6.47102 16.2954 7.0825 16.3775C7.71196 16.4622 8.54622 16.4635 9.74244 16.4635H13.9091C15.1053 16.4635 15.9395 16.4622 16.5689 16.3775C17.1804 16.2954 17.5043 16.1449 17.7349 15.9143C17.9655 15.6837 18.1159 15.3599 18.1981 14.7484C18.2828 14.1189 18.2841 13.2847 18.2841 12.0885C18.2841 10.8923 18.2828 10.058 18.1981 9.42861C18.1159 8.81711 17.9655 8.4933 17.7349 8.26266C17.5688 8.09657 17.3544 7.97206 17.0185 7.88465C17.0339 8.37539 17.0339 8.92677 17.0339 9.54269V9.63419C17.0339 10.7739 17.0339 11.6924 16.9368 12.4149C16.8359 13.165 16.6202 13.7965 16.1186 14.2982C15.6169 14.7998 14.9854 15.0155 14.2354 15.1164C13.5129 15.2134 12.5943 15.2134 11.4546 15.2134H7.19646C6.5806 15.2134 6.0293 15.2134 5.53861 15.1981ZM4.58229 5.2994C3.97081 5.38161 3.647 5.53198 3.41636 5.76262C3.18573 5.99325 3.03535 6.31707 2.95315 6.92854C2.86851 7.558 2.86719 8.39227 2.86719 9.58844C2.86719 10.7846 2.86851 11.6189 2.95315 12.2484C3.03535 12.8599 3.18573 13.1836 3.41636 13.4143C3.647 13.6449 3.97081 13.7953 4.58229 13.8775C5.21175 13.9621 6.046 13.9634 7.24219 13.9634H11.4089C12.605 13.9634 13.4393 13.9621 14.0688 13.8775C14.6803 13.7953 15.004 13.6449 15.2347 13.4143C15.4654 13.1836 15.6157 12.8599 15.6979 12.2484C15.7825 11.6189 15.7839 10.7846 15.7839 9.58844C15.7839 8.39227 15.7825 7.558 15.6979 6.92854C15.6157 6.31707 15.4654 5.99325 15.2347 5.76262C15.004 5.53198 14.6803 5.38161 14.0688 5.2994C13.4393 5.21477 12.605 5.21344 11.4089 5.21344H7.24219C6.046 5.21344 5.21175 5.21477 4.58229 5.2994ZM9.32552 8.13011C8.5201 8.13011 7.86719 8.78302 7.86719 9.58844C7.86719 10.3939 8.5201 11.0468 9.32552 11.0468C10.1309 11.0468 10.7839 10.3939 10.7839 9.58844C10.7839 8.78302 10.1309 8.13011 9.32552 8.13011ZM6.61719 9.58844C6.61719 8.09267 7.82975 6.88011 9.32552 6.88011C10.8213 6.88011 12.0339 8.09267 12.0339 9.58844C12.0339 11.0842 10.8213 12.2968 9.32552 12.2968C7.82975 12.2968 6.61719 11.0842 6.61719 9.58844ZM4.74219 7.29677C5.08736 7.29677 5.36719 7.5766 5.36719 7.92177V11.2551C5.36719 11.6003 5.08736 11.8801 4.74219 11.8801C4.39701 11.8801 4.11719 11.6003 4.11719 11.2551V7.92177C4.11719 7.5766 4.39701 7.29677 4.74219 7.29677ZM13.9089 7.29677C14.254 7.29677 14.5339 7.5766 14.5339 7.92177V11.2551C14.5339 11.6003 14.254 11.8801 13.9089 11.8801C13.5637 11.8801 13.2839 11.6003 13.2839 11.2551V7.92177C13.2839 7.5766 13.5637 7.29677 13.9089 7.29677Z" fill="#067546"/>
</svg>
