<svg width="20" height="20" viewBox="0 0 20 20" fill="none" xmlns="http://www.w3.org/2000/svg">
<path fill-rule="evenodd" clip-rule="evenodd" d="M6.62224 3.54102H10.8804C12.0201 3.541 12.9386 3.54098 13.6611 3.63812C14.4112 3.73897 15.0427 3.95471 15.5444 4.45631C16.0064 4.91832 16.2259 5.49061 16.3365 6.16421C17.0101 6.27474 17.5825 6.49427 18.0445 6.95635C18.5461 7.45795 18.7619 8.08951 18.8627 8.8396C18.9599 9.5621 18.9599 10.4807 18.9599 11.6203V11.7118C18.9599 12.8514 18.9599 13.77 18.8627 14.4925C18.7619 15.2426 18.5461 15.8742 18.0445 16.3758C17.543 16.8773 16.9114 17.0931 16.1613 17.1939C15.4388 17.2911 14.5202 17.2911 13.3806 17.2911H9.12247C7.98279 17.2911 7.06419 17.2911 6.34172 17.1939C5.59164 17.0931 4.96007 16.8773 4.45847 16.3758C3.99644 15.9138 3.7769 15.3414 3.66636 14.6678C2.99267 14.5573 2.42033 14.3378 1.95826 13.8758C1.45666 13.3741 1.24092 12.7426 1.14007 11.9925C1.04294 11.27 1.04295 10.3514 1.04297 9.21177V9.12027C1.04295 7.98063 1.04294 7.06203 1.14007 6.33956C1.24092 5.58947 1.45666 4.95791 1.95826 4.45631C2.45986 3.95471 3.09142 3.73897 3.84151 3.63812C4.56399 3.54098 5.48259 3.541 6.62224 3.54102ZM4.96439 14.7757C5.0518 15.1114 5.17629 15.3258 5.34235 15.4918C5.57299 15.7225 5.8968 15.8729 6.50828 15.9551C7.13774 16.0398 7.972 16.0411 9.16822 16.0411H13.3349C14.5311 16.0411 15.3653 16.0398 15.9947 15.9551C16.6062 15.8729 16.9301 15.7225 17.1606 15.4918C17.3913 15.2613 17.5417 14.9374 17.6239 14.3259C17.7086 13.6965 17.7099 12.8623 17.7099 11.6661C17.7099 10.4698 17.7086 9.6356 17.6239 9.00618C17.5417 8.39468 17.3913 8.07087 17.1606 7.84023C16.9946 7.67415 16.7801 7.54963 16.4443 7.46222C16.4596 7.95297 16.4596 8.50435 16.4596 9.12027V9.21177C16.4596 10.3514 16.4596 11.27 16.3625 11.9925C16.2617 12.7426 16.046 13.3741 15.5444 13.8758C15.0427 14.3773 14.4112 14.5931 13.6611 14.6939C12.9386 14.791 12.0201 14.791 10.8804 14.791H6.62224C6.00639 14.791 5.45508 14.791 4.96439 14.7757ZM4.00807 4.87697C3.39659 4.95918 3.07278 5.10956 2.84214 5.34019C2.61151 5.57082 2.46114 5.89464 2.37893 6.50612C2.29429 7.13557 2.29297 7.96984 2.29297 9.16602C2.29297 10.3622 2.29429 11.1964 2.37893 11.8259C2.46114 12.4374 2.61151 12.7612 2.84214 12.9918C3.07278 13.2225 3.39659 13.3728 4.00807 13.4551C4.63753 13.5397 5.47179 13.541 6.66797 13.541H10.8346C12.0308 13.541 12.8651 13.5397 13.4946 13.4551C14.1061 13.3728 14.4298 13.2225 14.6605 12.9918C14.8911 12.7612 15.0415 12.4374 15.1237 11.8259C15.2083 11.1964 15.2096 10.3622 15.2096 9.16602C15.2096 7.96984 15.2083 7.13557 15.1237 6.50612C15.0415 5.89464 14.8911 5.57082 14.6605 5.34019C14.4298 5.10956 14.1061 4.95918 13.4946 4.87697C12.8651 4.79234 12.0308 4.79102 10.8346 4.79102H6.66797C5.47179 4.79102 4.63753 4.79234 4.00807 4.87697ZM8.7513 7.70768C7.94589 7.70768 7.29297 8.3606 7.29297 9.16602C7.29297 9.97143 7.94589 10.6243 8.7513 10.6243C9.55672 10.6243 10.2096 9.97143 10.2096 9.16602C10.2096 8.3606 9.55672 7.70768 8.7513 7.70768ZM6.04297 9.16602C6.04297 7.67025 7.25554 6.45768 8.7513 6.45768C10.2471 6.45768 11.4596 7.67025 11.4596 9.16602C11.4596 10.6618 10.2471 11.8743 8.7513 11.8743C7.25554 11.8743 6.04297 10.6618 6.04297 9.16602ZM4.16797 6.87435C4.51314 6.87435 4.79297 7.15417 4.79297 7.49935V10.8327C4.79297 11.1778 4.51314 11.4577 4.16797 11.4577C3.82279 11.4577 3.54297 11.1778 3.54297 10.8327V7.49935C3.54297 7.15417 3.82279 6.87435 4.16797 6.87435ZM13.3346 6.87435C13.6798 6.87435 13.9596 7.15417 13.9596 7.49935V10.8327C13.9596 11.1778 13.6798 11.4577 13.3346 11.4577C12.9895 11.4577 12.7096 11.1778 12.7096 10.8327V7.49935C12.7096 7.15417 12.9895 6.87435 13.3346 6.87435Z" fill="#697586"/>
</svg>
