<svg width="21" height="21" viewBox="0 0 21 21" fill="none" xmlns="http://www.w3.org/2000/svg">
<path d="M13.1709 1.99487C14.158 1.40779 15.3759 1.38966 16.3799 1.94702C16.7964 2.17824 17.1762 2.56676 17.7412 3.14429C17.7666 3.17023 17.7922 3.19668 17.8184 3.22339C17.844 3.24961 17.8696 3.27605 17.8945 3.30151C18.4612 3.88005 18.8411 4.26688 19.0664 4.69019C19.6069 5.7061 19.5892 6.93572 19.0195 7.9353C18.7821 8.35184 18.3916 8.72762 17.8086 9.28882C17.783 9.31342 17.7568 9.33868 17.7305 9.36401L9.89355 16.9119C9.85956 16.9446 9.82621 16.9775 9.79297 17.0095C8.64224 18.1183 7.93261 18.8016 7.03516 19.1521C6.13645 19.5031 5.15906 19.4769 3.57812 19.4353C3.53242 19.4341 3.48618 19.4336 3.43945 19.4324L3.17285 19.4255C2.94132 19.4195 2.70698 19.4128 2.51367 19.3806C2.29156 19.3436 2.02707 19.2581 1.81836 19.0212C1.61177 18.7866 1.55831 18.5155 1.5459 18.2927C1.53497 18.0958 1.55374 17.8598 1.57227 17.6228L1.59766 17.3015C1.6007 17.2624 1.60347 17.2235 1.60645 17.1853C1.71416 15.8001 1.77999 14.953 2.11426 14.1833C2.44912 13.4126 3.02173 12.7929 3.95508 11.782C3.98088 11.754 4.00685 11.7256 4.0332 11.697L11.7695 3.31421C11.7949 3.28668 11.8201 3.25891 11.8447 3.23218C12.3929 2.6379 12.7614 2.2384 13.1709 1.99487ZM18.835 18.2087C19.18 18.2089 19.46 18.4887 19.46 18.8337C19.4598 19.1787 19.1799 19.4586 18.835 19.4587H12.168C11.8229 19.4587 11.5431 19.1788 11.543 18.8337C11.543 18.4886 11.8228 18.2087 12.168 18.2087H18.835ZM4.95117 12.5447C3.91469 13.6677 3.50112 14.1281 3.26074 14.6814C3.02002 15.2357 2.9636 15.8599 2.84375 17.3982L2.82129 17.6873C2.80353 17.9152 2.7933 18.0568 2.79297 18.157C2.82485 18.16 2.86341 18.1633 2.91016 18.1658C3.00044 18.1705 3.1056 18.173 3.23828 18.1765L3.47168 18.1824C5.23765 18.2286 5.9451 18.2359 6.58008 17.988C7.21658 17.7394 7.74092 17.2496 9.02637 16.0115L15.9551 9.33765L11.7715 5.15405L4.95117 12.5447ZM15.7734 3.03979C15.1587 2.6985 14.4156 2.71029 13.8105 3.07007C13.5786 3.20802 13.3402 3.45573 12.6885 4.16187L12.6201 4.23511L16.8555 8.47046L16.8633 8.46362C17.5534 7.79891 17.7974 7.55519 17.9336 7.31616C18.2908 6.68936 18.302 5.91572 17.9629 5.27808C17.8335 5.03488 17.5965 4.78351 16.9258 4.09839C16.254 3.41218 16.0091 3.17064 15.7734 3.03979Z" fill="white"/>
</svg>
