<svg width="20" height="20" viewBox="0 0 20 20" fill="none" xmlns="http://www.w3.org/2000/svg">
<path d="M12.6709 1.49414C13.658 0.907059 14.8759 0.888931 15.8799 1.44629C16.2964 1.67751 16.6762 2.06603 17.2412 2.64355C17.2666 2.6695 17.2922 2.69595 17.3184 2.72266C17.344 2.74888 17.3696 2.77532 17.3945 2.80078C17.9612 3.37932 18.3411 3.76615 18.5664 4.18945C19.1069 5.20537 19.0892 6.43498 18.5195 7.43457C18.2821 7.85111 17.8916 8.22689 17.3086 8.78809C17.283 8.81268 17.2568 8.83795 17.2305 8.86328L9.39355 16.4111C9.35956 16.4439 9.32621 16.4768 9.29297 16.5088C8.14224 17.6175 7.43261 18.3008 6.53516 18.6514C5.63645 19.0023 4.65906 18.9762 3.07812 18.9346C3.03242 18.9334 2.98618 18.9329 2.93945 18.9316L2.67285 18.9238C2.44132 18.9178 2.20698 18.9121 2.01367 18.8799C1.79156 18.8428 1.52707 18.7574 1.31836 18.5205C1.11177 18.2859 1.05831 18.0147 1.0459 17.792C1.03497 17.595 1.05374 17.3591 1.07227 17.1221L1.09766 16.8008C1.1007 16.7617 1.10347 16.7228 1.10645 16.6846C1.21416 15.2993 1.27999 14.4523 1.61426 13.6826C1.94912 12.9119 2.52173 12.2922 3.45508 11.2812C3.48088 11.2533 3.50685 11.2248 3.5332 11.1963L11.2695 2.81348C11.2949 2.78595 11.3201 2.75818 11.3447 2.73145C11.8929 2.13717 12.2614 1.73767 12.6709 1.49414ZM18.335 17.708C18.68 17.7082 18.96 17.9879 18.96 18.333C18.9598 18.6779 18.6799 18.9578 18.335 18.958H11.668C11.3229 18.958 11.0431 18.678 11.043 18.333C11.043 17.9878 11.3228 17.708 11.668 17.708H18.335ZM4.45117 12.0439C3.41469 13.1669 3.00112 13.6274 2.76074 14.1807C2.52002 14.735 2.4636 15.3592 2.34375 16.8975L2.32129 17.1865C2.30353 17.4144 2.2933 17.5561 2.29297 17.6562C2.32485 17.6593 2.36341 17.6626 2.41016 17.665C2.50044 17.6698 2.6056 17.6723 2.73828 17.6758L2.97168 17.6816C4.73765 17.7278 5.4451 17.7352 6.08008 17.4873C6.71658 17.2387 7.24092 16.7488 8.52637 15.5107L15.4551 8.83691L11.2715 4.65332L4.45117 12.0439ZM15.2734 2.53906C14.6587 2.19776 13.9156 2.20955 13.3105 2.56934C13.0786 2.70729 12.8402 2.95499 12.1885 3.66113L12.1201 3.73438L16.3555 7.96973L16.3633 7.96289C17.0534 7.29818 17.2974 7.05446 17.4336 6.81543C17.7908 6.18863 17.802 5.41498 17.4629 4.77734C17.3335 4.53415 17.0965 4.28278 16.4258 3.59766C15.754 2.91145 15.5091 2.66991 15.2734 2.53906Z" fill="#697586"/>
</svg>
