<svg width="22" height="22" viewBox="0 0 22 22" fill="none" xmlns="http://www.w3.org/2000/svg">
<path d="M13.9541 0.54418C15.1387 -0.160164 16.6 -0.18226 17.8047 0.486563C18.3043 0.763995 18.7598 1.23031 19.4375 1.92309C19.4681 1.9543 19.4998 1.98665 19.5313 2.01879C19.562 2.05012 19.5923 2.08114 19.6221 2.11156C20.3023 2.80597 20.758 3.27048 21.0284 3.77856C21.6769 4.99763 21.6553 6.47262 20.9717 7.67211C20.6868 8.17207 20.2184 8.62346 19.5186 9.29711C19.4879 9.32666 19.4564 9.35652 19.4248 9.38695L10.0205 18.4446C9.97975 18.4839 9.93935 18.5233 9.89945 18.5618C8.51877 19.8921 7.66772 20.7124 6.59086 21.133C5.51241 21.5542 4.33955 21.5229 2.44242 21.4729C2.38746 21.4714 2.33163 21.4705 2.27543 21.469L1.95512 21.4602C1.67721 21.453 1.39605 21.4462 1.1641 21.4075C0.897608 21.363 0.58149 21.26 0.331094 20.9758C0.0829052 20.6941 0.0188492 20.3692 0.00394579 20.1018C-0.00921951 19.8654 0.0129546 19.5817 0.0351958 19.2971L0.0654692 18.9114C0.0691091 18.8646 0.0726554 18.8184 0.0762114 18.7727C0.205494 17.1101 0.284264 16.0929 0.685586 15.1692C1.08745 14.2444 1.77462 13.5014 2.89457 12.2883C2.92559 12.2547 2.95663 12.2201 2.98832 12.1858L12.2725 2.12719C12.3029 2.09424 12.3328 2.06154 12.3623 2.02953C13.0202 1.31633 13.4627 0.836429 13.9541 0.54418ZM20.75 20.0002C21.1643 20.0002 21.5 20.336 21.5 20.7502C21.5 21.1644 21.1643 21.5002 20.75 21.5002H12.75C12.3358 21.5002 12 21.1644 12 20.7502C12 20.336 12.3358 20.0002 12.75 20.0002H20.75ZM4.09086 13.2034C2.84703 14.551 2.35008 15.103 2.06156 15.7668C1.77251 16.4321 1.70445 17.182 1.56059 19.0286L1.53422 19.3743C1.5129 19.6479 1.50043 19.8185 1.50004 19.9387C1.5383 19.9424 1.58456 19.9455 1.64066 19.9485C1.74913 19.9542 1.87573 19.958 2.0352 19.9621L2.31449 19.969C4.43401 20.0244 5.28289 20.0332 6.04496 19.7356C6.80876 19.4373 7.43797 18.8502 8.98051 17.3645L17.295 9.3557L12.2745 4.3352L4.09086 13.2034ZM17.0762 1.79809C16.3385 1.38856 15.4468 1.40242 14.7207 1.83422C14.4424 1.99979 14.157 2.29757 13.375 3.14477L13.293 3.23266L18.375 8.31469L18.3838 8.30688C19.2123 7.50895 19.5055 7.21678 19.669 6.92992C20.0977 6.17771 20.1111 5.24885 19.7041 4.48363C19.5489 4.19174 19.2642 3.89015 18.459 3.06762C17.6528 2.24404 17.359 1.95508 17.0762 1.79809Z" fill="#161616"/>
</svg>
