<svg width="36" height="30" viewBox="0 0 36 30" fill="none" xmlns="http://www.w3.org/2000/svg">
<path d="M1.32812 6.66666L14.9363 16.1924C16.0383 16.9638 16.5893 17.3494 17.1886 17.4988C17.7179 17.6308 18.2716 17.6308 18.801 17.4988C19.4003 17.3494 19.9513 16.9638 21.0533 16.1924L34.6615 6.66666M9.32813 28.3333H26.6615C29.4617 28.3333 30.8619 28.3333 31.9314 27.7884C32.8722 27.309 33.6371 26.5441 34.1165 25.6033C34.6615 24.5337 34.6615 23.1336 34.6615 20.3333V9.66666C34.6615 6.86639 34.6615 5.46626 34.1165 4.3967C33.6371 3.45589 32.8722 2.69099 31.9314 2.21162C30.8619 1.66666 29.4617 1.66666 26.6615 1.66666H9.32813C6.52786 1.66666 5.12773 1.66666 4.05817 2.21162C3.11736 2.69099 2.35246 3.45589 1.87309 4.3967C1.32812 5.46626 1.32812 6.86639 1.32812 9.66666V20.3333C1.32812 23.1336 1.32812 24.5337 1.87309 25.6033C2.35246 26.5441 3.11736 27.309 4.05817 27.7884C5.12773 28.3333 6.52786 28.3333 9.32813 28.3333Z" stroke="#141B34" stroke-width="1.96429" stroke-linecap="round" stroke-linejoin="round"/>
</svg>
