<svg width="26" height="26" viewBox="0 0 26 26" fill="none" xmlns="http://www.w3.org/2000/svg">
<path d="M12.9687 23.0001C8.49039 22.9866 6.25123 22.9798 4.86418 21.5844C3.47713 20.189 3.48388 17.9498 3.49737 13.4715C3.51087 8.9932 3.51761 6.75401 4.91304 5.36691C6.30847 3.9799 8.54763 3.98665 13.026 4.00015C17.5042 4.01364 19.7434 4.02038 21.1305 5.41577C22.5175 6.81126 22.5108 9.05045 22.4973 13.5287C22.4838 18.007 22.477 20.2462 21.0817 21.6333C19.6862 23.0203 17.447 23.0136 12.9687 23.0001Z" stroke="#C69815" stroke-linejoin="round"/>
<path d="M8.72413 12.6235L10.5011 11.749C10.7485 11.6297 10.9864 11.3104 11.0325 11.0407L11.3045 9.44657C11.479 8.42719 12.2257 8.18954 12.9594 8.92665L14.2059 10.1703C14.4169 10.3809 14.8249 10.4971 15.1174 10.433L16.6659 10.0827C17.8918 9.80642 18.3636 10.4527 17.7202 11.5257L16.8235 13.0178C16.6614 13.2873 16.66 13.7323 16.8205 14.0077L17.7082 15.5053C18.3452 16.5771 17.8643 17.2255 16.6453 16.9419L15.0988 16.5823C14.8067 16.5164 14.3981 16.6302 14.1858 16.8395L12.9318 18.0756C12.1937 18.8033 11.4484 18.5661 11.2801 17.5457L11.0177 15.95C10.9732 15.6849 10.7372 15.3643 10.4906 15.2435L8.71891 14.3583C7.75757 13.8754 7.75992 13.0955 8.72413 12.6235Z" stroke="#C69815" stroke-linecap="round" stroke-linejoin="round"/>
</svg>
