<svg width="24" height="24" viewBox="0 0 24 24" fill="none" xmlns="http://www.w3.org/2000/svg">
<path d="M18.2773 8.25C20.6646 8.33559 22.8175 10.149 22.748 12.7051C22.732 13.2922 22.5172 13.9792 22.1865 15.0332C22.1721 15.0791 22.1574 15.1256 22.1426 15.1729C21.2151 18.1322 19.5681 20.9596 15.7764 21.6289C15.0906 21.7499 14.3315 21.7501 13.0186 21.75H10.9814C9.66852 21.7501 8.90945 21.75 8.22363 21.6289C4.43192 20.9596 2.7849 18.1322 1.85742 15.1729C1.84261 15.1256 1.82786 15.0791 1.81348 15.0332C1.48283 13.9792 1.268 13.2922 1.25195 12.7051C1.18247 10.1489 3.33618 8.3354 5.72363 8.25C6.13728 8.23538 6.48495 8.55904 6.5 8.97266C6.5148 9.38646 6.19109 9.73399 5.77734 9.74902C4.04939 9.81083 2.70806 11.0854 2.75098 12.6641C2.7605 13.0132 2.89933 13.4811 3.28906 14.7246C4.15522 17.4883 5.52323 19.6287 8.48438 20.1514C9.02461 20.2467 9.64423 20.25 11.0703 20.25H12.9307C14.3564 20.25 14.9755 20.2467 15.5156 20.1514C18.4768 19.6287 19.8448 17.4882 20.7109 14.7246C21.1007 13.4811 21.2395 13.0132 21.249 12.6641C21.2919 11.0854 19.9514 9.81098 18.2236 9.74902C17.8097 9.73422 17.4862 9.38661 17.501 8.97266C17.516 8.55895 17.8636 8.2352 18.2773 8.25ZM12 2.25C12.4142 2.25 12.75 2.58579 12.75 3V12.4619C12.7519 12.4596 12.7539 12.4574 12.7559 12.4551C12.9665 12.2064 13.1733 11.943 13.3662 11.6973C13.3811 11.6783 13.3964 11.6594 13.4111 11.6406C13.6032 11.3961 13.8049 11.1391 13.9619 10.9775C14.2505 10.6806 14.7254 10.6735 15.0225 10.9619C15.3194 11.2505 15.3265 11.7254 15.0381 12.0225C14.9494 12.1137 14.804 12.296 14.5908 12.5674C14.5754 12.5871 14.5589 12.6067 14.543 12.627C14.3529 12.8691 14.1301 13.1537 13.9004 13.4248C13.6544 13.7152 13.3788 14.0165 13.1035 14.251C12.9656 14.3685 12.8098 14.4847 12.6426 14.5742C12.4811 14.6606 12.2583 14.75 12 14.75C11.7417 14.75 11.5188 14.6606 11.3574 14.5742C11.1902 14.4847 11.0344 14.3684 10.8965 14.251C10.6212 14.0165 10.3456 13.7151 10.0996 13.4248C9.86988 13.1537 9.6471 12.8691 9.45703 12.627C9.44119 12.6068 9.42552 12.5869 9.41016 12.5674C9.19696 12.296 9.05062 12.1137 8.96191 12.0225C8.67353 11.7254 8.68062 11.2505 8.97754 10.9619C9.27458 10.6735 9.74946 10.6806 10.0381 10.9775C10.1951 11.1391 10.3977 11.396 10.5898 11.6406C10.6045 11.6593 10.619 11.6784 10.6338 11.6973C10.8267 11.943 11.0335 12.2065 11.2441 12.4551C11.2461 12.4574 11.2481 12.4596 11.25 12.4619V3C11.25 2.58581 11.5858 2.25004 12 2.25Z" fill="#C69815"/>
</svg>
