<svg width="16" height="16" viewBox="0 0 16 16" fill="none" xmlns="http://www.w3.org/2000/svg">
<path d="M14.3653 7.36398C14.5679 7.64818 14.6693 7.79032 14.6693 8.00065C14.6693 8.21098 14.5679 8.35312 14.3653 8.63732C13.4545 9.91438 11.1287 12.6673 8.0026 12.6673C4.87646 12.6673 2.55067 9.91438 1.63996 8.63732C1.43728 8.35312 1.33594 8.21098 1.33594 8.00065C1.33594 7.79032 1.43728 7.64818 1.63996 7.36398C2.55067 6.08694 4.87646 3.33398 8.0026 3.33398C11.1287 3.33398 13.4545 6.08694 14.3653 7.36398Z" stroke="#141B34"/>
<path d="M10 8C10 6.8954 9.1046 6 8 6C6.8954 6 6 6.8954 6 8C6 9.1046 6.8954 10 8 10C9.1046 10 10 9.1046 10 8Z" stroke="#141B34"/>
</svg>
