<svg width="24" height="25" viewBox="0 0 24 25" fill="none" xmlns="http://www.w3.org/2000/svg">
<path d="M21.544 11.1573C21.848 11.5836 22 11.7968 22 12.1123C22 12.4278 21.848 12.641 21.544 13.0673C20.1779 14.9829 16.6892 19.1123 12 19.1123C7.31078 19.1123 3.8221 14.9829 2.45604 13.0673C2.15201 12.641 2 12.4278 2 12.1123C2 11.7968 2.15201 11.5836 2.45604 11.1573C3.8221 9.24174 7.31078 5.1123 12 5.1123C16.6892 5.1123 20.1779 9.24174 21.544 11.1573Z" stroke="#141B34"/>
<path d="M15 12.1123C15 10.4554 13.6569 9.1123 12 9.1123C10.3431 9.1123 9 10.4554 9 12.1123C9 13.7692 10.3431 15.1123 12 15.1123C13.6569 15.1123 15 13.7692 15 12.1123Z" stroke="#141B34"/>
</svg>
