<svg width="24" height="24" viewBox="0 0 24 24" fill="none" xmlns="http://www.w3.org/2000/svg">
<path fill-rule="evenodd" clip-rule="evenodd" d="M10.5605 1.25005C11.1636 1.24955 11.6401 1.2495 12.0869 1.40728C12.1793 1.43989 12.2701 1.47731 12.3584 1.51958C12.7858 1.72416 13.1227 2.0613 13.5488 2.48833C13.5731 2.51264 13.5972 2.53767 13.6221 2.56255L18.3584 7.30083C18.3872 7.32966 18.4162 7.35865 18.4443 7.38677C18.9387 7.88043 19.3305 8.27083 19.541 8.77935C19.7515 9.28789 19.7507 9.84117 19.75 10.5401V13.0049C19.75 13.4191 19.4142 13.7549 19 13.7549C18.5858 13.7549 18.25 13.4191 18.25 13.0049V10.6612C18.25 10.2229 18.2469 9.9452 18.2334 9.75298H17.9453C16.5778 9.753 15.4754 9.75336 14.6084 9.63677C13.7083 9.51571 12.9505 9.25638 12.3486 8.65435C11.7468 8.05223 11.4872 7.29401 11.3662 6.39361C11.2497 5.52639 11.25 4.42373 11.25 3.05572V2.76372C11.0832 2.75309 10.8419 2.75005 10.4561 2.75005C8.81547 2.75005 7.64988 2.75099 6.75488 2.85552C5.87606 2.95817 5.35453 3.15249 4.95996 3.47076C4.7797 3.6162 4.61509 3.78062 4.46973 3.96099C4.15167 4.35578 3.95807 4.87777 3.85547 5.75689C3.75101 6.65227 3.75 7.81805 3.75 9.45904V14.0049C3.75 15.9126 3.75148 17.2688 3.88965 18.2969C4.02494 19.3033 4.27894 19.8833 4.70215 20.3067C5.39808 21.0028 6.47934 21.2134 9.01074 21.2501C9.42484 21.256 9.75587 21.5967 9.75 22.0108C9.74401 22.4249 9.40338 22.756 8.98926 22.7501C6.56201 22.7149 4.83183 22.5577 3.6416 21.3672C2.8933 20.6186 2.56094 19.669 2.40332 18.4961C2.25018 17.3565 2.24998 15.9001 2.25 14.0616V9.41119C2.24999 7.82907 2.25042 6.57555 2.36621 5.58306C2.48509 4.56441 2.734 3.72417 3.30176 3.01958C3.51431 2.75584 3.75491 2.51545 4.01855 2.30279C4.72294 1.73465 5.56267 1.48522 6.58106 1.36626C7.57312 1.2504 8.82593 1.25004 10.4072 1.25005H10.5605ZM16 15.2501C17.6417 15.2501 19.0606 16.1329 20.0137 16.9229C20.5006 17.3266 20.8932 17.7283 21.1641 18.0294C21.2999 18.1804 21.4068 18.3078 21.4805 18.3985C21.5152 18.4413 21.5732 18.5167 21.5967 18.5469L21.6006 18.5518C21.7944 18.8116 21.7989 19.1655 21.6143 19.4297C21.6098 19.4355 21.6027 19.4454 21.5938 19.4571C21.5622 19.498 21.5091 19.5664 21.4805 19.6016C21.4068 19.6924 21.2999 19.8197 21.1641 19.9708C20.8932 20.2718 20.5006 20.6736 20.0137 21.0772C19.0606 21.8672 17.6417 22.75 16 22.7501C14.3582 22.7501 12.9385 21.8672 11.9854 21.0772C11.4984 20.6735 11.1058 20.2718 10.835 19.9708C10.6991 19.8198 10.5932 19.6923 10.5195 19.6016C10.4848 19.5588 10.4258 19.4834 10.4023 19.4532L10.3984 19.4483C10.2002 19.1823 10.201 18.8168 10.3994 18.5508L10.4336 18.5059C10.4538 18.4799 10.4828 18.4437 10.5195 18.3985C10.5932 18.3078 10.6991 18.1803 10.835 18.0294C11.1058 17.7283 11.4984 17.3266 11.9854 16.9229C12.9385 16.1329 14.3582 15.2501 16 15.2501ZM16 16.7501C14.8806 16.7501 13.7998 17.3673 12.9434 18.0772C12.543 18.4091 12.2141 18.7428 11.9805 19.0001C12.2141 19.2573 12.543 19.591 12.9434 19.9229C13.7998 20.6328 14.8806 21.25 16 21.2501C17.1196 21.2501 18.2011 20.6329 19.0576 19.9229C19.4579 19.5911 19.7869 19.2573 20.0205 19.0001C19.7869 18.7428 19.4579 18.409 19.0576 18.0772C18.2011 17.3672 17.1196 16.7501 16 16.7501ZM15.999 18.0001C16.5513 18.0001 16.999 18.4478 16.999 19.0001C16.999 19.5523 16.5513 20.0001 15.999 20.0001H15.9902C15.4379 20.0001 14.9902 19.5523 14.9902 19.0001C14.9902 18.4478 15.4379 18.0001 15.9902 18.0001H15.999ZM12.751 3.81255C12.7546 4.82791 12.7723 5.58999 12.8535 6.19439C12.9522 6.92824 13.1324 7.31692 13.4092 7.5938C13.686 7.8707 14.0749 8.05175 14.8086 8.15044C15.4126 8.23164 16.1738 8.24834 17.1885 8.25201L12.751 3.81255Z" fill="#697586"/>
</svg>
