<svg width="24" height="24" viewBox="0 0 24 24" fill="none" xmlns="http://www.w3.org/2000/svg">
<path d="M8.5 1.25C9.4665 1.25 10.25 2.0335 10.25 3V3.75L13.667 3.75C14.0455 3.75007 14.414 3.87254 14.7168 4.09961L20.0498 8.09961C20.4905 8.4301 20.75 8.94917 20.75 9.5V20C20.75 21.5188 19.5188 22.75 18 22.75L6 22.75C4.48122 22.75 3.25 21.5188 3.25 20L3.25 6.5C3.25 5.2415 4.09614 4.18316 5.25 3.85645V3C5.25 2.0335 6.0335 1.25 7 1.25L8.5 1.25ZM6 5.25C5.30964 5.25 4.75 5.80964 4.75 6.5L4.75 20C4.75 20.6904 5.30964 21.25 6 21.25L18 21.25C18.6904 21.25 19.25 20.6904 19.25 20V9.5C19.25 9.42138 19.2132 9.34702 19.1504 9.2998L13.8164 5.2998C13.7733 5.26754 13.7209 5.25007 13.667 5.25L6 5.25ZM11.4873 12.4531C11.7758 12.1827 12.2242 12.1827 12.5127 12.4531L12.5137 12.4541L12.5156 12.4551L12.5215 12.4609L12.541 12.4795C12.5577 12.4955 12.5817 12.5188 12.6113 12.5479C12.6706 12.606 12.7541 12.6894 12.8535 12.793C13.0516 12.9993 13.3179 13.29 13.5859 13.625C13.8519 13.9574 14.1324 14.3496 14.3496 14.7568C14.5595 15.1505 14.75 15.6315 14.75 16.125C14.75 17.6196 13.4725 18.75 12 18.75C10.5275 18.75 9.25 17.6196 9.25 16.125C9.25 15.6315 9.44049 15.1505 9.65039 14.7568C9.8676 14.3496 10.1481 13.9574 10.4141 13.625C10.6821 13.29 10.9484 12.9993 11.1465 12.793C11.2459 12.6894 11.3294 12.606 11.3887 12.5479C11.4183 12.5188 11.4423 12.4955 11.459 12.4795L11.4785 12.4609L11.4844 12.4551L11.4863 12.4541L11.4873 12.4531ZM12 14.0762C11.8702 14.2195 11.7278 14.3842 11.5859 14.5615C11.3519 14.8541 11.1324 15.1661 10.9746 15.4619C10.8097 15.7711 10.7501 15.9927 10.75 16.124C10.75 16.7005 11.2633 17.249 12 17.249C12.7367 17.249 13.25 16.7005 13.25 16.124C13.2499 15.9927 13.1903 15.7711 13.0254 15.4619C12.8676 15.1661 12.6481 14.8541 12.4141 14.5615C12.2722 14.3842 12.1298 14.2195 12 14.0762ZM12.4004 7.5498C12.649 7.21871 13.1189 7.15194 13.4502 7.40039L17.4502 10.4004C17.7813 10.649 17.8481 11.1189 17.5996 11.4502C17.351 11.7813 16.8811 11.8481 16.5498 11.5996L12.5498 8.59961C12.2187 8.35101 12.152 7.88105 12.4004 7.5498ZM7 2.75C6.86193 2.75 6.75 2.86193 6.75 3V3.75L8.75 3.75V3C8.75 2.86193 8.63807 2.75 8.5 2.75L7 2.75Z" fill="#C69815"/>
</svg>
