<svg width="24" height="24" viewBox="0 0 24 24" fill="none" xmlns="http://www.w3.org/2000/svg">
<path d="M13.5 1.96973C15.02 1.96973 16.25 3.19973 16.25 4.71973V13.9697H16.5C18.0199 13.9697 19.2498 15.1999 19.25 16.7197V17.2197C19.25 17.6297 19.59 17.9697 20 17.9697C20.41 17.9697 20.75 17.6297 20.75 17.2197V12.0303L19.9697 11.25C19.8298 11.11 19.75 10.9196 19.75 10.7197V8.03027L17.9697 6.25C17.68 5.96007 17.6801 5.48039 17.9697 5.19043C18.2597 4.90043 18.7403 4.90043 19.0303 5.19043L22.0303 8.19043C22.17 8.33031 22.2499 8.52 22.25 8.71973V17.2197C22.25 18.4597 21.24 19.4697 20 19.4697C18.76 19.4697 17.75 18.4597 17.75 17.2197V16.7197C17.7498 16.0299 17.1899 15.4697 16.5 15.4697H16.25V20.9697H16.5C16.9099 20.9697 17.2499 21.3098 17.25 21.7197C17.25 22.1297 16.91 22.4697 16.5 22.4697H2.5C2.09 22.4697 1.75 22.1297 1.75 21.7197C1.75013 21.3098 2.09008 20.9697 2.5 20.9697H2.75V4.71973C2.75 3.19973 3.98 1.96973 5.5 1.96973H13.5ZM4.25 20.9697H14.75V11.4697H4.25V20.9697ZM5.5 3.46973C4.81 3.46973 4.25 4.02973 4.25 4.71973V9.96973H14.75V4.71973C14.75 4.02973 14.19 3.46973 13.5 3.46973H5.5Z" fill="#4B5565"/>
</svg>
