<svg width="20" height="20" viewBox="0 0 20 20" fill="none" xmlns="http://www.w3.org/2000/svg">
<path d="M7.08203 1.04199C7.88745 1.04199 8.54102 1.69458 8.54102 2.5V3.125L11.3877 3.125C11.7032 3.125 12.0103 3.22767 12.2627 3.41699L16.707 6.75C17.0742 7.02541 17.291 7.45797 17.291 7.91699L17.291 16.667C17.2908 17.9325 16.2646 18.958 14.999 18.958L4.99902 18.958C3.73348 18.958 2.70721 17.9325 2.70703 16.667L2.70703 5.41699C2.70703 4.36826 3.4125 3.48615 4.37402 3.21387V2.5C4.37402 1.69469 5.02677 1.04217 5.83203 1.04199L7.08203 1.04199ZM4.99902 4.375C4.42373 4.375 3.95703 4.8417 3.95703 5.41699L3.95703 16.667C3.95721 17.2421 4.42384 17.708 4.99902 17.708L14.999 17.708C15.5742 17.708 16.0408 17.2421 16.041 16.667L16.041 7.91699C16.041 7.85142 16.0095 7.78934 15.957 7.75L11.5127 4.41699C11.4766 4.38995 11.4328 4.375 11.3877 4.375L4.99902 4.375ZM9.57129 10.377C9.81168 10.1516 10.1864 10.1516 10.4268 10.377L10.4277 10.3779L10.4287 10.3799L10.4336 10.3838L10.4502 10.3994C10.4641 10.4128 10.4841 10.4328 10.5088 10.457C10.5581 10.5055 10.6273 10.575 10.71 10.6611C10.875 10.8331 11.097 11.0753 11.3203 11.3545C11.5419 11.6315 11.776 11.9575 11.957 12.2969C12.132 12.625 12.291 13.0261 12.291 13.4375C12.291 14.683 11.2261 15.625 9.99902 15.625C8.77198 15.625 7.70703 14.683 7.70703 13.4375C7.70703 13.0261 7.86602 12.625 8.04102 12.2969C8.22201 11.9575 8.45612 11.6315 8.67773 11.3545C8.90108 11.0753 9.12302 10.8331 9.28809 10.6611C9.37076 10.575 9.4399 10.5055 9.48926 10.457C9.51397 10.4328 9.53391 10.4128 9.54785 10.3994L9.56445 10.3838L9.56934 10.3799L9.57031 10.3779L9.57129 10.377ZM9.99902 11.7305C9.89085 11.8499 9.77149 11.9871 9.65332 12.1348C9.45837 12.3785 9.27597 12.6383 9.14453 12.8848C9.00717 13.1423 8.95713 13.327 8.95703 13.4365C8.95703 13.9169 9.38512 14.374 9.99902 14.374C10.6129 14.374 11.041 13.9169 11.041 13.4365C11.0409 13.327 10.9909 13.1423 10.8535 12.8848C10.7221 12.6383 10.5397 12.3785 10.3447 12.1348C10.2266 11.9871 10.1072 11.8499 9.99902 11.7305ZM10.332 6.29199C10.5391 6.01588 10.9309 5.95997 11.207 6.16699L14.541 8.66699C14.8169 8.87416 14.873 9.26596 14.666 9.54199C14.459 9.81799 14.0671 9.8738 13.791 9.66699L10.457 7.16699C10.1811 6.95996 10.1253 6.56808 10.332 6.29199ZM5.83203 2.29199C5.71712 2.29217 5.62402 2.38505 5.62402 2.5V3.125L7.29102 3.125L7.29102 2.5C7.29102 2.38494 7.19709 2.29199 7.08203 2.29199H5.83203Z" fill="#8B8B8B"/>
</svg>
