<svg width="24" height="25" viewBox="0 0 24 25" fill="none" xmlns="http://www.w3.org/2000/svg">
<path d="M10.0127 6.24609C10.4225 6.24636 10.7627 6.58626 10.7627 6.99609C10.7627 7.40593 10.4225 7.74582 10.0127 7.74609H7.8418C7.34195 7.74625 6.88233 8.04673 6.69238 8.5166L5.04199 12.4766L6.10254 12.7461H17.9219L19.6826 12.3066L21.5625 10.8965C21.8925 10.6465 22.3623 10.716 22.6123 11.0459C22.8623 11.3759 22.7919 11.8467 22.4619 12.0967L21.0322 13.1758L22.3018 15.0859C22.6018 15.5259 22.7627 16.0562 22.7627 16.6162V22.0059C22.7627 22.9657 21.9725 23.7556 21.0127 23.7559L20.9922 23.7461H19.9922C19.0322 23.7461 18.2422 22.9561 18.2422 21.9961V20.7461H5.74219V21.9961C5.74219 22.9561 4.95219 23.7461 3.99219 23.7461H2.99219C2.03219 23.7461 1.24219 22.9561 1.24219 21.9961V16.6064C1.24219 16.0465 1.40197 15.5161 1.71191 15.0762L2.98242 13.1758L1.55176 12.0967C1.22179 11.8467 1.15235 11.3759 1.40234 11.0459C1.65239 10.7161 2.12222 10.6465 2.45215 10.8965L3.68262 11.8164L5.30176 7.93652C5.73171 6.90665 6.73196 6.24625 7.8418 6.24609H10.0127ZM18.1621 14.2158C18.1022 14.2258 18.0423 14.2363 17.9824 14.2363H5.98242C5.92242 14.2363 5.86176 14.2358 5.80176 14.2158L4.3125 13.8467L2.94238 15.9062C2.80242 16.1062 2.73242 16.3567 2.73242 16.5967V21.9863C2.73255 22.1262 2.8425 22.2363 2.98242 22.2363H3.98242C4.12224 22.2362 4.23229 22.1261 4.23242 21.9863V19.9863C4.23242 19.5763 4.57242 19.2363 4.98242 19.2363L4.99219 19.2461H18.9922C19.4022 19.2461 19.7422 19.5861 19.7422 19.9961V21.9961C19.7422 22.1361 19.8522 22.2461 19.9922 22.2461H20.9922C21.1322 22.2461 21.2422 22.1361 21.2422 21.9961V16.6064C21.2422 16.3565 21.1722 16.116 21.0322 15.916L19.6523 13.8467L18.1621 14.2158ZM5.99219 16.0059C6.54219 16.0059 6.99219 16.4459 6.99219 17.0059C6.99219 17.5659 6.54219 18.0156 5.99219 18.0156V18.0059C5.44219 18.0059 4.99219 17.5559 4.99219 17.0059C4.99219 16.4559 5.44219 16.0059 5.99219 16.0059ZM17.9922 16.0059C18.5422 16.0059 18.9922 16.4459 18.9922 17.0059C18.9922 17.5659 18.5422 18.0156 17.9922 18.0156V18.0059C17.4422 18.0059 16.9922 17.5559 16.9922 17.0059C16.9922 16.4559 17.4422 16.0059 17.9922 16.0059Z" fill="white"/>
<path d="M21.4336 3.65625C21.623 3.57331 21.8446 3.65892 21.9277 3.84863C22.2247 4.52563 22.376 5.2505 22.376 6C22.3757 8.96361 19.9646 11.3747 17.001 11.375H17C15.865 11.375 14.781 11.024 13.875 10.374V11C13.875 11.207 13.707 11.375 13.5 11.375C13.293 11.375 13.125 11.207 13.125 11V9.57031C13.125 9.41931 13.216 9.28213 13.3555 9.22363C13.4947 9.16548 13.6548 9.19661 13.7627 9.30176C14.6322 10.1548 15.7825 10.625 17.001 10.625C19.5506 10.6247 21.6257 8.54961 21.626 6C21.626 5.35465 21.4961 4.73228 21.2412 4.15039C21.1583 3.96103 21.2439 3.73939 21.4336 3.65625ZM17.1641 2.625C17.4121 2.625 17.5916 2.625 17.7666 2.75L17.7793 2.75977C17.9494 2.89271 18.0067 3.07016 18.0791 3.29492L18.1738 3.58301C18.1908 3.624 18.2179 3.6581 18.2549 3.68359L18.334 3.73145C18.3714 3.7489 18.4165 3.75353 18.4619 3.74512L18.8076 3.64453C19.056 3.57407 19.2505 3.51916 19.4629 3.60645C19.6779 3.68995 19.7778 3.86734 19.9033 4.08984L20.0537 4.35352C20.1692 4.55545 20.2685 4.72984 20.2461 4.94824C20.2231 5.16574 20.096 5.30828 19.9355 5.48828L19.6445 5.82422C19.6275 5.85029 19.5996 5.92609 19.5996 5.99902C19.5996 6.07201 19.6275 6.14783 19.6445 6.17383L19.9385 6.5127C20.096 6.6897 20.2231 6.8328 20.2461 7.0498C20.269 7.26858 20.1691 7.44273 20.0537 7.64453L19.9033 7.90918C19.7779 8.13211 19.6773 8.30812 19.4629 8.3916C19.2505 8.47897 19.056 8.42397 18.8105 8.35449L18.4619 8.25293C18.4161 8.24453 18.3709 8.24915 18.334 8.2666L18.2549 8.31543C18.2181 8.34084 18.1903 8.37427 18.1738 8.41504L18.0791 8.70508C18.0072 8.9279 17.9495 9.10629 17.7793 9.23926L17.7666 9.24902C17.5916 9.37402 17.4121 9.37402 17.1641 9.37402L17.165 9.37598H16.8359C16.5879 9.37598 16.4084 9.37598 16.2334 9.25098L16.2217 9.24121C16.0512 9.10821 15.9934 8.93008 15.9209 8.70508L15.8262 8.41797C15.8092 8.37698 15.7821 8.34288 15.7451 8.31738L15.666 8.26855C15.6286 8.25109 15.5835 8.24646 15.5381 8.25488L15.1924 8.35645C14.9439 8.42693 14.7496 8.48099 14.5371 8.39355C14.3222 8.31009 14.2226 8.13353 14.0967 7.91016L13.9463 7.64648C13.8308 7.44509 13.7306 7.2706 13.7529 7.05176C13.7759 6.83427 13.903 6.69123 14.0635 6.51074L14.3555 6.17578C14.3724 6.14984 14.3993 6.07383 14.3994 6.00098C14.3994 5.92798 14.3725 5.8512 14.3555 5.8252L14.0605 5.48633C13.9032 5.30947 13.776 5.16752 13.7529 4.9502C13.7299 4.73076 13.8308 4.55642 13.9463 4.35449L14.0957 4.09082C14.2216 3.86796 14.3214 3.69146 14.5361 3.60742C14.7485 3.51996 14.9431 3.57507 15.1885 3.64453L15.5371 3.74609C15.5829 3.75456 15.6281 3.74977 15.665 3.73242L15.7451 3.68359C15.7818 3.65819 15.8097 3.62471 15.8262 3.58398L15.9209 3.29395C15.9929 3.07104 16.0504 2.89275 16.2207 2.75977L16.2334 2.75C16.4083 2.6251 16.5872 2.625 16.835 2.625H17.1641ZM16.6846 3.37598C16.6686 3.4194 16.6493 3.47944 16.6348 3.52441L16.5303 3.84277C16.4573 4.03572 16.3263 4.19802 16.1533 4.3125L16.1406 4.32031L16.0215 4.3916C15.8235 4.49548 15.5901 4.52556 15.3652 4.47559L15.3418 4.46973L14.9814 4.36426C14.9292 4.34932 14.8715 4.33274 14.8281 4.32227C14.8051 4.35977 14.776 4.41148 14.749 4.45898L14.5967 4.72559C14.5737 4.76608 14.5396 4.82521 14.5176 4.86816C14.5471 4.90466 14.5915 4.95373 14.624 4.99023L14.9424 5.3584C15.0699 5.5214 15.1494 5.76701 15.1494 6C15.1493 6.23285 15.0703 6.47774 14.9424 6.64062L14.9307 6.65527L14.627 7.00586C14.5925 7.04484 14.5475 7.09391 14.5176 7.13086C14.5396 7.17382 14.5732 7.23294 14.5967 7.27344L14.749 7.54102C14.7755 7.588 14.8051 7.63876 14.8281 7.67676C14.872 7.66627 14.9301 7.64922 14.9844 7.63379L15.3662 7.52344C15.5916 7.47356 15.8246 7.50348 16.0225 7.60742L16.041 7.61816L16.1543 7.68652C16.3271 7.80097 16.4568 7.96348 16.5303 8.15625L16.5361 8.17285L16.6348 8.47266C16.6497 8.51861 16.6686 8.57914 16.6846 8.62305V8.62402C16.7271 8.62552 16.7839 8.62598 16.8359 8.62598H17.165C17.2173 8.62598 17.2735 8.62551 17.3154 8.62402C17.3314 8.58052 17.3517 8.52059 17.3662 8.47559L17.4707 8.15723C17.5437 7.96441 17.6738 7.80193 17.8467 7.6875L17.8594 7.67969L17.9785 7.6084C18.1764 7.504 18.4099 7.47396 18.6348 7.52441L18.6582 7.53027L19.0186 7.63574C19.0708 7.65068 19.1285 7.66725 19.1719 7.67773C19.1949 7.64027 19.2235 7.58895 19.25 7.54199L19.4023 7.27441C19.4253 7.23404 19.4594 7.1753 19.4814 7.13184C19.4525 7.09641 19.4104 7.04822 19.376 7.00977L19.0566 6.6416C18.9292 6.4791 18.8496 6.23299 18.8496 6C18.8496 5.76701 18.9292 5.5214 19.0566 5.3584L19.0684 5.34375L19.373 4.99414C19.4095 4.95315 19.452 4.90416 19.4814 4.86816C19.4594 4.8252 19.4258 4.76595 19.4023 4.72559L19.25 4.45801C19.2235 4.41105 19.1949 4.35973 19.1719 4.32227C19.128 4.33276 19.0699 4.35029 19.0156 4.36523L18.6348 4.47559C18.4098 4.52559 18.1755 4.4956 17.9775 4.3916L17.959 4.38086L17.8467 4.3125C17.6737 4.19805 17.5432 4.03567 17.4697 3.84277L17.4639 3.82617L17.3662 3.52637C17.3512 3.48038 17.3314 3.41997 17.3154 3.37598C17.2729 3.37448 17.2161 3.375 17.1641 3.375H16.835C16.7827 3.375 16.7264 3.37449 16.6846 3.37598ZM20.5 0.625C20.707 0.625 20.875 0.793 20.875 1V2.42969C20.875 2.58059 20.7849 2.7178 20.6455 2.77637C20.5061 2.83482 20.3453 2.80353 20.2373 2.69824C19.3679 1.84536 18.2183 1.3761 17 1.37598C14.45 1.37598 12.375 3.45098 12.375 6.00098C12.3751 6.64615 12.504 7.26787 12.7588 7.84961C12.8417 8.03896 12.7561 8.2606 12.5664 8.34375C12.5174 8.36525 12.4655 8.37598 12.415 8.37598C12.2709 8.37561 12.1336 8.29058 12.0723 8.15039C11.7753 7.47294 11.625 6.74944 11.625 6C11.625 3.036 14.036 0.625 17 0.625C18.135 0.625 19.219 0.975977 20.125 1.62598V1C20.125 0.793 20.293 0.625 20.5 0.625ZM17 4.75C17.6895 4.75 18.25 5.3105 18.25 6C18.25 6.6895 17.6895 7.25 17 7.25C16.3105 7.25 15.75 6.6895 15.75 6C15.75 5.3105 16.3105 4.75 17 4.75ZM17 5.5C16.7245 5.5 16.5 5.7245 16.5 6C16.5 6.2755 16.7245 6.5 17 6.5C17.2755 6.5 17.5 6.2755 17.5 6C17.5 5.7245 17.2755 5.5 17 5.5Z" fill="white"/>
</svg>
