<svg width="15" height="21" viewBox="0 0 15 21" fill="none" xmlns="http://www.w3.org/2000/svg">
<g clip-path="url(#clip0_7_19964)">
<path fill-rule="evenodd" clip-rule="evenodd" d="M9.76576 0.341397C9.05064 0.120708 8.28999 0 7.50006 0C5.19535 0 3.13285 1.01777 1.75781 2.61664L5.30098 5.52863L9.7657 0.341334L9.76576 0.341397Z" fill="#1A73E8"/>
<path fill-rule="evenodd" clip-rule="evenodd" d="M1.75694 2.61621C0.661466 3.88963 0 5.53299 0 7.32559C0 8.70378 0.281173 9.82002 0.742722 10.8203L5.30011 5.5282L1.75694 2.61621Z" fill="#EA4335"/>
<path fill-rule="evenodd" clip-rule="evenodd" d="M7.50148 4.52563C9.08617 4.52563 10.3702 5.77996 10.3702 7.32806C10.3702 8.01716 10.115 8.64911 9.69243 9.13654C9.69243 9.13654 11.9581 6.50402 14.1572 3.95082C13.2486 2.24396 11.6737 0.930847 9.76879 0.341797L5.30078 5.5291C5.8274 4.91466 6.61733 4.52563 7.50148 4.52563Z" fill="#4285F4"/>
<path fill-rule="evenodd" clip-rule="evenodd" d="M7.50027 10.1287C5.91558 10.1287 4.6316 8.87441 4.6316 7.32631C4.6316 6.64194 4.88349 6.01478 5.29958 5.52734L0.742188 10.8211C1.5207 12.5089 2.8161 13.8633 4.15051 15.5701L9.68955 9.13637C9.16454 9.74293 8.3779 10.1287 7.50027 10.1287Z" fill="#FBBC04"/>
<path fill-rule="evenodd" clip-rule="evenodd" d="M9.58092 17.3257C12.0823 13.5039 14.9997 11.7684 14.9997 7.3258C14.9997 6.10795 14.6941 4.96002 14.1562 3.9502L4.15234 15.5696C4.57655 16.1127 5.00399 16.6906 5.42169 17.3273C6.94299 19.6233 6.52039 20.9998 7.50211 20.9998C8.48054 20.9998 8.05955 19.6217 9.58092 17.3257Z" fill="#34A853"/>
</g>
<defs>
<clipPath id="clip0_7_19964">
<rect width="15" height="21" fill="white"/>
</clipPath>
</defs>
</svg>
