<svg width="15" height="21" viewBox="0 0 15 21" fill="none" xmlns="http://www.w3.org/2000/svg">
<g style="mix-blend-mode:luminosity" clip-path="url(#clip0_3763_274076)">
<path fill-rule="evenodd" clip-rule="evenodd" d="M9.76576 0.341397C9.05064 0.120708 8.28999 0 7.50006 0C5.19535 0 3.13285 1.01777 1.75781 2.61664L5.30098 5.52863L9.7657 0.341334L9.76576 0.341397Z" fill="#656565"/>
<path fill-rule="evenodd" clip-rule="evenodd" d="M1.75694 2.61719C0.661466 3.89061 0 5.53396 0 7.32657C0 8.70476 0.281173 9.82099 0.742722 10.8213L5.30011 5.52918L1.75694 2.61719Z" fill="#656565"/>
<path fill-rule="evenodd" clip-rule="evenodd" d="M7.49757 4.52758C9.08226 4.52758 10.3662 5.78192 10.3662 7.33002C10.3662 8.01911 10.1111 8.65106 9.68853 9.1385C9.68853 9.1385 11.9542 6.50598 14.1532 3.95277C13.2447 2.24591 11.6698 0.932801 9.76488 0.34375L5.29688 5.53105C5.82349 4.91661 6.61342 4.52758 7.49757 4.52758Z" fill="#656565"/>
<path fill-rule="evenodd" clip-rule="evenodd" d="M7.50027 10.1287C5.91558 10.1287 4.6316 8.87441 4.6316 7.32631C4.6316 6.64194 4.88349 6.01478 5.29958 5.52734L0.742188 10.8211C1.5207 12.5089 2.8161 13.8633 4.15051 15.5701L9.68955 9.13637C9.16454 9.74293 8.3779 10.1287 7.50027 10.1287Z" fill="#656565"/>
<path fill-rule="evenodd" clip-rule="evenodd" d="M9.58482 17.3247C12.0862 13.5029 15.0036 11.7675 15.0036 7.32483C15.0036 6.10697 14.698 4.95905 14.1601 3.94922L4.15625 15.5686C4.58046 16.1117 5.00789 16.6896 5.42559 17.3263C6.94689 19.6223 6.52429 20.9989 7.50601 20.9989C8.48444 20.9989 8.06346 19.6207 9.58482 17.3247Z" fill="#656565"/>
</g>
<defs>
<clipPath id="clip0_3763_274076">
<rect width="15" height="21" fill="white"/>
</clipPath>
</defs>
</svg>
