<svg width="20" height="20" viewBox="0 0 20 20" fill="none" xmlns="http://www.w3.org/2000/svg">
<path d="M14.167 2.29297C15.1001 2.29299 15.9926 2.39461 16.8066 2.58105C17.5707 2.75612 18.1525 3.09458 18.5186 3.65723C18.8692 4.19642 18.958 4.84873 18.958 5.5127L18.958 14.4893C18.958 15.7952 17.6327 16.5528 16.5273 16.2998C15.8087 16.1352 15.0102 16.043 14.167 16.043C12.6457 16.043 11.2795 16.3434 10.2646 16.8174C9.05864 17.3807 7.50675 17.709 5.83301 17.709C4.89993 17.709 4.00738 17.6073 3.19336 17.4209C2.46382 17.2537 1.88761 16.9269 1.51367 16.375C1.15199 15.8412 1.04199 15.1855 1.04199 14.4893L1.04199 5.5127C1.04199 4.2068 2.36733 3.44913 3.47266 3.70215C4.19126 3.86674 4.98979 3.95896 5.83301 3.95898C7.35434 3.95898 8.72047 3.65855 9.73535 3.18457C10.9414 2.6213 12.4932 2.29297 14.167 2.29297ZM14.167 3.54297C12.6457 3.54297 11.2795 3.8434 10.2646 4.31738C9.05864 4.88065 7.50675 5.20898 5.83301 5.20898C4.89993 5.20896 4.00738 5.10734 3.19336 4.9209C2.69895 4.80789 2.29199 5.17739 2.29199 5.5127L2.29199 14.4893C2.29199 15.0766 2.38977 15.4391 2.54883 15.6738C2.69557 15.8903 2.95231 16.0829 3.47266 16.2021C4.19126 16.3667 4.98979 16.459 5.83301 16.459C7.35434 16.459 8.72047 16.1586 9.73535 15.6846C10.9414 15.1213 12.4932 14.793 14.167 14.793C15.1001 14.793 15.9926 14.8946 16.8066 15.0811C17.3011 15.1941 17.708 14.8246 17.708 14.4893L17.708 5.5127C17.708 4.9322 17.6236 4.57407 17.4707 4.33887C17.333 4.1272 17.0811 3.92667 16.5273 3.7998C15.8087 3.63521 15.0102 3.54299 14.167 3.54297ZM10 7.29297C11.4958 7.29297 12.708 8.50521 12.708 10.001C12.708 11.4967 11.4958 12.709 10 12.709C8.50423 12.709 7.29199 11.4967 7.29199 10.001C7.29199 8.50521 8.50423 7.29297 10 7.29297ZM10 8.54297C9.19458 8.54297 8.54199 9.19556 8.54199 10.001C8.54199 10.8064 9.19458 11.459 10 11.459C10.8054 11.459 11.458 10.8064 11.458 10.001C11.458 9.19556 10.8054 8.54297 10 8.54297ZM4.25586 10.1006C4.51133 10.1376 4.77493 10.1658 5.04395 10.1846C5.38806 10.2088 5.64792 10.5074 5.62402 10.8516C5.59994 11.1959 5.30039 11.4557 4.95605 11.4316C4.65684 11.4107 4.3634 11.3793 4.07715 11.3379C3.73563 11.2884 3.49854 10.9714 3.54785 10.6299C3.5973 10.2884 3.91442 10.0514 4.25586 10.1006ZM15.0439 8.57617C15.3432 8.59711 15.6366 8.62847 15.9229 8.66992C16.2644 8.71939 16.5016 9.03634 16.4521 9.37793C16.4027 9.71943 16.0856 9.9565 15.7441 9.90723C15.4887 9.87023 15.2251 9.84206 14.9561 9.82324C14.6121 9.79897 14.3531 9.50027 14.377 9.15625C14.401 8.81191 14.6996 8.55209 15.0439 8.57617Z" fill="#C69815"/>
</svg>
