<svg width="24" height="24" viewBox="0 0 24 24" fill="none" xmlns="http://www.w3.org/2000/svg">
<path d="M11.5 1.75C11.9142 1.75 12.25 2.08579 12.25 2.5C12.25 2.91421 11.9142 3.25 11.5 3.25H4.5C3.80964 3.25 3.25 3.80964 3.25 4.5V19.5C3.25 20.1904 3.80964 20.75 4.5 20.75H5.21191L13.8457 12.9795C14.7798 12.139 16.1644 12.0385 17.21 12.7354L20.75 15.0947V12.5C20.75 12.0858 21.0858 11.75 21.5 11.75C21.9142 11.75 22.25 12.0858 22.25 12.5V19.5C22.25 21.0188 21.0188 22.25 19.5 22.25H4.5C2.98122 22.25 1.75 21.0188 1.75 19.5V4.5C1.75 2.98122 2.98122 1.75 4.5 1.75H11.5ZM16.3779 13.9834C15.9026 13.6667 15.2732 13.7126 14.8486 14.0947L7.45312 20.75H19.5C20.1904 20.75 20.75 20.1904 20.75 19.5V16.8975L16.3779 13.9834ZM18 1.75C18.4142 1.75 18.75 2.08579 18.75 2.5V5.25H21.5C21.9142 5.25 22.25 5.58579 22.25 6C22.25 6.41421 21.9142 6.75 21.5 6.75H18.75V9.5C18.75 9.91421 18.4142 10.25 18 10.25C17.5858 10.25 17.25 9.91421 17.25 9.5V6.75H14.5C14.0858 6.75 13.75 6.41421 13.75 6C13.75 5.58579 14.0858 5.25 14.5 5.25H17.25V2.5C17.25 2.08579 17.5858 1.75 18 1.75Z" fill="#697586"/>
</svg>
