<svg width="20" height="20" viewBox="0 0 20 20" fill="none" xmlns="http://www.w3.org/2000/svg">
<path d="M3.33594 15.5385V6.71221C3.33594 4.33387 3.33594 3.1447 4.06817 2.40585C4.8004 1.66699 5.97891 1.66699 8.33594 1.66699H11.6693C14.0263 1.66699 15.2048 1.66699 15.937 2.40585C16.6693 3.1447 16.6693 4.33387 16.6693 6.71221V15.5385C16.6693 16.7982 16.6693 17.4281 16.2843 17.676C15.6552 18.0812 14.6827 17.2315 14.1935 16.9231C13.7894 16.6682 13.5874 16.5407 13.363 16.5334C13.1207 16.5254 12.915 16.6477 12.4784 16.9231L10.8859 17.9273C10.4564 18.1982 10.2416 18.3337 10.0026 18.3337C9.7636 18.3337 9.54885 18.1982 9.11927 17.9273L7.52688 16.9231C7.12273 16.6682 6.92065 16.5407 6.69638 16.5334C6.45404 16.5254 6.24838 16.6477 5.81166 16.9231C5.32256 17.2315 4.35 18.0812 3.7209 17.676C3.33594 17.4281 3.33594 16.7982 3.33594 15.5385Z" stroke="#DC6803" stroke-linecap="round" stroke-linejoin="round"/>
<path d="M9.16406 9.16699H6.66406" stroke="#DC6803" stroke-linecap="round" stroke-linejoin="round"/>
<path d="M11.6641 5.83301H6.66406" stroke="#DC6803" stroke-linecap="round" stroke-linejoin="round"/>
</svg>
