<svg width="30" height="30" viewBox="0 0 30 30" fill="none" xmlns="http://www.w3.org/2000/svg">
<path fill-rule="evenodd" clip-rule="evenodd" d="M12.5 17.8125L10.0015 17.8125H10H9.99847H9.935C8.8119 17.8125 7.87536 17.8124 7.13188 17.9124C6.34714 18.0179 5.63865 18.25 5.06931 18.8194C4.49998 19.3886 4.26791 20.0971 4.16241 20.8819C4.06251 21.6254 4.0625 22.5619 4.0625 23.685L4.0625 27.5C4.0625 28.0177 4.48224 28.4375 5 28.4375C5.51778 28.4375 5.9375 28.0177 5.9375 27.5L5.9375 23.75C5.9375 22.545 5.93949 21.7355 6.02066 21.1317C6.09821 20.5549 6.23225 20.308 6.39515 20.1451C6.55805 19.9822 6.80491 19.8483 7.38174 19.7707C7.81361 19.7127 8.3507 19.695 9.0625 19.6898L9.0625 27.5C9.0625 28.0177 9.48224 28.4375 10 28.4375C10.5178 28.4375 10.9375 28.0177 10.9375 27.5L10.9375 19.6875L12.1117 19.6875L14.3371 21.9128C14.7032 22.279 15.2968 22.279 15.6629 21.9128L17.8884 19.6875H19.0625L19.0625 27.5C19.0625 28.0177 19.4823 28.4375 20 28.4375C20.5177 28.4375 20.9375 28.0177 20.9375 27.5L20.9375 19.6898C21.6493 19.695 22.1864 19.7127 22.6183 19.7707C23.1951 19.8483 23.442 19.9822 23.6049 20.1451C23.7678 20.308 23.9018 20.5549 23.9794 21.1317C24.0605 21.7355 24.0625 22.545 24.0625 23.75V27.5C24.0625 28.0177 24.4823 28.4375 25 28.4375C25.5177 28.4375 25.9375 28.0177 25.9375 27.5V23.685C25.9375 22.5619 25.9375 21.6254 25.8376 20.8819C25.7321 20.0971 25.5 19.3886 24.9306 18.8194C24.3614 18.25 23.6529 18.0179 22.8681 17.9124C22.1246 17.8124 21.1881 17.8125 20.065 17.8125H20.0015H20H19.9985H17.5C17.2514 17.8125 17.0129 17.9113 16.8371 18.0872L15 19.9242L13.1629 18.0872C12.9871 17.9113 12.7486 17.8125 12.5 17.8125ZM15 1.5625C15.5178 1.5625 15.9375 1.98223 15.9375 2.5V3.51997C18.3246 3.945 20.16 5.96425 20.3035 8.4375H20.625C21.1427 8.4375 21.5625 8.85722 21.5625 9.375C21.5625 9.89276 21.1427 10.3125 20.625 10.3125H20.3125V11.25C20.3125 14.184 17.934 16.5625 15 16.5625C12.066 16.5625 9.6875 14.184 9.6875 11.25L9.6875 10.3125H9.375C8.85724 10.3125 8.4375 9.89276 8.4375 9.375C8.4375 8.85722 8.85724 8.4375 9.375 8.4375L9.69654 8.4375C9.84 5.96425 11.6754 3.94499 14.0625 3.51997V2.5C14.0625 1.98223 14.4822 1.5625 15 1.5625ZM18.4375 10.3125L11.5625 10.3125L11.5625 11.25C11.5625 13.1485 13.1015 14.6875 15 14.6875C16.8985 14.6875 18.4375 13.1485 18.4375 11.25V10.3125ZM15 5.3125C13.2069 5.3125 11.7344 6.68546 11.5765 8.4375L18.4235 8.4375C18.2656 6.68546 16.7931 5.3125 15 5.3125Z" fill="#161616"/>
</svg>
