<svg width="24" height="24" viewBox="0 0 24 24" fill="none" xmlns="http://www.w3.org/2000/svg">
<path fill-rule="evenodd" clip-rule="evenodd" d="M10 14.25H8.00122H8H7.99878H7.948C7.04952 14.25 6.30029 14.2499 5.70551 14.3299C5.07772 14.4143 4.51092 14.6 4.05545 15.0555C3.59998 15.5109 3.41433 16.0777 3.32993 16.7055C3.25001 17.3003 3.25 18.0495 3.25 18.948L3.25 22C3.25 22.4142 3.58579 22.75 4 22.75C4.41422 22.75 4.75 22.4142 4.75 22L4.75 19C4.75 18.036 4.75159 17.3884 4.81653 16.9054C4.87857 16.4439 4.9858 16.2464 5.11612 16.1161C5.24644 15.9858 5.44393 15.8786 5.9054 15.8165C6.25089 15.7701 6.68056 15.756 7.25 15.7518L7.25 22C7.25 22.4142 7.58579 22.75 8 22.75C8.41421 22.75 8.75 22.4142 8.75 22L8.75 15.75H9.68933L11.4697 17.5303C11.7626 17.8232 12.2374 17.8232 12.5303 17.5303L14.3107 15.75H15.25L15.25 22C15.25 22.4142 15.5858 22.75 16 22.75C16.4142 22.75 16.75 22.4142 16.75 22L16.75 15.7518C17.3194 15.756 17.7491 15.7701 18.0946 15.8165C18.5561 15.8786 18.7536 15.9858 18.8839 16.1161C19.0142 16.2464 19.1214 16.4439 19.1835 16.9054C19.2484 17.3884 19.25 18.036 19.25 19L19.25 22C19.25 22.4142 19.5858 22.75 20 22.75C20.4142 22.75 20.75 22.4142 20.75 22V18.948C20.75 18.0495 20.75 17.3003 20.6701 16.7055C20.5857 16.0777 20.4 15.5109 19.9445 15.0555C19.4891 14.6 18.9223 14.4143 18.2945 14.3299C17.6997 14.2499 16.9505 14.25 16.052 14.25H16.0012H16H15.9988L14 14.25C13.8011 14.25 13.6103 14.329 13.4697 14.4697L12 15.9393L10.5303 14.4697C10.3897 14.329 10.1989 14.25 10 14.25ZM12 1.25C12.4142 1.25 12.75 1.58579 12.75 2V2.81598C14.6597 3.156 16.128 4.7714 16.2428 6.75H16.5C16.9142 6.75 17.25 7.08578 17.25 7.5C17.25 7.91421 16.9142 8.25 16.5 8.25H16.25V9C16.25 11.3472 14.3472 13.25 12 13.25C9.65279 13.25 7.75 11.3472 7.75 9V8.25H7.5C7.08579 8.25 6.75 7.91421 6.75 7.5C6.75 7.08578 7.08579 6.75 7.5 6.75H7.75723C7.872 4.7714 9.34033 3.15599 11.25 2.81598V2C11.25 1.58579 11.5858 1.25 12 1.25ZM14.75 8.25L9.25 8.25V9C9.25 10.5188 10.4812 11.75 12 11.75C13.5188 11.75 14.75 10.5188 14.75 9V8.25ZM12 4.25C10.5655 4.25 9.38751 5.34837 9.2612 6.75L14.7388 6.75C14.6125 5.34837 13.4345 4.25 12 4.25Z" fill="#C69815"/>
</svg>
