<svg width="18" height="22" viewBox="0 0 18 22" fill="none" xmlns="http://www.w3.org/2000/svg">
<path d="M6.75 13C6.94891 13 7.13962 13.0791 7.28027 13.2197L8.75 14.6895L10.2197 13.2197C10.3604 13.0791 10.5511 13 10.75 13L14.75 13C16.2688 13 17.5 14.2312 17.5 15.75V20.75C17.5 21.1642 17.1642 21.5 16.75 21.5C16.3358 21.5 16 21.1642 16 20.75V15.75C16 15.0596 15.4404 14.5 14.75 14.5H13.5L13.5 20.75C13.5 21.1642 13.1642 21.5 12.75 21.5C12.3358 21.5 12 21.1642 12 20.75L12 14.5H11.0605L9.28027 16.2803C8.98738 16.5732 8.51262 16.5732 8.21973 16.2803L6.43945 14.5H5.5L5.5 20.75C5.5 21.1642 5.16421 21.5 4.75 21.5C4.33579 21.5 4 21.1642 4 20.75L4 14.5L2.75 14.5C2.05964 14.5 1.5 15.0596 1.5 15.75L1.5 20.75C1.5 21.1642 1.16421 21.5 0.75 21.5C0.335786 21.5 0 21.1642 0 20.75L0 15.75C0 14.2312 1.23122 13 2.75 13L6.75 13ZM8.75 0C9.16421 0 9.5 0.335786 9.5 0.75V1.56641C11.4096 1.90645 12.8774 3.52144 12.9922 5.5H13.25C13.6642 5.5 14 5.83579 14 6.25C14 6.66421 13.6642 7 13.25 7H13V7.75C13 10.0972 11.0972 12 8.75 12C6.40279 12 4.5 10.0972 4.5 7.75V7H4.25C3.83579 7 3.5 6.66421 3.5 6.25C3.5 5.83579 3.83579 5.5 4.25 5.5H4.50781C4.6226 3.52144 6.09038 1.90645 8 1.56641V0.75C8 0.335786 8.33579 0 8.75 0ZM6 7.75C6 9.26878 7.23122 10.5 8.75 10.5C10.2688 10.5 11.5 9.26878 11.5 7.75V7L6 7V7.75ZM8.75 3C7.31553 3 6.13906 4.09844 6.0127 5.5L11.4873 5.5C11.3609 4.09844 10.1845 3 8.75 3Z" fill="#713DEC"/>
</svg>
