<svg width="26" height="26" viewBox="0 0 26 26" fill="none" xmlns="http://www.w3.org/2000/svg">
<path d="M13 0.949936C15.0608 0.949948 17.0875 1.47863 18.8857 2.48509C20.6838 3.49155 22.1939 4.94257 23.2715 6.69896L23.2783 6.70872C24.44 8.60127 25.0529 10.7801 25.0498 13.0007C25.0527 15.2209 24.4397 17.3985 23.2783 19.2908L23.2715 19.3015C22.1939 21.0579 20.6839 22.5089 18.8857 23.5154C17.0875 24.5218 15.0607 25.0505 13 25.0505C10.9394 25.0505 8.91339 24.5216 7.11523 23.5154C5.31696 22.509 3.80623 21.058 2.72852 19.3015L2.72168 19.2917V19.2908C1.56305 17.397 0.950195 15.2198 0.950195 12.9997C0.95025 10.7797 1.563 8.60242 2.72168 6.70872L2.72852 6.69896C3.80612 4.94253 5.31613 3.49156 7.11426 2.48509C8.91255 1.47862 10.9392 0.949936 13 0.949936ZM13 18.8562C11.7986 18.8576 10.5984 18.894 9.39941 18.9665C9.71709 20.1416 10.232 21.2544 10.9248 22.2556C11.2662 22.7548 11.7273 23.1608 12.2656 23.4363C12.4947 23.5451 12.7464 23.6013 13 23.6013C13.2536 23.6013 13.5044 23.5451 13.7334 23.4363L13.9404 23.3279C14.1428 23.2112 14.3305 23.0696 14.499 22.907C15.1233 22.2759 15.6208 21.5308 15.9629 20.7117V20.7107C16.2153 20.1448 16.4273 19.5617 16.5996 18.9665C15.4004 18.8926 14.2005 18.8562 13 18.8562ZM7.92285 19.0749C6.80923 19.169 5.69892 19.2958 4.5918 19.4538C5.90135 21.1617 7.69911 22.4287 9.74609 23.0896C9.34067 22.5339 8.99484 21.9368 8.7168 21.3074L8.48242 20.7507C8.26409 20.2034 8.07725 19.6439 7.92285 19.0749ZM18.0742 19.0749C17.7136 20.5115 17.0977 21.8709 16.2559 23.0896C17.8543 22.5733 19.3088 21.6862 20.4971 20.4968C20.8233 20.1698 21.127 19.8212 21.4082 19.4548C20.2993 19.2978 19.1881 19.17 18.0742 19.0749ZM2.42578 13.7243C2.52844 15.267 2.96943 16.7678 3.71777 18.1208C5.00518 17.9226 6.2959 17.7662 7.58984 17.6511C7.33931 16.3562 7.19757 15.0428 7.16406 13.7243H2.42578ZM18.8359 13.7243C18.8024 15.0429 18.6592 16.3563 18.4082 17.6511C19.7033 17.7659 20.9943 17.9223 22.2812 18.1208C23.0297 16.7677 23.4715 15.2671 23.5742 13.7243H18.8359ZM8.6123 13.7243C8.64681 15.0056 8.79172 16.2815 9.0459 17.5378C10.3632 17.4507 11.6813 17.4079 13 17.4079C14.3194 17.4097 15.6375 17.4533 16.9541 17.5388C17.2082 16.2821 17.3535 15.006 17.3877 13.7243H8.6123ZM22.2812 7.87865C20.9938 8.0769 19.7031 8.23327 18.4092 8.34837C18.6598 9.6436 18.8024 10.9573 18.8359 12.2761H23.5742C23.4716 10.733 23.0299 9.23199 22.2812 7.87865ZM16.9531 8.46068C15.6362 8.54794 14.3184 8.59251 13 8.59251C11.6802 8.59073 10.3619 8.54625 9.04492 8.46068C8.79079 9.7176 8.6465 10.9942 8.6123 12.2761H17.3867C17.3522 10.9941 17.2075 9.71763 16.9531 8.46068ZM3.71777 7.87865C2.96919 9.23187 2.52845 10.7332 2.42578 12.2761H7.16406C7.19764 10.9573 7.33973 9.64348 7.59082 8.34837C6.29559 8.2336 5.00458 8.07725 3.71777 7.87865ZM13 2.39818C12.7464 2.39819 12.4957 2.45438 12.2666 2.56322C11.9842 2.69659 11.7257 2.87568 11.501 3.09251C10.8765 3.72368 10.3793 4.46953 10.0371 5.2888V5.28978C9.78486 5.85524 9.57165 6.43729 9.39941 7.03197C10.599 7.1059 11.7992 7.14427 13 7.14427C14.2011 7.14286 15.4009 7.10451 16.5996 7.03197C16.2819 5.85763 15.7676 4.74553 15.0752 3.74486C14.7335 3.24513 14.2715 2.83866 13.7324 2.56322V2.56224C13.5037 2.45377 13.2532 2.39818 13 2.39818ZM9.74316 2.9099C8.14514 3.4262 6.6919 4.31453 5.50391 5.50365C5.17768 5.83063 4.873 6.17832 4.5918 6.54466C5.70067 6.70173 6.81191 6.8285 7.92578 6.92357C8.28638 5.48762 8.90169 4.12812 9.74316 2.9099ZM16.2529 2.90892C16.6589 3.46512 17.0049 4.06292 17.2832 4.6931C17.6045 5.41502 17.8682 6.16104 18.0752 6.92357C19.189 6.82954 20.2996 6.70368 21.4072 6.54564C20.0974 4.83784 18.3002 3.56956 16.2529 2.90892Z" fill="#9AA4B2" stroke="#9AA4B2" stroke-width="0.1"/>
</svg>
