<svg width="26" height="26" viewBox="0 0 26 26" fill="none" xmlns="http://www.w3.org/2000/svg">
<path d="M13 0.949951C15.0608 0.949963 17.0875 1.47865 18.8857 2.48511C20.6838 3.49157 22.1939 4.94259 23.2715 6.69897L23.2783 6.70874C24.44 8.60129 25.0529 10.7801 25.0498 13.0007C25.0527 15.221 24.4397 17.3985 23.2783 19.2908L23.2715 19.3015C22.1939 21.0579 20.6839 22.5089 18.8857 23.5154C17.0875 24.5218 15.0607 25.0505 13 25.0505C10.9394 25.0505 8.91339 24.5217 7.11523 23.5154C5.31696 22.509 3.80623 21.058 2.72852 19.3015L2.72168 19.2917V19.2908C1.56305 17.3971 0.950195 15.2198 0.950195 12.9998C0.95025 10.7797 1.563 8.60243 2.72168 6.70874L2.72852 6.69897C3.80612 4.94255 5.31613 3.49157 7.11426 2.48511C8.91255 1.47864 10.9392 0.949951 13 0.949951ZM13 18.8562C11.7986 18.8576 10.5984 18.894 9.39941 18.9666C9.71709 20.1416 10.232 21.2544 10.9248 22.2556C11.2662 22.7548 11.7273 23.1609 12.2656 23.4363C12.4947 23.5451 12.7464 23.6013 13 23.6013C13.2536 23.6013 13.5044 23.5451 13.7334 23.4363L13.9404 23.3279C14.1428 23.2112 14.3305 23.0696 14.499 22.907C15.1233 22.2759 15.6208 21.5308 15.9629 20.7117V20.7107C16.2153 20.1448 16.4273 19.5617 16.5996 18.9666C15.4004 18.8927 14.2005 18.8562 13 18.8562ZM7.92285 19.075C6.80923 19.169 5.69892 19.2958 4.5918 19.4539C5.90135 21.1617 7.69911 22.4287 9.74609 23.0896C9.34067 22.5339 8.99484 21.9369 8.7168 21.3074L8.48242 20.7507C8.26409 20.2034 8.07725 19.6439 7.92285 19.075ZM18.0742 19.075C17.7136 20.5115 17.0977 21.8709 16.2559 23.0896C17.8543 22.5733 19.3088 21.6862 20.4971 20.4968C20.8233 20.1698 21.127 19.8212 21.4082 19.4548C20.2993 19.2978 19.1881 19.17 18.0742 19.075ZM2.42578 13.7244C2.52844 15.267 2.96943 16.7678 3.71777 18.1208C5.00518 17.9226 6.2959 17.7662 7.58984 17.6511C7.33931 16.3563 7.19757 15.0428 7.16406 13.7244H2.42578ZM18.8359 13.7244C18.8024 15.0429 18.6592 16.3563 18.4082 17.6511C19.7033 17.7659 20.9943 17.9223 22.2812 18.1208C23.0297 16.7678 23.4715 15.2671 23.5742 13.7244H18.8359ZM8.6123 13.7244C8.64681 15.0056 8.79172 16.2815 9.0459 17.5378C10.3632 17.4507 11.6813 17.408 13 17.408C14.3194 17.4097 15.6375 17.4533 16.9541 17.5388C17.2082 16.2821 17.3535 15.006 17.3877 13.7244H8.6123ZM22.2812 7.87866C20.9938 8.07692 19.7031 8.23329 18.4092 8.34839C18.6598 9.64362 18.8024 10.9573 18.8359 12.2761H23.5742C23.4716 10.7331 23.0299 9.232 22.2812 7.87866ZM16.9531 8.46069C15.6362 8.54795 14.3184 8.59253 13 8.59253C11.6802 8.59075 10.3619 8.54627 9.04492 8.46069C8.79079 9.71761 8.6465 10.9942 8.6123 12.2761H17.3867C17.3522 10.9942 17.2075 9.71765 16.9531 8.46069ZM3.71777 7.87866C2.96919 9.23188 2.52845 10.7332 2.42578 12.2761H7.16406C7.19764 10.9573 7.33973 9.64349 7.59082 8.34839C6.29559 8.23361 5.00458 8.07727 3.71777 7.87866ZM13 2.39819C12.7464 2.3982 12.4957 2.45439 12.2666 2.56323C11.9842 2.69661 11.7257 2.87569 11.501 3.09253C10.8765 3.72369 10.3793 4.46955 10.0371 5.28882V5.28979C9.78486 5.85525 9.57165 6.4373 9.39941 7.03198C10.599 7.10592 11.7992 7.14429 13 7.14429C14.2011 7.14287 15.4009 7.10453 16.5996 7.03198C16.2819 5.85765 15.7676 4.74554 15.0752 3.74487C14.7335 3.24514 14.2715 2.83868 13.7324 2.56323V2.56226C13.5037 2.45378 13.2532 2.39819 13 2.39819ZM9.74316 2.90991C8.14514 3.42622 6.6919 4.31455 5.50391 5.50366C5.17768 5.83064 4.873 6.17834 4.5918 6.54468C5.70067 6.70175 6.81191 6.82851 7.92578 6.92358C8.28638 5.48763 8.90169 4.12814 9.74316 2.90991ZM16.2529 2.90894C16.6589 3.46513 17.0049 4.06294 17.2832 4.69312C17.6045 5.41503 17.8682 6.16105 18.0752 6.92358C19.189 6.82955 20.2996 6.7037 21.4072 6.54565C20.0974 4.83786 18.3002 3.56957 16.2529 2.90894Z" fill="#9AA4B2" stroke="#9AA4B2" stroke-width="0.1"/>
</svg>
