<svg width="22" height="22" viewBox="0 0 22 22" fill="none" xmlns="http://www.w3.org/2000/svg">
<path d="M10.7425 6.31887C10.2264 6.31887 9.80423 5.89666 9.80423 5.38063V1.62769C9.80423 1.11166 10.2264 0.689453 10.7425 0.689453C11.2585 0.689453 11.6807 1.11166 11.6807 1.62769V5.38063C11.6807 5.89666 11.2585 6.31887 10.7425 6.31887ZM10.7425 21.3306C10.2264 21.3306 9.80423 20.9084 9.80423 20.3924V16.6395C9.80423 16.1234 10.2264 15.7012 10.7425 15.7012C11.2585 15.7012 11.6807 16.1234 11.6807 16.6395V20.3924C11.6807 20.9084 11.2585 21.3306 10.7425 21.3306ZM20.1248 11.9483H16.3719C15.8558 11.9483 15.4336 11.5261 15.4336 11.01C15.4336 10.494 15.8558 10.0718 16.3719 10.0718H20.1248C20.6408 10.0718 21.0631 10.494 21.0631 11.01C21.0631 11.5261 20.6408 11.9483 20.1248 11.9483ZM5.11305 11.9483H1.36011C0.844081 11.9483 0.421875 11.5261 0.421875 11.01C0.421875 10.494 0.844081 10.0718 1.36011 10.0718H5.11305C5.62908 10.0718 6.05129 10.494 6.05129 11.01C6.05129 11.5261 5.62908 11.9483 5.11305 11.9483ZM17.3758 18.5816C17.1318 18.5816 16.8973 18.4878 16.7096 18.3095L14.0544 15.6543C13.9676 15.5674 13.8987 15.4643 13.8517 15.3508C13.8046 15.2373 13.7805 15.1157 13.7805 14.9929C13.7805 14.87 13.8046 14.7484 13.8517 14.6349C13.8987 14.5214 13.9676 14.4183 14.0544 14.3314C14.1413 14.2445 14.2444 14.1756 14.3579 14.1286C14.4714 14.0816 14.593 14.0574 14.7159 14.0574C14.8387 14.0574 14.9604 14.0816 15.0739 14.1286C15.1874 14.1756 15.2905 14.2445 15.3773 14.3314L18.0326 16.9866C18.1635 17.1176 18.2525 17.2846 18.2884 17.4663C18.3242 17.6481 18.3052 17.8363 18.2338 18.0073C18.1624 18.1782 18.0419 18.324 17.8874 18.4263C17.733 18.5286 17.5516 18.5826 17.3664 18.5816H17.3758ZM6.76435 7.97016C6.5204 7.97016 6.28585 7.87634 6.0982 7.69807L3.44299 5.04286C3.35613 4.956 3.28723 4.85288 3.24021 4.73939C3.1932 4.62589 3.16901 4.50425 3.16901 4.38141C3.16901 4.25857 3.1932 4.13692 3.24021 4.02343C3.28723 3.90994 3.35613 3.80682 3.44299 3.71995C3.52986 3.63309 3.63298 3.56419 3.74647 3.51718C3.85996 3.47017 3.98161 3.44597 4.10445 3.44597C4.22729 3.44597 4.34893 3.47017 4.46243 3.51718C4.57592 3.56419 4.67904 3.63309 4.7659 3.71995L7.42111 6.37516C7.55204 6.50619 7.64107 6.67317 7.67691 6.8549C7.71275 7.03663 7.69377 7.22491 7.62238 7.39583C7.551 7.56675 7.43043 7.7126 7.27598 7.81486C7.12154 7.91712 6.94019 7.97117 6.75496 7.97016H6.76435ZM4.10914 18.5816C3.8652 18.5816 3.63064 18.4878 3.44299 18.3095C3.35601 18.2227 3.28701 18.1196 3.23993 18.0061C3.19285 17.8926 3.16861 17.7709 3.16861 17.6481C3.16861 17.5252 3.19285 17.4035 3.23993 17.29C3.28701 17.1765 3.35601 17.0734 3.44299 16.9866L6.0982 14.3314C6.18506 14.2445 6.28818 14.1756 6.40168 14.1286C6.51517 14.0816 6.63681 14.0574 6.75965 14.0574C6.8825 14.0574 7.00414 14.0816 7.11763 14.1286C7.23112 14.1756 7.33425 14.2445 7.42111 14.3314C7.50797 14.4183 7.57688 14.5214 7.62389 14.6349C7.6709 14.7484 7.6951 14.87 7.6951 14.9929C7.6951 15.1157 7.6709 15.2373 7.62389 15.3508C7.57688 15.4643 7.50797 15.5674 7.42111 15.6543L4.7659 18.3095C4.57826 18.4972 4.3437 18.5816 4.09976 18.5816H4.10914ZM14.7206 7.97016C14.4766 7.97016 14.2421 7.87634 14.0544 7.69807C13.9675 7.61127 13.8985 7.50817 13.8514 7.39467C13.8043 7.28117 13.7801 7.15949 13.7801 7.03661C13.7801 6.91374 13.8043 6.79206 13.8514 6.67856C13.8985 6.56506 13.9675 6.46196 14.0544 6.37516L16.7096 3.71995C16.7965 3.63309 16.8996 3.56419 17.0131 3.51718C17.1266 3.47017 17.2483 3.44597 17.3711 3.44597C17.4939 3.44597 17.6156 3.47017 17.7291 3.51718C17.8426 3.56419 17.9457 3.63309 18.0326 3.71995C18.1194 3.80682 18.1883 3.90994 18.2353 4.02343C18.2823 4.13692 18.3065 4.25857 18.3065 4.38141C18.3065 4.50425 18.2823 4.62589 18.2353 4.73939C18.1883 4.85288 18.1194 4.956 18.0326 5.04286L15.3773 7.69807C15.1897 7.88572 14.9551 7.97016 14.7112 7.97016H14.7206Z" fill="#C69815"/>
</svg>
