<svg width="16" height="16" viewBox="0 0 16 16" fill="none" xmlns="http://www.w3.org/2000/svg">
<path fill-rule="evenodd" clip-rule="evenodd" d="M11.5205 11.8477C11.6042 11.5846 11.8854 11.4389 12.1484 11.5225C12.6238 11.6737 13.0235 11.9054 13.3135 12.1729C13.5859 12.4242 13.83 12.7741 13.8301 13.168C13.8301 13.6326 13.4995 13.9608 13.1875 14.168C12.8563 14.3878 12.4099 14.5667 11.9033 14.709C10.8829 14.9955 9.502 15.166 7.99707 15.166C6.49215 15.166 5.1112 14.9955 4.09082 14.709C3.58426 14.5667 3.13787 14.3878 2.80664 14.168C2.4946 13.9608 2.16406 13.6326 2.16406 13.168C2.16418 12.7741 2.40821 12.4242 2.68066 12.1729C2.97064 11.9054 3.37035 11.6737 3.8457 11.5225C4.10877 11.4389 4.38994 11.5846 4.47363 11.8477C4.55728 12.1108 4.41155 12.3919 4.14844 12.4756C3.79417 12.5883 3.52759 12.7521 3.3584 12.9082C3.21353 13.0419 3.17634 13.1335 3.16699 13.1611C3.17957 13.1836 3.22259 13.2442 3.35938 13.335C3.56789 13.4734 3.90302 13.6174 4.36133 13.7461C5.27119 14.0015 6.5568 14.166 7.99707 14.166C9.43735 14.166 10.723 14.0015 11.6328 13.7461C12.0911 13.6174 12.4263 13.4734 12.6348 13.335C12.7716 13.2442 12.8146 13.1836 12.8271 13.1611C12.8178 13.1335 12.7806 13.0419 12.6357 12.9082C12.4666 12.7521 12.2 12.5883 11.8457 12.4756C11.5826 12.3919 11.4369 12.1108 11.5205 11.8477ZM7.99707 0.832031C10.8637 0.832031 13.1641 3.21907 13.1641 6.13281C13.1639 7.91349 12.2133 9.33555 11.1914 10.3516C10.1666 11.3704 9.01846 12.0341 8.5 12.3066C8.18311 12.4732 7.81103 12.4732 7.49414 12.3066C6.97568 12.0341 5.82751 11.3704 4.80273 10.3516C3.78085 9.33555 2.83024 7.91349 2.83008 6.13281C2.83008 3.21907 5.13041 0.832031 7.99707 0.832031ZM7.99707 1.83203C5.70907 1.83203 3.83008 3.74462 3.83008 6.13281C3.83024 7.53885 4.58056 8.72067 5.50781 9.64258C6.43217 10.5616 7.48223 11.1702 7.95898 11.4209C7.98465 11.4344 8.00949 11.4344 8.03516 11.4209C8.51191 11.1702 9.56197 10.5616 10.4863 9.64258C11.4136 8.72067 12.1639 7.53885 12.1641 6.13281C12.1641 3.74462 10.2851 1.83203 7.99707 1.83203ZM7.99707 3.83203C9.19369 3.83203 10.1641 4.80241 10.1641 5.99902C10.1641 7.19564 9.19369 8.16602 7.99707 8.16602C6.80045 8.16602 5.83008 7.19564 5.83008 5.99902C5.83008 4.80241 6.80045 3.83203 7.99707 3.83203ZM7.99707 4.83203C7.35274 4.83203 6.83008 5.35469 6.83008 5.99902C6.83008 6.64336 7.35274 7.16602 7.99707 7.16602C8.6414 7.16602 9.16406 6.64336 9.16406 5.99902C9.16406 5.35469 8.6414 4.83203 7.99707 4.83203Z" fill="#4B5565"/>
</svg>
