<svg width="24" height="24" viewBox="0 0 24 24" fill="none" xmlns="http://www.w3.org/2000/svg">
<path d="M17.2852 17.7725C17.4108 17.3779 17.8329 17.1596 18.2275 17.2852C18.9407 17.512 19.5406 17.8595 19.9756 18.2607C20.3843 18.6378 20.75 19.163 20.75 19.7539C20.75 20.4508 20.2542 20.9422 19.7861 21.2529C19.2892 21.5828 18.6195 21.851 17.8594 22.0645C16.3288 22.4942 14.2575 22.75 12 22.75C9.74255 22.75 7.67121 22.4942 6.14062 22.0645C5.38053 21.851 4.71075 21.5828 4.21387 21.2529C3.74583 20.9422 3.25002 20.4508 3.25 19.7539C3.25 19.163 3.61571 18.6378 4.02441 18.2607C4.4594 17.8595 5.05929 17.512 5.77246 17.2852C6.16708 17.1596 6.58915 17.3779 6.71484 17.7725C6.8404 18.1671 6.62215 18.5892 6.22754 18.7148C5.69605 18.8839 5.29582 19.1292 5.04199 19.3633C4.82454 19.5639 4.7689 19.7017 4.75488 19.7432C4.77374 19.7769 4.83876 19.8667 5.04395 20.0029C5.35671 20.2105 5.85836 20.4271 6.5459 20.6201C7.91072 21.0033 9.83929 21.25 12 21.25C14.1607 21.25 16.0893 21.0033 17.4541 20.6201C18.1416 20.4271 18.6433 20.2105 18.9561 20.0029C19.1612 19.8667 19.2263 19.7769 19.2451 19.7432C19.2311 19.7017 19.1755 19.5639 18.958 19.3633C18.7042 19.1292 18.3039 18.8839 17.7725 18.7148C17.3778 18.5892 17.1596 18.1671 17.2852 17.7725ZM12 1.25C16.3 1.25 19.75 4.82959 19.75 9.2002C19.7499 11.8716 18.324 14.0052 16.791 15.5293C15.2542 17.0572 13.5327 18.052 12.7549 18.4609C12.2794 18.7109 11.7206 18.7109 11.2451 18.4609C10.4673 18.052 8.74584 17.0572 7.20898 15.5293C5.67596 14.0052 4.25007 11.8716 4.25 9.2002C4.25 4.82959 7.70002 1.25 12 1.25ZM12 2.75C8.568 2.75 5.75 5.6179 5.75 9.2002C5.75007 11.3095 6.87555 13.0828 8.2666 14.4658C9.6533 15.8444 11.2285 16.757 11.9434 17.1328C11.9819 17.153 12.0181 17.153 12.0566 17.1328C12.7715 16.757 14.3467 15.8444 15.7334 14.4658C17.1244 13.0828 18.2499 11.3095 18.25 9.2002C18.25 5.6179 15.432 2.75 12 2.75ZM12 5.75C13.7949 5.75 15.25 7.20507 15.25 9C15.25 10.7949 13.7949 12.25 12 12.25C10.2051 12.25 8.75 10.7949 8.75 9C8.75 7.20507 10.2051 5.75 12 5.75ZM12 7.25C11.0335 7.25 10.25 8.0335 10.25 9C10.25 9.9665 11.0335 10.75 12 10.75C12.9665 10.75 13.75 9.9665 13.75 9C13.75 8.0335 12.9665 7.25 12 7.25Z" fill="#161616"/>
</svg>
