<svg width="22" height="27" viewBox="0 0 22 27" fill="none" xmlns="http://www.w3.org/2000/svg">
<path d="M17.5449 20.6533C17.7019 20.16 18.2284 19.8872 18.7217 20.0439C19.6132 20.3276 20.3635 20.7611 20.9072 21.2627C21.4181 21.734 21.8748 22.3903 21.875 23.1289C21.875 23.9998 21.2558 24.6145 20.6709 25.0029C20.0499 25.4152 19.2127 25.7508 18.2627 26.0176C16.3494 26.5548 13.7595 26.875 10.9375 26.875C8.11567 26.875 5.52647 26.5548 3.61328 26.0176C2.66317 25.7508 1.82618 25.4153 1.20508 25.0029C0.620081 24.6145 0 23.9999 0 23.1289C0.000198752 22.3903 0.457874 21.734 0.96875 21.2627C1.51243 20.7612 2.262 20.3275 3.15332 20.0439C3.64672 19.887 4.17409 20.1599 4.33105 20.6533C4.48792 21.1467 4.21503 21.6741 3.72168 21.8311C3.0577 22.0424 2.55746 22.3481 2.24023 22.6406C1.96865 22.8912 1.89846 23.0633 1.88086 23.1152C1.90403 23.157 1.98456 23.2704 2.24219 23.4414C2.6331 23.7009 3.26071 23.9706 4.12012 24.2119C5.82607 24.6909 8.23676 25 10.9375 25C13.6384 25 16.0498 24.691 17.7559 24.2119C18.6151 23.9706 19.2429 23.7009 19.6338 23.4414C19.8913 23.2704 19.971 23.157 19.9941 23.1152C19.9764 23.063 19.907 22.8908 19.6357 22.6406C19.3185 22.348 18.8176 22.0424 18.1533 21.8311C17.6601 21.674 17.388 21.1466 17.5449 20.6533ZM10.9385 0C16.3135 0 20.626 4.47424 20.626 9.9375C20.6259 13.2767 18.844 15.9434 16.9277 17.8486C15.0064 19.7588 12.854 21.0026 11.8818 21.5137C11.2875 21.8261 10.5894 21.8261 9.99512 21.5137C9.02286 21.0026 6.87046 19.7587 4.94922 17.8486C3.033 15.9435 1.25101 13.2767 1.25098 9.9375C1.25098 4.47426 5.56353 3.88992e-05 10.9385 0ZM10.9385 1.875C6.6485 1.87504 3.12598 5.45966 3.12598 9.9375C3.12601 12.5742 4.53264 14.7908 6.27148 16.5195C8.00515 18.2431 9.97468 19.3838 10.8682 19.8535C10.9163 19.8788 10.9607 19.8788 11.0088 19.8535C11.9022 19.3839 13.8718 18.2431 15.6055 16.5195C17.3443 14.7908 18.7509 12.5742 18.751 9.9375C18.751 5.45963 15.2285 1.875 10.9385 1.875ZM10.9375 5.625C13.1811 5.625 14.9999 7.44392 15 9.6875C15 11.9312 13.1812 13.75 10.9375 13.75C8.694 13.7498 6.875 11.931 6.875 9.6875C6.87509 7.44404 8.69406 5.62519 10.9375 5.625ZM10.9375 7.5C9.7296 7.50019 8.75009 8.47957 8.75 9.6875C8.75 10.8955 9.72954 11.8748 10.9375 11.875C12.1456 11.875 13.125 10.8956 13.125 9.6875C13.1249 8.47946 12.1456 7.5 10.9375 7.5Z" fill="#161616"/>
</svg>
