<svg width="20" height="20" viewBox="0 0 20 20" fill="none" xmlns="http://www.w3.org/2000/svg">
<path d="M4.00195 13.9346C4.13016 13.6142 4.494 13.4588 4.81445 13.5869C5.13469 13.7151 5.29086 14.0781 5.16309 14.3984L3.9541 17.4229C3.89939 17.5597 4.00009 17.709 4.14746 17.709H15.8008C15.9514 17.709 16.0521 17.5537 15.9912 17.416L14.8457 14.8369C14.7057 14.5217 14.8471 14.153 15.1621 14.0127C15.4775 13.8725 15.8471 14.0147 15.9873 14.3301L17.1338 16.9082C17.562 17.8725 16.856 18.959 15.8008 18.959H4.14746C3.11591 18.959 2.41016 17.9168 2.79297 16.959L4.00195 13.9346ZM10 1.04199C13.5833 1.04199 16.458 4.02482 16.458 7.66699C16.4579 9.89285 15.2705 11.6704 13.9932 12.9404C12.7123 14.2138 11.2771 15.043 10.6289 15.3838C10.2327 15.5921 9.7673 15.5921 9.37109 15.3838C8.72281 15.043 7.28849 14.2137 6.00781 12.9404C4.73035 11.6704 3.54211 9.89305 3.54199 7.66699C3.54199 4.02487 6.41675 1.04208 10 1.04199ZM10 2.29199C7.14007 2.29208 4.79199 4.6818 4.79199 7.66699C4.79211 9.4247 5.7295 10.9022 6.88867 12.0547C8.0444 13.2037 9.3574 13.9642 9.95312 14.2773C9.98517 14.2942 10.0148 14.2942 10.0469 14.2773C10.6425 13.9642 11.9555 13.2037 13.1113 12.0547C14.2705 10.9022 15.2079 9.4247 15.208 7.66699C15.208 4.68175 12.86 2.29199 10 2.29199ZM10 4.79199C11.4958 4.79199 12.708 6.00423 12.708 7.5C12.708 8.99577 11.4958 10.208 10 10.208C8.5043 10.2079 7.29199 8.99572 7.29199 7.5C7.29199 6.00428 8.5043 4.79207 10 4.79199ZM10 6.04199C9.19465 6.04207 8.54199 6.69463 8.54199 7.5C8.54199 8.30537 9.19465 8.95793 10 8.95801C10.8054 8.95801 11.458 8.30542 11.458 7.5C11.458 6.69458 10.8054 6.04199 10 6.04199Z" fill="#4D0CE7"/>
</svg>
