<svg width="19" height="21" viewBox="0 0 19 21" fill="none" xmlns="http://www.w3.org/2000/svg">
<path d="M9.25 0C14.3224 0 18.5 3.91869 18.5 8.83105C18.4999 11.4871 17.1981 13.5069 15.6182 15.2354C14.8791 16.0439 14.0584 16.8104 13.2646 17.5518C13.2127 17.6003 13.1611 17.6489 13.1094 17.6973C12.2585 18.4926 11.4437 19.263 10.7363 20.0723C9.96134 20.959 8.53452 20.9299 7.78516 20.0391C7.09562 19.2191 6.28966 18.4504 5.44141 17.6641C5.32677 17.5578 5.21083 17.451 5.09473 17.3438C4.36267 16.6676 3.60855 15.9708 2.92383 15.2402C1.32744 13.537 0.00011281 11.5384 0 8.83105C0 3.91869 4.17757 0 9.25 0ZM9.25 1.5C4.93359 1.5 1.5 4.81771 1.5 8.83105C1.50011 10.9838 2.53201 12.6299 4.01758 14.2148C4.66224 14.9026 5.3727 15.5576 6.10742 16.2363C6.22464 16.3446 6.34261 16.4538 6.46094 16.5635C7.31026 17.3508 8.17816 18.1749 8.93359 19.0732C9.09967 19.2705 9.44551 19.2698 9.60645 19.0859C10.3707 18.2115 11.2391 17.3923 12.085 16.6016C12.1332 16.5565 12.1815 16.5117 12.2295 16.4668C13.0339 15.7153 13.8132 14.9868 14.5107 14.2236C15.9842 12.6117 16.9999 10.9413 17 8.83105C17 4.81771 13.5664 1.5 9.25 1.5ZM9.25 5C11.5972 5 13.5 6.90279 13.5 9.25C13.5 11.5972 11.5972 13.5 9.25 13.5C6.90279 13.5 5 11.5972 5 9.25C5 6.90279 6.90279 5 9.25 5ZM9.25 6.5C7.73122 6.5 6.5 7.73122 6.5 9.25C6.5 10.7688 7.73122 12 9.25 12C10.7688 12 12 10.7688 12 9.25C12 7.73122 10.7688 6.5 9.25 6.5Z" fill="#C69815"/>
</svg>
