<svg width="24" height="24" viewBox="0 0 24 24" fill="none" xmlns="http://www.w3.org/2000/svg">
<path d="M12 1.25C17.0724 1.25 21.25 5.16869 21.25 10.0811C21.2499 12.7371 19.9481 14.7569 18.3682 16.4854C17.6291 17.2939 16.8084 18.0604 16.0146 18.8018C15.9627 18.8503 15.9111 18.8989 15.8594 18.9473C15.0085 19.7426 14.1937 20.513 13.4863 21.3223C12.7113 22.209 11.2845 22.1799 10.5352 21.2891C9.84562 20.4691 9.03966 19.7004 8.19141 18.9141C8.07677 18.8078 7.96083 18.701 7.84473 18.5938C7.11267 17.9176 6.35855 17.2208 5.67383 16.4902C4.07744 14.787 2.75011 12.7884 2.75 10.0811C2.75 5.16869 6.92757 1.25 12 1.25ZM12 2.75C7.68359 2.75 4.25 6.06771 4.25 10.0811C4.25011 12.2338 5.28201 13.8799 6.76758 15.4648C7.41224 16.1526 8.1227 16.8076 8.85742 17.4863C8.97464 17.5946 9.09261 17.7038 9.21094 17.8135C10.0603 18.6008 10.9282 19.4249 11.6836 20.3232C11.8497 20.5205 12.1955 20.5198 12.3564 20.3359C13.1207 19.4615 13.9891 18.6423 14.835 17.8516C14.8832 17.8065 14.9315 17.7617 14.9795 17.7168C15.7839 16.9653 16.5632 16.2368 17.2607 15.4736C18.7342 13.8617 19.7499 12.1913 19.75 10.0811C19.75 6.06771 16.3164 2.75 12 2.75ZM12 6.25C14.3472 6.25 16.25 8.15279 16.25 10.5C16.25 12.8472 14.3472 14.75 12 14.75C9.65279 14.75 7.75 12.8472 7.75 10.5C7.75 8.15279 9.65279 6.25 12 6.25ZM12 7.75C10.4812 7.75 9.25 8.98122 9.25 10.5C9.25 12.0188 10.4812 13.25 12 13.25C13.5188 13.25 14.75 12.0188 14.75 10.5C14.75 8.98122 13.5188 7.75 12 7.75Z" fill="#4D0CE7"/>
</svg>
