<svg width="16" height="16" viewBox="0 0 16 16" fill="none" xmlns="http://www.w3.org/2000/svg">
<path fill-rule="evenodd" clip-rule="evenodd" d="M13.3359 2.16797C14.3485 2.16797 15.1699 2.98845 15.1699 4.00098V12.001C15.1699 13.0135 14.3485 13.834 13.3359 13.834H2.66992C1.6574 13.834 0.835938 13.0135 0.835938 12.001V4.00098C0.835938 2.98845 1.6574 2.16797 2.66992 2.16797H13.3359ZM8.82324 8.15039C8.30724 8.40837 7.69963 8.40827 7.18359 8.15039L1.83594 5.47656V12.001C1.83594 12.4612 2.20968 12.834 2.66992 12.834H13.3359C13.7962 12.834 14.1699 12.4612 14.1699 12.001V5.47656L8.82324 8.15039ZM2.66992 3.16797C2.20968 3.16797 1.83594 3.54074 1.83594 4.00098V4.3584L7.63086 7.25586C7.86537 7.37297 8.1415 7.37307 8.37598 7.25586L14.1699 4.3584V4.00098C14.1699 3.54074 13.7962 3.16797 13.3359 3.16797H2.66992Z" fill="#4B5565"/>
</svg>
