<svg width="40" height="40" viewBox="0 0 40 40" fill="none" xmlns="http://www.w3.org/2000/svg">
<rect width="40" height="40" rx="8" fill="#EDE7FD"/>
<path d="M26 19.25C28.6303 19.25 30.7498 21.4017 30.75 24.04C30.75 25.4748 30.0902 26.5602 29.3271 27.4531C28.9634 27.8788 28.5593 28.2795 28.1816 28.6543C28.1671 28.6688 28.1522 28.6829 28.1377 28.6973C27.7389 29.0932 27.3705 29.4627 27.0498 29.8467C26.5064 30.4974 25.4808 30.4743 24.958 29.8252C24.6475 29.4396 24.284 29.0734 23.8877 28.6836C23.8448 28.6414 23.8015 28.5985 23.7578 28.5557C23.4077 28.2122 23.0343 27.8456 22.6963 27.46C21.9239 26.5787 21.25 25.5023 21.25 24.04C21.2502 21.4017 23.3697 19.25 26 19.25ZM26 20.75C24.2123 20.75 22.7502 22.2159 22.75 24.04C22.75 24.9851 23.1663 25.72 23.8242 26.4707C24.1226 26.8111 24.4531 27.1364 24.8086 27.4854C24.8519 27.5278 24.8955 27.571 24.9395 27.6143C25.2958 27.9647 25.6724 28.3402 26.0146 28.748C26.3566 28.3533 26.7293 27.982 27.0811 27.6328L27.1074 27.6064C27.4984 27.2184 27.8636 26.8564 28.1865 26.4785C28.84 25.7138 29.25 24.9657 29.25 24.04C29.2498 22.2159 27.7877 20.75 26 20.75ZM15.25 9.53613C15.7104 9.30605 16.2486 9.29043 16.7217 9.49316L23.1543 12.25H29C29.9665 12.25 30.75 13.0335 30.75 14V18C30.7498 18.4141 30.4141 18.75 30 18.75C29.5859 18.75 29.2502 18.4141 29.25 18V14C29.25 13.8619 29.1381 13.75 29 13.75H23.75V17.5C23.75 17.9142 23.4142 18.25 23 18.25C22.5858 18.25 22.25 17.9142 22.25 17.5V13.4941L16.75 11.1367V24.5049L19.2959 25.5957C19.6764 25.759 19.8526 26.2004 19.6895 26.5811C19.5262 26.9617 19.0848 27.1378 18.7041 26.9746L15.9668 25.8018L11.5537 27.2725C10.4205 27.6502 9.25001 26.8068 9.25 25.6123V13.6182C9.25 12.9553 9.6249 12.3492 10.2178 12.0527L15.25 9.53613ZM10.8887 13.3945C10.804 13.4369 10.75 13.5235 10.75 13.6182V25.6123C10.75 25.7829 10.9172 25.9036 11.0791 25.8496L15.25 24.459V11.2129L10.8887 13.3945ZM26.0088 23C26.5611 23 27.0088 23.4477 27.0088 24C27.0088 24.5523 26.5611 25 26.0088 25H26C25.4477 25 25 24.5523 25 24C25 23.4477 25.4477 23 26 23H26.0088Z" fill="#4D0CE7"/>
</svg>
