<svg width="24" height="24" viewBox="0 0 24 24" fill="none" xmlns="http://www.w3.org/2000/svg">
<path d="M18 11.25C20.6303 11.25 22.7498 13.4017 22.75 16.04C22.75 17.4748 22.0902 18.5602 21.3271 19.4531C20.9634 19.8788 20.5593 20.2795 20.1816 20.6543C20.1671 20.6688 20.1522 20.6829 20.1377 20.6973C19.7389 21.0932 19.3705 21.4627 19.0498 21.8467C18.5064 22.4974 17.4808 22.4743 16.958 21.8252C16.6475 21.4396 16.284 21.0734 15.8877 20.6836C15.8448 20.6414 15.8015 20.5985 15.7578 20.5557C15.4077 20.2122 15.0343 19.8456 14.6963 19.46C13.9239 18.5787 13.25 17.5023 13.25 16.04C13.2502 13.4017 15.3697 11.25 18 11.25ZM18 12.75C16.2123 12.75 14.7502 14.2159 14.75 16.04C14.75 16.9851 15.1663 17.72 15.8242 18.4707C16.1226 18.8111 16.4531 19.1364 16.8086 19.4854C16.8519 19.5278 16.8955 19.571 16.9395 19.6143C17.2958 19.9647 17.6724 20.3402 18.0146 20.748C18.3566 20.3533 18.7293 19.982 19.0811 19.6328L19.1074 19.6064C19.4984 19.2184 19.8636 18.8564 20.1865 18.4785C20.84 17.7138 21.25 16.9657 21.25 16.04C21.2498 14.2159 19.7877 12.75 18 12.75ZM7.25 1.53613C7.71036 1.30605 8.24863 1.29043 8.72168 1.49316L15.1543 4.25H21C21.9665 4.25 22.75 5.0335 22.75 6V10C22.7498 10.4141 22.4141 10.75 22 10.75C21.5859 10.75 21.2502 10.4141 21.25 10V6C21.25 5.86193 21.1381 5.75 21 5.75H15.75V9.5C15.75 9.91421 15.4142 10.25 15 10.25C14.5858 10.25 14.25 9.91421 14.25 9.5V5.49414L8.75 3.13672V16.5049L11.2959 17.5957C11.6764 17.759 11.8526 18.2004 11.6895 18.5811C11.5262 18.9617 11.0848 19.1378 10.7041 18.9746L7.9668 17.8018L3.55371 19.2725C2.42054 19.6502 1.25001 18.8068 1.25 17.6123V5.61816C1.25 4.95531 1.6249 4.34917 2.21777 4.05273L7.25 1.53613ZM2.88867 5.39453C2.80398 5.43688 2.75 5.52347 2.75 5.61816V17.6123C2.75001 17.7829 2.91723 17.9036 3.0791 17.8496L7.25 16.459V3.21289L2.88867 5.39453ZM18.0088 15C18.5611 15 19.0088 15.4477 19.0088 16C19.0088 16.5523 18.5611 17 18.0088 17H18C17.4477 17 17 16.5523 17 16C17 15.4477 17.4477 15 18 15H18.0088Z" fill="white"/>
</svg>
