<svg width="22" height="21" viewBox="0 0 22 21" fill="none" xmlns="http://www.w3.org/2000/svg">
<path d="M16.75 9.89844C19.3803 9.89844 21.4998 12.0501 21.5 14.6885C21.5 16.1232 20.8402 17.2087 20.0771 18.1016C19.7134 18.5272 19.3093 18.928 18.9316 19.3027C18.9171 19.3172 18.9022 19.3313 18.8877 19.3457C18.4889 19.7416 18.1205 20.1111 17.7998 20.4951C17.2564 21.1459 16.2308 21.1227 15.708 20.4736C15.3975 20.088 15.034 19.7218 14.6377 19.332C14.5948 19.2899 14.5515 19.247 14.5078 19.2041C14.1577 18.8606 13.7843 18.4941 13.4463 18.1084C12.6739 17.2271 12 16.1507 12 14.6885C12.0002 12.0501 14.1197 9.89844 16.75 9.89844ZM16.75 11.3984C14.9623 11.3984 13.5002 12.8643 13.5 14.6885C13.5 15.6335 13.9163 16.3684 14.5742 17.1191C14.8726 17.4596 15.2031 17.7848 15.5586 18.1338C15.6019 18.1763 15.6455 18.2194 15.6895 18.2627C16.0458 18.6132 16.4224 18.9886 16.7646 19.3965C17.1066 19.0018 17.4793 18.6305 17.8311 18.2812L17.8574 18.2549C18.2484 17.8668 18.6136 17.5049 18.9365 17.127C19.59 16.3623 20 15.6142 20 14.6885C19.9998 12.8643 18.5377 11.3984 16.75 11.3984ZM6 0.18457C6.46036 -0.0455091 6.99863 -0.0611289 7.47168 0.141602L13.9043 2.89844H19.75C20.7165 2.89844 21.5 3.68194 21.5 4.64844V8.64844C21.4998 9.06252 21.1641 9.39844 20.75 9.39844C20.3359 9.39844 20.0002 9.06252 20 8.64844V4.64844C20 4.51037 19.8881 4.39844 19.75 4.39844H14.5V8.14844C14.5 8.56265 14.1642 8.89844 13.75 8.89844C13.3358 8.89844 13 8.56265 13 8.14844V4.14258L7.5 1.78516V15.1533L10.0459 16.2441C10.4264 16.4074 10.6026 16.8489 10.4395 17.2295C10.2762 17.6101 9.83478 17.7862 9.4541 17.623L6.7168 16.4502L2.30371 17.9209C1.17054 18.2986 8.74508e-06 17.4552 0 16.2607V4.2666C0 3.60375 0.374901 2.99761 0.967773 2.70117L6 0.18457ZM1.63867 4.04297C1.55398 4.08532 1.5 4.17191 1.5 4.2666V16.2607C1.50001 16.4314 1.66723 16.552 1.8291 16.498L6 15.1074V1.86133L1.63867 4.04297ZM16.7588 13.6484C17.3111 13.6484 17.7588 14.0962 17.7588 14.6484C17.7588 15.2007 17.3111 15.6484 16.7588 15.6484H16.75C16.1977 15.6484 15.75 15.2007 15.75 14.6484C15.75 14.0962 16.1977 13.6484 16.75 13.6484H16.7588Z" fill="#4B5565"/>
</svg>
