<svg width="24" height="24" viewBox="0 0 24 24" fill="none" xmlns="http://www.w3.org/2000/svg">
<path fill-rule="evenodd" clip-rule="evenodd" d="M10.2521 14.7793C8.75513 14.8916 7.28154 15.3404 5.96203 16.126C5.79418 16.2259 5.60975 16.3302 5.4171 16.4395C4.7045 16.8437 3.8722 17.316 3.2921 17.8838C2.93204 18.2362 2.77858 18.5273 2.75402 18.752C2.73458 18.9304 2.78014 19.2242 3.23058 19.6533C4.26637 20.6401 5.31861 21.2499 6.59093 21.25H13.0001C13.4143 21.25 13.7501 21.5858 13.7501 22C13.7501 22.4142 13.4143 22.75 13.0001 22.75H6.59093C4.77273 22.7499 3.36681 21.8552 2.19542 20.7393C1.51662 20.0924 1.17807 19.3646 1.26281 18.5889C1.34255 17.8593 1.78161 17.2634 2.24328 16.8115C2.98144 16.0891 4.05887 15.4812 4.7716 15.0791C4.93421 14.9874 5.07817 14.9062 5.19445 14.8369L10.2521 14.7793ZM17.5997 13.25C20.0021 13.25 21.9501 15.1973 21.9503 17.5996C21.9503 18.53 21.6577 19.3924 21.1603 20.0996L22.5304 21.4697C22.8233 21.7626 22.8233 22.2374 22.5304 22.5303C22.2375 22.8232 21.7627 22.8232 21.4698 22.5303L20.0997 21.1602C19.3925 21.6576 18.5301 21.9502 17.5997 21.9502C15.1974 21.95 13.2501 20.0019 13.2501 17.5996C13.2503 15.1975 15.1976 13.2502 17.5997 13.25ZM17.5997 14.75C16.026 14.7502 14.7503 16.0259 14.7501 17.5996C14.7501 19.1735 16.0259 20.45 17.5997 20.4502C19.1738 20.4502 20.4503 19.1736 20.4503 17.5996C20.4501 16.0258 19.1736 14.75 17.5997 14.75ZM5.59093 14.6123C7.59107 13.5296 9.85791 13.0931 12.0704 13.2998C12.4826 13.3385 12.7856 13.704 12.7472 14.1162C12.7087 14.5286 12.3431 14.8314 11.9308 14.793L11.1105 14.7695L11.545 14.7646C11.2536 14.7488 10.9616 14.7472 10.67 14.7568L5.59093 14.6123ZM11.1105 14.7695L10.2521 14.7793C10.3912 14.7689 10.5306 14.7614 10.67 14.7568L11.1105 14.7695ZM11.0001 1.25C13.8996 1.25 16.2501 3.60051 16.2501 6.5C16.2501 9.39949 13.8996 11.75 11.0001 11.75C8.10062 11.75 5.75011 9.39949 5.75011 6.5C5.75011 3.60051 8.10062 1.25 11.0001 1.25ZM11.0001 2.75C8.92905 2.75 7.25011 4.42893 7.25011 6.5C7.25011 8.57107 8.92905 10.25 11.0001 10.25C13.0712 10.25 14.7501 8.57107 14.7501 6.5C14.7501 4.42893 13.0712 2.75 11.0001 2.75Z" fill="#C69815"/>
</svg>
