<svg width="32" height="32" viewBox="0 0 32 32" fill="none" xmlns="http://www.w3.org/2000/svg">
<path d="M26.6699 24.333C27.2219 24.3332 27.6697 24.781 27.6699 25.333C27.6699 25.8852 27.2221 26.3328 26.6699 26.333H5.33594C4.7838 26.3328 4.33594 25.8852 4.33594 25.333C4.33611 24.781 4.78391 24.3332 5.33594 24.333H26.6699ZM26.6699 15C27.2221 15.0002 27.6699 15.4478 27.6699 16C27.6699 16.5522 27.2221 16.9998 26.6699 17H5.33594C4.7838 16.9998 4.33594 16.5522 4.33594 16C4.33594 15.4478 4.7838 15.0002 5.33594 15H26.6699ZM26.6699 5.66699C27.2221 5.66717 27.6699 6.11482 27.6699 6.66699C27.6697 7.21902 27.2219 7.66682 26.6699 7.66699H5.33594C4.78391 7.66682 4.33611 7.21902 4.33594 6.66699C4.33594 6.11482 4.7838 5.66717 5.33594 5.66699H26.6699Z" fill="#161616"/>
</svg>
