<svg width="28" height="28" viewBox="0 0 28 28" fill="none" xmlns="http://www.w3.org/2000/svg">
<path fill-rule="evenodd" clip-rule="evenodd" d="M9.33594 15.457C11.1079 15.457 12.5449 16.8941 12.5449 18.666V23.332C12.5449 25.1039 11.1079 26.541 9.33594 26.541H4.66992C2.89801 26.541 1.46094 25.1039 1.46094 23.332V18.666C1.46094 16.8941 2.89801 15.457 4.66992 15.457H9.33594ZM23.3359 15.457C25.1079 15.457 26.5449 16.8941 26.5449 18.666V23.332C26.5449 25.1039 25.1079 26.541 23.3359 26.541H18.6699C16.898 26.541 15.4609 25.1039 15.4609 23.332V18.666C15.4609 16.8941 16.898 15.457 18.6699 15.457H23.3359ZM4.66992 17.207C3.86451 17.207 3.21094 17.8606 3.21094 18.666V23.332C3.21094 24.1374 3.86451 24.791 4.66992 24.791H9.33594C10.1414 24.791 10.7949 24.1374 10.7949 23.332V18.666C10.7949 17.8606 10.1414 17.207 9.33594 17.207H4.66992ZM18.6699 17.207C17.8645 17.207 17.2109 17.8606 17.2109 18.666V23.332C17.2109 24.1374 17.8645 24.791 18.6699 24.791H23.3359C24.1414 24.791 24.7949 24.1374 24.7949 23.332V18.666C24.7949 17.8606 24.1414 17.207 23.3359 17.207H18.6699ZM9.33594 1.45703C11.1079 1.45703 12.5449 2.8941 12.5449 4.66602V9.33203C12.5449 11.1039 11.1079 12.541 9.33594 12.541H4.66992C2.89801 12.541 1.46094 11.1039 1.46094 9.33203V4.66602C1.46094 2.8941 2.89801 1.45703 4.66992 1.45703H9.33594ZM23.3359 1.45703C25.1079 1.45703 26.5449 2.8941 26.5449 4.66602V9.33203C26.5449 11.1039 25.1079 12.541 23.3359 12.541H18.6699C16.898 12.541 15.4609 11.1039 15.4609 9.33203V4.66602C15.4609 2.8941 16.898 1.45703 18.6699 1.45703H23.3359ZM4.66992 3.20703C3.86451 3.20703 3.21094 3.8606 3.21094 4.66602V9.33203C3.21094 10.1374 3.86451 10.791 4.66992 10.791H9.33594C10.1414 10.791 10.7949 10.1374 10.7949 9.33203V4.66602C10.7949 3.8606 10.1414 3.20703 9.33594 3.20703H4.66992ZM18.6699 3.20703C17.8645 3.20703 17.2109 3.8606 17.2109 4.66602V9.33203C17.2109 10.1374 17.8645 10.791 18.6699 10.791H23.3359C24.1414 10.791 24.7949 10.1374 24.7949 9.33203V4.66602C24.7949 3.8606 24.1414 3.20703 23.3359 3.20703H18.6699Z" fill="#C69815"/>
</svg>
