<svg width="30" height="30" viewBox="0 0 30 30" fill="none" xmlns="http://www.w3.org/2000/svg">
<path d="M25 3.4375C26.8985 3.4375 28.4375 4.97652 28.4375 6.875V23.125C28.4375 25.0235 26.8985 26.5625 25 26.5625H5C3.10152 26.5625 1.5625 25.0235 1.5625 23.125V6.875C1.5625 4.97652 3.10152 3.4375 5 3.4375H25ZM5 5.3125C4.13706 5.3125 3.4375 6.01206 3.4375 6.875V23.125C3.4375 23.9879 4.13706 24.6875 5 24.6875H25C25.8629 24.6875 26.5625 23.9879 26.5625 23.125V6.875C26.5625 6.01206 25.8629 5.3125 25 5.3125H5ZM10.5742 17.1885C12.6296 17.1582 14.8462 18.0842 15.8496 20.2275C16.069 20.6964 15.8663 21.2541 15.3975 21.4736C14.9286 21.6931 14.3709 21.4913 14.1514 21.0225C13.545 19.7272 12.1411 19.0407 10.6016 19.0635C9.05073 19.0864 7.66025 19.8251 7.09961 21.0225C6.88008 21.4914 6.32147 21.6932 5.85254 21.4736C5.38385 21.254 5.18189 20.6964 5.40137 20.2275C6.35115 18.1988 8.53027 17.2187 10.5742 17.1885ZM21.25 14.6875C21.7678 14.6875 22.1875 15.1072 22.1875 15.625C22.1875 16.1428 21.7678 16.5625 21.25 16.5625H17.5C16.9822 16.5625 16.5625 16.1428 16.5625 15.625C16.5625 15.1072 16.9822 14.6875 17.5 14.6875H21.25ZM10.625 8.4375C12.5235 8.4375 14.0625 9.97652 14.0625 11.875C14.0625 13.7735 12.5235 15.3125 10.625 15.3125C8.72662 15.3124 7.1875 13.7734 7.1875 11.875C7.1875 9.9766 8.72662 8.43762 10.625 8.4375ZM10.625 10.3125C9.76216 10.3126 9.0625 11.0121 9.0625 11.875C9.0625 12.7379 9.76216 13.4374 10.625 13.4375C11.4879 13.4375 12.1875 12.7379 12.1875 11.875C12.1875 11.0121 11.4879 10.3125 10.625 10.3125ZM23.75 10.3125C24.2678 10.3125 24.6875 10.7322 24.6875 11.25C24.6875 11.7678 24.2678 12.1875 23.75 12.1875H17.5C16.9822 12.1875 16.5625 11.7678 16.5625 11.25C16.5625 10.7322 16.9822 10.3125 17.5 10.3125H23.75Z" fill="#161616"/>
</svg>
