<svg width="16" height="16" viewBox="0 0 16 16" fill="none" xmlns="http://www.w3.org/2000/svg">
<path fill-rule="evenodd" clip-rule="evenodd" d="M7.99707 0.832031C11.0345 0.832031 13.4969 3.29461 13.4971 6.33203V8.11328C13.4971 8.33429 13.5849 8.54684 13.7412 8.70312L14.6836 9.64551C14.7774 9.73928 14.8301 9.86642 14.8301 9.99902V10.9199C14.8301 11.3567 14.5839 11.7776 14.1592 11.9648C13.445 12.2797 12.3054 12.6826 10.8145 12.9326C10.6596 14.2464 9.37396 15.1659 7.97852 15.166C6.57313 15.166 5.32906 14.2388 5.17871 12.9326C3.68828 12.6826 2.54898 12.2796 1.83496 11.9648C1.41023 11.7776 1.16406 11.3567 1.16406 10.9199V9.99902C1.16406 9.86642 1.21678 9.73928 1.31055 9.64551L2.25293 8.70312C2.40921 8.54684 2.49707 8.33429 2.49707 8.11328V6.33203C2.49725 3.29461 4.95961 0.832031 7.99707 0.832031ZM9.75586 13.0742C9.20602 13.1303 8.61903 13.166 7.99707 13.166C7.37329 13.166 6.78463 13.1306 6.2334 13.0742C6.43987 13.6724 7.09014 14.166 7.97852 14.166C8.87395 14.1659 9.54118 13.6678 9.75586 13.0742ZM7.99707 1.83203C5.5119 1.83203 3.49725 3.8469 3.49707 6.33203V8.11328C3.49707 8.59951 3.30378 9.06634 2.95996 9.41016L2.16406 10.2061V10.9199C2.16406 10.9882 2.2009 11.0333 2.23828 11.0498C3.24874 11.4952 5.25823 12.166 7.99707 12.166C10.7359 12.166 12.7454 11.4952 13.7559 11.0498C13.7932 11.0333 13.8301 10.9882 13.8301 10.9199V10.2061L13.0342 9.41016C12.6904 9.06634 12.4971 8.59951 12.4971 8.11328V6.33203C12.4969 3.8469 10.4822 1.83203 7.99707 1.83203Z" fill="#4B5565"/>
</svg>
