<svg width="24" height="25" viewBox="0 0 24 25" fill="none" xmlns="http://www.w3.org/2000/svg">
<path d="M10.5391 6.54176V9.92438" stroke="#9AA4B2" stroke-width="1.25" stroke-miterlimit="10" stroke-linecap="round"/>
<path d="M10.5583 2.03162C6.82012 2.03162 3.79303 5.0587 3.79303 8.79685V10.93C3.79303 11.6208 3.5086 12.6569 3.15307 13.2461L1.86301 15.3996C1.07068 16.7303 1.61921 18.2133 3.08197 18.7009C7.9375 20.316 13.1892 20.316 18.0447 18.7009C19.416 18.2438 20.0052 16.6388 19.2637 15.3996L17.9736 13.2461C17.6181 12.6569 17.3337 11.6106 17.3337 10.93V8.79685C17.3235 5.07902 14.2761 2.03162 10.5583 2.03162Z" stroke="#9AA4B2" stroke-width="1.5" stroke-miterlimit="10" stroke-linecap="round"/>
<path d="M13.9215 20.3174C13.9215 22.1763 12.3978 23.7 10.5389 23.7C9.61449 23.7 8.76122 23.314 8.15173 22.7045C7.54225 22.095 7.15625 21.2418 7.15625 20.3174" stroke="#9AA4B2" stroke-width="1.5" stroke-miterlimit="10"/>
<rect x="12.3047" y="0.75" width="9.67381" height="9.67381" rx="4.83691" fill="#F97066"/>
<rect x="12.3047" y="0.75" width="9.67381" height="9.67381" rx="4.83691" stroke="#9AA4B2" stroke-width="1.5"/>
</svg>
