<svg width="15" height="11" viewBox="0 0 15 11" fill="none" xmlns="http://www.w3.org/2000/svg">
<path d="M7.39453 0.000976562C7.43561 0.00150834 7.49337 0.00278637 7.56152 0.00488281C7.69643 0.00903702 7.87911 0.0166679 8.05469 0.0341797C8.81722 0.105948 9.44134 0.469069 10.0146 1.24316C10.2314 1.53585 10.4322 1.86362 10.6152 2.16211C10.6704 2.25205 10.7245 2.33898 10.7764 2.42188C11.014 2.80166 11.22 3.09625 11.4336 3.28809C11.5941 3.43215 11.8067 3.54251 12.0801 3.65332C12.1641 3.68736 12.2649 3.72602 12.373 3.7666C12.5688 3.84008 12.7882 3.92188 12.9697 4.00488C13.2788 4.14629 13.6094 4.34076 13.8672 4.65625C14.1319 4.98037 14.2874 5.39245 14.3164 5.91211L14.3174 5.91992V5.92676C14.3295 6.37087 14.336 6.83636 14.334 7.21289C14.333 7.40076 14.3298 7.57032 14.3242 7.70508C14.3201 7.80504 14.3129 7.93088 14.2939 8.02734C14.2377 8.40078 14.0429 8.68027 13.7354 8.83789C13.4709 8.97338 13.1658 8.99391 12.9355 9C12.7402 9.00517 12.5279 9.00148 12.3447 8.99805C12.3313 8.99779 12.3178 8.99731 12.3047 8.99707C12.2921 8.99684 12.2797 8.99631 12.2676 8.99609C12.0511 9.76736 11.3453 10.334 10.5049 10.334C9.66581 10.3339 8.95982 9.7694 8.74219 9H5.60156C5.38395 9.76938 4.67787 10.3338 3.83887 10.334C2.97577 10.334 2.25342 9.7368 2.05859 8.93359C1.3192 8.80176 0.824311 8.63435 0.505859 8.39551C0.302905 8.24318 0.170135 8.06212 0.0947266 7.8584C0.0252363 7.67059 0.0148792 7.48713 0.00878906 7.36523L0.0078125 7.35547V7.3457C-0.00440311 6.21487 0.000913115 5.06536 0.00390625 4.35547C0.00483831 4.1344 0.00488148 3.95594 0.00488281 3.83398V3.80273L0.00878906 3.77246C0.130134 2.79421 0.560637 1.69904 0.907227 1H0.515625C0.239561 0.999908 0.015625 0.776086 0.015625 0.5C0.0158007 0.224064 0.239669 9.18546e-05 0.515625 0L7.3457 0L7.39453 0.000976562ZM3.83887 7.66699C3.37873 7.66699 3.00506 8.0399 3.00488 8.5C3.00488 8.96025 3.37862 9.33398 3.83887 9.33398C4.29053 9.33378 4.65665 8.9739 4.66992 8.52539C4.66951 8.51707 4.66797 8.50842 4.66797 8.5C4.66797 8.49079 4.6704 8.48174 4.6709 8.47266C4.6563 8.02535 4.28967 7.6672 3.83887 7.66699ZM10.5049 7.66699C10.0449 7.66713 9.67205 8.03998 9.67188 8.5C9.67188 8.96017 10.0447 9.33384 10.5049 9.33398C10.9409 9.33398 11.2975 8.99878 11.334 8.57227C11.3325 8.56189 11.33 8.55161 11.3291 8.54102C11.3259 8.50115 11.3281 8.4617 11.334 8.42383C11.2953 7.99947 10.9393 7.66699 10.5049 7.66699ZM11.1719 4.33398H1.00391C1.00386 4.34515 1.00395 4.35678 1.00391 4.36816C1.00092 5.07724 0.995833 6.20683 1.00781 7.3252C1.01364 7.43543 1.02121 7.48067 1.03223 7.51074C1.03776 7.52571 1.04869 7.55308 1.10547 7.5957C1.22695 7.68688 1.49958 7.80616 2.09863 7.92285C2.34063 7.19337 3.02818 6.66699 3.83887 6.66699C4.67765 6.66717 5.38375 7.23092 5.60156 8H8.74219C8.96002 7.23091 9.66603 6.66711 10.5049 6.66699C11.3423 6.66699 12.0464 7.22911 12.2656 7.99609C12.285 7.99643 12.3042 7.99672 12.3232 7.99707L12.3584 7.99805C12.5471 8.00156 12.7375 8.00552 12.9092 8.00098C13.012 7.99825 13.0938 7.9914 13.1602 7.98047C13.2266 7.9695 13.2623 7.95598 13.2793 7.94727C13.2839 7.94489 13.2868 7.94333 13.2881 7.94238L13.2891 7.94043C13.2901 7.93843 13.2912 7.93468 13.293 7.92969C13.2967 7.91923 13.3028 7.90135 13.3066 7.87305L13.3096 7.8457L13.3164 7.81934C13.3144 7.82728 13.3151 7.82567 13.3164 7.81055C13.3181 7.78983 13.3218 7.74367 13.3252 7.66309C13.3301 7.54545 13.333 7.38985 13.334 7.20801C13.3359 6.84679 13.3301 6.39529 13.3184 5.96191C13.2985 5.62627 13.2045 5.42594 13.0928 5.28906C12.9732 5.14265 12.799 5.02626 12.5537 4.91406C12.3938 4.84092 12.247 4.78708 12.084 4.72656C11.9691 4.6839 11.846 4.63758 11.7041 4.58008C11.5374 4.51253 11.3604 4.43319 11.1865 4.33301C11.1817 4.33314 11.1767 4.33398 11.1719 4.33398ZM2.02051 1.04199C1.776 1.43962 1.32717 2.40617 1.10547 3.33398H4.67188V1H2.04395C2.03698 1.01418 2.02895 1.02826 2.02051 1.04199ZM5.67188 3.33398H10.1768C10.0897 3.20725 10.0073 3.07784 9.92871 2.95215C9.86622 2.85226 9.80543 2.75391 9.74609 2.65723C9.568 2.36701 9.39921 2.0921 9.21094 1.83789C8.77767 1.25291 8.39541 1.07103 7.95996 1.03027H7.95605C7.81251 1.01592 7.65564 1.00774 7.53125 1.00391C7.47005 1.00202 7.4181 1.00145 7.38184 1.00098L7.33984 1H5.67188V3.33398Z" fill="#4B5565"/>
</svg>
