<svg width="24" height="24" viewBox="0 0 24 24" fill="none" xmlns="http://www.w3.org/2000/svg">
<path fill-rule="evenodd" clip-rule="evenodd" d="M11.6953 1.31462C11.8892 1.22846 12.1108 1.22846 12.3047 1.31462L21.3047 5.31462C21.552 5.42454 21.717 5.65859 21.7441 5.92399C21.7458 5.93755 21.7462 5.95124 21.7471 5.96501C21.7476 5.97671 21.75 5.98836 21.75 6.00016C21.75 6.00174 21.749 6.00347 21.749 6.00505C21.7491 6.00797 21.75 6.0109 21.75 6.01383V18.0002C21.75 18.2965 21.5755 18.5653 21.3047 18.6857L12.3008 22.6857C12.1069 22.7719 11.8853 22.7719 11.6914 22.6857L2.69531 18.6857C2.42453 18.5653 2.25 18.2965 2.25 18.0002V6.00016C2.25001 5.96808 2.25194 5.93646 2.25586 5.90544C2.2577 5.89094 2.261 5.87674 2.26367 5.86247C2.26569 5.85162 2.26803 5.84092 2.27051 5.83024C2.27823 5.79711 2.28876 5.76506 2.30078 5.73356C2.3055 5.72121 2.30911 5.70848 2.31445 5.69645C2.33134 5.65838 2.35114 5.62173 2.37402 5.58708C2.38006 5.57794 2.38713 5.56956 2.39355 5.56071C2.41243 5.53467 2.43295 5.50997 2.45508 5.48649C2.4652 5.47576 2.47559 5.46536 2.48633 5.45524C2.51083 5.43214 2.53678 5.41056 2.56445 5.39079C2.57011 5.38674 2.57528 5.38199 2.58105 5.37809L2.59863 5.36637C2.62924 5.34701 2.66157 5.32961 2.69531 5.31462L11.6953 1.31462ZM12.7461 10.4894V20.8468L20.25 17.5129V7.15446L12.7461 10.4894ZM3.75 17.5129L11.2461 20.8459V10.4855L3.75 7.15446V17.5129ZM5.30371 10.7218C5.45751 10.3375 5.89387 10.1504 6.27832 10.3039L8.77832 11.3039C9.16291 11.4577 9.35012 11.8949 9.19629 12.2795C9.0423 12.6638 8.60612 12.8502 8.22168 12.6965L5.72168 11.6965C5.33718 11.5426 5.14989 11.1064 5.30371 10.7218ZM9.34375 7.99919L12 9.17985L19.1533 6.00016L16.4971 4.8195L9.34375 7.99919ZM4.84668 6.00016L7.49707 7.1779L14.6504 3.99919L12 2.82145L4.84668 6.00016Z" fill="#C69815"/>
</svg>
