<svg width="17" height="18" viewBox="0 0 17 18" fill="none" xmlns="http://www.w3.org/2000/svg">
<path d="M7.87109 0.0538678C8.0327 -0.0179559 8.2173 -0.0179559 8.37891 0.0538678L15.8789 3.38688C16.1046 3.48719 16.25 3.71117 16.25 3.95816C16.25 3.96012 16.249 3.96207 16.249 3.96402C16.249 3.96584 16.25 3.96806 16.25 3.96988V13.9582C16.25 14.2052 16.1046 14.4291 15.8789 14.5295L8.37598 17.8625C8.21444 17.9342 8.0297 17.9342 7.86816 17.8625L0.371094 14.5295C0.145438 14.4291 9.9442e-08 14.2051 0 13.9582V3.95816C0 3.9193 0.0047707 3.88123 0.0117188 3.84391C0.013744 3.83297 0.0169442 3.82241 0.0195312 3.81168C0.0266348 3.78232 0.0347405 3.75353 0.0458984 3.72574C0.0485199 3.71922 0.0508779 3.71263 0.0537109 3.70621C0.067273 3.67548 0.0823314 3.64543 0.100586 3.61734L0.106445 3.60856C0.110197 3.603 0.115217 3.59835 0.119141 3.59293C0.134723 3.57134 0.151657 3.55089 0.169922 3.53141C0.17939 3.52131 0.189105 3.51156 0.199219 3.50211C0.218805 3.48382 0.239728 3.46709 0.261719 3.45133C0.266572 3.44784 0.270435 3.44296 0.275391 3.43961L0.290039 3.42984C0.315643 3.41362 0.342849 3.39943 0.371094 3.38688L7.87109 0.0538678ZM8.74707 7.6984V16.3302L15 13.5519V4.9191L8.74707 7.6984ZM1.25 13.5519L7.49707 16.3293V7.69547L1.25 4.9191V13.5519ZM2.54492 7.89274C2.67317 7.57234 3.03698 7.4169 3.35742 7.54508L5.44043 8.37809C5.76092 8.50628 5.91726 8.8701 5.78906 9.19059C5.66086 9.51105 5.29704 9.66642 4.97656 9.53824L2.89258 8.70524C2.57238 8.57689 2.41678 8.21308 2.54492 7.89274ZM5.91211 5.6232L8.125 6.60758L14.0859 3.95816L11.8721 2.97379L5.91211 5.6232ZM2.16406 3.95816L4.37207 4.93961L10.334 2.2902L8.125 1.30875L2.16406 3.95816Z" fill="#4B5565"/>
</svg>
