<svg width="24" height="24" viewBox="0 0 24 24" fill="none" xmlns="http://www.w3.org/2000/svg">
<path d="M4.69238 14.6543C7.78782 12.7814 11.7121 12.7815 14.8076 14.6543C14.9046 14.713 15.0261 14.7823 15.1641 14.8613C15.7767 15.2123 16.7216 15.7544 17.3682 16.3975C17.7732 16.8003 18.1675 17.3396 18.2393 18.0059C18.3157 18.7167 18.0086 19.3797 17.4082 19.9609C16.3914 20.9453 15.1549 21.75 13.5469 21.75H5.95312C4.34521 21.7499 3.10856 20.9452 2.0918 19.9609C1.4915 19.3797 1.18525 18.7167 1.26172 18.0059C1.33352 17.3396 1.72687 16.8003 2.13184 16.3975C2.77842 15.7544 3.72426 15.2124 4.33691 14.8613C4.47467 14.7824 4.59548 14.7129 4.69238 14.6543ZM14.0312 15.9385C11.4131 14.3544 8.08689 14.3544 5.46875 15.9385C5.32029 16.0283 5.15896 16.121 4.99121 16.2178C4.37885 16.5709 3.67851 16.9745 3.18945 17.4609C2.88694 17.7618 2.77106 17.9985 2.75293 18.167C2.73966 18.2911 2.76373 18.5227 3.13574 18.8828C4.01957 19.7384 4.89982 20.2499 5.95312 20.25H13.5469C14.6003 20.25 15.4813 19.7385 16.3652 18.8828C16.737 18.5228 16.7603 18.2911 16.7471 18.167C16.7289 17.9985 16.6131 17.7619 16.3105 17.4609C15.8215 16.9745 15.1211 16.5709 14.5088 16.2178C14.341 16.121 14.1797 16.0283 14.0312 15.9385ZM9.5 2.25C12.1234 2.25 14.25 4.37665 14.25 7C14.25 9.62335 12.1234 11.75 9.5 11.75C6.87665 11.75 4.75 9.62335 4.75 7C4.75 4.37665 6.87665 2.25 9.5 2.25ZM22 10.25C22.4142 10.25 22.75 10.5858 22.75 11C22.75 11.4142 22.4142 11.75 22 11.75H20C19.5858 11.75 19.25 11.4142 19.25 11C19.25 10.5858 19.5858 10.25 20 10.25H22ZM9.5 3.75C7.70507 3.75 6.25 5.20507 6.25 7C6.25 8.79493 7.70507 10.25 9.5 10.25C11.2949 10.25 12.75 8.79493 12.75 7C12.75 5.20507 11.2949 3.75 9.5 3.75ZM22 7.25C22.4142 7.25 22.75 7.58579 22.75 8C22.75 8.41421 22.4142 8.75 22 8.75H17C16.5858 8.75 16.25 8.41421 16.25 8C16.25 7.58579 16.5858 7.25 17 7.25H22ZM22 4.25C22.4142 4.25 22.75 4.58579 22.75 5C22.75 5.41421 22.4142 5.75 22 5.75H17C16.5858 5.75 16.25 5.41421 16.25 5C16.25 4.58579 16.5858 4.25 17 4.25H22Z" fill="#4B5565"/>
</svg>
