<svg width="22" height="20" viewBox="0 0 22 20" fill="none" xmlns="http://www.w3.org/2000/svg">
<path d="M3.44238 12.4043C6.53782 10.5314 10.4621 10.5315 13.5576 12.4043C13.6546 12.463 13.7761 12.5323 13.9141 12.6113C14.5267 12.9623 15.4716 13.5044 16.1182 14.1475C16.5232 14.5503 16.9175 15.0896 16.9893 15.7559C17.0657 16.4667 16.7586 17.1297 16.1582 17.7109C15.1414 18.6953 13.9049 19.5 12.2969 19.5H4.70312C3.09521 19.4999 1.85856 18.6952 0.841797 17.7109C0.241499 17.1297 -0.0647463 16.4667 0.0117188 15.7559C0.083522 15.0896 0.476868 14.5503 0.881836 14.1475C1.52842 13.5044 2.47426 12.9624 3.08691 12.6113C3.22467 12.5324 3.34548 12.4629 3.44238 12.4043ZM12.7812 13.6885C10.1631 12.1044 6.83689 12.1044 4.21875 13.6885C4.07029 13.7783 3.90896 13.871 3.74121 13.9678C3.12885 14.3209 2.42851 14.7245 1.93945 15.2109C1.63694 15.5118 1.52106 15.7485 1.50293 15.917C1.48966 16.0411 1.51373 16.2727 1.88574 16.6328C2.76957 17.4884 3.64982 17.9999 4.70312 18H12.2969C13.3503 18 14.2313 17.4885 15.1152 16.6328C15.487 16.2728 15.5103 16.0411 15.4971 15.917C15.4789 15.7485 15.3631 15.5119 15.0605 15.2109C14.5715 14.7245 13.8711 14.3209 13.2588 13.9678C13.091 13.871 12.9297 13.7783 12.7812 13.6885ZM8.25 0C10.8734 0 13 2.12665 13 4.75C13 7.37335 10.8734 9.5 8.25 9.5C5.62665 9.5 3.5 7.37335 3.5 4.75C3.5 2.12665 5.62665 0 8.25 0ZM20.75 8C21.1642 8 21.5 8.33579 21.5 8.75C21.5 9.16421 21.1642 9.5 20.75 9.5H18.75C18.3358 9.5 18 9.16421 18 8.75C18 8.33579 18.3358 8 18.75 8H20.75ZM8.25 1.5C6.45507 1.5 5 2.95507 5 4.75C5 6.54493 6.45507 8 8.25 8C10.0449 8 11.5 6.54493 11.5 4.75C11.5 2.95507 10.0449 1.5 8.25 1.5ZM20.75 5C21.1642 5 21.5 5.33579 21.5 5.75C21.5 6.16421 21.1642 6.5 20.75 6.5H15.75C15.3358 6.5 15 6.16421 15 5.75C15 5.33579 15.3358 5 15.75 5H20.75ZM20.75 2C21.1642 2 21.5 2.33579 21.5 2.75C21.5 3.16421 21.1642 3.5 20.75 3.5H15.75C15.3358 3.5 15 3.16421 15 2.75C15 2.33579 15.3358 2 15.75 2H20.75Z" fill="white"/>
</svg>
