<svg width="24" height="24" viewBox="0 0 24 24" fill="none" xmlns="http://www.w3.org/2000/svg">
<path fill-rule="evenodd" clip-rule="evenodd" d="M4.69221 14.6543C7.78765 12.7814 11.712 12.7815 14.8074 14.6543C14.9044 14.713 15.026 14.7823 15.1639 14.8613C15.7765 15.2123 16.7214 15.7544 17.368 16.3975C17.773 16.8003 18.1673 17.3396 18.2391 18.0059C18.3156 18.7167 18.0084 19.3797 17.408 19.9609C16.3912 20.9453 15.1548 21.75 13.5467 21.75H5.95295C4.34504 21.7499 3.10839 20.9452 2.09163 19.9609C1.49133 19.3797 1.18508 18.7167 1.26155 18.0059C1.33335 17.3396 1.7267 16.8003 2.13167 16.3975C2.77825 15.7544 3.72409 15.2124 4.33674 14.8613C4.47449 14.7824 4.59531 14.7129 4.69221 14.6543ZM14.0311 15.9385C11.4129 14.3544 8.08672 14.3544 5.46858 15.9385C5.32012 16.0283 5.15879 16.121 4.99104 16.2178C4.37868 16.5709 3.67834 16.9745 3.18928 17.4609C2.88677 17.7618 2.77089 17.9985 2.75276 18.167C2.73949 18.2911 2.76356 18.5227 3.13557 18.8828C4.0194 19.7384 4.89965 20.2499 5.95295 20.25H13.5467C14.6001 20.25 15.4812 19.7385 16.3651 18.8828C16.7368 18.5228 16.7602 18.2911 16.7469 18.167C16.7288 17.9985 16.613 17.7619 16.3104 17.4609C15.8213 16.9745 15.121 16.5709 14.5086 16.2178C14.3409 16.121 14.1795 16.0283 14.0311 15.9385ZM9.49983 2.25C12.1232 2.25 14.2498 4.37665 14.2498 7C14.2498 9.62335 12.1232 11.75 9.49983 11.75C6.87648 11.75 4.74983 9.62335 4.74983 7C4.74983 4.37665 6.87648 2.25 9.49983 2.25ZM21.9998 10.25C22.414 10.25 22.7498 10.5858 22.7498 11C22.7498 11.4142 22.414 11.75 21.9998 11.75H19.9998C19.5856 11.75 19.2498 11.4142 19.2498 11C19.2498 10.5858 19.5856 10.25 19.9998 10.25H21.9998ZM9.49983 3.75C7.7049 3.75 6.24983 5.20507 6.24983 7C6.24983 8.79493 7.7049 10.25 9.49983 10.25C11.2948 10.25 12.7498 8.79493 12.7498 7C12.7498 5.20507 11.2948 3.75 9.49983 3.75ZM21.9998 7.25C22.414 7.25 22.7498 7.58579 22.7498 8C22.7498 8.41421 22.414 8.75 21.9998 8.75H16.9998C16.5856 8.75 16.2498 8.41421 16.2498 8C16.2498 7.58579 16.5856 7.25 16.9998 7.25H21.9998ZM21.9998 4.25C22.414 4.25 22.7498 4.58579 22.7498 5C22.7498 5.41421 22.414 5.75 21.9998 5.75H16.9998C16.5856 5.75 16.2498 5.41421 16.2498 5C16.2498 4.58579 16.5856 4.25 16.9998 4.25H21.9998Z" fill="#C69815"/>
</svg>
