<svg width="24" height="24" viewBox="0 0 24 24" fill="none" xmlns="http://www.w3.org/2000/svg">
<path d="M13.5479 3.25C15.3867 3.24999 16.8312 3.2503 17.9697 3.37891C19.1317 3.5102 20.0741 3.78374 20.8574 4.40234C21.0919 4.58749 21.3092 4.792 21.5068 5.01367C22.173 5.76089 22.4706 6.66717 22.6123 7.77832C22.7499 8.85767 22.75 10.2235 22.75 11.9473V12.0527C22.75 13.7765 22.7499 15.1423 22.6123 16.2217C22.4706 17.3328 22.173 18.2391 21.5068 18.9863C21.3092 19.208 21.0919 19.4125 20.8574 19.5977C20.0741 20.2163 19.1317 20.4898 17.9697 20.6211C16.8312 20.7497 15.3867 20.75 13.5479 20.75H10.4521C8.61329 20.75 7.1688 20.7497 6.03027 20.6211C4.86826 20.4898 3.92588 20.2163 3.14258 19.5977C2.90814 19.4125 2.69081 19.208 2.49316 18.9863C1.82699 18.2391 1.52939 17.3328 1.3877 16.2217C1.2501 15.1423 1.24999 13.7765 1.25 12.0527V11.9473C1.24999 10.2235 1.2501 8.85768 1.3877 7.77832C1.52939 6.66717 1.82699 5.76089 2.49316 5.01367C2.69081 4.79201 2.90814 4.5875 3.14258 4.40234C3.92588 3.78374 4.86826 3.5102 6.03027 3.37891C7.1688 3.2503 8.61329 3.24999 10.4521 3.25H13.5479ZM10.5 4.75C8.60327 4.75 7.24376 4.75117 6.19922 4.86914C5.16854 4.98557 4.54355 5.20697 4.07227 5.5791C3.90543 5.71086 3.75138 5.85572 3.6123 6.01172C3.22568 6.44538 2.99748 7.01497 2.87598 7.96777C2.75184 8.94131 2.75 10.2115 2.75 12C2.75 13.7885 2.75184 15.0587 2.87598 16.0322C2.99748 16.985 3.22568 17.5546 3.6123 17.9883C3.75138 18.1443 3.90543 18.2891 4.07227 18.4209C4.54355 18.793 5.16854 19.0144 6.19922 19.1309C7.24376 19.2488 8.60327 19.25 10.5 19.25H13.5C15.3967 19.25 16.7562 19.2488 17.8008 19.1309C18.8315 19.0144 19.4565 18.793 19.9277 18.4209C20.0946 18.2891 20.2486 18.1443 20.3877 17.9883C20.7743 17.5546 21.0025 16.985 21.124 16.0322C21.2482 15.0587 21.25 13.7885 21.25 12C21.25 10.2115 21.2482 8.94131 21.124 7.96777C21.0025 7.01497 20.7743 6.44538 20.3877 6.01172C20.2486 5.85572 20.0946 5.71086 19.9277 5.5791C19.4565 5.20697 18.8315 4.98557 17.8008 4.86914C16.7562 4.75117 15.3967 4.75 13.5 4.75H10.5ZM12.0488 8.75C13.8438 8.75 15.2988 10.2051 15.2988 12C15.2988 13.7949 13.8438 15.25 12.0488 15.25C10.254 15.2499 8.79883 13.7949 8.79883 12C8.79883 10.2051 10.254 8.75011 12.0488 8.75ZM12.0488 10.25C11.0824 10.2501 10.2988 11.0336 10.2988 12C10.2988 12.9664 11.0824 13.7499 12.0488 13.75C13.0153 13.75 13.7988 12.9665 13.7988 12C13.7988 11.0335 13.0153 10.25 12.0488 10.25ZM5.5 11C6.05226 11 6.5 11.4477 6.5 12C6.5 12.5523 6.05226 13 5.5 13H5.49121C4.93893 13 4.49121 12.5523 4.49121 12C4.49121 11.4477 4.93893 11 5.49121 11H5.5ZM18.5098 11C19.062 11 19.5098 11.4477 19.5098 12C19.5098 12.5523 19.062 13 18.5098 13H18.501C17.9487 13 17.501 12.5523 17.501 12C17.501 11.4477 17.9487 11 18.501 11H18.5098Z" fill="#8B8B8B"/>
</svg>
