<svg width="22" height="20" viewBox="0 0 22 20" fill="none" xmlns="http://www.w3.org/2000/svg">
<path d="M14.75 0C16.2688 0 17.5 1.23122 17.5 2.75V4H18.75C20.2688 4 21.5 5.23124 21.5 6.75V16.75C21.5 18.2688 20.2688 19.5 18.75 19.5H9.75C9.33579 19.5 9 19.1642 9 18.75C9.00003 18.3358 9.3358 18 9.75 18H18.75C19.4404 18 20 17.4404 20 16.75V6.75C20 6.05967 19.4403 5.5 18.75 5.5H8.75C8.33579 5.5 8 5.16421 8 4.75C8.00003 4.33581 8.3358 4 8.75 4H16V2.75C16 2.05964 15.4404 1.5 14.75 1.5H2.75C2.05964 1.5 1.5 2.05964 1.5 2.75V12.25C1.5 12.6642 1.16421 13 0.75 13C0.335786 13 0 12.6642 0 12.25V2.75C1.28853e-07 1.23122 1.23122 1.61064e-08 2.75 0H14.75ZM7.67383 12.2695C7.93903 11.9515 8.41233 11.9087 8.73047 12.1738C9.04851 12.439 9.09129 12.9123 8.82617 13.2305L3.82617 19.2305C3.69132 19.3922 3.49453 19.4894 3.28418 19.499C3.07368 19.5086 2.86873 19.4293 2.71973 19.2803L0.219727 16.7803C-0.0731573 16.4874 -0.0731635 16.0126 0.219727 15.7197C0.512617 15.4268 0.987383 15.4268 1.28027 15.7197L3.19922 17.6387L7.67383 12.2695ZM16.25 9C17.4926 9 18.5 10.0074 18.5 11.25C18.5 12.4926 17.4926 13.5 16.25 13.5C15.0074 13.5 14 12.4926 14 11.25C14 10.0074 15.0074 9 16.25 9ZM16.25 10.5C15.8358 10.5 15.5 10.8358 15.5 11.25C15.5 11.6642 15.8358 12 16.25 12C16.6642 12 17 11.6642 17 11.25C17 10.8358 16.6642 10.5 16.25 10.5Z" fill="#DC6803"/>
</svg>
