<svg width="26" height="26" viewBox="0 0 26 26" fill="none" xmlns="http://www.w3.org/2000/svg">
<path d="M23.2943 13.0007C23.2943 18.6846 18.6865 23.2923 13.0026 23.2923C7.31872 23.2923 2.71094 18.6846 2.71094 13.0007C2.71094 7.31672 7.31872 2.70898 13.0026 2.70898C17.2228 2.70898 20.8498 5.24916 22.4379 8.88398M23.2943 5.95898L22.7797 9.39857L19.5026 8.66732" stroke="#DC6803" stroke-linecap="round" stroke-linejoin="round"/>
<path fill-rule="evenodd" clip-rule="evenodd" d="M10.0482 9H13.1377C13.9647 8.99999 14.6312 8.99998 15.1554 9.06356C15.6996 9.12957 16.1578 9.27078 16.5218 9.5991C16.857 9.90151 17.0163 10.2761 17.0965 10.717C17.5853 10.7893 18.0006 10.933 18.3359 11.2355C18.6998 11.5638 18.8563 11.9772 18.9295 12.4681C19 12.941 19 13.5423 19 14.2883V14.3481C19 15.0941 19 15.6953 18.9295 16.1682C18.8563 16.6592 18.6998 17.0726 18.3359 17.4009C17.9719 17.7292 17.5137 17.8704 16.9694 17.9364C16.4452 18 15.7787 18 14.9518 18H11.8623C11.0353 18 10.3688 18 9.84462 17.9364C9.30038 17.8704 8.84214 17.7292 8.47819 17.4009C8.14296 17.0985 7.98366 16.7239 7.90346 16.283C7.41465 16.2106 6.99937 16.0669 6.66411 15.7645C6.30016 15.4362 6.14363 15.0228 6.07045 14.5319C5.99998 14.059 5.99999 13.4577 6 12.7117V12.6519C5.99999 11.9059 5.99998 11.3047 6.07045 10.8318C6.14363 10.3408 6.30016 9.92741 6.66411 9.5991C7.02806 9.27078 7.4863 9.12957 8.03054 9.06356C8.55475 8.99998 9.22126 8.99999 10.0482 9ZM8.84527 16.3536C8.90869 16.5733 8.99902 16.7137 9.11951 16.8223C9.28686 16.9733 9.5218 17.0718 9.96547 17.1255C10.4222 17.181 11.0275 17.1818 11.8954 17.1818H14.9187C15.7866 17.1818 16.3919 17.181 16.8486 17.1255C17.2922 17.0718 17.5272 16.9733 17.6945 16.8223C17.8619 16.6714 17.971 16.4594 18.0306 16.0592C18.0921 15.6472 18.093 15.1011 18.093 14.3182C18.093 13.5352 18.0921 12.9892 18.0306 12.5772C17.971 12.1769 17.8619 11.965 17.6945 11.814C17.574 11.7053 17.4184 11.6238 17.1748 11.5666C17.1859 11.8878 17.1859 12.2487 17.1859 12.6519V12.7117C17.1859 13.4577 17.1859 14.059 17.1154 14.5319C17.0423 15.0228 16.8857 15.4362 16.5218 15.7645C16.1578 16.0928 15.6996 16.234 15.1554 16.3C14.6312 16.3636 13.9647 16.3636 13.1377 16.3636H10.0482C9.60131 16.3636 9.2013 16.3636 8.84527 16.3536ZM8.15139 9.87444C7.70772 9.92825 7.47277 10.0267 7.30543 10.1776C7.13809 10.3286 7.02898 10.5405 6.96933 10.9408C6.90793 11.3528 6.90696 11.8988 6.90696 12.6818C6.90696 13.4647 6.90793 14.0108 6.96933 14.4228C7.02898 14.8231 7.13809 15.035 7.30543 15.186C7.47277 15.3369 7.70772 15.4353 8.15139 15.4892C8.60811 15.5445 9.21342 15.5454 10.0813 15.5454H13.1046C13.9725 15.5454 14.5778 15.5445 15.0345 15.4892C15.4782 15.4353 15.7131 15.3369 15.8805 15.186C16.0478 15.035 16.1569 14.8231 16.2166 14.4228C16.278 14.0108 16.2789 13.4647 16.2789 12.6818C16.2789 11.8988 16.278 11.3528 16.2166 10.9408C16.1569 10.5405 16.0478 10.3286 15.8805 10.1776C15.7131 10.0267 15.4782 9.92825 15.0345 9.87444C14.5778 9.81904 13.9725 9.81818 13.1046 9.81818H10.0813C9.21342 9.81818 8.60811 9.81904 8.15139 9.87444ZM11.5929 11.7273C11.0086 11.7273 10.5348 12.1546 10.5348 12.6818C10.5348 13.209 11.0086 13.6363 11.5929 13.6363C12.1773 13.6363 12.6511 13.209 12.6511 12.6818C12.6511 12.1546 12.1773 11.7273 11.5929 11.7273ZM9.62786 12.6818C9.62786 11.7028 10.5077 10.9091 11.5929 10.9091C12.6782 10.9091 13.558 11.7028 13.558 12.6818C13.558 13.6608 12.6782 14.4545 11.5929 14.4545C10.5077 14.4545 9.62786 13.6608 9.62786 12.6818ZM8.26741 11.1818C8.51786 11.1818 8.72089 11.365 8.72089 11.5909V13.7727C8.72089 13.9986 8.51786 14.1818 8.26741 14.1818C8.01696 14.1818 7.81393 13.9986 7.81393 13.7727V11.5909C7.81393 11.365 8.01696 11.1818 8.26741 11.1818ZM14.9185 11.1818C15.1689 11.1818 15.372 11.365 15.372 11.5909V13.7727C15.372 13.9986 15.1689 14.1818 14.9185 14.1818C14.668 14.1818 14.465 13.9986 14.465 13.7727V11.5909C14.465 11.365 14.668 11.1818 14.9185 11.1818Z" fill="#DC6803"/>
</svg>
