<svg width="18" height="18" viewBox="0 0 18 18" fill="none" xmlns="http://www.w3.org/2000/svg">
<path d="M6.99316 2.85254C7.8916 1.29926 10.1084 1.29926 11.0068 2.85254L16.7402 12.7656C17.6404 14.3219 16.5468 16.3125 14.7334 16.3125H3.26562C1.45244 16.3123 0.358743 14.3219 1.25879 12.7656L6.99316 2.85254ZM10.0332 3.41602C9.56798 2.6117 8.43202 2.6117 7.9668 3.41602L2.23242 13.3291C1.75001 14.1637 2.35154 15.1873 3.26562 15.1875H14.7334C15.6477 15.1875 16.2493 14.1638 15.7666 13.3291L10.0332 3.41602ZM9.00684 11.25C9.42091 11.2502 9.75684 11.5859 9.75684 12C9.75678 12.4141 9.42088 12.7498 9.00684 12.75H9C8.58582 12.75 8.25005 12.4142 8.25 12C8.25 11.5858 8.58579 11.25 9 11.25H9.00684ZM9 6.1875C9.31057 6.18761 9.5625 6.43941 9.5625 6.75V9.75C9.56245 10.0605 9.31054 10.3124 9 10.3125C8.68937 10.3125 8.43755 10.0606 8.4375 9.75V6.75C8.4375 6.43934 8.68934 6.1875 9 6.1875Z" fill="#F04438"/>
</svg>
