<svg width="16" height="16" viewBox="0 0 16 16" fill="none" xmlns="http://www.w3.org/2000/svg">
<path d="M14.3643 10.8652C14.6219 10.7664 14.9107 10.8957 15.0098 11.1533C15.1111 11.4168 15.167 11.702 15.167 11.999C15.167 13.3246 14.0755 14.3848 12.748 14.3848L11.5244 14.3848C11.6522 14.5724 11.6396 14.8296 11.4795 15.0039C11.2925 15.2071 10.9756 15.2202 10.7725 15.0332L10.2236 14.5283L10.2002 14.5049C10.1524 14.458 10.0829 14.3911 10.0332 14.3262C9.99196 14.2723 9.81856 14.0364 9.94336 13.7402C10.0663 13.4486 10.351 13.4047 10.417 13.3955C10.4978 13.3843 10.5943 13.3847 10.6621 13.3848L12.748 13.3848C13.5396 13.3848 14.167 12.7561 14.167 11.999C14.167 11.8268 14.1352 11.6627 14.0771 11.5117C13.978 11.254 14.1065 10.9644 14.3643 10.8652ZM11.334 0.832031C12.0804 0.832066 12.7942 0.914334 13.4453 1.06348C13.4583 1.06645 13.4716 1.06934 13.4844 1.07227C13.8487 1.15548 14.1455 1.22329 14.4707 1.48047C14.6654 1.63452 14.8826 1.90669 14.9893 2.13086C15.1679 2.50636 15.1674 2.87796 15.167 3.33789L15.167 7.66602C15.1668 7.94196 14.943 8.16593 14.667 8.16602C14.391 8.16602 14.1672 7.94201 14.167 7.66602L14.167 3.4082C14.167 2.84685 14.1569 2.70966 14.0859 2.56055C14.045 2.47457 13.9253 2.32373 13.8506 2.26465C13.7154 2.15768 13.6272 2.13098 13.2217 2.03809C12.6469 1.90645 12.0084 1.83207 11.334 1.83203C10.1169 1.83203 9.02382 2.07297 8.21191 2.45215C7.24714 2.90275 6.00593 3.166 4.66699 3.16602C3.92058 3.16602 3.20685 3.08369 2.55566 2.93457C2.16007 2.84396 1.83409 3.13993 1.83398 3.4082L1.83398 10.5898C1.83399 11.151 1.84319 11.2884 1.91406 11.4375C1.95497 11.5235 2.07475 11.6743 2.14941 11.7334C2.28473 11.8405 2.37273 11.8671 2.77832 11.96C3.35328 12.0917 3.99232 12.166 4.66699 12.166C5.59758 12.166 6.45831 12.0247 7.17676 11.7871C7.43886 11.7006 7.72194 11.8434 7.80859 12.1055C7.89504 12.3676 7.7523 12.6507 7.49023 12.7373C6.66194 13.0111 5.6946 13.166 4.66699 13.166C3.92058 13.166 3.20685 13.0837 2.55566 12.9346C2.5427 12.9316 2.5294 12.9287 2.5166 12.9258C2.15208 12.8425 1.85467 12.775 1.5293 12.5176C1.3346 12.3635 1.11842 12.0914 1.01172 11.8672C0.832994 11.4916 0.832561 11.1202 0.833008 10.6602C0.83303 10.637 0.833984 10.6135 0.833984 10.5898L0.833984 3.4082C0.834075 2.36356 1.89409 1.75754 2.77832 1.95996C3.35328 2.09165 3.99232 2.16602 4.66699 2.16602C5.88403 2.166 6.97719 1.92509 7.78906 1.5459C8.75381 1.09541 9.99519 0.832031 11.334 0.832031ZM12.5215 8.99414C12.7085 8.79099 13.0244 8.77781 13.2275 8.96484L13.7764 9.46973L13.7998 9.49316C13.8476 9.54004 13.9171 9.60691 13.9668 9.67187C14.0079 9.72555 14.1816 9.96135 14.0566 10.2578C13.9336 10.5498 13.6485 10.5934 13.583 10.6025C13.5022 10.6138 13.4057 10.6134 13.3379 10.6133L11.252 10.6133C10.4604 10.6133 9.83399 11.242 9.83398 11.999C9.83398 12.1713 9.86574 12.3353 9.92383 12.4863C10.0228 12.744 9.89428 13.0336 9.63672 13.1328C9.37899 13.232 9.08938 13.1025 8.99023 12.8447C8.88896 12.5813 8.83398 12.296 8.83398 11.999C8.83399 10.6734 9.92448 9.61329 11.252 9.61328L12.4756 9.61328C12.3478 9.42553 12.3611 9.16845 12.5215 8.99414ZM8 4.83203C9.19662 4.83203 10.167 5.80241 10.167 6.99902C10.167 8.19564 9.19662 9.16602 8 9.16602C6.80346 9.16592 5.83398 8.19558 5.83398 6.99902C5.83398 5.80246 6.80346 4.83212 8 4.83203ZM3.66699 6.99902C4.03511 6.99911 4.33398 7.29788 4.33398 7.66602V7.67187C4.33388 8.03992 4.03505 8.33781 3.66699 8.33789C3.29887 8.33789 3.00011 8.03997 3 7.67187V7.66602C3 7.29783 3.2988 6.99902 3.66699 6.99902ZM8 5.83203C7.35575 5.83212 6.83398 6.35475 6.83398 6.99902C6.83398 7.6433 7.35575 8.16592 8 8.16602C8.64433 8.16602 9.16699 7.64336 9.16699 6.99902C9.16699 6.35469 8.64433 5.83203 8 5.83203ZM12.334 5.66016C12.702 5.66041 13 5.95912 13 6.32715V6.33301C13 6.70104 12.702 6.99974 12.334 7C11.9658 7 11.667 6.7012 11.667 6.33301V6.32715C11.667 5.95896 11.9658 5.66016 12.334 5.66016Z" fill="#713DEC"/>
</svg>
