<svg width="24" height="24" viewBox="0 0 24 24" fill="none" xmlns="http://www.w3.org/2000/svg">
<path d="M12 1.25C17.9371 1.25 22.75 6.06294 22.75 12C22.75 17.9371 17.9371 22.75 12 22.75C6.06305 22.7499 1.25 17.937 1.25 12C1.25 6.06302 6.06305 1.25013 12 1.25ZM12 2.75C6.89148 2.75013 2.75 6.89145 2.75 12C2.75 17.1086 6.89148 21.2499 12 21.25C17.1086 21.25 21.25 17.1086 21.25 12C21.25 6.89137 17.1086 2.75 12 2.75ZM16 11.251C16.4141 11.2511 16.75 11.5868 16.75 12.001C16.75 12.4151 16.4141 12.7508 16 12.751H8C7.58579 12.751 7.25 12.4152 7.25 12.001C7.25 11.5868 7.58579 11.251 8 11.251H16Z" fill="#4B5565"/>
</svg>
