<svg width="24" height="24" viewBox="0 0 24 24" fill="none" xmlns="http://www.w3.org/2000/svg">
<path d="M2.13574 13.3037L4.63574 13.7627C5.04296 13.8377 5.31212 14.2285 5.2373 14.6357C5.16239 15.043 4.7716 15.3121 4.36426 15.2373L3.0293 14.9922C4.08686 18.1641 6.78082 20.5892 10.1084 21.2646C10.5143 21.347 10.7767 21.7435 10.6943 22.1494C10.6119 22.5553 10.2155 22.8177 9.80957 22.7354C5.51637 21.8638 2.13623 18.4837 1.26465 14.1904C1.2151 13.9464 1.29038 13.6934 1.46484 13.5156C1.63931 13.3379 1.8908 13.2587 2.13574 13.3037ZM21.2646 13.8916C21.3471 13.4857 21.7435 13.2233 22.1494 13.3057C22.5552 13.3882 22.8177 13.7846 22.7354 14.1904C21.8638 18.4837 18.4836 21.8637 14.1904 22.7354C13.9464 22.7849 13.6934 22.7096 13.5156 22.5352C13.3379 22.3607 13.2577 22.1092 13.3027 21.8643L13.7627 19.3643C13.8377 18.9571 14.2285 18.6879 14.6357 18.7627C15.043 18.8377 15.3121 19.2285 15.2373 19.6357L14.9922 20.9707C18.1641 19.9131 20.5892 17.2192 21.2646 13.8916ZM12.1875 6.53711C12.3849 6.28553 12.7202 6.18668 13.0225 6.29102C13.3248 6.39542 13.5273 6.68016 13.5273 7V10.7988H15.5C15.787 10.7989 16.0483 10.9627 16.1738 11.2207C16.2994 11.4788 16.267 11.7859 16.0898 12.0117L11.8125 17.4629C11.6152 17.7144 11.2797 17.8132 10.9775 17.709C10.6753 17.6045 10.4717 17.3198 10.4717 17V13.208H8.5C8.21305 13.208 7.95079 13.0441 7.8252 12.7861C7.69994 12.5284 7.73257 12.2218 7.90918 11.9961L12.1875 6.53711ZM10.04 11.708H11.2217C11.6358 11.708 11.9715 12.0439 11.9717 12.458V14.8291L13.958 12.2988H12.7773C12.5785 12.2988 12.3877 12.2197 12.2471 12.0791C12.1065 11.9385 12.0274 11.7477 12.0273 11.5488V9.17285L10.04 11.708ZM9.80957 1.26465C10.0536 1.21511 10.3066 1.29044 10.4844 1.46484C10.6621 1.6393 10.7423 1.89078 10.6973 2.13574L10.2373 4.63574C10.1624 5.04304 9.7716 5.31212 9.36426 5.2373C8.95702 5.16235 8.68789 4.77156 8.7627 4.36426L9.00781 3.0293C5.83599 4.08684 3.41087 6.78089 2.73535 10.1084C2.65295 10.5143 2.25652 10.7767 1.85059 10.6943C1.4449 10.6119 1.18257 10.2163 1.26465 9.81055C2.13615 5.51721 5.51627 2.13625 9.80957 1.26465ZM13.3057 1.85059C13.3882 1.44483 13.7846 1.18227 14.1904 1.26465C18.4837 2.13629 21.8639 5.51724 22.7354 9.81055C22.7847 10.0544 22.7094 10.3068 22.5352 10.4844C22.3607 10.6621 22.1092 10.7423 21.8643 10.6973L19.3643 10.2373C18.957 10.1623 18.6879 9.77156 18.7627 9.36426C18.8377 8.9571 19.2285 8.68789 19.6357 8.7627L20.9707 9.00781C19.9132 5.83596 17.2192 3.41084 13.8916 2.73535C13.4857 2.65295 13.2233 2.25652 13.3057 1.85059Z" fill="#C69715"/>
</svg>
