<svg width="25" height="24" viewBox="0 0 25 24" fill="none" xmlns="http://www.w3.org/2000/svg">
<path d="M18.3359 1.25C19.8547 1.25 21.0859 2.48122 21.0859 4V21.5C21.0859 21.7598 20.9514 22.001 20.7305 22.1377C20.5095 22.2743 20.2334 22.2869 20.001 22.1709L16.377 20.3594L12.7334 22.6357C12.4902 22.7877 12.1817 22.7877 11.9385 22.6357L8.29492 20.3594L4.6709 22.1709C4.43849 22.2869 4.16239 22.2743 3.94141 22.1377C3.72047 22.001 3.58594 21.7598 3.58594 21.5V4C3.58594 2.48122 4.81715 1.25 6.33594 1.25H18.3359ZM6.33594 2.75C5.64558 2.75 5.08594 3.30964 5.08594 4V20.2861L8.00098 18.8291C8.23459 18.7125 8.51196 18.7259 8.7334 18.8643L12.3359 21.1152L15.9385 18.8643C16.1599 18.7259 16.4373 18.7125 16.6709 18.8291L19.5859 20.2861V4C19.5859 3.30964 19.0263 2.75 18.3359 2.75H6.33594ZM15.3359 13C15.8882 13 16.3359 13.4477 16.3359 14C16.3359 14.5523 15.8882 15 15.3359 15H15.3271C14.7749 15 14.3271 14.5523 14.3271 14C14.3271 13.4477 14.7749 13 15.3271 13H15.3359ZM14.8057 7.46973C15.0986 7.17683 15.5733 7.17683 15.8662 7.46973C16.1591 7.76262 16.1591 8.23738 15.8662 8.53027L9.86621 14.5303C9.57332 14.8232 9.09856 14.8232 8.80566 14.5303C8.51277 14.2374 8.51277 13.7626 8.80566 13.4697L14.8057 7.46973ZM9.34473 7C9.89701 7 10.3447 7.44772 10.3447 8C10.3447 8.55228 9.89701 9 9.34473 9H9.33594C8.78365 9 8.33594 8.55228 8.33594 8C8.33594 7.44772 8.78365 7 9.33594 7H9.34473Z" fill="#8B8B8B"/>
</svg>
