<svg width="20" height="20" viewBox="0 0 20 20" fill="none" xmlns="http://www.w3.org/2000/svg">
<path fill-rule="evenodd" clip-rule="evenodd" d="M5.91565 1.04172C5.95569 1.04174 5.99633 1.04175 6.03757 1.04175H13.9626C14.0038 1.04175 14.0444 1.04174 14.0845 1.04172C14.9318 1.04135 15.5148 1.0411 16.006 1.21198C16.9334 1.5347 17.6535 2.28107 17.9623 3.22134C18.1256 3.71895 18.1254 4.31047 18.1251 5.18881C18.1251 5.22812 18.1251 5.268 18.1251 5.30847V16.9786C18.1251 18.1996 16.6859 18.9265 15.7381 18.0592C15.6718 17.9986 15.5783 17.9986 15.5121 18.0592L15.1095 18.4276C14.336 19.1354 13.1641 19.1354 12.3907 18.4276C12.0948 18.1569 11.6553 18.1569 11.3595 18.4276C10.586 19.1354 9.41408 19.1354 8.64067 18.4276C8.34484 18.1569 7.90531 18.1569 7.60949 18.4276C6.83599 19.1354 5.66412 19.1354 4.89063 18.4276L4.48805 18.0592C4.42182 17.9986 4.32829 17.9986 4.26207 18.0592C3.31421 18.9265 1.87506 18.1996 1.87506 16.9786V5.30847C1.87506 5.268 1.87504 5.22812 1.87503 5.18881C1.87471 4.31048 1.87449 3.71895 2.03788 3.22134C2.34659 2.28107 3.06669 1.5347 3.99415 1.21198C4.48525 1.0411 5.06836 1.04135 5.91565 1.04172ZM6.03757 2.29175C5.02 2.29175 4.6695 2.3005 4.40494 2.39255C3.85546 2.58375 3.41599 3.03109 3.2255 3.61127C3.13293 3.89321 3.12506 4.26499 3.12506 5.30847V16.9786C3.12506 17.0778 3.17499 17.1384 3.23764 17.1674C3.27029 17.1825 3.3022 17.1864 3.3288 17.1829C3.35225 17.1797 3.38259 17.1696 3.41821 17.137C3.96211 16.6393 4.78801 16.6393 5.3319 17.137L5.73449 17.5054C6.03031 17.7761 6.46981 17.7761 6.76563 17.5054C7.53912 16.7976 8.711 16.7976 9.4845 17.5054C9.78033 17.7761 10.2198 17.7761 10.5157 17.5054C11.2891 16.7976 12.461 16.7976 13.2345 17.5054C13.5303 17.7761 13.9698 17.7761 14.2657 17.5054L14.6683 17.137C15.2121 16.6393 16.038 16.6393 16.5819 17.137C16.6175 17.1696 16.6478 17.1797 16.6713 17.1829C16.6979 17.1864 16.7298 17.1825 16.7625 17.1674C16.8251 17.1384 16.8751 17.0779 16.8751 16.9786V5.30847C16.8751 4.265 16.8672 3.89321 16.7746 3.61127C16.5841 3.03109 16.1447 2.58375 15.5952 2.39255C15.3306 2.3005 14.9801 2.29175 13.9626 2.29175H6.03757ZM12.4997 6.20054C12.7572 6.43044 12.7795 6.82554 12.5496 7.08301L9.57342 10.4164C9.45483 10.5492 9.28525 10.6251 9.10717 10.6251C8.92917 10.6251 8.75958 10.5492 8.641 10.4164L7.45051 9.08302C7.22062 8.82552 7.24299 8.43044 7.50047 8.20054C7.75794 7.97065 8.15304 7.99301 8.38292 8.25049L9.10717 9.06169L11.6172 6.25049C11.8471 5.99301 12.2422 5.97065 12.4997 6.20054ZM5.62506 12.9168C5.62506 12.5716 5.90488 12.2918 6.25006 12.2918H13.7501C14.0953 12.2918 14.3751 12.5716 14.3751 12.9168C14.3751 13.2619 14.0953 13.5418 13.7501 13.5418H6.25006C5.90488 13.5418 5.62506 13.2619 5.62506 12.9168Z" fill="#B34608"/>
</svg>
