<svg width="28" height="28" viewBox="0 0 28 28" fill="none" xmlns="http://www.w3.org/2000/svg">
<path fill-rule="evenodd" clip-rule="evenodd" d="M3.5 13.1247C3.98325 13.1247 4.375 13.5165 4.375 13.9997V18.9577H9.33301C9.81615 18.9577 10.2078 19.3496 10.208 19.8327V24.4997C10.208 24.983 9.81626 25.3747 9.33301 25.3747C8.84991 25.3745 8.45801 24.9829 8.45801 24.4997V20.7077H4.375V24.4997C4.375 24.983 3.98325 25.3747 3.5 25.3747C3.01675 25.3747 2.625 24.983 2.625 24.4997V13.9997C2.625 13.5165 3.01675 13.1247 3.5 13.1247ZM19.833 15.4577C20.3161 15.4577 20.7078 15.8496 20.708 16.3327C20.708 16.816 20.3163 17.2077 19.833 17.2077H14.875V23.6247H15.167C15.6501 23.6249 16.042 24.0166 16.042 24.4997C16.042 24.9829 15.6501 25.3745 15.167 25.3747H12.833C12.3499 25.3745 11.958 24.9829 11.958 24.4997C11.958 24.0166 12.3499 23.6249 12.833 23.6247H13.125V17.2077H8.16699C7.68374 17.2077 7.29199 16.816 7.29199 16.3327C7.29217 15.8496 7.68385 15.4577 8.16699 15.4577H19.833ZM24.5 13.1247C24.9832 13.1247 25.375 13.5165 25.375 13.9997V24.4997C25.375 24.983 24.9832 25.3747 24.5 25.3747C24.0168 25.3747 23.625 24.983 23.625 24.4997V20.7077H19.542V24.4997C19.542 24.9829 19.1501 25.3745 18.667 25.3747C18.1837 25.3747 17.792 24.983 17.792 24.4997V19.8327C17.7922 19.3496 18.1839 18.9577 18.667 18.9577H23.625V13.9997C23.625 13.5165 24.0168 13.1247 24.5 13.1247ZM13.0869 2.97726C13.6617 2.68987 14.3383 2.68988 14.9131 2.97726L21.375 6.20773C21.3859 6.21289 21.3966 6.21873 21.4072 6.22433L23.7246 7.38253C24.1567 7.5986 24.3321 8.12419 24.1162 8.55636C23.9001 8.98855 23.3746 9.16399 22.9424 8.94796L21.875 8.41476V11.6657C21.8748 12.1488 21.4831 12.5407 21 12.5407C20.517 12.5406 20.1252 12.1488 20.125 11.6657V7.53976L14.1309 4.54269C14.0488 4.50165 13.9522 4.50168 13.8701 4.54269L7.875 7.53976V11.6657C7.87482 12.1488 7.48314 12.5407 7 12.5407C6.51695 12.5406 6.12518 12.1488 6.125 11.6657V8.41476L5.05859 8.94796C4.62636 9.16408 4.0999 8.98859 3.88379 8.55636C3.66803 8.12422 3.84333 7.59858 4.27539 7.38253L6.59277 6.22433L13.0869 2.97726Z" fill="#C69815"/>
</svg>
