<svg width="20" height="20" viewBox="0 0 20 20" fill="none" xmlns="http://www.w3.org/2000/svg">
<path fill-rule="evenodd" clip-rule="evenodd" d="M2.5 9.37466C2.84518 9.37466 3.125 9.65449 3.125 9.99966V13.5417H6.66699C7.01202 13.5418 7.29199 13.8216 7.29199 14.1667V17.4997C7.29199 17.8447 7.01202 18.1245 6.66699 18.1247C6.32181 18.1247 6.04199 17.8448 6.04199 17.4997V14.7917H3.125V17.4997C3.125 17.8448 2.84518 18.1247 2.5 18.1247C2.15482 18.1247 1.875 17.8448 1.875 17.4997V9.99966C1.875 9.65449 2.15482 9.37466 2.5 9.37466ZM14.167 11.0417C14.512 11.0418 14.792 11.3216 14.792 11.6667C14.7918 12.0116 14.5119 12.2915 14.167 12.2917H10.625V16.8747H10.833C11.1782 16.8747 11.458 17.1545 11.458 17.4997C11.458 17.8448 11.1782 18.1247 10.833 18.1247H9.16699C8.82181 18.1247 8.54199 17.8448 8.54199 17.4997C8.54199 17.1545 8.82181 16.8747 9.16699 16.8747H9.375V12.2917H5.83301C5.48809 12.2915 5.20818 12.0116 5.20801 11.6667C5.20801 11.3216 5.48798 11.0418 5.83301 11.0417H14.167ZM17.5 9.37466C17.8452 9.37466 18.125 9.65449 18.125 9.99966V17.4997C18.125 17.8448 17.8452 18.1247 17.5 18.1247C17.1548 18.1247 16.875 17.8448 16.875 17.4997V14.7917H13.958V17.4997C13.958 17.8448 13.6782 18.1247 13.333 18.1247C12.988 18.1245 12.708 17.8447 12.708 17.4997V14.1667C12.708 13.8216 12.988 13.5418 13.333 13.5417H16.875V9.99966C16.875 9.65449 17.1548 9.37466 17.5 9.37466ZM9.34766 2.12662C9.75822 1.92134 10.2418 1.92134 10.6523 2.12662L15.291 4.44595L16.9463 5.2731C17.255 5.42747 17.38 5.80323 17.2256 6.11197C17.0712 6.42044 16.6963 6.54536 16.3877 6.39126L15.625 6.01041V8.33267C15.6248 8.67767 15.3451 8.95767 15 8.95767C14.655 8.9576 14.3752 8.67763 14.375 8.33267V5.38541L10.0938 3.24478C10.0351 3.21546 9.96587 3.21547 9.90723 3.24478L5.625 5.38541V8.33267C5.62479 8.67767 5.34505 8.95767 5 8.95767C4.65501 8.9576 4.37521 8.67763 4.375 8.33267V6.01041L3.61328 6.39126C3.30458 6.54561 2.92882 6.42062 2.77441 6.11197C2.62007 5.80328 2.74507 5.42751 3.05371 5.2731L4.70898 4.44595L9.34766 2.12662Z" fill="#697586"/>
</svg>
