<svg width="24" height="24" viewBox="0 0 24 24" fill="none" xmlns="http://www.w3.org/2000/svg">
<path fill-rule="evenodd" clip-rule="evenodd" d="M3 11.2501C3.41421 11.2501 3.75 11.5859 3.75 12.0001V16.2501H8C8.41421 16.2501 8.75 16.5859 8.75 17.0001V21.0001C8.75 21.4143 8.41421 21.7501 8 21.7501C7.58579 21.7501 7.25 21.4143 7.25 21.0001V17.7501H3.75V21.0001C3.75 21.4143 3.41421 21.7501 3 21.7501C2.58579 21.7501 2.25 21.4143 2.25 21.0001V12.0001C2.25 11.5859 2.58579 11.2501 3 11.2501ZM17 13.2501C17.4142 13.2501 17.75 13.5859 17.75 14.0001C17.75 14.4143 17.4142 14.7501 17 14.7501H12.75V20.2501H13C13.4142 20.2501 13.75 20.5859 13.75 21.0001C13.75 21.4143 13.4142 21.7501 13 21.7501H11C10.5858 21.7501 10.25 21.4143 10.25 21.0001C10.25 20.5859 10.5858 20.2501 11 20.2501H11.25V14.7501H7C6.58579 14.7501 6.25 14.4143 6.25 14.0001C6.25 13.5859 6.58579 13.2501 7 13.2501H17ZM21 11.2501C21.4142 11.2501 21.75 11.5859 21.75 12.0001V21.0001C21.75 21.4143 21.4142 21.7501 21 21.7501C20.5858 21.7501 20.25 21.4143 20.25 21.0001V17.7501H16.75V21.0001C16.75 21.4143 16.4142 21.7501 16 21.7501C15.5858 21.7501 15.25 21.4143 15.25 21.0001V17.0001C15.25 16.5859 15.5858 16.2501 16 16.2501H20.25V12.0001C20.25 11.5859 20.5858 11.2501 21 11.2501ZM11.2178 2.55188C11.7104 2.30567 12.2906 2.30558 12.7832 2.55188L18.3213 5.32141C18.3305 5.32578 18.3396 5.33034 18.3486 5.33508L20.3359 6.32824C20.7063 6.51355 20.8561 6.96466 20.6709 7.33508C20.4856 7.70524 20.0354 7.85506 19.665 7.67004L18.75 7.21301V9.99914C18.75 10.4134 18.4142 10.7491 18 10.7491C17.5859 10.7491 17.25 10.4133 17.25 9.99914V6.46301L12.1123 3.89367C12.042 3.85852 11.959 3.85861 11.8887 3.89367L6.75 6.46301V9.99914C6.75 10.4134 6.41421 10.7491 6 10.7491C5.58586 10.7491 5.25 10.4133 5.25 9.99914V7.21301L4.33594 7.67004C3.96553 7.85524 3.51441 7.7054 3.3291 7.33508C3.14386 6.96459 3.29456 6.51348 3.66504 6.32824L5.65137 5.33508C5.66055 5.33024 5.67028 5.32587 5.67969 5.32141L11.2178 2.55188Z" fill="#4D0CE7"/>
</svg>
