<svg width="24" height="24" viewBox="0 0 24 24" fill="none" xmlns="http://www.w3.org/2000/svg">
<path d="M3 11.25C3.41421 11.25 3.75 11.5858 3.75 12V16.25H8C8.41421 16.25 8.75 16.5858 8.75 17V21C8.75 21.4142 8.41421 21.75 8 21.75C7.58579 21.75 7.25 21.4142 7.25 21V17.75H3.75V21C3.75 21.4142 3.41421 21.75 3 21.75C2.58579 21.75 2.25 21.4142 2.25 21V12C2.25 11.5858 2.58579 11.25 3 11.25ZM17 13.25C17.4142 13.25 17.75 13.5858 17.75 14C17.75 14.4142 17.4142 14.75 17 14.75H12.75V20.25H13C13.4142 20.25 13.75 20.5858 13.75 21C13.75 21.4142 13.4142 21.75 13 21.75H11C10.5858 21.75 10.25 21.4142 10.25 21C10.25 20.5858 10.5858 20.25 11 20.25H11.25V14.75H7C6.58579 14.75 6.25 14.4142 6.25 14C6.25 13.5858 6.58579 13.25 7 13.25H17ZM21 11.25C21.4142 11.25 21.75 11.5858 21.75 12V21C21.75 21.4142 21.4142 21.75 21 21.75C20.5858 21.75 20.25 21.4142 20.25 21V17.75H16.75V21C16.75 21.4142 16.4142 21.75 16 21.75C15.5858 21.75 15.25 21.4142 15.25 21V17C15.25 16.5858 15.5858 16.25 16 16.25H20.25V12C20.25 11.5858 20.5858 11.25 21 11.25ZM11.2178 2.55176C11.7104 2.30555 12.2906 2.30546 12.7832 2.55176L18.3213 5.32129C18.3305 5.32566 18.3396 5.33022 18.3486 5.33496L20.3359 6.32812C20.7063 6.51343 20.8561 6.96455 20.6709 7.33496C20.4856 7.70512 20.0354 7.85495 19.665 7.66992L18.75 7.21289V9.99902C18.75 10.4132 18.4142 10.749 18 10.749C17.5859 10.7489 17.25 10.4132 17.25 9.99902V6.46289L12.1123 3.89355C12.042 3.85841 11.959 3.85849 11.8887 3.89355L6.75 6.46289V9.99902C6.75 10.4132 6.41421 10.749 6 10.749C5.58586 10.7489 5.25 10.4132 5.25 9.99902V7.21289L4.33594 7.66992C3.96553 7.85513 3.51441 7.70528 3.3291 7.33496C3.14386 6.96448 3.29456 6.51337 3.66504 6.32812L5.65137 5.33496C5.66055 5.33013 5.67028 5.32575 5.67969 5.32129L11.2178 2.55176Z" fill="#161616"/>
</svg>
