<svg width="20" height="20" viewBox="0 0 20 20" fill="none" xmlns="http://www.w3.org/2000/svg">
<path d="M4.16797 12.708C5.89105 12.7082 7.2928 14.1099 7.29297 15.833C7.29297 17.5562 5.89115 18.9578 4.16797 18.958C2.44464 18.958 1.04297 17.5563 1.04297 15.833C1.04314 14.1098 2.44474 12.708 4.16797 12.708ZM4.16797 13.958C3.13391 13.958 2.29314 14.799 2.29297 15.833C2.29297 16.8672 3.1338 17.708 4.16797 17.708C5.20199 17.7078 6.04297 16.8671 6.04297 15.833C6.0428 14.7991 5.20188 13.9582 4.16797 13.958ZM9.16797 5.20801C9.51271 5.20818 9.7928 5.48826 9.79297 5.83301C9.79297 6.1779 9.51282 6.45783 9.16797 6.45801H7.91797C6.65476 6.45801 5.62619 7.29899 5.62598 8.33301C5.62598 9.36717 6.65464 10.208 7.91797 10.208H10.418C12.3702 10.2082 13.9588 11.6099 13.959 13.333C13.959 15.0562 12.3703 16.4579 10.418 16.458H9.16797C8.82297 16.458 8.54297 16.178 8.54297 15.833C8.54314 15.4882 8.82307 15.208 9.16797 15.208H10.418C11.6812 15.2079 12.709 14.3671 12.709 13.333C12.7088 12.2991 11.681 11.4582 10.418 11.458H7.91797C5.96547 11.458 4.37598 10.0563 4.37598 8.33301C4.37617 6.60982 5.96559 5.20801 7.91797 5.20801H9.16797ZM15.002 1.04102C16.5776 1.04121 18.0477 2.00445 18.6602 3.43848C19.7158 5.94169 17.7829 7.74587 16.3721 9.0625C16.2571 9.16995 16.144 9.27591 16.0332 9.38086C15.7575 9.64575 15.3918 9.7909 15.002 9.79102V9.79199C14.612 9.79199 14.2436 9.64474 13.9678 9.37891C13.8495 9.26567 13.7265 9.14962 13.6016 9.03223C12.2057 7.72223 10.2953 5.92787 11.3428 3.44043C11.9562 2.00405 13.4263 1.04102 15.002 1.04102ZM15.002 2.29199C13.9196 2.29199 12.9116 2.94975 12.4932 3.92871C11.8332 5.49454 12.8419 6.60625 14.4561 8.12207C14.5835 8.24204 14.7105 8.36006 14.833 8.47754C14.9187 8.55993 15.0844 8.55834 15.167 8.47949L15.1709 8.47559C15.284 8.36827 15.4004 8.25923 15.5186 8.14941C17.1527 6.62444 18.1736 5.50603 17.5078 3.92773C17.0912 2.95033 16.0834 2.29309 15.001 2.29297L15.002 2.29199ZM15.0088 4.16699C15.4688 4.16699 15.8428 4.54 15.8428 5C15.8428 5.46 15.4688 5.83301 15.0088 5.83301C14.549 5.83279 14.1719 5.45986 14.1719 5C14.1719 4.54 14.541 4.16699 15.001 4.16699H15.0088Z" fill="#8B8B8B"/>
</svg>
