<svg width="18" height="18" viewBox="0 0 18 18" fill="none" xmlns="http://www.w3.org/2000/svg">
<path d="M0.182617 0.183044C0.426683 -0.0610219 0.823302 -0.0609991 1.06738 0.183044L7.88672 7.00238C7.89541 7.01037 7.90573 7.01725 7.91406 7.02582C7.92006 7.03199 7.924 7.03997 7.92969 7.04633L10.8252 9.94183C10.8321 9.94802 10.8409 9.95286 10.8477 9.95941C10.8561 9.96768 10.8622 9.97813 10.8701 9.98676L15.6475 14.7641C15.6501 14.7667 15.6527 14.7693 15.6553 14.7719L17.7334 16.85C17.9775 17.0941 17.9775 17.4897 17.7334 17.7338C17.4893 17.9779 17.0937 17.9779 16.8496 17.7338L15.041 15.9252C14.528 16.076 13.9518 16.1554 13.2949 16.1977C12.4661 16.2511 11.4586 16.2504 10.2285 16.2504H7.66895C6.13644 16.2504 4.93222 16.2502 3.9834 16.143C3.01516 16.0336 2.22985 15.8059 1.57715 15.2905C1.38175 15.1362 1.20086 14.9655 1.03613 14.7807C0.480987 14.158 0.232338 13.403 0.114258 12.477C-0.000377539 11.5776 -1.18661e-05 10.4396 0 9.00336V8.91547C-1.18695e-05 7.47901 -0.000398802 6.34032 0.114258 5.44086C0.232338 4.5149 0.480987 3.75983 1.03613 3.13715C1.20085 2.95241 1.38176 2.78168 1.57715 2.62738C1.6081 2.60294 1.64025 2.58029 1.67188 2.55707L0.182617 1.06781C-0.0614263 0.82373 -0.0614491 0.427111 0.182617 0.183044ZM2.57227 3.45746C2.49486 3.50405 2.42101 3.55398 2.35156 3.60883C2.21268 3.71854 2.08454 3.8393 1.96875 3.96918C1.64666 4.33054 1.45573 4.80519 1.35449 5.59906C1.25109 6.41029 1.25 7.46922 1.25 8.95941C1.25 10.4496 1.25105 11.5086 1.35449 12.3198C1.45574 13.1133 1.64674 13.5874 1.96875 13.9487C2.08453 14.0785 2.2127 14.1993 2.35156 14.309C2.7443 14.6192 3.26508 14.8048 4.12402 14.9018C4.99444 15.0001 6.12745 15.0004 7.70801 15.0004H10.208C11.4623 15.0004 12.4306 15.0001 13.2148 14.9496C13.5025 14.9311 13.7583 14.9052 13.9883 14.8725L10.3594 11.2436C9.9416 11.5072 9.44843 11.6635 8.91797 11.6635C7.42229 11.6635 6.20913 10.4511 6.20898 8.95551C6.20898 8.42508 6.36438 7.9309 6.62793 7.51312L2.57227 3.45746ZM10.248 1.66742C11.7804 1.66741 12.9839 1.66672 13.9326 1.77386C14.9011 1.88326 15.687 2.11183 16.3398 2.62738C16.5352 2.78168 16.7162 2.95242 16.8809 3.13715C17.4359 3.7597 17.6837 4.51418 17.8018 5.43988C17.9165 6.33933 17.917 7.47798 17.917 8.91449V9.06097C17.9171 10.898 17.9167 12.2625 17.6514 13.2827C17.5645 13.6166 17.2236 13.8166 16.8896 13.7299C16.5556 13.643 16.3546 13.3022 16.4414 12.9682C16.6614 12.1227 16.667 10.924 16.667 8.95844C16.667 7.46815 16.6659 6.40931 16.5625 5.59808C16.4613 4.80456 16.2702 4.33046 15.9482 3.96918C15.8323 3.83919 15.7035 3.71862 15.5645 3.60883C15.1718 3.2987 14.6518 3.1131 13.793 3.01605C12.9225 2.91772 11.7888 2.91742 10.208 2.91742H7.70801C6.91818 2.91742 6.23681 2.91715 5.63867 2.93011C5.29358 2.9376 5.00748 2.66388 5 2.31879C4.99254 1.97376 5.26632 1.68768 5.61133 1.68011C6.22452 1.66682 6.91927 1.66742 7.70312 1.66742H10.248ZM7.55469 8.4389C7.49384 8.59949 7.45898 8.77341 7.45898 8.95551C7.45913 9.76079 8.11265 10.4135 8.91797 10.4135C9.09955 10.4135 9.27241 10.3784 9.43262 10.3178L7.55469 8.4389ZM3.54199 8.12543C4.00198 8.12558 4.37481 8.49846 4.375 8.95844C4.375 9.41858 4.0021 9.79226 3.54199 9.79242H3.53418C3.07396 9.7924 2.70117 9.41866 2.70117 8.95844C2.70137 8.49838 3.07408 8.12545 3.53418 8.12543H3.54199ZM14.3828 8.12543C14.8429 8.12543 15.2166 8.49836 15.2168 8.95844C15.2168 9.41867 14.843 9.79242 14.3828 9.79242H14.376C13.9157 9.79242 13.542 9.41867 13.542 8.95844C13.5422 8.49836 13.9159 8.12543 14.376 8.12543H14.3828Z" fill="#8B8B8B"/>
</svg>
