<svg width="24" height="24" viewBox="0 0 24 24" fill="none" xmlns="http://www.w3.org/2000/svg">
<path fill-rule="evenodd" clip-rule="evenodd" d="M20.3623 13.4287C21.238 12.1731 21.752 10.6455 21.752 8.99997C21.752 4.71976 18.2822 1.24997 14.002 1.24997C9.72175 1.24997 6.25195 4.71976 6.25195 8.99997C6.25195 10.1872 6.51935 11.3146 6.99805 12.3222L8.35352 11.6777C7.96839 10.8669 7.75195 9.95984 7.75195 8.99997C7.75195 5.54819 10.5502 2.74997 14.002 2.74997C17.4537 2.74997 20.252 5.54819 20.252 8.99997C20.252 10.3289 19.8378 11.5592 19.1318 12.5713L20.3623 13.4287ZM14.752 12.666C15.166 12.5715 15.5478 12.3999 15.8662 12.1611C16.3702 11.7831 16.752 11.2032 16.752 10.5C16.752 9.79676 16.3702 9.21684 15.8662 8.83884C15.3625 8.46111 14.7007 8.24997 14.002 8.24997C13.5965 8.24997 13.2582 8.12585 13.0381 7.96091C12.8182 7.79602 12.752 7.62519 12.752 7.49997C12.752 7.37475 12.8182 7.20393 13.0381 7.03904C13.2582 6.8741 13.5965 6.74997 14.002 6.74997C14.6701 6.74997 15.0926 7.07059 15.21 7.31931L16.5664 6.68064C16.2365 5.98066 15.5406 5.51559 14.752 5.33493V4.49997H13.252V5.33396C12.8379 5.42844 12.4561 5.60007 12.1377 5.83884C11.6337 6.21684 11.252 6.79676 11.252 7.49997C11.252 8.20318 11.6337 8.78311 12.1377 9.16111C12.6414 9.53884 13.3032 9.74997 14.002 9.74997C14.4074 9.74997 14.7457 9.8741 14.9658 10.039C15.1857 10.2039 15.252 10.3748 15.252 10.5C15.252 10.6252 15.1857 10.796 14.9658 10.9609C14.7457 11.1258 14.4074 11.25 14.002 11.25C13.3338 11.25 12.9113 10.9294 12.7939 10.6806L11.4375 11.3193C11.7674 12.0193 12.4633 12.4844 13.252 12.665V13.5H14.752V12.666ZM9.7959 22.7217C9.97581 22.7725 10.1687 22.7545 10.3359 22.6709L19.3359 18.1709C19.6847 17.9964 19.8411 17.5838 19.6963 17.2217L19.3975 16.4726C18.8568 15.1209 17.3558 14.4246 15.9746 14.8847L12.3154 16.1045C11.7653 15.2586 10.7394 14.625 9.50098 14.625H8.69336L6.3623 13.3427C6.25161 13.2819 6.1273 13.25 6.00098 13.25L3.00098 13.25L3.00098 14.75L5.80859 14.75L8.13965 16.0322C8.25036 16.0931 8.37462 16.125 8.50098 16.125L9.50098 16.125C10.3144 16.125 10.8613 16.5676 11.1055 17.0078L9.00098 17.709L6.23828 16.7881L5.76367 18.2109L8.76367 19.2109C8.91762 19.2622 9.08433 19.2622 9.23828 19.2109L12.2383 18.2109C12.5313 18.1131 12.7333 17.8467 12.75 17.541L16.4482 16.3076C17.076 16.0983 17.758 16.415 18.0039 17.0293L18.0479 17.1377L9.9248 21.1992L3.20508 19.2978L2.79688 20.7412L9.7959 22.7217Z" fill="#C69815"/>
</svg>
