<svg width="24" height="24" viewBox="0 0 24 24" fill="none" xmlns="http://www.w3.org/2000/svg">
<path d="M2.5 14.25C2.91421 14.25 3.25 14.5858 3.25 15V19.5C3.25 20.1904 3.80964 20.75 4.5 20.75H9C9.41421 20.75 9.75 21.0858 9.75 21.5C9.75 21.9142 9.41421 22.25 9 22.25H4.5C2.98122 22.25 1.75 21.0188 1.75 19.5V15C1.75 14.5858 2.08579 14.25 2.5 14.25ZM21.5 14.25C21.9142 14.25 22.25 14.5858 22.25 15V19.5C22.25 21.0188 21.0188 22.25 19.5 22.25H15C14.5858 22.25 14.25 21.9142 14.25 21.5C14.25 21.0858 14.5858 20.75 15 20.75H19.5C20.1904 20.75 20.75 20.1904 20.75 19.5V15C20.75 14.5858 21.0858 14.25 21.5 14.25ZM13.5 14.75C13.9142 14.75 14.25 15.0858 14.25 15.5V17.5C14.25 17.9142 13.9142 18.25 13.5 18.25C13.0858 18.25 12.75 17.9142 12.75 17.5V15.5C12.75 15.0858 13.0858 14.75 13.5 14.75ZM12 8.75C13.2426 8.75 14.25 9.75736 14.25 11V12.5C14.25 12.9142 13.9142 13.25 13.5 13.25C13.0858 13.25 12.75 12.9142 12.75 12.5V11C12.75 10.5858 12.4142 10.25 12 10.25C11.5858 10.25 11.25 10.5858 11.25 11V16.5C11.25 16.9142 10.9142 17.25 10.5 17.25C10.0858 17.25 9.75 16.9142 9.75 16.5V11C9.75 9.75736 10.7574 8.75 12 8.75ZM12 5.75C14.8995 5.75 17.25 8.10051 17.25 11V15.5C17.25 15.9142 16.9142 16.25 16.5 16.25C16.0858 16.25 15.75 15.9142 15.75 15.5V11C15.75 8.92893 14.0711 7.25 12 7.25C9.92893 7.25 8.25 8.92893 8.25 11V15.5C8.25 15.9142 7.91421 16.25 7.5 16.25C7.08579 16.25 6.75 15.9142 6.75 15.5V11C6.75 8.10051 9.10051 5.75 12 5.75ZM9 1.75C9.41421 1.75 9.75 2.08579 9.75 2.5C9.75 2.91421 9.41421 3.25 9 3.25H4.5C3.80964 3.25 3.25 3.80964 3.25 4.5V9C3.25 9.41421 2.91421 9.75 2.5 9.75C2.08579 9.75 1.75 9.41421 1.75 9V4.5C1.75 2.98122 2.98122 1.75 4.5 1.75H9ZM19.5 1.75C21.0188 1.75 22.25 2.98122 22.25 4.5V9C22.25 9.41421 21.9142 9.75 21.5 9.75C21.0858 9.75 20.75 9.41421 20.75 9V4.5C20.75 3.80964 20.1904 3.25 19.5 3.25H15C14.5858 3.25 14.25 2.91421 14.25 2.5C14.25 2.08579 14.5858 1.75 15 1.75H19.5Z" fill="#161616"/>
</svg>
