<svg width="22" height="23" viewBox="0 0 22 23" fill="none" xmlns="http://www.w3.org/2000/svg">
<path d="M10 0.75C15.3848 0.75 19.75 5.11522 19.75 10.5C19.75 12.9223 18.8635 15.1357 17.4014 16.8408L21.5303 20.9697C21.8232 21.2626 21.8232 21.7374 21.5303 22.0303C21.2374 22.3232 20.7626 22.3232 20.4697 22.0303L16.3408 17.9014C14.6357 19.3635 12.4223 20.25 10 20.25C4.61522 20.25 0.25 15.8848 0.25 10.5C0.25 5.11522 4.61522 0.75 10 0.75ZM10 2.25C5.44365 2.25 1.75 5.94365 1.75 10.5C1.75 15.0563 5.44365 18.75 10 18.75C14.5563 18.75 18.25 15.0563 18.25 10.5C18.25 5.94365 14.5563 2.25 10 2.25Z" fill="#697586"/>
</svg>
