<svg width="24" height="24" viewBox="0 0 24 24" fill="none" xmlns="http://www.w3.org/2000/svg">
<path d="M10.834 1.53871C11.5611 1.15376 12.4389 1.15376 13.166 1.53871C14.368 2.17507 16.8303 3.32027 19.7832 3.83363C20.8727 4.02301 21.75 4.95426 21.75 6.1227V11.0504C21.75 14.5412 19.9703 17.2078 18.0078 19.0827C16.048 20.955 13.8482 22.0967 12.8467 22.5612C12.3058 22.812 11.6942 22.812 11.1533 22.5612C10.1518 22.0967 7.95199 20.955 5.99219 19.0827C4.02973 17.2078 2.25 14.5412 2.25 11.0504V6.1227C2.25004 4.95426 3.12734 4.02301 4.2168 3.83363C7.16973 3.32027 9.63205 2.17507 10.834 1.53871ZM12.4639 2.86391C12.176 2.71164 11.824 2.71164 11.5361 2.86391C10.2594 3.53986 7.6406 4.7606 4.47363 5.31117C4.04441 5.38579 3.75004 5.7412 3.75 6.1227V11.0504C3.75 13.9881 5.23918 16.2894 7.02832 17.9987C8.81991 19.7102 10.8543 20.7696 11.7842 21.2008C11.9248 21.266 12.0752 21.266 12.2158 21.2008C13.1457 20.7696 15.1801 19.7102 16.9717 17.9987C18.7608 16.2894 20.25 13.9881 20.25 11.0504V6.1227C20.25 5.7412 19.9556 5.38579 19.5264 5.31117C16.3594 4.7606 13.7406 3.53986 12.4639 2.86391ZM12 6.74965C12.4142 6.74965 12.75 7.08544 12.75 7.49965V9.49965C12.7499 9.9138 12.4142 10.2496 12 10.2496C11.5858 10.2496 11.2501 9.9138 11.25 9.49965V7.49965C11.25 7.08544 11.5858 6.74965 12 6.74965Z" fill="#4D0CE7"/>
</svg>
