<svg width="24" height="24" viewBox="0 0 24 24" fill="none" xmlns="http://www.w3.org/2000/svg">
<path d="M14.4912 20.5149C15.7212 21.7348 17.5211 22.055 19.041 21.4651C19.271 21.3751 19.451 21.175 19.501 20.925C19.551 20.675 19.4711 20.4146 19.291 20.2346L18.0909 19.0344V18.0949L19.0313 18.0949L20.2315 19.2951L20.3018 19.3576C20.4755 19.493 20.7021 19.5488 20.9209 19.5051C21.1709 19.4551 21.3709 19.2751 21.461 19.0451C22.051 17.5251 21.7308 15.7253 20.5108 14.4953C19.4074 13.401 17.8466 13.0335 16.4395 13.3947L14.0508 11.0061L17.9952 7.06173L18.4698 7.53634C18.6297 7.69625 18.86 7.77616 19.0899 7.7463C19.3199 7.7263 19.5207 7.58572 19.6407 7.39572L21.1407 4.89572L21.1973 4.78048C21.3051 4.50345 21.2404 4.18584 21.0303 3.9758L20.0303 2.9758C19.8203 2.76577 19.5027 2.70098 19.2256 2.8088L19.1104 2.86544L16.6104 4.36544C16.4204 4.48545 16.2798 4.68623 16.2598 4.91623C16.2299 5.1461 16.3099 5.37642 16.4698 5.53634L16.9356 6.00216L12.9912 9.9465L10.6114 7.56662C10.9726 6.15951 10.6051 4.59865 9.51078 3.49533C8.28078 2.27533 6.48097 1.95513 4.96097 2.54513C4.73105 2.63516 4.551 2.83523 4.50101 3.08517C4.45113 3.33498 4.5312 3.59469 4.71097 3.77462L5.91117 4.97482V5.91525H4.97171L3.77152 4.71505L3.70023 4.65255C3.52642 4.51719 3.29995 4.46132 3.08109 4.50509C2.83111 4.55511 2.63104 4.73507 2.54105 4.96505C1.95113 6.48502 2.27129 8.2849 3.49125 9.51486C4.59215 10.6068 6.14098 10.9756 7.54398 10.6184L8.585 11.6604L3.3721 16.8733C2.5424 17.6931 2.54259 19.023 3.3721 19.843L4.16214 20.633C4.98214 21.463 6.31285 21.463 7.13285 20.633L12.3457 15.4201L13.3877 16.4621C13.0305 17.8651 13.3993 19.414 14.4912 20.5149ZM17.1729 20.2375C16.5833 20.1653 16.0124 19.9011 15.5616 19.4445C14.8115 18.7038 14.5799 17.6383 14.8672 16.7004L14.9307 16.5149L14.9649 16.4084C15.024 16.1589 14.955 15.8987 14.7715 15.7151L8.29105 9.23458L8.20804 9.1633C8.03343 9.03422 7.81167 8.99052 7.59769 9.04123L7.49125 9.07541L7.3057 9.13888C6.36778 9.42616 5.30227 9.19464 4.56156 8.44455C4.10505 7.99374 3.84085 7.42281 3.76859 6.83322L4.13089 7.19455C4.27089 7.33455 4.46117 7.41525 4.66117 7.41525L6.66117 7.41525C7.07103 7.41521 7.41099 7.07508 7.41117 6.66525L7.41117 4.66525C7.41117 4.46532 7.33135 4.27496 7.19144 4.13498L6.66117 4.66525H6.66019L7.19144 4.13498L6.82816 3.77267C7.41817 3.84473 7.99034 4.10785 8.44144 4.56466C9.19148 5.30533 9.42242 6.37148 9.12699 7.31759L9.06156 7.50509L9.03128 7.60861C8.97877 7.85353 9.04781 8.12122 9.23148 8.3049L15.7012 14.7746C15.9112 14.9846 16.231 15.0445 16.501 14.9445C17.491 14.5546 18.6515 14.7647 19.4414 15.5647C19.8983 16.0158 20.1614 16.5879 20.2334 17.1779L19.8711 16.8147C19.7311 16.6748 19.5408 16.5949 19.3409 16.5949H17.3409C16.931 16.5951 16.5909 16.9351 16.5909 17.3449L16.5909 19.3449C16.5909 19.5449 16.6716 19.7352 16.8116 19.8752L17.1729 20.2375ZM18.209 5.15548L19.3828 4.45041L19.5557 4.62326L18.8506 5.79708L18.209 5.15548ZM6.0723 19.5735C5.83233 19.8133 5.45265 19.8133 5.22269 19.5735L4.43265 18.7834C4.1927 18.5535 4.1928 18.1738 4.43265 17.9338L9.64554 12.7209L11.2852 14.3606L6.0723 19.5735Z" fill="#161616"/>
</svg>
