<svg width="24" height="24" viewBox="0 0 24 24" fill="none" xmlns="http://www.w3.org/2000/svg">
<path fill-rule="evenodd" clip-rule="evenodd" d="M22.0134 13.2422L21.9929 13.2617C22.4027 13.2617 22.7426 13.6019 22.7429 14.0117C22.7429 14.4217 22.4029 14.7617 21.9929 14.7617H20.323L16.6325 18.8125C15.7926 19.7323 14.6526 20.2825 13.4128 20.3525L7.7927 20.7021C7.4928 20.7222 7.20306 20.8524 6.98313 21.0723L5.52316 22.5322C5.37316 22.6822 5.18289 22.752 4.99289 22.752C4.80291 22.7519 4.6126 22.6822 4.46262 22.5322C4.17289 22.2423 4.17306 21.7626 4.46262 21.4727L5.92258 20.002C6.41256 19.522 7.04288 19.2422 7.70285 19.2021L13.3327 18.8525C14.1827 18.8025 14.9629 18.422 15.5329 17.792L18.3025 14.7422H16.8132L15.1228 16.4326C14.6129 16.9523 13.923 17.2421 13.1833 17.2422H9.5134C9.1034 17.2422 8.7634 16.9022 8.7634 16.4922C8.7634 16.0822 9.1034 15.7422 9.5134 15.7422H12.2429C12.1229 15.1723 11.6132 14.7424 11.0134 14.7422H8.67258C7.80271 14.7423 6.98269 15.0825 6.37277 15.6924L2.5427 19.5225C2.25275 19.8121 1.77307 19.8121 1.48313 19.5225C1.19313 19.2325 1.19313 18.7519 1.48313 18.4619L5.20285 14.7422H4.0134C3.6034 14.7422 3.2634 14.4022 3.2634 13.9922C3.2634 13.5822 3.6034 13.2422 4.0134 13.2422H22.0134ZM13.4529 14.7422C13.5929 15.0122 13.6931 15.3023 13.7331 15.6123C13.8531 15.5523 13.9632 15.472 14.0632 15.3721L14.6931 14.7422H13.4529ZM13.0134 1.24219C13.4234 1.24219 13.7634 1.58219 13.7634 1.99219V2.77246C18.2434 3.15246 21.7634 6.92219 21.7634 11.4922C21.7634 11.9022 21.4234 12.2422 21.0134 12.2422C20.6034 12.2421 20.2634 11.9022 20.2634 11.4922C20.2634 7.49219 17.0134 4.24219 13.0134 4.24219C9.01343 4.24223 5.7634 7.49221 5.7634 11.4922C5.7634 11.9022 5.4234 12.2422 5.0134 12.2422C4.60343 12.2421 4.2634 11.9022 4.2634 11.4922C4.2634 6.92222 7.78345 3.15251 12.2634 2.77246V1.99219C12.2634 1.58221 12.6034 1.24223 13.0134 1.24219Z" fill="white"/>
</svg>
