<svg width="39" height="38" viewBox="0 0 39 38" fill="none" xmlns="http://www.w3.org/2000/svg">
<path d="M6.92403 29.8374C7.28009 32.4821 9.47054 34.5539 12.1361 34.6764C14.3791 34.7795 16.6576 34.8333 19.1667 34.8333C21.6758 34.8333 23.9542 34.7795 26.1971 34.6764C28.8628 34.5539 31.0532 32.4821 31.4093 29.8374C31.6418 28.1116 31.8333 26.3429 31.8333 24.5417C31.8333 22.7405 31.6418 20.9717 31.4093 19.2459C31.0532 16.6013 28.8628 14.5294 26.1971 14.4069C23.9542 14.3038 21.6758 14.25 19.1667 14.25C16.6576 14.25 14.3791 14.3038 12.1361 14.4069C9.47054 14.5294 7.28009 16.6013 6.92403 19.2459C6.69166 20.9717 6.5 22.7405 6.5 24.5417C6.5 26.3429 6.69166 28.1116 6.92403 29.8374Z" stroke="#9AA4B2" stroke-width="1.5"/>
<path d="M12.0391 14.25V10.2917C12.0391 6.35664 15.229 3.16667 19.1641 3.16667C23.0991 3.16667 26.2891 6.35664 26.2891 10.2917V14.25" stroke="#9AA4B2" stroke-width="1.5" stroke-linecap="round" stroke-linejoin="round"/>
<path d="M25.5 24.5258V24.5417" stroke="#9AA4B2" stroke-width="2" stroke-linecap="round" stroke-linejoin="round"/>
<path d="M19.1641 24.5258V24.5417" stroke="#9AA4B2" stroke-width="2" stroke-linecap="round" stroke-linejoin="round"/>
<path d="M12.8281 24.5258V24.5417" stroke="#9AA4B2" stroke-width="2" stroke-linecap="round" stroke-linejoin="round"/>
</svg>
