<svg width="22" height="21" viewBox="0 0 22 21" fill="none" xmlns="http://www.w3.org/2000/svg">
<path fill-rule="evenodd" clip-rule="evenodd" d="M14.0498 0.00969096C14.3341 -0.0285307 14.5741 0.0542644 14.7373 0.125902C14.8873 0.191777 15.0566 0.287565 15.2207 0.380785L16.9951 1.3886C17.1628 1.48375 17.3347 1.58153 17.4697 1.67766C17.6155 1.78145 17.8127 1.94651 17.9258 2.21379C18.0491 2.50545 18.0088 2.79943 17.9795 2.96965C17.9477 3.15377 17.8892 3.38042 17.8262 3.62297L17.8193 3.65032C17.4229 5.17646 18.3899 6.81766 19.9561 7.24016L19.9834 7.24797C20.2205 7.31188 20.4435 7.37147 20.6172 7.4345C20.7797 7.49348 21.0509 7.60475 21.2422 7.85442C21.4179 8.08396 21.4651 8.33557 21.4834 8.5136C21.5003 8.67781 21.5 8.8743 21.5 9.06536V11.0566C21.5 11.2477 21.5003 11.4441 21.4834 11.6083C21.4651 11.7864 21.418 12.0379 21.2422 12.2675C21.0509 12.5172 20.7797 12.6284 20.6172 12.6874C20.5304 12.7189 20.4311 12.7494 20.3242 12.7802L19.9561 12.8818C18.3906 13.3042 17.4236 14.9453 17.8203 16.4716L17.8281 16.4989C17.8912 16.7414 17.9497 16.9672 17.9815 17.1513C18.0108 17.3214 18.0501 17.6153 17.9268 17.9072C17.8137 18.1745 17.6175 18.3405 17.4717 18.4443C17.3367 18.5403 17.1646 18.6373 16.9971 18.7323L15.2217 19.7402C15.0575 19.8334 14.8883 19.9302 14.7383 19.996C14.5751 20.0677 14.3351 20.1505 14.0508 20.1122C13.7418 20.0705 13.5126 19.893 13.3809 19.7822C13.241 19.6645 13.0801 19.5035 12.9092 19.3329L12.8887 19.3124C11.7214 18.1481 9.77944 18.1487 8.61231 19.3134L8.59278 19.3329C8.42186 19.5035 8.261 19.6644 8.1211 19.7822C7.98932 19.893 7.75938 20.0706 7.4502 20.1122C7.16597 20.1504 6.92586 20.0676 6.7627 19.996C6.61271 19.9301 6.44343 19.8334 6.2793 19.7402L4.50489 18.7333C4.33721 18.6382 4.16535 18.5404 4.03028 18.4443C3.8845 18.3405 3.68732 18.1753 3.57423 17.9081C3.45078 17.6163 3.49117 17.3215 3.52051 17.1513C3.55228 16.9672 3.61084 16.7414 3.67383 16.4989L3.68067 16.4716C4.07713 14.9455 3.11008 13.3043 1.54395 12.8818L1.51661 12.8739C1.27955 12.81 1.05654 12.7504 0.882819 12.6874C0.720272 12.6284 0.449099 12.5172 0.257819 12.2675C0.0819791 12.0379 0.0349545 11.7864 0.016608 11.6083C-0.000304083 11.4441 -3.65608e-05 11.2477 6.45569e-06 11.0566L6.45569e-06 9.06536C-3.65471e-05 8.87431 -0.000281327 8.67781 0.016608 8.5136C0.0349581 8.3355 0.0819192 8.08305 0.257819 7.85344C0.449045 7.60405 0.720322 7.49346 0.882819 7.4345C1.05654 7.37148 1.27955 7.31187 1.51661 7.24797L1.54395 7.24016C3.11062 6.81763 4.07865 5.17622 3.68262 3.65032C3.68023 3.64108 3.6772 3.63118 3.67481 3.622C3.61185 3.37962 3.5532 3.15363 3.52149 2.96965C3.49217 2.79946 3.45279 2.50548 3.57618 2.21379C3.68927 1.94646 3.88642 1.78144 4.03223 1.67766C4.16727 1.58156 4.3392 1.48373 4.50684 1.3886C4.51497 1.38399 4.52316 1.37952 4.53126 1.37493L6.25587 0.395433C6.26415 0.390731 6.27295 0.385506 6.28126 0.380785C6.44538 0.287551 6.61469 0.19175 6.76466 0.125902C6.92788 0.0542409 7.16776 -0.0286226 7.45216 0.00969096C7.76127 0.0513594 7.99031 0.228939 8.12208 0.339769C8.26193 0.457401 8.42287 0.6175 8.59376 0.788011L8.61426 0.808519C9.78079 1.97213 11.7213 1.97216 12.8877 0.808519L12.9082 0.788011C13.079 0.617582 13.2401 0.45735 13.3799 0.339769C13.5117 0.228919 13.7409 0.0513122 14.0498 0.00969096ZM13.9473 1.87004C12.1953 3.61785 9.30667 3.61786 7.55469 1.87004C7.41517 1.73085 7.31667 1.63378 7.24122 1.5634C7.23807 1.5651 7.23471 1.56652 7.23145 1.56828C7.16683 1.60334 7.09182 1.64535 6.99708 1.69914L5.27247 2.67864C5.17579 2.73353 5.09886 2.77697 5.03419 2.81536C5.02986 2.81792 5.02561 2.8207 5.02149 2.82317C5.04509 2.92932 5.08128 3.07111 5.1338 3.27336C5.74368 5.62256 4.26887 8.05883 1.93458 8.6884C1.73959 8.74098 1.60281 8.77856 1.50196 8.8095C1.50187 8.81364 1.50204 8.81787 1.50196 8.82219C1.50052 8.89665 1.50001 8.98346 1.50001 9.09368L1.50001 11.0273C1.50001 11.1376 1.50052 11.2252 1.50196 11.2997C1.50204 11.304 1.50187 11.3083 1.50196 11.3124C1.60281 11.3434 1.73962 11.3809 1.93458 11.4335C4.26883 12.0632 5.74299 14.4996 5.13282 16.8486C5.08029 17.0508 5.04413 17.1926 5.02051 17.2988C5.02459 17.3012 5.02893 17.304 5.03321 17.3066C5.09778 17.3449 5.17407 17.3876 5.27051 17.4423L6.99512 18.4218C7.09005 18.4757 7.16479 18.5185 7.2295 18.5536C7.23275 18.5554 7.23612 18.5568 7.23926 18.5585C7.31476 18.4881 7.41299 18.3904 7.55274 18.2509C9.30542 16.502 12.1954 16.5022 13.9482 18.2509C14.0879 18.3902 14.1863 18.4881 14.2617 18.5585C14.265 18.5568 14.2691 18.5555 14.2725 18.5536C14.3371 18.5186 14.4111 18.4756 14.5059 18.4218L16.2315 17.4423C16.3279 17.3875 16.4042 17.3439 16.4688 17.3056C16.473 17.3031 16.4774 17.3012 16.4815 17.2988C16.4578 17.1926 16.4217 17.0507 16.3691 16.8486C15.7587 14.4999 17.2312 12.0633 19.5654 11.4335C19.7604 11.3809 19.8972 11.3434 19.9981 11.3124C19.9981 11.3083 19.9989 11.3041 19.999 11.2997C20.0005 11.2252 20 11.1376 20 11.0273V9.09368C20 8.98347 20.0005 8.89665 19.999 8.82219C19.9989 8.81787 19.9981 8.81364 19.9981 8.8095C19.8972 8.77855 19.7604 8.74099 19.5654 8.6884C17.2312 8.05874 15.7572 5.62223 16.3672 3.27336C16.4197 3.07118 16.4559 2.92929 16.4795 2.82317C16.4754 2.82071 16.4711 2.81792 16.4668 2.81536C16.4022 2.77699 16.3261 2.73348 16.2295 2.67864L14.5049 1.70012C14.41 1.64623 14.3352 1.60339 14.2705 1.56828C14.2673 1.56652 14.2639 1.5651 14.2607 1.5634C14.1853 1.63376 14.0868 1.73082 13.9473 1.87004ZM10.75 5.81243C13.0972 5.81243 15 7.71522 15 10.0624C15 12.4096 13.0972 14.3124 10.75 14.3124C8.4028 14.3124 6.50001 12.4096 6.50001 10.0624C6.50001 7.71522 8.4028 5.81243 10.75 5.81243ZM10.75 7.31243C9.23122 7.31243 8.00001 8.54364 8.00001 10.0624C8.00001 11.5812 9.23122 12.8124 10.75 12.8124C12.2688 12.8124 13.5 11.5812 13.5 10.0624C13.5 8.54364 12.2688 7.31243 10.75 7.31243Z" fill="#4D0CE7"/>
</svg>
