<svg width="16" height="16" viewBox="0 0 16 16" fill="none" xmlns="http://www.w3.org/2000/svg">
<path fill-rule="evenodd" clip-rule="evenodd" d="M8.00781 14.5H7.99414C7.99609 14.5 7.99805 14.499 8 14.499C8.0025 14.499 8.00532 14.5 8.00781 14.5ZM10.3076 2.43359C10.4342 2.18707 10.7339 2.09339 10.9805 2.21973C13.1471 3.34638 14.4941 5.56004 14.4941 8C14.4941 11.5847 11.584 14.4959 8 14.499C4.41677 14.495 1.50781 11.5842 1.50781 8C1.50785 5.56007 2.85392 3.34639 5.02051 2.21973C5.26717 2.09306 5.56767 2.18693 5.69434 2.43359C5.82086 2.68023 5.72707 2.97981 5.48047 3.10645C3.64728 4.05976 2.50107 5.93331 2.50098 7.99316C2.50098 11.0265 4.96764 13.4932 8.00098 13.4932C11.0342 13.4931 13.501 11.0264 13.501 7.99316C13.5009 5.93327 12.3604 4.05974 10.5205 3.10645C10.2742 2.97967 10.1811 2.68012 10.3076 2.43359ZM8.00781 1.5C8.281 1.50018 8.50781 1.72678 8.50781 2V6.66699C8.50763 6.94007 8.28089 7.16681 8.00781 7.16699C7.73459 7.16699 7.50799 6.94018 7.50781 6.66699V2C7.50781 1.72667 7.73448 1.5 8.00781 1.5Z" fill="#F04438"/>
</svg>
