<svg width="24" height="24" viewBox="0 0 24 24" fill="none" xmlns="http://www.w3.org/2000/svg">
<path d="M9.69532 23.8616C11.0628 23.8616 12.1652 23.8616 13.0321 23.7451C13.9322 23.624 14.6901 23.3651 15.2921 22.7632C15.817 22.2383 16.0822 21.5932 16.2215 20.8352C16.3568 20.0987 16.3826 19.1973 16.3887 18.1157C16.391 17.7015 16.0571 17.3639 15.6428 17.3616C15.2286 17.3593 14.891 17.6932 14.8887 18.1074C14.8826 19.2009 14.8542 19.976 14.7461 20.5642C14.642 21.131 14.4748 21.4591 14.2314 21.7026C13.9546 21.9793 13.566 22.1598 12.8323 22.2584C12.0769 22.36 11.0758 22.3616 9.64042 22.3616L8.64042 22.3616C7.20502 22.3616 6.20392 22.36 5.44852 22.2584C4.71472 22.1598 4.32622 21.9793 4.04942 21.7026C3.77262 21.4258 3.59222 21.0372 3.49352 20.3035C3.39202 19.5481 3.39042 18.547 3.39042 17.1116L3.39042 9.11157C3.39042 7.67617 3.39202 6.67507 3.49352 5.91967C3.59222 5.18587 3.77262 4.79737 4.04942 4.52057C4.32622 4.24377 4.71472 4.06337 5.44852 3.96467C6.20392 3.86317 7.20502 3.86157 8.64042 3.86157L9.64042 3.86157C11.0758 3.86157 12.0769 3.86317 12.8323 3.96467C13.566 4.06337 13.9546 4.24377 14.2314 4.52057C14.4748 4.76407 14.642 5.09207 14.7461 5.65887C14.8542 6.24717 14.8826 7.02227 14.8887 8.11577C14.891 8.52997 15.2286 8.86387 15.6428 8.86157C16.0571 8.85927 16.391 8.52157 16.3887 8.10737C16.3826 7.02587 16.3568 6.12447 16.2215 5.38797C16.0822 4.62997 15.817 3.98487 15.2921 3.45988C14.6901 2.85797 13.9322 2.59908 13.0321 2.47807C12.1652 2.36157 11.0628 2.36157 9.69532 2.36157L8.58552 2.36157C7.21792 2.36157 6.11562 2.36157 5.24862 2.47807C4.34852 2.59907 3.59072 2.85797 2.98872 3.45987C2.38682 4.06187 2.12792 4.81967 2.00692 5.71977C1.89032 6.58677 1.89042 7.68907 1.89042 9.05667L1.89042 17.1664C1.89042 18.534 1.89032 19.6364 2.00692 20.5033C2.12792 21.4034 2.38682 22.1613 2.98872 22.7632C3.59072 23.3651 4.34852 23.624 5.24862 23.7451C6.11562 23.8616 7.21792 23.8616 8.58552 23.8616L9.69532 23.8616Z" fill="#D92D20"/>
<path d="M9.63965 13.8616C9.22545 13.8616 8.88965 13.5258 8.88965 13.1116C8.88965 12.6974 9.22545 12.3616 9.63965 12.3616L20.6122 12.3616L18.6516 10.681C18.3371 10.4115 18.3006 9.93796 18.5702 9.62346C18.8398 9.30896 19.3132 9.27256 19.6277 9.54216L23.1277 12.5422C23.294 12.6846 23.3896 12.8927 23.3896 13.1116C23.3896 13.3305 23.294 13.5386 23.1277 13.681L19.6277 16.681C19.3132 16.9506 18.8398 16.9141 18.5702 16.5996C18.3006 16.2852 18.3371 15.8117 18.6516 15.5421L20.6122 13.8616L9.63965 13.8616Z" fill="#D92D20"/>
</svg>
