<svg width="16" height="16" viewBox="0 0 16 16" fill="none" xmlns="http://www.w3.org/2000/svg">
<path fill-rule="evenodd" clip-rule="evenodd" d="M8.04004 0.832032C9.10842 0.83202 9.96116 0.831971 10.6299 0.921875C11.3207 1.01476 11.8898 1.21202 12.3398 1.66211C12.7899 2.1122 12.9872 2.68123 13.0801 3.37207C13.17 4.04079 13.1699 4.89353 13.1699 5.96191V10.0361C13.1699 11.1045 13.17 11.9573 13.0801 12.626C12.9872 13.3168 12.7899 13.8858 12.3398 14.3359C11.8898 14.786 11.3207 14.9833 10.6299 15.0762C9.96116 15.1661 9.10843 15.166 8.04004 15.166H7.96582C6.89743 15.166 6.0447 15.1661 5.37598 15.0762C4.68513 14.9833 4.11611 14.786 3.66602 14.3359C3.21592 13.8858 3.01866 13.3168 2.92578 12.626C2.83588 11.9573 2.83593 11.1045 2.83594 10.0361V5.96191C2.83593 4.89353 2.83588 4.04079 2.92578 3.37207C3.01866 2.68123 3.21592 2.1122 3.66602 1.66211C4.11611 1.21202 4.68513 1.01476 5.37598 0.921875C6.0447 0.83197 6.89744 0.83202 7.96582 0.832032H8.04004ZM10.4141 1.90332C10.3609 2.22069 10.3136 2.49903 10.2471 2.72559C10.1677 2.99599 10.0483 3.24986 9.81934 3.45313C9.58233 3.6634 9.30898 3.75156 9.0166 3.79199C8.74088 3.8301 8.40044 3.83105 8.00391 3.83105C7.60739 3.83105 7.26693 3.8301 6.99121 3.79199C6.69886 3.75156 6.42546 3.66338 6.18848 3.45313C5.95959 3.24992 5.84109 2.99588 5.76172 2.72559C5.69522 2.49899 5.64594 2.22077 5.59277 1.90332C5.56454 1.90668 5.5362 1.9094 5.50879 1.91309C4.9291 1.99107 4.60631 2.13587 4.37305 2.36914C4.13978 2.60241 3.99498 2.92519 3.91699 3.50488C3.83709 4.09922 3.83594 4.88495 3.83594 5.99902V9.99902C3.83594 11.1131 3.83709 11.8988 3.91699 12.4932C3.99498 13.0729 4.13978 13.3956 4.37305 13.6289C4.60631 13.8622 4.9291 14.007 5.50879 14.085C6.10313 14.1649 6.88885 14.166 8.00293 14.166C9.11701 14.166 9.90273 14.1649 10.4971 14.085C11.0768 14.007 11.3995 13.8622 11.6328 13.6289C11.8661 13.3956 12.0109 13.0729 12.0889 12.4932C12.1688 11.8988 12.1699 11.1131 12.1699 9.99902V5.99902C12.1699 4.88495 12.1688 4.09922 12.0889 3.50488C12.0109 2.9252 11.8661 2.60241 11.6328 2.36914C11.3995 2.13587 11.0768 1.99107 10.4971 1.91309C10.47 1.90944 10.442 1.90664 10.4141 1.90332ZM8.66992 12.166C8.94592 12.1662 9.16992 12.39 9.16992 12.666C9.16975 12.9419 8.94581 13.1658 8.66992 13.166H7.33594C7.06005 13.1658 6.83611 12.9419 6.83594 12.666C6.83594 12.39 7.05995 12.1662 7.33594 12.166H8.66992ZM8.00293 1.83203C7.4619 1.83203 6.99841 1.83239 6.59668 1.8418C6.64223 2.10858 6.67774 2.29687 6.7207 2.44336C6.77169 2.6171 6.81716 2.67366 6.85254 2.70508C6.89145 2.7396 6.95205 2.77741 7.12793 2.80176C7.32083 2.82842 7.58455 2.83105 8.00391 2.83105C8.42328 2.83105 8.68698 2.82842 8.87988 2.80176C9.05582 2.77741 9.11635 2.73961 9.15527 2.70508C9.19066 2.67367 9.2361 2.61716 9.28711 2.44336C9.33006 2.2969 9.36462 2.1085 9.41016 1.8418C9.0082 1.83237 8.5444 1.83203 8.00293 1.83203Z" fill="#4B5565"/>
</svg>
