<svg width="24" height="24" viewBox="0 0 24 24" fill="none" xmlns="http://www.w3.org/2000/svg">
<path d="M10.4424 3.40747C11.0917 2.13402 12.9113 2.134 13.5605 3.40747L15.748 7.70044C15.7844 7.77158 15.8527 7.82069 15.9316 7.83325L20.6865 8.59106C22.0968 8.81575 22.6588 10.5438 21.6504 11.5549L18.2461 14.968C18.1898 15.0245 18.1643 15.105 18.1768 15.1838L18.9268 19.9465C19.1491 21.3582 17.6767 22.4273 16.4033 21.7786L12.1152 19.594C12.0439 19.5577 11.959 19.5577 11.8877 19.594L7.59961 21.7786C6.3262 22.4273 4.85382 21.3582 5.07617 19.9465L5.82617 15.1838C5.83858 15.1051 5.8131 15.0245 5.75684 14.968L2.35254 11.5549C1.34407 10.5438 1.9061 8.8157 3.31641 8.59106L8.07129 7.83325C8.15017 7.82067 8.21857 7.77159 8.25488 7.70044L10.4424 3.40747ZM12.2246 4.08911C12.1319 3.90713 11.8711 3.90713 11.7783 4.08911L9.59082 8.3811C9.33679 8.87957 8.86008 9.22657 8.30762 9.3147L3.55273 10.0725C3.35126 10.1046 3.27097 10.3509 3.41504 10.4954L6.81836 13.9084C7.21298 14.3041 7.39554 14.8652 7.30859 15.4172L6.55762 20.1799C6.52587 20.3815 6.7361 20.5341 6.91797 20.4417L11.207 18.2571C11.7061 18.0028 12.2968 18.0028 12.7959 18.2571L17.085 20.4417C17.2668 20.534 17.4771 20.3815 17.4453 20.1799L16.6943 15.4172C16.6074 14.8652 16.7899 14.3041 17.1846 13.9084L20.5879 10.4954C20.732 10.3509 20.6517 10.1046 20.4502 10.0725L15.6953 9.3147C15.1428 9.22659 14.6662 8.87958 14.4121 8.3811L12.2246 4.08911Z" fill="white"/>
</svg>
