<svg width="24" height="24" viewBox="0 0 24 24" fill="none" xmlns="http://www.w3.org/2000/svg">
<path fill-rule="evenodd" clip-rule="evenodd" d="M10.4385 3.40724C11.0878 2.13379 12.9074 2.13378 13.5566 3.40724L15.7441 7.70021C15.7805 7.77136 15.8488 7.82046 15.9277 7.83303L20.6826 8.59084C22.0929 8.81552 22.6549 10.5436 21.6465 11.5547L18.2422 14.9678C18.1859 15.0243 18.1604 15.1048 18.1729 15.1836L18.9229 19.9463C19.1452 21.358 17.6728 22.427 16.3994 21.7783L12.1113 19.5938C12.04 19.5574 11.9551 19.5574 11.8838 19.5938L7.59571 21.7783C6.3223 22.427 4.84992 21.358 5.07227 19.9463L5.82227 15.1836C5.83468 15.1048 5.8092 15.0243 5.75294 14.9678L2.34864 11.5547C1.34017 10.5435 1.9022 8.81548 3.31251 8.59084L8.06739 7.83303C8.14627 7.82045 8.21467 7.77136 8.25098 7.70021L10.4385 3.40724ZM12.2207 4.08889C12.128 3.9069 11.8672 3.90691 11.7744 4.08889L9.58692 8.38088C9.33289 8.87934 8.85618 9.22635 8.30372 9.31447L3.54883 10.0723C3.34736 10.1044 3.26707 10.3507 3.41114 10.4951L6.81446 13.9082C7.20908 14.3039 7.39164 14.865 7.30469 15.417L6.55372 20.1797C6.52197 20.3813 6.7322 20.5339 6.91407 20.4414L11.2031 18.2569C11.7022 18.0026 12.2929 18.0026 12.792 18.2569L17.0811 20.4414C17.2629 20.5338 17.4732 20.3813 17.4414 20.1797L16.6904 15.417C16.6035 14.865 16.786 14.3039 17.1807 13.9082L20.584 10.4951C20.7281 10.3507 20.6478 10.1044 20.4463 10.0723L15.6914 9.31447C15.1389 9.22637 14.6623 8.87935 14.4082 8.38088L12.2207 4.08889Z" fill="#C69815"/>
</svg>
