<svg width="40" height="40" viewBox="0 0 40 40" fill="none" xmlns="http://www.w3.org/2000/svg">
<rect width="40" height="40" rx="8" fill="#EDE7FD"/>
<path d="M18.4424 11.4075C19.0917 10.134 20.9113 10.134 21.5605 11.4075L23.748 15.7004C23.7844 15.7716 23.8527 15.8207 23.9316 15.8333L28.6865 16.5911C30.0968 16.8157 30.6588 18.5438 29.6504 19.5549L26.2461 22.968C26.1898 23.0245 26.1643 23.105 26.1768 23.1838L26.9268 27.9465C27.1491 29.3582 25.6767 30.4273 24.4033 29.7786L20.1152 27.594C20.0439 27.5577 19.959 27.5577 19.8877 27.594L15.5996 29.7786C14.3262 30.4273 12.8538 29.3582 13.0762 27.9465L13.8262 23.1838C13.8386 23.1051 13.8131 23.0245 13.7568 22.968L10.3525 19.5549C9.34407 18.5438 9.9061 16.8157 11.3164 16.5911L16.0713 15.8333C16.1502 15.8207 16.2186 15.7716 16.2549 15.7004L18.4424 11.4075ZM20.2246 12.0891C20.1319 11.9071 19.8711 11.9071 19.7783 12.0891L17.5908 16.3811C17.3368 16.8796 16.8601 17.2266 16.3076 17.3147L11.5527 18.0725C11.3513 18.1046 11.271 18.3509 11.415 18.4954L14.8184 21.9084C15.213 22.3041 15.3955 22.8652 15.3086 23.4172L14.5576 28.1799C14.5259 28.3815 14.7361 28.5341 14.918 28.4417L19.207 26.2571C19.7061 26.0028 20.2968 26.0028 20.7959 26.2571L25.085 28.4417C25.2668 28.534 25.4771 28.3815 25.4453 28.1799L24.6943 23.4172C24.6074 22.8652 24.7899 22.3041 25.1846 21.9084L28.5879 18.4954C28.732 18.3509 28.6517 18.1046 28.4502 18.0725L23.6953 17.3147C23.1428 17.2266 22.6662 16.8796 22.4121 16.3811L20.2246 12.0891Z" fill="#4D0CE7"/>
</svg>
