<svg width="24" height="24" viewBox="0 0 24 24" fill="none" xmlns="http://www.w3.org/2000/svg">
<path d="M10.4424 3.40723C11.0917 2.13377 12.9113 2.13376 13.5605 3.40723L15.748 7.7002C15.7844 7.77134 15.8527 7.82044 15.9316 7.83301L20.6865 8.59082C22.0968 8.8155 22.6588 10.5435 21.6504 11.5547L18.2461 14.9678C18.1898 15.0243 18.1643 15.1048 18.1768 15.1836L18.9268 19.9463C19.1491 21.358 17.6767 22.427 16.4033 21.7783L12.1152 19.5938C12.0439 19.5574 11.959 19.5574 11.8877 19.5938L7.59961 21.7783C6.3262 22.427 4.85382 21.358 5.07617 19.9463L5.82617 15.1836C5.83858 15.1048 5.8131 15.0243 5.75684 14.9678L2.35254 11.5547C1.34407 10.5435 1.9061 8.81546 3.31641 8.59082L8.07129 7.83301C8.15017 7.82043 8.21857 7.77134 8.25488 7.7002L10.4424 3.40723ZM12.2246 4.08887C12.1319 3.90689 11.8711 3.90689 11.7783 4.08887L9.59082 8.38086C9.33679 8.87933 8.86008 9.22633 8.30762 9.31445L3.55273 10.0723C3.35126 10.1044 3.27097 10.3507 3.41504 10.4951L6.81836 13.9082C7.21298 14.3039 7.39554 14.865 7.30859 15.417L6.55762 20.1797C6.52587 20.3813 6.7361 20.5338 6.91797 20.4414L11.207 18.2568C11.7061 18.0026 12.2968 18.0026 12.7959 18.2568L17.085 20.4414C17.2668 20.5338 17.4771 20.3813 17.4453 20.1797L16.6943 15.417C16.6074 14.865 16.7899 14.3039 17.1846 13.9082L20.5879 10.4951C20.732 10.3507 20.6517 10.1044 20.4502 10.0723L15.6953 9.31445C15.1428 9.22635 14.6662 8.87933 14.4121 8.38086L12.2246 4.08887Z" fill="#4B5565"/>
</svg>
