<svg width="21" height="20" viewBox="0 0 21 20" fill="none" xmlns="http://www.w3.org/2000/svg">
<path fill-rule="evenodd" clip-rule="evenodd" d="M8.60254 0.955096C9.25182 -0.318358 11.0714 -0.318373 11.7207 0.955096L13.9082 5.24806C13.9445 5.31921 14.0129 5.36831 14.0918 5.38088L18.8467 6.13869C20.2569 6.36337 20.819 8.09141 19.8106 9.10256L16.4063 12.5156C16.35 12.5722 16.3245 12.6527 16.3369 12.7315L17.0869 17.4942C17.3093 18.9059 15.8369 19.9749 14.5635 19.3262L10.2754 17.1416C10.2041 17.1053 10.1192 17.1053 10.0479 17.1416L5.75977 19.3262C4.48637 19.9749 3.01398 18.9059 3.23633 17.4942L3.98633 12.7315C3.99874 12.6527 3.97326 12.5722 3.917 12.5156L0.512701 9.10256C-0.495764 8.09139 0.0662603 6.36333 1.47657 6.13869L6.23145 5.38088C6.31034 5.3683 6.37874 5.31921 6.41505 5.24806L8.60254 0.955096ZM10.3848 1.63674C10.292 1.45476 10.0312 1.45476 9.93848 1.63674L7.75098 5.92873C7.49695 6.4272 7.02024 6.7742 6.46778 6.86232L1.7129 7.62014C1.51142 7.65222 1.43113 7.89853 1.5752 8.04299L4.97852 11.4561C5.37315 11.8518 5.5557 12.4128 5.46876 12.9649L4.71778 17.7276C4.68603 17.9291 4.89627 18.0817 5.07813 17.9893L9.36719 15.8047C9.86625 15.5505 10.457 15.5505 10.9561 15.8047L15.2451 17.9893C15.427 18.0817 15.6372 17.9291 15.6055 17.7276L14.8545 12.9649C14.7675 12.4128 14.9501 11.8518 15.3447 11.4561L18.7481 8.04299C18.8921 7.89853 18.8118 7.65222 18.6104 7.62014L13.8555 6.86232C13.303 6.77422 12.8263 6.4272 12.5723 5.92873L10.3848 1.63674Z" fill="#4B5565"/>
</svg>
