<svg width="24" height="24" viewBox="0 0 24 24" fill="none" xmlns="http://www.w3.org/2000/svg">
<path fill-rule="evenodd" clip-rule="evenodd" d="M10.4424 3.40749C11.0917 2.13403 12.9113 2.13402 13.5606 3.40749L15.7481 7.70046C15.7844 7.7716 15.8528 7.82071 15.9316 7.83327L20.6865 8.59108C22.0968 8.81576 22.6588 10.5438 21.6504 11.5549L18.2461 14.968C18.1898 15.0246 18.1644 15.1051 18.1768 15.1839L18.9268 19.9466C19.1491 21.3583 17.6767 22.4273 16.4033 21.7786L12.1152 19.594C12.0439 19.5577 11.959 19.5577 11.8877 19.594L7.59962 21.7786C6.32621 22.4273 4.85382 21.3583 5.07618 19.9466L5.82618 15.1839C5.83859 15.1051 5.8131 15.0246 5.75684 14.968L2.35255 11.5549C1.34408 10.5438 1.9061 8.81572 3.31641 8.59108L8.0713 7.83327C8.15018 7.82069 8.21858 7.77161 8.25489 7.70046L10.4424 3.40749ZM12.2246 4.08913C12.1319 3.90715 11.8711 3.90715 11.7783 4.08913L9.59083 8.38112C9.3368 8.87959 8.86009 9.22659 8.30762 9.31472L3.55274 10.0725C3.35126 10.1046 3.27098 10.3509 3.41505 10.4954L6.81837 13.9085C7.21299 14.3041 7.39555 14.8652 7.3086 15.4173L6.55762 20.1799C6.52587 20.3815 6.73611 20.5341 6.91797 20.4417L11.207 18.2571C11.7061 18.0029 12.2968 18.0029 12.7959 18.2571L17.085 20.4417C17.2668 20.534 17.4771 20.3815 17.4453 20.1799L16.6943 15.4173C16.6074 14.8652 16.79 14.3041 17.1846 13.9085L20.5879 10.4954C20.732 10.3509 20.6517 10.1046 20.4502 10.0725L15.6953 9.31472C15.1428 9.22661 14.6662 8.8796 14.4121 8.38112L12.2246 4.08913Z" fill="#C69815"/>
</svg>
