<svg width="15" height="16" viewBox="0 0 15 16" fill="none" xmlns="http://www.w3.org/2000/svg">
<path d="M7.33105 0.833008C11.2891 0.833008 14.498 4.04196 14.498 8C14.498 11.958 11.2891 15.167 7.33105 15.167C3.37301 15.167 0.164062 11.958 0.164062 8C0.164063 4.04196 3.37301 0.833008 7.33105 0.833008ZM7.33105 1.83301C3.9253 1.83301 1.16406 4.59424 1.16406 8C1.16406 11.4058 3.9253 14.167 7.33105 14.167C10.7368 14.167 13.498 11.4058 13.498 8C13.498 4.59424 10.7368 1.83301 7.33105 1.83301ZM9.99805 7.5C10.274 7.50018 10.498 7.72397 10.498 8C10.498 8.27603 10.274 8.49982 9.99805 8.5H4.66406C4.38807 8.49982 4.16406 8.27603 4.16406 8C4.16406 7.72397 4.38807 7.50018 4.66406 7.5H9.99805Z" fill="#D92D20"/>
</svg>
