<svg width="24" height="24" viewBox="0 0 24 24" fill="none" xmlns="http://www.w3.org/2000/svg">
<path d="M19 1.75C19.9665 1.75 20.75 2.5335 20.75 3.5V4.80078L22.6514 8.12793C22.7161 8.24123 22.75 8.36952 22.75 8.5C22.75 9.7268 22.1608 10.8158 21.25 11.5V19.5C21.25 21.0188 20.0188 22.25 18.5 22.25H5.5C3.98122 22.25 2.75 21.0188 2.75 19.5V11.5C1.83924 10.8158 1.25 9.7268 1.25 8.5C1.25 8.36952 1.28392 8.24123 1.34863 8.12793L3.25 4.80078V3.5C3.25 2.5335 4.0335 1.75 5 1.75H19ZM15.9375 10.665C15.6963 10.9415 15.4136 11.1789 15.1084 11.3779C14.1988 11.9709 13.0504 12.25 12 12.25C10.9496 12.25 9.80123 11.9709 8.8916 11.3779C8.58636 11.1789 8.30372 10.9415 8.0625 10.665C7.38326 11.6241 6.26465 12.25 5 12.25C4.74314 12.25 4.49234 12.224 4.25 12.1748V19.5C4.25 20.1904 4.80964 20.75 5.5 20.75H18.5C19.1904 20.75 19.75 20.1904 19.75 19.5V12.1748C19.5077 12.224 19.2569 12.25 19 12.25C17.7353 12.25 16.6167 11.6241 15.9375 10.665ZM10.5 17.25C10.9142 17.25 11.25 17.5858 11.25 18C11.25 18.4142 10.9142 18.75 10.5 18.75H6.5C6.08579 18.75 5.75 18.4142 5.75 18C5.75 17.5858 6.08579 17.25 6.5 17.25H10.5ZM5 3.25C4.86193 3.25 4.75 3.36193 4.75 3.5V5C4.75 5.13048 4.71608 5.25877 4.65137 5.37207L2.75781 8.68555C2.85234 9.84121 3.81996 10.75 5 10.75C6.24264 10.75 7.25 9.74264 7.25 8.5C7.25 8.08579 7.58579 7.75 8 7.75C8.41421 7.75 8.75 8.08579 8.75 8.5C8.75 9.18978 9.10394 9.72639 9.71094 10.1221C10.3353 10.5289 11.1867 10.75 12 10.75C12.8133 10.75 13.6647 10.5289 14.2891 10.1221C14.8961 9.72639 15.25 9.18978 15.25 8.5C15.25 8.08579 15.5858 7.75 16 7.75C16.4142 7.75 16.75 8.08579 16.75 8.5C16.75 9.74264 17.7574 10.75 19 10.75C20.18 10.75 21.1477 9.84121 21.2422 8.68555L19.3486 5.37207C19.2839 5.25877 19.25 5.13048 19.25 5V3.5C19.25 3.36193 19.1381 3.25 19 3.25H5Z" fill="#4B5565"/>
</svg>
