<svg width="40" height="40" viewBox="0 0 40 40" fill="none" xmlns="http://www.w3.org/2000/svg">
<rect width="40" height="40" rx="8" fill="#EDE7FD"/>
<path d="M27 9.75C27.9665 9.75 28.75 10.5335 28.75 11.5V12.8008L30.6514 16.1279C30.7161 16.2412 30.75 16.3695 30.75 16.5C30.75 17.7268 30.1608 18.8158 29.25 19.5V27.5C29.25 29.0188 28.0188 30.25 26.5 30.25H13.5C11.9812 30.25 10.75 29.0188 10.75 27.5V19.5C9.83924 18.8158 9.25 17.7268 9.25 16.5C9.25 16.3695 9.28392 16.2412 9.34863 16.1279L11.25 12.8008V11.5C11.25 10.5335 12.0335 9.75 13 9.75H27ZM23.9375 18.665C23.6963 18.9415 23.4136 19.1789 23.1084 19.3779C22.1988 19.9709 21.0504 20.25 20 20.25C18.9496 20.25 17.8012 19.9709 16.8916 19.3779C16.5864 19.1789 16.3037 18.9415 16.0625 18.665C15.3833 19.6241 14.2647 20.25 13 20.25C12.7431 20.25 12.4923 20.224 12.25 20.1748V27.5C12.25 28.1904 12.8096 28.75 13.5 28.75H26.5C27.1904 28.75 27.75 28.1904 27.75 27.5V20.1748C27.5077 20.224 27.2569 20.25 27 20.25C25.7353 20.25 24.6167 19.6241 23.9375 18.665ZM18.5 25.25C18.9142 25.25 19.25 25.5858 19.25 26C19.25 26.4142 18.9142 26.75 18.5 26.75H14.5C14.0858 26.75 13.75 26.4142 13.75 26C13.75 25.5858 14.0858 25.25 14.5 25.25H18.5ZM13 11.25C12.8619 11.25 12.75 11.3619 12.75 11.5V13C12.75 13.1305 12.7161 13.2588 12.6514 13.3721L10.7578 16.6855C10.8523 17.8412 11.82 18.75 13 18.75C14.2426 18.75 15.25 17.7426 15.25 16.5C15.25 16.0858 15.5858 15.75 16 15.75C16.4142 15.75 16.75 16.0858 16.75 16.5C16.75 17.1898 17.1039 17.7264 17.7109 18.1221C18.3353 18.5289 19.1867 18.75 20 18.75C20.8133 18.75 21.6647 18.5289 22.2891 18.1221C22.8961 17.7264 23.25 17.1898 23.25 16.5C23.25 16.0858 23.5858 15.75 24 15.75C24.4142 15.75 24.75 16.0858 24.75 16.5C24.75 17.7426 25.7574 18.75 27 18.75C28.18 18.75 29.1477 17.8412 29.2422 16.6855L27.3486 13.3721C27.2839 13.2588 27.25 13.1305 27.25 13V11.5C27.25 11.3619 27.1381 11.25 27 11.25H13Z" fill="#4D0CE7"/>
</svg>
