<svg width="19" height="22" viewBox="0 0 19 22" fill="none" xmlns="http://www.w3.org/2000/svg">
<path d="M17.5654 12.1787C18.4412 10.9231 18.9551 9.39552 18.9551 7.75C18.9551 3.46979 15.4853 1.90735e-06 11.2051 1.90735e-06C6.92487 1.90735e-06 3.45508 3.46979 3.45508 7.75C3.45508 8.93726 3.72247 10.0646 4.20117 11.0723L5.55664 10.4277C5.17151 9.61696 4.95508 8.70987 4.95508 7.75C4.95508 4.29822 7.7533 1.5 11.2051 1.5C14.6569 1.5 17.4551 4.29822 17.4551 7.75C17.4551 9.0789 17.0409 10.3092 16.335 11.3213L17.5654 12.1787ZM11.9551 11.416C12.3691 11.3215 12.7509 11.1499 13.0693 10.9111C13.5733 10.5331 13.9551 9.95321 13.9551 9.25C13.9551 8.54679 13.5733 7.96687 13.0693 7.58887C12.5656 7.21114 11.9039 7 11.2051 7C10.7996 7 10.4613 6.87587 10.2412 6.71094C10.0214 6.54604 9.95508 6.37522 9.95508 6.25C9.95508 6.12478 10.0214 5.95396 10.2412 5.78906C10.4613 5.62413 10.7996 5.5 11.2051 5.5C11.8733 5.5 12.2957 5.82062 12.4131 6.06934L13.7695 5.43067C13.4397 4.73068 12.7437 4.26562 11.9551 4.08496V3.25H10.4551V4.08399C10.041 4.17847 9.65924 4.3501 9.34082 4.58887C8.83682 4.96687 8.45508 5.54679 8.45508 6.25C8.45508 6.95321 8.83682 7.53314 9.34082 7.91113C9.84456 8.28887 10.5063 8.5 11.2051 8.5C11.6106 8.5 11.9488 8.62413 12.1689 8.78906C12.3888 8.95396 12.4551 9.12478 12.4551 9.25C12.4551 9.37522 12.3888 9.54605 12.1689 9.71094C11.9488 9.87587 11.6106 10 11.2051 10C10.5369 10 10.1144 9.67939 9.99707 9.43067L8.64063 10.0693C8.9705 10.7693 9.66645 11.2344 10.4551 11.415V12.25H11.9551V11.416ZM6.99902 21.4717C7.17893 21.5226 7.37183 21.5045 7.53906 21.4209L16.5391 16.9209C16.8878 16.7464 17.0442 16.3338 16.8994 15.9717L16.6006 15.2227C16.0599 13.8709 14.559 13.1746 13.1777 13.6348L9.51855 14.8545C8.96842 14.0086 7.9425 13.375 6.7041 13.375H5.89648L3.56543 12.0928C3.45473 12.0319 3.33042 12 3.2041 12H0.204102L0.204102 13.5H3.01172L5.34277 14.7822C5.45349 14.8431 5.57775 14.875 5.7041 14.875H6.7041C7.5175 14.875 8.06439 15.3176 8.30859 15.7578L6.2041 16.459L3.44141 15.5381L2.9668 16.9609L5.9668 17.9609C6.12075 18.0123 6.28746 18.0123 6.44141 17.9609L9.44141 16.9609C9.73447 16.8632 9.93641 16.5968 9.95312 16.291L13.6514 15.0576C14.2791 14.8484 14.9611 15.165 15.207 15.7793L15.251 15.8877L7.12793 19.9492L0.408203 18.0479L0 19.4912L6.99902 21.4717Z" fill="#161616"/>
</svg>
