<svg width="16" height="16" viewBox="0 0 16 16" fill="none" xmlns="http://www.w3.org/2000/svg">
<path d="M6 7.33398C6 7.86442 6.21071 8.37313 6.58579 8.7482C6.96086 9.12327 7.46957 9.33398 8 9.33398C8.53043 9.33398 9.03914 9.12327 9.41421 8.7482C9.78929 8.37313 10 7.86442 10 7.33398C10 6.80355 9.78929 6.29484 9.41421 5.91977C9.03914 5.5447 8.53043 5.33398 8 5.33398C7.46957 5.33398 6.96086 5.5447 6.58579 5.91977C6.21071 6.29484 6 6.80355 6 7.33398Z" stroke="#9E7A11" stroke-linecap="round" stroke-linejoin="round"/>
<path d="M7.90994 14.321C7.58738 14.3 7.28342 14.1626 7.05461 13.9343L4.22527 11.1056C3.56118 10.4412 3.08435 9.6132 2.84303 8.70533C2.60172 7.79745 2.60448 6.84195 2.85104 5.93549C3.09759 5.02902 3.5792 4.20377 4.24712 3.5432C4.91505 2.88264 5.74559 2.41022 6.65473 2.17373C7.56387 1.93723 8.51935 1.94507 9.42449 2.19643C10.3296 2.44779 11.1523 2.93377 11.8093 3.60519C12.4663 4.27661 12.9343 5.10966 13.166 6.02004C13.3977 6.93042 13.3848 7.88584 13.1286 8.78963M9.99661 12.6676L11.3299 14.001L13.9966 11.3343" stroke="#9E7A11" stroke-linecap="round" stroke-linejoin="round"/>
</svg>
