<svg width="16" height="16" viewBox="0 0 16 16" fill="none" xmlns="http://www.w3.org/2000/svg">
<path d="M6 7.33398C6 7.86442 6.21071 8.37313 6.58579 8.7482C6.96086 9.12327 7.46957 9.33398 8 9.33398C8.53043 9.33398 9.03914 9.12327 9.41421 8.7482C9.78929 8.37313 10 7.86442 10 7.33398C10 6.80355 9.78929 6.29484 9.41421 5.91977C9.03914 5.5447 8.53043 5.33398 8 5.33398C7.46957 5.33398 6.96086 5.5447 6.58579 5.91977C6.21071 6.29484 6 6.80355 6 7.33398Z" stroke="#713DEC" stroke-linecap="round" stroke-linejoin="round"/>
<path d="M8.67885 14.1365C8.42406 14.2882 8.12599 14.3507 7.83175 14.3139C7.53751 14.2772 7.2639 14.1435 7.05418 13.9339L4.22485 11.1052C3.54593 10.4258 3.06308 9.57571 2.82728 8.64464C2.59149 7.71356 2.6115 6.73609 2.8852 5.81545C3.1589 4.89481 3.67614 4.06516 4.3823 3.41413C5.08845 2.76309 5.9573 2.31483 6.89711 2.11668C7.83691 1.91854 8.81279 1.97786 9.72167 2.28838C10.6306 2.5989 11.4387 3.1491 12.0608 3.88087C12.6829 4.61264 13.0959 5.49883 13.256 6.44584C13.4162 7.39286 13.3177 8.36556 12.9709 9.26121M14.6628 14.6672L11.3295 11.3339M11.3295 14.6672L14.6628 11.3339" stroke="#713DEC" stroke-linecap="round" stroke-linejoin="round"/>
</svg>
