<svg width="22" height="22" viewBox="0 0 22 22" fill="none" xmlns="http://www.w3.org/2000/svg">
<path d="M18.7656 0C19.2407 0 19.6305 0.229142 19.9189 0.510742C20.2042 0.789184 20.4346 1.158 20.6221 1.55957C20.9984 2.36593 21.2693 3.45293 21.4131 4.66602C21.415 4.68214 21.4161 4.69877 21.418 4.71484C21.4654 5.11406 21.5112 5.49789 21.4971 5.82227C21.4807 6.20011 21.3828 6.58052 21.083 6.91504C20.7744 7.25934 20.3868 7.39351 20.0078 7.4502C19.6713 7.5005 19.2583 7.50007 18.8145 7.5H17.4922C17.4722 9.36821 17.4836 12.982 17.4932 15.3652C17.4968 16.2785 17.5 17.011 17.5 17.3955V17.4512C17.5 18.1598 17.5005 18.7703 17.4355 19.2373C17.3689 19.7161 17.2076 20.2612 16.6943 20.5918C15.936 21.0802 15.0952 20.7421 14.623 20.4951C14.3527 20.3537 14.0985 20.1859 13.8877 20.041C13.8036 19.9832 13.7302 19.9324 13.665 19.8867C13.5515 19.8072 13.462 19.7438 13.3789 19.6914C13.3553 19.6765 13.3323 19.6622 13.3105 19.6484C13.0924 19.5108 12.9651 19.4302 12.8604 19.377C12.8118 19.3522 12.7853 19.3431 12.7744 19.3398C12.7569 19.3404 12.7272 19.345 12.6523 19.3799C12.5412 19.4316 12.3922 19.5204 12.1211 19.6914L10.1836 20.9141C9.94902 21.062 9.72672 21.2019 9.52637 21.3008C9.30265 21.4112 9.04931 21.5 8.75 21.5C8.4507 21.5 8.19735 21.4112 7.97363 21.3008C7.77328 21.2019 7.55098 21.062 7.31641 20.9141L5.37891 19.6914C5.12169 19.5292 4.97881 19.439 4.86523 19.3818C4.81498 19.3565 4.78652 19.347 4.77246 19.3428C4.76128 19.3395 4.75781 19.3389 4.75781 19.3389H4.75488C4.74293 19.3382 4.72464 19.3378 4.65332 19.3721C4.5468 19.4233 4.41393 19.5069 4.15234 19.6719L4.12109 19.6914C4.03803 19.7438 3.94846 19.8072 3.83496 19.8867C3.76978 19.9324 3.69644 19.9832 3.6123 20.041C3.40154 20.1859 3.1473 20.3537 2.87695 20.4951C2.40483 20.7421 1.56402 21.0802 0.805664 20.5918C0.292393 20.2612 0.131094 19.7161 0.0644531 19.2373C-0.000514116 18.7703 -4.28437e-05 18.1598 0 17.4512V6.75C-2.00257e-05 5.3694 -0.000205201 4.25767 0.116211 3.38379C0.236964 2.47752 0.494989 1.71454 1.0957 1.1084C1.69734 0.501326 2.45608 0.239465 3.35742 0.117188C4.22474 -0.000461136 5.32734 -2.11551e-05 6.69434 0H18.7656ZM6.75 1.5C5.3144 1.5 4.3134 1.50209 3.55859 1.60449C2.82636 1.70388 2.43811 1.88555 2.16113 2.16504C1.88338 2.4455 1.70239 2.83997 1.60352 3.58203C1.50185 4.34528 1.5 5.35683 1.5 6.80469V17.3955C1.5 18.175 1.50195 18.6792 1.55078 19.0303C1.57802 19.226 1.61126 19.3073 1.62695 19.335C1.62976 19.3359 1.63404 19.3371 1.63867 19.3379C1.65267 19.3402 1.68229 19.3422 1.73145 19.335C1.83845 19.3192 1.98831 19.2671 2.18164 19.166C2.37079 19.0671 2.56597 18.9399 2.7627 18.8047C2.81638 18.7678 2.87394 18.7276 2.93262 18.6865C3.06708 18.5925 3.2081 18.4942 3.32129 18.4229C3.36117 18.3977 3.40139 18.3723 3.44141 18.3467C3.84487 18.0886 4.26108 17.8219 4.80762 17.8398C5.09098 17.8492 5.3283 17.9354 5.54004 18.042C5.72033 18.1328 5.92027 18.2593 6.12988 18.3916C6.14611 18.4018 6.16335 18.4125 6.17969 18.4229L8.08984 19.6279C8.36072 19.7988 8.51627 19.8952 8.6377 19.9551C8.69221 19.982 8.72302 19.9928 8.73828 19.9971C8.74241 19.9982 8.74707 20 8.74707 20H8.75098C8.75222 19.9998 8.75598 19.9987 8.76172 19.9971C8.77698 19.9928 8.80779 19.982 8.8623 19.9551C8.98373 19.8952 9.13928 19.7988 9.41016 19.6279L11.3213 18.4229C11.3389 18.4117 11.3565 18.4007 11.374 18.3896C11.8254 18.1045 12.2438 17.8399 12.7822 17.8398C13.0812 17.8398 13.3305 17.9329 13.541 18.04C13.7122 18.1272 13.9039 18.2486 14.1006 18.373C14.1266 18.3895 14.1536 18.4064 14.1797 18.4229C14.2928 18.4942 14.433 18.5926 14.5674 18.6865C14.6261 18.7276 14.6836 18.7678 14.7373 18.8047C14.934 18.9399 15.1292 19.0671 15.3184 19.166C15.5117 19.2671 15.6616 19.3192 15.7686 19.335C15.8177 19.3422 15.8473 19.3402 15.8613 19.3379C15.866 19.3371 15.8702 19.3359 15.873 19.335C15.8887 19.3073 15.922 19.2261 15.9492 19.0303C15.9981 18.6792 16 18.175 16 17.3955C16 17.0243 15.9968 16.3085 15.9932 15.4111C15.9849 13.3733 15.973 10.3987 15.9824 8.39551L16 6.78711V6.75C16 5.03446 16.2329 3.45012 16.6299 2.26855C16.6624 2.17182 16.6989 2.07763 16.7344 1.98438C16.793 1.81749 16.855 1.65469 16.9248 1.5H6.75ZM8.75 5C9.16421 5 9.5 5.33579 9.5 5.75V6.08496C10.2886 6.26562 10.9846 6.73068 11.3145 7.43066C11.4908 7.8053 11.3307 8.25217 10.9561 8.42871C10.5814 8.60529 10.1346 8.44403 9.95801 8.06934C9.84063 7.82062 9.41819 7.5 8.75 7.5C8.34452 7.5 8.00623 7.62413 7.78613 7.78906C7.56627 7.95396 7.5 8.12478 7.5 8.25C7.5 8.37522 7.56627 8.54604 7.78613 8.71094C8.00623 8.87587 8.34452 9 8.75 9C9.44878 9 10.1105 9.21113 10.6143 9.58887C11.1183 9.96687 11.5 10.5468 11.5 11.25C11.5 11.9532 11.1183 12.5331 10.6143 12.9111C10.2958 13.1499 9.91406 13.3215 9.5 13.416V13.75C9.5 14.1642 9.16421 14.5 8.75 14.5C8.33579 14.5 8 14.1642 8 13.75V13.415C7.21137 13.2344 6.51542 12.7693 6.18555 12.0693C6.00916 11.6947 6.16934 11.2478 6.54395 11.0713C6.91864 10.8947 7.36541 11.056 7.54199 11.4307C7.65937 11.6794 8.08181 12 8.75 12C9.15548 12 9.49377 11.8759 9.71387 11.7109C9.93373 11.546 10 11.3752 10 11.25C10 11.1248 9.93373 10.954 9.71387 10.7891C9.49377 10.6241 9.15548 10.5 8.75 10.5C8.05122 10.5 7.38948 10.2889 6.88574 9.91113C6.38174 9.53313 6 8.95321 6 8.25C6 7.54679 6.38174 6.96687 6.88574 6.58887C7.20416 6.3501 7.58594 6.17847 8 6.08398V5.75C8 5.33579 8.33579 5 8.75 5ZM18.7666 1.50391C18.7393 1.51645 18.6717 1.55841 18.5684 1.68848C18.433 1.85894 18.2883 2.12229 18.1484 2.48242C18.0738 2.69515 18.0028 2.93481 17.9385 3.19824C17.7212 4.0874 17.5967 5.12455 17.5381 6H18.7656C19.2749 6 19.5739 5.99852 19.7861 5.9668C19.8819 5.95247 19.9279 5.93561 19.9473 5.92676C19.9596 5.92109 19.9614 5.91796 19.9648 5.91406C19.9678 5.91224 19.9929 5.89718 19.999 5.75684C20.0071 5.56893 19.9781 5.3082 19.9229 4.8418C19.7902 3.72264 19.5485 2.80674 19.2627 2.19434C19.1191 1.88683 18.9814 1.69168 18.8711 1.58398C18.8194 1.5335 18.7845 1.5125 18.7666 1.50391Z" fill="#4D0CE7"/>
</svg>
