<svg width="20" height="20" viewBox="0 0 20 20" fill="none" xmlns="http://www.w3.org/2000/svg">
<path d="M16.6797 1.04102C17.0755 1.04102 17.4002 1.23213 17.6406 1.4668C17.8783 1.69889 18.0703 2.00612 18.2266 2.34082C18.5402 3.01279 18.7659 3.91781 18.8857 4.92871C18.8873 4.94226 18.889 4.95622 18.8906 4.96973C18.9301 5.30238 18.9678 5.62228 18.9561 5.89258C18.9424 6.20754 18.8603 6.52489 18.6104 6.80371C18.3532 7.09041 18.0306 7.2018 17.7148 7.24902C17.4345 7.29094 17.0905 7.29107 16.7207 7.29102H15.6191C15.6025 8.84795 15.6111 11.8588 15.6191 13.8447C15.6222 14.606 15.625 15.2167 15.625 15.5371V15.583C15.625 16.1735 15.6254 16.6821 15.5713 17.0713C15.5158 17.4704 15.3809 17.9246 14.9531 18.2002C14.3212 18.607 13.6209 18.3259 13.2275 18.1201C13.0023 18.0023 12.7908 17.8619 12.6152 17.7412C12.5451 17.693 12.484 17.6504 12.4297 17.6123C12.3351 17.5461 12.2597 17.4939 12.1904 17.4502C12.1708 17.4378 12.1518 17.4255 12.1338 17.4141C11.9521 17.2994 11.846 17.2329 11.7588 17.1885C11.7188 17.1681 11.6968 17.16 11.6875 17.1572C11.6729 17.1576 11.6475 17.1613 11.585 17.1904C11.4924 17.2336 11.3683 17.3078 11.1426 17.4502L9.52734 18.4688C9.33208 18.5919 9.14727 18.7087 8.98047 18.791C8.79403 18.883 8.58243 18.957 8.33301 18.957C8.08373 18.957 7.87287 18.883 7.68652 18.791C7.51955 18.7086 7.33417 18.5921 7.13867 18.4688L5.52441 17.4502C5.30995 17.3149 5.19037 17.24 5.0957 17.1924C5.05395 17.1714 5.03025 17.1627 5.01855 17.1592C5.01097 17.1569 5.0077 17.1573 5.00684 17.1572L5.00391 17.1562C4.99396 17.1557 4.97879 17.1554 4.91992 17.1836C4.83112 17.2262 4.7201 17.296 4.50195 17.4336L4.47559 17.4502C4.40643 17.4938 4.33177 17.5461 4.2373 17.6123C4.183 17.6503 4.12186 17.693 4.05176 17.7412C3.87612 17.8619 3.66474 18.0023 3.43945 18.1201C3.04604 18.3259 2.34497 18.6073 1.71289 18.2002C1.28525 17.9246 1.15121 17.4703 1.0957 17.0713C1.04158 16.682 1.04196 16.1735 1.04199 15.583V6.66504C1.04198 5.51466 1.04165 4.58852 1.13867 3.86035C1.2393 3.10517 1.45454 2.46995 1.95508 1.96484C2.45645 1.45894 3.08872 1.24057 3.83984 1.13867C4.56253 1.04067 5.48118 1.041 6.62012 1.04102H16.6797ZM6.66699 2.29102C5.47088 2.29102 4.63678 2.29167 4.00781 2.37695C3.39737 2.45977 3.07364 2.61177 2.84277 2.84473C2.61123 3.07844 2.46035 3.40693 2.37793 4.02539C2.29318 4.66145 2.29199 5.50425 2.29199 6.71094V15.5371C2.29199 16.1867 2.29329 16.6069 2.33398 16.8994C2.35671 17.0627 2.38441 17.1304 2.39746 17.1533C2.3998 17.1541 2.40337 17.1546 2.40723 17.1553C2.41887 17.1572 2.44335 17.1593 2.48438 17.1533C2.57356 17.1402 2.69815 17.0961 2.85938 17.0117C3.01692 16.9293 3.1799 16.8245 3.34375 16.7119C3.38856 16.6811 3.43636 16.6466 3.48535 16.6123C3.5972 16.5341 3.71436 16.453 3.80859 16.3936C3.84193 16.3725 3.87573 16.3505 3.90918 16.3291C4.24541 16.114 4.5924 15.8923 5.04785 15.9072C5.28406 15.915 5.48171 15.9873 5.6582 16.0762C5.80855 16.1519 5.97559 16.2568 6.15039 16.3672C6.16391 16.3757 6.17779 16.385 6.19141 16.3936L7.7832 17.3975C8.00864 17.5396 8.13813 17.62 8.23926 17.6699C8.28444 17.6922 8.31045 17.7015 8.32324 17.7051C8.3267 17.706 8.33105 17.707 8.33105 17.707H8.33398C8.33486 17.7069 8.33801 17.7064 8.34277 17.7051C8.35549 17.7015 8.38137 17.6923 8.42676 17.6699C8.5279 17.62 8.65726 17.5397 8.88281 17.3975L10.4756 16.3936C10.4903 16.3843 10.5049 16.3745 10.5195 16.3652C10.8956 16.1276 11.2448 15.9074 11.6934 15.9072C11.9423 15.9072 12.1498 15.985 12.3252 16.0742C12.468 16.1469 12.6289 16.2478 12.793 16.3516C12.8146 16.3652 12.8357 16.3799 12.8574 16.3936C12.9516 16.453 13.0688 16.534 13.1807 16.6123C13.2297 16.6466 13.2784 16.6811 13.3232 16.7119C13.4869 16.8244 13.6493 16.9294 13.8066 17.0117C13.9681 17.0962 14.0934 17.1402 14.1826 17.1533C14.2239 17.1594 14.2483 17.1572 14.2598 17.1553C14.2634 17.1546 14.2663 17.1541 14.2686 17.1533C14.2816 17.1304 14.3103 17.0627 14.333 16.8994C14.3737 16.6069 14.375 16.1867 14.375 15.5371C14.375 15.2278 14.3722 14.6309 14.3691 13.8828C14.36 11.6186 14.3455 7.96737 14.375 6.69629V6.66602C14.375 5.2364 14.5686 3.9153 14.8994 2.93066C14.9296 2.84083 14.9628 2.75319 14.9961 2.66699C15.0423 2.5376 15.0912 2.41141 15.1455 2.29102H6.66699ZM8.33301 5.20703C8.67808 5.20703 8.95783 5.487 8.95801 5.83203V6.11133C9.61521 6.26186 10.1958 6.64912 10.4707 7.23242C10.6178 7.5446 10.484 7.91724 10.1719 8.06445C9.85968 8.21158 9.48704 8.07776 9.33984 7.76562C9.24215 7.55833 8.88999 7.29102 8.33301 7.29102C7.99512 7.29108 7.71362 7.39475 7.53027 7.53223C7.34706 7.66964 7.29199 7.81167 7.29199 7.91602C7.29211 8.02033 7.34725 8.16253 7.53027 8.2998C7.71363 8.43717 7.99532 8.54095 8.33301 8.54102C8.9154 8.54102 9.46691 8.71737 9.88672 9.03223C10.3067 9.34723 10.625 9.83006 10.625 10.416C10.6249 11.0019 10.3066 11.4849 9.88672 11.7998C9.62136 11.9988 9.30307 12.142 8.95801 12.2207V12.499C8.95801 12.8442 8.67819 13.124 8.33301 13.124C7.98798 13.1238 7.70801 12.8441 7.70801 12.499V12.2207C7.05087 12.0701 6.47117 11.6819 6.19629 11.0986C6.0492 10.7864 6.1829 10.4137 6.49512 10.2666C6.80732 10.1196 7.18003 10.2542 7.32715 10.5664C7.42515 10.7736 7.77666 11.0409 8.33301 11.041C8.67097 11.041 8.95331 10.9373 9.13672 10.7998C9.31975 10.6625 9.37489 10.5203 9.375 10.416C9.375 10.3117 9.31984 10.1696 9.13672 10.0322C8.95331 9.89467 8.67109 9.79102 8.33301 9.79102C7.75092 9.79095 7.19995 9.61441 6.78027 9.2998C6.36035 8.98486 6.04211 8.50188 6.04199 7.91602C6.04199 7.33001 6.36028 6.84723 6.78027 6.53223C7.04558 6.33327 7.36302 6.18911 7.70801 6.11035V5.83203C7.70818 5.48711 7.98809 5.20721 8.33301 5.20703ZM16.6807 2.29395C16.6579 2.30439 16.6017 2.33899 16.5156 2.44727C16.4024 2.58978 16.2811 2.81044 16.1641 3.1123C16.1023 3.28887 16.0436 3.48771 15.9902 3.70605C15.8092 4.44711 15.7061 5.31143 15.6572 6.04102H16.6797C17.1041 6.04102 17.3534 6.03913 17.5303 6.0127C17.6098 6.00077 17.6479 5.98686 17.6641 5.97949C17.6745 5.97473 17.6768 5.97297 17.6797 5.96973C17.6823 5.96815 17.702 5.95452 17.707 5.83789C17.7138 5.68137 17.6905 5.46444 17.6445 5.07617C17.534 4.14343 17.332 3.37952 17.0938 2.86914C16.9743 2.61323 16.8595 2.4511 16.7676 2.36133C16.7245 2.31933 16.6956 2.30116 16.6807 2.29395Z" fill="#697586"/>
</svg>
