<svg width="18" height="18" viewBox="0 0 18 18" fill="none" xmlns="http://www.w3.org/2000/svg">
<path fill-rule="evenodd" clip-rule="evenodd" d="M16.29 1.72767C16.4836 1.65024 16.7044 1.68647 16.8633 1.82142C17.0222 1.9565 17.0941 2.1686 17.0488 2.37221L14.0488 15.8722C14.0042 16.0724 13.8542 16.2328 13.6572 16.2902C13.4601 16.3476 13.2467 16.2928 13.1016 16.1476L9.39843 12.4445L6.79492 15.3732C6.65098 15.5351 6.42692 15.6002 6.21875 15.5402C6.01065 15.4801 5.85592 15.3056 5.82031 15.0919L5.11523 10.8624L1.23047 8.7433C1.03938 8.63902 0.925708 8.43423 0.938473 8.21693C0.951411 7.99944 1.08872 7.80859 1.29101 7.72767L16.29 1.72767ZM2.81836 8.32826L5.89453 10.006C6.04614 10.0888 6.15127 10.2369 6.17968 10.4074L6.73632 13.7462L8.60156 11.6476L7.85156 10.8976C7.63238 10.6782 7.63258 10.3224 7.85156 10.1027L10.3281 7.6183L11.0029 6.92885C11.2202 6.70696 11.5758 6.70289 11.7978 6.92006C12.0199 7.13732 12.0239 7.4939 11.8066 7.71596L11.1269 8.41029L9.04492 10.4992L13.1728 14.6271L15.7187 3.1681L2.81836 8.32826Z" fill="#697586"/>
</svg>
