<svg width="20" height="22" viewBox="0 0 20 22" fill="none" xmlns="http://www.w3.org/2000/svg">
<path d="M8.58398 0.288712C9.31106 -0.0962378 10.1889 -0.0962369 10.916 0.288712C12.118 0.92507 14.5803 2.07027 17.5332 2.58363C18.6227 2.77301 19.5 3.70426 19.5 4.8727V9.80043C19.5 13.2912 17.7203 15.9578 15.7578 17.8327C13.798 19.705 11.5982 20.8467 10.5967 21.3112C10.0558 21.562 9.44415 21.562 8.90332 21.3112C7.90179 20.8467 5.70199 19.705 3.74219 17.8327C1.77973 15.9578 0 13.2912 0 9.80043V4.8727C3.88196e-05 3.70426 0.877344 2.77301 1.9668 2.58363C4.91973 2.07027 7.38205 0.925069 8.58398 0.288712ZM10.2139 1.61391C9.926 1.46164 9.57399 1.46164 9.28613 1.61391C8.00942 2.28986 5.3906 3.5106 2.22363 4.06117C1.79441 4.13579 1.50004 4.4912 1.5 4.8727V9.80043C1.5 12.7381 2.98918 15.0394 4.77832 16.7487C6.56991 18.4602 8.60428 19.5196 9.53418 19.9508C9.6748 20.016 9.8252 20.016 9.96582 19.9508C10.8957 19.5196 12.9301 18.4602 14.7217 16.7487C16.5108 15.0394 18 12.7381 18 9.80043V4.8727C18 4.4912 17.7056 4.13579 17.2764 4.06117C14.1094 3.5106 11.4906 2.28986 10.2139 1.61391ZM9.75 5.49965C10.1642 5.49965 10.5 5.83544 10.5 6.24965V8.24965C10.4999 8.6638 10.1642 8.99965 9.75 8.99965C9.33583 8.99965 9.00007 8.6638 9 8.24965V6.24965C9 5.83544 9.33579 5.49965 9.75 5.49965Z" fill="#4B5565"/>
</svg>
