<svg width="24" height="24" viewBox="0 0 24 24" fill="none" xmlns="http://www.w3.org/2000/svg">
<path d="M10.834 1.5392C11.5611 1.15425 12.4389 1.15425 13.166 1.5392C14.368 2.17556 16.8303 3.32076 19.7832 3.83412C20.8727 4.0235 21.75 4.95475 21.75 6.12318V11.0509C21.75 14.5417 19.9703 17.2082 18.0078 19.0831C16.048 20.9555 13.8482 22.0972 12.8467 22.5617C12.3058 22.8125 11.6942 22.8125 11.1533 22.5617C10.1518 22.0972 7.95199 20.9555 5.99219 19.0831C4.02973 17.2082 2.25 14.5417 2.25 11.0509V6.12318C2.25004 4.95474 3.12734 4.0235 4.2168 3.83412C7.16973 3.32076 9.63205 2.17556 10.834 1.5392ZM12.4639 2.8644C12.176 2.71213 11.824 2.71213 11.5361 2.8644C10.2594 3.54035 7.6406 4.76109 4.47363 5.31166C4.04441 5.38627 3.75004 5.74169 3.75 6.12318V11.0509C3.75 13.9886 5.23918 16.2899 7.02832 17.9992C8.81991 19.7107 10.8543 20.7701 11.7842 21.2013C11.9248 21.2665 12.0752 21.2665 12.2158 21.2013C13.1457 20.7701 15.1801 19.7107 16.9717 17.9992C18.7608 16.2899 20.25 13.9886 20.25 11.0509V6.12318C20.25 5.74169 19.9556 5.38627 19.5264 5.31166C16.3594 4.76109 13.7406 3.54035 12.4639 2.8644ZM12 6.75014C12.4142 6.75014 12.75 7.08592 12.75 7.50014V9.50014C12.7499 9.91429 12.4142 10.2501 12 10.2501C11.5858 10.2501 11.2501 9.91429 11.25 9.50014V7.50014C11.25 7.08592 11.5858 6.75014 12 6.75014Z" fill="white"/>
</svg>
