<svg width="20" height="22" viewBox="0 0 20 22" fill="none" xmlns="http://www.w3.org/2000/svg">
<path d="M14.75 12C17.37 12 19.5 14.13 19.5 16.75C19.5 19.37 17.37 21.5 14.75 21.5C12.13 21.5 10 19.37 10 16.75C10 14.13 12.13 12 14.75 12ZM14.25 0C14.66 0 15 0.34 15 0.75V1.62207C16.3806 1.77464 17.3382 2.11753 18.1104 2.88965C19.5003 4.27965 19.5 6.27001 19.5 10.25V11.25C19.5 11.66 19.16 12 18.75 12C18.34 12 18 11.66 18 11.25V10.25C18 9.61151 17.9977 9.02998 17.9922 8.5H1.50781C1.50233 9.02998 1.5 9.61151 1.5 10.25V12.25C1.5 15.81 1.5002 17.5998 2.4502 18.5498C3.4002 19.4998 5.19003 19.5 8.75 19.5C9.16 19.5 9.5 19.84 9.5 20.25C9.5 20.66 9.16 21 8.75 21C4.77 21 2.77965 21.0004 1.38965 19.6104C-0.00034392 18.2204 0 16.23 0 12.25V10.25C0 6.28001 -0.00034392 4.27965 1.38965 2.88965C2.16177 2.11753 3.11938 1.77464 4.5 1.62207V0.75C4.5 0.34 4.84 0 5.25 0C5.66 0 6 0.34 6 0.75V1.52539C6.79612 1.50019 7.70438 1.5 8.75 1.5H10.75C11.7956 1.5 12.7039 1.50019 13.5 1.52539V0.75C13.5 0.34 13.84 0 14.25 0ZM14.75 13.5C12.96 13.5 11.5 14.96 11.5 16.75C11.5 18.54 12.96 20 14.75 20C16.54 20 18 18.54 18 16.75C18 14.96 16.54 13.5 14.75 13.5ZM14.75 14C15.16 14 15.5 14.34 15.5 14.75V16.4404L16.2803 17.2197C16.5703 17.5097 16.5703 17.9903 16.2803 18.2803C16.1303 18.4303 15.94 18.5 15.75 18.5C15.56 18.5 15.3697 18.4303 15.2197 18.2803L14.2197 17.2803C14.0797 17.1403 14 16.95 14 16.75V14.75C14 14.34 14.34 14 14.75 14ZM8.75 3C7.68255 3 6.77426 3.00076 6 3.02637V4.25C6 4.66 5.66 5 5.25 5C4.84 5 4.5 4.66 4.5 4.25V3.13477C3.55493 3.25812 2.90594 3.49446 2.4502 3.9502C1.8488 4.55159 1.62784 5.48941 1.54688 7H17.9531C17.8722 5.48941 17.6512 4.55159 17.0498 3.9502C16.5941 3.49446 15.9451 3.25812 15 3.13477V4.25C15 4.66 14.66 5 14.25 5C13.84 5 13.5 4.66 13.5 4.25V3.02637C12.7257 3.00076 11.8175 3 10.75 3H8.75Z" fill="#161616"/>
</svg>
