<svg width="20" height="20" viewBox="0 0 20 20" fill="none" xmlns="http://www.w3.org/2000/svg">
<path d="M18.75 8.99951C19.1641 8.99951 19.4998 9.33544 19.5 9.74951C19.5 13.9865 16.3697 16.9995 12.25 16.9995H2.28711C2.35367 17.0596 2.42286 17.12 2.49219 17.1802C2.79148 17.44 3.09227 17.6829 3.32031 17.8608C3.43396 17.9495 3.52905 18.0212 3.59473 18.0708C3.62742 18.0955 3.65282 18.1147 3.66992 18.1274L3.68945 18.1421L3.69434 18.146C4.0278 18.3916 4.09913 18.8613 3.85352 19.1948C3.60792 19.5279 3.13904 19.5992 2.80566 19.354L2.80273 19.3521L2.79688 19.3472L2.77344 19.3306C2.75393 19.316 2.72592 19.2949 2.69043 19.2681C2.61938 19.2144 2.51818 19.1377 2.39746 19.0435C2.15682 18.8557 1.83337 18.5957 1.50781 18.313C1.18604 18.0336 0.844658 17.7162 0.578125 17.4146C0.445702 17.2646 0.315669 17.1004 0.214844 16.9331C0.126344 16.7862 3.83638e-06 16.5404 0 16.2495C6.96079e-05 15.9584 0.126357 15.7127 0.214844 15.5659C0.315731 15.3986 0.445617 15.2345 0.578125 15.0845C0.844725 14.7827 1.18597 14.4655 1.50781 14.186C1.83341 13.9033 2.15778 13.6443 2.39844 13.4565C2.51893 13.3625 2.61945 13.2855 2.69043 13.2319C2.72597 13.2051 2.80566 13.146 2.80566 13.146C3.13915 12.9006 3.60792 12.9718 3.85352 13.3052C4.0991 13.6386 4.02866 14.1083 3.69531 14.354L3.68945 14.3579L3.66992 14.3716C3.65286 14.3843 3.62741 14.4035 3.59473 14.4282C3.52905 14.4778 3.43396 14.5505 3.32031 14.6392C3.09236 14.8171 2.7913 15.0592 2.49219 15.3188C2.42282 15.3791 2.35371 15.4394 2.28711 15.4995H12.25C15.5569 15.4995 18 13.1425 18 9.74951C18.0002 9.33546 18.3359 8.99954 18.75 8.99951ZM15.6465 0.305176C15.8921 -0.0282578 16.3618 -0.0996155 16.6953 0.145996L16.6973 0.147949L16.7041 0.152832L16.7266 0.169434C16.7461 0.183972 16.7741 0.205177 16.8096 0.231934C16.8806 0.285593 16.9819 0.362369 17.1025 0.456543C17.3432 0.644339 17.6667 0.903426 17.9922 1.18604C18.3141 1.4655 18.6552 1.78271 18.9219 2.08447C19.0544 2.23447 19.1843 2.39854 19.2852 2.56592C19.3736 2.71268 19.4999 2.95846 19.5 3.24951C19.5 3.54074 19.3737 3.78726 19.2852 3.93408C19.1843 4.10142 19.0544 4.26557 18.9219 4.41553C18.6554 4.71715 18.3139 5.03363 17.9922 5.31299C17.6666 5.59563 17.3432 5.85566 17.1025 6.04346C16.9818 6.13767 16.8806 6.21441 16.8096 6.26807C16.774 6.29492 16.6943 6.354 16.6943 6.354C16.3609 6.5992 15.8921 6.52796 15.6465 6.19482C15.4009 5.86132 15.4722 5.39164 15.8057 5.146L15.8105 5.14209L15.8301 5.12744C15.8472 5.11469 15.8726 5.09549 15.9053 5.0708C15.9709 5.0212 16.066 4.94953 16.1797 4.86084C16.4078 4.68285 16.7095 4.44006 17.0088 4.18018C17.078 4.12007 17.1464 4.0595 17.2129 3.99951H7.25C3.94323 3.99951 1.50015 6.35669 1.5 9.74951C1.5 10.1637 1.16421 10.4995 0.75 10.4995C0.335786 10.4995 0 10.1637 0 9.74951C0.000151757 5.51273 3.13042 2.49951 7.25 2.49951H17.2129C17.1464 2.43946 17.0781 2.37902 17.0088 2.31885C16.7095 2.059 16.4077 1.81715 16.1797 1.63916C16.0661 1.55051 15.9709 1.4788 15.9053 1.4292C15.8725 1.40441 15.8472 1.38433 15.8301 1.37158L15.8105 1.35791L15.8057 1.354C15.4722 1.10835 15.4009 0.638672 15.6465 0.305176Z" fill="#9AA4B2"/>
</svg>
