<svg width="20" height="20" viewBox="0 0 20 20" fill="none" xmlns="http://www.w3.org/2000/svg">
<path d="M8.33105 8.33398V8.50065C8.87757 8.71082 9.33298 9.10616 9.61787 9.61772C9.90276 10.1293 9.99904 10.7246 9.88994 11.2999C9.78083 11.8752 9.47326 12.3939 9.02085 12.7656C8.56844 13.1374 7.99991 13.3385 7.41439 13.334H4.16439C3.58586 13.3196 3.03024 13.1049 2.59231 12.7266C2.15437 12.3483 1.86124 11.8298 1.76292 11.2595C1.66459 10.6892 1.76716 10.1025 2.05313 9.59938C2.33909 9.09627 2.79075 8.70795 3.33105 8.50065V8.33398C3.33105 7.67094 3.59444 7.03506 4.06329 6.56622C4.53213 6.09738 5.16801 5.83398 5.83105 5.83398C6.49409 5.83398 7.12998 6.09738 7.59882 6.56622C8.06766 7.03506 8.33105 7.67094 8.33105 8.33398Z" stroke="#9AA4B2" stroke-linecap="round" stroke-linejoin="round"/>
<path d="M5.83594 13.334V18.334" stroke="#9AA4B2" stroke-linecap="round" stroke-linejoin="round"/>
<path d="M10.8359 15.834V18.334" stroke="#9AA4B2" stroke-linecap="round" stroke-linejoin="round"/>
<path d="M9.9974 15.8333H16.9141C17.0772 15.831 17.236 15.7809 17.3709 15.6892C17.5058 15.5975 17.6108 15.4682 17.6729 15.3174C17.735 15.1665 17.7515 15.0008 17.7203 14.8407C17.6891 14.6806 17.6116 14.5331 17.4974 14.4167L14.9974 11.6667H15.2474C15.4105 11.6644 15.5693 11.6143 15.7042 11.5225C15.8391 11.4308 15.9441 11.3015 16.0063 11.1507C16.0684 10.9999 16.0848 10.8341 16.0536 10.674C16.0224 10.5139 15.9449 10.3665 15.8307 10.25L13.3307 7.5H13.4974C13.6676 7.51535 13.8384 7.478 13.9867 7.39301C14.135 7.30802 14.2535 7.1795 14.3263 7.02487C14.399 6.87023 14.4225 6.69696 14.3935 6.52854C14.3645 6.36012 14.2844 6.2047 14.1641 6.08333L10.8307 2.5L9.66406 3.75" stroke="#9AA4B2" stroke-linecap="round" stroke-linejoin="round"/>
</svg>
