<svg width="24" height="24" viewBox="0 0 24 24" fill="none" xmlns="http://www.w3.org/2000/svg">
<g clip-path="url(#clip0_9103_39493)">
<path d="M19.5 9.65V9.5C19.5 5.3 16.2 2 12 2C8.25 2 5.1 4.7 4.65 8.45C1.95 9.35 0 11.75 0 14.75C0 18.5 3 21.5 6.75 21.5C9.3 21.5 15.6 21.5 18 21.5C21.3 21.5 24 18.8 24 15.5C24 12.65 22.05 10.4 19.5 9.65Z" fill="#DA9516"/>
<path d="M13.5 14V18.5H10.5V14H6L12 8L18 14H13.5Z" fill="white"/>
</g>
<defs>
<clipPath id="clip0_9103_39493">
<rect width="24" height="19.5" fill="white" transform="translate(0 2)"/>
</clipPath>
</defs>
</svg>
