<svg width="15" height="17" viewBox="0 0 15 17" fill="none" xmlns="http://www.w3.org/2000/svg">
<path d="M2.95787 10.1904C5.62334 8.60329 9.00135 8.60337 11.6669 10.1904C11.7541 10.2424 11.8622 10.3032 11.9842 10.3721C12.5188 10.6737 13.3271 11.1291 13.8807 11.6709C14.2269 12.0098 14.5552 12.4568 14.6151 13.0039C14.6787 13.5858 14.4251 14.132 13.9159 14.6172C13.0373 15.4542 11.9827 16.125 10.619 16.125H4.00572C2.64199 16.125 1.58743 15.4542 0.708845 14.6172C0.199646 14.132 -0.0539742 13.5858 0.00962669 13.0039C0.069485 12.4568 0.398763 12.0098 0.744978 11.6709C1.29845 11.1293 2.10602 10.6736 2.64049 10.3721C2.76245 10.3033 2.87065 10.2424 2.95787 10.1904ZM11.0917 11.1572C8.78078 9.78123 5.84395 9.78123 3.53306 11.1572C3.40725 11.2321 3.26924 11.3107 3.12486 11.3926C2.59047 11.6958 1.9661 12.0498 1.53111 12.4756C1.26142 12.7396 1.14631 12.9576 1.12779 13.126C1.11317 13.2598 1.14724 13.4807 1.48521 13.8027C2.26206 14.5428 3.05144 15 4.00572 15H10.619C11.5733 15 12.3636 14.5429 13.1405 13.8027C13.4783 13.4808 13.5116 13.2597 13.4969 13.126C13.4784 12.9576 13.3634 12.7397 13.0936 12.4756C12.6585 12.0497 12.0343 11.6958 11.4999 11.3926C11.3554 11.3106 11.2175 11.2322 11.0917 11.1572ZM7.31236 0C9.48698 0 11.2499 1.76288 11.2499 3.9375C11.2499 6.11212 9.48698 7.875 7.31236 7.875C5.13776 7.87498 3.37486 6.11211 3.37486 3.9375C3.37486 1.76289 5.13776 2.38372e-05 7.31236 0ZM7.31236 1.125C5.75908 1.12502 4.49986 2.38421 4.49986 3.9375C4.49986 5.49079 5.75908 6.74998 7.31236 6.75C8.86566 6.75 10.1249 5.4908 10.1249 3.9375C10.1249 2.3842 8.86566 1.125 7.31236 1.125Z" fill="#697586"/>
</svg>
