<svg width="20" height="20" viewBox="0 0 20 20" fill="none" xmlns="http://www.w3.org/2000/svg">
<path d="M9.16797 11.042C11.8141 11.0422 13.9588 13.1869 13.959 15.833C13.959 17.0986 12.9335 18.1248 11.668 18.125H3.33398C2.06848 18.1248 1.04297 17.0986 1.04297 15.833C1.04314 13.1869 3.18788 11.0422 5.83398 11.042H9.16797ZM14.168 11.042C16.8141 11.0422 18.9588 13.1869 18.959 15.833C18.959 17.0986 17.9335 18.1248 16.668 18.125H15.418C15.0728 18.125 14.793 17.8452 14.793 17.5C14.793 17.1548 15.0728 16.875 15.418 16.875H16.668C17.2431 16.8748 17.709 16.4082 17.709 15.833C17.7088 13.8773 16.1237 12.2922 14.168 12.292C13.8229 12.292 13.5431 12.012 13.543 11.667C13.543 11.3218 13.8228 11.042 14.168 11.042ZM5.83398 12.292C3.87823 12.2922 2.29314 13.8773 2.29297 15.833C2.29297 16.4082 2.75884 16.8748 3.33398 16.875H11.668C12.2431 16.8748 12.709 16.4082 12.709 15.833C12.7088 13.8773 11.1237 12.2922 9.16797 12.292H5.83398ZM7.50098 1.875C9.68699 1.875 11.4588 3.64703 11.459 5.83301C11.459 8.01913 9.6871 9.79199 7.50098 9.79199C5.31485 9.79199 3.54297 8.01913 3.54297 5.83301C3.54314 3.64703 5.31496 1.875 7.50098 1.875ZM12.501 1.875C14.687 1.875 16.4588 3.64703 16.459 5.83301C16.459 8.01913 14.6871 9.79199 12.501 9.79199C12.1559 9.79199 11.8762 9.51202 11.876 9.16699C11.876 8.82181 12.1558 8.54199 12.501 8.54199C13.9967 8.54199 15.209 7.32878 15.209 5.83301C15.2088 4.33739 13.9966 3.125 12.501 3.125C12.1558 3.125 11.876 2.84518 11.876 2.5C11.876 2.15482 12.1558 1.875 12.501 1.875ZM7.50098 3.125C6.00531 3.125 4.79314 4.33739 4.79297 5.83301C4.79297 7.32878 6.00521 8.54199 7.50098 8.54199C8.99675 8.54199 10.209 7.32878 10.209 5.83301C10.2088 4.33739 8.99664 3.125 7.50098 3.125Z" fill="#D92D20"/>
</svg>
