<svg width="20" height="20" viewBox="0 0 20 20" fill="none" xmlns="http://www.w3.org/2000/svg">
<path d="M6.40625 12.0605C8.6044 10.7013 11.3927 10.7013 13.5908 12.0605C13.6556 12.1006 13.7378 12.148 13.832 12.2031C14.2589 12.4529 14.937 12.8494 15.3994 13.3193C15.6899 13.6146 15.9794 14.0178 16.0322 14.5195C16.0886 15.0562 15.8603 15.5525 15.4258 15.9824C14.7078 16.6928 13.8186 17.291 12.6523 17.291H7.3457C6.17949 17.291 5.28931 16.6928 4.57129 15.9824C4.13697 15.5526 3.90946 15.0561 3.96582 14.5195C4.01863 14.0178 4.3082 13.6146 4.59863 13.3193C5.06097 12.8495 5.73822 12.4529 6.16504 12.2031C6.25911 12.1481 6.34152 12.1006 6.40625 12.0605ZM12.9336 13.123C11.1385 12.0131 8.85962 12.0132 7.06445 13.123C6.95675 13.1896 6.84083 13.2579 6.72168 13.3281C6.29512 13.5796 5.82111 13.859 5.48926 14.1963C5.28518 14.4038 5.21895 14.5558 5.20898 14.6504C5.20276 14.7102 5.20639 14.8526 5.45117 15.0947C6.06145 15.6984 6.65192 16.041 7.3457 16.041H12.6523C13.3462 16.041 13.9365 15.6985 14.5469 15.0947C14.7916 14.8526 14.7953 14.7102 14.7891 14.6504C14.7791 14.5557 14.712 14.4038 14.5078 14.1963C14.176 13.8591 13.7028 13.5796 13.2764 13.3281C13.1571 13.2578 13.0414 13.1897 12.9336 13.123ZM4.10938 10.21C4.45306 10.179 4.75699 10.4327 4.78809 10.7764C4.81899 11.12 4.56534 11.424 4.22168 11.4551C3.6882 11.5034 3.15106 11.7092 2.65918 12.0879C2.57991 12.1489 2.49704 12.2095 2.41406 12.2705C2.13126 12.4784 1.84044 12.6924 1.63281 12.9551C1.50958 13.1111 1.46506 13.2287 1.45801 13.3115C1.45267 13.3747 1.46199 13.4863 1.60547 13.6631C2.01821 14.1715 2.35463 14.374 2.6875 14.374C3.03249 14.3742 3.3125 14.654 3.3125 14.999C3.3125 15.3441 3.03249 15.6238 2.6875 15.624C1.77159 15.624 1.11381 15.0404 0.634766 14.4502C0.321919 14.0647 0.176092 13.6414 0.212891 13.2061C0.248117 12.7905 0.442762 12.4448 0.651367 12.1807C0.978043 11.7671 1.46316 11.4145 1.74707 11.208C1.80687 11.1645 1.85785 11.1274 1.89648 11.0977C2.56671 10.5816 3.32731 10.2807 4.10938 10.21ZM15.8887 10.21C16.6707 10.2808 17.4314 10.5816 18.1016 11.0977C18.1402 11.1274 18.1913 11.1646 18.251 11.208C18.5349 11.4146 19.0191 11.7673 19.3457 12.1807C19.5544 12.4448 19.7499 12.7904 19.7852 13.2061C19.822 13.6415 19.6753 14.0646 19.3623 14.4502C18.8833 15.0404 18.2264 15.624 17.3105 15.624C16.9654 15.624 16.6855 15.3442 16.6855 14.999C16.6855 14.6538 16.9654 14.374 17.3105 14.374C17.6434 14.374 17.9798 14.1717 18.3926 13.6631C18.5361 13.4863 18.5444 13.3747 18.5391 13.3115C18.532 13.2287 18.4884 13.111 18.3652 12.9551C18.1575 12.6922 17.866 12.4785 17.583 12.2705C17.5001 12.2096 17.4181 12.1489 17.3389 12.0879C16.8469 11.709 16.309 11.5034 15.7754 11.4551C15.4319 11.4238 15.179 11.1199 15.21 10.7764C15.2411 10.4326 15.5449 10.1789 15.8887 10.21ZM4.58203 4.37402C4.92721 4.37402 5.20703 4.65385 5.20703 4.99902C5.20703 5.3442 4.92721 5.62402 4.58203 5.62402C3.77677 5.62408 3.1242 6.2768 3.12402 7.08203C3.12402 7.88741 3.77666 8.54096 4.58203 8.54102C4.92721 8.54102 5.20703 8.82084 5.20703 9.16602C5.20686 9.51104 4.9271 9.79102 4.58203 9.79102C3.0863 9.79096 1.87402 8.57777 1.87402 7.08203C1.8742 5.58644 3.08641 4.37408 4.58203 4.37402ZM9.99902 2.70703C11.9549 2.70718 13.54 4.2931 13.54 6.24902C13.54 8.20494 11.9549 9.79087 9.99902 9.79102C8.04302 9.79102 6.45703 8.20503 6.45703 6.24902C6.45703 4.29301 8.04302 2.70703 9.99902 2.70703ZM14.999 4.37402C16.4946 4.37417 17.7069 5.5865 17.707 7.08203C17.707 8.57771 16.4947 9.79087 14.999 9.79102C14.654 9.79102 14.3742 9.51104 14.374 9.16602C14.374 8.82084 14.6538 8.54102 14.999 8.54102C15.8043 8.54087 16.457 7.88736 16.457 7.08203C16.4569 6.27685 15.8042 5.62417 14.999 5.62402C14.6538 5.62402 14.374 5.3442 14.374 4.99902C14.374 4.65385 14.6538 4.37402 14.999 4.37402ZM9.99902 3.95703C8.73337 3.95703 7.70703 4.98337 7.70703 6.24902C7.70703 7.51468 8.73337 8.54102 9.99902 8.54102C11.2646 8.54087 12.29 7.51459 12.29 6.24902C12.29 4.98346 11.2646 3.95718 9.99902 3.95703Z" fill="#697586"/>
</svg>
