<svg width="24" height="24" viewBox="0 0 24 24" fill="none" xmlns="http://www.w3.org/2000/svg">
<path d="M10.252 14.7793C8.75502 14.8916 7.28143 15.3404 5.96191 16.126C5.79407 16.2259 5.60963 16.3302 5.41699 16.4395C4.70438 16.8437 3.87209 17.316 3.29199 17.8838C2.93193 18.2362 2.77846 18.5273 2.75391 18.752C2.73447 18.9304 2.78002 19.2242 3.23047 19.6533C4.26626 20.6401 5.31849 21.2499 6.59082 21.25H13C13.4142 21.25 13.75 21.5858 13.75 22C13.75 22.4142 13.4142 22.75 13 22.75H6.59082C4.77262 22.7499 3.3667 21.8552 2.19531 20.7393C1.51651 20.0924 1.17796 19.3646 1.2627 18.5889C1.34244 17.8593 1.78149 17.2634 2.24316 16.8115C2.98133 16.0891 4.05876 15.4812 4.77148 15.0791C4.93409 14.9874 5.07805 14.9062 5.19434 14.8369L10.252 14.7793ZM17.5996 13.25C20.0019 13.25 21.95 15.1973 21.9502 17.5996C21.9502 18.53 21.6576 19.3924 21.1602 20.0996L22.5303 21.4697C22.8232 21.7626 22.8232 22.2374 22.5303 22.5303C22.2374 22.8232 21.7626 22.8232 21.4697 22.5303L20.0996 21.1602C19.3924 21.6576 18.53 21.9502 17.5996 21.9502C15.1973 21.95 13.25 20.0019 13.25 17.5996C13.2502 15.1975 15.1975 13.2502 17.5996 13.25ZM17.5996 14.75C16.0259 14.7502 14.7502 16.0259 14.75 17.5996C14.75 19.1735 16.0258 20.45 17.5996 20.4502C19.1736 20.4502 20.4502 19.1736 20.4502 17.5996C20.45 16.0258 19.1735 14.75 17.5996 14.75ZM5.59082 14.6123C7.59096 13.5296 9.8578 13.0931 12.0703 13.2998C12.4825 13.3385 12.7855 13.704 12.7471 14.1162C12.7085 14.5286 12.343 14.8314 11.9307 14.793L11.1104 14.7695L11.5449 14.7646C11.2535 14.7488 10.9615 14.7472 10.6699 14.7568L5.59082 14.6123ZM11.1104 14.7695L10.252 14.7793C10.3911 14.7689 10.5305 14.7614 10.6699 14.7568L11.1104 14.7695ZM11 1.25C13.8995 1.25 16.25 3.60051 16.25 6.5C16.25 9.39949 13.8995 11.75 11 11.75C8.10051 11.75 5.75 9.39949 5.75 6.5C5.75 3.60051 8.10051 1.25 11 1.25ZM11 2.75C8.92893 2.75 7.25 4.42893 7.25 6.5C7.25 8.57107 8.92893 10.25 11 10.25C13.0711 10.25 14.75 8.57107 14.75 6.5C14.75 4.42893 13.0711 2.75 11 2.75Z" fill="#4D0CE7"/>
</svg>
