<svg width="20" height="20" viewBox="0 0 20 20" fill="none" xmlns="http://www.w3.org/2000/svg">
<path d="M17.9546 9.20425C18.208 9.5595 18.3346 9.73716 18.3346 10.0001C18.3346 10.263 18.208 10.4407 17.9546 10.7959C16.8162 12.3922 13.909 15.8334 10.0013 15.8334C6.09362 15.8334 3.18639 12.3922 2.048 10.7959C1.79464 10.4407 1.66797 10.263 1.66797 10.0001C1.66797 9.73716 1.79464 9.5595 2.048 9.20425C3.18639 7.60795 6.09362 4.16675 10.0013 4.16675C13.909 4.16675 16.8162 7.60795 17.9546 9.20425Z" stroke="#0050A8" stroke-width="0.776336"/>
<path d="M12.5 9.99951C12.5 8.61876 11.3808 7.49951 10 7.49951C8.61925 7.49951 7.5 8.61876 7.5 9.99951C7.5 11.3803 8.61925 12.4995 10 12.4995C11.3808 12.4995 12.5 11.3803 12.5 9.99951Z" stroke="#0050A8" stroke-width="0.776336"/>
</svg>
