<svg width="20" height="20" viewBox="0 0 20 20" fill="none" xmlns="http://www.w3.org/2000/svg">
<path d="M13.335 1.875C14.6005 1.87516 15.626 2.90144 15.626 4.16699V5.20801H16.668C17.9336 5.20801 18.9599 6.23437 18.96 7.5V15.833C18.96 17.0987 17.9336 18.125 16.668 18.125H9.16797C8.8228 18.125 8.54297 17.8452 8.54297 17.5C8.54299 17.1549 8.82282 16.875 9.16797 16.875H16.668C17.2433 16.875 17.71 16.4083 17.71 15.833V7.5C17.7099 6.92472 17.2433 6.45801 16.668 6.45801H8.33496C7.98978 6.45801 7.70996 6.17819 7.70996 5.83301C7.71016 5.488 7.9899 5.20801 8.33496 5.20801H14.376V4.16699C14.376 3.59179 13.9101 3.12516 13.335 3.125H3.33496C2.75966 3.125 2.29297 3.5917 2.29297 4.16699V12.083C2.29297 12.4282 2.01315 12.708 1.66797 12.708C1.3228 12.708 1.04297 12.4282 1.04297 12.083V4.16699C1.04297 2.90134 2.06931 1.875 3.33496 1.875H13.335ZM7.4375 12.0996C7.65847 11.8344 8.05319 11.7986 8.31836 12.0195C8.58353 12.2405 8.61941 12.6352 8.39844 12.9004L4.23145 17.9004C4.11903 18.0352 3.95464 18.1161 3.7793 18.124C3.60414 18.1319 3.43363 18.0663 3.30957 17.9424L1.22559 15.8584C0.981913 15.6143 0.981794 15.2186 1.22559 14.9746C1.46966 14.7305 1.86627 14.7305 2.11035 14.9746L3.70898 16.5742L7.4375 12.0996ZM14.585 9.375C15.6204 9.37516 16.46 10.2146 16.46 11.25C16.46 12.2854 15.6204 13.1248 14.585 13.125C13.5494 13.125 12.71 12.2855 12.71 11.25C12.71 10.2145 13.5494 9.375 14.585 9.375ZM14.585 10.625C14.2398 10.625 13.96 10.9048 13.96 11.25C13.96 11.5952 14.2398 11.875 14.585 11.875C14.93 11.8748 15.21 11.5951 15.21 11.25C15.21 10.9049 14.93 10.6252 14.585 10.625Z" fill="#697586"/>
</svg>
