<svg width="24" height="24" viewBox="0 0 24 24" fill="none" xmlns="http://www.w3.org/2000/svg">
<path d="M11.2832 12.4297C11.7301 12.1901 12.2699 12.1901 12.7168 12.4297C13.2302 12.7049 14.2804 13.1986 15.5322 13.4189C16.2059 13.5375 16.75 14.1204 16.75 14.8555V17.0732C16.7499 18.7926 15.8814 20.0921 14.9609 20.9824C14.0435 21.8699 13.02 22.4075 12.5547 22.626C12.2015 22.7917 11.7985 22.7917 11.4453 22.626C10.98 22.4075 9.95653 21.8699 9.03906 20.9824C8.1186 20.0921 7.25009 18.7926 7.25 17.0732V14.8555C7.25 14.1204 7.79414 13.5375 8.46777 13.4189C9.71958 13.1986 10.7698 12.7049 11.2832 12.4297ZM19.498 1.25C21.0174 1.24918 22.25 2.48064 22.25 4V18.499C22.2499 20.0178 21.0187 21.249 19.5 21.249H19C18.5858 21.249 18.2501 20.9132 18.25 20.499C18.25 20.0848 18.5858 19.749 19 19.749H19.5C20.1903 19.749 20.7499 19.1893 20.75 18.499V8.75H3.25V18.499C3.25006 19.1893 3.80968 19.749 4.5 19.749H5C5.41421 19.749 5.75 20.0848 5.75 20.499C5.74994 20.9132 5.41418 21.249 5 21.249H4.5C2.98125 21.249 1.75006 20.0178 1.75 18.499V4.00781C1.75016 2.4899 2.98016 1.25889 4.49805 1.25781L19.498 1.25ZM11.9922 13.752C11.4069 14.0657 10.2081 14.6323 8.75 14.8926V17.0732C8.75008 18.2464 9.33519 19.1819 10.082 19.9043C10.7829 20.5822 11.5782 21.0232 12 21.2285C12.4218 21.0232 13.2171 20.5822 13.918 19.9043C14.6648 19.1819 15.2499 18.2464 15.25 17.0732V14.8926C13.7919 14.6323 12.5931 14.0657 12.0078 13.752C12.0064 13.7512 12.0039 13.75 12 13.75C11.9961 13.75 11.9936 13.7512 11.9922 13.752ZM4.49902 2.75781C3.80917 2.75835 3.25016 3.31796 3.25 4.00781V7.25H20.75V4C20.75 3.30938 20.1896 2.74963 19.499 2.75L4.49902 2.75781ZM6.50879 4C7.06107 4 7.50879 4.44772 7.50879 5C7.50879 5.55228 7.06107 6 6.50879 6H6.5C5.94772 6 5.5 5.55228 5.5 5C5.5 4.44772 5.94772 4 6.5 4H6.50879ZM10.5 4C11.0523 4 11.5 4.44772 11.5 5C11.5 5.55228 11.0523 6 10.5 6H10.4912C9.93893 6 9.49121 5.55228 9.49121 5C9.49121 4.44772 9.93893 4 10.4912 4H10.5Z" fill="#4B5565"/>
</svg>
