<svg width="18" height="18" viewBox="0 0 18 18" fill="none" xmlns="http://www.w3.org/2000/svg">
<path fill-rule="evenodd" clip-rule="evenodd" d="M9.00098 0.9375C13.4546 0.9375 17.0654 4.54835 17.0654 9.00195C17.0652 13.4553 13.4544 17.0654 9.00098 17.0654C7.57133 17.0654 6.31942 16.7683 5.14746 16.1055L1.64746 17.0449C1.45332 17.097 1.24567 17.0415 1.10352 16.8994C0.961358 16.7572 0.905829 16.5497 0.958008 16.3555L1.9043 12.8359C1.24915 11.6724 0.937571 10.4276 0.9375 9.00195C0.9375 4.54851 4.54759 0.937762 9.00098 0.9375ZM9.00098 2.0625C5.16891 2.06276 2.0625 5.16983 2.0625 9.00195C2.06257 10.3231 2.36336 11.4283 2.98926 12.4648C3.06834 12.5959 3.09051 12.7535 3.05078 12.9014L2.29785 15.7051L5.08301 14.958C5.23146 14.9182 5.39016 14.9406 5.52148 15.0205C6.55801 15.6509 7.66671 15.9404 9.00098 15.9404C12.8331 15.9404 15.9402 12.834 15.9404 9.00195C15.9404 5.16967 12.8333 2.0625 9.00098 2.0625ZM7.5 4.6875C7.78013 4.6875 8.01826 4.89356 8.05762 5.1709L8.42969 7.7959C8.45433 7.96972 8.39579 8.14557 8.27246 8.27051L7.2002 9.35742C7.59906 9.90411 8.08274 10.4057 8.64844 10.8311L9.7207 9.73242C9.84604 9.60407 10.0255 9.543 10.2031 9.56836L12.8291 9.94336C13.1062 9.98293 13.3125 10.2201 13.3125 10.5V12.75C13.3125 13.0607 13.0607 13.3125 12.75 13.3125C11.1374 13.3125 9.61667 12.8225 8.41016 12.0371C7.44827 11.411 6.6681 10.6049 6.0752 9.70996C6.07287 9.70774 6.07066 9.70539 6.06836 9.70312C6.00406 9.63966 5.95791 9.56446 5.93066 9.48438C5.10785 8.15237 4.68767 6.64529 4.6875 5.25C4.6875 5.10083 4.74706 4.95803 4.85254 4.85254C4.95803 4.74705 5.10082 4.6875 5.25 4.6875H7.5ZM9.625 11.4404C10.3885 11.8284 11.2634 12.0881 12.1875 12.1641V10.9883L10.3271 10.7227L9.625 11.4404ZM5.83887 5.8125C5.91735 6.66114 6.17107 7.54254 6.59375 8.37012L7.27637 7.67773L7.01172 5.8125H5.83887Z" fill="#697586"/>
</svg>
