<svg width="24" height="24" viewBox="0 0 24 24" fill="none" xmlns="http://www.w3.org/2000/svg">
<path d="M23.7617 18.4255C23.7514 18.3831 22.6751 14.2009 18.7623 14.2009H17.9955L12.2341 9.23008C12.1901 9.19219 12.1342 9.17164 12.0767 9.17164H0.68235C0.54941 9.17164 0.441516 9.27953 0.441516 9.41247C0.441516 9.54541 0.54941 9.65331 0.68235 9.65331H7.01759L4.82632 14.2012H0.68235C0.504775 14.2012 0.361237 14.3451 0.361237 14.5223C0.361237 14.6996 0.504775 14.8435 0.68235 14.8435H18.7623C18.8471 14.8435 18.9293 14.847 19.0108 14.8512C19.0593 15.7301 19.367 16.4195 19.9334 16.8986C20.6569 17.51 21.6289 17.6304 22.2827 17.6304C22.4814 17.6304 22.65 17.6192 22.774 17.6076C22.9894 18.0623 23.0967 18.4255 23.1288 18.544V19.4177C22.5884 19.498 21.916 19.9575 21.916 21.0397C21.916 22.1218 22.5884 22.5813 23.1288 22.6616V22.8196H16.9043C16.9352 22.5839 16.9506 22.345 16.9506 22.1061C16.9506 20.873 16.5344 19.7382 15.8415 18.8237H21.9741C22.1517 18.8237 22.2952 18.6798 22.2952 18.5025C22.2952 18.3253 22.1517 18.1814 21.9741 18.1814H15.2734C14.2918 17.2367 12.9604 16.6523 11.4917 16.6523C10.0255 16.6523 8.69541 17.2367 7.71441 18.1814H0.414863C0.237288 18.1814 0.09375 18.3253 0.09375 18.5025C0.09375 18.6798 0.237288 18.8237 0.414863 18.8237H7.147C6.45436 19.7382 6.0382 20.873 6.0382 22.1061C6.0382 22.345 6.05361 22.5839 6.08444 22.8196H0.414863C0.237288 22.8196 0.09375 22.9634 0.09375 23.1407C0.09375 23.318 0.237288 23.4618 0.414863 23.4618H6.46335C6.56001 23.4618 6.6512 23.4185 6.71189 23.3436C6.7729 23.2688 6.79731 23.1706 6.77772 23.0762C6.71318 22.7599 6.6801 22.4333 6.6801 22.1061C6.6801 19.665 8.50916 17.6471 10.8719 17.3398V17.5976H11.2666V19.7202H10.7849C10.652 19.7202 10.5441 19.8281 10.5441 19.961V21.433L8.57146 20.4742C8.45136 20.4151 8.30782 20.4662 8.24938 20.5856C8.19126 20.7051 8.24135 20.8492 8.36081 20.9074L10.5441 21.9686V23.1404H10.1292V24.0006H12.8586V23.1404H12.4438V19.961C12.4438 19.8281 12.3359 19.7202 12.2029 19.7202H11.7213V17.5976H12.1159V17.3391C14.4767 17.6448 16.3077 19.6634 16.3077 22.1061C16.3077 22.4333 16.2746 22.7599 16.2101 23.0762C16.1905 23.1706 16.2149 23.2688 16.2759 23.3436C16.3366 23.4181 16.4281 23.4618 16.5245 23.4618H23.4493C23.6269 23.4618 23.7704 23.318 23.7704 23.1407V18.5025C23.7714 18.4765 23.7681 18.4505 23.7617 18.4255ZM17.2582 14.2009H6.42674L6.68107 13.673H14.9423C15.0429 13.673 15.1331 13.6107 15.1681 13.5163C15.2031 13.4219 15.1758 13.3159 15.1 13.2501L11.5411 10.1668C11.4971 10.1289 11.4412 10.108 11.3834 10.108H8.39902L8.61834 9.65298H11.9878L17.2582 14.2009ZM7.42926 12.1201C7.44756 12.1246 7.46522 12.1313 7.48481 12.1313H10.5624C10.6953 12.1313 10.8032 12.0234 10.8032 11.8905C10.8032 11.7576 10.6953 11.6497 10.5624 11.6497H7.65596L8.16653 10.5897H11.2935L14.2966 13.1913H6.91323L7.42926 12.1201ZM7.55257 9.65331H8.08337L5.89209 14.2009H5.36129L7.55257 9.65331ZM11.9624 23.1404H11.026V22.2027L11.3889 22.379C11.4226 22.3957 11.4589 22.4034 11.4939 22.4034C11.5832 22.4034 11.6692 22.3537 11.711 22.2679C11.7691 22.1485 11.719 22.0043 11.5996 21.9462L11.026 21.6674V20.2022H11.9624V23.1404ZM20.3464 16.406C19.9459 16.0666 19.7163 15.5717 19.6589 14.9334C21.0355 15.2188 21.9073 16.1382 22.4339 16.9837C21.8896 17.0007 20.9732 16.9381 20.3464 16.406ZM22.5582 21.0397C22.5582 20.3489 22.9092 20.1386 23.1288 20.0744V22.0046C22.9095 21.9404 22.5582 21.7301 22.5582 21.0397ZM3.01588 16.1979C2.88294 16.1979 2.77504 16.09 2.77504 15.9571C2.77504 15.8241 2.88294 15.7162 3.01588 15.7162H5.34909C5.48203 15.7162 5.58992 15.8241 5.58992 15.9571C5.58992 16.09 5.48203 16.1979 5.34909 16.1979H3.01588ZM6.49932 8.69767C8.89739 8.69767 10.8482 6.74691 10.8482 4.34884C10.8482 1.95076 8.89707 0 6.49932 0C4.10156 0 2.15048 1.95076 2.15048 4.34884C2.15048 6.74691 4.10124 8.69767 6.49932 8.69767ZM6.49932 0.48167C8.63183 0.48167 10.3665 2.21632 10.3665 4.34884C10.3665 6.48135 8.63183 8.216 6.49932 8.216C4.3668 8.216 2.63215 6.48135 2.63215 4.34884C2.63215 2.21632 4.3668 0.48167 6.49932 0.48167ZM6.49932 6.47332C7.67074 6.47332 8.6238 5.52026 8.6238 4.34884C8.6238 3.17742 7.67074 2.22435 6.49932 2.22435C5.32789 2.22435 4.37483 3.17742 4.37483 4.34884C4.37483 5.52026 5.32757 6.47332 6.49932 6.47332ZM6.49932 2.70602C7.40518 2.70602 8.14213 3.44298 8.14213 4.34884C8.14213 5.2547 7.40518 5.99165 6.49932 5.99165C5.59346 5.99165 4.8565 5.2547 4.8565 4.34884C4.8565 3.44298 5.59313 2.70602 6.49932 2.70602ZM6.49932 7.03366C7.97965 7.03366 9.18414 5.82949 9.18414 4.34884C9.18414 2.86818 7.97965 1.66401 6.49932 1.66401C5.01898 1.66401 3.81481 2.86818 3.81481 4.34884C3.81481 5.82949 5.01866 7.03366 6.49932 7.03366ZM6.49932 1.98512C7.80271 1.98512 8.86303 3.04544 8.86303 4.34884C8.86303 5.65223 7.80239 6.71255 6.49932 6.71255C5.19624 6.71255 4.13592 5.65223 4.13592 4.34884C4.13592 3.04544 5.19592 1.98512 6.49932 1.98512ZM6.27197 3.17485C6.27197 3.04929 6.37376 2.9475 6.49932 2.9475C6.62487 2.9475 6.72666 3.04929 6.72666 3.17485C6.72666 3.3004 6.62487 3.40219 6.49932 3.40219C6.37376 3.40219 6.27197 3.3004 6.27197 3.17485ZM7.16852 3.67932C7.07957 3.59037 7.07957 3.44651 7.16852 3.35756C7.25746 3.26861 7.40132 3.26861 7.49027 3.35756C7.57922 3.44651 7.57922 3.59037 7.49027 3.67932C7.40132 3.76826 7.25746 3.76826 7.16852 3.67932ZM7.67331 4.12117C7.79886 4.12117 7.90065 4.22296 7.90065 4.34852C7.90065 4.47407 7.79886 4.57586 7.67331 4.57586C7.54775 4.57586 7.44596 4.47407 7.44596 4.34852C7.44596 4.22328 7.54775 4.12117 7.67331 4.12117ZM7.16852 5.33979C7.07957 5.25084 7.07957 5.10698 7.16852 5.01804C7.25746 4.92909 7.40132 4.92909 7.49027 5.01804C7.57922 5.10698 7.57922 5.25084 7.49027 5.33979C7.40132 5.42874 7.25746 5.42874 7.16852 5.33979ZM6.27197 5.52283C6.27197 5.39727 6.37376 5.29548 6.49932 5.29548C6.62487 5.29548 6.72666 5.39727 6.72666 5.52283C6.72666 5.64838 6.62487 5.75017 6.49932 5.75017C6.37376 5.75017 6.27197 5.64838 6.27197 5.52283ZM5.82979 5.01804C5.91874 5.10698 5.91874 5.25084 5.82979 5.33979C5.74085 5.42874 5.59699 5.42874 5.50804 5.33979C5.41909 5.25084 5.41909 5.10698 5.50804 5.01804C5.59699 4.92941 5.74117 4.92941 5.82979 5.01804ZM5.32533 4.57618C5.19977 4.57618 5.09798 4.47439 5.09798 4.34884C5.09798 4.22328 5.19977 4.12149 5.32533 4.12149C5.45088 4.12149 5.55267 4.22328 5.55267 4.34884C5.55267 4.47439 5.45088 4.57618 5.32533 4.57618ZM5.50836 3.67932C5.41941 3.59037 5.41941 3.44651 5.50836 3.35756C5.59731 3.26861 5.74117 3.26861 5.83012 3.35756C5.91906 3.44651 5.91906 3.59037 5.83012 3.67932C5.74117 3.76826 5.59699 3.76826 5.50836 3.67932ZM17.3905 8.69767C19.7886 8.69767 21.7393 6.74691 21.7393 4.34884C21.7393 1.95076 19.7883 0 17.3905 0C14.9928 0 13.0417 1.95076 13.0417 4.34884C13.0417 6.74691 14.9924 8.69767 17.3905 8.69767ZM17.3905 0.48167C19.523 0.48167 21.2577 2.21632 21.2577 4.34884C21.2577 6.48135 19.523 8.216 17.3905 8.216C15.258 8.216 13.5233 6.48135 13.5233 4.34884C13.5233 2.21632 15.258 0.48167 17.3905 0.48167ZM17.3905 6.47332C18.5619 6.47332 19.515 5.52026 19.515 4.34884C19.515 3.17742 18.5619 2.22435 17.3905 2.22435C16.2191 2.22435 15.266 3.17742 15.266 4.34884C15.266 5.52026 16.2188 6.47332 17.3905 6.47332ZM17.3905 2.70602C18.2964 2.70602 19.0333 3.44298 19.0333 4.34884C19.0333 5.2547 18.2964 5.99165 17.3905 5.99165C16.4847 5.99165 15.7477 5.2547 15.7477 4.34884C15.7477 3.44298 16.4843 2.70602 17.3905 2.70602ZM17.3905 7.03366C18.8708 7.03366 20.0753 5.82949 20.0753 4.34884C20.0753 2.86818 18.8708 1.66401 17.3905 1.66401C15.9102 1.66401 14.706 2.86818 14.706 4.34884C14.706 5.82949 15.9099 7.03366 17.3905 7.03366ZM17.3905 1.98512C18.6939 1.98512 19.7542 3.04544 19.7542 4.34884C19.7542 5.65223 18.6936 6.71255 17.3905 6.71255C16.0874 6.71255 15.0271 5.65223 15.0271 4.34884C15.0271 3.04544 16.0871 1.98512 17.3905 1.98512ZM17.1628 3.17485C17.1628 3.04929 17.2646 2.9475 17.3902 2.9475C17.5157 2.9475 17.6175 3.04929 17.6175 3.17485C17.6175 3.3004 17.5157 3.40219 17.3902 3.40219C17.265 3.40219 17.1628 3.3004 17.1628 3.17485ZM18.0597 3.67932C17.9708 3.59037 17.9708 3.44651 18.0597 3.35756C18.1487 3.26861 18.2925 3.26861 18.3815 3.35756C18.4704 3.44651 18.4704 3.59037 18.3815 3.67932C18.2925 3.76826 18.1487 3.76826 18.0597 3.67932ZM18.5645 4.12117C18.6901 4.12117 18.7918 4.22296 18.7918 4.34852C18.7918 4.47407 18.6901 4.57586 18.5645 4.57586C18.4389 4.57586 18.3372 4.47407 18.3372 4.34852C18.3372 4.22328 18.4389 4.12117 18.5645 4.12117ZM18.0597 5.33979C17.9708 5.25084 17.9708 5.10698 18.0597 5.01804C18.1487 4.92909 18.2925 4.92909 18.3815 5.01804C18.4704 5.10698 18.4704 5.25084 18.3815 5.33979C18.2925 5.42874 18.1487 5.42874 18.0597 5.33979ZM17.1628 5.52283C17.1628 5.39727 17.2646 5.29548 17.3902 5.29548C17.5157 5.29548 17.6175 5.39727 17.6175 5.52283C17.6175 5.64838 17.5157 5.75017 17.3902 5.75017C17.265 5.75017 17.1628 5.64838 17.1628 5.52283ZM16.721 5.01804C16.8099 5.10698 16.8099 5.25084 16.721 5.33979C16.632 5.42874 16.4882 5.42874 16.3992 5.33979C16.3103 5.25084 16.3103 5.10698 16.3992 5.01804C16.4882 4.92909 16.6324 4.92941 16.721 5.01804ZM16.2162 4.57618C16.0906 4.57618 15.9889 4.47439 15.9889 4.34884C15.9889 4.22328 16.0906 4.12149 16.2162 4.12149C16.3418 4.12149 16.4435 4.22328 16.4435 4.34884C16.4439 4.47439 16.3421 4.57618 16.2162 4.57618ZM16.3992 3.67932C16.3103 3.59037 16.3103 3.44651 16.3992 3.35756C16.4882 3.26861 16.632 3.26861 16.721 3.35756C16.8099 3.44651 16.8099 3.59037 16.721 3.67932C16.6324 3.76826 16.4882 3.76826 16.3992 3.67932Z" fill="#4D0CE7" stroke="#4D0CE7" stroke-width="0.188005"/>
</svg>
