<svg width="24" height="24" viewBox="0 0 24 24" fill="none" xmlns="http://www.w3.org/2000/svg">
<g clip-path="url(#clip0_3763_259228)">
<path d="M23.832 18.4255C23.8218 18.3831 22.7454 14.2009 18.8326 14.2009H18.0658L12.3044 9.23008C12.2604 9.19219 12.2045 9.17164 12.147 9.17164H0.752663C0.619722 9.17164 0.511828 9.27953 0.511828 9.41247C0.511828 9.54541 0.619722 9.65331 0.752663 9.65331H7.0879L4.89663 14.2012H0.752663C0.575087 14.2012 0.43155 14.3451 0.43155 14.5223C0.43155 14.6996 0.575087 14.8435 0.752663 14.8435H18.8326C18.9174 14.8435 18.9996 14.847 19.0812 14.8512C19.1297 15.7301 19.4373 16.4195 20.0037 16.8986C20.7272 17.51 21.6992 17.6304 22.353 17.6304C22.5518 17.6304 22.7203 17.6192 22.8443 17.6076C23.0598 18.0623 23.167 18.4255 23.1991 18.544V19.4177C22.6587 19.498 21.9863 19.9575 21.9863 21.0397C21.9863 22.1218 22.6587 22.5813 23.1991 22.6616V22.8196H16.9747C17.0055 22.5839 17.0209 22.345 17.0209 22.1061C17.0209 20.873 16.6047 19.7382 15.9118 18.8237H22.0444C22.222 18.8237 22.3655 18.6798 22.3655 18.5025C22.3655 18.3253 22.222 18.1814 22.0444 18.1814H15.3437C14.3621 17.2367 13.0307 16.6523 11.562 16.6523C10.0958 16.6523 8.76572 17.2367 7.78472 18.1814H0.485176C0.3076 18.1814 0.164062 18.3253 0.164062 18.5025C0.164062 18.6798 0.3076 18.8237 0.485176 18.8237H7.21731C6.52467 19.7382 6.10851 20.873 6.10851 22.1061C6.10851 22.345 6.12392 22.5839 6.15475 22.8196H0.485176C0.3076 22.8196 0.164062 22.9634 0.164062 23.1407C0.164062 23.318 0.3076 23.4618 0.485176 23.4618H6.53366C6.63032 23.4618 6.72151 23.4185 6.78221 23.3436C6.84322 23.2688 6.86762 23.1706 6.84803 23.0762C6.78349 22.7599 6.75041 22.4333 6.75041 22.1061C6.75041 19.665 8.57948 17.6471 10.9422 17.3398V17.5976H11.3369V19.7202H10.8552C10.7223 19.7202 10.6144 19.8281 10.6144 19.961V21.433L8.64177 20.4742C8.52168 20.4151 8.37814 20.4662 8.31969 20.5856C8.26157 20.7051 8.31167 20.8492 8.43112 20.9074L10.6144 21.9686V23.1404H10.1995V24.0006H12.929V23.1404H12.5141V19.961C12.5141 19.8281 12.4062 19.7202 12.2732 19.7202H11.7916V17.5976H12.1862V17.3391C14.547 17.6448 16.378 19.6634 16.378 22.1061C16.378 22.4333 16.345 22.7599 16.2804 23.0762C16.2608 23.1706 16.2852 23.2688 16.3462 23.3436C16.4069 23.4181 16.4984 23.4618 16.5948 23.4618H23.5196C23.6972 23.4618 23.8407 23.318 23.8407 23.1407V18.5025C23.8417 18.4765 23.8385 18.4505 23.832 18.4255ZM17.3285 14.2009H6.49706L6.75138 13.673H15.0127C15.1132 13.673 15.2034 13.6107 15.2384 13.5163C15.2734 13.4219 15.2461 13.3159 15.1703 13.2501L11.6114 10.1668C11.5674 10.1289 11.5116 10.108 11.4538 10.108H8.46933L8.68865 9.65298H12.0581L17.3285 14.2009ZM7.49957 12.1201C7.51788 12.1246 7.53554 12.1313 7.55512 12.1313H10.6327C10.7656 12.1313 10.8735 12.0234 10.8735 11.8905C10.8735 11.7576 10.7656 11.6497 10.6327 11.6497H7.72628L8.23685 10.5897H11.3638L14.3669 13.1913H6.98354L7.49957 12.1201ZM7.62288 9.65331H8.15368L5.9624 14.2009H5.4316L7.62288 9.65331ZM12.0327 23.1404H11.0964V22.2027L11.4592 22.379C11.4929 22.3957 11.5292 22.4034 11.5642 22.4034C11.6535 22.4034 11.7396 22.3537 11.7813 22.2679C11.8394 22.1485 11.7893 22.0043 11.6699 21.9462L11.0964 21.6674V20.2022H12.0327V23.1404ZM20.4167 16.406C20.0162 16.0666 19.7866 15.5717 19.7292 14.9334C21.1058 15.2188 21.9776 16.1382 22.5042 16.9837C21.9599 17.0007 21.0435 16.9381 20.4167 16.406ZM22.6285 21.0397C22.6285 20.3489 22.9795 20.1386 23.1991 20.0744V22.0046C22.9798 21.9404 22.6285 21.7301 22.6285 21.0397ZM3.08619 16.1979C2.95325 16.1979 2.84536 16.09 2.84536 15.9571C2.84536 15.8241 2.95325 15.7162 3.08619 15.7162H5.4194C5.55234 15.7162 5.66024 15.8241 5.66024 15.9571C5.66024 16.09 5.55234 16.1979 5.4194 16.1979H3.08619ZM6.56963 8.69767C8.9677 8.69767 10.9185 6.74691 10.9185 4.34884C10.9185 1.95076 8.96738 0 6.56963 0C4.17188 0 2.22079 1.95076 2.22079 4.34884C2.22079 6.74691 4.17156 8.69767 6.56963 8.69767ZM6.56963 0.48167C8.70214 0.48167 10.4368 2.21632 10.4368 4.34884C10.4368 6.48135 8.70214 8.216 6.56963 8.216C4.43712 8.216 2.70246 6.48135 2.70246 4.34884C2.70246 2.21632 4.43712 0.48167 6.56963 0.48167ZM6.56963 6.47332C7.74105 6.47332 8.69411 5.52026 8.69411 4.34884C8.69411 3.17742 7.74105 2.22435 6.56963 2.22435C5.39821 2.22435 4.44514 3.17742 4.44514 4.34884C4.44514 5.52026 5.39789 6.47332 6.56963 6.47332ZM6.56963 2.70602C7.47549 2.70602 8.21244 3.44298 8.21244 4.34884C8.21244 5.2547 7.47549 5.99165 6.56963 5.99165C5.66377 5.99165 4.92681 5.2547 4.92681 4.34884C4.92681 3.44298 5.66345 2.70602 6.56963 2.70602ZM6.56963 7.03366C8.04996 7.03366 9.25446 5.82949 9.25446 4.34884C9.25446 2.86818 8.04996 1.66401 6.56963 1.66401C5.0893 1.66401 3.88512 2.86818 3.88512 4.34884C3.88512 5.82949 5.08897 7.03366 6.56963 7.03366ZM6.56963 1.98512C7.87303 1.98512 8.93334 3.04544 8.93334 4.34884C8.93334 5.65223 7.87271 6.71255 6.56963 6.71255C5.26655 6.71255 4.20623 5.65223 4.20623 4.34884C4.20623 3.04544 5.26623 1.98512 6.56963 1.98512ZM6.34228 3.17485C6.34228 3.04929 6.44407 2.9475 6.56963 2.9475C6.69518 2.9475 6.79698 3.04929 6.79698 3.17485C6.79698 3.3004 6.69518 3.40219 6.56963 3.40219C6.44407 3.40219 6.34228 3.3004 6.34228 3.17485ZM7.23883 3.67932C7.14988 3.59037 7.14988 3.44651 7.23883 3.35756C7.32778 3.26861 7.47163 3.26861 7.56058 3.35756C7.64953 3.44651 7.64953 3.59037 7.56058 3.67932C7.47163 3.76826 7.32778 3.76826 7.23883 3.67932ZM7.74362 4.12117C7.86917 4.12117 7.97097 4.22296 7.97097 4.34852C7.97097 4.47407 7.86917 4.57586 7.74362 4.57586C7.61806 4.57586 7.51627 4.47407 7.51627 4.34852C7.51627 4.22328 7.61806 4.12117 7.74362 4.12117ZM7.23883 5.33979C7.14988 5.25084 7.14988 5.10698 7.23883 5.01804C7.32778 4.92909 7.47163 4.92909 7.56058 5.01804C7.64953 5.10698 7.64953 5.25084 7.56058 5.33979C7.47163 5.42874 7.32778 5.42874 7.23883 5.33979ZM6.34228 5.52283C6.34228 5.39727 6.44407 5.29548 6.56963 5.29548C6.69518 5.29548 6.79698 5.39727 6.79698 5.52283C6.79698 5.64838 6.69518 5.75017 6.56963 5.75017C6.44407 5.75017 6.34228 5.64838 6.34228 5.52283ZM5.90011 5.01804C5.98906 5.10698 5.98906 5.25084 5.90011 5.33979C5.81116 5.42874 5.6673 5.42874 5.57835 5.33979C5.4894 5.25084 5.4894 5.10698 5.57835 5.01804C5.6673 4.92941 5.81148 4.92941 5.90011 5.01804ZM5.39564 4.57618C5.27008 4.57618 5.16829 4.47439 5.16829 4.34884C5.16829 4.22328 5.27008 4.12149 5.39564 4.12149C5.52119 4.12149 5.62299 4.22328 5.62299 4.34884C5.62299 4.47439 5.52119 4.57618 5.39564 4.57618ZM5.57867 3.67932C5.48972 3.59037 5.48972 3.44651 5.57867 3.35756C5.66762 3.26861 5.81148 3.26861 5.90043 3.35756C5.98938 3.44651 5.98938 3.59037 5.90043 3.67932C5.81148 3.76826 5.6673 3.76826 5.57867 3.67932ZM17.4608 8.69767C19.8589 8.69767 21.8097 6.74691 21.8097 4.34884C21.8097 1.95076 19.8586 0 17.4608 0C15.0631 0 13.112 1.95076 13.112 4.34884C13.112 6.74691 15.0628 8.69767 17.4608 8.69767ZM17.4608 0.48167C19.5933 0.48167 21.328 2.21632 21.328 4.34884C21.328 6.48135 19.5933 8.216 17.4608 8.216C15.3283 8.216 13.5937 6.48135 13.5937 4.34884C13.5937 2.21632 15.3283 0.48167 17.4608 0.48167ZM17.4608 6.47332C18.6322 6.47332 19.5853 5.52026 19.5853 4.34884C19.5853 3.17742 18.6322 2.22435 17.4608 2.22435C16.2894 2.22435 15.3363 3.17742 15.3363 4.34884C15.3363 5.52026 16.2891 6.47332 17.4608 6.47332ZM17.4608 2.70602C18.3667 2.70602 19.1036 3.44298 19.1036 4.34884C19.1036 5.2547 18.3667 5.99165 17.4608 5.99165C16.555 5.99165 15.818 5.2547 15.818 4.34884C15.818 3.44298 16.5546 2.70602 17.4608 2.70602ZM17.4608 7.03366C18.9412 7.03366 20.1457 5.82949 20.1457 4.34884C20.1457 2.86818 18.9412 1.66401 17.4608 1.66401C15.9805 1.66401 14.7763 2.86818 14.7763 4.34884C14.7763 5.82949 15.9802 7.03366 17.4608 7.03366ZM17.4608 1.98512C18.7642 1.98512 19.8245 3.04544 19.8245 4.34884C19.8245 5.65223 18.7639 6.71255 17.4608 6.71255C16.1577 6.71255 15.0974 5.65223 15.0974 4.34884C15.0974 3.04544 16.1574 1.98512 17.4608 1.98512ZM17.2332 3.17485C17.2332 3.04929 17.3349 2.9475 17.4605 2.9475C17.5861 2.9475 17.6879 3.04929 17.6879 3.17485C17.6879 3.3004 17.5861 3.40219 17.4605 3.40219C17.3353 3.40219 17.2332 3.3004 17.2332 3.17485ZM18.13 3.67932C18.0411 3.59037 18.0411 3.44651 18.13 3.35756C18.219 3.26861 18.3628 3.26861 18.4518 3.35756C18.5407 3.44651 18.5407 3.59037 18.4518 3.67932C18.3628 3.76826 18.219 3.76826 18.13 3.67932ZM18.6348 4.12117C18.7604 4.12117 18.8622 4.22296 18.8622 4.34852C18.8622 4.47407 18.7604 4.57586 18.6348 4.57586C18.5093 4.57586 18.4075 4.47407 18.4075 4.34852C18.4075 4.22328 18.5093 4.12117 18.6348 4.12117ZM18.13 5.33979C18.0411 5.25084 18.0411 5.10698 18.13 5.01804C18.219 4.92909 18.3628 4.92909 18.4518 5.01804C18.5407 5.10698 18.5407 5.25084 18.4518 5.33979C18.3628 5.42874 18.219 5.42874 18.13 5.33979ZM17.2332 5.52283C17.2332 5.39727 17.3349 5.29548 17.4605 5.29548C17.5861 5.29548 17.6879 5.39727 17.6879 5.52283C17.6879 5.64838 17.5861 5.75017 17.4605 5.75017C17.3353 5.75017 17.2332 5.64838 17.2332 5.52283ZM16.7913 5.01804C16.8803 5.10698 16.8803 5.25084 16.7913 5.33979C16.7024 5.42874 16.5585 5.42874 16.4695 5.33979C16.3806 5.25084 16.3806 5.10698 16.4695 5.01804C16.5585 4.92909 16.7027 4.92941 16.7913 5.01804ZM16.2865 4.57618C16.161 4.57618 16.0592 4.47439 16.0592 4.34884C16.0592 4.22328 16.161 4.12149 16.2865 4.12149C16.4121 4.12149 16.5139 4.22328 16.5139 4.34884C16.5142 4.47439 16.4124 4.57618 16.2865 4.57618ZM16.4695 3.67932C16.3806 3.59037 16.3806 3.44651 16.4695 3.35756C16.5585 3.26861 16.7024 3.26861 16.7913 3.35756C16.8803 3.44651 16.8803 3.59037 16.7913 3.67932C16.7027 3.76826 16.5585 3.76826 16.4695 3.67932Z" fill="white" stroke="white" stroke-width="0.188005"/>
</g>
<defs>
<clipPath id="clip0_3763_259228">
<rect width="24" height="24" fill="white"/>
</clipPath>
</defs>
</svg>
