<svg width="30" height="30" viewBox="0 0 30 30" fill="none" xmlns="http://www.w3.org/2000/svg">
<path d="M15.0713 2.1875C17.8095 2.18748 19.9604 2.18736 21.6396 2.41309C23.3605 2.64444 24.7261 3.12842 25.7988 4.20117C26.8716 5.27392 27.3556 6.63953 27.5869 8.36035C27.8126 10.0396 27.8125 12.1905 27.8125 14.9287V15.0713C27.8125 17.8095 27.8126 19.9604 27.5869 21.6396C27.3556 23.3605 26.8716 24.7261 25.7988 25.7988C24.7261 26.8716 23.3605 27.3556 21.6396 27.5869C19.9604 27.8126 17.8095 27.8125 15.0713 27.8125H14.9287C12.1905 27.8125 10.0396 27.8126 8.36035 27.5869C6.63953 27.3556 5.27392 26.8716 4.20117 25.7988C3.12842 24.7261 2.64444 23.3605 2.41309 21.6396C2.18736 19.9604 2.18748 17.8095 2.1875 15.0713V14.9287C2.18748 12.1905 2.18736 10.0396 2.41309 8.36035C2.64444 6.63953 3.12842 5.27392 4.20117 4.20117C5.27392 3.12842 6.63953 2.64444 8.36035 2.41309C10.0396 2.18736 12.1905 2.18748 14.9287 2.1875H15.0713ZM6.28027 25.0449C6.85847 25.3737 7.59801 25.5924 8.61035 25.7285C10.1502 25.9355 12.1748 25.9375 15 25.9375C16.8225 25.9375 18.3118 25.9351 19.5527 25.8789L12.5 18.8262L6.28027 25.0449ZM15 4.0625C12.1748 4.0625 10.1502 4.06452 8.61035 4.27148C7.09745 4.47489 6.19365 4.86104 5.52734 5.52734C4.94912 6.10557 4.58214 6.86225 4.3623 8.04102C4.37943 8.05584 4.39682 8.07064 4.41309 8.08691L21.9131 25.5869C21.929 25.6029 21.9435 25.62 21.958 25.6367C23.1372 25.4169 23.8943 25.051 24.4727 24.4727C25.139 23.8064 25.5251 22.9026 25.7285 21.3896C25.9355 19.8498 25.9375 17.8252 25.9375 15C25.9375 12.1748 25.9355 10.1502 25.7285 8.61035C25.5251 7.09745 25.139 6.19365 24.4727 5.52734C23.8064 4.86104 22.9026 4.47489 21.3896 4.27148C19.8498 4.06452 17.8252 4.0625 15 4.0625ZM4.12012 10.4463C4.06393 11.6874 4.0625 13.1771 4.0625 15C4.0625 17.8252 4.06452 19.8498 4.27148 21.3896C4.4075 22.4013 4.62566 23.1407 4.9541 23.7188L11.1738 17.5L4.12012 10.4463ZM18.125 6.5625C21.0237 6.5625 23.4375 9.01211 23.4375 11.9629C23.4375 14.9936 20.9645 16.9828 19.0752 18.1719L19.0459 18.1895C18.7665 18.3516 18.449 18.4375 18.125 18.4375C17.801 18.4375 17.4835 18.3516 17.2041 18.1895L17.1875 18.1797L17.1709 18.1689C15.2933 16.9734 12.8125 15.0037 12.8125 11.9629C12.8125 9.01211 15.2263 6.5625 18.125 6.5625ZM18.125 8.4375C16.2884 8.4375 14.6875 10.0209 14.6875 11.9629C14.6875 13.8917 16.2639 15.3601 18.125 16.5537C19.9832 15.3757 21.5625 13.886 21.5625 11.9629C21.5625 10.0209 19.9616 8.4375 18.125 8.4375ZM18.1357 10.625C18.8261 10.625 19.3857 11.1846 19.3857 11.875C19.3857 12.5654 18.8261 13.125 18.1357 13.125H18.125C17.4346 13.125 16.875 12.5654 16.875 11.875C16.875 11.1846 17.4346 10.625 18.125 10.625H18.1357Z" fill="#161616"/>
</svg>
