<svg width="16" height="16" viewBox="0 0 16 16" fill="none" xmlns="http://www.w3.org/2000/svg">
<path d="M12.3115 2.97974C12.5067 2.78456 12.8233 2.78472 13.0186 2.97974C13.2138 3.175 13.2138 3.49151 13.0186 3.68677L8.70508 7.99927L13.0195 12.3127C13.2147 12.5079 13.2144 12.8245 13.0195 13.0198C12.8243 13.215 12.5078 13.215 12.3125 13.0198L7.99805 8.7063L3.68555 13.0198C3.49028 13.215 3.17378 13.215 2.97852 13.0198C2.7835 12.8245 2.78334 12.5079 2.97852 12.3127L7.29102 7.99927L2.97852 3.68677C2.78344 3.49151 2.78337 3.17495 2.97852 2.97974C3.17372 2.78453 3.49027 2.78464 3.68555 2.97974L7.99805 7.29224L12.3115 2.97974Z" fill="#F04438"/>
</svg>
